<svg width="49" height="51" viewBox="0 0 49 51" fill="none" xmlns="http://www.w3.org/2000/svg">
<path d="M2.87749 42.179V42.7867C2.47528 43.0638 2.11776 43.2068 1.69768 43.2068C0.759189 43.2068 0.178223 42.4113 0.178223 40.9634C0.178223 39.5512 0.786004 38.7646 1.7513 38.7646C2.11776 38.7646 2.47528 38.9077 2.87749 39.1669V39.7568H2.55572C2.36802 39.3367 2.1267 39.149 1.73343 39.149C1.05414 39.149 0.687686 39.7925 0.687686 41.026C0.687686 42.2058 1.08096 42.8135 1.74237 42.8135C2.14457 42.8135 2.40377 42.608 2.55572 42.179H2.87749Z" fill="white"/>
<path d="M3.81615 41.6795V41.7599C3.81615 42.4571 4.13791 42.8414 4.61162 42.8414C4.91552 42.8414 5.19259 42.6984 5.3356 42.475H5.65737V42.8236C5.3356 43.1006 5.01383 43.2168 4.58481 43.2168C3.76252 43.2168 3.3335 42.6448 3.3335 41.5544C3.3335 40.4818 3.78039 39.874 4.50437 39.874C5.23728 39.874 5.67524 40.4639 5.67524 41.5722V41.6974H3.81615V41.6795ZM5.20153 41.322C5.16578 40.598 4.90658 40.2137 4.50437 40.2137C4.07535 40.2137 3.83402 40.5891 3.81615 41.322H5.20153Z" fill="white"/>
<path d="M6.85525 39.9457V40.2138L6.91782 40.2317C7.09658 39.9814 7.31109 39.8652 7.60604 39.8652C8.18701 39.8652 8.46408 40.2317 8.46408 40.9735V43.1097H8.00825V41.1344C8.00825 40.5445 7.9278 40.2406 7.48984 40.2406C7.24852 40.2406 7.05189 40.3479 6.85525 40.5892V43.1186H6.39941V39.9546H6.85525V39.9457Z" fill="white"/>
<path d="M10.5194 39.9451V40.3026H9.80438V42.269C9.80438 42.698 9.81331 42.7337 10.2155 42.7337H10.5194V43.1091H10.0278C9.44686 43.1091 9.35748 42.8767 9.35748 42.1438V40.3115H8.97314V39.954H9.35748V38.9619H9.80438V39.954H10.5194V39.9451Z" fill="white"/>
<path d="M11.5475 39.9453V40.1956C11.5475 40.285 11.5475 40.3922 11.4939 40.5352L11.5743 40.5799C11.762 40.1866 12.1553 39.9453 12.5932 39.9453H12.629V40.4548C12.191 40.4637 11.8782 40.5888 11.5475 40.9017V43.1094H11.1006V39.9453H11.5475Z" fill="white"/>
<path d="M15.4267 41.5358C15.4267 42.6262 14.9977 43.2072 14.2558 43.2072C13.5319 43.2072 13.085 42.5994 13.085 41.509C13.085 40.4722 13.5408 39.8555 14.2558 39.8555C14.9887 39.8555 15.4267 40.4632 15.4267 41.5358ZM13.5587 41.4732C13.5587 42.3849 13.8089 42.8497 14.2558 42.8497C14.6849 42.8497 14.953 42.3849 14.953 41.5358C14.953 40.6778 14.6759 40.213 14.2558 40.213C13.8447 40.213 13.5587 40.6688 13.5587 41.4732Z" fill="white"/>
<path d="M19.2164 42.8407L19.1449 42.8318C18.9572 43.091 18.7516 43.2072 18.4656 43.2072C17.8846 43.2072 17.4824 42.5905 17.4824 41.5179C17.4824 40.4811 17.8936 39.8554 18.4656 39.8554C18.7516 39.8554 18.9572 39.9806 19.1449 40.2398L19.2164 40.2219V38.6846H19.6633V43.1178H19.2164V42.8407ZM19.2164 40.5884C19.0198 40.3649 18.841 40.2487 18.6265 40.2487C18.1885 40.2487 17.9472 40.6867 17.9472 41.5268C17.9472 42.3849 18.1796 42.8228 18.6265 42.8228C18.841 42.8228 19.0198 42.7066 19.2164 42.4743V40.5884Z" fill="white"/>
<path d="M20.7891 41.6795V41.7599C20.7891 42.4571 21.1109 42.8414 21.5936 42.8414C21.8974 42.8414 22.1745 42.6984 22.3175 42.475H22.6393V42.8236C22.3175 43.1006 21.9958 43.2168 21.5667 43.2168C20.7445 43.2168 20.3154 42.6448 20.3154 41.5544C20.3154 40.4818 20.7623 39.874 21.4863 39.874C22.2192 39.874 22.6572 40.4639 22.6572 41.5722V41.6974H20.7891V41.6795ZM22.1745 41.322C22.1388 40.598 21.8796 40.2137 21.4774 40.2137C21.0483 40.2137 20.807 40.5891 20.7891 41.322H22.1745Z" fill="white"/>
<path d="M25.7406 38.8633C27.0366 38.8633 27.6265 39.5694 27.6265 40.9816C27.6265 42.4206 27.0187 43.1088 25.7674 43.1088H24.811V38.8633H25.7406ZM25.2937 42.7424C25.4009 42.7513 25.4903 42.7513 25.5797 42.7513C26.688 42.7513 27.117 42.215 27.117 40.9458C27.117 39.7303 26.6701 39.2119 25.5708 39.2119C25.4903 39.2119 25.392 39.2119 25.2937 39.2208V42.7424V42.7424Z" fill="white"/>
<path d="M28.6366 41.6795V41.7599C28.6366 42.4571 28.9584 42.8414 29.4411 42.8414C29.745 42.8414 30.022 42.6984 30.174 42.475H30.4957V42.8236C30.174 43.1006 29.8522 43.2168 29.4232 43.2168C28.6009 43.2168 28.1719 42.6448 28.1719 41.5544C28.1719 40.4818 28.6188 39.874 29.3427 39.874C30.0757 39.874 30.5136 40.4639 30.5136 41.5722V41.6974H28.6366V41.6795ZM30.022 41.322C29.9863 40.598 29.7271 40.2137 29.3249 40.2137C28.8958 40.2137 28.6545 40.5891 28.6366 41.322H30.022Z" fill="white"/>
<path d="M31.327 42.367C31.47 42.6531 31.7292 42.805 32.0778 42.805C32.4711 42.805 32.7124 42.5816 32.7124 42.2777C32.7124 41.8129 32.2923 41.8129 31.7203 41.6073C31.3538 41.4732 31.1125 41.1425 31.1125 40.7761C31.1125 40.2487 31.5326 39.8555 32.1493 39.8555C32.4979 39.8555 32.775 39.9627 33.061 40.213V40.6688H32.766C32.632 40.3739 32.4085 40.2309 32.1225 40.2309C31.7918 40.2309 31.5326 40.4543 31.5326 40.7403C31.5326 41.0353 31.7739 41.1783 32.2476 41.3213C32.8822 41.509 33.1682 41.7593 33.1682 42.233C33.1682 42.805 32.7482 43.1983 32.0778 43.1983C31.6845 43.1983 31.3002 43.0642 31.041 42.8318V42.376H31.327V42.367Z" fill="white"/>
<path d="M35.9037 43.1089H35.4479V42.8407H35.3853C35.135 43.091 34.8937 43.2072 34.5898 43.2072C34.0535 43.2072 33.6245 42.805 33.6245 42.2955C33.6245 41.6431 34.2323 41.2319 35.421 41.1336C35.43 41.0621 35.43 40.9995 35.43 40.928C35.43 40.4275 35.2512 40.2041 34.8133 40.2041C34.4647 40.2041 34.277 40.3381 34.1519 40.6599H33.8301V40.1683C34.1072 39.9895 34.42 39.8555 34.8401 39.8555C35.2512 39.8555 35.5641 40.0074 35.7517 40.2577C35.9037 40.4633 35.9037 40.7403 35.9037 41.223V43.1089V43.1089ZM35.4389 41.4107C34.5541 41.4822 34.0982 41.8039 34.0982 42.2508C34.0982 42.5726 34.3395 42.8139 34.7328 42.8139C35.001 42.8139 35.2244 42.7067 35.4389 42.5011V41.4107Z" fill="white"/>
<path d="M37.1813 39.9453V40.1956C37.1813 40.285 37.1813 40.3922 37.1276 40.5352L37.2081 40.5799C37.3958 40.1866 37.789 39.9453 38.227 39.9453H38.2628V40.4548C37.8248 40.4637 37.512 40.5888 37.1813 40.9017V43.1094H36.7344V39.9453H37.1813Z" fill="white"/>
<path d="M39.3448 39.9453V40.1956C39.3448 40.285 39.3448 40.3922 39.2912 40.5352L39.3717 40.5799C39.5594 40.1866 39.9526 39.9453 40.3906 39.9453H40.4263V40.4548C39.9884 40.4637 39.6756 40.5888 39.3448 40.9017V43.1094H38.8979V39.9453H39.3448Z" fill="white"/>
<path d="M43.2231 41.5358C43.2231 42.6262 42.7941 43.2072 42.0522 43.2072C41.3193 43.2072 40.8813 42.5994 40.8813 41.509C40.8813 40.4722 41.3372 39.8555 42.0522 39.8555C42.7851 39.8555 43.2231 40.4632 43.2231 41.5358ZM41.364 41.4732C41.364 42.3849 41.6143 42.8497 42.0612 42.8497C42.4902 42.8497 42.7583 42.3849 42.7583 41.5358C42.7583 40.6778 42.4812 40.213 42.0612 40.213C41.6411 40.213 41.364 40.6688 41.364 41.4732Z" fill="white"/>
<path d="M44.3947 38.6758V43.109H43.9478V38.6758H44.3947Z" fill="white"/>
<path d="M45.7526 38.6758V43.109H45.3057V38.6758H45.7526Z" fill="white"/>
<path d="M48.8188 41.5358C48.8188 42.6262 48.3898 43.2072 47.6479 43.2072C46.915 43.2072 46.4771 42.5994 46.4771 41.509C46.4771 40.4722 46.9329 39.8555 47.6479 39.8555C48.3808 39.8555 48.8188 40.4632 48.8188 41.5358ZM46.9508 41.4732C46.9508 42.3849 47.201 42.8497 47.6479 42.8497C48.0769 42.8497 48.3451 42.3849 48.3451 41.5358C48.3451 40.6778 48.068 40.213 47.6479 40.213C47.2278 40.213 46.9508 40.6688 46.9508 41.4732Z" fill="white"/>
<path d="M2.14442 49.4012C2.14442 50.2324 2.31424 50.5989 2.98459 50.5989C3.59237 50.5989 3.82476 50.295 3.82476 49.5978V46.6572H4.28059V49.1867C4.28059 49.6872 4.26272 50.0537 4.18228 50.2771C4.02139 50.7508 3.60131 51.0011 2.98459 51.0011C2.33212 51.0011 1.92097 50.7508 1.75115 50.2771C1.67071 50.0537 1.65283 49.6872 1.65283 49.1867V46.6572H2.14442V49.4012Z" fill="white"/>
<path d="M5.9967 47.7656V48.0159C5.9967 48.1053 5.9967 48.2125 5.94307 48.3555L6.02352 48.4002C6.21121 48.007 6.59555 47.7656 7.03351 47.7656H7.06926V48.2662C6.6313 48.2751 6.31847 48.4002 5.9967 48.7131V50.9029H5.5498V47.7656H5.9967V47.7656Z" fill="white"/>
<path d="M8.07043 46.506V48.0344L8.133 48.0523C8.3207 47.7931 8.53521 47.6679 8.81228 47.6679C9.37538 47.6679 9.77758 48.2847 9.77758 49.3215C9.77758 50.3761 9.38431 50.9929 8.81228 50.9929C8.52627 50.9929 8.31176 50.8767 8.133 50.6085L8.07043 50.6175V50.8856H7.62354V46.4971H8.07043V46.506ZM8.07043 50.2778C8.26707 50.5013 8.44583 50.6175 8.66034 50.6175C9.0983 50.6175 9.32175 50.1884 9.32175 49.3304C9.32175 48.4902 9.0983 48.0612 8.66034 48.0612C8.44583 48.0612 8.26707 48.1685 8.07043 48.4009V50.2778Z" fill="white"/>
<path d="M12.6113 50.9025H12.1644V50.6344H12.1018C11.8605 50.8757 11.6102 50.9919 11.3152 50.9919C10.779 50.9919 10.3589 50.5897 10.3589 50.0892C10.3589 49.4367 10.9577 49.0345 12.1375 48.9362C12.1465 48.8647 12.1465 48.8021 12.1465 48.7395C12.1465 48.239 11.9677 48.0245 11.5298 48.0245C11.1901 48.0245 11.0024 48.1496 10.8684 48.4714H10.5466V47.9798C10.8147 47.81 11.1365 47.667 11.5476 47.667C11.9498 47.667 12.2716 47.8189 12.4504 48.0692C12.6023 48.2748 12.6023 48.5429 12.6023 49.0345V50.9025H12.6113ZM12.1465 49.2133C11.2706 49.2848 10.8147 49.5976 10.8147 50.0445C10.8147 50.3663 11.056 50.6076 11.4493 50.6076C11.7175 50.6076 11.932 50.5003 12.1465 50.2947V49.2133Z" fill="white"/>
<path d="M13.88 47.7668V48.035L13.9425 48.0528C14.1123 47.8026 14.3269 47.6953 14.6218 47.6953C15.1938 47.6953 15.4709 48.0618 15.4709 48.7947V50.913H15.0151V48.9556C15.0151 48.3746 14.9346 48.0618 14.4967 48.0618C14.2554 48.0618 14.0677 48.169 13.8621 48.4014V50.913H13.4062V47.7758H13.88V47.7668Z" fill="white"/>
<path d="M18.4381 49.3382C18.4381 50.4197 18.0091 50.9918 17.2762 50.9918C16.5522 50.9918 16.1143 50.3929 16.1143 49.3114C16.1143 48.2836 16.5612 47.6758 17.2762 47.6758C18.0002 47.6758 18.4381 48.2746 18.4381 49.3382ZM16.588 49.2757C16.588 50.1784 16.8293 50.6432 17.2762 50.6432C17.7052 50.6432 17.9644 50.1874 17.9644 49.3382C17.9644 48.4891 17.6873 48.0333 17.2762 48.0333C16.865 48.0333 16.588 48.4802 16.588 49.2757Z" fill="white"/>
<path d="M20.7354 50.0984C20.9231 50.4649 21.1555 50.6257 21.5399 50.6257C22.0404 50.6257 22.38 50.304 22.38 49.8481C22.38 49.3119 21.9868 49.1957 21.3522 48.8828C20.7086 48.57 20.4137 48.2572 20.4137 47.6852C20.4137 47.0684 20.9053 46.5947 21.5846 46.5947C22.0225 46.5947 22.38 46.702 22.7018 46.9522V47.4796H22.3622C22.1745 47.131 21.9421 46.9612 21.6292 46.9612C21.2002 46.9612 20.8963 47.274 20.8963 47.6673C20.8963 48.0248 21.1198 48.2483 21.5667 48.4449C21.9689 48.6236 22.2996 48.7577 22.523 48.9722C22.7644 49.2135 22.8806 49.4996 22.8806 49.8124C22.8806 50.4827 22.3175 50.9922 21.4594 50.9922C21.084 50.9922 20.7444 50.8939 20.3779 50.7062V50.0895H20.7354V50.0984Z" fill="white"/>
<path d="M25.0795 50.9029V50.6347L25.008 50.6168C24.8382 50.8671 24.6237 50.9744 24.3287 50.9744C23.9444 50.9744 23.6673 50.7867 23.5333 50.4291C23.4707 50.2593 23.4707 49.9822 23.4707 49.6068V47.7656H23.9176V49.723C23.9176 50.304 24.0159 50.6168 24.4449 50.6168C24.6863 50.6168 24.874 50.5096 25.0795 50.2772V47.7656H25.5264V50.9029H25.0795V50.9029Z" fill="white"/>
<path d="M26.5004 50.1605C26.6434 50.4465 26.9026 50.5896 27.2422 50.5896C27.6266 50.5896 27.8679 50.3661 27.8679 50.0712C27.8679 49.6064 27.4567 49.6153 26.8847 49.4097C26.5182 49.2757 26.2769 48.9539 26.2769 48.5875C26.2769 48.0691 26.697 47.6758 27.3048 47.6758C27.6444 47.6758 27.9215 47.783 28.2075 48.0333V48.4802H27.9126C27.7785 48.1852 27.555 48.0422 27.278 48.0422C26.9473 48.0422 26.697 48.2657 26.697 48.5517C26.697 48.8377 26.9383 48.9807 27.4031 49.1237C28.0288 49.3114 28.3148 49.5528 28.3148 50.0265C28.3148 50.5985 27.9036 50.9828 27.2422 50.9828C26.8579 50.9828 26.4646 50.8488 26.2144 50.6164V50.1695H26.5004V50.1605Z" fill="white"/>
<path d="M30.2185 47.7653V48.1228H29.5124V50.0712C29.5124 50.5003 29.5213 50.5271 29.9146 50.5271H30.2185V50.9025H29.7269C29.1459 50.9025 29.0655 50.6701 29.0655 49.9461V48.1317H28.6812V47.7742H29.0655V46.791H29.5124V47.7742H30.2185V47.7653Z" fill="white"/>
<path d="M31.0948 49.4813V49.5617C31.0948 50.2499 31.4076 50.6342 31.8903 50.6342C32.1942 50.6342 32.4713 50.4912 32.6143 50.2678H32.9271V50.6164C32.6053 50.8934 32.2925 51.0007 31.8635 51.0007C31.0501 51.0007 30.6211 50.4376 30.6211 49.3472C30.6211 48.2836 31.068 47.6758 31.783 47.6758C32.5159 47.6758 32.945 48.2657 32.945 49.3561V49.4813H31.0948V49.4813ZM32.4713 49.1237C32.4355 48.4087 32.1852 48.0244 31.783 48.0244C31.354 48.0244 31.1216 48.3998 31.1037 49.1237H32.4713Z" fill="white"/>
<path d="M34.1069 47.7668V48.035L34.1694 48.0528C34.3393 47.8026 34.5538 47.6953 34.8487 47.6953C35.4207 47.6953 35.6978 48.0618 35.6978 48.7947V50.913H35.242V48.9556C35.242 48.3746 35.1615 48.0618 34.7236 48.0618C34.4823 48.0618 34.2946 48.169 34.089 48.4014V50.913H33.6421V47.7758H34.1069V47.7668Z" fill="white"/>
<path d="M37.7448 47.7653V48.1228H37.0387V50.0712C37.0387 50.5003 37.0477 50.5271 37.441 50.5271H37.7448V50.9025H37.2533C36.6723 50.9025 36.5919 50.6701 36.5919 49.9461V48.1317H36.2075V47.7742H36.5919V46.791H37.0387V47.7742H37.7448V47.7653Z" fill="white"/>
<path d="M40.3543 50.9025H39.9074V50.6344H39.8537C39.6124 50.8757 39.3622 50.9919 39.0672 50.9919C38.5309 50.9919 38.1108 50.5897 38.1108 50.0892C38.1108 49.4367 38.7097 49.0345 39.8895 48.9362C39.8984 48.8647 39.8984 48.8021 39.8984 48.7395C39.8984 48.239 39.7197 48.0245 39.2817 48.0245C38.9421 48.0245 38.7544 48.1496 38.6203 48.4714H38.2985V47.9798C38.5667 47.81 38.8884 47.667 39.2996 47.667C39.7018 47.667 40.0236 47.8189 40.2023 48.0692C40.3543 48.2748 40.3543 48.5429 40.3543 49.0345V50.9025V50.9025ZM39.8984 49.2133C39.0225 49.2848 38.5667 49.5976 38.5667 50.0445C38.5667 50.3663 38.808 50.6076 39.2013 50.6076C39.4694 50.6076 39.6839 50.5003 39.8984 50.2947V49.2133Z" fill="white"/>
<path d="M41.5431 46.506V48.0344L41.6057 48.0523C41.7934 47.7931 42.0079 47.6679 42.2849 47.6679C42.848 47.6679 43.2502 48.2847 43.2502 49.3215C43.2502 50.3761 42.857 50.9929 42.2849 50.9929C41.9989 50.9929 41.7844 50.8767 41.6057 50.6085L41.5431 50.6175V50.8856H41.0962V46.4971H41.5431V46.506ZM41.5431 50.2778C41.7397 50.5013 41.9185 50.6175 42.133 50.6175C42.571 50.6175 42.7944 50.1884 42.7944 49.3304C42.7944 48.4902 42.571 48.0612 42.133 48.0612C41.9185 48.0612 41.7397 48.1685 41.5431 48.4009V50.2778Z" fill="white"/>
<path d="M44.4747 46.5059V50.8944H44.0278V46.5059H44.4747Z" fill="white"/>
<path d="M45.6817 49.4813V49.5617C45.6817 50.2499 45.9945 50.6342 46.4772 50.6342C46.7811 50.6342 47.0582 50.4912 47.2012 50.2678H47.514V50.6164C47.1922 50.8934 46.8794 51.0007 46.4504 51.0007C45.637 51.0007 45.208 50.4376 45.208 49.3472C45.208 48.2836 45.6549 47.6758 46.3699 47.6758C47.1029 47.6758 47.5319 48.2657 47.5319 49.3561V49.4813H45.6817V49.4813ZM47.0492 49.1237C47.0135 48.4087 46.7632 48.0244 46.361 48.0244C45.932 48.0244 45.6996 48.3998 45.6817 49.1237H47.0492Z" fill="white"/>
<path d="M9.8132 10.2256H4.70068V15.356H9.8132V10.2256Z" fill="white"/>
<path d="M7.26602 4.61199L0.178223 9.75132V5.13933L7.26602 0L14.3538 5.13933V9.75132L7.26602 4.61199Z" fill="white"/>
<path d="M41.7397 4.61199L34.6519 9.75132V5.13933L41.7397 0L48.8275 5.13933V9.75132L41.7397 4.61199Z" fill="white"/>
<path d="M41.7392 12.2536L34.6514 17.3929V12.7809L41.7392 7.6416L48.827 12.7809V17.3929L41.7392 12.2536Z" fill="white"/>
<path d="M24.4984 4.61199L17.4106 9.75132V5.13933L24.4984 0L31.5862 5.13933V9.75132L24.4984 4.61199Z" fill="white"/>
<path d="M27.0544 10.2256H21.9419V15.356H27.0544V10.2256Z" fill="white"/>
<path d="M7.22134 24.6415H6.49736C6.03259 23.7388 5.51418 23.3277 4.6472 23.3277C3.10987 23.3277 2.10882 24.6594 2.10882 26.9654C2.10882 29.2714 3.10987 30.6568 4.60251 30.6568C5.50525 30.6568 6.12197 30.2278 6.49736 29.3519H7.22134V31.488C6.47948 32.0243 5.67507 32.2656 4.75446 32.2656C1.88537 32.2656 0.178223 30.3171 0.178223 26.9833C0.178223 23.7924 1.97475 21.7725 4.44163 21.7725C5.34436 21.7725 6.25604 22.0495 7.22134 22.5769V24.6415Z" fill="white"/>
<path d="M14.7916 21.9424V23.5423H10.9126V26.0092H14.3537V27.466H10.9126V30.5228H14.9168V32.0959H9.00879V21.9424H14.7916Z" fill="white"/>
<path d="M16.6328 32.0959V21.9424H18.5902C20.1544 21.9424 21.361 22.0675 22.4425 22.9434C23.4972 23.8104 24.0603 25.1958 24.0603 26.9923C24.0603 28.9497 23.4972 30.353 22.2637 31.2379C21.1644 32.0333 20.0024 32.1048 18.5902 32.1048H16.6328V32.0959ZM18.5366 30.5318C18.7869 30.5496 18.9656 30.5496 19.0729 30.5496C21.1465 30.5496 22.1565 29.3877 22.1565 27.0013C22.1565 24.6416 21.1018 23.4887 18.9209 23.4887C18.7958 23.4887 18.6707 23.4887 18.5366 23.5065V30.5318Z" fill="white"/>
<path d="M31.5587 21.9424V23.5423H27.6797V26.0092H31.1208V27.466H27.6797V30.5228H31.6839V32.0959H25.7759V21.9424H31.5587Z" fill="white"/>
<path d="M33.3913 21.9425H35.295V28.2885C35.295 29.8348 35.5185 30.657 36.9128 30.657C38.1016 30.657 38.5485 30.0135 38.5485 28.5566V21.9336H40.4523V28.3779C40.4523 29.4594 40.3807 30.3085 39.8177 31.0414C39.2278 31.7922 38.1999 32.2659 36.9218 32.2659C35.6168 32.2659 34.5889 31.8011 33.999 31.0414C33.436 30.3174 33.3823 29.4683 33.3823 28.3779V21.9425H33.3913Z" fill="white"/>
<path d="M42.5974 29.3789C43.1337 30.2459 43.8576 30.6123 44.9391 30.6123C46.1368 30.6123 46.8072 30.1297 46.8072 29.2985C46.8072 28.4225 46.0832 28.1723 44.7246 27.6717C42.8745 26.9835 41.9807 26.3579 41.9807 24.7937C41.9807 23.0151 43.4107 21.8174 45.4397 21.8174C46.3692 21.8174 47.2541 22.023 48.1568 22.4162V24.4273H47.4864C47.0574 23.6765 46.4407 23.2921 45.6184 23.2921C44.671 23.2921 44.0275 23.9089 44.0275 24.5971C44.0275 25.4998 44.8498 25.7233 46.0743 26.1702C47.978 26.8852 48.8271 27.6896 48.8271 29.227C48.8271 30.9162 47.4418 32.2122 45.252 32.2122C43.8845 32.2122 42.7404 31.8815 41.793 31.1844V29.3789H42.5974V29.3789Z" fill="white"/>
</svg>

