<?xml version="1.0" encoding="utf-8"?>
<!-- Generator: Adobe Illustrator 17.0.0, SVG Export Plug-In . SVG Version: 6.00 Build 0)  -->
<!DOCTYPE svg PUBLIC "-//W3C//DTD SVG 1.1//EN" "http://www.w3.org/Graphics/SVG/1.1/DTD/svg11.dtd">
<svg version="1.1" id="logo_x5F_new" xmlns="http://www.w3.org/2000/svg" xmlns:xlink="http://www.w3.org/1999/xlink" x="0px"
	 y="0px" width="745px" height="203.75px" viewBox="0 0 745 203.75" enable-background="new 0 0 745 203.75" xml:space="preserve">
<path fill="#FFFFFF" d="M73.099,50.305H42.611c-3.289,0-5.965,2.676-5.965,5.965v16.955c0,3.289,2.676,5.965,5.965,5.965h3.6
	l-0.027,6.533c-0.003,0.578,0.359,1.093,0.902,1.288c0.15,0.053,0.305,0.08,0.459,0.08c0.402,0,0.793-0.178,1.056-0.502l6.034-7.4
	H73.1c3.289,0,5.965-2.676,5.965-5.965V56.27C79.064,52.981,76.388,50.305,73.099,50.305z"/>
<path fill="#20CE88" d="M44.514,186.302c-0.9,0-1.567-0.085-1.743-0.109c-7.211-0.933-9.174-2.901-9.604-3.481l-0.129-0.199
	L22.062,162.78c-0.182-0.309-0.537-1.078-0.304-2.044c0.134-0.556,0.51-1.342,1.543-1.932l0.143-0.074l4.246-1.958
	c3.923-1.809,8.262-4.315,12.898-7.451l9.286,11.313c-3.106,2.144-6.101,4.035-9.123,5.76l2.281,4.101
	c0.333,0.489,0.658,0.662,0.776,0.713l0.168,0.008l-0.003,0.04l3.265,0.96l0.163,0.085c0.173,0.092,4.223,2.297,4.341,8.295
	c0.057,1.612-0.494,2.989-1.596,3.983C48.552,186.021,46.15,186.302,44.514,186.302z"/>
<path fill="#20CE88" d="M88.922,182.99c-1.106,0-2.224-0.34-3.14-0.903c-4.019-2.468-10.757-8.087-20.599-17.175
	c-6.78-6.262-13.043-12.498-13.892-13.344c-2.301-2.078-13.847-12.77-24.652-27.676c-6.398-8.825-11.433-17.591-14.969-26.055
	c-4.5-10.77-6.605-21.156-6.258-30.871c0.372-10.406,2.867-19.46,7.417-26.909c3.858-6.316,9.16-11.451,15.757-15.259
	c11.814-6.82,24.405-7.35,27.983-7.35c3.579,0,16.176,0.53,27.997,7.348c6.603,3.808,11.908,8.942,15.77,15.258
	c4.555,7.45,7.052,16.504,7.424,26.911c0.538,15.084-4.763,31.528-15.758,48.879c-6.822,10.765-14.708,19.963-20.123,25.781
	l-11.056-9.506c12.478-13.288,33.276-39.353,32.372-64.635c-1.205-33.753-30.72-35.463-36.624-35.463
	c-5.899,0-35.385,1.709-36.592,35.463c-0.499,13.956,5.886,30.502,18.462,47.852c10.094,13.926,20.71,23.7,22.736,25.519
	l0.294,0.279c0.263,0.264,6.453,6.454,13.28,12.774c7.454,6.899,11.685,10.277,13.971,11.915l10.288-12.397
	c1.246-2.737,5.095-7.198,11.69-6.11c3.344,0.55,5.353,1.924,5.97,4.084c1.222,4.27-4.114,9.308-5.36,10.412L92.316,181.53
	C91.402,182.559,90.17,182.99,88.922,182.99z"/>
<path fill="#FFFFFF" d="M148.833,88.942h10.544l6.672,19.762l6.754-19.762h10.461l-10.049,27.162l7.413,19.005l16.557-46.336h12.356
	l-23.394,59.707h-9.802l-10.296-25.06l-10.214,25.06h-9.802l-23.311-59.707h12.191l16.639,46.336l7.249-19.005L148.833,88.942z
	 M206.75,135.446c0-2.859,0.769-5.354,2.306-7.484c1.593-2.186,3.789-3.868,6.59-5.046s6.013-1.766,9.637-1.766
	c1.812,0,3.652,0.14,5.519,0.42s3.487,0.729,4.86,1.345v-2.355c0-2.803-0.824-4.962-2.471-6.475
	c-1.592-1.514-3.981-2.271-7.166-2.271c-2.361,0-4.613,0.42-6.754,1.261s-4.393,2.074-6.754,3.7l-3.542-7.4
	c2.856-1.906,5.766-3.336,8.731-4.289c3.02-0.953,6.178-1.43,9.473-1.43c6.15,0,10.928,1.57,14.333,4.709
	c3.46,3.139,5.189,7.625,5.189,13.455v14.044c0,1.177,0.192,2.018,0.576,2.523c0.439,0.505,1.126,0.813,2.059,0.925v9.166
	c-0.988,0.168-1.895,0.308-2.718,0.42c-0.769,0.112-1.428,0.168-1.977,0.168c-2.196,0-3.871-0.505-5.025-1.514
	c-1.098-1.009-1.785-2.243-2.059-3.7l-0.247-2.271c-1.867,2.467-4.201,4.373-7.002,5.718s-5.656,2.018-8.567,2.018
	c-2.855,0-5.437-0.589-7.743-1.766c-2.251-1.233-4.036-2.887-5.354-4.962C207.381,140.463,206.75,138.081,206.75,135.446z
	 M233.603,137.716c0.604-0.673,1.098-1.346,1.483-2.018c0.384-0.673,0.577-1.289,0.577-1.85v-4.457
	c-1.318-0.561-2.746-0.981-4.283-1.261c-1.538-0.336-2.993-0.505-4.366-0.505c-2.856,0-5.217,0.645-7.084,1.934
	c-1.812,1.233-2.718,2.887-2.718,4.962c0,1.121,0.302,2.186,0.906,3.196c0.604,1.009,1.483,1.822,2.636,2.439
	s2.526,0.925,4.119,0.925c1.647,0,3.267-0.308,4.86-0.925C231.324,139.482,232.614,138.669,233.603,137.716z M256.932,87.092h11.037
	v47.261c0,2.018,0.329,3.392,0.988,4.121c0.659,0.673,1.565,1.009,2.718,1.009c0.879,0,1.785-0.112,2.718-0.336
	c0.934-0.224,1.758-0.505,2.471-0.841l1.483,8.578c-1.483,0.729-3.212,1.289-5.189,1.682s-3.761,0.589-5.354,0.589
	c-3.46,0-6.15-0.925-8.072-2.775c-1.866-1.906-2.8-4.597-2.8-8.073L256.932,87.092L256.932,87.092z M312.647,148.48l-12.603-19.005
	l-5.848,5.887v13.119h-11.038V87.093h11.038v37.169l17.38-19.762h11.697l-16.063,18.669l17.216,25.312h-11.779V148.48z
	 M325.723,135.446c0-2.859,0.768-5.354,2.306-7.484c1.592-2.186,3.789-3.868,6.59-5.046c2.801-1.177,6.013-1.766,9.638-1.766
	c1.812,0,3.651,0.14,5.519,0.42c1.866,0.28,3.487,0.729,4.86,1.345v-2.355c0-2.803-0.824-4.962-2.471-6.475
	c-1.593-1.514-3.982-2.271-7.166-2.271c-2.362,0-4.613,0.42-6.754,1.261s-4.394,2.074-6.754,3.7l-3.542-7.4
	c2.855-1.906,5.766-3.336,8.731-4.289c3.019-0.953,6.178-1.43,9.473-1.43c6.15,0,10.927,1.57,14.333,4.709
	c3.46,3.139,5.189,7.625,5.189,13.455v14.044c0,1.177,0.192,2.018,0.577,2.523c0.439,0.505,1.125,0.813,2.059,0.925v9.166
	c-0.988,0.168-1.895,0.308-2.718,0.42c-0.77,0.112-1.429,0.168-1.977,0.168c-2.197,0-3.871-0.505-5.025-1.514
	c-1.099-1.009-1.785-2.243-2.059-3.7l-0.247-2.271c-1.868,2.467-4.201,4.373-7.002,5.718c-2.801,1.345-5.657,2.018-8.567,2.018
	c-2.856,0-5.437-0.589-7.743-1.766c-2.252-1.233-4.036-2.887-5.354-4.962C326.353,140.463,325.723,138.081,325.723,135.446z
	 M352.576,137.716c0.604-0.673,1.098-1.346,1.483-2.018c0.384-0.673,0.577-1.289,0.577-1.85v-4.457
	c-1.318-0.561-2.747-0.981-4.283-1.261c-1.538-0.336-2.994-0.505-4.366-0.505c-2.856,0-5.218,0.645-7.084,1.934
	c-1.812,1.233-2.718,2.887-2.718,4.962c0,1.121,0.301,2.186,0.906,3.196c0.604,1.009,1.483,1.822,2.636,2.439
	c1.153,0.617,2.525,0.925,4.119,0.925c1.647,0,3.267-0.308,4.86-0.925C350.296,139.482,351.587,138.669,352.576,137.716z
	 M400.534,149.321c-3.295,0-6.233-0.757-8.814-2.271s-4.613-3.588-6.096-6.223v7.653h-9.637V87.092h11.038v25.06
	c1.538-2.635,3.542-4.709,6.013-6.223c2.526-1.514,5.464-2.271,8.814-2.271c2.801,0,5.354,0.617,7.661,1.85
	c2.306,1.177,4.283,2.831,5.931,4.962c1.703,2.13,2.992,4.569,3.871,7.316c0.933,2.747,1.4,5.69,1.4,8.83
	c0,3.139-0.521,6.083-1.565,8.83c-0.988,2.747-2.389,5.186-4.201,7.316c-1.812,2.074-3.954,3.7-6.425,4.877
	C406.108,148.761,403.444,149.321,400.534,149.321z M397.486,139.735c1.757,0,3.35-0.336,4.778-1.009
	c1.483-0.729,2.745-1.682,3.789-2.859c1.098-1.177,1.922-2.551,2.471-4.121c0.604-1.626,0.906-3.308,0.906-5.046
	c0-2.411-0.494-4.625-1.483-6.643c-0.933-2.074-2.251-3.728-3.954-4.962c-1.647-1.233-3.597-1.85-5.848-1.85
	c-1.592,0-3.13,0.392-4.613,1.177c-1.427,0.729-2.718,1.738-3.871,3.027c-1.098,1.289-1.977,2.747-2.636,4.373v10.512
	c0.329,1.121,0.851,2.13,1.565,3.027c0.768,0.897,1.647,1.682,2.636,2.355c0.988,0.617,2.004,1.121,3.048,1.514
	C395.371,139.566,396.442,139.735,397.486,139.735z M428.111,87.092h11.038v47.261c0,2.018,0.329,3.392,0.988,4.121
	c0.659,0.673,1.565,1.009,2.718,1.009c0.879,0,1.785-0.112,2.718-0.336c0.933-0.224,1.757-0.505,2.471-0.841l1.483,8.578
	c-1.483,0.729-3.212,1.289-5.189,1.682s-3.762,0.589-5.354,0.589c-3.46,0-6.151-0.925-8.072-2.775
	c-1.868-1.906-2.801-4.597-2.801-8.073V87.092z M474.352,149.321c-3.46,0-6.59-0.589-9.39-1.766
	c-2.801-1.233-5.189-2.887-7.166-4.962c-1.977-2.13-3.514-4.541-4.613-7.232c-1.042-2.747-1.565-5.634-1.565-8.662
	c0-4.205,0.906-8.045,2.718-11.521c1.868-3.476,4.503-6.251,7.908-8.325c3.46-2.13,7.524-3.196,12.191-3.196
	c4.724,0,8.76,1.065,12.109,3.196c3.35,2.074,5.904,4.849,7.661,8.325c1.812,3.42,2.718,7.12,2.718,11.1
	c0,0.673-0.027,1.374-0.082,2.102c-0.054,0.673-0.109,1.233-0.165,1.682h-33.361c0.22,2.243,0.852,4.205,1.895,5.887
	c1.099,1.682,2.471,2.971,4.119,3.868c1.703,0.841,3.515,1.261,5.437,1.261c2.197,0,4.256-0.533,6.178-1.598
	c1.977-1.121,3.323-2.579,4.036-4.373l9.473,2.691c-1.042,2.243-2.554,4.233-4.53,5.971c-1.922,1.738-4.201,3.111-6.837,4.121
	C480.448,148.845,477.538,149.321,474.352,149.321z M463.067,122.916h22.57c-0.219-2.243-0.851-4.177-1.895-5.802
	c-0.988-1.682-2.306-2.971-3.954-3.868c-1.647-0.953-3.487-1.43-5.519-1.43c-1.977,0-3.789,0.477-5.437,1.43
	c-1.592,0.897-2.91,2.186-3.954,3.868C463.891,118.739,463.287,120.673,463.067,122.916z M538.998,104.415
	c-0.385-0.392-1.098-0.925-2.142-1.598c-0.988-0.673-2.224-1.318-3.707-1.934c-1.427-0.617-2.992-1.149-4.695-1.598
	c-1.703-0.505-3.433-0.757-5.189-0.757c-3.075,0-5.41,0.589-7.002,1.766c-1.538,1.177-2.306,2.831-2.306,4.962
	c0,1.626,0.494,2.915,1.483,3.868c0.988,0.953,2.471,1.766,4.448,2.439s4.448,1.402,7.413,2.186c3.844,0.953,7.166,2.13,9.967,3.532
	c2.856,1.345,5.025,3.139,6.507,5.382c1.538,2.186,2.306,5.102,2.306,8.746c0,3.196-0.577,5.943-1.73,8.241
	c-1.153,2.243-2.745,4.064-4.778,5.466s-4.339,2.439-6.919,3.111c-2.581,0.617-5.327,0.925-8.237,0.925s-5.821-0.308-8.731-0.925
	c-2.91-0.617-5.711-1.486-8.402-2.607c-2.691-1.177-5.162-2.579-7.413-4.205l5.025-10.007c0.494,0.505,1.373,1.177,2.636,2.018
	c1.263,0.785,2.801,1.598,4.613,2.439c1.812,0.785,3.789,1.458,5.931,2.018c2.142,0.561,4.31,0.841,6.507,0.841
	c3.075,0,5.41-0.533,7.002-1.598c1.592-1.065,2.389-2.579,2.389-4.541c0-1.794-0.632-3.196-1.895-4.205s-3.021-1.878-5.272-2.607
	c-2.251-0.785-4.915-1.626-7.99-2.523c-3.68-1.065-6.754-2.243-9.226-3.532c-2.471-1.345-4.31-3.027-5.519-5.046
	c-1.209-2.018-1.812-4.541-1.812-7.568c0-4.093,0.933-7.512,2.801-10.259c1.922-2.803,4.503-4.905,7.743-6.307
	c3.24-1.458,6.837-2.186,10.791-2.186c2.745,0,5.327,0.308,7.743,0.925c2.471,0.617,4.778,1.43,6.919,2.439s4.063,2.102,5.766,3.28
	L538.998,104.415z M578.5,146.21c-0.933,0.392-2.059,0.841-3.377,1.346s-2.745,0.897-4.283,1.177
	c-1.483,0.336-2.992,0.505-4.53,0.505c-2.031,0-3.898-0.364-5.601-1.093c-1.701-0.729-3.075-1.878-4.119-3.448
	c-0.989-1.626-1.483-3.728-1.483-6.307v-25.312h-5.684v-8.662h5.684V90.12h11.038v14.296h9.061v8.662h-9.061v21.528
	c0.055,1.514,0.467,2.607,1.236,3.28c0.77,0.673,1.73,1.009,2.883,1.009s2.279-0.196,3.377-0.589
	c1.099-0.392,1.977-0.729,2.636-1.009L578.5,146.21z M609.95,114.17c-3.35,0-6.343,0.673-8.979,2.018
	c-2.636,1.289-4.53,3.168-5.684,5.634v26.658h-11.038v-44.065h10.132v9.418c1.537-3.027,3.487-5.41,5.848-7.148
	c2.36-1.738,4.86-2.691,7.496-2.859c0.604,0,1.071,0,1.4,0c0.33,0,0.604,0.028,0.824,0.084v10.26H609.95z M635.557,149.321
	c-3.46,0-6.59-0.589-9.39-1.766c-2.801-1.233-5.189-2.887-7.166-4.962c-1.977-2.13-3.514-4.541-4.613-7.232
	c-1.042-2.747-1.565-5.634-1.565-8.662c0-4.205,0.906-8.045,2.718-11.521c1.868-3.476,4.503-6.251,7.908-8.325
	c3.46-2.13,7.524-3.196,12.191-3.196c4.724,0,8.76,1.065,12.109,3.196c3.35,2.074,5.904,4.849,7.661,8.325
	c1.812,3.42,2.718,7.12,2.718,11.1c0,0.673-0.027,1.374-0.082,2.102c-0.054,0.673-0.109,1.233-0.165,1.682h-33.361
	c0.22,2.243,0.852,4.205,1.895,5.887c1.099,1.682,2.471,2.971,4.119,3.868c1.703,0.841,3.515,1.261,5.437,1.261
	c2.197,0,4.256-0.533,6.178-1.598c1.977-1.121,3.323-2.579,4.036-4.373l9.473,2.691c-1.042,2.243-2.553,4.233-4.53,5.971
	c-1.922,1.738-4.201,3.111-6.837,4.121C641.652,148.845,638.742,149.321,635.557,149.321z M624.272,122.916h22.57
	c-0.219-2.243-0.851-4.177-1.895-5.802c-0.988-1.682-2.306-2.971-3.954-3.868c-1.647-0.953-3.487-1.43-5.519-1.43
	c-1.977,0-3.789,0.477-5.437,1.43c-1.592,0.897-2.91,2.186-3.954,3.868C625.095,118.739,624.492,120.673,624.272,122.916z
	 M684.867,149.321c-3.46,0-6.59-0.589-9.39-1.766c-2.801-1.233-5.189-2.887-7.166-4.962c-1.977-2.13-3.515-4.541-4.613-7.232
	c-1.044-2.747-1.565-5.634-1.565-8.662c0-4.205,0.906-8.045,2.718-11.521c1.868-3.476,4.503-6.251,7.908-8.325
	c3.46-2.13,7.523-3.196,12.191-3.196c4.722,0,8.758,1.065,12.109,3.196c3.35,2.074,5.904,4.849,7.661,8.325
	c1.812,3.42,2.718,7.12,2.718,11.1c0,0.673-0.027,1.374-0.082,2.102c-0.055,0.673-0.109,1.233-0.165,1.682h-33.361
	c0.22,2.243,0.851,4.205,1.895,5.887c1.098,1.682,2.471,2.971,4.119,3.868c1.703,0.841,3.515,1.261,5.437,1.261
	c2.197,0,4.256-0.533,6.178-1.598c1.977-1.121,3.322-2.579,4.036-4.373l9.473,2.691c-1.044,2.243-2.554,4.233-4.53,5.971
	c-1.922,1.738-4.201,3.111-6.837,4.121C690.963,148.845,688.053,149.321,684.867,149.321z M673.583,122.916h22.57
	c-0.22-2.243-0.851-4.177-1.895-5.802c-0.988-1.682-2.306-2.971-3.954-3.868c-1.647-0.953-3.487-1.43-5.519-1.43
	c-1.977,0-3.789,0.477-5.437,1.43c-1.592,0.897-2.91,2.186-3.954,3.868C674.406,118.739,673.803,120.673,673.583,122.916z
	 M739.624,146.21c-0.934,0.392-2.059,0.841-3.377,1.346s-2.747,0.897-4.283,1.177c-1.483,0.336-2.994,0.505-4.53,0.505
	c-2.032,0-3.9-0.364-5.601-1.093c-1.703-0.729-3.076-1.878-4.119-3.448c-0.988-1.626-1.483-3.728-1.483-6.307v-25.312h-5.684v-8.662
	h5.684V90.12h11.038v14.296h9.061v8.662h-9.061v21.528c0.054,1.514,0.466,2.607,1.236,3.28c0.768,0.673,1.73,1.009,2.883,1.009
	s2.278-0.196,3.377-0.589c1.098-0.392,1.977-0.729,2.636-1.009L739.624,146.21z"/>
</svg>
