<?xml version="1.0" encoding="utf-8"?>
<!-- Generator: Adobe Illustrator 17.0.0, SVG Export Plug-In . SVG Version: 6.00 Build 0)  -->
<!DOCTYPE svg PUBLIC "-//W3C//DTD SVG 1.0//EN" "http://www.w3.org/TR/2001/REC-SVG-20010904/DTD/svg10.dtd">
<svg version="1.0" xmlns="http://www.w3.org/2000/svg" xmlns:xlink="http://www.w3.org/1999/xlink" x="0px" y="0px"
	 width="166.403px" height="166.644px" viewBox="-25.833 -30.417 166.403 166.644"
	 enable-background="new -25.833 -30.417 166.403 166.644" xml:space="preserve">
<g id="Capa_2">
	<circle fill="#20CE88" cx="57.5" cy="52.917" r="83.333"/>
</g>
<g id="Capa_1">
	<g>
		<defs>
			<rect id="SVGID_1_" x="1" y="1.917" width="113" height="102"/>
		</defs>
		<clipPath id="SVGID_2_">
			<use xlink:href="#SVGID_1_"  overflow="visible"/>
		</clipPath>
		<g clip-path="url(#SVGID_2_)">
			<path fill="#FFFFFF" d="M113.009,40.924c-0.041,0-0.08-0.013-0.114-0.036L58.069,76.309c-0.167-0.116-0.365-0.178-0.568-0.178
				c-0.203,0-0.401,0.063-0.568,0.18L2.502,40.887c-0.043,0.03-0.096,0.042-0.148,0.033c-0.052-0.009-0.098-0.039-0.128-0.082
				c-0.03-0.043-0.042-0.097-0.033-0.149c0.009-0.052,0.038-0.099,0.081-0.129L56.706,2.169c0.233-0.164,0.51-0.252,0.794-0.252
				c0.284,0,0.562,0.087,0.795,0.249l54.826,38.395c0.035,0.024,0.061,0.059,0.074,0.099c0.014,0.04,0.015,0.084,0.002,0.124
				c-0.013,0.041-0.038,0.076-0.072,0.101C113.092,40.91,113.051,40.924,113.009,40.924z"/>
			<path fill="#E6E6E6" d="M5.612,42.284L57.555,3.575l52.337,41.464L60.231,74.642l-26.961-6.18L5.612,42.284z"/>
			<path fill="#6C63FF" d="M35.545,92.926H9.884c-0.158,0-0.314-0.031-0.459-0.091s-0.278-0.149-0.389-0.261
				c-0.111-0.112-0.2-0.245-0.26-0.391c-0.06-0.146-0.091-0.303-0.091-0.462c0-0.159,0.031-0.315,0.091-0.462
				c0.06-0.146,0.149-0.279,0.26-0.391c0.111-0.112,0.244-0.201,0.389-0.261s0.302-0.091,0.459-0.091h25.661
				c0.158,0,0.314,0.031,0.459,0.091c0.146,0.061,0.278,0.149,0.389,0.261s0.2,0.245,0.26,0.391c0.06,0.146,0.091,0.303,0.091,0.462
				c0,0.158-0.031,0.315-0.091,0.462c-0.06,0.146-0.149,0.279-0.26,0.391c-0.111,0.112-0.244,0.201-0.389,0.261
				C35.859,92.895,35.703,92.926,35.545,92.926z"/>
			<path fill="#6C63FF" d="M19.091,87.743H9.884c-0.158,0-0.314-0.031-0.459-0.091s-0.278-0.149-0.389-0.261
				c-0.111-0.112-0.2-0.245-0.26-0.391c-0.06-0.146-0.091-0.303-0.091-0.462c0-0.158,0.031-0.315,0.091-0.462
				c0.06-0.146,0.149-0.279,0.26-0.391c0.111-0.112,0.244-0.201,0.389-0.261s0.302-0.091,0.459-0.091h9.207
				c0.158,0,0.314,0.031,0.459,0.091c0.146,0.061,0.278,0.149,0.389,0.261c0.112,0.112,0.2,0.245,0.26,0.391
				c0.06,0.146,0.091,0.303,0.091,0.462c0,0.158-0.031,0.315-0.091,0.462c-0.06,0.146-0.149,0.279-0.26,0.391
				c-0.111,0.112-0.244,0.201-0.389,0.261C19.405,87.712,19.249,87.743,19.091,87.743z"/>
			<path fill="#FFFFFF" d="M58.285,63.845c-0.195,0-0.388-0.038-0.569-0.112L25.682,50.367V8.53c0-0.37,0.147-0.725,0.407-0.986
				c0.26-0.262,0.613-0.409,0.981-0.409h61.456c0.368,0,0.721,0.148,0.981,0.409c0.26,0.262,0.407,0.616,0.407,0.986v41.867
				l-0.06,0.026L58.871,63.727C58.686,63.805,58.486,63.845,58.285,63.845z"/>
			<path fill="#3F3D56" d="M58.285,63.945c-0.208,0-0.414-0.04-0.606-0.119L25.583,50.434V8.53c0-0.396,0.157-0.776,0.436-1.057
				c0.279-0.28,0.657-0.438,1.051-0.438h61.456c0.394,0,0.772,0.158,1.051,0.438c0.279,0.28,0.436,0.66,0.436,1.057v41.932
				L58.91,63.818C58.712,63.902,58.5,63.945,58.285,63.945z M25.979,50.168L57.83,63.457c0.297,0.121,0.63,0.119,0.925-0.006
				l30.861-13.252V8.53c0-0.291-0.115-0.569-0.32-0.775c-0.204-0.206-0.481-0.321-0.771-0.322H27.069
				c-0.289,0-0.566,0.116-0.771,0.322c-0.205,0.206-0.319,0.484-0.32,0.775V50.168z"/>
			<path fill="#FFFFFF" d="M112.612,40.525h-0.039l-22.759,9.772l-31.138,13.37c-0.122,0.051-0.252,0.078-0.384,0.079
				c-0.132,0.001-0.263-0.025-0.385-0.075L25.781,50.269L2.463,40.541l-0.036-0.016h-0.04c-0.368,0-0.721,0.147-0.981,0.409
				C1.147,41.196,1,41.55,1,41.92v60.601c0,0.37,0.147,0.724,0.407,0.986c0.26,0.261,0.613,0.409,0.981,0.409h110.224
				c0.368,0,0.721-0.148,0.981-0.409c0.26-0.262,0.407-0.616,0.407-0.986V41.92c0-0.37-0.147-0.725-0.407-0.986
				C113.333,40.672,112.98,40.525,112.612,40.525z"/>
			<path fill="#6C63FF" d="M57.965,51.982c-1.183,0.002-2.334-0.382-3.28-1.096l-0.059-0.044l-12.353-9.51
				c-0.572-0.441-1.052-0.99-1.413-1.618c-0.361-0.627-0.595-1.32-0.69-2.039c-0.095-0.718-0.048-1.449,0.139-2.149
				c0.186-0.7,0.507-1.357,0.946-1.932c0.438-0.575,0.985-1.058,1.609-1.421c0.624-0.363,1.313-0.598,2.027-0.694
				c0.715-0.095,1.441-0.048,2.137,0.139c0.696,0.187,1.349,0.51,1.921,0.951l8.001,6.169l18.908-24.796
				c0.438-0.575,0.985-1.058,1.61-1.42c0.624-0.363,1.313-0.598,2.027-0.693c0.715-0.095,1.441-0.047,2.137,0.14
				c0.696,0.187,1.349,0.511,1.921,0.952l-0.118,0.16l0.121-0.158c1.154,0.892,1.909,2.207,2.099,3.657
				c0.19,1.451-0.199,2.918-1.083,4.08L62.331,49.828c-0.514,0.672-1.176,1.216-1.933,1.59
				C59.641,51.791,58.808,51.984,57.965,51.982z"/>
		</g>
	</g>
</g>
</svg>

