<svg
      width="100%"
      viewBox="0 0 134 29"
      fill="none"
      xmlns="http://www.w3.org/2000/svg"
    >
      <path
        d="M11.4584 5.55908H6.30008C5.74359 5.55908 5.29089 6.01177 5.29089 6.56827V9.4369C5.29089 9.9934 5.74359 10.4461 6.30008 10.4461H6.90913L6.90461 11.5515C6.90417 11.6493 6.96534 11.7365 7.0573 11.7695C7.08271 11.7785 7.10898 11.7831 7.13504 11.7831C7.2031 11.7831 7.26921 11.7529 7.31379 11.6982L8.33461 10.4461H11.4587C12.0152 10.4461 12.4679 9.9934 12.4679 9.4369V6.56827C12.4676 6.01177 12.0149 5.55908 11.4584 5.55908Z"
        fill="white"
      />
      <path
        d="M6.62192 28.5687C6.46966 28.5687 6.35681 28.5543 6.32709 28.5502C5.10706 28.3923 4.77497 28.0594 4.70218 27.9612L4.68043 27.9276L2.82336 24.589C2.79256 24.5367 2.73247 24.4066 2.77188 24.2431C2.7945 24.149 2.85824 24.0161 3.0329 23.9162L3.05702 23.9037L3.77547 23.5725C4.43922 23.2665 5.17339 22.8424 5.95774 22.3118L7.52881 24.2259C7.00333 24.5886 6.49658 24.9086 5.98531 25.2004L6.37124 25.8943C6.42766 25.977 6.48258 26.0063 6.50261 26.0149L6.53104 26.0162L6.53061 26.0229L7.08301 26.1853L7.11058 26.1997C7.13987 26.2152 7.82515 26.5884 7.84497 27.6032C7.85466 27.8759 7.76141 28.1089 7.5749 28.2771C7.30527 28.5211 6.89888 28.5687 6.62192 28.5687Z"
        fill="#20CE88"
      />
      <path
        d="M14.1355 28.0083C13.9484 28.0083 13.7593 27.9508 13.6042 27.8556C12.9243 27.4381 11.7842 26.4874 10.119 24.9498C8.9718 23.8904 7.91221 22.8353 7.76857 22.6921C7.37919 22.3406 5.42585 20.5316 3.59764 18.0095C2.51522 16.5164 1.66325 15.0332 1.06497 13.6012C0.303666 11.779 -0.0525434 10.0217 0.00625058 8.37804C0.0691365 6.61745 0.491248 5.08557 1.26117 3.82527C1.91393 2.75664 2.81092 1.88787 3.92714 1.2435C5.92592 0.0895906 8.05629 0 8.66167 0C9.26727 0 11.3985 0.0895908 13.3986 1.24329C14.5157 1.88765 15.4133 2.75621 16.0667 3.82484C16.8373 5.08536 17.2598 6.61723 17.3227 8.37804C17.4138 10.9301 16.5168 13.7124 14.6565 16.648C13.5022 18.4693 12.168 20.0255 11.2518 21.0099L9.3812 19.4016C11.4924 17.1534 15.0112 12.7434 14.8583 8.46591C14.6544 2.75513 9.66074 2.4659 8.66189 2.4659C7.6639 2.4659 2.67502 2.75513 2.47086 8.46591C2.38644 10.8271 3.4667 13.6266 5.59448 16.562C7.30231 18.9181 9.09843 20.5719 9.44129 20.8796L9.49104 20.9268C9.53562 20.9714 10.5829 22.0187 11.7379 23.088C12.9991 24.2552 13.7149 24.8268 14.1017 25.104L15.8423 23.0065C16.0531 22.5435 16.7044 21.7887 17.8202 21.9728C18.3859 22.0658 18.7258 22.2984 18.8302 22.6637C19.037 23.3862 18.1342 24.2386 17.9233 24.4254L14.7097 27.7613C14.5551 27.9353 14.3466 28.0083 14.1355 28.0083Z"
        fill="#20CE88"
      />
      <path
        d="M38.5154 9.256H40.8014L42.2414 13.486L43.6814 9.256H45.9854L43.8074 15.07L45.4274 19.156L49.0454 9.22H51.7454L46.5434 22H44.4554L42.2414 16.636L40.0274 22H37.9394L32.7734 9.22H35.4374L39.0734 19.156L40.6574 15.07L38.5154 9.256ZM54.4982 22.18C54.0422 22.18 53.6162 22.108 53.2202 21.964C52.8242 21.808 52.4822 21.598 52.1942 21.334C51.9062 21.058 51.6782 20.74 51.5102 20.38C51.3542 20.02 51.2762 19.624 51.2762 19.192C51.2762 18.748 51.3722 18.34 51.5642 17.968C51.7682 17.584 52.0442 17.26 52.3922 16.996C52.7522 16.732 53.1782 16.528 53.6702 16.384C54.1622 16.228 54.7022 16.15 55.2902 16.15C55.7102 16.15 56.1182 16.186 56.5142 16.258C56.9222 16.33 57.2822 16.432 57.5942 16.564V16.024C57.5942 15.4 57.4142 14.92 57.0542 14.584C56.7062 14.248 56.1842 14.08 55.4882 14.08C54.9842 14.08 54.4922 14.17 54.0122 14.35C53.5322 14.53 53.0402 14.794 52.5362 15.142L51.7982 13.612C53.0102 12.808 54.3182 12.406 55.7222 12.406C57.0782 12.406 58.1282 12.742 58.8722 13.414C59.6282 14.074 60.0062 15.034 60.0062 16.294V19.228C60.0062 19.48 60.0482 19.66 60.1322 19.768C60.2282 19.876 60.3782 19.936 60.5822 19.948V22C60.1742 22.084 59.8202 22.126 59.5202 22.126C59.0642 22.126 58.7102 22.024 58.4582 21.82C58.2182 21.616 58.0682 21.346 58.0082 21.01L57.9542 20.488C57.5342 21.04 57.0242 21.46 56.4242 21.748C55.8242 22.036 55.1822 22.18 54.4982 22.18ZM55.1822 20.416C55.5902 20.416 55.9742 20.344 56.3342 20.2C56.7062 20.056 56.9942 19.864 57.1982 19.624C57.4622 19.42 57.5942 19.192 57.5942 18.94V17.86C57.3062 17.752 56.9942 17.668 56.6582 17.608C56.3222 17.536 55.9982 17.5 55.6862 17.5C55.0622 17.5 54.5522 17.644 54.1562 17.932C53.7602 18.208 53.5622 18.562 53.5622 18.994C53.5622 19.402 53.7182 19.744 54.0302 20.02C54.3422 20.284 54.7262 20.416 55.1822 20.416ZM62.2421 8.86H64.6541V18.976C64.6541 19.324 64.7381 19.594 64.9061 19.786C65.0741 19.978 65.3141 20.074 65.6261 20.074C65.7701 20.074 65.9261 20.05 66.0941 20.002C66.2741 19.954 66.4421 19.894 66.5981 19.822L66.9221 21.658C66.5981 21.814 66.2201 21.934 65.7881 22.018C65.3561 22.102 64.9661 22.144 64.6181 22.144C63.8621 22.144 63.2741 21.946 62.8541 21.55C62.4461 21.142 62.2421 20.566 62.2421 19.822V8.86ZM74.417 22L71.681 17.914L70.385 19.192V22H67.973V8.86H70.385V16.834L74.165 12.586H76.739L73.229 16.582L76.991 22H74.417ZM80.4611 22.18C80.0051 22.18 79.5791 22.108 79.1831 21.964C78.7871 21.808 78.4451 21.598 78.1571 21.334C77.8691 21.058 77.6411 20.74 77.4731 20.38C77.3171 20.02 77.2391 19.624 77.2391 19.192C77.2391 18.748 77.3351 18.34 77.5271 17.968C77.7311 17.584 78.0071 17.26 78.3551 16.996C78.7151 16.732 79.1411 16.528 79.6331 16.384C80.1251 16.228 80.6651 16.15 81.2531 16.15C81.6731 16.15 82.0811 16.186 82.4771 16.258C82.8851 16.33 83.2451 16.432 83.5571 16.564V16.024C83.5571 15.4 83.3771 14.92 83.0171 14.584C82.6691 14.248 82.1471 14.08 81.4511 14.08C80.9471 14.08 80.4551 14.17 79.9751 14.35C79.4951 14.53 79.0031 14.794 78.4991 15.142L77.7611 13.612C78.9731 12.808 80.2811 12.406 81.6851 12.406C83.0411 12.406 84.0911 12.742 84.8351 13.414C85.5911 14.074 85.9691 15.034 85.9691 16.294V19.228C85.9691 19.48 86.0111 19.66 86.0951 19.768C86.1911 19.876 86.3411 19.936 86.5451 19.948V22C86.1371 22.084 85.7831 22.126 85.4831 22.126C85.0271 22.126 84.6731 22.024 84.4211 21.82C84.1811 21.616 84.0311 21.346 83.9711 21.01L83.9171 20.488C83.4971 21.04 82.9871 21.46 82.3871 21.748C81.7871 22.036 81.1451 22.18 80.4611 22.18ZM81.1451 20.416C81.5531 20.416 81.9371 20.344 82.2971 20.2C82.6691 20.056 82.9571 19.864 83.1611 19.624C83.4251 19.42 83.5571 19.192 83.5571 18.94V17.86C83.2691 17.752 82.9571 17.668 82.6211 17.608C82.2851 17.536 81.9611 17.5 81.6491 17.5C81.0251 17.5 80.5151 17.644 80.1191 17.932C79.7231 18.208 79.5251 18.562 79.5251 18.994C79.5251 19.402 79.6811 19.744 79.9931 20.02C80.3051 20.284 80.6891 20.416 81.1451 20.416ZM93.587 22.18C92.867 22.18 92.225 22.018 91.661 21.694C91.097 21.37 90.653 20.926 90.329 20.362V22H88.223V8.86H90.635V14.224C90.971 13.648 91.409 13.204 91.949 12.892C92.501 12.568 93.143 12.406 93.875 12.406C94.487 12.406 95.045 12.538 95.549 12.802C96.053 13.066 96.485 13.42 96.845 13.864C97.217 14.308 97.499 14.83 97.691 15.43C97.895 16.03 97.997 16.66 97.997 17.32C97.997 18.004 97.883 18.64 97.655 19.228C97.439 19.816 97.133 20.332 96.737 20.776C96.341 21.208 95.873 21.55 95.333 21.802C94.793 22.054 94.211 22.18 93.587 22.18ZM92.921 20.128C93.305 20.128 93.659 20.056 93.983 19.912C94.307 19.756 94.583 19.552 94.811 19.3C95.039 19.048 95.213 18.754 95.333 18.418C95.465 18.082 95.531 17.722 95.531 17.338C95.531 16.954 95.471 16.588 95.351 16.24C95.231 15.892 95.057 15.586 94.829 15.322C94.613 15.058 94.355 14.848 94.055 14.692C93.755 14.536 93.425 14.458 93.065 14.458C92.525 14.458 92.039 14.638 91.607 14.998C91.187 15.346 90.863 15.778 90.635 16.294V18.544C90.719 18.784 90.839 19 90.995 19.192C91.163 19.384 91.349 19.552 91.553 19.696C91.757 19.828 91.979 19.936 92.219 20.02C92.459 20.092 92.693 20.128 92.921 20.128ZM99.6312 22V12.568H102.043V22H99.6312ZM99.6312 11.254V8.86H102.043V11.254H99.6312ZM104.201 8.86H106.613V18.976C106.613 19.324 106.697 19.594 106.865 19.786C107.033 19.978 107.273 20.074 107.585 20.074C107.729 20.074 107.885 20.05 108.053 20.002C108.233 19.954 108.401 19.894 108.557 19.822L108.881 21.658C108.557 21.814 108.179 21.934 107.747 22.018C107.315 22.102 106.925 22.144 106.577 22.144C105.821 22.144 105.233 21.946 104.813 21.55C104.405 21.142 104.201 20.566 104.201 19.822V8.86ZM109.932 22V12.568H112.344V22H109.932ZM109.932 11.254V8.86H112.344V11.254H109.932ZM120.172 21.514C119.848 21.658 119.452 21.802 118.984 21.946C118.516 22.09 118.024 22.162 117.508 22.162C117.172 22.162 116.854 22.12 116.554 22.036C116.266 21.952 116.008 21.82 115.78 21.64C115.564 21.448 115.39 21.208 115.258 20.92C115.126 20.62 115.06 20.26 115.06 19.84V14.422H113.818V12.568H115.06V9.508H117.472V12.568H119.452V14.422H117.472V19.03C117.472 19.366 117.556 19.606 117.724 19.75C117.904 19.882 118.12 19.948 118.372 19.948C118.624 19.948 118.87 19.906 119.11 19.822C119.35 19.738 119.542 19.666 119.686 19.606L120.172 21.514ZM121.626 23.836C121.83 23.896 122.028 23.938 122.22 23.962C122.412 23.998 122.574 24.016 122.706 24.016C122.862 24.016 123.006 23.986 123.138 23.926C123.27 23.866 123.39 23.758 123.498 23.602C123.606 23.458 123.714 23.254 123.822 22.99C123.93 22.726 124.044 22.396 124.164 22L120.438 12.568H122.922L125.478 19.912L127.746 12.568H130.014L126.054 23.872C125.826 24.532 125.436 25.072 124.884 25.492C124.332 25.912 123.648 26.122 122.832 26.122C122.64 26.122 122.442 26.104 122.238 26.068C122.046 26.044 121.842 25.996 121.626 25.924V23.836Z"
        fill="white"
      />
</svg>
