<svg width="263" height="181" viewBox="0 0 263 181" fill="none" xmlns="http://www.w3.org/2000/svg">
<g clip-path="url(#clip0_1113_4786)">
<path opacity="0.1" d="M148.76 24.6428C131.903 24.6653 115.676 19.9014 100.155 14.6091C84.6348 9.31688 69.2338 3.39063 52.6893 0.8794C42.049 -0.734804 29.9496 -0.586423 21.6323 5.27462C13.6262 10.9131 11.3078 20.2454 10.1892 28.8672C9.34797 35.3532 8.96007 42.1608 12.1106 48.0938C14.2982 52.2125 18.0419 55.6072 20.6806 59.5326C29.891 73.1881 24.3521 90.6319 15.4011 104.604C11.204 111.16 6.2876 117.444 3.11447 124.375C-0.0586569 131.306 -1.35993 139.166 1.87634 146.007C5.0833 152.788 12.3272 157.709 20.101 161.07C35.8877 167.909 54.268 169.375 72.1543 169.939C111.747 171.191 151.417 168.638 190.981 166.084C205.622 165.139 220.328 164.188 234.667 161.452C242.628 159.935 250.826 157.682 256.471 152.745C263.636 146.477 265.102 136.243 259.888 128.887C251.144 116.549 228.089 114.222 221.819 100.872C218.362 93.5231 221.343 85.0946 225.734 78.0105C235.152 62.8105 251.363 49.1954 251.636 32.1945C251.823 20.5196 243.393 9.13028 230.802 4.0561C217.604 -1.25863 199.609 0.108269 190.363 10.0138C180.855 20.2184 163.645 24.6271 148.76 24.6428Z" fill="#6C63FF"/>
<path d="M223.84 145.09C223.84 145.09 221.068 143.266 218.321 144.564C218.321 144.564 219.167 146.187 222.645 146.034L223.84 145.09Z" fill="#6C63FF"/>
<path d="M224.192 145.187C224.192 145.187 225.035 148.388 222.92 150.566C222.92 150.566 221.648 149.247 222.92 146.014L224.192 145.187Z" fill="#6C63FF"/>
<path d="M227.638 142.113C227.638 142.113 227.433 139.39 221.265 140.294C221.265 140.294 221.235 142.05 223.4 142.882C225.565 143.714 226.558 143.012 227.638 142.113Z" fill="#6C63FF"/>
<path d="M228.026 142.095C228.026 142.095 230.633 142.929 228.308 148.695C228.308 148.695 226.587 148.313 226.278 146.018C225.969 143.722 226.885 142.931 228.026 142.095Z" fill="#6C63FF"/>
<path d="M231.508 138.233C231.508 138.233 231.862 133.752 225.558 134.211C225.558 134.211 225.107 138.257 230.396 139.31L231.508 138.233Z" fill="#6C63FF"/>
<path d="M235.673 133.174C235.673 133.174 234.809 128.096 228.508 129.609C228.508 129.609 228.486 133.999 234.645 134.384L235.673 133.174Z" fill="#6C63FF"/>
<path d="M238.718 127.945C238.718 127.945 237.27 122.999 231.027 124.478C231.027 124.478 232.514 128.927 238.303 128.858L238.718 127.945Z" fill="#6C63FF"/>
<path d="M241.609 122.837C241.609 122.837 240.195 117.704 234.167 119.24C234.167 119.24 236.178 124.116 241.21 123.705L241.609 122.837Z" fill="#6C63FF"/>
<path d="M243.472 117.985C243.472 117.985 242.385 111.708 236.765 113.097C236.765 113.097 238.397 118.808 243.059 118.9L243.472 117.985Z" fill="#6C63FF"/>
<path d="M245.22 112.125C245.22 112.125 243.914 105.798 238.229 107.628C238.229 107.628 240.457 113.608 244.816 112.99L245.22 112.125Z" fill="#6C63FF"/>
<path d="M246.293 106.67C246.293 106.67 244.221 100.341 239.825 100.512C239.825 100.512 241.943 107.196 245.926 107.931L246.293 106.67Z" fill="#6C63FF"/>
<path d="M246.988 101.347C246.988 101.347 244.733 93.7296 241.156 94.3164C241.156 94.3164 242.716 100.139 246.862 102.534L246.988 101.347Z" fill="#6C63FF"/>
<path d="M247.38 94.9952C247.38 94.9952 245.265 88.6486 241.742 88.3945C241.742 88.3945 243.181 94.64 247.31 96.6454L247.38 94.9952Z" fill="#6C63FF"/>
<path d="M247.806 89.0686C247.806 89.0686 245.17 82.7152 242.845 82.5713C242.845 82.5713 243.99 88.828 247.581 90.1117L247.806 89.0686Z" fill="#6C63FF"/>
<path d="M248.097 83.556C248.097 83.556 246.476 76.6563 244.146 76.083C244.146 76.083 244.464 81.7282 247.863 84.0731L248.097 83.556Z" fill="#6C63FF"/>
<path d="M248.977 76.335C248.977 76.335 247.272 70.8337 245.384 69.9951C245.384 69.9951 245.756 76.4812 248.542 77.6795L248.977 76.335Z" fill="#6C63FF"/>
<path d="M249.705 71.6138L250.048 61.915C250.048 61.915 246.519 69.2262 249.45 73.3156L249.705 71.6138Z" fill="#6C63FF"/>
<path d="M252.43 61.9668C252.43 61.9668 254.971 54.8849 255.587 54.4893C255.587 54.4893 250.603 59.0846 251.09 64.9951L252.43 61.9668Z" fill="#6C63FF"/>
<path d="M231.679 138.199C231.679 138.199 236.149 137.616 236.016 143.914C236.016 143.914 231.977 144.57 230.658 139.361L231.679 138.199Z" fill="#6C63FF"/>
<path d="M235.885 133.003C235.885 133.003 241.05 132.987 240.621 139.433C240.621 139.433 236.284 140.206 234.854 134.221L235.885 133.003Z" fill="#6C63FF"/>
<path d="M238.767 128.361C238.767 128.361 243.456 126.169 246.456 131.828C246.456 131.828 242.126 133.653 238.353 129.276L238.767 128.361Z" fill="#6C63FF"/>
<path d="M241.713 122.884C241.713 122.884 246.514 120.552 249.333 126.078C249.333 126.078 244.331 127.796 241.316 123.758L241.713 122.884Z" fill="#6C63FF"/>
<path d="M243.411 118.122C243.411 118.122 248.032 113.723 251.719 118.172C251.719 118.172 246.999 121.794 243.199 119.103L243.411 118.122Z" fill="#6C63FF"/>
<path d="M244.958 111.974C244.958 111.974 249.606 107.477 253.264 112.18C253.264 112.18 248.048 115.874 244.791 112.918L244.958 111.974Z" fill="#6C63FF"/>
<path d="M245.826 106.49C245.826 106.49 249.407 100.87 253.625 102.124C253.625 102.124 249.908 108.075 245.867 107.81L245.826 106.49Z" fill="#6C63FF"/>
<path d="M246.882 101.311C246.882 101.311 250.49 94.2333 253.904 95.4653C253.904 95.4653 251.302 100.906 246.789 102.504L246.882 101.311Z" fill="#6C63FF"/>
<path d="M247.132 94.6263C247.132 94.6263 250.842 89.0552 254.317 89.7365C254.317 89.7365 251.284 95.3862 246.771 96.2382L247.132 94.6263Z" fill="#6C63FF"/>
<path d="M247.421 88.9453C247.421 88.9453 250.296 82.6931 252.633 82.6504C252.633 82.6504 251.253 88.8577 247.615 90.0065L247.421 88.9453Z" fill="#6C63FF"/>
<path d="M247.984 83.4216C247.984 83.4216 251.18 77.0906 253.582 77.0771C253.582 77.0771 251.947 82.4908 248.09 83.9769L247.984 83.4216Z" fill="#6C63FF"/>
<path d="M248.465 76.7312C248.465 76.7312 250.855 71.4929 252.836 70.8994C252.836 70.8994 251.64 77.2843 248.729 78.1206L248.465 76.7312Z" fill="#6C63FF"/>
<path d="M249.989 71.4233L255.332 63.3096C255.332 63.3096 253.963 71.3131 249.209 72.9768L249.989 71.4233Z" fill="#6C63FF"/>
<path d="M253.657 62.6209C253.657 62.6209 259.865 58.3494 260.091 57.6592C260.091 57.6592 256.933 63.6416 251.07 64.6983L253.657 62.6209Z" fill="#6C63FF"/>
<path d="M254.029 60.6986C254.029 60.6986 261.158 53.8663 262.978 53.8731C262.978 53.8731 257.098 54.1406 253.857 60.3344L254.029 60.6986Z" fill="#6C63FF"/>
<path d="M248.535 77.7446L248.794 77.7783C250.134 67.3265 252.087 61.1417 254.292 60.384L254.207 60.1367C251.868 60.9461 249.901 67.0364 248.535 77.7446Z" fill="#444053"/>
<path d="M246.563 102.74L246.956 102.771C247.039 101.796 247.103 100.797 247.145 99.8014C247.52 91.1504 248.099 83.2052 248.862 77.2498L248.636 76.9688C247.872 82.9377 247.127 91.1211 246.753 99.7857C246.71 100.775 246.647 101.769 246.563 102.74Z" fill="#444053"/>
<path d="M216.524 150.076C216.592 150.047 223.499 146.972 230.669 139.638C234.869 135.343 238.36 130.41 241.009 125.025C244.324 118.296 246.345 110.027 247.022 101.994L246.614 102.185C245.091 120.216 236.857 132.536 230.31 139.247C223.211 146.515 216.38 149.559 216.312 149.588L216.524 150.076Z" fill="#444053"/>
<path d="M234.41 19.1611H17.7083C17.1963 19.1611 16.7053 19.3639 16.3433 19.7248C15.9812 20.0857 15.7778 20.5752 15.7778 21.0856V26.6926H236.341V21.0856C236.341 20.5752 236.138 20.0857 235.775 19.7248C235.413 19.3639 234.922 19.1611 234.41 19.1611V19.1611Z" fill="#3F3D56"/>
<path d="M15.7778 26.6924V152.87C15.7778 153.899 16.1879 154.886 16.9179 155.614C17.6479 156.342 18.638 156.751 19.6704 156.751H232.448C233.481 156.751 234.471 156.342 235.201 155.614C235.931 154.886 236.341 153.899 236.341 152.87V26.6924H15.7778Z" fill="white"/>
<path opacity="0.8" d="M19.2712 23.7702C19.7695 23.7702 20.1733 23.3676 20.1733 22.871C20.1733 22.3743 19.7695 21.9717 19.2712 21.9717C18.773 21.9717 18.3691 22.3743 18.3691 22.871C18.3691 23.3676 18.773 23.7702 19.2712 23.7702Z" fill="#FA5959"/>
<path opacity="0.8" d="M21.7517 23.7702C22.2499 23.7702 22.6538 23.3676 22.6538 22.871C22.6538 22.3743 22.2499 21.9717 21.7517 21.9717C21.2535 21.9717 20.8496 22.3743 20.8496 22.871C20.8496 23.3676 21.2535 23.7702 21.7517 23.7702Z" fill="#FED253"/>
<path opacity="0.8" d="M24.2327 23.7702C24.7309 23.7702 25.1348 23.3676 25.1348 22.871C25.1348 22.3743 24.7309 21.9717 24.2327 21.9717C23.7344 21.9717 23.3306 22.3743 23.3306 22.871C23.3306 23.3676 23.7344 23.7702 24.2327 23.7702Z" fill="#8CCF4D"/>
<path opacity="0.05" d="M213.543 47.7314H36.2803V125.434H213.543V47.7314Z" fill="black"/>
<path d="M212.189 48.3203H37.6333V124.309H212.189V48.3203Z" fill="#3F3D56"/>
<path d="M85.2189 67.8779C81.7844 67.8779 78.4269 68.8932 75.5712 70.7954C72.7155 72.6975 70.4897 75.4012 69.1754 78.5644C67.861 81.7275 67.5171 85.2082 68.1872 88.5663C68.8572 91.9243 70.5111 95.0088 72.9397 97.4298C75.3683 99.8508 78.4625 101.5 81.8311 102.167C85.1997 102.835 88.6913 102.493 91.8644 101.182C95.0375 99.8722 97.7496 97.6534 99.6577 94.8066C101.566 91.9598 102.584 88.6128 102.584 85.189C102.584 82.9157 102.135 80.6646 101.262 78.5644C100.39 76.4641 99.1106 74.5557 97.4981 72.9482C95.8856 71.3407 93.9712 70.0656 91.8644 69.1957C89.7575 68.3257 87.4994 67.8779 85.2189 67.8779V67.8779ZM88.3334 85.6049V93.8019H82.1946V85.6049C81.3451 84.9639 80.719 84.0731 80.4047 83.0582C80.0905 82.0434 80.1038 80.9558 80.443 79.9489C80.7822 78.942 81.43 78.0668 82.295 77.4467C83.16 76.8267 84.1986 76.4931 85.264 76.4931C86.3295 76.4931 87.368 76.8267 88.233 77.4467C89.0981 78.0668 89.7459 78.942 90.085 79.9489C90.4242 80.9558 90.4376 82.0434 90.1233 83.0582C89.809 84.0731 89.1829 84.9639 88.3334 85.6049V85.6049Z" fill="#6C63FF"/>
<path opacity="0.05" d="M85.2189 67.8779C81.7844 67.8779 78.4269 68.8932 75.5712 70.7954C72.7155 72.6975 70.4897 75.4012 69.1754 78.5644C67.861 81.7275 67.5171 85.2082 68.1872 88.5663C68.8572 91.9243 70.5111 95.0088 72.9397 97.4298C75.3683 99.8508 78.4625 101.5 81.8311 102.167C85.1997 102.835 88.6913 102.493 91.8644 101.182C95.0375 99.8722 97.7496 97.6534 99.6577 94.8066C101.566 91.9598 102.584 88.6128 102.584 85.189C102.584 82.9157 102.135 80.6646 101.262 78.5644C100.39 76.4641 99.1106 74.5557 97.4981 72.9482C95.8856 71.3407 93.9712 70.0656 91.8644 69.1957C89.7575 68.3257 87.4994 67.8779 85.2189 67.8779V67.8779ZM88.3334 85.6049V93.8019H82.1946V85.6049C81.3451 84.9639 80.719 84.0731 80.4047 83.0582C80.0905 82.0434 80.1038 80.9558 80.443 79.9489C80.7822 78.942 81.43 78.0668 82.295 77.4467C83.16 76.8267 84.1986 76.4931 85.264 76.4931C86.3295 76.4931 87.368 76.8267 88.233 77.4467C89.0981 78.0668 89.7459 78.942 90.085 79.9489C90.4242 80.9558 90.4376 82.0434 90.1233 83.0582C89.809 84.0731 89.1829 84.9639 88.3334 85.6049V85.6049Z" fill="black"/>
<path d="M85.219 62.9316C80.8032 62.9316 76.4865 64.237 72.8149 66.6826C69.1432 69.1283 66.2815 72.6044 64.5916 76.6713C62.9018 80.7383 62.4596 85.2135 63.3211 89.5309C64.1826 93.8484 66.309 97.8142 69.4315 100.927C72.554 104.04 76.5323 106.159 80.8633 107.018C85.1943 107.877 89.6835 107.436 93.7632 105.752C97.8429 104.067 101.33 101.214 103.783 97.5542C106.237 93.894 107.546 89.5908 107.546 85.1888C107.546 79.2858 105.194 73.6246 101.007 69.4506C96.8195 65.2766 91.1405 62.9316 85.219 62.9316V62.9316ZM89.2221 85.7238V96.2611H81.3287V85.7238C80.2361 84.8995 79.4307 83.754 79.0264 82.4488C78.6221 81.1436 78.6392 79.7448 79.0753 78.4499C79.5114 77.1549 80.3445 76.0293 81.457 75.2317C82.5695 74.4342 83.9052 74.0052 85.2754 74.0052C86.6457 74.0052 87.9813 74.4342 89.0938 75.2317C90.2063 76.0293 91.0394 77.1549 91.4755 78.4499C91.9117 79.7448 91.9288 81.1436 91.5244 82.4488C91.1201 83.754 90.3148 84.8995 89.2221 85.7238V85.7238Z" fill="#6C63FF"/>
<path d="M188.96 82.2686H116.792V89.9124H188.96V82.2686Z" fill="white"/>
<path d="M188.96 96.207H173.399V103.851H188.96V96.207Z" fill="#6C63FF"/>
<path d="M123.897 85.9751H122.591L123.752 84.8195C123.773 84.7981 123.785 84.7695 123.785 84.7397C123.785 84.7099 123.773 84.6813 123.752 84.6599C123.742 84.6494 123.729 84.641 123.716 84.6353C123.702 84.6296 123.687 84.6267 123.672 84.6267C123.657 84.6267 123.643 84.6296 123.629 84.6353C123.615 84.641 123.603 84.6494 123.592 84.6599L122.431 85.8177V84.5138C122.431 84.484 122.419 84.4554 122.398 84.4343C122.376 84.4132 122.348 84.4014 122.318 84.4014C122.288 84.4019 122.26 84.414 122.239 84.4349C122.218 84.4559 122.206 84.4841 122.205 84.5138V85.8177L121.046 84.6532C121.035 84.6426 121.023 84.6343 121.009 84.6286C120.995 84.6229 120.981 84.6199 120.966 84.6199C120.951 84.6199 120.936 84.6229 120.923 84.6286C120.909 84.6343 120.896 84.6426 120.886 84.6532C120.865 84.6746 120.853 84.7032 120.853 84.733C120.853 84.7628 120.865 84.7914 120.886 84.8128L122.047 85.9684H120.739C120.71 85.9689 120.681 85.981 120.66 86.0019C120.639 86.0229 120.627 86.0511 120.626 86.0808C120.626 86.1106 120.638 86.1392 120.659 86.1603C120.681 86.1813 120.709 86.1932 120.739 86.1932H122.047L120.886 87.351C120.865 87.3724 120.853 87.401 120.853 87.4308C120.853 87.4606 120.865 87.4892 120.886 87.5106C120.908 87.5308 120.936 87.5421 120.966 87.5421C120.996 87.5421 121.024 87.5308 121.046 87.5106L122.205 86.3528V87.6545C122.205 87.6843 122.217 87.7129 122.238 87.734C122.259 87.7551 122.288 87.7669 122.318 87.7669C122.348 87.7669 122.376 87.7551 122.398 87.734C122.419 87.7129 122.431 87.6843 122.431 87.6545V86.3528L123.592 87.5106C123.614 87.5308 123.642 87.5421 123.672 87.5421C123.702 87.5421 123.731 87.5308 123.752 87.5106C123.773 87.4892 123.785 87.4606 123.785 87.4308C123.785 87.401 123.773 87.3724 123.752 87.351L122.591 86.1932H123.897C123.926 86.1932 123.955 86.1813 123.976 86.1603C123.997 86.1392 124.009 86.1106 124.009 86.0808C124.008 86.0521 123.995 86.0253 123.974 86.0056C123.953 85.986 123.925 85.9751 123.897 85.9751Z" fill="#6C63FF"/>
<path d="M128.632 85.9751H127.327L128.488 84.8195C128.509 84.7981 128.52 84.7695 128.52 84.7397C128.52 84.7099 128.509 84.6813 128.488 84.6599C128.478 84.6494 128.465 84.641 128.451 84.6353C128.438 84.6296 128.423 84.6267 128.408 84.6267C128.393 84.6267 128.378 84.6296 128.365 84.6353C128.351 84.641 128.338 84.6494 128.328 84.6599L127.166 85.8177V84.5138C127.166 84.484 127.155 84.4554 127.133 84.4343C127.112 84.4132 127.084 84.4014 127.054 84.4014C127.024 84.4019 126.996 84.414 126.975 84.4349C126.954 84.4559 126.942 84.4841 126.941 84.5138V85.8177L125.782 84.6532C125.771 84.6426 125.759 84.6343 125.745 84.6286C125.731 84.6229 125.717 84.6199 125.702 84.6199C125.687 84.6199 125.672 84.6229 125.658 84.6286C125.645 84.6343 125.632 84.6426 125.622 84.6532C125.601 84.6746 125.589 84.7032 125.589 84.733C125.589 84.7628 125.601 84.7914 125.622 84.8128L126.783 85.9684H125.475C125.445 85.9689 125.417 85.981 125.396 86.0019C125.375 86.0229 125.363 86.0511 125.362 86.0808C125.362 86.1106 125.374 86.1392 125.395 86.1603C125.416 86.1813 125.445 86.1932 125.475 86.1932H126.783L125.622 87.351C125.601 87.3724 125.589 87.401 125.589 87.4308C125.589 87.4606 125.601 87.4892 125.622 87.5106C125.643 87.5308 125.672 87.5421 125.702 87.5421C125.731 87.5421 125.76 87.5308 125.782 87.5106L126.941 86.3528V87.6545C126.941 87.6843 126.953 87.7129 126.974 87.734C126.995 87.7551 127.024 87.7669 127.054 87.7669C127.084 87.7669 127.112 87.7551 127.133 87.734C127.155 87.7129 127.166 87.6843 127.166 87.6545V86.3528L128.328 87.5106C128.35 87.5308 128.378 87.5421 128.408 87.5421C128.438 87.5421 128.466 87.5308 128.488 87.5106C128.509 87.4892 128.52 87.4606 128.52 87.4308C128.52 87.401 128.509 87.3724 128.488 87.351L127.327 86.1932H128.632C128.662 86.1932 128.691 86.1813 128.712 86.1603C128.733 86.1392 128.745 86.1106 128.745 86.0808C128.743 86.0521 128.731 86.0253 128.71 86.0056C128.689 85.986 128.661 85.9751 128.632 85.9751Z" fill="#6C63FF"/>
<path d="M133.368 85.9751H132.062L133.224 84.8195C133.245 84.7981 133.256 84.7695 133.256 84.7397C133.256 84.7099 133.245 84.6813 133.224 84.6599C133.213 84.6494 133.201 84.641 133.187 84.6353C133.173 84.6296 133.159 84.6267 133.144 84.6267C133.129 84.6267 133.114 84.6296 133.1 84.6353C133.087 84.641 133.074 84.6494 133.064 84.6599L131.902 85.8177V84.5138C131.902 84.484 131.89 84.4554 131.869 84.4343C131.848 84.4132 131.819 84.4014 131.79 84.4014C131.76 84.4019 131.731 84.414 131.71 84.4349C131.689 84.4559 131.677 84.4841 131.677 84.5138V85.8177L130.518 84.6532C130.507 84.6426 130.495 84.6343 130.481 84.6286C130.467 84.6229 130.452 84.6199 130.438 84.6199C130.423 84.6199 130.408 84.6229 130.394 84.6286C130.38 84.6343 130.368 84.6426 130.357 84.6532C130.337 84.6746 130.325 84.7032 130.325 84.733C130.325 84.7628 130.337 84.7914 130.357 84.8128L131.519 85.9684H130.211C130.181 85.9689 130.153 85.981 130.132 86.0019C130.111 86.0229 130.099 86.0511 130.098 86.0808C130.098 86.1106 130.11 86.1392 130.131 86.1603C130.152 86.1813 130.181 86.1932 130.211 86.1932H131.519L130.357 87.351C130.337 87.3724 130.325 87.401 130.325 87.4308C130.325 87.4606 130.337 87.4892 130.357 87.5106C130.379 87.5308 130.408 87.5421 130.438 87.5421C130.467 87.5421 130.496 87.5308 130.518 87.5106L131.677 86.3528V87.6545C131.677 87.6843 131.689 87.7129 131.71 87.734C131.731 87.7551 131.76 87.7669 131.79 87.7669C131.819 87.7669 131.848 87.7551 131.869 87.734C131.89 87.7129 131.902 87.6843 131.902 87.6545V86.3528L133.064 87.5106C133.086 87.5308 133.114 87.5421 133.144 87.5421C133.174 87.5421 133.202 87.5308 133.224 87.5106C133.245 87.4892 133.256 87.4606 133.256 87.4308C133.256 87.401 133.245 87.3724 133.224 87.351L132.062 86.1932H133.368C133.398 86.1932 133.427 86.1813 133.448 86.1603C133.469 86.1392 133.481 86.1106 133.481 86.0808C133.479 86.0521 133.467 86.0253 133.446 86.0056C133.425 85.986 133.397 85.9751 133.368 85.9751Z" fill="#6C63FF"/>
<path d="M138.105 85.9751H136.799L137.96 84.8195C137.981 84.7981 137.993 84.7695 137.993 84.7397C137.993 84.7099 137.981 84.6813 137.96 84.6599C137.95 84.6494 137.937 84.641 137.924 84.6353C137.91 84.6296 137.895 84.6267 137.88 84.6267C137.865 84.6267 137.851 84.6296 137.837 84.6353C137.823 84.641 137.811 84.6494 137.8 84.6599L136.639 85.8177V84.5138C136.639 84.484 136.627 84.4554 136.606 84.4343C136.584 84.4132 136.556 84.4014 136.526 84.4014C136.496 84.4019 136.468 84.414 136.447 84.4349C136.426 84.4559 136.414 84.4841 136.413 84.5138V85.8177L135.254 84.6532C135.243 84.6426 135.231 84.6343 135.217 84.6286C135.204 84.6229 135.189 84.6199 135.174 84.6199C135.159 84.6199 135.144 84.6229 135.131 84.6286C135.117 84.6343 135.104 84.6426 135.094 84.6532C135.073 84.6746 135.061 84.7032 135.061 84.733C135.061 84.7628 135.073 84.7914 135.094 84.8128L136.255 85.9684H134.947C134.918 85.9689 134.889 85.981 134.868 86.0019C134.847 86.0229 134.835 86.0511 134.834 86.0808C134.834 86.1106 134.846 86.1392 134.867 86.1603C134.889 86.1813 134.917 86.1932 134.947 86.1932H136.255L135.094 87.351C135.073 87.3724 135.061 87.401 135.061 87.4308C135.061 87.4606 135.073 87.4892 135.094 87.5106C135.116 87.5308 135.144 87.5421 135.174 87.5421C135.204 87.5421 135.232 87.5308 135.254 87.5106L136.413 86.3528V87.6545C136.413 87.6843 136.425 87.7129 136.446 87.734C136.467 87.7551 136.496 87.7669 136.526 87.7669C136.556 87.7669 136.584 87.7551 136.606 87.734C136.627 87.7129 136.639 87.6843 136.639 87.6545V86.3528L137.8 87.5106C137.822 87.5308 137.85 87.5421 137.88 87.5421C137.91 87.5421 137.939 87.5308 137.96 87.5106C137.981 87.4892 137.993 87.4606 137.993 87.4308C137.993 87.401 137.981 87.3724 137.96 87.351L136.799 86.1932H138.105C138.134 86.1932 138.163 86.1813 138.184 86.1603C138.205 86.1392 138.217 86.1106 138.217 86.0808C138.216 86.0521 138.203 86.0253 138.182 86.0056C138.161 85.986 138.133 85.9751 138.105 85.9751Z" fill="#6C63FF"/>
<path d="M142.84 85.9751H141.535L142.696 84.8195C142.717 84.7981 142.729 84.7695 142.729 84.7397C142.729 84.7099 142.717 84.6813 142.696 84.6599C142.686 84.6494 142.673 84.641 142.659 84.6353C142.646 84.6296 142.631 84.6267 142.616 84.6267C142.601 84.6267 142.586 84.6296 142.573 84.6353C142.559 84.641 142.546 84.6494 142.536 84.6599L141.375 85.8177V84.5138C141.375 84.484 141.363 84.4554 141.341 84.4343C141.32 84.4132 141.292 84.4014 141.262 84.4014C141.232 84.4019 141.204 84.414 141.183 84.4349C141.162 84.4559 141.15 84.4841 141.149 84.5138V85.8177L139.99 84.6532C139.979 84.6426 139.967 84.6343 139.953 84.6286C139.939 84.6229 139.925 84.6199 139.91 84.6199C139.895 84.6199 139.88 84.6229 139.866 84.6286C139.853 84.6343 139.84 84.6426 139.83 84.6532C139.809 84.6746 139.797 84.7032 139.797 84.733C139.797 84.7628 139.809 84.7914 139.83 84.8128L140.991 85.9684H139.683C139.653 85.9689 139.625 85.981 139.604 86.0019C139.583 86.0229 139.571 86.0511 139.57 86.0808C139.57 86.1106 139.582 86.1392 139.603 86.1603C139.624 86.1813 139.653 86.1932 139.683 86.1932H140.991L139.83 87.351C139.809 87.3724 139.797 87.401 139.797 87.4308C139.797 87.4606 139.809 87.4892 139.83 87.5106C139.851 87.5308 139.88 87.5421 139.91 87.5421C139.939 87.5421 139.968 87.5308 139.99 87.5106L141.149 86.3528V87.6545C141.149 87.6843 141.161 87.7129 141.182 87.734C141.203 87.7551 141.232 87.7669 141.262 87.7669C141.292 87.7669 141.32 87.7551 141.341 87.734C141.363 87.7129 141.375 87.6843 141.375 87.6545V86.3528L142.536 87.5106C142.558 87.5308 142.586 87.5421 142.616 87.5421C142.646 87.5421 142.674 87.5308 142.696 87.5106C142.717 87.4892 142.729 87.4606 142.729 87.4308C142.729 87.401 142.717 87.3724 142.696 87.351L141.535 86.1932H142.84C142.87 86.1932 142.899 86.1813 142.92 86.1603C142.941 86.1392 142.953 86.1106 142.953 86.0808C142.951 86.0521 142.939 86.0253 142.918 86.0056C142.897 85.986 142.869 85.9751 142.84 85.9751Z" fill="#6C63FF"/>
<path d="M147.577 85.9751H146.271L147.432 84.8195C147.453 84.7981 147.465 84.7695 147.465 84.7397C147.465 84.7099 147.453 84.6813 147.432 84.6599C147.422 84.6494 147.409 84.641 147.396 84.6353C147.382 84.6296 147.367 84.6267 147.352 84.6267C147.337 84.6267 147.323 84.6296 147.309 84.6353C147.295 84.641 147.283 84.6494 147.272 84.6599L146.111 85.8177V84.5138C146.111 84.484 146.099 84.4554 146.078 84.4343C146.057 84.4132 146.028 84.4014 145.998 84.4014C145.968 84.4019 145.94 84.414 145.919 84.4349C145.898 84.4559 145.886 84.4841 145.885 84.5138V85.8177L144.726 84.6532C144.716 84.6426 144.703 84.6343 144.689 84.6286C144.676 84.6229 144.661 84.6199 144.646 84.6199C144.631 84.6199 144.616 84.6229 144.603 84.6286C144.589 84.6343 144.576 84.6426 144.566 84.6532C144.545 84.6746 144.534 84.7032 144.534 84.733C144.534 84.7628 144.545 84.7914 144.566 84.8128L145.727 85.9684H144.419C144.39 85.9689 144.361 85.981 144.34 86.0019C144.319 86.0229 144.307 86.0511 144.307 86.0808C144.307 86.1106 144.319 86.1392 144.34 86.1603C144.361 86.1813 144.389 86.1932 144.419 86.1932H145.727L144.566 87.351C144.545 87.3724 144.534 87.401 144.534 87.4308C144.534 87.4606 144.545 87.4892 144.566 87.5106C144.588 87.5308 144.616 87.5421 144.646 87.5421C144.676 87.5421 144.704 87.5308 144.726 87.5106L145.885 86.3528V87.6545C145.885 87.6843 145.897 87.7129 145.918 87.734C145.939 87.7551 145.968 87.7669 145.998 87.7669C146.028 87.7669 146.057 87.7551 146.078 87.734C146.099 87.7129 146.111 87.6843 146.111 87.6545V86.3528L147.272 87.5106C147.294 87.5308 147.323 87.5421 147.352 87.5421C147.382 87.5421 147.411 87.5308 147.432 87.5106C147.453 87.4892 147.465 87.4606 147.465 87.4308C147.465 87.401 147.453 87.3724 147.432 87.351L146.271 86.1932H147.577C147.607 86.1932 147.635 86.1813 147.656 86.1603C147.678 86.1392 147.69 86.1106 147.69 86.0808C147.688 86.0521 147.675 86.0253 147.654 86.0056C147.633 85.986 147.606 85.9751 147.577 85.9751Z" fill="#6C63FF"/>
<path d="M152.313 85.9751H151.007L152.168 84.8195C152.189 84.7981 152.201 84.7695 152.201 84.7397C152.201 84.7099 152.189 84.6813 152.168 84.6599C152.158 84.6494 152.145 84.641 152.132 84.6353C152.118 84.6296 152.103 84.6267 152.088 84.6267C152.073 84.6267 152.059 84.6296 152.045 84.6353C152.031 84.641 152.019 84.6494 152.008 84.6599L150.847 85.8177V84.5138C150.847 84.484 150.835 84.4554 150.814 84.4343C150.792 84.4132 150.764 84.4014 150.734 84.4014C150.704 84.4019 150.676 84.414 150.655 84.4349C150.634 84.4559 150.622 84.4841 150.621 84.5138V85.8177L149.462 84.6532C149.451 84.6426 149.439 84.6343 149.425 84.6286C149.412 84.6229 149.397 84.6199 149.382 84.6199C149.367 84.6199 149.352 84.6229 149.339 84.6286C149.325 84.6343 149.312 84.6426 149.302 84.6532C149.281 84.6746 149.269 84.7032 149.269 84.733C149.269 84.7628 149.281 84.7914 149.302 84.8128L150.463 85.9684H149.155C149.126 85.9689 149.097 85.981 149.076 86.0019C149.055 86.0229 149.043 86.0511 149.042 86.0808C149.042 86.1106 149.054 86.1392 149.076 86.1603C149.097 86.1813 149.125 86.1932 149.155 86.1932H150.463L149.302 87.351C149.281 87.3724 149.269 87.401 149.269 87.4308C149.269 87.4606 149.281 87.4892 149.302 87.5106C149.324 87.5308 149.352 87.5421 149.382 87.5421C149.412 87.5421 149.44 87.5308 149.462 87.5106L150.621 86.3528V87.6545C150.621 87.6843 150.633 87.7129 150.654 87.734C150.675 87.7551 150.704 87.7669 150.734 87.7669C150.764 87.7669 150.792 87.7551 150.814 87.734C150.835 87.7129 150.847 87.6843 150.847 87.6545V86.3528L152.008 87.5106C152.03 87.5308 152.058 87.5421 152.088 87.5421C152.118 87.5421 152.147 87.5308 152.168 87.5106C152.189 87.4892 152.201 87.4606 152.201 87.4308C152.201 87.401 152.189 87.3724 152.168 87.351L151.007 86.1932H152.313C152.342 86.1932 152.371 86.1813 152.392 86.1603C152.413 86.1392 152.425 86.1106 152.425 86.0808C152.424 86.0521 152.411 86.0253 152.39 86.0056C152.369 85.986 152.341 85.9751 152.313 85.9751Z" fill="#6C63FF"/>
<path d="M157.048 85.9751H155.743L156.904 84.8195C156.925 84.7981 156.937 84.7695 156.937 84.7397C156.937 84.7099 156.925 84.6813 156.904 84.6599C156.894 84.6494 156.881 84.641 156.867 84.6353C156.854 84.6296 156.839 84.6267 156.824 84.6267C156.809 84.6267 156.794 84.6296 156.781 84.6353C156.767 84.641 156.754 84.6494 156.744 84.6599L155.583 85.8177V84.5138C155.583 84.484 155.571 84.4554 155.549 84.4343C155.528 84.4132 155.5 84.4014 155.47 84.4014C155.44 84.4019 155.412 84.414 155.391 84.4349C155.37 84.4559 155.358 84.4841 155.357 84.5138V85.8177L154.198 84.6532C154.187 84.6426 154.175 84.6343 154.161 84.6286C154.147 84.6229 154.133 84.6199 154.118 84.6199C154.103 84.6199 154.088 84.6229 154.074 84.6286C154.061 84.6343 154.048 84.6426 154.038 84.6532C154.017 84.6746 154.005 84.7032 154.005 84.733C154.005 84.7628 154.017 84.7914 154.038 84.8128L155.199 85.9684H153.891C153.861 85.9689 153.833 85.981 153.812 86.0019C153.791 86.0229 153.779 86.0511 153.778 86.0808C153.778 86.1106 153.79 86.1392 153.811 86.1603C153.832 86.1813 153.861 86.1932 153.891 86.1932H155.199L154.038 87.351C154.017 87.3724 154.005 87.401 154.005 87.4308C154.005 87.4606 154.017 87.4892 154.038 87.5106C154.059 87.5308 154.088 87.5421 154.118 87.5421C154.147 87.5421 154.176 87.5308 154.198 87.5106L155.357 86.3528V87.6545C155.357 87.6843 155.369 87.7129 155.39 87.734C155.411 87.7551 155.44 87.7669 155.47 87.7669C155.5 87.7669 155.528 87.7551 155.549 87.734C155.571 87.7129 155.583 87.6843 155.583 87.6545V86.3528L156.744 87.5106C156.766 87.5308 156.794 87.5421 156.824 87.5421C156.854 87.5421 156.882 87.5308 156.904 87.5106C156.925 87.4892 156.937 87.4606 156.937 87.4308C156.937 87.401 156.925 87.3724 156.904 87.351L155.743 86.1932H157.048C157.078 86.1932 157.107 86.1813 157.128 86.1603C157.149 86.1392 157.161 86.1106 157.161 86.0808C157.159 86.0521 157.147 86.0253 157.126 86.0056C157.105 85.986 157.077 85.9751 157.048 85.9751Z" fill="#6C63FF"/>
<path d="M161.785 85.9751H160.479L161.64 84.8195C161.661 84.7981 161.673 84.7695 161.673 84.7397C161.673 84.7099 161.661 84.6813 161.64 84.6599C161.63 84.6494 161.617 84.641 161.604 84.6353C161.59 84.6296 161.575 84.6267 161.56 84.6267C161.545 84.6267 161.531 84.6296 161.517 84.6353C161.503 84.641 161.491 84.6494 161.48 84.6599L160.319 85.8177V84.5138C160.319 84.484 160.307 84.4554 160.286 84.4343C160.265 84.4132 160.236 84.4014 160.206 84.4014C160.176 84.4019 160.148 84.414 160.127 84.4349C160.106 84.4559 160.094 84.4841 160.093 84.5138V85.8177L158.934 84.6532C158.924 84.6426 158.911 84.6343 158.897 84.6286C158.884 84.6229 158.869 84.6199 158.854 84.6199C158.839 84.6199 158.824 84.6229 158.811 84.6286C158.797 84.6343 158.784 84.6426 158.774 84.6532C158.753 84.6746 158.742 84.7032 158.742 84.733C158.742 84.7628 158.753 84.7914 158.774 84.8128L159.935 85.9684H158.627C158.598 85.9689 158.569 85.981 158.548 86.0019C158.527 86.0229 158.515 86.0511 158.515 86.0808C158.515 86.1106 158.527 86.1392 158.548 86.1603C158.569 86.1813 158.598 86.1932 158.627 86.1932H159.935L158.774 87.351C158.753 87.3724 158.742 87.401 158.742 87.4308C158.742 87.4606 158.753 87.4892 158.774 87.5106C158.796 87.5308 158.824 87.5421 158.854 87.5421C158.884 87.5421 158.912 87.5308 158.934 87.5106L160.093 86.3528V87.6545C160.093 87.6843 160.105 87.7129 160.126 87.734C160.147 87.7551 160.176 87.7669 160.206 87.7669C160.236 87.7669 160.265 87.7551 160.286 87.734C160.307 87.7129 160.319 87.6843 160.319 87.6545V86.3528L161.48 87.5106C161.502 87.5308 161.531 87.5421 161.56 87.5421C161.59 87.5421 161.619 87.5308 161.64 87.5106C161.661 87.4892 161.673 87.4606 161.673 87.4308C161.673 87.401 161.661 87.3724 161.64 87.351L160.479 86.1932H161.785C161.815 86.1932 161.843 86.1813 161.864 86.1603C161.886 86.1392 161.898 86.1106 161.898 86.0808C161.896 86.0521 161.883 86.0253 161.862 86.0056C161.841 85.986 161.814 85.9751 161.785 85.9751Z" fill="#6C63FF"/>
<path d="M166.521 85.9751H165.215L166.376 84.8195C166.397 84.7981 166.409 84.7695 166.409 84.7397C166.409 84.7099 166.397 84.6813 166.376 84.6599C166.366 84.6494 166.353 84.641 166.34 84.6353C166.326 84.6296 166.311 84.6267 166.296 84.6267C166.281 84.6267 166.267 84.6296 166.253 84.6353C166.239 84.641 166.227 84.6494 166.216 84.6599L165.055 85.8177V84.5138C165.055 84.484 165.043 84.4554 165.022 84.4343C165.001 84.4132 164.972 84.4014 164.942 84.4014C164.912 84.4019 164.884 84.414 164.863 84.4349C164.842 84.4559 164.83 84.4841 164.829 84.5138V85.8177L163.67 84.6532C163.659 84.6426 163.647 84.6343 163.633 84.6286C163.62 84.6229 163.605 84.6199 163.59 84.6199C163.575 84.6199 163.56 84.6229 163.547 84.6286C163.533 84.6343 163.52 84.6426 163.51 84.6532C163.489 84.6746 163.477 84.7032 163.477 84.733C163.477 84.7628 163.489 84.7914 163.51 84.8128L164.671 85.9684H163.363C163.334 85.9689 163.305 85.981 163.284 86.0019C163.263 86.0229 163.251 86.0511 163.25 86.0808C163.25 86.1106 163.262 86.1392 163.284 86.1603C163.305 86.1813 163.333 86.1932 163.363 86.1932H164.671L163.51 87.351C163.489 87.3724 163.477 87.401 163.477 87.4308C163.477 87.4606 163.489 87.4892 163.51 87.5106C163.532 87.5308 163.56 87.5421 163.59 87.5421C163.62 87.5421 163.648 87.5308 163.67 87.5106L164.829 86.3528V87.6545C164.829 87.6843 164.841 87.7129 164.862 87.734C164.883 87.7551 164.912 87.7669 164.942 87.7669C164.972 87.7669 165.001 87.7551 165.022 87.734C165.043 87.7129 165.055 87.6843 165.055 87.6545V86.3528L166.216 87.5106C166.238 87.5308 166.266 87.5421 166.296 87.5421C166.326 87.5421 166.355 87.5308 166.376 87.5106C166.397 87.4892 166.409 87.4606 166.409 87.4308C166.409 87.401 166.397 87.3724 166.376 87.351L165.215 86.1932H166.521C166.551 86.1932 166.579 86.1813 166.6 86.1603C166.621 86.1392 166.633 86.1106 166.633 86.0808C166.632 86.0521 166.619 86.0253 166.598 86.0056C166.577 85.986 166.549 85.9751 166.521 85.9751Z" fill="#6C63FF"/>
<path d="M171.256 85.9751H169.951L171.112 84.8195C171.133 84.7981 171.145 84.7695 171.145 84.7397C171.145 84.7099 171.133 84.6813 171.112 84.6599C171.102 84.6494 171.089 84.641 171.075 84.6353C171.062 84.6296 171.047 84.6267 171.032 84.6267C171.017 84.6267 171.002 84.6296 170.989 84.6353C170.975 84.641 170.962 84.6494 170.952 84.6599L169.791 85.8177V84.5138C169.791 84.484 169.779 84.4554 169.757 84.4343C169.736 84.4132 169.708 84.4014 169.678 84.4014C169.648 84.4019 169.62 84.414 169.599 84.4349C169.578 84.4559 169.566 84.4841 169.565 84.5138V85.8177L168.406 84.6532C168.395 84.6426 168.383 84.6343 168.369 84.6286C168.355 84.6229 168.341 84.6199 168.326 84.6199C168.311 84.6199 168.296 84.6229 168.282 84.6286C168.269 84.6343 168.256 84.6426 168.246 84.6532C168.225 84.6746 168.213 84.7032 168.213 84.733C168.213 84.7628 168.225 84.7914 168.246 84.8128L169.407 85.9684H168.099C168.069 85.9689 168.041 85.981 168.02 86.0019C167.999 86.0229 167.987 86.0511 167.986 86.0808C167.986 86.1106 167.998 86.1392 168.019 86.1603C168.04 86.1813 168.069 86.1932 168.099 86.1932H169.407L168.246 87.351C168.225 87.3724 168.213 87.401 168.213 87.4308C168.213 87.4606 168.225 87.4892 168.246 87.5106C168.267 87.5308 168.296 87.5421 168.326 87.5421C168.355 87.5421 168.384 87.5308 168.406 87.5106L169.565 86.3528V87.6545C169.565 87.6843 169.577 87.7129 169.598 87.734C169.619 87.7551 169.648 87.7669 169.678 87.7669C169.708 87.7669 169.736 87.7551 169.757 87.734C169.779 87.7129 169.791 87.6843 169.791 87.6545V86.3528L170.952 87.5106C170.974 87.5308 171.002 87.5421 171.032 87.5421C171.062 87.5421 171.09 87.5308 171.112 87.5106C171.133 87.4892 171.145 87.4606 171.145 87.4308C171.145 87.401 171.133 87.3724 171.112 87.351L169.951 86.1932H171.256C171.286 86.1932 171.315 86.1813 171.336 86.1603C171.357 86.1392 171.369 86.1106 171.369 86.0808C171.367 86.0521 171.355 86.0253 171.334 86.0056C171.313 85.986 171.285 85.9751 171.256 85.9751Z" fill="#6C63FF"/>
<path d="M207.564 113.325C207.558 113.053 207.524 112.783 207.462 112.518C207.259 111.758 206.802 110.838 206.048 110.609C205.271 110.372 204.52 110.055 203.807 109.665C203.671 107.255 204.226 104.788 203.622 102.453C203.396 101.598 203.024 100.78 202.925 99.9053C202.801 98.8172 203.099 97.6571 202.663 96.6544C202.32 95.8631 201.567 95.3055 200.758 95.0132C199.948 94.721 199.075 94.6423 198.216 94.5636C197.133 94.4759 193.629 94.0623 192.406 95.0267C192.322 95.092 192.246 95.1675 192.181 95.2516V95.2516C192.154 95.2886 192.13 95.3277 192.109 95.3685L192.097 95.3864C192.073 95.4333 192.053 95.4822 192.037 95.5326V95.5326C192.02 95.5877 192.007 95.6441 191.998 95.7012C191.998 95.7192 191.998 95.7372 191.998 95.7552C191.998 95.7731 191.998 95.8338 191.998 95.8743V95.935C191.998 95.9755 191.998 96.0159 191.998 96.0587C191.998 96.1014 191.998 96.0901 191.998 96.1059C192.014 96.3082 192.043 96.5105 192.043 96.7106C192.046 96.8103 192.037 96.9098 192.016 97.0074C191.941 97.2725 191.814 97.5202 191.642 97.7358V97.7358L191.601 97.7943C191.577 97.8302 191.552 97.864 191.529 97.8999C191.507 97.9359 191.489 97.9629 191.471 97.9944C191.452 98.0258 191.434 98.0461 191.419 98.0753C191.397 98.1123 191.377 98.1506 191.36 98.1899C191.36 98.2124 191.335 98.2327 191.326 98.2551C191.298 98.3159 191.275 98.3791 191.259 98.444C191.206 98.6393 191.201 98.8445 191.245 99.042C191.306 99.2942 191.41 99.5339 191.554 99.7502C191.61 99.8424 191.671 99.9323 191.734 100.022L191.892 100.236C191.863 100.444 191.847 100.655 191.845 100.865C191.845 101.569 192.005 102.264 192.314 102.897C192.623 103.531 193.071 104.086 193.627 104.521C193.716 105.47 193.706 106.426 193.597 107.374C193.577 107.572 193.552 107.772 193.525 107.97C193.498 108.167 193.478 108.298 193.451 108.462C193.121 108.509 192.784 108.484 192.465 108.388C192.318 108.322 192.167 108.265 192.014 108.215C191.358 108.051 190.688 108.703 190.038 108.505C190.038 108.536 190.02 108.565 190.009 108.595C189.874 108.511 189.718 108.465 189.558 108.462C189.172 108.444 188.859 108.165 188.579 107.902L187.72 107.095C187.664 107.046 187.614 106.99 187.571 106.929C187.525 106.841 187.49 106.748 187.467 106.652C187.323 106.187 186.974 105.816 186.635 105.463C186.571 105.382 186.486 105.321 186.389 105.285C186.352 105.28 186.314 105.28 186.277 105.285C186.254 105.254 186.229 105.224 186.202 105.195C186.144 105.129 186.081 105.065 186.015 105.006C185.605 104.629 185.564 104.305 185.208 103.882C184.897 103.479 184.615 103.055 184.364 102.612C184.335 102.376 184.294 102.133 184.245 101.888C184.131 101.327 183.966 100.778 183.751 100.247L183.3 99.2511L183.248 99.3028C182.921 98.8172 182.571 98.5519 182.258 98.6149C181.732 98.7228 181.473 99.739 181.556 101.068L181.737 102.417C181.737 102.45 181.753 102.484 181.762 102.518C181.729 102.678 181.713 102.84 181.712 103.003C181.712 103.192 181.888 103.332 181.98 103.5C182.128 103.729 182.207 103.995 182.206 104.267C182.195 104.363 182.165 104.456 182.161 104.55C182.173 104.761 182.247 104.964 182.373 105.135L183.5 107.023L183.726 107.419L183.74 107.437C183.811 107.575 183.914 107.694 184.042 107.783C184.086 108.256 184.212 108.718 184.414 109.148C184.452 109.233 184.495 109.314 184.54 109.395C184.843 109.892 185.2 110.354 185.605 110.773L186.141 111.373C186.671 111.962 187.201 112.554 187.776 113.098C187.982 113.316 188.231 113.49 188.507 113.608C188.642 113.662 188.789 113.679 188.934 113.658C189.078 113.638 189.214 113.579 189.328 113.489C189.328 113.768 189.328 114.046 189.328 114.325C189.412 114.33 189.493 114.358 189.562 114.404C189.632 114.451 189.688 114.515 189.724 114.591C189.76 114.666 189.776 114.75 189.769 114.833C189.762 114.917 189.733 114.997 189.684 115.065C189.211 116.277 188.733 117.5 188.015 118.586C188.522 118.884 188.991 119.241 189.414 119.649C189.688 119.952 189.932 120.281 190.142 120.631C190.162 120.798 190.178 120.962 190.187 121.126C190.354 123.806 189.314 126.466 188.383 129.019C188.115 129.743 187.822 130.501 187.844 131.254C187.667 131.363 187.499 131.484 187.339 131.616C187.524 132.097 187.452 132.527 187.431 133.041C187.425 133.35 187.361 133.655 187.244 133.941C187.146 134.139 187.038 134.332 186.919 134.519C186.335 135.546 186.207 136.767 186.089 137.94C186.02 138.648 186.295 139.514 185.972 140.148C185.415 141.236 184.921 142.396 184.845 143.606C184.842 143.878 184.807 144.149 184.741 144.413C184.671 144.638 184.547 144.829 184.484 145.049C184.419 145.344 184.404 145.648 184.439 145.948C184.482 147.026 184.321 148.102 183.965 149.121C183.683 149.923 183.372 150.782 183.593 151.607C183.049 152.177 182.713 152.912 182.639 153.696C182.633 153.896 182.609 154.095 182.567 154.291C182.498 154.492 182.407 154.684 182.296 154.865C181.842 155.689 181.63 156.624 181.683 157.563C181.006 158.478 180.668 159.606 180.467 160.728C180.266 161.85 180.179 162.992 179.921 164.1C179.579 165.566 178.958 167.048 178.837 168.549C178.106 169.015 177.79 169.916 177.65 170.768C177.511 171.621 177.488 172.515 177.129 173.302C176.944 173.711 176.678 174.078 176.502 174.496C176.379 174.829 176.288 175.173 176.232 175.523C176.124 176.072 176.029 176.683 176.162 177.21C175.971 177.412 175.747 177.581 175.501 177.711C175.537 177.571 175.567 177.432 175.591 177.29C175.009 177.817 173.954 177.632 173.489 178.264C173.35 178.468 173.296 178.717 173.338 178.96C173.38 179.203 173.515 179.42 173.715 179.566C173.86 179.654 174.018 179.721 174.182 179.766C175.309 180.125 176.469 180.487 177.628 180.296C177.765 180.282 177.898 180.24 178.018 180.173C178.169 180.062 178.293 179.919 178.381 179.754C178.555 179.48 178.728 179.206 178.9 178.932C179.315 179.055 179.738 179.154 180.165 179.226C180.208 179.586 180.239 179.946 180.255 180.305C180.481 180.35 180.783 180.364 180.889 180.155C180.921 180.076 180.934 179.99 180.927 179.905C180.927 179.745 180.95 179.534 180.963 179.318H181.008C181.697 179.346 182.381 179.208 183.004 178.916C182.763 176.924 183.559 174.977 184.249 173.093C184.978 171.11 185.602 169.091 186.232 167.072C186.683 165.652 187.181 164.276 187.623 162.853C188.179 161.054 188.738 159.255 189.299 157.457C189.542 156.666 189.788 155.883 190.068 155.096C190.656 153.504 191.355 151.954 192.158 150.458C192.384 150.033 192.609 149.613 192.794 149.172C193.02 148.635 193.18 148.073 193.36 147.518C193.754 146.378 194.227 145.268 194.777 144.195C194.792 144.166 194.804 144.139 194.82 144.112C195.002 144.856 195.185 145.611 195.307 146.36C195.472 147.278 195.484 148.216 195.345 149.139C195.237 149.766 195.032 150.386 195.056 151.023C195.09 151.902 195.562 152.7 195.794 153.547C195.944 154.182 196.028 154.829 196.046 155.481C196.11 156.492 196.66 157.628 196.272 158.565C195.065 161.535 195.649 164.889 194.962 168.008C194.608 169.608 193.523 171.112 193.608 172.749C193.669 173.911 193.771 175.069 193.915 176.225C193.95 176.589 194.045 176.946 194.197 177.279C194.287 177.455 194.39 177.623 194.506 177.783C194.407 177.821 194.323 177.922 194.251 178.136C194.066 178.698 194.251 179.395 194.752 179.71C194.956 179.818 195.176 179.894 195.404 179.934C195.71 180.021 196.028 180.065 196.346 180.065C196.446 180.059 196.544 180.047 196.642 180.029C196.99 180.175 197.346 180.302 197.709 180.411C197.709 180.503 197.727 180.595 197.738 180.687C197.738 180.736 197.749 180.783 197.769 180.827C197.79 180.871 197.819 180.91 197.855 180.942C197.911 180.968 197.974 180.979 198.036 180.973H199.26C199.26 180.872 199.26 180.768 199.26 180.667C199.4 180.682 199.542 180.667 199.676 180.624C199.81 180.58 199.933 180.509 200.038 180.415C200.147 180.278 200.224 180.118 200.264 179.948C200.597 178.819 200.929 177.69 201.258 176.56C201.653 175.311 201.817 174 201.743 172.693C201.308 168.549 202.264 164.393 201.953 160.238C201.766 157.741 201.894 155.23 202.336 152.765C202.438 152.207 202.562 151.641 202.607 151.085C202.706 150.038 202.584 148.979 202.659 147.938C202.684 147.574 202.733 147.212 202.778 146.85C203.087 144.603 203.249 142.339 203.263 140.072C203.256 139.32 203.21 138.57 203.123 137.823C203.358 137.764 203.572 137.639 203.739 137.464C203.94 137.203 203.888 136.836 203.886 136.504C203.886 135.708 204.222 134.957 204.492 134.206C204.84 133.17 205.124 132.115 205.345 131.045C205.578 130.183 205.705 129.296 205.724 128.403C205.724 128.314 205.719 128.224 205.71 128.134C205.795 128.075 205.866 127.998 205.918 127.909C205.976 127.777 206.013 127.637 206.026 127.493C206.107 126.92 206.19 126.344 206.272 125.769C206.332 125.356 206.391 124.945 206.45 124.534L207.167 119.546C207.228 119.112 207.291 118.68 207.352 118.248L207.539 116.958C207.559 116.805 207.582 116.652 207.598 116.508C208.148 115.591 207.623 114.368 207.564 113.325ZM201.581 132.003C201.315 131.373 201.067 130.728 201.13 130.049H201.105C201.164 129.84 201.154 129.618 201.076 129.415C201.006 129.251 200.884 129.112 200.809 128.948C200.73 128.747 200.688 128.534 200.688 128.318C200.632 126.951 200.74 125.582 201.01 124.24C201.04 124.082 201.071 123.923 201.1 123.765C201.195 123.711 201.282 123.644 201.358 123.565C201.476 123.431 201.574 123.279 201.648 123.116C201.903 122.605 202.136 122.086 202.35 121.558C202.42 121.387 202.521 121.189 202.695 121.146C202.659 122.461 202.794 123.804 202.257 124.991C202.155 125.182 202.08 125.386 202.032 125.598C201.982 125.933 202.122 126.272 202.072 126.605C202.048 126.778 201.973 126.938 201.944 127.108C201.922 127.192 201.922 127.281 201.945 127.364C201.968 127.448 202.013 127.524 202.075 127.585C202.105 127.606 202.137 127.623 202.172 127.635C202.158 127.724 202.147 127.817 202.138 127.904C202.12 128.089 202.111 128.262 202.099 128.37C202.048 128.92 202.027 129.472 202.039 130.024C202.039 130.62 202.061 131.216 202.052 131.823C202.06 131.997 202.031 132.171 201.966 132.333C201.922 132.417 201.864 132.493 201.795 132.558C201.73 132.356 201.657 132.178 201.581 132.003Z" fill="url(#paint0_linear_1113_4786)"/>
<path d="M183.778 105.917C184.467 105.776 184.701 104.087 184.302 102.145C183.902 100.202 183.021 98.7416 182.332 98.8822C181.644 99.0228 181.41 100.711 181.809 102.654C182.209 104.597 183.09 106.057 183.778 105.917Z" fill="#FBBEBE"/>
<path d="M194.287 178.179C194.102 178.736 194.287 179.433 194.788 179.737C194.991 179.845 195.209 179.92 195.435 179.962C195.741 180.048 196.057 180.091 196.375 180.09C196.766 180.072 197.14 179.919 197.53 179.865C197.575 179.854 197.623 179.86 197.663 179.883C197.683 179.904 197.697 179.929 197.706 179.956C197.714 179.983 197.717 180.012 197.713 180.04C197.717 180.261 197.733 180.482 197.762 180.701C197.763 180.749 197.773 180.797 197.794 180.841C197.814 180.885 197.843 180.924 197.88 180.955C197.936 180.981 197.998 180.992 198.06 180.987H199.282C199.31 179.916 199.192 178.847 198.933 177.808C198.916 177.728 198.885 177.652 198.843 177.583C198.739 177.47 198.603 177.391 198.452 177.358C198.154 177.234 197.831 177.178 197.508 177.194C197.113 177.246 196.784 177.5 196.448 177.711C196.112 177.922 195.654 178.109 195.245 178.001C194.837 177.893 194.497 177.554 194.287 178.179Z" fill="#3F3D56"/>
<path d="M176.34 177.192C175.997 177.558 175.575 177.844 175.107 178.028L174.899 178.127C174.87 178.138 174.846 178.157 174.829 178.183C174.825 178.201 174.825 178.219 174.829 178.236C174.833 178.254 174.841 178.27 174.852 178.284C175.024 178.55 175.279 178.753 175.578 178.861C175.877 178.97 176.203 178.978 176.507 178.884C176.641 178.851 176.766 178.786 176.87 178.696C177.042 178.492 177.141 178.237 177.15 177.972C177.218 177.698 177.206 177.41 177.116 177.142C176.802 176.438 176.687 176.758 176.34 177.192Z" fill="#FBBEBE"/>
<path d="M181.026 179.962C181.033 180.047 181.02 180.132 180.988 180.211C180.882 180.418 180.586 180.407 180.356 180.362C180.321 179.599 180.229 178.84 180.079 178.091C179.641 178.071 179.326 178.485 179.091 178.856L178.487 179.811C178.399 179.976 178.276 180.118 178.126 180.229C178.005 180.295 177.873 180.337 177.736 180.353C176.581 180.544 175.415 180.182 174.301 179.822C174.137 179.778 173.98 179.712 173.834 179.624C173.635 179.479 173.501 179.262 173.459 179.02C173.417 178.778 173.47 178.529 173.609 178.325C174.076 177.695 175.124 177.875 175.706 177.354C175.645 177.721 175.546 178.08 175.408 178.426C176.186 178.309 176.71 177.599 177.337 177.124C177.494 176.991 177.684 176.901 177.887 176.864C178.039 176.851 178.192 176.867 178.338 176.911C179.061 177.092 179.737 177.424 180.323 177.884C180.559 178.071 180.929 178.334 181.033 178.622C181.143 178.966 181.026 179.595 181.026 179.962Z" fill="#3F3D56"/>
<path d="M196.54 105.785C199.113 105.785 201.2 103.705 201.2 101.14C201.2 98.5747 199.113 96.4951 196.54 96.4951C193.967 96.4951 191.881 98.5747 191.881 101.14C191.881 103.705 193.967 105.785 196.54 105.785Z" fill="#FBBEBE"/>
<path d="M205.719 128.563C205.7 129.451 205.574 130.334 205.342 131.192C205.122 132.257 204.837 133.308 204.49 134.339C204.222 135.088 203.886 135.839 203.888 136.632C203.888 136.963 203.942 137.329 203.739 137.59C203.558 137.773 203.33 137.903 203.08 137.965C202.956 137.998 202.84 138.06 202.744 138.146C202.648 138.231 202.573 138.338 202.526 138.458C202.314 138.142 202.155 137.795 202.057 137.428C201.652 136.193 201.276 134.951 200.929 133.703C200.897 133.631 200.883 133.552 200.889 133.474C200.894 133.396 200.919 133.32 200.96 133.253C201.018 133.204 201.084 133.166 201.157 133.143C201.388 133.049 201.6 132.913 201.781 132.743C201.867 132.667 201.937 132.577 201.989 132.475C202.054 132.314 202.084 132.141 202.077 131.967C202.077 131.371 202.077 130.778 202.061 130.182C202.052 129.632 202.073 129.082 202.124 128.534C202.124 128.426 202.144 128.253 202.163 128.069C202.196 127.716 202.264 127.307 202.456 127.17C202.742 126.978 203.599 127.235 203.924 127.28C204.483 127.356 205.051 127.446 205.597 127.552C205.677 127.883 205.717 128.223 205.719 128.563Z" fill="#3F3D56"/>
<path d="M186.906 106.34C186.725 106.699 186.292 106.872 185.958 107.099L184.815 107.882C184.739 107.95 184.649 108.003 184.552 108.036C184.455 108.069 184.352 108.083 184.249 108.075C184.156 108.041 184.071 107.988 183.998 107.921C183.926 107.853 183.868 107.772 183.827 107.682C183.828 107.676 183.828 107.67 183.827 107.664L183.59 107.268L182.463 105.384C182.337 105.215 182.265 105.014 182.253 104.804C182.253 104.707 182.287 104.617 182.296 104.521C182.299 104.249 182.22 103.983 182.07 103.756C181.98 103.588 181.8 103.448 181.804 103.26C181.796 103.011 181.839 102.764 181.931 102.533C182.049 102.32 182.219 102.139 182.424 102.007C182.53 101.931 182.639 101.859 182.752 101.782C182.811 101.742 182.878 101.711 182.948 101.693C183.135 101.654 183.32 101.809 183.509 101.816C184.323 102.36 184.637 103.39 185.277 104.132C185.638 104.555 185.674 104.878 186.082 105.256C186.148 105.314 186.211 105.377 186.272 105.443C186.353 105.53 186.421 105.629 186.475 105.735C186.549 105.928 186.998 106.155 186.906 106.34Z" fill="#3F3D56"/>
<path d="M194.903 105.786C195.239 106.495 195.5 107.272 195.403 108.05C195.383 108.261 195.316 108.465 195.207 108.646C194.882 109.143 194.201 109.233 193.608 109.262C193.483 109.252 193.357 109.266 193.238 109.305C193.119 109.343 193.008 109.405 192.913 109.487C192.834 109.602 192.795 109.739 192.803 109.879C192.811 110.018 192.865 110.15 192.956 110.256C193.147 110.459 193.384 110.613 193.646 110.705C194.585 111.117 195.597 111.456 196.617 111.362C197.09 111.317 197.55 111.18 198.022 111.11C198.535 111.055 199.052 111.026 199.569 111.025C200.182 111.002 200.793 110.941 201.404 110.881L203.024 110.721C203.112 110.722 203.198 110.691 203.265 110.633C203.385 110.494 203.231 110.289 203.082 110.184C202.223 109.55 201.129 109.114 200.64 108.16C200.414 107.711 200.345 107.176 200.178 106.69C200.011 106.205 199.745 105.766 199.641 105.272C199.586 104.838 199.561 104.4 199.566 103.963C199.572 103.522 199.411 103.095 199.115 102.767C198.793 102.468 198.326 102.392 197.889 102.374C196.811 102.326 195.663 102.583 194.898 103.34C194.693 103.545 194.517 103.79 194.305 103.974C194.093 104.159 193.804 104.213 193.944 104.455C194.084 104.698 194.359 104.849 194.508 105.062C194.659 105.293 194.791 105.535 194.903 105.786V105.786Z" fill="#FBBEBE"/>
<path d="M204.089 112.326C203.804 114.057 203.342 115.755 202.708 117.391C202.39 118.13 202.119 118.889 201.897 119.662C201.723 120.359 201.757 121.105 201.597 121.805C201.398 122.675 201.2 123.547 201.04 124.424C200.771 125.763 200.663 127.129 200.719 128.493C200.72 128.708 200.761 128.921 200.841 129.12C200.916 129.282 201.035 129.421 201.105 129.588C201.157 129.734 201.179 129.889 201.168 130.044C201.157 130.199 201.114 130.35 201.042 130.487C200.926 130.744 200.769 130.981 200.577 131.189C198.475 131.814 196.227 131.609 194.037 131.742C192.019 131.863 189.978 132.277 187.988 131.933C187.763 131.033 188.14 130.091 188.462 129.215C189.398 126.667 190.433 124.015 190.266 121.346C190.249 121.035 190.213 120.725 190.16 120.417C189.833 118.527 190.19 116.569 190.76 114.736C191.114 113.594 191.098 112.378 191.017 111.189C190.977 110.802 190.972 110.413 191.001 110.026C191.034 109.631 191.181 109.254 191.425 108.94C191.425 108.925 191.446 108.909 191.457 108.893C191.468 108.877 191.556 108.88 191.626 108.893C191.644 108.901 191.663 108.905 191.683 108.905C191.702 108.905 191.721 108.901 191.739 108.893L191.764 108.877C191.773 108.871 191.785 108.867 191.796 108.867C191.808 108.867 191.82 108.871 191.829 108.877C191.881 108.909 191.91 109.017 192.023 109.037C192.19 109.062 192.358 109.078 192.526 109.084C192.729 109.09 192.93 109.119 193.126 109.17H193.153C193.446 109.219 193.747 109.194 194.028 109.096C194.215 109.049 194.395 108.98 194.565 108.889C194.614 108.835 194.926 108.785 194.989 108.747C195.194 108.623 195.149 108.043 195.192 107.805C195.215 107.566 195.272 107.331 195.361 107.108C195.464 106.943 195.605 106.806 195.774 106.708C195.942 106.611 196.132 106.556 196.326 106.548C196.714 106.539 197.103 106.574 197.483 106.652C198.324 106.771 199.186 106.751 200.011 106.944C200.426 107.041 200.879 107.187 201.261 106.998C201.364 107.023 201.38 107.113 201.38 107.223C201.37 107.327 201.349 107.431 201.317 107.531C201.173 108.151 201.662 108.722 202.113 109.172C202.304 109.384 202.528 109.563 202.778 109.7C203.004 109.804 203.229 109.846 203.455 109.959C203.638 110.056 203.793 110.198 203.906 110.37C204.036 110.568 204.124 110.791 204.163 111.024C204.211 111.459 204.186 111.899 204.089 112.326Z" fill="#3F3D56"/>
<path opacity="0.1" d="M204.088 112.326C203.804 114.057 203.341 115.755 202.708 117.391C202.39 118.13 202.119 118.889 201.896 119.662C201.723 120.359 201.756 121.105 201.596 121.805C201.398 122.675 201.199 123.547 201.039 124.424C200.992 124.451 200.942 124.475 200.893 124.498C200.612 124.632 200.315 124.727 200.009 124.781C199.459 124.848 198.902 124.829 198.358 124.727L195.14 124.298C193.854 124.125 192.485 123.916 191.531 123.048C191.001 122.571 190.654 121.942 190.273 121.335C190.255 121.023 190.22 120.713 190.167 120.406C189.84 118.515 190.196 116.557 190.767 114.725C191.121 113.583 191.105 112.367 191.024 111.177C190.984 110.791 190.978 110.402 191.008 110.015C191.041 109.62 191.188 109.242 191.432 108.929C191.498 108.91 191.565 108.895 191.633 108.884V108.884C191.678 108.875 191.724 108.869 191.77 108.866H191.836C191.912 108.866 191.987 108.876 192.061 108.893C192.215 108.942 192.365 109 192.512 109.066H192.539C192.733 109.13 192.936 109.159 193.139 109.152C193.437 109.152 193.744 109.105 194.041 109.084C194.409 109.027 194.785 109.094 195.11 109.275C195.32 109.443 195.519 109.624 195.706 109.817C195.931 109.994 196.185 110.131 196.457 110.224C198.398 110.963 200.552 110.918 202.46 110.098C202.643 109.994 202.851 109.942 203.062 109.945C203.218 109.976 203.366 110.039 203.495 110.13C203.631 110.208 203.764 110.285 203.901 110.355C204.031 110.553 204.119 110.775 204.158 111.009C204.21 111.449 204.186 111.894 204.088 112.326V112.326Z" fill="black"/>
<path d="M206.053 110.839C205.155 110.565 204.292 110.188 203.482 109.715C203.352 109.624 203.204 109.561 203.049 109.53C202.837 109.528 202.629 109.58 202.444 109.683C200.537 110.502 198.384 110.548 196.443 109.809C196.172 109.715 195.918 109.578 195.692 109.402C195.505 109.21 195.306 109.029 195.097 108.86C194.355 108.381 193.329 108.943 192.499 108.635C192.352 108.57 192.201 108.512 192.048 108.462C191.391 108.298 190.724 108.95 190.079 108.752C189.839 109.403 189.661 110.074 189.549 110.758C189.457 111.543 189.408 112.332 189.402 113.123C189.402 113.597 189.38 114.072 189.402 114.546C189.482 114.559 189.558 114.588 189.625 114.632C189.693 114.676 189.75 114.733 189.795 114.8C189.824 114.878 189.836 114.962 189.83 115.046C189.824 115.129 189.8 115.21 189.759 115.283C189.287 116.491 188.809 117.711 188.094 118.793C188.598 119.092 189.066 119.448 189.488 119.854C190.277 120.686 190.665 121.853 191.518 122.621C192.478 123.487 193.847 123.698 195.126 123.869L198.344 124.299C198.889 124.4 199.447 124.419 199.997 124.355C200.303 124.299 200.599 124.203 200.879 124.069C201.062 123.993 201.229 123.883 201.371 123.746C201.49 123.611 201.588 123.459 201.662 123.296C201.917 122.788 202.149 122.268 202.363 121.742C202.438 121.556 202.55 121.338 202.753 121.322C203.949 120.247 205.076 119.146 206.272 118.071C206.752 117.674 207.183 117.221 207.555 116.722C208.148 115.848 207.609 114.609 207.555 113.552C207.548 113.282 207.514 113.013 207.453 112.75C207.259 111.983 206.804 111.066 206.053 110.839Z" fill="#6C63FF"/>
<path opacity="0.1" d="M186.906 106.34C186.725 106.699 186.292 106.872 185.959 107.099L184.815 107.882C184.739 107.95 184.649 108.003 184.552 108.036C184.455 108.069 184.352 108.083 184.249 108.075C184.156 108.041 184.071 107.988 183.998 107.921C183.926 107.853 183.868 107.772 183.827 107.682C183.827 107.63 183.827 107.574 183.827 107.52C183.819 107.338 183.843 107.156 183.9 106.983C184.012 106.728 184.185 106.506 184.405 106.335C184.829 105.934 185.334 105.628 185.886 105.436C185.973 105.402 186.066 105.393 186.157 105.409C186.192 105.418 186.226 105.432 186.256 105.452C186.337 105.539 186.405 105.638 186.459 105.744C186.549 105.928 186.998 106.155 186.906 106.34Z" fill="black"/>
<path d="M189.598 108.709C189.215 108.691 188.901 108.415 188.622 108.152L187.767 107.36C187.71 107.312 187.66 107.256 187.618 107.194C187.572 107.107 187.537 107.014 187.514 106.917C187.333 106.463 187.049 106.057 186.685 105.73C186.621 105.65 186.536 105.589 186.439 105.555C186.347 105.538 186.252 105.548 186.166 105.582C185.614 105.774 185.109 106.08 184.684 106.481C184.465 106.652 184.291 106.875 184.179 107.129C184.122 107.302 184.098 107.484 184.107 107.666C184.112 108.26 184.246 108.846 184.499 109.384C184.538 109.467 184.58 109.55 184.626 109.631C184.926 110.127 185.282 110.588 185.685 111.005L186.222 111.603C186.75 112.192 187.278 112.781 187.851 113.323C188.056 113.541 188.305 113.714 188.581 113.831C188.72 113.887 188.872 113.904 189.02 113.881C189.168 113.857 189.306 113.793 189.42 113.696C189.528 113.571 189.61 113.426 189.659 113.269C190.007 112.369 190.336 111.434 190.356 110.465C190.361 110.077 190.344 109.689 190.306 109.303C190.273 108.894 189.982 108.734 189.598 108.709Z" fill="#6C63FF"/>
<path d="M203.265 140.184C203.252 142.446 203.091 144.704 202.783 146.945C202.738 147.306 202.688 147.668 202.663 148.03C202.589 149.08 202.711 150.135 202.611 151.178C202.56 151.742 202.442 152.302 202.343 152.853C201.902 155.311 201.773 157.815 201.96 160.306C202.271 164.449 201.317 168.595 201.75 172.727C201.802 173.53 201.758 174.337 201.617 175.13C201.536 175.622 201.419 176.108 201.267 176.582C200.938 177.708 200.607 178.832 200.275 179.955C200.236 180.126 200.159 180.285 200.049 180.422C199.934 180.522 199.799 180.595 199.654 180.638C199.508 180.681 199.354 180.693 199.204 180.672C197.902 180.631 196.678 180.072 195.496 179.525C195.36 179.472 195.234 179.396 195.124 179.301C194.878 179.047 194.898 178.646 194.79 178.311C194.682 177.976 194.389 177.662 194.222 177.318C194.085 176.992 194.002 176.647 193.976 176.295C193.826 175.144 193.723 173.988 193.669 172.828C193.584 171.196 194.666 169.694 195.023 168.107C195.699 164.986 195.126 161.641 196.328 158.68C196.707 157.745 196.157 156.612 196.103 155.605C196.083 154.955 195.999 154.309 195.85 153.676C195.625 152.83 195.149 152.034 195.115 151.158C195.09 150.524 195.295 149.905 195.401 149.28C195.542 148.361 195.529 147.424 195.363 146.508C195.244 145.753 195.061 144.998 194.878 144.26L194.838 144.343C194.288 145.414 193.816 146.522 193.424 147.659C193.243 148.21 193.085 148.772 192.86 149.307C192.675 149.757 192.447 150.168 192.224 150.591C191.423 152.082 190.726 153.625 190.138 155.211C189.858 155.989 189.612 156.785 189.369 157.565L187.697 162.961C187.246 164.379 186.753 165.751 186.311 167.167C185.686 169.19 185.061 171.196 184.335 173.174C183.658 175.051 182.853 176.996 183.095 178.979C182.473 179.27 181.79 179.408 181.103 179.381C179.941 179.279 178.8 179.003 177.72 178.563C177.29 178.404 176.843 178.224 176.552 177.871C176.051 177.261 176.175 176.369 176.327 175.593C176.383 175.244 176.474 174.9 176.597 174.568C176.769 174.154 177.048 173.788 177.224 173.379C177.578 172.594 177.601 171.706 177.741 170.854C177.88 170.002 178.192 169.103 178.922 168.64C179.046 167.142 179.664 165.665 180.005 164.202C180.262 163.093 180.348 161.953 180.551 160.829C180.754 159.705 181.081 158.581 181.762 157.671C181.708 156.732 181.921 155.797 182.375 154.973C182.485 154.792 182.575 154.6 182.643 154.4C182.686 154.204 182.71 154.006 182.716 153.806C182.79 153.025 183.125 152.291 183.667 151.722C183.442 150.901 183.755 150.045 184.037 149.249C184.392 148.233 184.553 147.16 184.511 146.086C184.476 145.786 184.49 145.482 184.554 145.186C184.617 144.962 184.741 144.771 184.813 144.555C184.877 144.29 184.911 144.02 184.915 143.748C185.002 142.531 185.496 141.385 186.042 140.299C186.367 139.665 186.092 138.804 186.159 138.098C186.277 136.924 186.405 135.71 186.989 134.687C187.098 134.494 187.215 134.31 187.312 134.11C187.429 133.824 187.493 133.519 187.499 133.21C187.519 132.695 187.591 132.268 187.407 131.789C188.613 130.789 190.259 130.508 191.829 130.44C193.399 130.373 194.986 130.515 196.522 130.182C196.973 130.081 197.424 129.941 197.9 129.874C198.98 129.717 200.077 129.962 201.143 130.204C201.069 130.879 201.317 131.526 201.594 132.154C202.677 134.694 203.245 137.424 203.265 140.184V140.184Z" fill="#33313F"/>
<path opacity="0.1" d="M197.954 140.699L195.363 146.509C195.243 145.753 195.061 144.998 194.878 144.26L194.837 144.344V144.222L196.249 141.126L197.954 140.699Z" fill="black"/>
<path opacity="0.1" d="M205.719 128.563C205.569 128.675 205.391 128.741 205.205 128.755C204.919 128.765 204.634 128.726 204.361 128.64L202.331 128.134C202.268 128.118 202.206 128.097 202.146 128.069C202.18 127.716 202.248 127.307 202.44 127.17C202.726 126.978 203.583 127.235 203.908 127.28C204.467 127.356 205.035 127.446 205.581 127.552C205.666 127.883 205.712 128.222 205.719 128.563V128.563Z" fill="black"/>
<path d="M207.435 115.186C207.478 115.373 207.539 115.557 207.575 115.746C207.636 116.21 207.62 116.68 207.528 117.138L207.343 118.424L207.158 119.717L206.443 124.692L206.267 125.924L206.019 127.644C206.007 127.787 205.97 127.927 205.91 128.057C205.837 128.18 205.733 128.282 205.61 128.354C205.487 128.427 205.348 128.468 205.205 128.473C204.919 128.482 204.634 128.444 204.361 128.359L202.331 127.851C202.242 127.835 202.158 127.8 202.083 127.749C202.021 127.689 201.977 127.613 201.954 127.53C201.931 127.446 201.93 127.359 201.953 127.275C201.982 127.104 202.056 126.945 202.081 126.774C202.131 126.441 201.991 126.099 202.04 125.769C202.089 125.558 202.165 125.355 202.266 125.164C202.943 123.673 202.55 121.933 202.78 120.315C202.987 119.041 203.527 117.843 204.345 116.843C204.85 116.212 205.43 115.644 206.073 115.153C206.325 114.957 206.727 114.555 207.045 114.478C207.453 114.393 207.367 114.903 207.435 115.186Z" fill="#6C63FF"/>
<path d="M192.075 95.82C191.926 96.2921 192.158 96.8114 192.052 97.2925C191.937 97.8231 191.437 98.1918 191.295 98.7246C191.069 99.5362 191.759 100.276 192.264 100.95C194.136 103.455 193.89 106.922 193.25 109.977C192.734 112.428 192.022 114.834 191.119 117.171C190.837 117.897 190.525 118.635 189.971 119.179C191.008 118.882 192.111 118.583 193.151 118.871C194.468 119.235 195.604 120.51 196.939 120.22C197.742 120.042 198.306 119.332 199.028 118.938C200.381 118.212 202.011 118.668 203.52 118.902C203.845 118.979 204.186 118.961 204.501 118.853C204.743 118.723 204.947 118.535 205.097 118.306C205.77 117.445 206.173 116.405 206.256 115.316C206.291 114.774 206.211 114.231 206.02 113.722C205.829 113.213 205.532 112.75 205.148 112.364C204.828 112.063 204.445 111.82 204.199 111.465C203.96 111.05 203.832 110.581 203.827 110.103C203.649 107.63 204.253 105.105 203.631 102.713C203.405 101.861 203.038 101.045 202.938 100.172C202.814 99.0866 203.11 97.9243 202.677 96.9306C202.336 96.1415 201.585 95.5817 200.776 95.2939C199.966 95.0061 199.1 94.9252 198.241 94.8442C197.005 94.7408 192.591 94.2125 192.075 95.82Z" fill="#33313F"/>
<g opacity="0.1">
<path opacity="0.1" d="M193.25 109.977C192.737 112.419 192.028 114.815 191.13 117.142C191.285 116.834 191.416 116.511 191.54 116.189C192.445 113.852 193.157 111.446 193.672 108.995C194.314 105.937 194.56 102.475 192.688 99.9684C192.237 99.3704 191.658 98.7229 191.678 98.0215C191.511 98.2336 191.382 98.4723 191.295 98.7274C191.069 99.539 191.759 100.279 192.264 100.953C194.136 103.455 193.89 106.922 193.25 109.977Z" fill="black"/>
<path opacity="0.1" d="M192.079 97.066C192.26 96.8419 192.395 96.5845 192.476 96.3084C192.511 95.9744 192.502 95.6373 192.449 95.3057C192.275 95.436 192.145 95.6154 192.075 95.8205C191.942 96.2184 192.095 96.6501 192.079 97.066Z" fill="black"/>
<path opacity="0.1" d="M205.521 117.317C205.371 117.546 205.166 117.733 204.925 117.862C204.61 117.973 204.269 117.99 203.944 117.911C202.435 117.686 200.787 117.223 199.452 117.949C198.728 118.34 198.166 119.051 197.361 119.231C196.028 119.527 194.892 118.253 193.575 117.882C192.641 117.623 191.658 117.837 190.717 118.107C190.53 118.504 190.278 118.867 189.971 119.181C191.008 118.884 192.111 118.585 193.151 118.873C194.468 119.237 195.604 120.512 196.939 120.222C197.742 120.045 198.306 119.334 199.028 118.941C200.381 118.214 202.011 118.671 203.52 118.905C203.845 118.981 204.186 118.964 204.501 118.855C204.743 118.726 204.947 118.538 205.097 118.309C205.505 117.771 205.821 117.17 206.03 116.528C205.88 116.803 205.709 117.067 205.521 117.317Z" fill="black"/>
</g>
</g>
<defs>
<linearGradient id="paint0_linear_1113_4786" x1="173.338" y1="137.684" x2="207.844" y2="137.684" gradientUnits="userSpaceOnUse">
<stop stop-color="#808080" stop-opacity="0.25"/>
<stop offset="0.54" stop-color="#808080" stop-opacity="0.12"/>
<stop offset="1" stop-color="#808080" stop-opacity="0.1"/>
</linearGradient>
<clipPath id="clip0_1113_4786">
<rect width="263" height="181" fill="white"/>
</clipPath>
</defs>
</svg>

