<svg width="66" height="99" viewBox="0 0 66 99" fill="none" xmlns="http://www.w3.org/2000/svg">
    <path d="M40.4254 19.2H22.6091C20.6871 19.2 19.1235 20.7635 19.1235 22.6856V32.5934C19.1235 34.5155 20.6871 36.079 22.6091 36.079H24.7127L24.6971 39.8971C24.6956 40.2348 24.9068 40.5361 25.2245 40.6499C25.3122 40.6811 25.403 40.6967 25.493 40.6967C25.728 40.6967 25.9564 40.5926 26.1104 40.4037L29.6361 36.079H40.4262C42.3482 36.079 43.9118 34.5155 43.9118 32.5934V22.6856C43.911 20.7635 42.3475 19.2 40.4254 19.2Z" fill="white"/>
    <path d="M23.7209 98.6724C23.195 98.6724 22.8052 98.6225 22.7025 98.6084C18.4887 98.0632 17.3417 96.9132 17.0903 96.574L17.0152 96.458L10.6011 84.9271C10.4948 84.7463 10.2872 84.297 10.4233 83.7325C10.5014 83.4074 10.7216 82.9485 11.3249 82.6033L11.4082 82.5602L13.8896 81.4162C16.1821 80.3592 18.7178 78.8946 21.4269 77.0618L26.8531 83.673C25.0382 84.9256 23.2879 86.0309 21.5221 87.0388L22.855 89.4354C23.0499 89.7211 23.2396 89.8222 23.3088 89.852L23.407 89.8564L23.4055 89.8795L25.3134 90.4404L25.4086 90.4902C25.5098 90.5437 27.8766 91.8328 27.9451 95.3378C27.9786 96.2794 27.6565 97.0843 27.0123 97.6652C26.081 98.508 24.6774 98.6724 23.7209 98.6724Z" fill="#20CE88"/>
    <path d="M49.6718 96.737C49.0254 96.737 48.3724 96.5384 47.8368 96.2096C45.4885 94.7673 41.5507 91.484 35.7993 86.1731C31.8369 82.5142 28.1773 78.8701 27.6811 78.3755C26.3363 77.1615 19.5897 70.9133 13.2753 62.2023C9.53682 57.0453 6.59422 51.9225 4.52785 46.9768C1.8984 40.6832 0.668101 34.6135 0.871167 28.9366C1.08837 22.8558 2.54628 17.5649 5.20548 13.212C7.46004 9.52106 10.5581 6.52044 14.4134 4.29489C21.3169 0.309434 28.6749 0 30.7658 0C32.8575 0 40.2185 0.309434 47.1264 4.29415C50.9847 6.5197 54.085 9.51958 56.3418 13.2105C59.0032 17.5641 60.4626 22.855 60.6798 28.9366C60.9945 37.751 57.8964 47.3606 51.4712 57.4998C47.4842 63.7904 42.8762 69.1653 39.7119 72.5654L33.251 67.0104C40.5428 59.2456 52.6963 44.0141 52.1681 29.2401C51.4637 9.51586 34.2165 8.51689 30.7666 8.51689C27.3196 8.51689 10.0887 9.51586 9.38359 29.2401C9.09201 37.3955 12.8231 47.0646 20.1721 57.203C26.0707 65.3405 32.2743 71.0524 33.4585 72.1154L33.6303 72.2783C33.7843 72.4323 37.4016 76.0495 41.3907 79.7426C45.7466 83.7742 48.2191 85.7483 49.555 86.7057L55.5667 79.4615C56.2949 77.8622 58.5443 75.2551 62.3981 75.8911C64.3521 76.2124 65.5259 77.0157 65.8867 78.2773C66.6007 80.7728 63.4826 83.7169 62.7544 84.3618L51.6549 95.8838C51.1208 96.4848 50.4008 96.737 49.6718 96.737Z" fill="#20CE88"/>
</svg>

