<svg width="131" height="104" viewBox="0 0 131 104" fill="none" xmlns="http://www.w3.org/2000/svg">
<g clip-path="url(#clip0)">
<path d="M85.4837 99.8218C85.187 99.8213 84.8906 99.8035 84.596 99.7684C80.9028 99.2873 79.8907 98.2717 79.6777 97.9866L79.6067 97.8797L73.987 87.7327C73.8006 87.4161 73.7434 87.0395 73.8272 86.6815C73.8835 86.4696 73.9827 86.2716 74.1187 86.1C74.2546 85.9283 74.4244 85.7866 74.6174 85.6837H74.6973L76.8723 84.6325C79.1628 83.536 81.3626 82.258 83.4507 80.8107L88.2092 86.628C86.6201 87.7327 85.0842 88.7038 83.5306 89.5857L84.7025 91.6971C84.7984 91.8544 84.937 91.9811 85.102 92.0623H85.2263L86.9042 92.5523H86.9841C87.694 93.0069 88.2732 93.6399 88.6641 94.3884C89.0549 95.137 89.244 95.9751 89.2124 96.8196C89.2361 97.2005 89.1751 97.582 89.0339 97.9364C88.8926 98.2907 88.6746 98.6092 88.3956 98.8686C87.5684 99.523 86.5363 99.8608 85.4837 99.8218Z" fill="#001968"/>
<path d="M108.238 98.1203C107.67 98.1134 107.115 97.9534 106.631 97.657C104.571 96.392 101.118 93.4967 96.075 88.8285C92.6038 85.6125 89.3901 82.4053 88.9728 81.9688C84.3137 77.6368 80.0857 72.86 76.3487 67.706C73.2895 63.5617 70.7158 59.0779 68.6783 54.343C66.4831 49.3477 65.3899 43.9354 65.4735 38.4766C65.5151 33.6147 66.8153 28.8471 69.2465 24.6414C71.2366 21.3864 74.012 18.6871 77.3164 16.7929C81.6937 14.3169 86.6335 13.0161 91.6584 13.0161C96.6832 13.0161 101.623 14.3169 106 16.7929C109.311 18.6819 112.09 21.3821 114.079 24.6414C116.515 28.8463 117.825 33.6129 117.879 38.4766C118.154 46.2272 115.437 54.6815 109.809 63.5991C106.774 68.3201 103.322 72.7568 99.493 76.8552L93.829 71.9733C100.221 65.1403 110.883 51.7416 110.413 38.7439C109.809 21.3808 94.6901 20.49 91.6628 20.49C88.6355 20.49 73.5344 21.3808 72.9219 38.7439C72.6644 45.8708 75.9314 54.4232 82.3767 63.3407C85.8163 68.0914 89.7181 72.4872 94.0243 76.4632L94.1752 76.6058C94.3084 76.7394 97.4777 79.9198 100.976 83.1715C103.24 85.3492 105.629 87.3928 108.131 89.2918L113.404 82.9221C113.915 81.8062 114.781 80.8924 115.866 80.3246C116.951 79.7569 118.193 79.5675 119.397 79.7862C121.11 80.0624 122.131 80.7751 122.451 81.8797C123.081 84.0802 120.347 86.6637 119.708 87.2249L109.942 97.363C109.727 97.6025 109.464 97.7938 109.17 97.9243C108.877 98.0548 108.559 98.1216 108.238 98.1203Z" fill="#001968"/>
<path d="M86.1141 46.1915C85.0975 46.1915 84.1036 45.889 83.2583 45.3222C82.413 44.7554 81.7542 43.9498 81.3652 43.0073C80.9761 42.0648 80.8743 41.0277 81.0726 40.0271C81.271 39.0265 81.7605 38.1074 82.4794 37.386C83.1983 36.6646 84.1142 36.1734 85.1113 35.9744C86.1084 35.7753 87.1419 35.8775 88.0812 36.2679C89.0204 36.6583 89.8232 37.3194 90.388 38.1677C90.9528 39.0159 91.2543 40.0132 91.2543 41.0334C91.252 42.4007 90.7096 43.7113 89.7462 44.6781C88.7827 45.6449 87.4766 46.1891 86.1141 46.1915ZM86.1141 37.755C85.4658 37.755 84.8321 37.948 84.2932 38.3096C83.7543 38.6712 83.3344 39.1852 83.0867 39.7864C82.839 40.3875 82.7747 41.049 82.9018 41.6869C83.0289 42.3248 83.3418 42.9105 83.8009 43.3699C84.2599 43.8293 84.8444 44.1417 85.4805 44.2675C86.1165 44.3933 86.7755 44.327 87.3739 44.0768C87.9723 43.8266 88.4833 43.4039 88.8422 42.8621C89.2011 42.3204 89.3917 41.6839 89.39 41.0334C89.39 40.6021 89.3052 40.1751 89.1404 39.7767C88.9757 39.3784 88.7343 39.0166 88.43 38.712C88.1257 38.4075 87.7645 38.1662 87.3671 38.002C86.9697 37.8377 86.5439 37.7538 86.1141 37.755Z" fill="#001968"/>
<path d="M100.097 44.3207C99.0785 44.3207 98.0833 44.0173 97.2372 43.4489C96.3912 42.8805 95.7324 42.0728 95.3444 41.1282C94.9564 40.1836 94.8567 39.1446 95.0579 38.1431C95.2592 37.1416 95.7523 36.2226 96.4747 35.5026C97.1971 34.7827 98.1163 34.2942 99.1158 34.0993C100.115 33.9043 101.15 34.0115 102.088 34.4074C103.027 34.8033 103.827 35.4699 104.388 36.3229C104.948 37.1758 105.244 38.1766 105.237 39.1982C105.225 40.5593 104.679 41.8608 103.716 42.82C102.754 43.7791 101.453 44.3184 100.097 44.3207ZM100.097 35.8753C99.4502 35.8753 98.8183 36.0672 98.2804 36.4269C97.7425 36.7866 97.3226 37.2979 97.0737 37.8965C96.8247 38.4951 96.7578 39.1542 96.8813 39.7909C97.0049 40.4276 97.3134 41.0134 97.768 41.4745C98.2226 41.9356 98.8029 42.2515 99.4361 42.3823C100.069 42.5132 100.727 42.4531 101.326 42.2098C101.925 41.9664 102.439 41.5506 102.803 41.0147C103.167 40.4789 103.366 39.8468 103.373 39.1982C103.377 38.7635 103.296 38.3322 103.133 37.9293C102.971 37.5263 102.73 37.1597 102.426 36.8507C102.121 36.5416 101.758 36.2963 101.359 36.1289C100.959 35.9615 100.53 35.8753 100.097 35.8753Z" fill="#001968"/>
<path d="M90.2866 41.5056C90.1421 41.5037 89.9997 41.4703 89.8694 41.4076C89.6472 41.2949 89.4786 41.0986 89.4004 40.8615C89.3222 40.6244 89.3408 40.3659 89.4521 40.1426C89.7476 39.5089 90.1902 38.9555 90.7428 38.529C91.2955 38.1025 91.942 37.8152 92.6282 37.6913C93.3143 37.5674 94.0201 37.6104 94.6863 37.8168C95.3524 38.0232 95.9595 38.387 96.4566 38.8775C96.6544 39.0276 96.7847 39.2503 96.8188 39.4967C96.853 39.7431 96.7882 39.9931 96.6386 40.1916C96.4891 40.39 96.2672 40.5208 96.0216 40.555C95.776 40.5893 95.5269 40.5242 95.3292 40.3742C94.9936 40.0626 94.5936 39.8292 94.1578 39.6907C93.722 39.5521 93.261 39.5117 92.8079 39.5724C92.085 39.8093 91.4809 40.3166 91.1211 40.9889C91.048 41.1477 90.9298 41.2815 90.7814 41.3733C90.633 41.4652 90.4609 41.5112 90.2866 41.5056Z" fill="#001968"/>
<path d="M129.073 98.245C128.578 98.245 128.103 98.0482 127.752 97.6976C127.401 97.347 127.203 96.8712 127.2 96.3742V55.1002C127.192 54.9995 127.192 54.8981 127.2 54.7973C127.344 53.8655 127.138 52.9134 126.623 52.1247C126.326 51.8421 125.971 51.6274 125.584 51.4951C125.196 51.3629 124.784 51.3163 124.377 51.3586C120.524 51.3586 119.752 55.0201 119.672 55.4299C119.631 55.6726 119.543 55.9049 119.413 56.1135C119.283 56.3221 119.113 56.503 118.913 56.6457C118.713 56.7884 118.487 56.8901 118.248 56.9452C118.009 57.0003 117.761 57.0076 117.519 56.9666C117.031 56.8839 116.595 56.6098 116.308 56.2047C116.165 56.0041 116.064 55.7773 116.009 55.5374C115.954 55.2974 115.947 55.049 115.988 54.8062C116.405 52.3118 118.651 47.608 124.377 47.608C125.331 47.5497 126.285 47.7085 127.169 48.0726C128.053 48.4367 128.844 48.9966 129.482 49.7105C130.078 50.4883 130.514 51.3769 130.765 52.325C131.017 53.2731 131.078 54.2617 130.947 55.2339V96.3742C130.944 96.8712 130.746 97.347 130.395 97.6976C130.044 98.0482 129.569 98.245 129.073 98.245Z" fill="#001968"/>
<path d="M105.033 7.82183L68.0835 14.2094L69.1843 5.51448L101.091 0L105.033 7.82183Z" fill="#20CE88"/>
<path d="M113.023 12.8196L62.2241 21.5947L64.7987 15.8397L108.672 8.25836L113.023 12.8196Z" fill="#20CE88"/>
<path d="M100.425 48.9978C99.0078 50.3052 97.1934 51.0961 95.2739 51.2431C93.3544 51.3902 91.4414 50.8849 89.8428 49.8085" fill="white"/>
<path d="M94.5656 52.1693C92.7114 52.1469 90.9038 51.5836 89.3633 50.5479C89.1643 50.4203 89.024 50.2186 88.9732 49.9872C88.9224 49.7558 88.9654 49.5137 89.0925 49.314C89.2196 49.1144 89.4206 48.9736 89.6512 48.9226C89.8818 48.8717 90.1231 48.9147 90.3221 49.0423C91.7494 50.0166 93.4635 50.4774 95.1851 50.3496C96.9067 50.2218 98.5345 49.513 99.8035 48.3385C99.973 48.1743 100.201 48.0844 100.436 48.0886C100.672 48.0928 100.896 48.1907 101.06 48.3608C101.223 48.5309 101.313 48.7593 101.309 48.9957C101.305 49.2321 101.207 49.4572 101.038 49.6214C99.2469 51.2095 96.9547 52.1119 94.5656 52.1693Z" fill="#001968"/>
<path d="M54.6157 60.0356C58.5228 61.3242 61.8875 63.8882 64.1734 67.319C66.4593 70.7498 67.5348 74.8498 67.2284 78.9654C66.9219 83.0809 65.2512 86.975 62.4826 90.0268C59.714 93.0787 56.0069 95.1125 51.9524 95.804" fill="white"/>
<path d="M51.9435 97.8441C51.4383 97.8342 50.9547 97.6367 50.5862 97.2897C50.2176 96.9428 49.9904 96.471 49.9485 95.9656C49.9065 95.4603 50.0528 94.9573 50.359 94.5539C50.6652 94.1505 51.1096 93.8754 51.6062 93.7817C55.2122 93.1681 58.5095 91.3604 60.9722 88.6469C63.435 85.9334 64.9213 82.4705 65.194 78.8105C65.4668 75.1506 64.5104 71.5043 62.4772 68.4535C60.4441 65.4026 57.4514 63.1228 53.9765 61.9777C53.4933 61.7844 53.1018 61.4133 52.8819 60.9401C52.6621 60.467 52.6305 59.9275 52.7937 59.4317C52.9568 58.936 53.3024 58.5215 53.7598 58.2728C54.2172 58.0241 54.752 57.96 55.2549 58.0935C59.616 59.5036 63.3778 62.3445 65.9352 66.1595C68.4926 69.9745 69.6971 74.5417 69.3548 79.1267C69.0126 83.7117 67.1436 88.0479 64.0483 91.438C60.9531 94.8281 56.8115 97.075 52.2898 97.8174C52.1752 97.8351 52.0595 97.8441 51.9435 97.8441Z" fill="#001968"/>
<path d="M66.8848 83.9554C66.5829 82.9131 65.6241 82.2539 64.0173 81.9599C62.8895 81.7547 61.7257 81.9323 60.7097 82.4646C59.6937 82.997 58.8833 83.8538 58.4065 84.8997L53.4705 90.8686C51.1293 89.0857 48.8915 87.1702 46.7678 85.1314C43.4919 82.0935 40.5534 79.1091 40.3936 78.9844L40.2604 78.8507C36.2301 75.1352 32.5754 71.0291 29.3497 66.5924C23.3128 58.236 20.25 50.2717 20.4719 43.5545C21.049 27.2962 35.2001 26.4766 38.0321 26.4766C40.8641 26.4766 55.0419 27.2962 55.6189 43.5545C56.0539 55.7238 46.0754 68.2761 40.0829 74.6726L40.145 74.726C40.4735 75.0556 42.8971 77.4788 45.5249 79.9109C48.0017 82.3508 50.674 84.5825 53.5149 86.5835C53.8795 86.8134 54.3006 86.9367 54.7312 86.9398C54.9718 86.948 55.2115 86.9055 55.4348 86.8149C55.658 86.7244 55.8599 86.5879 56.0273 86.4142L63.3781 78.7528C63.8664 78.3251 65.926 76.3652 65.4555 74.7082C65.2158 73.8619 64.4434 73.3274 63.1473 73.1135C62.2366 72.9411 61.2947 73.0778 60.4701 73.5021C59.6455 73.9263 58.985 74.6139 58.593 75.4565L54.6069 80.2761C52.7174 78.8376 50.9122 77.2909 49.2003 75.6436L48.8275 75.2962C51.0801 72.6074 53.1559 69.7744 55.0419 66.8151C60.3685 58.4588 62.8632 50.5478 62.6057 43.2784C62.5571 38.7253 61.3336 34.2625 59.0546 30.3251C57.1864 27.283 54.5852 24.7616 51.4908 22.9933C47.3764 20.7082 42.761 19.4837 38.0587 19.4298C33.356 19.4796 28.7396 20.7043 24.6267 22.9933C21.5293 24.7584 18.9297 27.2844 17.0718 30.334C14.7927 34.2714 13.5693 38.7342 13.5207 43.2873C13.4388 48.4028 14.4625 53.4754 16.5213 58.1559C18.4276 62.5998 20.8375 66.8087 23.7034 70.6993C27.2003 75.5174 31.1546 79.9837 35.5108 84.0356C35.9192 84.4365 38.9288 87.4387 42.178 90.4588C46.901 94.8329 50.168 97.5412 52.059 98.726C52.5141 99.0042 53.0353 99.1549 53.5682 99.1625C53.8737 99.1707 54.1772 99.1119 54.4578 98.9904C54.7384 98.8688 54.9892 98.6874 55.1928 98.4588L64.3102 88.9621C64.905 88.4365 67.4707 86.0044 66.8848 83.9554Z" fill="#001968"/>
<path d="M40.7665 55.9733C39.0574 55.9528 37.3915 55.4327 35.9725 54.4766C35.8206 54.3798 35.7133 54.2263 35.6742 54.0501C35.6351 53.8738 35.6673 53.6892 35.7639 53.5368C35.8604 53.3844 36.0133 53.2767 36.1889 53.2374C36.3646 53.1982 36.5486 53.2306 36.7005 53.3274C38.0674 54.2576 39.7074 54.6969 41.3545 54.574C43.0015 54.4511 44.5588 53.7732 45.7735 52.6504C45.9059 52.5412 46.0744 52.486 46.2455 52.4956C46.4166 52.5052 46.5779 52.5789 46.6974 52.7022C46.8168 52.8254 46.8858 52.9892 46.8907 53.1611C46.8955 53.333 46.8358 53.5005 46.7234 53.6303C45.073 55.0881 42.9645 55.9175 40.7665 55.9733Z" fill="#001968"/>
<path d="M28.0802 101.96C38.2491 101.96 46.4926 93.6877 46.4926 83.4833C46.4926 73.279 38.2491 65.0067 28.0802 65.0067C17.9113 65.0067 9.66772 73.279 9.66772 83.4833C9.66772 93.6877 17.9113 101.96 28.0802 101.96Z" fill="white"/>
<path d="M28.0802 104C24.0417 104 20.094 102.798 16.7361 100.547C13.3783 98.2953 10.7611 95.0952 9.21568 91.3512C7.67022 87.6071 7.26586 83.4873 8.05373 79.5126C8.84159 75.5379 10.7863 71.887 13.6419 69.0214C16.4975 66.1558 20.1358 64.2043 24.0967 63.4137C28.0575 62.6231 32.1631 63.0289 35.8941 64.5797C39.6252 66.1306 42.8142 68.7568 45.0578 72.1264C47.3015 75.4959 48.499 79.4575 48.499 83.51C48.4873 88.9407 46.3323 94.1455 42.5055 97.9856C38.6788 101.826 33.492 103.988 28.0802 104ZM28.0802 67.0557C24.8424 67.0557 21.6773 68.0191 18.9852 69.8242C16.2931 71.6293 14.1948 74.195 12.9558 77.1967C11.7167 80.1985 11.3925 83.5015 12.0242 86.6882C12.6559 89.8748 14.215 92.8019 16.5045 95.0994C18.7939 97.3968 21.7109 98.9614 24.8865 99.5952C28.062 100.229 31.3536 99.9038 34.3449 98.6604C37.3363 97.417 39.893 95.3115 41.6918 92.61C43.4906 89.9085 44.4508 86.7324 44.4508 83.4833C44.4461 79.1279 42.7198 74.9522 39.6507 71.8724C36.5817 68.7927 32.4205 67.0604 28.0802 67.0557Z" fill="#001968"/>
<path d="M14.6216 70.726C14.3982 70.7272 14.1767 70.6841 13.97 70.5991C13.7632 70.5141 13.5753 70.389 13.4169 70.2308C13.2585 70.0727 13.1328 69.8847 13.047 69.6777C12.9612 69.4707 12.9171 69.2487 12.9171 69.0245V61.0869C12.9255 61.0367 12.9255 60.9855 12.9171 60.9354C12.5818 60.7385 12.1948 60.6484 11.8074 60.6771H1.69561C1.26594 60.6459 0.863974 60.4526 0.570551 60.1361C0.277128 59.8196 0.114014 59.4033 0.114014 58.971C0.114014 58.5388 0.277128 58.1225 0.570551 57.806C0.863974 57.4895 1.26594 57.2962 1.69561 57.265H11.6742C12.9643 57.1973 14.2324 57.6204 15.2253 58.4499C15.579 58.7875 15.8582 59.1959 16.0447 59.6486C16.2313 60.1013 16.3211 60.5882 16.3084 61.0779V69.0156C16.3095 69.239 16.2668 69.4605 16.1827 69.6674C16.0986 69.8743 15.9746 70.0625 15.818 70.2214C15.6614 70.3802 15.4751 70.5065 15.2698 70.5931C15.0645 70.6797 14.8443 70.7249 14.6216 70.726Z" fill="#001968"/>
<path d="M27.9915 84.7929C28.8299 84.7929 29.5096 84.1108 29.5096 83.2695C29.5096 82.4281 28.8299 81.7461 27.9915 81.7461C27.1531 81.7461 26.4734 82.4281 26.4734 83.2695C26.4734 84.1108 27.1531 84.7929 27.9915 84.7929Z" fill="#001968"/>
<path d="M28.0979 71.5902H27.8848C27.6642 71.5902 27.4854 71.7697 27.4854 71.9911V80.2227C27.4854 80.4441 27.6642 80.6236 27.8848 80.6236H28.0979C28.3186 80.6236 28.4974 80.4441 28.4974 80.2227V71.9911C28.4974 71.7697 28.3186 71.5902 28.0979 71.5902Z" fill="#001968"/>
<path d="M28.0979 85.9064H27.8848C27.6642 85.9064 27.4854 86.0859 27.4854 86.3073V94.539C27.4854 94.7604 27.6642 94.9398 27.8848 94.9398H28.0979C28.3186 94.9398 28.4974 94.7604 28.4974 94.539V86.3073C28.4974 86.0859 28.3186 85.9064 28.0979 85.9064Z" fill="#001968"/>
<path d="M20.7476 75.7821L20.6032 75.927C20.4541 76.0766 20.4541 76.3192 20.6032 76.4687L25.0853 80.9665C25.2344 81.1161 25.4761 81.1161 25.6252 80.9665L25.7696 80.8216C25.9187 80.672 25.9187 80.4295 25.7696 80.2799L21.2874 75.7821C21.1384 75.6325 20.8966 75.6325 20.7476 75.7821Z" fill="#001968"/>
<path d="M30.3423 85.4213L30.1979 85.5662C30.0488 85.7158 30.0488 85.9584 30.1979 86.108L34.6801 90.6057C34.8291 90.7553 35.0708 90.7553 35.2199 90.6057L35.3643 90.4608C35.5134 90.3112 35.5134 90.0687 35.3643 89.9191L30.8822 85.4213C30.7331 85.2717 30.4914 85.2717 30.3423 85.4213Z" fill="#001968"/>
<path d="M20.6045 90.4552L20.7489 90.6C20.8979 90.7496 21.1397 90.7496 21.2887 90.6L25.7709 86.1023C25.92 85.9527 25.92 85.7101 25.7709 85.5605L25.6265 85.4156C25.4774 85.266 25.2357 85.266 25.0866 85.4156L20.6045 89.9134C20.4554 90.063 20.4554 90.3056 20.6045 90.4552Z" fill="#001968"/>
<path d="M30.2124 80.8249L30.3568 80.9698C30.5059 81.1194 30.7476 81.1194 30.8966 80.9698L35.3788 76.472C35.5279 76.3224 35.5279 76.0799 35.3788 75.9303L35.2344 75.7854C35.0853 75.6358 34.8436 75.6358 34.6945 75.7854L30.2124 80.2832C30.0633 80.4328 30.0633 80.6753 30.2124 80.8249Z" fill="#001968"/>
<path d="M39.6301 83.3764V83.1626C39.6301 82.9412 39.4513 82.7617 39.2306 82.7617H31.0276C30.807 82.7617 30.6281 82.9412 30.6281 83.1626V83.3764C30.6281 83.5978 30.807 83.7773 31.0276 83.7773H39.2306C39.4513 83.7773 39.6301 83.5978 39.6301 83.3764Z" fill="#001968"/>
<path d="M25.3547 83.3675V83.1537C25.3547 82.9323 25.1759 82.7528 24.9552 82.7528H16.7522C16.5316 82.7528 16.3527 82.9323 16.3527 83.1537V83.3675C16.3527 83.5889 16.5316 83.7684 16.7522 83.7684H24.9552C25.1759 83.7684 25.3547 83.5889 25.3547 83.3675Z" fill="#001968"/>
</g>
<defs>
<clipPath id="clip0">
<rect width="131" height="104" fill="white"/>
</clipPath>
</defs>
</svg>
