<svg width="124" height="112" viewBox="0 0 124 112" fill="none" xmlns="http://www.w3.org/2000/svg">
<g clip-path="url(#clip0)">
<path d="M105.07 53.12C104.312 49.4209 102.162 46.1543 99.0643 43.9948C95.9668 41.8352 92.1583 40.9477 88.4252 41.5154C84.6921 42.0831 81.3197 44.0628 79.0043 47.0456C76.6888 50.0284 75.6073 53.7864 75.9831 57.5436C76.3588 61.3009 78.163 64.7704 81.0233 67.2356C83.8835 69.7008 87.5812 70.9734 91.3527 70.7907C95.1243 70.608 98.6817 68.9838 101.29 66.2537C103.899 63.5236 105.359 59.8959 105.37 56.12C105.372 55.1123 105.272 54.1071 105.07 53.12ZM90.6399 43.91C92.8188 43.9173 94.9562 44.5072 96.8305 45.6184C98.7048 46.7296 100.248 48.3218 101.3 50.23C94.3939 52.6591 86.8727 52.7013 79.9399 50.35C80.9727 48.4079 82.5137 46.7829 84.3983 45.6486C86.2829 44.5143 88.4403 43.9133 90.6399 43.91ZM78.4699 56.08C78.4713 55.6321 78.498 55.1848 78.5499 54.74C88.5499 56.74 89.2799 64.87 89.1399 68.15C86.1967 67.7822 83.4888 66.3532 81.5244 64.131C79.5599 61.9087 78.4738 59.046 78.4699 56.08ZM92.6199 68.08C92.3499 64.7 92.7599 56.46 102.72 54.66C102.775 55.1314 102.805 55.6054 102.81 56.08C102.806 58.9625 101.78 61.7503 99.9141 63.9475C98.0483 66.1447 95.4637 67.609 92.6199 68.08Z" fill="#FF0B0B"/>
<path d="M75.9999 32C76.4499 19.36 87.4899 18.72 89.6999 18.72C91.9099 18.72 102.97 19.36 103.42 32C103.456 35.2587 102.773 38.4852 101.42 41.45C102.626 42.2135 103.579 43.3164 104.16 44.62C106.03 40.5 107.45 35.55 107.32 31.86C107.289 28.6011 106.41 25.4064 104.77 22.59C103.444 20.4215 101.59 18.6253 99.3799 17.37C96.4322 15.7115 93.1071 14.8403 89.7249 14.8403C86.3427 14.8403 83.0176 15.7115 80.0699 17.37C77.86 18.6253 76.0053 20.4215 74.6799 22.59C73.0446 25.4084 72.1662 28.6018 72.1299 31.86C72.0762 35.5561 72.8234 39.22 74.3199 42.6C74.6799 43.46 75.5299 45.02 75.9799 45.9C76.575 44.6189 77.4829 43.5082 78.6199 42.67C76.9 39.3762 76.0012 35.7158 75.9999 32Z" fill="#001968"/>
<path d="M75.9199 48.13L74.9999 46.36L74.5699 45.54C74.1099 44.66 73.5699 43.66 73.2999 42.99C71.7529 39.4796 70.9853 35.6756 71.0499 31.84C71.0876 28.4056 72.0143 25.0396 73.7399 22.07C75.1559 19.764 77.13 17.8518 79.4799 16.51C82.5802 14.7657 86.0776 13.8494 89.6349 13.8494C93.1922 13.8494 96.6896 14.7657 99.7899 16.51C102.143 17.848 104.118 19.761 105.53 22.07C107.263 25.0369 108.194 28.4041 108.23 31.84C108.36 35.34 107.14 40.28 104.98 45.04L104.13 47L103.2 45.13C102.711 44.0097 101.904 43.0572 100.88 42.39L100.07 41.96L100.43 41.11C101.736 38.2911 102.399 35.2168 102.37 32.11C102 20.33 91.6999 19.73 89.6499 19.73C87.5999 19.73 77.3699 20.33 76.9499 32.05C76.9527 35.6013 77.8102 39.0998 79.4499 42.25L79.8199 43.02L79.1099 43.51C78.1147 44.2529 77.3207 45.2325 76.7999 46.36L75.9199 48.13ZM89.6499 15.85C86.4479 15.8773 83.3031 16.7022 80.4999 18.25C78.4464 19.422 76.7256 21.0981 75.4999 23.12C73.9516 25.793 73.1213 28.8211 73.0899 31.91C73.0451 35.4583 73.7647 38.9746 75.1999 42.22C75.3699 42.64 75.6899 43.22 75.9999 43.87C76.3887 43.3242 76.8383 42.8243 77.3399 42.38C75.7762 39.1445 74.9757 35.5934 74.9999 32C75.4799 18.44 87.3299 17.75 89.6999 17.75C92.0699 17.75 103.93 18.44 104.42 32C104.465 35.124 103.859 38.2232 102.64 41.1C103.146 41.4987 103.596 41.9627 103.98 42.48C105.421 39.1442 106.209 35.5627 106.3 31.93C106.272 28.842 105.445 25.8139 103.9 23.14C102.673 21.1189 100.953 19.4431 98.8999 18.27C96.0688 16.699 92.8876 15.8668 89.6499 15.85Z" fill="#001968"/>
<path d="M109.78 59.08H47.1299C39.6699 59.08 33.6199 70.31 33.6199 77.78V92.06C33.6199 99.53 39.6699 98.66 47.1299 98.66H109.78C117.25 98.66 123.3 99.53 123.3 92.06V77.78C123.3 70.31 117.25 59.08 109.78 59.08ZM49.3799 95H41.1099C40.2771 95 39.4784 94.6691 38.8896 94.0803C38.3007 93.4914 37.9699 92.6927 37.9699 91.86C37.9699 91.0272 38.3007 90.2285 38.8896 89.6396C39.4784 89.0508 40.2771 88.72 41.1099 88.72H49.3799C50.2127 88.72 51.0113 89.0508 51.6002 89.6396C52.1891 90.2285 52.5199 91.0272 52.5199 91.86C52.5199 92.6927 52.1891 93.4914 51.6002 94.0803C51.0113 94.6691 50.2127 95 49.3799 95ZM115.81 95H107.54C106.707 95 105.908 94.6691 105.32 94.0803C104.731 93.4914 104.4 92.6927 104.4 91.86C104.4 91.0272 104.731 90.2285 105.32 89.6396C105.908 89.0508 106.707 88.72 107.54 88.72H115.81C116.643 88.72 117.441 89.0508 118.03 89.6396C118.619 90.2285 118.95 91.0272 118.95 91.86C118.95 92.6927 118.619 93.4914 118.03 94.0803C117.441 94.6691 116.643 95 115.81 95Z" fill="#FF0B0B"/>
<path d="M53.5199 111.71H34.7199C34.4281 111.71 34.1483 111.594 33.9421 111.388C33.7358 111.182 33.6199 110.902 33.6199 110.61V98.91C33.6199 98.31 33.6199 97.85 34.4099 97.85C35.1999 97.85 35.1899 98.04 35.8399 99.04C36.7599 100.4 39.1899 100.19 39.1899 100.19H53.5199C53.8125 100.193 54.0923 100.311 54.2983 100.519C54.5043 100.726 54.6199 101.007 54.6199 101.3V110.66C54.607 110.943 54.4854 111.21 54.2805 111.406C54.0756 111.601 53.8032 111.71 53.5199 111.71Z" fill="#FF0B0B"/>
<path d="M103.4 111.71H122.2C122.491 111.707 122.769 111.591 122.975 111.385C123.181 111.179 123.297 110.901 123.3 110.61V98.91C123.3 98.31 123.3 97.85 122.51 97.85C121.72 97.85 121.73 98.04 121.08 99.04C120.16 100.4 117.73 100.19 117.73 100.19H103.4C103.107 100.193 102.828 100.311 102.622 100.519C102.416 100.726 102.3 101.007 102.3 101.3V110.66C102.313 110.943 102.434 111.21 102.639 111.406C102.844 111.601 103.117 111.71 103.4 111.71Z" fill="#FF0B0B"/>
<path d="M4.89983 18.17C5.34983 5.53 16.3898 4.89 18.5998 4.89C20.8098 4.89 31.8598 5.53 32.3198 18.17C32.3553 21.4254 31.6725 24.6487 30.3198 27.61C31.5034 28.3824 32.4351 29.4844 32.9998 30.78C34.8698 26.66 36.2898 21.71 36.1598 18.03C36.1235 14.7686 35.2451 11.572 33.6098 8.75C32.2817 6.58367 30.4276 4.78809 28.2198 3.53C25.2715 1.90465 21.9663 1.0354 18.5998 1C15.24 1.03745 11.9417 1.90668 8.99983 3.53C6.77377 4.78133 4.90194 6.57746 3.55983 8.75C1.92605 11.5622 1.04438 14.7479 0.999834 18C0.945509 21.7026 1.69259 25.3732 3.18983 28.76C3.54983 29.62 4.40983 31.19 4.85983 32.06C5.45497 30.7789 6.36283 29.6682 7.49983 28.83C5.78586 25.5385 4.89381 21.8811 4.89983 18.17Z" fill="#001968"/>
<path d="M4.85996 34.28L3.99996 32.52C3.88996 32.28 3.73996 32 3.57996 31.7C3.10996 30.81 2.57996 29.81 2.30996 29.14C0.748277 25.6358 -0.0396209 21.8362 -4.44619e-05 18C0.0441867 14.5684 0.974239 11.2064 2.69996 8.24C4.11367 5.92609 6.09227 4.00943 8.44995 2.67C11.5584 0.949315 15.0472 0.0315866 18.6 0C22.156 0.0311895 25.648 0.94889 28.76 2.67C31.1144 4.00587 33.0898 5.91934 34.5 8.23C36.2363 11.1956 37.1671 14.5636 37.2 18C37.32 21.51 36.11 26.45 33.95 31.21L33.08 33.12L32.14 31.24C31.6539 30.1208 30.8509 29.1683 29.83 28.5L29 28.06L29.36 27.22C30.6593 24.3987 31.3217 21.326 31.3 18.22C30.9 6.48 20.65 5.89 18.6 5.89C16.55 5.89 6.31996 6.48 5.89996 18.2C5.90279 21.7513 6.76026 25.2498 8.39995 28.4L8.76996 29.18L8.05996 29.66C7.06935 30.4077 6.27637 31.3861 5.74996 32.51L4.85996 34.28ZM18.6 2C15.3979 2.02733 12.2532 2.85219 9.44995 4.4C7.39887 5.57518 5.67875 7.25058 4.44996 9.27C2.88295 11.9372 2.03851 14.9668 1.99996 18.06C1.95828 21.609 2.68134 25.1254 4.11996 28.37C4.28996 28.79 4.59996 29.37 4.91996 30.02C5.30778 29.4764 5.75375 28.9768 6.24996 28.53C4.67811 25.2899 3.87398 21.7312 3.89996 18.13C4.37996 4.57 16.23 3.89 18.6 3.89C20.97 3.89 32.83 4.57 33.32 18.13C33.3652 21.254 32.7589 24.3532 31.54 27.23C32.0426 27.6289 32.4898 28.093 32.87 28.61C34.3141 25.2747 35.105 21.6933 35.2 18.06C35.1716 14.972 34.3448 11.9439 32.8 9.27C31.5651 7.25543 29.8464 5.58138 27.8 4.4C24.9814 2.84532 21.8188 2.02029 18.6 2Z" fill="#001968"/>
<path d="M32.2099 35.78V35.19C32.2073 34.7674 32.0375 34.363 31.7378 34.0651C31.438 33.7672 31.0325 33.6 30.6099 33.6H26.5499C26.1727 32.1322 25.318 30.8316 24.1204 29.9029C22.9228 28.9742 21.4504 28.4702 19.9349 28.4702C18.4194 28.4702 16.947 28.9742 15.7494 29.9029C14.5519 30.8316 13.6972 32.1322 13.3199 33.6H9.25991C8.83729 33.6 8.43183 33.7672 8.13206 34.0651C7.83229 34.363 7.66255 34.7674 7.65991 35.19V35.78C7.65991 36.44 11.2299 37.01 13.3699 37.25C13.5561 37.9606 13.8567 38.636 14.2599 39.25C14.2599 41.83 14.5799 41.5 10.4999 45.57C6.41991 49.64 7.93991 62.73 7.93991 62.73C7.93991 62.73 6.99991 67.86 10.4999 67.86C13.9999 67.86 13.0699 64.24 13.0699 64.24C13.0699 64.24 11.8599 52.46 19.9299 52.46C27.9999 52.46 26.7999 64.24 26.7999 64.24C26.7999 64.24 25.8899 67.86 29.3699 67.86C32.8499 67.86 31.9299 62.73 31.9299 62.73C31.9299 62.73 33.4399 49.6 29.3699 45.52C25.2999 41.44 25.6299 41.78 25.6099 39.2C25.9841 38.628 26.2738 38.0049 26.4699 37.35C27.9999 37.21 32.2099 36.56 32.2099 35.78ZM19.9299 39.51C19.2748 39.512 18.6339 39.3196 18.0883 38.957C17.5426 38.5945 17.1168 38.0783 16.8647 37.4736C16.6127 36.869 16.5457 36.2032 16.6723 35.5604C16.7989 34.9177 17.1133 34.327 17.5759 33.8631C18.0384 33.3991 18.6281 33.0829 19.2705 32.9544C19.9128 32.8258 20.5789 32.8908 21.1843 33.141C21.7897 33.3913 22.3072 33.8155 22.6714 34.36C23.0355 34.9046 23.2299 35.5449 23.2299 36.2C23.2299 37.0762 22.8826 37.9166 22.264 38.537C21.6454 39.1575 20.806 39.5074 19.9299 39.51Z" fill="#FF0B0B"/>
<path d="M22.31 56.42H18.29C16.7713 56.42 15.54 57.6513 15.54 59.17V75.96C15.54 77.4788 16.7713 78.71 18.29 78.71H22.31C23.8288 78.71 25.06 77.4788 25.06 75.96V59.17C25.06 57.6513 23.8288 56.42 22.31 56.42Z" fill="#001968"/>
<path d="M19.5099 25.9001C16.4401 25.802 13.404 25.2285 10.5099 24.2001C8.8699 23.6001 7.9099 21.3301 8.3599 19.1301C8.8099 16.9301 10.4899 15.6401 12.1299 16.2401C14.5 17.0715 16.9803 17.5467 19.4899 17.6501C21.4663 17.6376 23.4109 17.1506 25.1599 16.2301C26.7199 15.3301 28.5199 16.2801 29.1599 18.3601C29.7999 20.4401 29.1599 22.8601 27.5999 23.7901C25.12 25.1535 22.3398 25.8786 19.5099 25.9001Z" fill="#001968"/>
</g>
<defs>
<clipPath id="clip0">
<rect width="123.3" height="111.71" fill="white"/>
</clipPath>
</defs>
</svg>
