<svg width="108" height="108" viewBox="0 0 108 108" fill="none" xmlns="http://www.w3.org/2000/svg">
<g clip-path="url(#clip0)">
<path d="M53.7051 67.8954C57.9889 67.8954 61.4616 64.4227 61.4616 60.139C61.4616 55.8552 57.9889 52.3826 53.7051 52.3826C49.4214 52.3826 45.9487 55.8552 45.9487 60.139C45.9487 64.4227 49.4214 67.8954 53.7051 67.8954Z" fill="#FF0B0B"/>
<path d="M55.6443 57.6816L52.3469 53.8839L78.1629 31.9371L79.7535 33.5277L81.3441 35.1094L59.451 60.9701L55.6443 57.6816Z" fill="#FF0B0B"/>
<path d="M54 108C43.3198 108 32.8795 104.833 23.9992 98.8994C15.119 92.9658 8.19766 84.5321 4.11053 74.6649C0.0233971 64.7977 -1.04598 53.9401 1.03762 43.4651C3.12122 32.9902 8.26422 23.3683 15.8163 15.8163C23.3683 8.26422 32.9902 3.12122 43.4651 1.03762C53.9401 -1.04598 64.7977 0.0233971 74.6649 4.11053C84.5321 8.19766 92.9658 15.119 98.8994 23.9992C104.833 32.8795 108 43.3198 108 54C107.983 68.3166 102.289 82.0421 92.1655 92.1655C82.0421 102.289 68.3166 107.983 54 108ZM54 7.14879C44.7337 7.14879 35.6755 9.89657 27.9709 15.0446C20.2662 20.1927 14.2612 27.5099 10.7151 36.0708C7.16907 44.6318 6.24126 54.052 8.04903 63.1402C9.85679 72.2285 14.3189 80.5766 20.8712 87.1289C27.4235 93.6811 35.7716 98.1433 44.8598 99.951C53.9481 101.759 63.3683 100.831 71.9292 97.2849C80.4902 93.7389 87.8073 87.7338 92.9554 80.0292C98.1035 72.3245 100.851 63.2663 100.851 54C100.837 41.5787 95.8964 29.6701 87.1132 20.8869C78.3299 12.1036 66.4214 7.16298 54 7.14879Z" fill="#001968"/>
<path d="M53.9999 20.3383C53.0519 20.3383 52.1428 19.9617 51.4725 19.2913C50.8021 18.621 50.4255 17.7119 50.4255 16.7639V5.89775C50.4255 4.94976 50.8021 4.0406 51.4725 3.37028C52.1428 2.69995 53.0519 2.32336 53.9999 2.32336C54.9479 2.32336 55.8571 2.69995 56.5274 3.37028C57.1977 4.0406 57.5743 4.94976 57.5743 5.89775V16.7639C57.5743 17.2333 57.4819 17.6981 57.3022 18.1317C57.1226 18.5654 56.8593 18.9594 56.5274 19.2913C56.1955 19.6233 55.8014 19.8865 55.3678 20.0662C54.9341 20.2458 54.4693 20.3383 53.9999 20.3383Z" fill="#001968"/>
<path d="M84.293 34.2605C83.5857 34.261 82.894 34.0517 82.3057 33.659C81.7174 33.2662 81.2588 32.7078 80.9881 32.0543C80.7173 31.4008 80.6465 30.6817 80.7847 29.988C80.9228 29.2942 81.2637 28.6571 81.7641 28.1572L89.4401 20.4812C90.1108 19.8105 91.0205 19.4337 91.969 19.4337C92.9175 19.4337 93.8272 19.8105 94.4979 20.4812C95.1686 21.1519 95.5454 22.0616 95.5454 23.0101C95.5454 23.9586 95.1686 24.8683 94.4979 25.539L86.8219 33.215C86.4897 33.5468 86.0954 33.8099 85.6615 33.9893C85.2276 34.1687 84.7626 34.2608 84.293 34.2605Z" fill="#001968"/>
<path d="M23.7071 34.2605C23.2376 34.2608 22.7726 34.1687 22.3386 33.9893C21.9047 33.8099 21.5104 33.5468 21.1782 33.215L13.4933 25.539C12.8226 24.8683 12.4458 23.9586 12.4458 23.0101C12.4458 22.5404 12.5383 22.0754 12.718 21.6415C12.8978 21.2076 13.1612 20.8133 13.4933 20.4812C13.8254 20.1491 14.2196 19.8857 14.6536 19.706C15.0875 19.5262 15.5525 19.4337 16.0222 19.4337C16.9707 19.4337 17.8803 19.8105 18.551 20.4812L26.236 28.1572C26.7364 28.6571 27.0773 29.2942 27.2155 29.988C27.3536 30.6817 27.2828 31.4008 27.0121 32.0543C26.7413 32.7078 26.2827 33.2662 25.6944 33.659C25.1061 34.0517 24.4145 34.261 23.7071 34.2605Z" fill="#001968"/>
</g>
<defs>
<clipPath id="clip0">
<rect width="108" height="108" fill="white"/>
</clipPath>
</defs>
</svg>
