<svg width="110" height="110" viewBox="0 0 110 110" fill="none" xmlns="http://www.w3.org/2000/svg">
<g clip-path="url(#clip0)">
<path d="M55.2094 68.9343C59.5725 68.9343 63.1094 65.3973 63.1094 61.0342C63.1094 56.6711 59.5725 53.1342 55.2094 53.1342C50.8463 53.1342 47.3093 56.6711 47.3093 61.0342C47.3093 65.3973 50.8463 68.9343 55.2094 68.9343Z" fill="#FF6700"/>
<path d="M54.8362 57.876L49.7212 57.512L52.5153 23.1085H54.7998H57.0934L59.9421 57.4938L54.8362 57.876Z" fill="#FF6700"/>
<path d="M55 110C44.122 110 33.4884 106.774 24.4437 100.731C15.399 94.6874 8.34947 86.0975 4.18665 76.0476C0.0238304 65.9977 -1.06535 54.939 1.05683 44.2701C3.17902 33.6011 8.41726 23.801 16.1091 16.1091C23.801 8.41726 33.6011 3.17902 44.2701 1.05683C54.939 -1.06535 65.9977 0.0238304 76.0476 4.18665C86.0975 8.34947 94.6874 15.399 100.731 24.4437C106.774 33.4884 110 44.122 110 55C109.983 69.5817 104.183 83.5614 93.8723 93.8723C83.5614 104.183 69.5817 109.983 55 110ZM55 7.28118C45.5621 7.28118 36.3362 10.0798 28.4889 15.3233C20.6415 20.5667 14.5253 28.0193 10.9136 36.7388C7.30183 45.4583 6.35684 55.053 8.19808 64.3095C10.0393 73.5661 14.5841 82.0687 21.2577 88.7423C27.9313 95.4159 36.434 99.9607 45.6905 101.802C54.9471 103.643 64.5418 102.698 73.2612 99.0865C81.9807 95.4748 89.4334 89.3585 94.6768 81.5112C99.9202 73.6639 102.719 64.4379 102.719 55C102.704 42.3486 97.6723 30.2196 88.7264 21.2737C79.7805 12.3278 67.6514 7.29563 55 7.28118Z" fill="#001968"/>
<path d="M55 20.7148C54.0344 20.7148 53.1084 20.3313 52.4257 19.6485C51.7429 18.9658 51.3594 18.0398 51.3594 17.0743V6.00691C51.3594 5.04137 51.7429 4.11537 52.4257 3.43263C53.1084 2.74989 54.0344 2.36633 55 2.36633C55.9655 2.36633 56.8915 2.74989 57.5742 3.43263C58.257 4.11537 58.6405 5.04137 58.6405 6.00691V17.0743C58.6405 17.5523 58.5464 18.0258 58.3634 18.4674C58.1804 18.9091 57.9123 19.3105 57.5742 19.6485C57.2362 19.9866 56.8348 20.2548 56.3931 20.4377C55.9514 20.6207 55.478 20.7148 55 20.7148Z" fill="#001968"/>
<path d="M85.8539 34.8949C85.1334 34.8955 84.429 34.6823 83.8298 34.2823C83.2306 33.8823 82.7635 33.3135 82.4877 32.6479C82.2119 31.9823 82.1399 31.2499 82.2806 30.5433C82.4213 29.8367 82.7685 29.1878 83.2782 28.6786L91.0963 20.8605C91.7794 20.1774 92.7059 19.7936 93.672 19.7936C94.6381 19.7936 95.5646 20.1774 96.2477 20.8605C96.9309 21.5436 97.3146 22.4701 97.3146 23.4362C97.3146 24.4023 96.9309 25.3288 96.2477 26.0119L88.4296 33.83C88.0913 34.168 87.6896 34.436 87.2477 34.6187C86.8057 34.8014 86.3321 34.8953 85.8539 34.8949Z" fill="#001968"/>
<path d="M24.1461 34.8949C23.6679 34.8953 23.1943 34.8014 22.7523 34.6187C22.3104 34.436 21.9087 34.168 21.5704 33.83L13.7432 26.0119C13.06 25.3288 12.6763 24.4023 12.6763 23.4362C12.6763 22.9578 12.7705 22.4842 12.9535 22.0422C13.1366 21.6003 13.4049 21.1987 13.7432 20.8605C14.0814 20.5222 14.483 20.2539 14.9249 20.0709C15.3668 19.8878 15.8405 19.7936 16.3189 19.7936C17.2849 19.7936 18.2115 20.1774 18.8946 20.8605L26.7218 28.6786C27.2315 29.1878 27.5787 29.8367 27.7194 30.5433C27.8601 31.2499 27.788 31.9823 27.5123 32.6479C27.2365 33.3135 26.7694 33.8823 26.1702 34.2823C25.571 34.6823 24.8666 34.8955 24.1461 34.8949Z" fill="#001968"/>
</g>
<defs>
<clipPath id="clip0">
<rect width="110" height="110" fill="white"/>
</clipPath>
</defs>
</svg>
