<svg width="103" height="112" viewBox="0 0 103 112" fill="none" xmlns="http://www.w3.org/2000/svg">
<g clip-path="url(#clip0)">
<path d="M84.8486 28.3225L66.1797 36.357L47.5198 28.3225V24.3097L66.1797 32.3353L84.8486 24.3097V28.3225Z" fill="#001968"/>
<path d="M97.5474 75.0249C95.9678 67.2885 91.4873 60.4568 85.032 55.9418C78.5766 51.4269 70.6399 49.5738 62.862 50.7654C55.0841 51.9571 48.0596 56.1025 43.2402 62.3449C38.4209 68.5873 36.175 76.4495 36.9669 84.3067C37.7587 92.1639 41.5277 99.4154 47.495 104.563C53.4622 109.71 61.1715 112.359 69.0296 111.963C76.8877 111.567 84.2939 108.157 89.7176 102.435C95.1414 96.7144 98.168 89.1205 98.1721 81.2233C98.1751 79.1412 97.9658 77.0642 97.5474 75.0249ZM67.5184 55.8029C72.0623 55.8173 76.5194 57.0538 80.4257 59.3836C84.3321 61.7135 87.545 65.0516 89.73 69.0505C75.0145 74.1919 60.1561 74.174 45.1639 69.2744C47.319 65.2023 50.5388 61.7965 54.4774 59.4229C58.416 57.0494 62.9244 55.7979 67.5184 55.8029ZM42.1833 81.2233C42.1874 80.2836 42.241 79.3447 42.344 78.4107C63.2706 82.5041 64.6538 99.5943 64.3861 106.447C58.2616 105.673 52.6282 102.685 48.5411 98.0416C44.454 93.3984 42.1936 87.419 42.1833 81.2233ZM71.6323 106.303C71.0701 99.2629 71.8911 82.0205 92.6571 78.2495C93.4302 84.744 91.675 91.2874 87.7576 96.5143C83.8403 101.741 78.0634 105.248 71.6323 106.303Z" fill="#FF0B0B"/>
<path d="M2.2844 24.6948C2.2844 24.6948 6.13061 17.5291 9.20937 17.8515C12.2881 18.174 21.7029 17.6186 18.1333 21.7926C14.5637 25.9667 17.3658 29.2719 11.2083 28.6359L8.12957 28.3224C8.12957 28.3224 3.66761 41.4804 27.4053 52.9814C27.4053 52.9814 30.484 53.2949 27.2536 54.4772C19.4183 55.1848 -4.31038 43.6839 2.2844 24.6948Z" fill="#001968"/>
<path d="M36.945 36.7243C37.882 10.3276 60.8611 8.95717 65.5015 8.95717C70.142 8.95717 93.1033 10.2918 94.0581 36.7243C94.1538 43.0044 92.9378 49.235 90.4885 55.0148L96.5657 60.8279C99.9658 52.7665 102.42 43.478 102.17 36.4377C101.902 28.9226 100.117 22.4018 96.8156 17.0544C94.0391 12.5369 90.1676 8.79894 85.5625 6.18942C79.404 2.7809 72.4982 0.961843 65.4658 0.895752C58.4361 0.960327 51.5328 2.77953 45.3781 6.18942C40.7828 8.81128 36.9237 12.5583 34.1607 17.0813C30.9124 22.4556 29.1276 28.9495 28.8599 36.4645C28.61 43.5048 30.136 51.0467 33.3932 58.8574C33.9108 60.0934 34.8657 61.9655 35.6956 63.5957L41.3534 56.9137C38.2389 49.748 36.7219 42.9316 36.945 36.7243Z" fill="#001968"/>
<path d="M35.5528 65.2169L34.946 64.0435C34.0536 62.2521 33.0809 60.4607 32.5722 59.2335C29.2614 51.2706 27.7087 43.5944 27.9674 36.4287C28.2352 28.7614 30.0646 22.0972 33.4021 16.6155C36.2361 11.9498 40.2031 8.08209 44.9318 5.37428C51.2243 1.90386 58.2773 0.0571091 65.4569 0C72.6361 0.0600977 79.6883 1.90666 85.9819 5.37428C90.7091 8.07152 94.6787 11.9265 97.5206 16.5797C100.849 22.0614 102.688 28.7255 102.955 36.3928C103.187 42.9763 101.126 52.0051 97.2885 61.1683L96.7888 62.3685L89.3284 55.2028L89.5515 54.6385C91.978 48.9839 93.1941 42.8807 93.1211 36.7243C92.2287 11.1427 69.9188 9.85285 65.4569 9.85285C60.9949 9.85285 38.7386 11.1427 37.7927 36.7243C37.5785 42.7345 39.051 49.3986 42.1654 56.5106L42.3885 57.0301L35.5528 65.2169ZM65.4658 1.79143C58.5962 1.8557 51.85 3.63162 45.8332 6.95969C41.3659 9.50809 37.6143 13.1504 34.9281 17.547C31.7512 22.7601 30.011 29.1376 29.7522 36.4914C29.5024 43.4063 31.0105 50.8228 34.2142 58.5438C34.5801 59.4395 35.2137 60.7025 35.9008 62.0282L40.3628 56.7793C37.284 49.6136 35.8384 42.8599 36.0615 36.7243C37.0163 9.49456 60.6826 8.12412 65.4658 8.12412C70.249 8.12412 93.9331 9.49456 94.9148 36.7243C95.0132 42.9248 93.8439 49.0797 91.4791 54.8087L96.182 59.2873C99.5998 50.778 101.429 42.5195 101.215 36.4734C100.956 29.1196 99.2161 22.7422 96.0392 17.5291C93.3448 13.1376 89.5872 9.50162 85.1163 6.95969C79.0931 3.63156 72.3411 1.85573 65.4658 1.79143Z" fill="#001968"/>
<path d="M8.08504 11.0262C8.08504 11.0262 3.76586 13.7134 1.72228 16.5797C1.72228 16.5797 -1.00845 20.4133 0.410459 17.0813C1.82936 13.7492 7.81732 9.38708 7.81732 9.38708C7.81732 9.38708 10.3963 9.79016 8.08504 11.0262Z" fill="#001968"/>
<path d="M23.2646 24.5783C22.4832 26.397 21.4167 28.0784 20.1056 29.5585C20.1056 29.5585 17.7407 31.8515 19.9003 30.5169C22.0599 29.1823 24.4337 24.5962 24.4337 24.5962C24.4337 24.5962 23.8715 22.8586 23.2646 24.5783Z" fill="#001968"/>
<path d="M57.5057 44.302C57.2739 44.3154 57.0415 44.3154 56.8096 44.302C55.5982 44.1632 54.455 43.667 53.5244 42.8762C52.5939 42.0854 51.9178 41.0355 51.5816 39.8591C51.2454 38.6827 51.2642 37.4327 51.6356 36.267C52.0071 35.1014 52.7144 34.0724 53.6684 33.3102C54.6223 32.5479 55.7799 32.0867 56.995 31.9847C58.21 31.8827 59.4279 32.1445 60.4948 32.7371C61.5616 33.3297 62.4295 34.2264 62.9886 35.3139C63.5478 36.4015 63.7733 37.631 63.6364 38.8471C63.4572 40.3521 62.7341 41.7387 61.6041 42.7442C60.4741 43.7496 59.0158 44.3039 57.5057 44.302ZM57.5057 33.7057C56.6583 33.7058 55.829 33.9521 55.118 34.4148C54.4069 34.8775 53.8445 35.5369 53.4985 36.3133C53.1525 37.0897 53.0378 37.9501 53.1681 38.7905C53.2985 39.631 53.6684 40.4156 54.2332 41.0497C54.7979 41.6838 55.5335 42.1403 56.351 42.3642C57.1686 42.588 58.0332 42.5696 58.8405 42.3112C59.6479 42.0527 60.3634 41.5653 60.9009 40.9077C61.4384 40.2501 61.7748 39.4505 61.8695 38.6052C61.9976 37.4454 61.663 36.2818 60.939 35.3688C60.215 34.4557 59.1603 33.8675 58.0055 33.7326L57.5057 33.7057Z" fill="#001968"/>
<path d="M75.2642 43.9527C75.0265 43.9661 74.7881 43.9661 74.5503 43.9527C73.3365 43.8156 72.1905 43.3203 71.2571 42.5294C70.3238 41.7385 69.6451 40.6875 69.3069 39.5094C68.9687 38.3313 68.9861 37.079 69.3571 35.9109C69.728 34.7428 70.4357 33.7113 71.3908 32.9469C72.3458 32.1826 73.5052 31.7196 74.7224 31.6167C75.9396 31.5138 77.1598 31.7755 78.2288 32.3687C79.2978 32.962 80.1675 33.8601 80.7279 34.9494C81.2883 36.0388 81.5142 37.2705 81.3772 38.4888C81.2066 39.9981 80.4898 41.3919 79.363 42.4057C78.2361 43.4196 76.7775 43.9828 75.2642 43.9885V43.9527ZM75.2642 33.3564C74.1536 33.3727 73.0904 33.8109 72.2889 34.5828C71.4873 35.3546 71.007 36.4027 70.9448 37.5159C70.8826 38.629 71.243 39.7245 71.9534 40.5815C72.6639 41.4385 73.6716 41.9934 74.7734 42.1344C75.3428 42.2069 75.9208 42.1651 76.4738 42.0113C77.0269 41.8575 77.544 41.5949 77.995 41.2386C78.4473 40.8798 78.8245 40.4347 79.1047 39.9289C79.385 39.4232 79.5629 38.8668 79.6281 38.2918C79.6939 37.717 79.6461 37.1349 79.4874 36.5787C79.3287 36.0226 79.0623 35.5033 78.7033 35.0507C78.3444 34.598 77.9 34.2209 77.3956 33.9409C76.8912 33.661 76.3368 33.4836 75.764 33.4191L75.2642 33.3564Z" fill="#001968"/>
<path d="M62.8066 39.0173C62.6445 39.0176 62.4853 38.9735 62.3463 38.8898C62.2073 38.8061 62.0936 38.686 62.0174 38.5423C61.9413 38.3987 61.9055 38.2369 61.9141 38.0744C61.9226 37.9119 61.9751 37.7548 62.0659 37.62C62.499 36.9759 63.0575 36.4263 63.7078 36.0046C64.358 35.5828 65.0866 35.2974 65.8496 35.1657C67.4292 34.9687 69.0087 35.6136 70.5525 37.0736C70.7253 37.2375 70.8261 37.4636 70.8328 37.7021C70.8395 37.9407 70.7516 38.1721 70.5882 38.3455C70.4249 38.5189 70.1997 38.6201 69.962 38.6269C69.7244 38.6336 69.4938 38.5453 69.321 38.3813C68.9141 37.9131 68.408 37.5422 67.8398 37.2958C67.2716 37.0494 66.6556 36.9337 66.037 36.9572C65.0213 37.1628 64.1234 37.753 63.5294 38.6053C63.4513 38.7277 63.3447 38.8291 63.2187 38.9009C63.0928 38.9727 62.9513 39.0127 62.8066 39.0173Z" fill="#001968"/>
</g>
<defs>
<clipPath id="clip0">
<rect width="103" height="112" fill="white"/>
</clipPath>
</defs>
</svg>
