<svg width="105" height="113" viewBox="0 0 105 113" fill="none" xmlns="http://www.w3.org/2000/svg">
<g clip-path="url(#clip0)">
<path d="M86.4965 28.5754L67.4651 36.6816L48.4429 28.5754V24.5267L67.4651 32.624L86.4965 24.5267V28.5754Z" fill="#001968"/>
<path d="M99.4418 75.6948C97.8315 67.8892 93.264 60.9966 86.6834 56.4413C80.1027 51.886 72.0118 50.0163 64.0829 51.2187C56.154 52.421 48.9931 56.6034 44.0801 62.9015C39.1672 69.1996 36.8778 77.1321 37.685 85.0594C38.4922 92.9867 42.3344 100.303 48.4175 105.496C54.5006 110.689 62.3596 113.362 70.3703 112.963C78.3809 112.564 85.931 109.122 91.46 103.35C96.9891 97.5779 100.075 89.9162 100.079 81.9484C100.082 79.8477 99.8683 77.7523 99.4418 75.6948ZM68.8297 56.3011C73.4619 56.3156 78.0055 57.5631 81.9877 59.9138C85.9699 62.2644 89.2452 65.6323 91.4727 69.667C76.4714 74.8543 61.3245 74.8362 46.0412 69.8929C48.2381 65.7844 51.5204 62.3482 55.5355 59.9535C59.5506 57.5587 64.1466 56.2961 68.8297 56.3011ZM43.0027 81.9484C43.0069 81.0003 43.0615 80.0531 43.1665 79.1108C64.4994 83.2407 65.9095 100.484 65.6366 107.397C59.3932 106.616 53.6504 103.601 49.484 98.9169C45.3175 94.2323 43.0132 88.1995 43.0027 81.9484ZM73.0235 107.252C72.4504 100.149 73.2873 82.7527 94.4566 78.9481C95.2447 85.5006 93.4554 92.1024 89.462 97.376C85.4686 102.65 79.5795 106.188 73.0235 107.252Z" fill="#FF6700"/>
<path d="M2.32907 24.9153C2.32907 24.9153 6.24997 17.6856 9.38851 18.0109C12.527 18.3362 22.1246 17.7759 18.4857 21.9872C14.8468 26.1985 17.7034 29.5332 11.4263 28.8916L8.28775 28.5753C8.28775 28.5753 3.73914 41.8508 27.9377 53.4544C27.9377 53.4544 31.0763 53.7707 27.7831 54.9636C19.7957 55.6776 -4.39376 44.0739 2.32907 24.9153Z" fill="#001968"/>
<path d="M37.6625 37.0521C38.6177 10.4198 62.043 9.03708 66.7736 9.03708C71.5041 9.03708 94.9113 10.3836 95.8847 37.0521C95.9822 43.3883 94.7426 49.6745 92.2458 55.5059L98.441 61.371C101.907 53.2376 104.409 43.8661 104.154 36.7629C103.881 29.1808 102.062 22.6018 98.6957 17.2066C95.8653 12.6487 91.9187 8.87743 87.2241 6.24462C80.9461 2.80567 73.9062 0.970367 66.7372 0.903687C59.5709 0.968838 52.5336 2.80428 46.2594 6.24462C41.5749 8.88989 37.6409 12.6704 34.8242 17.2337C31.5128 22.656 29.6934 29.2079 29.4205 36.79C29.1657 43.8932 30.7214 51.5025 34.0418 59.3828C34.5695 60.6299 35.5429 62.5187 36.3889 64.1634L42.1565 57.4218C38.9816 50.1921 37.4351 43.3148 37.6625 37.0521Z" fill="#001968"/>
<path d="M36.2433 65.7992L35.6247 64.6153C34.715 62.9163 33.7325 61.0005 33.2049 59.7624C29.8298 51.7284 28.2469 43.9836 28.5107 36.7539C28.7836 29.0182 30.6486 22.2945 34.0509 16.7638C36.9399 12.0565 40.984 8.15425 45.8045 5.42226C52.2192 1.92086 59.4091 0.057619 66.7281 0C74.0467 0.0606343 81.2359 1.92368 87.6517 5.42226C92.4837 8.14867 96.5378 12.0516 99.4326 16.7638C102.835 22.2945 104.709 29.0182 104.982 36.7539C105.218 43.3962 103.117 52.5056 99.2051 61.7506L98.6866 62.9615L91.0904 55.7318L91.3178 55.1625C93.7879 49.4562 95.0274 43.2993 94.9567 37.0883C94.047 11.2783 71.304 9.97697 66.7554 9.97697C62.2068 9.97697 39.5183 11.2783 38.554 37.0883C38.3357 43.1522 39.8367 49.8758 43.0117 57.0513L43.2391 57.5754L36.2433 65.7992ZM66.7372 1.80742C59.7341 1.87227 52.857 3.66405 46.7233 7.02183C42.1693 9.59299 38.3449 13.2678 35.6065 17.7037C32.3679 22.9633 30.594 29.3977 30.3302 36.8172C30.0754 43.7938 31.6129 51.2766 34.8788 59.0665C35.2608 59.9702 35.9158 61.2716 36.5981 62.582L41.1467 57.2862C38.0082 50.0565 36.5344 43.2426 36.7619 37.0521C37.7353 9.57933 61.8611 8.19666 66.7372 8.19666C71.6133 8.19666 95.7573 9.57933 96.758 37.0521C96.8583 43.308 95.6663 49.5179 93.2556 55.2981L98.0498 59.8166C101.534 51.2314 103.399 42.8992 103.181 36.7991C102.917 29.3796 101.143 22.9452 97.9042 17.6856C95.1575 13.2549 91.327 9.58645 86.7692 7.02183C80.629 3.66398 73.746 1.8723 66.7372 1.80742Z" fill="#001968"/>
<path d="M8.24224 11.1247C8.24224 11.1247 3.83919 13.8359 1.75593 16.7277C1.75593 16.7277 -1.02782 20.5956 0.41864 17.2338C1.8651 13.872 7.96932 9.47095 7.96932 9.47095C7.96932 9.47095 10.5984 9.87762 8.24224 11.1247Z" fill="#001968"/>
<path d="M23.7165 24.7979C22.92 26.6328 21.8327 28.3292 20.4961 29.8225C20.4961 29.8225 18.0853 32.136 20.2869 30.7895C22.4884 29.443 24.9083 24.816 24.9083 24.816C24.9083 24.816 24.3351 23.0628 23.7165 24.7979Z" fill="#001968"/>
<path d="M58.6225 44.6975C58.3831 44.7108 58.1432 44.7108 57.9038 44.6975C56.6689 44.5575 55.5035 44.0569 54.5548 43.2591C53.6062 42.4612 52.917 41.4019 52.5742 40.215C52.2315 39.0281 52.2507 37.7669 52.6293 36.5909C53.008 35.4148 53.7291 34.3766 54.7016 33.6076C55.674 32.8386 56.8541 32.3732 58.0928 32.2703C59.3314 32.1674 60.573 32.4315 61.6605 33.0294C62.7481 33.6273 63.6328 34.532 64.2028 35.6292C64.7729 36.7265 65.0027 37.967 64.8632 39.1939C64.6788 40.71 63.9424 42.1067 62.7928 43.1206C61.6431 44.1344 60.1598 44.6953 58.6225 44.6975ZM58.6225 34.0066C57.4642 34.0725 56.3774 34.5844 55.593 35.4335C54.8085 36.2826 54.3883 37.4021 54.4214 38.5542C54.4546 39.7062 54.9386 40.8 55.7706 41.6032C56.6026 42.4064 57.7171 42.8558 58.8772 42.8558C60.0374 42.8558 61.1519 42.4064 61.9839 41.6032C62.8159 40.8 63.2999 39.7062 63.3331 38.5542C63.3662 37.4021 62.9459 36.2826 62.1615 35.4335C61.377 34.5844 60.2902 34.0725 59.132 34.0066H58.6225Z" fill="#001968"/>
<path d="M76.7259 44.3451C76.4835 44.3586 76.2405 44.3586 75.9981 44.3451C74.7608 44.2068 73.5924 43.7071 72.641 42.9091C71.6895 42.1111 70.9976 41.0508 70.6529 39.8622C70.3081 38.6736 70.3259 37.4101 70.704 36.2315C71.0822 35.053 71.8037 34.0123 72.7772 33.2411C73.7508 32.4699 74.9327 32.0029 76.1736 31.899C77.4144 31.7952 78.6583 32.0592 79.748 32.6578C80.8378 33.2563 81.7243 34.1624 82.2956 35.2615C82.8669 36.3606 83.0973 37.6033 82.9575 38.8325C82.7836 40.3552 82.053 41.7615 80.9042 42.7844C79.7555 43.8073 78.2686 44.3755 76.7259 44.3813V44.3451ZM76.7259 33.6542C75.5937 33.6707 74.5098 34.1128 73.6928 34.8916C72.8757 35.6703 72.3861 36.7278 72.3226 37.8508C72.2592 38.9739 72.6266 40.0792 73.3508 40.9438C74.0751 41.8085 75.1023 42.3684 76.2256 42.5106C76.806 42.5838 77.3952 42.5415 77.959 42.3864C78.5228 42.2312 79.0499 41.9663 79.5097 41.6069C79.9708 41.2448 80.3553 40.7957 80.641 40.2854C80.9267 39.7752 81.108 39.2138 81.1745 38.6337C81.2416 38.0538 81.1928 37.4665 81.0311 36.9053C80.8693 36.3442 80.5977 35.8203 80.2318 35.3636C79.8658 34.907 79.4128 34.5265 78.8986 34.244C78.3845 33.9615 77.8193 33.7826 77.2354 33.7175L76.7259 33.6542Z" fill="#001968"/>
<path d="M64.0263 39.3657C63.8611 39.366 63.6988 39.3215 63.5571 39.237C63.4154 39.1526 63.2995 39.0314 63.2218 38.8865C63.1442 38.7415 63.1078 38.5783 63.1165 38.4144C63.1252 38.2504 63.1787 38.0919 63.2713 37.9559C63.7128 37.306 64.2821 36.7516 64.945 36.3261C65.6079 35.9005 66.3506 35.6126 67.1285 35.4798C68.022 35.4202 68.9176 35.5625 69.7479 35.8959C70.5782 36.2293 71.3217 36.7451 71.9227 37.4047C72.0988 37.57 72.2016 37.7981 72.2084 38.0388C72.2153 38.2795 72.1256 38.513 71.9591 38.6879C71.7926 38.8629 71.563 38.965 71.3207 38.9718C71.0785 38.9785 70.8434 38.8894 70.6673 38.7241C70.2521 38.2522 69.7361 37.8783 69.1569 37.6297C68.5777 37.3811 67.95 37.2641 67.3195 37.2872C66.284 37.4947 65.3687 38.0901 64.7632 38.95C64.6836 39.0735 64.5748 39.1759 64.4465 39.2483C64.3181 39.3207 64.1739 39.361 64.0263 39.3657Z" fill="#001968"/>
</g>
<defs>
<clipPath id="clip0">
<rect width="105" height="113" fill="white"/>
</clipPath>
</defs>
</svg>
