<svg width="141" height="106" viewBox="0 0 141 106" fill="none" xmlns="http://www.w3.org/2000/svg">
<g clip-path="url(#clip0)">
<path d="M71.3715 49.1554C80.8742 49.1554 88.5776 41.5208 88.5776 32.103C88.5776 22.6851 80.8742 15.0505 71.3715 15.0505C61.8689 15.0505 54.1655 22.6851 54.1655 32.103C54.1655 41.5208 61.8689 49.1554 71.3715 49.1554Z" fill="#20CE88"/>
<path d="M89.4981 68.644C93.4387 63.3632 96.7527 57.6503 99.3748 51.6181C102.176 45.3358 103.572 38.5275 103.468 31.6601C103.227 24.9719 101.618 19.1697 98.6865 14.4127C96.1992 10.3838 92.7209 7.04628 88.5774 4.7127C83.0494 1.62351 76.8105 0.000427246 70.4642 0.000427246C64.1179 0.000427246 57.879 1.62351 52.3509 4.7127C48.2053 7.04261 44.7239 10.377 42.2329 14.4038C39.328 19.1697 37.6923 24.9719 37.451 31.6601C37.0935 41.4043 40.5793 52.0344 47.8014 63.3732C52.0777 69.938 56.9901 76.0735 62.469 81.6925C62.469 81.6925 63.1125 82.224 63.0142 86.1217C63.0206 90.3117 62.7639 94.498 62.2455 98.6564C62.183 99.2942 61.9237 99.4714 61.6288 99.5422L50.0091 98.7095C48.742 98.2469 47.355 98.2189 46.0699 98.63C44.7849 99.0412 43.6761 99.8677 42.9212 100.977C38.8543 106.842 48.5701 106.027 48.5701 106.027H66.9649C68.1715 106.089 68.8687 104.875 69.0386 104.113C69.4625 101.872 69.7313 99.605 69.843 97.3276C69.9547 99.605 70.2235 101.872 70.6474 104.113C70.8173 104.875 71.5412 106.089 72.7211 106.027H91.1159C91.1159 106.027 100.832 106.842 96.7648 100.977C96.0099 99.8677 94.9011 99.0412 93.6161 98.63C92.331 98.2189 90.9439 98.2469 89.6768 98.7095L78.0572 99.5422C77.7622 99.5422 77.503 99.3208 77.4405 98.6564C76.9285 94.5657 76.6718 90.4475 76.6718 86.3254V85.5016V84.288C77.0594 83.3712 77.6105 82.531 78.2985 81.8076C82.3332 77.6807 86.0753 73.2823 89.4981 68.644ZM71.5055 78.3794L70.4865 79.3539L68.9492 77.9542C60.869 69.8399 44.0563 50.6702 44.7356 31.8904C45.5847 8.41552 66.3213 7.22849 70.4687 7.22849C74.616 7.22849 95.3347 8.41552 96.1749 31.8904C96.5235 41.422 92.1706 52.6545 83.5899 64.3831C79.9329 69.3511 75.8926 74.0306 71.5055 78.3794Z" fill="#001968"/>
<path d="M132.151 80.4878C134.644 77.1453 136.744 73.5312 138.408 69.7159C140.177 65.742 141.059 61.4358 140.991 57.0926C140.95 53.2603 139.91 49.5036 137.97 46.1879C136.396 43.6404 134.198 41.5286 131.579 40.049C128.083 38.0978 124.138 37.0728 120.125 37.0728C116.112 37.0728 112.167 38.0978 108.671 40.049C106.047 41.5249 103.845 43.6373 102.271 46.1879C100.316 49.4991 99.2628 53.2567 99.214 57.0926C98.9995 63.2935 101.198 70.0082 105.766 77.1481C108.471 81.2977 111.575 85.1781 115.035 88.7349C115.035 88.7349 115.446 89.0716 115.383 91.5165C115.387 94.1813 115.226 96.8438 114.901 99.4891C114.901 99.8877 114.695 99.994 114.507 100.029L107.187 99.4979C106.387 99.2106 105.513 99.1956 104.704 99.4555C103.894 99.7154 103.196 100.235 102.718 100.933C100.153 104.645 106.293 104.122 106.293 104.122H117.913C118.672 104.122 119.119 103.396 119.227 102.908C119.49 101.492 119.661 100.06 119.736 98.621C119.807 100.06 119.977 101.492 120.246 102.908C120.353 103.396 120.791 104.157 121.551 104.122H133.17C133.17 104.122 139.311 104.645 136.745 100.933C136.269 100.234 135.57 99.7133 134.76 99.4533C133.95 99.1932 133.076 99.209 132.276 99.4979L124.956 100.029C124.759 100.029 124.598 99.8877 124.563 99.4891C124.24 96.8999 124.076 94.2937 124.071 91.6848V91.171V90.4003C124.315 89.8202 124.663 89.2889 125.099 88.8324C127.64 86.2145 129.996 83.4263 132.151 80.4878ZM120.782 86.6355L120.138 87.2556L119.155 86.3697C114.051 81.2407 103.415 69.0958 103.844 57.2609C104.38 42.3965 117.493 41.6347 120.12 41.6347C122.748 41.6347 135.843 42.3876 136.379 57.2521C136.594 63.2758 133.841 70.3803 128.415 77.7948C126.108 80.9348 123.555 83.8908 120.782 86.6355Z" fill="#001968"/>
<path d="M40.4453 86.6443C42.322 84.1308 43.8996 81.411 45.1468 78.5389C46.4815 75.5503 47.1463 72.3104 47.0953 69.0426C47.0674 66.1557 46.2819 63.3257 44.8161 60.8309C43.637 58.9108 41.9815 57.3219 40.0073 56.2156C37.3676 54.7709 34.4063 54.0006 31.3909 53.9744C28.3727 54.0003 25.4084 54.7705 22.7656 56.2156C20.7947 57.3263 19.1402 58.9142 17.9568 60.8309C16.4899 63.3253 15.7043 66.1556 15.6776 69.0426C15.5078 73.6844 17.1703 78.7869 20.6025 84.102C22.6392 87.2246 24.9771 90.1439 27.5833 92.8186C27.5833 92.8186 27.8872 93.0667 27.8425 94.9092C27.8476 96.9022 27.7252 98.8934 27.476 100.871C27.476 101.181 27.324 101.261 27.181 101.287L21.6751 100.889C21.0713 100.667 20.4097 100.653 19.7969 100.849C19.184 101.045 18.6556 101.44 18.2965 101.969C16.3658 104.76 20.9779 104.37 20.9779 104.37H29.7284C30.3094 104.37 30.6222 103.83 30.7206 103.484C30.9169 102.415 31.0452 101.336 31.1049 100.251C31.1554 101.336 31.2839 102.417 31.4892 103.484C31.5697 103.847 31.9004 104.423 32.4724 104.37H41.2229C41.2229 104.37 45.8529 104.76 43.9044 101.969C43.5468 101.44 43.0199 101.046 42.4086 100.85C41.7973 100.654 41.1372 100.668 40.5347 100.889L35.0198 101.287C34.8768 101.287 34.7606 101.181 34.7249 100.871C34.4816 98.9255 34.3592 96.967 34.3584 95.0067V94.6169V94.0411C34.5431 93.6021 34.8065 93.1999 35.136 92.8541C37.049 90.9088 38.8231 88.8338 40.4453 86.6443ZM31.8915 91.2418L31.4088 91.7025L30.6669 91.0292C26.8146 87.2113 18.8238 78.0871 19.1456 69.1666C19.5478 57.9784 29.4156 57.4115 31.3909 57.4115C33.3663 57.4115 43.2251 57.9784 43.6273 69.1666C43.7882 73.6933 41.7235 79.0438 37.6387 84.6246C35.9013 86.9765 33.9796 89.1891 31.8915 91.2418Z" fill="#001968"/>
<path d="M9.93921 57.4292L12.0397 57.5178L11.7447 55.0463L10.3504 54.9932L9.93921 57.4292Z" fill="#20CE88"/>
<path d="M11.5661 76.4926C11.4694 76.4939 11.3744 76.4679 11.2921 76.4177C11.2098 76.3675 11.1436 76.2952 11.1013 76.2091C11.0389 76.0857 11.0284 75.9428 11.0719 75.8117C11.1154 75.6806 11.2095 75.5719 11.3337 75.5093C11.3784 75.5093 11.4588 75.3853 11.5303 75.1372C11.74 73.5465 11.4265 71.9311 10.6365 70.5308C9.63541 69.0515 10.2253 67.5898 10.7527 66.2965C10.8689 65.9953 10.994 65.6941 11.1013 65.4107C11.5661 64.0287 11.6018 63.7719 10.2075 62.886C10.0034 62.7573 9.83138 62.5844 9.70443 62.3804C9.57748 62.1763 9.49887 61.9464 9.47452 61.7078C9.34045 60.3082 10.994 58.6251 11.1817 58.4302C11.2813 58.3327 11.4158 58.2784 11.5558 58.2792C11.6958 58.2801 11.8297 58.336 11.9281 58.4346C12.0264 58.5333 12.0812 58.6667 12.0804 58.8054C12.0796 58.9441 12.0231 59.0768 11.9236 59.1743C11.3426 59.7413 10.4577 60.946 10.5292 61.6104C10.5355 61.6941 10.5625 61.7751 10.6077 61.8461C10.6528 61.9172 10.7149 61.9761 10.7884 62.0179C12.5761 63.1872 12.6565 63.9402 12.0487 65.7473C11.9415 66.0662 11.8163 66.3851 11.6823 66.7129C11.1996 67.9176 10.7884 68.954 11.4588 69.9816C12.4189 71.6218 12.7906 73.5357 12.5135 75.4118C12.4728 75.6252 12.3863 75.8273 12.2598 76.0046C12.1333 76.1819 11.9699 76.3302 11.7806 76.4394C11.7131 76.4704 11.6403 76.4884 11.5661 76.4926Z" fill="#001968"/>
<path d="M11.0476 55.126C17.149 55.126 22.0952 49.1769 22.0952 41.8384C22.0952 34.4998 17.149 28.5507 11.0476 28.5507C4.94618 28.5507 0 34.4998 0 41.8384C0 49.1769 4.94618 55.126 11.0476 55.126Z" fill="#20CE88"/>
<path d="M69.4586 40.5628C68.9996 40.5633 68.5579 40.3889 68.2252 40.0756L61.2176 33.4406C61.036 33.2831 60.8885 33.0908 60.7839 32.8753C60.6793 32.6598 60.6198 32.4255 60.609 32.1866C60.5982 31.9477 60.6363 31.7091 60.721 31.4852C60.8058 31.2612 60.9354 31.0566 61.102 30.8837C61.2687 30.7107 61.4689 30.573 61.6907 30.4788C61.9126 30.3846 62.1513 30.3359 62.3926 30.3356C62.6339 30.3353 62.8728 30.3834 63.0948 30.4771C63.3169 30.5707 63.5175 30.708 63.6845 30.8805L69.3961 36.3196L80.2738 24.9808C80.4323 24.8008 80.6258 24.6544 80.8428 24.5505C81.0597 24.4465 81.2957 24.3871 81.5364 24.3758C81.7771 24.3645 82.0177 24.4016 82.2436 24.4848C82.4695 24.568 82.6761 24.6956 82.8509 24.8599C83.0258 25.0243 83.1653 25.222 83.2612 25.4411C83.357 25.6603 83.4071 25.8964 83.4085 26.1352C83.4099 26.3741 83.3625 26.6107 83.2693 26.831C83.1761 27.0512 83.0388 27.2505 82.8659 27.4169L70.7547 40.0136C70.5927 40.1821 70.3988 40.3173 70.1841 40.4115C69.9694 40.5058 69.7381 40.5572 69.5033 40.5628H69.4586Z" fill="#001968"/>
<path d="M35.3864 75.093C33.6558 75.0741 31.9686 74.5537 30.5329 73.5959C30.4337 73.5336 30.3479 73.4527 30.2803 73.3575C30.2127 73.2624 30.1647 73.155 30.1389 73.0415C30.1132 72.928 30.1103 72.8106 30.1303 72.6959C30.1504 72.5813 30.193 72.4717 30.2558 72.3734C30.3186 72.2751 30.4004 72.19 30.4963 72.123C30.5923 72.056 30.7007 72.0084 30.8152 71.9829C30.9297 71.9574 31.0482 71.9545 31.1639 71.9744C31.2795 71.9943 31.3901 72.0366 31.4893 72.0988C32.7972 73.0017 34.3783 73.4319 35.968 73.3174C37.5577 73.2029 39.0595 72.5507 40.2219 71.4699C40.305 71.3868 40.4039 71.3209 40.5128 71.2759C40.6217 71.231 40.7385 71.2078 40.8565 71.2078C40.9745 71.2078 41.0914 71.231 41.2003 71.2759C41.3092 71.3209 41.4081 71.3868 41.4911 71.4699C41.6576 71.6358 41.7511 71.8604 41.7511 72.0944C41.7511 72.3284 41.6576 72.5529 41.4911 72.7189C39.8063 74.2052 37.6416 75.0471 35.3864 75.093Z" fill="#001968"/>
<path d="M113.354 64.4008C111.378 64.3803 109.466 63.707 107.92 62.4874C107.826 62.4176 107.747 62.3302 107.687 62.2301C107.627 62.13 107.588 62.0192 107.571 61.904C107.555 61.7888 107.561 61.6716 107.59 61.5589C107.619 61.4462 107.671 61.3403 107.741 61.2472C107.811 61.1542 107.9 61.0757 108.001 61.0165C108.102 60.9572 108.213 60.9182 108.33 60.9018C108.446 60.8853 108.564 60.8917 108.678 60.9206C108.792 60.9495 108.898 61.0003 108.992 61.0701C110.257 62.0653 111.824 62.607 113.439 62.607C115.054 62.607 116.621 62.0653 117.886 61.0701C118.069 60.9391 118.296 60.8818 118.52 60.9096C118.744 60.9375 118.949 61.0485 119.094 61.2202C119.239 61.3919 119.313 61.6117 119.301 61.8353C119.289 62.0589 119.192 62.2697 119.03 62.4254C117.399 63.6662 115.41 64.3583 113.354 64.4008Z" fill="#001968"/>
<path d="M119.137 56.9243C120.223 56.9243 121.103 56.0518 121.103 54.9755C121.103 53.8991 120.223 53.0266 119.137 53.0266C118.051 53.0266 117.171 53.8991 117.171 54.9755C117.171 56.0518 118.051 56.9243 119.137 56.9243Z" fill="#20CE88"/>
<path d="M109.761 56.5522C110.847 56.5522 111.727 55.6797 111.727 54.6034C111.727 53.5271 110.847 52.6545 109.761 52.6545C108.675 52.6545 107.795 53.5271 107.795 54.6034C107.795 55.6797 108.675 56.5522 109.761 56.5522Z" fill="#20CE88"/>
<path d="M38.5863 67.8024C39.6723 67.8024 40.5527 66.9299 40.5527 65.8536C40.5527 64.7773 39.6723 63.9047 38.5863 63.9047C37.5003 63.9047 36.6199 64.7773 36.6199 65.8536C36.6199 66.9299 37.5003 67.8024 38.5863 67.8024Z" fill="#20CE88"/>
<path d="M30.2379 69.4501C31.3239 69.4501 32.2043 68.5776 32.2043 67.5013C32.2043 66.425 31.3239 65.5524 30.2379 65.5524C29.1519 65.5524 28.2715 66.425 28.2715 67.5013C28.2715 68.5776 29.1519 69.4501 30.2379 69.4501Z" fill="#20CE88"/>
</g>
<defs>
<clipPath id="clip0">
<rect width="141" height="106" fill="white"/>
</clipPath>
</defs>
</svg>
