<svg width="82" height="124" viewBox="0 0 82 124" fill="none" xmlns="http://www.w3.org/2000/svg">
<g clip-path="url(#clip0)">
<path d="M34.687 50.8217C35.8717 49.8922 37.3348 49.3868 38.8415 49.3868C40.3483 49.3868 41.8114 49.8922 42.9961 50.8217" fill="white"/>
<path d="M42.9962 51.7213C42.8012 51.7213 42.6115 51.6582 42.4555 51.5414C41.4305 50.7284 40.1599 50.2858 38.8507 50.2858C37.5415 50.2858 36.2709 50.7284 35.2459 51.5414C35.1548 51.6172 35.0497 51.6742 34.9365 51.7094C34.8233 51.7445 34.7043 51.757 34.5862 51.7461C34.4682 51.7352 34.3535 51.7012 34.2486 51.646C34.1438 51.5908 34.0509 51.5155 33.9752 51.4244C33.8248 51.2414 33.7527 51.0064 33.7746 50.7707C33.7965 50.5349 33.9107 50.3172 34.0924 50.1649C35.4328 49.1023 37.094 48.5239 38.8056 48.5239C40.5173 48.5239 42.1785 49.1023 43.5189 50.1649C43.7101 50.3081 43.8365 50.5212 43.8703 50.7574C43.9041 50.9936 43.8425 51.2336 43.6991 51.4244C43.6109 51.5223 43.5022 51.5995 43.3807 51.6508C43.2592 51.7021 43.128 51.7262 42.9962 51.7213Z" fill="#001968"/>
<path d="M28.8384 124C28.4075 124.001 27.977 123.974 27.5497 123.919C22.2507 123.226 20.7997 121.787 20.4843 121.355L20.3942 121.211L12.2834 106.727C12.0185 106.273 11.9378 105.735 12.0581 105.224C12.1368 104.921 12.2786 104.638 12.4743 104.393C12.6699 104.148 12.915 103.947 13.1936 103.803L13.3018 103.749L16.4199 102.309C19.7269 100.747 22.9007 98.9174 25.9095 96.8394L32.7406 105.143C30.4606 106.718 28.2346 108.112 26.0267 109.372L27.7119 112.385C27.8464 112.611 28.0437 112.792 28.2797 112.907H28.4059L30.803 113.618L30.9202 113.681C31.0554 113.744 34.0293 115.363 34.1195 119.772C34.1539 120.316 34.0657 120.861 33.8614 121.367C33.6571 121.873 33.3419 122.327 32.9389 122.696C31.7675 123.597 30.3162 124.058 28.8384 124Z" fill="#001968"/>
<path d="M61.4519 121.562C60.638 121.552 59.8415 121.325 59.1449 120.905C56.1889 119.106 51.2323 114.958 43.9957 108.31C39.0031 103.713 34.398 99.1334 33.7761 98.5037C27.081 92.3308 21.0079 85.5178 15.644 78.1624C11.2443 72.2336 7.5487 65.815 4.63139 59.0356C1.32399 51.1276 -0.226068 43.4985 -0.000768706 36.3642C0.269591 28.7171 2.10803 22.0686 5.45148 16.5717C8.33183 11.9213 12.3474 8.07666 17.122 5.39795C23.4139 1.92666 30.4718 0.0716957 37.6603 0C44.8669 0.06464 51.9439 1.91977 58.2527 5.39795C63.0042 8.09393 66.9944 11.9473 69.8511 16.5987C73.2035 22.0686 75.042 28.7171 75.3123 36.3912C75.7089 47.466 71.8067 59.5394 63.7229 72.2876C59.3612 79.0131 54.4059 85.3359 48.9163 91.1804L40.8055 84.1991C49.9617 74.4468 65.264 55.311 64.5971 36.7421C63.7139 11.9565 42.0041 10.7059 37.6603 10.7059C33.3165 10.7059 11.6247 11.9565 10.7415 36.7421C10.372 46.9892 15.0673 59.1436 24.3316 71.8828C29.2704 78.6679 34.8734 84.9455 41.0578 90.6227L41.2741 90.8296C41.4634 91.0185 46.0144 95.5708 51.0431 100.204C54.2828 103.318 57.7011 106.24 61.2807 108.958L68.8778 99.8621C69.6093 98.2614 70.8545 96.9499 72.4166 96.1352C73.9787 95.3205 75.7683 95.049 77.5023 95.3639C79.9625 95.7687 81.4405 96.7763 81.8911 98.3687C82.7923 101.5 78.8631 105.206 77.9529 106.016L63.9843 120.491C63.6665 120.844 63.2749 121.123 62.8374 121.308C62.3998 121.493 61.9268 121.58 61.4519 121.562Z" fill="#001968"/>
<path d="M32.9747 27.0078L19.2946 24.8846L18.6187 22.2396L32.2988 24.3718L32.9747 27.0078Z" fill="#001968"/>
<path d="M44.1406 26.5309L57.8208 24.3987L58.4967 21.7627L44.8165 23.8859L44.1406 26.5309Z" fill="#001968"/>
<path d="M58.0102 30.5884C55.6212 29.1071 52.8339 28.3942 50.0256 28.5462C47.2499 28.7351 40.4729 30.0846 40.4729 30.0846C39.7824 30.2461 39.0725 30.3097 38.3641 30.2735C37.7304 30.3045 37.0955 30.2408 36.4806 30.0846C36.4806 30.0846 29.6946 28.7351 26.9189 28.5462C24.1073 28.3894 21.3158 29.1026 18.9253 30.5884C9.0121 38.6853 15.5278 46.3684 15.5278 46.3684C15.5278 46.3684 17.222 49.9671 23.5484 50.174C29.8748 50.3809 36.4265 44.6771 36.4265 44.6771C37.0264 44.1089 37.7141 43.641 38.4633 43.2916C39.227 43.6326 39.9324 44.091 40.554 44.6501C40.554 44.6501 47.0607 50.3809 53.3871 50.147C59.7135 49.9131 61.3987 46.3414 61.3987 46.3414C61.3987 46.3414 67.8784 38.6853 58.0102 30.5884ZM32.0017 40.1428C30.3958 40.9893 28.6434 41.5236 26.8378 41.7172C26.8378 41.7172 22.5571 41.7622 20.1599 39.1441C20.0966 38.9702 20.0886 38.7809 20.1369 38.6022C20.1853 38.4235 20.2878 38.264 20.4303 38.1455C22.1803 36.7007 24.4072 35.9597 26.6756 36.0673C28.7119 36.2501 30.6462 37.04 32.227 38.3345C32.227 38.3345 32.8488 38.6763 32.8127 39.2341C32.7767 39.7919 32.0017 40.1428 32.0017 40.1428ZM56.7756 39.1441C54.3874 41.7622 50.1067 41.7172 50.1067 41.7172C48.3011 41.5236 46.5487 40.9893 44.9429 40.1428C44.9429 40.1428 44.1678 39.7559 44.1318 39.2431C44.0957 38.7303 44.7086 38.3435 44.7086 38.3435C46.2894 37.049 48.2236 36.2591 50.2599 36.0763C52.5271 35.9662 54.7539 36.704 56.5052 38.1455C56.6477 38.264 56.7502 38.4235 56.7986 38.6022C56.847 38.7809 56.8389 38.9702 56.7756 39.1441Z" fill="#FF0B0B"/>
</g>
<defs>
<clipPath id="clip0">
<rect width="82" height="124" fill="white"/>
</clipPath>
</defs>
</svg>
