<svg width="83" height="125" viewBox="0 0 83 125" fill="none" xmlns="http://www.w3.org/2000/svg">
<g clip-path="url(#clip0)">
<path d="M35.1101 51.2316C36.3092 50.2945 37.7901 49.7852 39.3153 49.7852C40.8404 49.7852 42.3214 50.2945 43.5205 51.2316" fill="white"/>
<path d="M43.5206 52.1385C43.3232 52.1385 43.1312 52.0748 42.9733 51.9571C41.9357 51.1375 40.6496 50.6914 39.3245 50.6914C37.9994 50.6914 36.7133 51.1375 35.6758 51.9571C35.5836 52.0335 35.4772 52.091 35.3626 52.1264C35.248 52.1618 35.1275 52.1744 35.0081 52.1634C34.8886 52.1525 34.7724 52.1182 34.6663 52.0626C34.5602 52.0069 34.4661 51.931 34.3896 51.8392C34.2373 51.6546 34.1643 51.4178 34.1865 51.1801C34.2087 50.9424 34.3243 50.723 34.5082 50.5695C35.8649 49.4983 37.5464 48.9153 39.2789 48.9153C41.0114 48.9153 42.6929 49.4983 44.0496 50.5695C44.2028 50.6837 44.3159 50.8429 44.373 51.0246C44.4301 51.2063 44.4282 51.4013 44.3677 51.5818C44.3072 51.7624 44.191 51.9195 44.0357 52.0308C43.8804 52.1421 43.6938 52.202 43.5023 52.202L43.5206 52.1385Z" fill="#001968"/>
<path d="M29.19 125C28.7538 125.001 28.3181 124.974 27.8855 124.918C22.5219 124.22 21.0533 122.769 20.734 122.334L20.6428 122.189L12.4331 107.587C12.1649 107.13 12.0833 106.588 12.205 106.073C12.2847 105.767 12.4282 105.481 12.6262 105.235C12.8243 104.988 13.0724 104.785 13.3544 104.64L13.4638 104.585L16.62 103.134C19.9674 101.559 23.1798 99.715 26.2254 97.6202L33.1397 105.991C30.8319 107.578 28.5788 108.984 26.3439 110.254L28.0497 113.292C28.1858 113.519 28.3855 113.702 28.6244 113.818H28.7521L31.1785 114.534L31.2971 114.598C31.434 114.661 34.4442 116.294 34.5354 120.737C34.5702 121.286 34.481 121.836 34.2742 122.346C34.0674 122.856 33.7484 123.314 33.3404 123.685C32.1548 124.593 30.6857 125.059 29.19 125Z" fill="#001968"/>
<path d="M62.2016 122.542C61.3778 122.532 60.5716 122.304 59.8664 121.88C56.8744 120.066 51.8574 115.886 44.5325 109.183C39.479 104.549 34.8177 99.9329 34.1883 99.298C27.4115 93.0754 21.2644 86.2075 15.8351 78.7927C11.3817 72.8161 7.64103 66.3458 4.68814 59.5117C1.34041 51.5399 -0.228554 43.8493 -0.000507144 36.6575C0.273149 28.9487 2.13401 22.2466 5.51823 16.7054C8.43371 12.0174 12.4982 8.14179 17.3311 5.44149C23.6998 1.9422 30.8437 0.0722739 38.1198 0C45.4143 0.0651613 52.5777 1.93525 58.9633 5.44149C63.7728 8.1592 67.8117 12.0437 70.7032 16.7326C74.0965 22.2466 75.9574 28.9487 76.2311 36.6847C76.6324 47.8488 72.6826 60.0196 64.5003 72.8706C60.0854 79.6503 55.0697 86.0241 49.5131 91.9158L41.3034 84.8781C50.5712 75.0472 66.0602 55.7571 65.3851 37.0384C64.4912 12.0529 42.5166 10.7923 38.1198 10.7923C33.7231 10.7923 11.7667 12.0529 10.8728 37.0384C10.4988 47.3681 15.2513 59.6205 24.6286 72.4625C29.6276 79.3023 35.299 85.6305 41.5588 91.3535L41.7777 91.5621C41.9693 91.7525 46.5758 96.3415 51.6658 101.012C54.945 104.151 58.405 107.097 62.0283 109.836L69.718 100.667C70.4584 99.0539 71.7189 97.7318 73.3 96.9105C74.8811 96.0892 76.6926 95.8156 78.4477 96.1329C80.938 96.541 82.4339 97.5568 82.89 99.162C83.8022 102.318 79.8251 106.055 78.9038 106.871L64.7649 121.463C64.4432 121.819 64.0469 122.1 63.6039 122.286C63.161 122.473 62.6823 122.56 62.2016 122.542Z" fill="#001968"/>
<path d="M33.3769 27.2256L19.5298 25.0853L18.8457 22.4189L32.6927 24.5683L33.3769 27.2256Z" fill="#001968"/>
<path d="M44.679 26.7449L58.526 24.5955L59.2101 21.9382L45.3631 24.0785L44.679 26.7449Z" fill="#001968"/>
<path d="M58.7175 30.8351C56.2993 29.3419 53.478 28.6232 50.6355 28.7764C47.826 28.9669 40.9663 30.3273 40.9663 30.3273C40.2674 30.4901 39.5488 30.5542 38.8318 30.5177C38.1903 30.549 37.5477 30.4848 36.9253 30.3273C36.9253 30.3273 30.0566 28.9669 27.247 28.7764C24.4012 28.6184 21.5756 29.3373 19.1559 30.8351C9.12185 38.9974 15.717 46.7424 15.717 46.7424C15.717 46.7424 17.4319 50.3701 23.8354 50.5787C30.239 50.7873 36.8706 45.0374 36.8706 45.0374C37.4778 44.4647 38.1739 43.9931 38.9322 43.6408C39.7052 43.9846 40.4193 44.4467 41.0484 45.0102C41.0484 45.0102 47.6344 50.7873 54.038 50.5515C60.4416 50.3157 62.1473 46.7152 62.1473 46.7152C62.1473 46.7152 68.706 38.9974 58.7175 30.8351ZM32.3918 40.4666C30.7663 41.3199 28.9926 41.8585 27.1649 42.0537C27.1649 42.0537 22.832 42.099 20.4056 39.4599C20.3415 39.2845 20.3334 39.0937 20.3824 38.9135C20.4313 38.7334 20.535 38.5726 20.6793 38.4532C22.4506 36.9968 24.7047 36.2497 27.0007 36.3582C29.0619 36.5425 31.0197 37.3388 32.6198 38.6437C32.6198 38.6437 33.2492 38.9883 33.2127 39.5506C33.1762 40.1129 32.3918 40.4666 32.3918 40.4666ZM57.4678 39.4599C55.0505 42.099 50.7176 42.0537 50.7176 42.0537C48.89 41.8585 47.1162 41.3199 45.4908 40.4666C45.4908 40.4666 44.7063 40.0766 44.6698 39.5597C44.6333 39.0427 45.2536 38.6527 45.2536 38.6527C46.8537 37.3479 48.8115 36.5516 50.8727 36.3673C53.1675 36.2563 55.4215 37 57.1942 38.4532C57.3384 38.5726 57.4421 38.7334 57.4911 38.9135C57.54 39.0937 57.5319 39.2845 57.4678 39.4599Z" fill="#FF6700"/>
</g>
<defs>
<clipPath id="clip0">
<rect width="83" height="125" fill="white"/>
</clipPath>
</defs>
</svg>
