<svg width="88" height="126" viewBox="0 0 88 126" fill="none" xmlns="http://www.w3.org/2000/svg">
<g clip-path="url(#clip0)">
<path d="M47.3465 71.4664H33.1159C31.8723 71.4664 30.8643 72.4786 30.8643 73.7271V123.739C30.8643 124.988 31.8723 126 33.1159 126H47.3465C48.59 126 49.5981 124.988 49.5981 123.739V73.7271C49.5981 72.4786 48.59 71.4664 47.3465 71.4664Z" fill="#001968"/>
<path d="M47.3465 0H33.1159C31.8723 0 30.8643 1.01215 30.8643 2.26069V14.6632C30.8643 15.9118 31.8723 16.9239 33.1159 16.9239H47.3465C48.59 16.9239 49.5981 15.9118 49.5981 14.6632V2.26069C49.5981 1.01215 48.59 0 47.3465 0Z" fill="#001968"/>
<path d="M2.2517 23.5094H67.3973C67.6932 23.5087 67.9863 23.5667 68.2597 23.6802C68.5331 23.7937 68.7814 23.9604 68.9904 24.1706L87.3415 42.5957C87.5509 42.8057 87.7169 43.055 87.8303 43.3295C87.9436 43.6039 88.0019 43.8981 88.0019 44.1952C88.0019 44.4923 87.9436 44.7865 87.8303 45.0609C87.7169 45.3354 87.5509 45.5847 87.3415 45.7946L68.9904 64.2197C68.5661 64.6411 67.9941 64.8785 67.3973 64.881H2.58098C2.13615 64.8795 1.7017 64.7459 1.33245 64.4968C0.963199 64.2478 0.675701 63.8945 0.506234 63.4815C0.336767 63.0686 0.292924 62.6145 0.380239 62.1765C0.467554 61.7386 0.682113 61.3364 0.996841 61.0208L15.2986 46.6614C15.7092 46.2514 15.9459 45.6978 15.9591 45.1165C15.9724 44.5353 15.7612 43.9714 15.3698 43.5429L0.596356 27.2891C0.300026 26.9671 0.103788 26.5652 0.0317248 26.1327C-0.040338 25.7003 0.0149098 25.2561 0.190688 24.8548C0.366466 24.4534 0.655126 24.1123 1.02124 23.8733C1.38736 23.6343 1.81501 23.5078 2.2517 23.5094Z" fill="#20CE88"/>
</g>
<defs>
<clipPath id="clip0">
<rect width="88" height="126" fill="white"/>
</clipPath>
</defs>
</svg>
