<svg width="106" height="145" viewBox="0 0 106 145" fill="none" xmlns="http://www.w3.org/2000/svg">
<g clip-path="url(#clip0)">
<path d="M9.91526 102.949C10.6072 97.2176 13.2932 87.5085 21.2874 91.2868C26.6138 93.7935 24.6198 100.151 27.2147 104.456C27.368 104.716 27.6187 104.905 27.9115 104.981C28.2044 105.057 28.5154 105.013 28.7762 104.86C29.037 104.707 29.2262 104.457 29.3022 104.165C29.3782 103.873 29.3347 103.563 29.1814 103.303C27.2511 100.097 28.1616 95.9824 26.2769 92.7491C25.4468 91.4199 24.2998 90.3163 22.9384 89.5366C21.5769 88.7569 20.0432 88.3254 18.4739 88.2805C10.4798 88.0171 8.40383 96.6726 7.63901 102.949C7.46602 104.393 9.74226 104.384 9.91526 102.949Z" fill="#FF6700"/>
<path d="M32.7156 103.281L3.80999 102.889C1.8591 102.862 0.256057 104.418 0.229496 106.364L0.0016814 123.056C-0.0248788 125.002 1.5351 126.601 3.48599 126.628L32.3916 127.02C34.3425 127.047 35.9455 125.491 35.9721 123.545L36.1999 106.853C36.2264 104.907 34.6665 103.308 32.7156 103.281Z" fill="#FF6700"/>
<path d="M71.7836 98.5799C76.6259 92.0746 80.7014 85.0348 83.9296 77.5997C87.5716 68.9987 89.256 60.7246 89.0011 52.9955C88.7188 44.7487 86.7613 37.5555 83.183 31.7065C80.1469 26.7325 75.8959 22.6077 70.8276 19.7177C64.0343 15.9641 56.4132 13.9512 48.6479 13.8596C40.869 13.9151 33.2258 15.8969 26.4045 19.6269C21.3313 22.4993 17.0686 26.6046 14.0126 31.5612C10.3706 37.4193 8.41304 44.5762 8.10347 52.823C7.64822 64.848 11.882 78.0175 20.7047 91.968C25.9302 100.072 31.9311 107.652 38.6233 114.601C38.6233 114.601 39.4154 115.255 39.288 120.051C39.2827 125.212 38.9574 130.369 38.3137 135.491C38.2318 136.272 37.9222 136.49 37.5489 136.544L23.3634 135.491C21.8129 134.915 20.1133 134.876 18.5379 135.38C16.9625 135.884 15.6028 136.902 14.6773 138.27C9.67863 145.536 21.5788 144.5 21.5788 144.5H44.1227C45.5977 144.582 46.4536 143.093 46.663 142.157C47.188 139.392 47.5226 136.594 47.6645 133.783C47.8002 136.593 48.1257 139.391 48.6388 142.157C48.8482 143.065 49.695 144.591 51.17 144.519L73.7138 144.6C73.7138 144.6 85.614 145.636 80.6427 138.388C79.7218 137.017 78.3658 135.994 76.7923 135.483C75.2189 134.973 73.5191 135.004 71.9657 135.572L57.7711 136.571C57.4069 136.508 57.0973 136.299 57.0244 135.509C56.4071 130.461 56.103 125.381 56.114 120.296V119.288V117.789C56.5917 116.662 57.2669 115.629 58.1079 114.737C63.0294 109.668 67.5985 104.27 71.7836 98.5799ZM49.7405 110.532L48.484 111.713L46.5902 109.969C36.7113 99.9786 16.1614 76.2736 17.0445 53.1409C18.1371 24.159 43.5582 22.7513 48.6388 22.7603C53.7193 22.7694 79.104 24.2953 80.0782 53.2771C80.4697 65.0297 75.1069 78.8712 64.5998 93.3122C60.1002 99.4266 55.1322 105.184 49.7405 110.532Z" fill="#001968"/>
<path d="M75.1798 145C74.3513 145 73.7595 144.955 73.6866 144.945L51.17 144.864C49.5038 144.955 48.5478 143.338 48.3111 142.239C48.014 140.781 47.7982 139.307 47.6646 137.825C47.5172 139.306 47.2954 140.78 47 142.239C46.7541 143.338 45.7708 144.964 44.1046 144.855H21.5789C21.3422 144.855 15.0142 145.363 13.4573 142.675C12.7744 141.512 13.0931 139.95 14.3678 138.134C15.3341 136.713 16.7478 135.653 18.3853 135.124C20.0228 134.594 21.7905 134.624 23.409 135.209L37.5763 136.235C37.6583 136.235 37.9041 136.172 37.9678 135.482C38.6185 130.36 38.947 125.204 38.9512 120.042C39.0695 115.691 38.3958 114.883 38.3867 114.874C31.6747 107.902 25.6556 100.298 20.4135 92.1678C11.5634 78.1083 7.28411 64.9116 7.75756 52.8139C8.07624 44.5035 10.0793 37.2921 13.7213 31.3795C16.817 26.3703 21.1332 22.2241 26.268 19.3272C35.7189 13.8778 45.7708 13.5508 48.648 13.5236C56.481 13.6055 64.1699 15.6345 71.0189 19.4271C76.1298 22.3477 80.4151 26.513 83.4744 31.5339C87.1164 37.4556 89.0649 44.6761 89.3381 52.9865C89.6021 60.761 87.8904 69.0895 84.2484 77.7359C81.0115 85.1941 76.9237 92.2553 72.0659 98.7798L71.7837 98.5799L72.0659 98.7798C67.8799 104.491 63.3012 109.905 58.363 114.983C57.5655 115.816 56.9186 116.781 56.4509 117.835V119.288V120.323C56.4382 125.387 56.7423 130.447 57.3614 135.473C57.4251 136.181 57.671 136.217 57.8349 136.245L71.9294 135.245C73.5507 134.668 75.3186 134.645 76.9542 135.182C78.5897 135.718 79.9997 136.782 80.9615 138.206C82.2544 140.095 82.5639 141.639 81.872 142.802C80.7339 144.709 77.2193 145 75.1798 145ZM51.1518 144.183L73.7139 144.264C73.805 144.264 79.9053 144.773 81.2619 142.448C81.7991 141.54 81.4987 140.232 80.3514 138.588C79.4753 137.279 78.1857 136.3 76.6878 135.806C75.1898 135.313 73.5694 135.333 72.0841 135.863H71.984L57.7893 136.862C57.0883 136.762 56.7514 136.317 56.6694 135.5C56.0547 130.443 55.7506 125.353 55.7589 120.26V119.224V117.707C56.2507 116.52 56.9575 115.433 57.844 114.501C62.7625 109.444 67.3257 104.054 71.5014 98.371C76.3231 91.8911 80.386 84.8825 83.611 77.4816C87.253 68.926 88.9101 60.6974 88.6461 53.0137C88.3729 44.8396 86.4336 37.719 82.8826 31.8972C79.8849 26.9556 75.6771 22.8552 70.6547 19.9811C63.9152 16.2546 56.353 14.2572 48.648 14.1684H48.5842C40.8966 14.2284 33.3443 16.1914 26.6048 19.8812C21.5721 22.7193 17.3406 26.7809 14.304 31.6883C10.7258 37.501 8.75001 44.6034 8.44044 52.7957C7.98519 64.7481 12.2099 77.854 20.9962 91.7409C26.2078 99.8261 32.1935 107.388 38.8692 114.32C38.9967 114.42 39.7797 115.292 39.634 119.987C39.6247 125.17 39.2963 130.348 38.6507 135.491C38.5688 136.281 38.2228 136.726 37.6036 136.826L23.236 135.754C21.7583 135.192 20.1328 135.149 18.627 135.631C17.1212 136.113 15.8246 137.091 14.9505 138.406C13.8215 140.05 13.5119 141.349 14.04 142.275C15.3875 144.591 21.4879 144.092 21.5516 144.092H44.1228C45.3793 144.164 46.1441 142.847 46.3262 142.012C46.851 139.265 47.1856 136.485 47.3277 133.692H48.0106C48.144 136.484 48.4664 139.264 48.9757 142.012C49.1669 142.938 49.9044 144.273 51.1518 144.183ZM48.4203 112.258L48.1927 111.931L46.3717 110.242C37.1484 100.896 15.8155 76.6369 16.7077 53.1499C17.8186 23.9683 43.3216 22.4334 48.5751 22.4334H48.6297C53.7649 22.4334 79.4227 23.9864 80.4061 53.3134C80.8067 65.1205 75.4257 79.0619 64.8366 93.5574C60.3393 99.685 55.3712 105.455 49.9773 110.814L48.4203 112.258ZM48.566 23.1145C43.4126 23.1145 18.4468 24.6131 17.3633 53.1772C16.4528 76.419 37.6674 100.478 46.8179 109.751L48.475 111.268L49.4947 110.296C54.859 104.965 59.7997 99.2258 64.2721 93.1305C74.7701 78.7531 80.1147 64.9752 79.7505 53.3043C78.7581 24.6404 53.6557 23.1327 48.6297 23.1145H48.566Z" fill="#001968"/>
<path d="M48.3837 73.3037C59.7381 73.3037 68.9427 64.122 68.9427 52.7957C68.9427 41.4695 59.7381 32.2877 48.3837 32.2877C37.0293 32.2877 27.8247 41.4695 27.8247 52.7957C27.8247 64.122 37.0293 73.3037 48.3837 73.3037Z" fill="#FF6700"/>
<path d="M48.0196 56.9737C47.6398 56.9749 47.2635 56.9013 46.9122 56.7571C46.561 56.613 46.2417 56.4011 45.9728 56.1336C45.7038 55.8662 45.4904 55.5484 45.3448 55.1985C45.1991 54.8486 45.1242 54.4734 45.1242 54.0946V40.8707C45.1021 40.4784 45.1605 40.0857 45.2958 39.7167C45.4311 39.3477 45.6405 39.0101 45.9111 38.7246C46.1817 38.439 46.5078 38.2116 46.8696 38.0562C47.2314 37.9007 47.6211 37.8206 48.015 37.8206C48.4089 37.8206 48.7987 37.9007 49.1604 38.0562C49.5222 38.2116 49.8483 38.439 50.119 38.7246C50.3896 39.0101 50.5989 39.3477 50.7342 39.7167C50.8695 40.0857 50.9279 40.4784 50.9058 40.8707V54.0946C50.9058 54.8582 50.6017 55.5905 50.0605 56.1304C49.5192 56.6704 48.7851 56.9737 48.0196 56.9737Z" fill="#001968"/>
<path d="M48.0197 68.4356C47.6399 68.4368 47.2636 68.3632 46.9123 68.219C46.5611 68.0749 46.2418 67.863 45.9729 67.5955C45.7039 67.3281 45.4905 67.0103 45.3448 66.6604C45.1992 66.3105 45.1243 65.9353 45.1243 65.5565V63.5765C45.1657 62.8397 45.4884 62.1467 46.026 61.6397C46.5635 61.1327 47.2753 60.8502 48.0151 60.8502C48.7549 60.8502 49.4666 61.1327 50.0042 61.6397C50.5418 62.1467 50.8645 62.8397 50.9059 63.5765V65.5474C50.9071 65.9262 50.8334 66.3016 50.6888 66.652C50.5443 67.0023 50.3319 67.3208 50.0638 67.5891C49.7956 67.8574 49.4771 68.0703 49.1263 68.2156C48.7755 68.3608 48.3994 68.4356 48.0197 68.4356Z" fill="#001968"/>
<path d="M47.874 85.7012C47.0376 85.698 46.2106 85.5249 45.4435 85.1923C44.6764 84.8597 43.9854 84.3746 43.4125 83.7667C40.244 80.5969 36.1286 83.5578 35.9282 83.6849C35.6944 83.8249 35.4166 83.8726 35.1493 83.8186C34.882 83.7647 34.6447 83.613 34.4838 83.3933C34.3229 83.1737 34.2502 82.902 34.28 82.6316C34.3097 82.3612 34.4397 82.1117 34.6444 81.932C36.6475 80.4788 41.373 78.6714 44.9422 82.2317C47.8466 85.129 51.3156 82.3226 51.8892 81.8684C52.8719 80.6428 54.2971 79.8503 55.859 79.6614C56.7929 79.6379 57.7203 79.8222 58.5739 80.2008C59.4275 80.5794 60.1858 81.1429 60.7939 81.8503C60.9043 81.9481 60.9934 82.0674 61.0559 82.2009C61.1184 82.3343 61.1528 82.4791 61.1572 82.6263C61.1615 82.7736 61.1357 82.9201 61.0812 83.057C61.0267 83.1939 60.9447 83.3182 60.8403 83.4224C60.7359 83.5265 60.6112 83.6083 60.474 83.6627C60.3368 83.717 60.1899 83.7428 60.0423 83.7385C59.8947 83.7341 59.7495 83.6998 59.6157 83.6375C59.482 83.5751 59.3624 83.4862 59.2643 83.3761C58.8721 82.8995 58.3807 82.5138 57.8241 82.2456C57.2675 81.9774 56.6591 81.8332 56.0411 81.823C55.0568 81.9601 54.165 82.475 53.5555 83.258C53.5148 83.3136 53.4691 83.3653 53.4189 83.4124C51.9001 84.8055 49.9355 85.6165 47.874 85.7012Z" fill="#001968"/>
<path d="M91.4047 59.8255C92.2605 58.999 93.0709 58.1725 93.8539 57.337C98.3867 52.6833 101.856 47.1062 104.024 40.9887C105.96 35.5862 106.462 29.7759 105.481 24.1227C104.609 19.7408 102.639 15.6506 99.7539 12.2339C95.8991 7.69282 90.9346 4.22095 85.3408 2.15412C79.7469 0.0872949 73.7131 -0.504523 67.8228 0.435914C63.4039 1.15818 59.2407 2.98618 55.7223 5.7491C53.6968 7.35214 51.8989 9.22201 50.3777 11.3075L58.2717 12.6426C67.5223 3.63291 80.0417 7.47475 82.9644 8.55555C86.6063 9.89974 104.498 17.6924 97.5323 38.818C96.148 42.7839 94.0703 46.4739 91.3955 49.7168L91.4047 59.8255Z" fill="#FF6700"/>
<path d="M94.5914 64.6754C93.6809 63.4584 93.171 65.284 93.171 65.284C92.5336 71.4872 88.4455 75.2746 87.2528 74.8023C86.3752 74.4708 85.5456 74.0249 84.7853 73.4763L80.4514 68.5718C80.1048 68.1671 79.6114 67.9163 79.0795 67.8746C78.5476 67.8328 78.0209 68.0036 77.6152 68.3493C77.2095 68.6949 76.9581 69.1872 76.9162 69.7177C76.8744 70.2483 77.0456 70.7737 77.3921 71.1784L78.9855 72.9949H66.6664C66.2487 72.9949 65.848 73.1604 65.5526 73.4551C65.2572 73.7498 65.0913 74.1494 65.0913 74.5661C65.0913 74.9829 65.2572 75.3825 65.5526 75.6772C65.848 75.9718 66.2487 76.1374 66.6664 76.1374H72.9398C72.9398 76.1374 73.7137 76.1374 73.7319 76.4553C73.7501 76.7731 72.9398 76.7913 72.9398 76.7913H65.3735C65.1572 76.7749 64.9398 76.8032 64.735 76.8745C64.5302 76.9457 64.3423 77.0585 64.1832 77.2055C64.0241 77.3526 63.8971 77.5309 63.8103 77.7292C63.7235 77.9276 63.6787 78.1416 63.6787 78.358C63.6787 78.5744 63.7235 78.7885 63.8103 78.9868C63.8971 79.1851 64.0241 79.3634 64.1832 79.5105C64.3423 79.6576 64.5302 79.7703 64.735 79.8416C64.9398 79.9129 65.1572 79.9412 65.3735 79.9247H72.9398C72.9398 79.9247 73.5771 79.9247 73.6044 80.2335C73.6317 80.5423 72.9671 80.5423 72.9398 80.4969L66.8941 80.6786C66.6781 80.6697 66.4626 80.7052 66.2609 80.7829C66.0593 80.8607 65.8759 80.979 65.7221 81.1306C65.5683 81.2821 65.4474 81.4636 65.3669 81.6638C65.2865 81.8639 65.2482 82.0784 65.2545 82.294C65.2607 82.5095 65.3114 82.7215 65.4033 82.9167C65.4953 83.1118 65.6265 83.286 65.7888 83.4284C65.9512 83.5708 66.1412 83.6784 66.347 83.7444C66.5528 83.8103 66.77 83.8334 66.9851 83.812L72.9398 83.6394C72.9398 83.6394 73.4587 83.5849 73.5225 83.8029C73.5862 84.0209 72.9398 84.0754 72.9398 84.0754L69.1976 84.3206C68.9918 84.3344 68.7907 84.3887 68.606 84.4802C68.4212 84.5718 68.2564 84.6989 68.1211 84.8542C67.9857 85.0095 67.8824 85.1899 67.8172 85.3851C67.7519 85.5803 67.726 85.7865 67.7408 85.9917C67.7547 86.1971 67.8091 86.3976 67.9009 86.5819C67.9927 86.7662 68.1201 86.9306 68.2757 87.0656C68.4314 87.2007 68.6123 87.3037 68.808 87.3688C69.0037 87.4339 69.2104 87.4597 69.4161 87.4449L75.0521 87.0544H83.2466C85.1792 86.8564 87.0444 86.2362 88.7096 85.2379C97.6597 80.6604 95.3653 65.7381 94.5914 64.6754Z" fill="#FF6700"/>
</g>
<defs>
<clipPath id="clip0">
<rect width="106" height="145" fill="white"/>
</clipPath>
</defs>
</svg>
