<svg width="104" height="143" viewBox="0 0 104 143" fill="none" xmlns="http://www.w3.org/2000/svg">
<g clip-path="url(#clip0)">
<path d="M9.91501 101.529C10.5837 95.8767 13.223 86.3016 21.0426 90.0277C26.2586 92.4999 24.3149 98.7698 26.8471 103.016C26.9973 103.272 27.2427 103.458 27.5295 103.533C27.8163 103.608 28.1209 103.565 28.3763 103.414C28.6317 103.263 28.8169 103.017 28.8913 102.729C28.9658 102.44 28.9232 102.135 28.773 101.878C26.8828 98.7161 27.7744 94.6585 25.9287 91.4698C25.1158 90.159 23.9926 89.0706 22.6594 88.3017C21.3261 87.5328 19.8242 87.1072 18.2874 87.0629C10.4589 86.8032 8.42598 95.3393 7.68593 101.529C7.5076 102.953 9.73668 102.944 9.91501 101.529Z" fill="#FF0B0B"/>
<path d="M32.6116 101.752L4.30231 101.468C2.39166 101.449 0.827285 102.989 0.808178 104.909L0.644296 121.372C0.62519 123.291 2.15859 124.863 4.06923 124.882L32.3786 125.166C34.2892 125.185 35.8536 123.645 35.8727 121.726L36.0366 105.262C36.0557 103.343 34.5223 101.772 32.6116 101.752Z" fill="#FF0B0B"/>
<path d="M70.4925 97.2202C75.2378 90.8067 79.2291 83.8637 82.3869 76.5293C85.9535 68.047 87.6119 59.8871 87.3533 52.2646C87.0858 44.1315 85.1688 37.0375 81.6558 31.2691C78.6801 26.3627 74.514 22.2947 69.5474 19.4458C62.8949 15.7439 55.4317 13.7588 47.8272 13.6685C40.2186 13.7276 32.7435 15.6819 26.0714 19.3562C21.0969 22.1866 16.9161 26.2355 13.9185 31.1258C10.3519 36.9032 8.43493 43.9613 8.13177 52.0944C7.68596 63.9536 11.841 76.9414 20.5076 90.6995C25.6248 98.6921 31.5014 106.167 38.055 113.021C38.055 113.021 38.8396 113.665 38.7148 118.395C38.7038 123.485 38.3822 128.571 37.7518 133.622C37.6716 134.392 37.3684 134.607 37.0028 134.661L23.1112 133.622C21.5928 133.054 19.9285 133.016 18.3857 133.513C16.8429 134.01 15.5113 135.014 14.605 136.363C9.70996 143.528 21.3636 142.507 21.3636 142.507H43.4404C44.8849 142.588 45.723 141.119 45.9281 140.196C46.4417 137.469 46.7724 134.71 46.9178 131.938C47.0488 134.709 47.3646 137.468 47.8629 140.196C48.068 141.092 48.8972 142.597 50.3416 142.525L72.4185 142.606C72.4185 142.606 84.0721 143.627 79.2127 136.479C78.3093 135.126 76.9799 134.117 75.4375 133.614C73.8951 133.11 72.2291 133.141 70.7065 133.702L56.8149 134.688C56.4493 134.625 56.1462 134.419 56.0748 133.64C55.4703 128.662 55.1725 123.651 55.1832 118.637V117.642V116.164C55.6531 115.052 56.3174 114.032 57.1448 113.155C61.9488 108.154 66.4083 102.83 70.4925 97.2202ZM48.9061 109.008L47.6757 110.172L45.8211 108.452C36.1379 98.5996 16.0495 75.2395 16.8787 52.4258C17.9486 23.8437 42.843 22.4554 47.8183 22.4643C52.7936 22.4733 77.6524 23.9781 78.6064 52.5602C78.9987 64.1506 73.747 77.8012 63.4487 92.043C59.0444 98.0666 54.1823 103.738 48.9061 109.008Z" fill="#001968"/>
<path d="M73.8184 143C73.007 143 72.4275 142.955 72.3561 142.946L50.3061 142.866C48.6476 142.946 47.7382 141.361 47.5063 140.277C47.2161 138.839 47.0048 137.385 46.8733 135.924C46.7289 137.385 46.5117 138.838 46.2224 140.277C45.9816 141.361 45.0544 142.964 43.387 142.857H21.328C21.0962 142.857 14.8993 143.358 13.3747 140.707C12.7059 139.56 13.018 138.02 14.2663 136.228C15.2068 134.802 16.5981 133.736 18.2157 133.201C19.8332 132.667 21.5829 132.695 23.1826 133.281L36.994 134.356C37.0742 134.356 37.315 134.294 37.3863 133.613C38.0132 128.562 38.3318 123.476 38.3404 118.386C38.4563 114.095 37.7965 113.298 37.7875 113.289C31.2126 106.415 25.3179 98.9158 20.1867 90.8965C11.5201 77.0309 7.34721 64.0163 7.79303 52.0854C8.1051 43.8897 10.0667 36.7778 13.6332 30.9467C16.6647 26.0066 20.8915 21.9176 25.9199 19.0606C35.1751 13.6864 45.0454 13.355 47.8362 13.337C55.5001 13.4268 63.0218 15.4274 69.7258 19.1591C74.7362 22.0386 78.9388 26.1463 81.9412 31.099C85.5077 36.939 87.4158 44.0599 87.6922 52.2556C87.9419 59.9229 86.2656 68.1365 82.6991 76.6637C79.5293 84.019 75.5262 90.9828 70.769 97.4173C66.6816 103.046 62.2128 108.385 57.3945 113.397C56.6113 114.215 55.9802 115.168 55.531 116.209V117.642L55.4865 118.663C55.474 123.657 55.7718 128.647 56.3781 133.604C56.4405 134.303 56.6812 134.338 56.8417 134.365L70.6085 133.38C72.1963 132.81 73.9276 132.788 75.5293 133.317C77.1309 133.846 78.5117 134.895 79.4535 136.3C80.7197 138.163 81.0228 139.686 80.3452 140.832C79.2574 142.713 75.7889 143 73.8184 143ZM50.2971 142.194L72.3829 142.274C72.4721 142.274 78.446 142.776 79.7745 140.483C80.3006 139.587 80.0063 138.297 78.8829 136.676C78.0223 135.386 76.7578 134.421 75.2897 133.935C73.8217 133.448 72.2339 133.467 70.7779 133.989H70.6799L56.7972 135.037C56.1106 134.93 55.7807 134.491 55.7004 133.685C55.0984 128.698 54.8007 123.678 54.8088 118.655L54.8534 117.633V116.138C55.335 114.967 56.0272 113.895 56.8952 112.976C61.7143 107.99 66.1832 102.675 70.2697 97.068C74.9965 90.6808 78.9756 83.7682 82.1284 76.4666C85.695 68.0291 87.3177 59.9139 87.0681 52.3362C86.7917 44.2748 84.8925 37.2525 81.4151 31.511C78.4742 26.6092 74.3335 22.5451 69.387 19.7055C62.7872 16.0304 55.3817 14.0605 47.8362 13.973H47.7827C40.2519 14.0344 32.8536 15.9701 26.2498 19.607C21.3232 22.4084 17.1799 26.4135 14.2039 31.2512C10.6998 37.0285 8.77383 44.033 8.46175 52.1123C8.02486 63.8998 12.1531 76.8249 20.7574 90.5203C25.861 98.4964 31.7259 105.954 38.269 112.788C38.3849 112.886 39.1607 113.746 39.0091 118.377C38.9991 123.488 38.6775 128.595 38.0461 133.667C37.9659 134.446 37.636 134.885 37.0207 134.983L22.9597 133.926C21.5113 133.372 19.9181 133.328 18.4419 133.804C16.9657 134.279 15.6944 135.245 14.8369 136.542C13.7313 138.163 13.4281 139.444 13.9453 140.349C15.256 142.642 21.2299 142.14 21.2923 142.14H43.3959C44.6709 142.212 45.3753 140.913 45.5537 140.089C46.0676 137.38 46.3953 134.638 46.5345 131.884H47.2567C47.3727 134.651 47.6706 137.407 48.1483 140.134C48.3356 140.967 49.0399 142.265 50.2971 142.194ZM47.6223 110.71L47.3904 110.387L45.6072 108.721C36.5571 99.5043 15.6661 75.5978 16.5399 52.4168C17.6277 23.6287 42.6024 22.1239 47.7471 22.1239H47.8006C52.8294 22.1239 77.9556 23.6556 78.9275 52.5781C79.3555 64.2133 74.0592 77.9266 63.6895 92.258C59.2854 98.3011 54.4202 103.991 49.138 109.276L47.6223 110.71ZM47.756 22.7957C42.7094 22.7957 18.2608 24.2736 17.1998 52.4437C16.3081 75.3649 37.0832 99.0923 46.0441 108.237L47.6668 109.733L48.6655 108.766C53.9219 103.512 58.7632 97.8548 63.1456 91.846C73.4172 77.6669 78.6511 64.079 78.3033 52.5691C77.3314 24.2916 52.7402 22.8136 47.8184 22.7957H47.756Z" fill="#001968"/>
<path d="M49.673 70.0714C60.9301 70.0714 70.0557 60.904 70.0557 49.5954C70.0557 38.2869 60.9301 29.1195 49.673 29.1195C38.4159 29.1195 29.2903 38.2869 29.2903 49.5954C29.2903 60.904 38.4159 70.0714 49.673 70.0714Z" fill="#FF0B0B"/>
<path d="M55.0048 49.5775L59.677 44.9557C60.0253 44.6134 60.3031 44.2055 60.4946 43.7553C60.686 43.3052 60.7873 42.8216 60.7927 42.3321C60.7981 41.8426 60.7074 41.3569 60.5259 40.9026C60.3445 40.4483 60.0757 40.0343 59.7349 39.6844C59.3942 39.3345 58.9882 39.0554 58.5401 38.8631C58.092 38.6708 57.6106 38.569 57.1233 38.5636C56.6361 38.5582 56.1525 38.6492 55.7003 38.8316C55.2481 39.0139 54.836 39.2839 54.4877 39.6262L49.7174 44.3555L44.9383 39.6262C44.2283 38.9708 43.2921 38.6189 42.3282 38.6452C41.3643 38.6714 40.4485 39.0737 39.7748 39.7667C39.1012 40.4598 38.7227 41.3891 38.7195 42.3577C38.7163 43.3264 39.0888 44.2582 39.7579 44.9557L44.4301 49.5775L39.7579 54.2083C39.0888 54.9058 38.7163 55.8376 38.7195 56.8062C38.7227 57.7749 39.1012 58.7042 39.7748 59.3973C40.4485 60.0903 41.3643 60.4926 42.3282 60.5188C43.2921 60.545 44.2283 60.1932 44.9383 59.5378L49.7174 54.8085L54.4877 59.5378C54.836 59.8801 55.2481 60.1501 55.7003 60.3324C56.1525 60.5147 56.6361 60.6058 57.1233 60.6004C57.6106 60.595 58.092 60.4932 58.5401 60.3009C58.9882 60.1086 59.3942 59.8295 59.7349 59.4796C60.0757 59.1296 60.3445 58.7157 60.5259 58.2614C60.7074 57.8071 60.7981 57.3214 60.7927 56.8319C60.7873 56.3424 60.686 55.8588 60.4946 55.4086C60.3031 54.9585 60.0253 54.5506 59.677 54.2083L55.0048 49.5775Z" fill="white"/>
<path d="M50.9837 75.6247C54.1073 75.882 57.0883 77.0493 59.5612 78.9836C59.7045 79.077 59.8272 79.1989 59.9218 79.3418C60.0163 79.4847 60.0806 79.6455 60.1108 79.8144C60.1409 79.9833 60.1363 80.1566 60.0971 80.3236C60.0579 80.4906 59.9849 80.6478 59.8829 80.7853C59.7808 80.9229 59.6517 81.0379 59.5035 81.1234C59.3554 81.2088 59.1914 81.2628 59.0217 81.2819C58.8519 81.3011 58.6801 81.2851 58.5168 81.2349C58.3535 81.1847 58.2021 81.1013 58.0722 80.99C55.6956 79.1035 52.7519 78.0832 49.7229 78.0963C46.6939 78.1093 43.7591 79.1548 41.3986 81.0617C41.2757 81.1798 41.13 81.2714 40.9706 81.3309C40.8111 81.3904 40.6413 81.4165 40.4714 81.4077C40.3015 81.3989 40.1352 81.3553 39.9828 81.2796C39.8303 81.2038 39.6948 81.0976 39.5847 80.9674C39.4745 80.8372 39.392 80.6857 39.3422 80.5224C39.2925 80.359 39.2765 80.1871 39.2952 80.0172C39.3139 79.8474 39.367 79.6832 39.4512 79.5347C39.5354 79.3863 39.6489 79.2566 39.7848 79.1538C42.9897 76.6934 46.9541 75.4441 50.9837 75.6247Z" fill="#001968"/>
<path d="M89.7072 59.0004C90.5454 58.1853 91.3478 57.3702 92.1057 56.5461C96.5446 51.9566 99.9422 46.4565 102.065 40.4233C103.961 35.0954 104.453 29.3653 103.492 23.79C102.638 19.4685 100.709 15.4347 97.8835 12.0652C94.1085 7.58673 89.2469 4.16274 83.769 2.12443C78.291 0.0861093 72.3822 -0.497546 66.6139 0.42992C62.2866 1.14222 58.2097 2.94501 54.7642 5.66982C52.7807 7.25075 51.02 9.09483 49.5303 11.1516L57.2786 12.4683C66.3197 3.58282 78.5797 7.37167 81.4418 8.43756C85.0083 9.76321 102.529 17.4484 95.7079 38.2826C94.3523 42.1938 92.3176 45.8329 89.6983 49.0311L89.7072 59.0004Z" fill="#FF0B0B"/>
<path d="M92.8278 63.7834C91.9362 62.5832 91.4369 64.3836 91.4369 64.3836C90.8127 70.5013 86.8093 74.2364 85.6413 73.7706C84.7819 73.4437 83.9694 73.004 83.2249 72.4629L78.9808 67.626C78.8104 67.4314 78.6035 67.2723 78.372 67.1579C78.1404 67.0436 77.8887 66.9762 77.6312 66.9595C77.1112 66.9259 76.5992 67.1012 76.2078 67.4469C75.8164 67.7925 75.5778 68.2802 75.5443 68.8026C75.5109 69.325 75.6854 69.8394 76.0295 70.2325L77.5898 72.024H65.4904C65.0813 72.024 64.6889 72.1872 64.3996 72.4778C64.1104 72.7684 63.9478 73.1626 63.9478 73.5735C63.9478 73.9845 64.1104 74.3787 64.3996 74.6693C64.6889 74.9599 65.0813 75.1231 65.4904 75.1231H71.6248C71.6248 75.1231 72.3916 75.1231 72.4005 75.4366C72.4094 75.7501 71.6248 75.768 71.6248 75.768H64.1975C63.839 75.8299 63.5137 76.0172 63.2793 76.2966C63.0448 76.5761 62.9163 76.9298 62.9163 77.2952C62.9163 77.6607 63.0448 78.0144 63.2793 78.2938C63.5137 78.5733 63.839 78.7605 64.1975 78.8224H71.607C71.607 78.8224 72.2311 78.8224 72.2579 79.1269C72.2846 79.4315 71.6337 79.4315 71.607 79.3867L65.6865 79.5658C65.2981 79.6047 64.9388 79.7901 64.681 80.0845C64.4233 80.379 64.2863 80.7607 64.2976 81.1527C64.3089 81.5446 64.4677 81.9177 64.742 82.1967C65.0163 82.4757 65.3857 82.6398 65.7757 82.656L71.607 82.4858C71.607 82.4858 72.1152 82.4321 72.1776 82.6471C72.24 82.862 71.607 82.9158 71.607 82.9158L67.9691 83.1756C67.7675 83.1892 67.5706 83.2427 67.3897 83.333C67.2088 83.4233 67.0474 83.5486 66.9149 83.7018C66.7823 83.8549 66.6811 84.0329 66.6172 84.2254C66.5533 84.4179 66.5279 84.6212 66.5425 84.8237C66.5722 85.2334 66.7626 85.6145 67.0719 85.8833C67.3812 86.152 67.7841 86.2864 68.192 86.2568L73.7023 85.8716H81.727C83.6196 85.6764 85.4461 85.0647 87.0768 84.0802C95.8326 79.5479 93.6214 64.8314 92.8278 63.7834Z" fill="#FF0B0B"/>
<path d="M5.51025 41.0235C6.81203 40.3069 6.50887 42.152 6.50887 42.152C4.51162 47.9562 6.56237 53.0618 7.81957 53.1155C8.73774 53.178 9.66007 53.1269 10.5658 52.9633L16.4417 50.3747C16.6811 50.2236 16.95 50.1261 17.2303 50.0887C17.5105 50.0513 17.7955 50.0749 18.0658 50.1579C18.3362 50.241 18.5856 50.3815 18.7971 50.5699C19.0086 50.7583 19.1773 50.9902 19.2917 51.2499C19.4061 51.5096 19.4635 51.791 19.4601 52.075C19.4566 52.359 19.3924 52.6389 19.2718 52.8957C19.1511 53.1526 18.9769 53.3803 18.7609 53.5635C18.5449 53.7467 18.2921 53.8811 18.0198 53.9575L15.8621 54.9069L18.2249 56.0087L18.323 56.0535L26.847 60.0125C27.0303 60.0978 27.195 60.2185 27.3318 60.3677C27.4686 60.5169 27.5748 60.6918 27.6444 60.8823C27.7139 61.0727 27.7454 61.2751 27.7371 61.4778C27.7288 61.6805 27.6809 61.8796 27.596 62.0637C27.5111 62.2478 27.3909 62.4132 27.2424 62.5507C27.0938 62.6881 26.9198 62.7948 26.7302 62.8647C26.3473 63.0058 25.9242 62.9883 25.5541 62.8161L19.9814 60.2096C19.9814 60.2096 19.286 59.914 19.1522 60.2096C19.0185 60.5051 19.714 60.8455 19.714 60.8455L26.4279 63.9805C26.6118 64.0664 26.777 64.1878 26.9141 64.3378C27.0512 64.4878 27.1576 64.6634 27.2272 64.8547C27.2967 65.046 27.3281 65.2492 27.3194 65.4527C27.3108 65.6562 27.2624 65.8559 27.1769 66.0406C27.0914 66.2253 26.9706 66.3912 26.8213 66.529C26.672 66.6668 26.4971 66.7736 26.3067 66.8435C26.1162 66.9133 25.914 66.9449 25.7114 66.9362C25.5089 66.9275 25.31 66.8789 25.1262 66.793L18.4122 63.5953C18.4122 63.5953 17.8415 63.3445 17.6989 63.5953C17.5562 63.8461 18.1358 64.1417 18.1714 64.1148L23.4677 66.802C23.8156 66.996 24.0754 67.3176 24.1928 67.6995C24.3102 68.0815 24.2762 68.4942 24.0977 68.8515C23.9193 69.2088 23.6104 69.483 23.2354 69.6169C22.8605 69.7507 22.4485 69.7338 22.0857 69.5697L16.8696 66.9363C16.8696 66.9363 16.4327 66.6676 16.2901 66.8378C16.1474 67.008 16.6913 67.3304 16.6913 67.3304L19.8834 69.1219C20.0608 69.2177 20.2177 69.3477 20.3451 69.5045C20.4724 69.6612 20.5678 69.8417 20.6258 70.0355C20.6838 70.2293 20.7031 70.4327 20.6828 70.634C20.6626 70.8353 20.603 71.0307 20.5075 71.2089C20.4106 71.3867 20.2797 71.5436 20.1222 71.6706C19.9648 71.7975 19.784 71.892 19.5902 71.9486C19.3963 72.0052 19.1933 72.0228 18.9927 72.0003C18.792 71.9779 18.5978 71.9159 18.4211 71.8179L13.5795 69.1308H13.4814L6.24138 65.7271C4.61488 64.7566 3.22073 63.4386 2.15771 61.8666C-3.84298 54.0292 4.37787 41.6415 5.51025 41.0235Z" fill="#FF0B0B"/>
</g>
<defs>
<clipPath id="clip0">
<rect width="104" height="143" fill="white"/>
</clipPath>
</defs>
</svg>
