<svg width="112" height="116" viewBox="0 0 112 116" fill="none" xmlns="http://www.w3.org/2000/svg">
<g clip-path="url(#clip0)">
<path d="M0.268306 93.5387L89.8916 115.68L112 116L111.687 81.9706C111.687 81.9706 75.7965 72.4268 0 63.5132L0.268306 93.5387Z" fill="#20CE88"/>
<path d="M54.9401 88.9221C54.6412 88.9201 54.3427 88.9023 54.0457 88.8688C50.1821 88.3806 49.1894 87.3418 48.9211 87.0045L48.8495 86.9068L43.0273 76.5373C42.8343 76.2139 42.7765 75.8283 42.8663 75.4631C42.9222 75.2457 43.0235 75.0425 43.1637 74.8666C43.304 74.6907 43.4799 74.546 43.6802 74.4421H43.7607L46.0144 73.4122C48.3949 72.2839 50.6826 70.9718 52.8562 69.4882L57.7841 75.4453C56.1296 76.5728 54.5466 77.5671 52.9367 78.4727L54.1531 80.6389C54.2523 80.799 54.3948 80.9282 54.5645 81.0118H54.6539L56.38 81.5179H56.4694C57.2061 81.9811 57.8071 82.6286 58.2121 83.3953C58.6171 84.1619 58.8119 85.0208 58.7769 85.8858C58.793 86.279 58.7211 86.6707 58.5665 87.033C58.4118 87.3953 58.1782 87.7191 57.8825 87.981C57.0438 88.6285 56.0019 88.9618 54.9401 88.9221Z" fill="#001968"/>
<path d="M78.4974 87.1821C77.9088 87.1789 77.3327 87.0129 76.8339 86.7027C74.6964 85.4065 71.1279 82.4501 65.9049 77.6649C62.3275 74.3623 58.9826 71.0774 58.5354 70.6335C53.7027 66.2121 49.3201 61.3294 45.451 56.0558C42.2839 51.8002 39.6192 47.1979 37.5091 42.3393C35.2346 37.2187 34.1027 31.6704 34.1911 26.0748C34.2408 21.0814 35.5969 16.1865 38.1262 11.87C40.1884 8.54773 43.0655 5.7987 46.4885 3.87978C51.0206 1.34225 56.1359 0.00897217 61.3392 0.00897217C66.5426 0.00897217 71.6578 1.34225 76.19 3.87978C79.616 5.8142 82.4928 8.57831 84.5522 11.9144C87.0815 16.2309 88.4376 21.1258 88.4873 26.1192C88.7735 34.1094 85.9652 42.7299 80.1341 51.8654C76.9888 56.683 73.415 61.2111 69.4555 65.3955L63.5885 60.3705C70.2067 53.3746 81.2431 39.6493 80.7601 26.3322C80.1251 8.57624 64.465 7.68844 61.3347 7.68844C58.2045 7.68844 42.5533 8.57624 41.9183 26.3322C41.6589 33.6832 45.0396 42.4014 51.7562 51.5369C55.3079 56.4042 59.3341 60.9123 63.7763 64.9959L63.9284 65.138C64.0715 65.2801 67.3537 68.5383 70.9759 71.8675C73.3244 74.0932 75.7999 76.183 78.3901 78.1265L83.8456 71.5923C84.3719 70.446 85.2676 69.5062 86.3914 68.9211C87.5152 68.336 88.8033 68.1388 90.0525 68.3607C91.8412 68.6448 92.8876 69.3728 93.2185 70.5092C93.8624 72.7553 91.0362 75.4099 90.3744 75.9958L80.295 86.4097C80.0693 86.6596 79.7917 86.858 79.4814 86.9913C79.1711 87.1246 78.8354 87.1897 78.4974 87.1821Z" fill="#001968"/>
<path d="M6.90441 93.6008C6.64824 93.6006 6.3951 93.5459 6.16211 93.4402C5.92912 93.3345 5.72172 93.1804 5.55393 92.9882C5.24234 92.6337 5.08523 92.1709 5.11709 91.7015C5.14895 91.2321 5.36718 90.7944 5.72386 90.4846L30.0771 69.4882C30.2498 69.3145 30.4566 69.1781 30.6847 69.0873C30.9128 68.9966 31.1574 68.9535 31.403 68.9607C31.6487 68.9679 31.8902 69.0253 32.1125 69.1292C32.3348 69.2332 32.5332 69.3816 32.6952 69.565C32.8572 69.7484 32.9794 69.9631 33.0541 70.1955C33.1289 70.4279 33.1546 70.6731 33.1296 70.9158C33.1047 71.1584 33.0296 71.3934 32.9091 71.6061C32.7886 71.8187 32.6253 72.0044 32.4293 72.1516L8.04918 93.1658C7.73112 93.4401 7.3257 93.5942 6.90441 93.6008Z" fill="#001968"/>
<path d="M79.6691 111.969C79.3113 111.97 78.9615 111.864 78.665 111.665C78.3685 111.466 78.139 111.183 78.0061 110.853C77.8732 110.523 77.843 110.162 77.9195 109.814C77.9959 109.467 78.1755 109.151 78.4349 108.906L104.684 84.1812C104.852 84.0094 105.053 83.8732 105.276 83.7805C105.498 83.6879 105.737 83.6409 105.978 83.6423C106.219 83.6437 106.458 83.6935 106.679 83.7886C106.9 83.8838 107.1 84.0224 107.266 84.1961C107.432 84.3698 107.56 84.575 107.644 84.7994C107.728 85.0238 107.766 85.2627 107.754 85.5018C107.743 85.7409 107.683 85.9752 107.578 86.1907C107.473 86.4063 107.325 86.5985 107.144 86.7558L80.8944 111.481C80.5636 111.793 80.1253 111.968 79.6691 111.969Z" fill="#001968"/>
<path d="M64.1519 36.6928C61.9197 36.6586 59.7453 35.9833 57.8915 34.7485C57.7922 34.6855 57.7064 34.6038 57.639 34.5079C57.5716 34.4121 57.5239 34.304 57.4985 34.1898C57.4732 34.0756 57.4708 33.9576 57.4914 33.8425C57.512 33.7274 57.5553 33.6174 57.6187 33.5189C57.6821 33.4204 57.7644 33.3352 57.861 33.2683C57.9576 33.2014 58.0665 33.154 58.1815 33.1288C58.2965 33.1037 58.4154 33.1013 58.5314 33.1218C58.6473 33.1422 58.7581 33.1852 58.8574 33.2481C60.6545 34.4601 62.8122 35.0321 64.9788 34.8708C67.1453 34.7096 69.193 33.8247 70.788 32.3603C70.9576 32.1955 71.1862 32.1043 71.4236 32.1068C71.6609 32.1093 71.8875 32.2053 72.0536 32.3736C72.2196 32.542 72.3115 32.7689 72.3089 33.0045C72.3064 33.2401 72.2097 33.4651 72.0401 33.6299C69.8595 35.5466 67.0639 36.6321 64.1519 36.6928Z" fill="#001968"/>
</g>
<defs>
<clipPath id="clip0">
<rect width="112" height="116" fill="white"/>
</clipPath>
</defs>
</svg>
