<svg width="125" height="124" viewBox="0 0 125 124" fill="none" xmlns="http://www.w3.org/2000/svg">
<g clip-path="url(#clip0)">
<path d="M102.997 101.725C102.88 101.734 102.763 101.734 102.647 101.725C100.369 101.269 99.3114 100.18 97.1864 98.0108L95.5545 96.3502C95.4155 96.2025 95.2452 96.0875 95.056 96.0134C94.8668 95.9392 94.6635 95.9079 94.4606 95.9217C92.5418 95.9752 89.6547 98.475 88.5608 99.6803C88.403 99.8562 88.212 99.9994 87.9986 100.102C87.7852 100.204 87.5537 100.264 87.3173 100.277C87.0808 100.29 86.844 100.257 86.6205 100.179C86.3969 100.101 86.1909 99.9803 86.0143 99.8232C85.8377 99.6661 85.6939 99.4759 85.5911 99.2634C85.4883 99.051 85.4285 98.8204 85.4152 98.585C85.4019 98.3495 85.4353 98.1138 85.5134 97.8912C85.5916 97.6686 85.7131 97.4635 85.8709 97.2876C86.3192 96.7877 90.354 92.4487 94.3351 92.3594C95.0224 92.3306 95.708 92.4461 96.3476 92.6984C96.9871 92.9506 97.5662 93.334 98.0472 93.8236C98.7017 94.4753 99.2487 95.0289 99.7239 95.5199C101.75 97.5912 102.163 97.9929 103.31 98.1983C103.786 98.2445 104.224 98.4769 104.527 98.8444C104.831 99.2119 104.975 99.6844 104.929 100.158C104.882 100.632 104.649 101.067 104.28 101.37C103.911 101.672 103.436 101.816 102.961 101.769L102.997 101.725Z" fill="#001968"/>
<path d="M33.5431 79.8781C33.4239 79.8909 33.3037 79.8909 33.1845 79.8781C30.916 79.4228 29.849 78.3336 27.7329 76.173C27.2667 75.6909 26.7287 75.1463 26.0921 74.5125C25.9564 74.3629 25.788 74.2464 25.5998 74.1721C25.4117 74.0978 25.2089 74.0676 25.0071 74.0839C23.169 74.0839 20.4074 76.4141 19.0983 77.8426C18.7785 78.1977 18.33 78.4119 17.8516 78.4378C17.3732 78.4638 16.9041 78.2994 16.5474 77.981C16.1907 77.6625 15.9756 77.216 15.9496 76.7396C15.9235 76.2633 16.0886 75.7961 16.4084 75.441C16.8567 74.9499 20.8916 70.611 24.8816 70.5127C25.5687 70.4922 26.2526 70.6124 26.8912 70.8658C27.5297 71.1192 28.1092 71.5004 28.5937 71.9858C29.2393 72.6287 29.7862 73.1911 30.2704 73.6822C32.2878 75.7534 32.7092 76.1463 33.8569 76.3605C34.3325 76.4067 34.7702 76.6391 35.0738 77.0066C35.3773 77.3741 35.5217 77.8466 35.4754 78.3202C35.429 78.7938 35.1956 79.2296 34.8265 79.5318C34.4574 79.834 33.9828 79.9779 33.5072 79.9317L33.5431 79.8781Z" fill="#001968"/>
<path d="M3.96319 93.5825C3.81216 93.5822 3.66167 93.5642 3.51487 93.5289L1.35398 92.9754C1.12555 92.9167 0.910952 92.8139 0.72244 92.6727C0.533927 92.5315 0.375192 92.3547 0.255297 92.1524C0.135402 91.9501 0.0566956 91.7263 0.0236713 91.4937C-0.00935297 91.2612 0.00395168 91.0244 0.0628256 90.7969C0.1217 90.5695 0.22499 90.3558 0.366799 90.1681C0.508608 89.9804 0.686159 89.8223 0.889314 89.703C1.09247 89.5836 1.31725 89.5052 1.55082 89.4723C1.7844 89.4394 2.02219 89.4527 2.25062 89.5113L4.42944 90.0648C4.85496 90.171 5.22664 90.4287 5.47417 90.7894C5.7217 91.15 5.82789 91.5884 5.77267 92.0217C5.71744 92.455 5.50463 92.8531 5.17448 93.1407C4.84434 93.4284 4.41978 93.5855 3.98112 93.5825H3.96319Z" fill="#001968"/>
<path d="M91.394 119.224C91.1862 119.222 90.9801 119.186 90.7843 119.116C89.5021 118.652 88.1751 118.224 86.8212 117.715C86.5987 117.637 86.3936 117.517 86.2177 117.361C86.0419 117.204 85.8986 117.015 85.7962 116.804C85.6938 116.592 85.6342 116.363 85.6209 116.129C85.6075 115.894 85.6406 115.66 85.7183 115.438C85.7961 115.217 85.9168 115.012 86.0738 114.837C86.2308 114.662 86.4208 114.519 86.6331 114.418C86.8455 114.316 87.0759 114.256 87.3112 114.243C87.5465 114.23 87.7822 114.263 88.0048 114.34C89.3676 114.816 90.7006 115.289 92.0038 115.759C92.4 115.903 92.733 116.18 92.9441 116.544C93.1552 116.907 93.2311 117.333 93.1583 117.746C93.0855 118.16 92.8688 118.534 92.5461 118.805C92.2235 119.075 91.8156 119.223 91.394 119.224ZM77.0479 114.34C76.8589 114.341 76.671 114.311 76.492 114.251L72.484 112.974C72.2535 112.907 72.0389 112.794 71.8529 112.643C71.6669 112.492 71.5133 112.305 71.4012 112.093C71.2892 111.882 71.2209 111.65 71.2005 111.412C71.1801 111.174 71.208 110.934 71.2825 110.706C71.4266 110.255 71.7446 109.88 72.1666 109.662C72.5886 109.445 73.08 109.403 73.5331 109.546L77.5679 110.831C77.9727 110.964 78.3169 111.235 78.5389 111.598C78.7608 111.96 78.8459 112.389 78.779 112.808C78.7121 113.227 78.4975 113.609 78.1738 113.884C77.85 114.16 77.4381 114.312 77.012 114.313L77.0479 114.34ZM62.5044 109.813C62.3281 109.812 62.1528 109.785 61.9844 109.733L57.9495 108.528C57.5132 108.377 57.152 108.065 56.9412 107.656C56.7305 107.246 56.6864 106.772 56.8181 106.331C56.9499 105.891 57.2473 105.518 57.6485 105.29C58.0497 105.062 58.5236 104.997 58.9717 105.108L63.0245 106.323C63.4332 106.449 63.7831 106.717 64.0109 107.078C64.2387 107.438 64.3294 107.868 64.2666 108.29C64.2038 108.712 63.9916 109.097 63.6685 109.376C63.3453 109.656 62.9324 109.811 62.5044 109.813ZM47.9341 105.528C47.7644 105.526 47.5956 105.502 47.432 105.457L43.3882 104.296C42.9828 104.128 42.6536 103.817 42.4631 103.423C42.2725 103.029 42.2339 102.579 42.3544 102.158C42.4749 101.738 42.7462 101.376 43.1169 101.141C43.4876 100.907 43.9319 100.816 44.3655 100.886L48.4183 102.037C48.832 102.157 49.1884 102.422 49.4223 102.782C49.6562 103.142 49.752 103.575 49.6921 104C49.6323 104.424 49.4207 104.814 49.0963 105.096C48.7718 105.378 48.3561 105.535 47.9251 105.537L47.9341 105.528ZM33.31 101.403C33.1465 101.405 32.9836 101.384 32.8258 101.341L28.764 100.225C28.3051 100.099 27.915 99.7975 27.6796 99.3856C27.4442 98.9737 27.3827 98.4856 27.5088 98.0286C27.6348 97.5716 27.938 97.1832 28.3516 96.9488C28.7653 96.7144 29.2555 96.6532 29.7145 96.7787L33.7852 97.9036C34.1975 98.0232 34.5531 98.2862 34.7872 98.6447C35.0213 99.0032 35.1184 99.4335 35.0608 99.8572C35.0033 100.281 34.7949 100.67 34.4736 100.954C34.1523 101.238 33.7394 101.397 33.31 101.403ZM18.65 97.4305C18.4924 97.4317 18.3354 97.4106 18.1837 97.368L14.104 96.2877C13.8603 96.245 13.6281 96.1525 13.422 96.0161C13.216 95.8797 13.0405 95.7023 12.9066 95.495C12.7727 95.2878 12.6834 95.0552 12.6442 94.8119C12.605 94.5686 12.6168 94.3198 12.6789 94.0813C12.741 93.8428 12.8519 93.6196 13.0048 93.4259C13.1577 93.2321 13.3492 93.072 13.5673 92.9555C13.7854 92.8391 14.0253 92.7688 14.272 92.7492C14.5187 92.7296 14.7668 92.761 15.0007 92.8415L19.0893 93.9218C19.5083 94.0351 19.8718 94.296 20.1122 94.656C20.3527 95.0159 20.4538 95.4505 20.3969 95.8791C20.3399 96.3077 20.1287 96.7011 19.8025 96.9864C19.4763 97.2717 19.0573 97.4295 18.6231 97.4305H18.65Z" fill="#001968"/>
<path d="M103.633 124C103.387 123.999 103.143 123.951 102.916 123.857C102.261 123.571 101.589 123.277 100.889 122.964C100.666 122.879 100.462 122.749 100.289 122.583C100.117 122.418 99.9792 122.219 99.885 122C99.7908 121.78 99.7418 121.544 99.7407 121.306C99.7397 121.067 99.7867 120.831 99.8791 120.61C99.9714 120.39 100.107 120.19 100.278 120.023C100.449 119.856 100.652 119.725 100.875 119.637C101.098 119.55 101.336 119.507 101.576 119.513C101.816 119.519 102.052 119.572 102.27 119.67C102.988 119.965 103.687 120.259 104.359 120.563C104.736 120.728 105.044 121.017 105.232 121.382C105.42 121.747 105.476 122.165 105.39 122.566C105.305 122.967 105.084 123.327 104.764 123.584C104.444 123.842 104.045 123.983 103.633 123.982V124Z" fill="#001968"/>
<path d="M87.8703 67.7183C87.7156 67.7195 87.5616 67.6985 87.413 67.6558L85.2611 67.1023C85.0327 67.0437 84.8181 66.9408 84.6295 66.7996C84.441 66.6584 84.2823 66.4816 84.1624 66.2794C84.0425 66.0771 83.9638 65.8532 83.9308 65.6207C83.8978 65.3881 83.9111 65.1513 83.9699 64.9239C84.0288 64.6964 84.1321 64.4828 84.2739 64.2951C84.4157 64.1073 84.5933 63.9493 84.7964 63.8299C84.9996 63.7105 85.2244 63.6322 85.4579 63.5993C85.6915 63.5664 85.9293 63.5796 86.1577 63.6383L88.3365 64.2007C88.7621 64.3069 89.1338 64.5646 89.3813 64.9252C89.6288 65.2858 89.735 65.7243 89.6798 66.1576C89.6246 66.5909 89.4117 66.989 89.0816 67.2766C88.7515 67.5642 88.3269 67.7214 87.8882 67.7183H87.8703Z" fill="#001968"/>
<path d="M112.474 75.307C112.266 75.3068 112.06 75.2705 111.864 75.1999C110.744 74.7892 109.632 74.3964 108.52 74.0125C108.297 73.9351 108.092 73.8148 107.916 73.6585C107.741 73.5023 107.597 73.313 107.495 73.1016C107.393 72.8902 107.333 72.6608 107.32 72.4264C107.306 72.1921 107.339 71.9574 107.417 71.7359C107.495 71.5143 107.616 71.3101 107.772 71.135C107.929 70.9599 108.12 70.8173 108.332 70.7153C108.544 70.6133 108.775 70.554 109.01 70.5407C109.245 70.5274 109.481 70.5603 109.703 70.6377C110.824 71.0306 111.963 71.4323 113.093 71.843C113.49 71.9865 113.823 72.2648 114.034 72.6291C114.245 72.9933 114.32 73.4201 114.247 73.8341C114.173 74.2481 113.954 74.6229 113.63 74.8923C113.306 75.1618 112.896 75.3086 112.474 75.307ZM100.28 71.227C100.1 71.2267 99.9221 71.1996 99.7508 71.1466C98.6031 70.7895 97.4644 70.4502 96.3436 70.1199C96.1056 70.0648 95.8815 69.9618 95.685 69.8173C95.4885 69.6729 95.3236 69.49 95.2007 69.2798C95.0777 69.0696 94.9991 68.8367 94.9698 68.5952C94.9404 68.3537 94.961 68.1088 95.0301 67.8755C95.0992 67.6422 95.2155 67.4254 95.3718 67.2385C95.528 67.0515 95.721 66.8984 95.9389 66.7883C96.1568 66.6783 96.3949 66.6138 96.6387 66.5987C96.8825 66.5836 97.1269 66.6182 97.3568 66.7005C98.4955 67.0308 99.6432 67.379 100.8 67.7362C101.209 67.8625 101.558 68.1303 101.786 68.4911C102.014 68.8519 102.105 69.2819 102.042 69.7034C101.979 70.125 101.767 70.5103 101.444 70.7897C101.121 71.0691 100.708 71.2242 100.28 71.227Z" fill="#001968"/>
<path d="M123.207 79.5478C122.963 79.5485 122.722 79.4999 122.498 79.405L120.454 78.5122C120.23 78.4264 120.026 78.2968 119.854 78.1312C119.681 77.9655 119.544 77.7671 119.45 77.5476C119.355 77.3282 119.306 77.0922 119.305 76.8535C119.304 76.6148 119.351 76.3784 119.444 76.1582C119.536 75.9379 119.672 75.7383 119.843 75.5712C120.014 75.4041 120.217 75.2728 120.44 75.1852C120.663 75.0975 120.901 75.0552 121.141 75.0608C121.38 75.0664 121.616 75.1198 121.835 75.2178L123.924 76.1105C124.305 76.2723 124.619 76.5607 124.811 76.9266C125.003 77.2925 125.061 77.7134 124.977 78.1175C124.892 78.5217 124.67 78.8842 124.347 79.1433C124.024 79.4025 123.621 79.5422 123.207 79.5389V79.5478Z" fill="#001968"/>
<path d="M4.4832 54.5407H4.2949C2.88719 54.4068 2.10711 54.3532 2.09815 54.3532C1.62254 54.3189 1.18011 54.0978 0.868191 53.7387C0.556269 53.3795 0.400405 52.9117 0.434886 52.4382C0.469368 51.9646 0.69137 51.5241 1.05206 51.2135C1.41274 50.9029 1.88257 50.7477 2.35817 50.782C2.35817 50.782 3.15618 50.8356 4.62666 50.9695C5.10226 50.9908 5.54989 51.1994 5.87106 51.5493C6.19223 51.8993 6.36064 52.3619 6.33923 52.8355C6.31783 53.309 6.10837 53.7547 5.75694 54.0745C5.4055 54.3943 4.94087 54.562 4.46526 54.5407H4.4832Z" fill="#001968"/>
<path d="M20.7571 56.5138H20.4881C18.919 56.2816 17.4127 56.0674 16.0049 55.8799C15.5293 55.8171 15.0982 55.5688 14.8065 55.1896C14.5148 54.8104 14.3863 54.3313 14.4493 53.8577C14.5123 53.3841 14.7617 52.9549 15.1425 52.6644C15.5234 52.3739 16.0045 52.246 16.4802 52.3087C17.9148 52.4962 19.4301 52.7105 21.0261 52.9426C21.5017 52.9769 21.9441 53.198 22.2561 53.5571C22.568 53.9162 22.7238 54.3841 22.6894 54.8576C22.6549 55.3312 22.4329 55.7717 22.0722 56.0823C21.7115 56.3929 21.2417 56.5481 20.7661 56.5138H20.7571Z" fill="#001968"/>
<path d="M34.655 58.8618C34.5416 58.8701 34.4277 58.8701 34.3143 58.8618L32.1265 58.4511C31.8945 58.4083 31.6733 58.3204 31.4755 58.1925C31.2776 58.0646 31.107 57.8991 30.9734 57.7055C30.8397 57.512 30.7457 57.2941 30.6966 57.0643C30.6476 56.8345 30.6444 56.5974 30.6874 56.3664C30.7304 56.1355 30.8186 55.9152 30.9471 55.7182C31.0756 55.5212 31.2418 55.3513 31.4362 55.2182C31.6306 55.0852 31.8494 54.9915 32.0802 54.9427C32.3109 54.8938 32.5491 54.8907 32.7811 54.9335L34.9688 55.3531C35.2043 55.3754 35.4331 55.4436 35.6421 55.5539C35.8511 55.6643 36.0363 55.8145 36.187 55.996C36.3377 56.1776 36.451 56.3869 36.5204 56.6121C36.5899 56.8373 36.6141 57.0738 36.5918 57.3083C36.5694 57.5428 36.5008 57.7706 36.3901 57.9787C36.2793 58.1868 36.1284 58.3712 35.9461 58.5212C35.7637 58.6713 35.5535 58.7841 35.3273 58.8533C35.1012 58.9224 34.8636 58.9466 34.6281 58.9243L34.655 58.8618Z" fill="#001968"/>
<path d="M54.9459 92.2254C54.6279 92.2286 54.3102 92.2077 53.9955 92.1629C50.0413 91.654 48.9653 90.5827 48.7232 90.2613L48.6515 90.1541L42.6351 79.3781C42.4381 79.0412 42.3771 78.6422 42.4647 78.2621C42.5316 78.0338 42.646 77.8219 42.8005 77.6404C42.955 77.4589 43.1461 77.3118 43.3614 77.2086H43.4331L45.7643 76.1373C48.23 74.9745 50.596 73.613 52.8388 72.0662L57.9317 78.2532C56.2281 79.4228 54.5872 80.4495 52.9285 81.3958L54.1837 83.6368C54.2874 83.8021 54.4327 83.9375 54.6052 84.0296H54.6948L56.4881 84.5563H56.5778C57.3391 85.0384 57.9601 85.711 58.3786 86.5069C58.7971 87.3027 58.9986 88.194 58.9628 89.0917C58.9899 89.4988 58.9232 89.9067 58.7678 90.2843C58.6124 90.6618 58.3724 90.999 58.0662 91.2701C57.1746 91.9504 56.0673 92.2894 54.9459 92.2254Z" fill="#001968"/>
<path d="M79.3075 90.4131C78.6992 90.4101 78.1035 90.2402 77.5859 89.9221C75.3802 88.5739 71.6861 85.4581 66.2883 80.5388C62.5673 77.1194 59.1152 73.7179 58.6669 73.2536C53.6756 68.6664 49.147 63.6039 45.1457 58.1386C41.872 53.7222 39.1164 48.9475 36.9325 43.9075C34.5798 38.5982 33.4083 32.8451 33.4984 27.0427C33.5606 21.8767 34.9628 16.8145 37.5691 12.3473C39.7006 8.89084 42.6735 6.02581 46.2126 4.01753C50.8981 1.38427 56.1872 0.000610352 61.5675 0.000610352C66.9478 0.000610352 72.2369 1.38427 76.9224 4.01753C80.4648 6.02461 83.441 8.88973 85.575 12.3473C88.1875 16.8128 89.596 21.8751 89.6636 27.0427C89.9595 35.2831 87.0454 44.2646 81.0201 53.7461C77.7546 58.7669 74.0457 63.4877 69.9376 67.8522L63.8674 62.6562C70.7356 55.3531 82.1498 41.1399 81.6567 27.3283C80.9931 8.92789 64.7999 7.96367 61.5631 7.96367C58.3262 7.96367 42.1419 8.92789 41.4963 27.3283C41.2184 34.9528 44.7242 43.9879 51.6194 53.4693C55.3074 58.511 59.485 63.1791 64.0916 67.4058L64.253 67.5576C64.3964 67.7004 67.8395 71.1288 71.5336 74.5303C73.959 76.8472 76.5188 79.0204 79.1999 81.0388L84.8397 74.2714C85.3844 73.0851 86.3101 72.1131 87.4708 71.5085C88.6316 70.904 89.9614 70.7013 91.2507 70.9323C93.0439 71.2359 94.1916 71.9858 94.5323 73.1643C95.1959 75.4945 92.2728 78.2443 91.5914 78.8514L81.1725 89.6185C80.9371 89.8764 80.6487 90.0809 80.3269 90.218C80.0051 90.3551 79.6574 90.4217 79.3075 90.4131Z" fill="#001968"/>
<path d="M61.061 40.2471C68.6721 40.2471 74.8422 34.1034 74.8422 26.5248C74.8422 18.9463 68.6721 12.8026 61.061 12.8026C53.4498 12.8026 47.2797 18.9463 47.2797 26.5248C47.2797 34.1034 53.4498 40.2471 61.061 40.2471Z" fill="#FF0B0B"/>
<path d="M64.6654 26.5159L67.8215 23.4179C68.0756 23.1932 68.2813 22.9196 68.426 22.6134C68.5708 22.3073 68.6516 21.9751 68.6636 21.6369C68.6756 21.2988 68.6185 20.9617 68.4959 20.6462C68.3732 20.3307 68.1874 20.0432 67.9499 19.8012C67.7124 19.5593 67.428 19.3678 67.1139 19.2385C66.7999 19.1092 66.4628 19.0448 66.123 19.049C65.7832 19.0533 65.4478 19.1262 65.1372 19.2633C64.8265 19.4004 64.547 19.5989 64.3157 19.8467L61.0878 23.0161L57.8599 19.8467C57.3776 19.4203 56.7489 19.195 56.1043 19.2177C55.4596 19.2404 54.8485 19.5093 54.3976 19.9686C53.9467 20.4279 53.6907 21.0423 53.6826 21.6846C53.6745 22.3268 53.9149 22.9475 54.3541 23.4179L57.5192 26.5159L54.3541 29.6139C53.9149 30.0843 53.6745 30.705 53.6826 31.3472C53.6907 31.9895 53.9467 32.6039 54.3976 33.0632C54.8485 33.5225 55.4596 33.7914 56.1043 33.8141C56.7489 33.8367 57.3776 33.6115 57.8599 33.1851L61.0878 30.0246L64.3157 33.1851C64.547 33.4329 64.8265 33.6314 65.1372 33.7685C65.4478 33.9056 65.7832 33.9785 66.123 33.9828C66.4628 33.987 66.7999 33.9225 67.1139 33.7932C67.428 33.6639 67.7124 33.4725 67.9499 33.2306C68.1874 32.9886 68.3732 32.7011 68.4959 32.3856C68.6185 32.0701 68.6756 31.733 68.6636 31.3948C68.6516 31.0567 68.5708 30.7245 68.426 30.4184C68.2813 30.1122 68.0756 29.8385 67.8215 29.6139L64.6654 26.5159Z" fill="white"/>
<path d="M63.2307 43.4968C65.3492 43.5242 67.4143 44.1631 69.1754 45.336C69.339 45.4645 69.4489 45.6489 69.484 45.8534C69.5191 46.058 69.4769 46.2682 69.3654 46.4436C69.254 46.6189 69.0812 46.7469 68.8805 46.8029C68.6799 46.8588 68.4655 46.8388 68.2788 46.7466C66.5858 45.6005 64.5531 45.0587 62.5114 45.2094C60.4698 45.3602 58.5396 46.1946 57.035 47.5769C56.9656 47.6778 56.875 47.7624 56.7695 47.8248C56.6639 47.8872 56.5459 47.9258 56.4237 47.9381C56.3016 47.9503 56.1782 47.9359 56.0623 47.8957C55.9463 47.8555 55.8406 47.7906 55.7525 47.7055C55.6644 47.6204 55.596 47.5171 55.5521 47.403C55.5082 47.2888 55.4899 47.1665 55.4985 47.0445C55.5071 46.9226 55.5423 46.804 55.6017 46.697C55.6611 46.59 55.7433 46.4972 55.8424 46.4252C57.8802 44.6103 60.4978 43.5728 63.2307 43.4968Z" fill="#001968"/>
</g>
<defs>
<clipPath id="clip0">
<rect width="125" height="124" fill="white"/>
</clipPath>
</defs>
</svg>
