<svg width="127" height="126" viewBox="0 0 127 126" fill="none" xmlns="http://www.w3.org/2000/svg">
<g clip-path="url(#clip0)">
<path d="M104.645 103.366C104.526 103.375 104.407 103.375 104.289 103.366C101.975 102.903 100.9 101.796 98.7505 99.5917L97.0834 97.9043C96.9417 97.7548 96.7686 97.6382 96.5765 97.5629C96.3844 97.4877 96.178 97.4555 95.972 97.4689C94.15 97.4689 91.3077 99.8366 89.9777 101.297C89.8164 101.474 89.6217 101.617 89.4047 101.719C89.1877 101.82 88.9528 101.878 88.7132 101.889C88.4737 101.9 88.2344 101.864 88.009 101.783C87.7836 101.701 87.5765 101.576 87.3996 101.415C87.0441 101.091 86.832 100.64 86.8098 100.16C86.7876 99.6809 86.9571 99.2122 87.2812 98.8569C87.7367 98.3488 91.8361 93.9399 95.8809 93.8492C96.5799 93.8248 97.2765 93.9443 97.927 94.2004C98.5775 94.4564 99.168 94.8433 99.6614 95.337L101.356 97.0606C103.415 99.1653 103.834 99.5736 105 99.7822C105.483 99.8291 105.928 100.065 106.236 100.439C106.544 100.812 106.691 101.292 106.644 101.773C106.597 102.255 106.36 102.698 105.985 103.005C105.61 103.312 105.128 103.458 104.645 103.411V103.366Z" fill="#001968"/>
<path d="M34.0799 81.1666C33.9588 81.1795 33.8366 81.1795 33.7155 81.1666C31.4107 80.7039 30.3267 79.5971 28.1767 77.4017C27.703 76.9118 27.1564 76.3584 26.5096 75.7143C26.3702 75.5645 26.1988 75.4476 26.008 75.3722C25.8173 75.2969 25.6121 75.265 25.4074 75.2789C23.4578 75.2789 20.5245 77.8734 19.404 79.0982C19.079 79.4591 18.6234 79.6766 18.1374 79.703C17.6513 79.7294 17.1746 79.5624 16.8122 79.2388C16.4498 78.9152 16.2313 78.4614 16.2049 77.9774C16.1784 77.4934 16.3461 77.0187 16.671 76.6578C17.1265 76.1588 21.2259 71.7499 25.2798 71.6501C25.9781 71.6271 26.6737 71.7482 27.3227 72.0058C27.9718 72.2634 28.5603 72.6519 29.0513 73.147C29.7072 73.8001 30.2629 74.3717 30.7548 74.8706C32.8045 76.9753 33.2327 77.3745 34.3987 77.5922C34.882 77.6391 35.3267 77.8753 35.635 78.2487C35.9434 78.6222 36.0902 79.1023 36.0431 79.5835C35.996 80.0647 35.7588 80.5076 35.3838 80.8147C35.0088 81.1217 34.5267 81.2679 34.0435 81.221L34.0799 81.1666Z" fill="#001968"/>
<path d="M4.02663 95.092C3.87318 95.0918 3.72029 95.0735 3.57114 95.0376L1.37567 94.4751C1.14359 94.4156 0.925554 94.3111 0.734025 94.1676C0.542496 94.0241 0.381221 93.8444 0.259408 93.6389C0.137595 93.4334 0.0576291 93.2059 0.0240764 92.9696C-0.00947625 92.7333 0.00404127 92.4927 0.0638572 92.2616C0.123673 92.0305 0.228616 91.8133 0.372694 91.6226C0.516772 91.4319 0.697164 91.2713 0.90357 91.15C1.10998 91.0287 1.33835 90.949 1.57566 90.9156C1.81297 90.8822 2.05457 90.8957 2.28665 90.9552L4.50034 91.5177C4.93266 91.6255 5.3103 91.8874 5.56178 92.2539C5.81327 92.6203 5.92117 93.0658 5.86506 93.5061C5.80895 93.9464 5.59273 94.3509 5.2573 94.6432C4.92188 94.9354 4.49052 95.0951 4.04485 95.092H4.02663Z" fill="#001968"/>
<path d="M92.8564 121.147C92.6453 121.145 92.4359 121.108 92.237 121.038C90.9343 120.566 89.586 120.131 88.2195 119.613C87.9934 119.535 87.785 119.414 87.6061 119.256C87.4272 119.097 87.2813 118.905 87.1768 118.691C87.0724 118.477 87.0113 118.244 86.9972 118.006C86.9831 117.768 87.0161 117.53 87.0945 117.305C87.1728 117.079 87.295 116.872 87.4539 116.694C87.6128 116.516 87.8054 116.37 88.0207 116.266C88.236 116.162 88.4697 116.101 88.7086 116.087C88.9475 116.073 89.1868 116.106 89.4129 116.184C90.7976 116.668 92.1519 117.149 93.4759 117.627C93.8785 117.772 94.2168 118.054 94.4313 118.424C94.6458 118.793 94.7228 119.225 94.6489 119.645C94.575 120.066 94.3548 120.446 94.027 120.721C93.6992 120.995 93.2847 121.146 92.8564 121.147ZM78.2807 116.184C78.0887 116.185 77.8979 116.155 77.7159 116.094L73.6438 114.796C73.3955 114.745 73.1605 114.644 72.9539 114.497C72.7473 114.351 72.5737 114.163 72.4441 113.946C72.3145 113.729 72.2318 113.488 72.2014 113.237C72.1709 112.986 72.1933 112.732 72.2672 112.49C72.341 112.249 72.4647 112.025 72.6302 111.834C72.7958 111.643 72.9996 111.488 73.2287 111.38C73.4577 111.272 73.7069 111.212 73.9604 111.205C74.2138 111.198 74.4659 111.244 74.7006 111.34L78.7909 112.646C79.2014 112.781 79.5507 113.056 79.7762 113.423C80.0018 113.79 80.089 114.225 80.0222 114.65C79.9554 115.075 79.739 115.463 79.4117 115.744C79.0843 116.025 78.6673 116.181 78.2352 116.184H78.2807ZM63.5046 111.585C63.3254 111.584 63.1474 111.556 62.9762 111.503L58.8768 110.278C58.4243 110.132 58.0474 109.814 57.8268 109.394C57.6061 108.975 57.5592 108.485 57.6961 108.031C57.8329 107.578 58.1427 107.195 58.5591 106.966C58.9756 106.736 59.4656 106.678 59.9244 106.804L64.033 108.038C64.4483 108.166 64.8037 108.438 65.0352 108.805C65.2666 109.171 65.3587 109.608 65.2949 110.037C65.2311 110.465 65.0156 110.857 64.6872 111.14C64.3589 111.424 63.9394 111.582 63.5046 111.585ZM48.7011 107.23C48.5287 107.228 48.3573 107.203 48.191 107.158L44.0734 105.978C43.8431 105.913 43.628 105.803 43.4404 105.654C43.2528 105.506 43.0964 105.323 42.9801 105.114C42.8638 104.906 42.7898 104.676 42.7625 104.439C42.7352 104.202 42.755 103.962 42.8208 103.733C42.8866 103.504 42.9971 103.29 43.146 103.103C43.2949 102.916 43.4793 102.76 43.6887 102.644C44.1115 102.41 44.6103 102.353 45.0754 102.486L49.1931 103.683C49.6134 103.805 49.9755 104.074 50.2131 104.44C50.4508 104.806 50.5481 105.245 50.4873 105.677C50.4265 106.109 50.2115 106.504 49.8819 106.791C49.5522 107.078 49.1298 107.237 48.692 107.239L48.7011 107.23ZM33.843 103.039C33.6799 103.041 33.5173 103.019 33.3602 102.976L29.2244 101.842C28.758 101.714 28.3617 101.407 28.1225 100.989C27.8834 100.57 27.8209 100.074 27.949 99.6098C28.077 99.1455 28.3851 98.7508 28.8053 98.5126C29.2256 98.2744 29.7237 98.2123 30.19 98.3398L34.335 99.4828C34.7546 99.6046 35.1162 99.8726 35.3539 100.238C35.5917 100.603 35.6897 101.041 35.63 101.472C35.5704 101.904 35.3571 102.299 35.029 102.587C34.701 102.874 34.2801 103.035 33.843 103.039ZM18.9485 99.002C18.7883 99.0032 18.6289 98.9819 18.4748 98.9385L14.3298 97.8408C14.0822 97.7974 13.8463 97.7035 13.6369 97.5648C13.4275 97.4262 13.2492 97.2459 13.1132 97.0354C12.9772 96.8248 12.8864 96.5884 12.8466 96.3412C12.8068 96.094 12.8188 95.8412 12.8818 95.5989C12.9449 95.3565 13.0576 95.1297 13.213 94.9329C13.3683 94.736 13.5629 94.5733 13.7845 94.4549C14.0061 94.3366 14.2498 94.2652 14.5005 94.2453C14.7511 94.2253 15.0031 94.2573 15.2408 94.3391L19.3949 95.4368C19.8205 95.552 20.1898 95.817 20.4341 96.1828C20.6784 96.5485 20.7811 96.9902 20.7233 97.4256C20.6654 97.8611 20.4509 98.2609 20.1195 98.5508C19.788 98.8407 19.3623 99.001 18.9211 99.002H18.9485Z" fill="#001968"/>
<path d="M105.291 126C105.041 126 104.794 125.951 104.563 125.855C103.898 125.565 103.214 125.265 102.504 124.948C102.277 124.861 102.069 124.729 101.894 124.561C101.719 124.392 101.579 124.191 101.483 123.968C101.388 123.745 101.338 123.505 101.337 123.262C101.336 123.02 101.383 122.78 101.477 122.556C101.571 122.332 101.709 122.129 101.883 121.959C102.057 121.79 102.263 121.656 102.489 121.567C102.716 121.478 102.958 121.435 103.201 121.441C103.445 121.446 103.685 121.501 103.907 121.6C104.635 121.9 105.346 122.199 106.029 122.507C106.412 122.675 106.725 122.969 106.916 123.34C107.106 123.711 107.163 124.135 107.077 124.543C106.99 124.95 106.766 125.316 106.44 125.578C106.115 125.84 105.71 125.983 105.291 125.982V126Z" fill="#001968"/>
<path d="M89.2763 68.8107C89.1191 68.8119 88.9626 68.7905 88.8117 68.7472L86.6253 68.1847C86.3932 68.1252 86.1752 68.0206 85.9837 67.8772C85.7921 67.7337 85.6309 67.554 85.509 67.3485C85.3872 67.143 85.3073 66.9155 85.2737 66.6792C85.2402 66.4429 85.2537 66.2023 85.3135 65.9712C85.3733 65.74 85.4782 65.5229 85.6223 65.3322C85.7664 65.1415 85.9468 64.9809 86.1532 64.8595C86.3596 64.7382 86.588 64.6586 86.8253 64.6252C87.0626 64.5918 87.3042 64.6052 87.5363 64.6648L89.75 65.2363C90.1823 65.3442 90.5599 65.6061 90.8114 65.9725C91.0629 66.339 91.1708 66.7845 91.1147 67.2248C91.0586 67.6651 90.8424 68.0696 90.5069 68.3619C90.1715 68.6541 89.7402 68.8138 89.2945 68.8107H89.2763Z" fill="#001968"/>
<path d="M114.274 76.5218C114.062 76.5215 113.853 76.4847 113.654 76.4129C112.515 75.9956 111.386 75.5964 110.256 75.2063C110.03 75.1279 109.821 75.0058 109.643 74.847C109.464 74.6883 109.318 74.4959 109.214 74.2811C109.11 74.0662 109.05 73.833 109.036 73.5948C109.023 73.3566 109.056 73.1181 109.136 72.893C109.295 72.4401 109.628 72.0685 110.061 71.8593C110.495 71.6502 110.994 71.6207 111.45 71.7771C112.597 72.1763 113.754 72.5845 114.902 73.0019C115.306 73.1476 115.644 73.4305 115.859 73.8006C116.073 74.1707 116.15 74.6044 116.074 75.0251C115.999 75.4458 115.777 75.8266 115.448 76.1004C115.119 76.3742 114.703 76.5234 114.274 76.5218ZM101.875 72.3759C101.693 72.3748 101.512 72.3473 101.338 72.2942C100.181 71.9314 99.0238 71.5866 97.885 71.251C97.6433 71.195 97.4156 71.0903 97.2159 70.9435C97.0163 70.7967 96.8488 70.6109 96.7238 70.3973C96.5989 70.1838 96.5191 69.947 96.4893 69.7017C96.4595 69.4563 96.4803 69.2074 96.5505 68.9704C96.6208 68.7333 96.7389 68.5131 96.8977 68.3231C97.0565 68.1331 97.2526 67.9775 97.4739 67.8657C97.6953 67.7539 97.9372 67.6883 98.1849 67.6729C98.4326 67.6576 98.6809 67.6928 98.9145 67.7764C100.071 68.1121 101.237 68.4659 102.413 68.8288C102.829 68.9574 103.185 69.2303 103.416 69.5978C103.647 69.9654 103.739 70.4033 103.674 70.8322C103.609 71.2612 103.392 71.6527 103.062 71.9359C102.732 72.2191 102.311 72.3752 101.875 72.3759Z" fill="#001968"/>
<path d="M125.178 80.8309C124.931 80.8317 124.686 80.7823 124.458 80.6858L122.381 79.7786C121.949 79.5846 121.609 79.2302 121.435 78.7907C121.261 78.3513 121.265 77.8614 121.448 77.4254C121.631 76.9893 121.977 76.6415 122.413 76.4558C122.85 76.2701 123.342 76.2612 123.784 76.4311L125.898 77.3382C126.285 77.5023 126.603 77.7946 126.798 78.1655C126.993 78.5363 127.053 78.963 126.968 79.3731C126.884 79.7832 126.659 80.1515 126.333 80.4156C126.006 80.6796 125.599 80.8232 125.178 80.8219V80.8309Z" fill="#001968"/>
<path d="M4.555 55.4205H4.3637C2.93346 55.2844 2.1409 55.23 2.13179 55.23C1.64858 55.1951 1.19907 54.9705 0.882157 54.6055C0.565245 54.2406 0.406887 53.7652 0.44192 53.284C0.476953 52.8028 0.702507 52.3552 1.06896 52.0396C1.43542 51.724 1.91276 51.5663 2.39598 51.6012C2.39598 51.6012 3.20675 51.6556 4.70076 51.7917C5.18398 51.8134 5.63876 52.0253 5.96507 52.3809C6.29138 52.7364 6.46248 53.2065 6.44074 53.6877C6.41899 54.1689 6.20618 54.6218 5.84912 54.9468C5.49206 55.2717 5.02 55.4421 4.53678 55.4205H4.555Z" fill="#001968"/>
<path d="M21.0892 57.4253H20.8159C19.2217 57.1895 17.6913 56.9717 16.261 56.7812C15.7778 56.7175 15.3398 56.4652 15.0434 56.0798C14.747 55.6945 14.6165 55.2076 14.6805 54.7264C14.7445 54.2452 14.9979 53.8091 15.3848 53.5139C15.7718 53.2187 16.2606 53.0887 16.7439 53.1525C18.2014 53.343 19.741 53.5607 21.3625 53.7966C21.8458 53.8315 22.2953 54.0561 22.6122 54.421C22.9291 54.7859 23.0874 55.2613 23.0524 55.7425C23.0174 56.2237 22.7918 56.6713 22.4254 56.9869C22.0589 57.3025 21.5816 57.4602 21.0984 57.4253H21.0892Z" fill="#001968"/>
<path d="M35.2095 59.8113C35.0942 59.8197 34.9785 59.8197 34.8633 59.8113L32.6405 59.394C32.1645 59.3061 31.7431 59.0336 31.4689 58.6364C31.1947 58.2391 31.0902 57.7496 31.1784 57.2757C31.2666 56.8017 31.5402 56.382 31.9391 56.1089C32.3381 55.8359 32.8296 55.7318 33.3055 55.8196L35.5283 56.246C35.7676 56.2686 36 56.338 36.2124 56.4501C36.4247 56.5622 36.6128 56.7148 36.7659 56.8993C36.9191 57.0838 37.0342 57.2965 37.1047 57.5253C37.1753 57.7541 37.1999 57.9945 37.1772 58.2327C37.1545 58.471 37.0848 58.7025 36.9723 58.914C36.8597 59.1254 36.7064 59.3127 36.5212 59.4652C36.3359 59.6177 36.1223 59.7323 35.8926 59.8026C35.6628 59.8729 35.4214 59.8974 35.1821 59.8748L35.2095 59.8113Z" fill="#001968"/>
<path d="M55.825 93.7131C55.502 93.7163 55.1792 93.695 54.8594 93.6495C50.842 93.1324 49.7488 92.0438 49.5028 91.7172L49.4299 91.6084L43.3173 80.6585C43.1171 80.3161 43.0552 79.9107 43.1442 79.5246C43.2121 79.2925 43.3284 79.0772 43.4853 78.8928C43.6423 78.7084 43.8364 78.5589 44.0552 78.4541H44.128L46.4966 77.3654C49.0017 76.1839 51.4056 74.8004 53.6842 73.2286L58.8586 79.5155C57.1277 80.7039 55.4606 81.7472 53.7753 82.7088L55.0507 84.9859C55.156 85.1539 55.3036 85.2915 55.4789 85.385H55.57L57.3919 85.9203H57.483C58.2566 86.4101 58.8875 87.0935 59.3127 87.9023C59.7379 88.711 59.9426 89.6166 59.9062 90.5288C59.9337 90.9425 59.8659 91.357 59.7081 91.7406C59.5502 92.1242 59.3064 92.4669 58.9953 92.7424C58.0894 93.4336 56.9644 93.778 55.825 93.7131Z" fill="#001968"/>
<path d="M80.5764 91.8715C79.9584 91.8684 79.3532 91.6958 78.8273 91.3725C76.5863 90.0027 72.833 86.8366 67.3489 81.8379C63.5684 78.3634 60.0611 74.907 59.6056 74.4352C54.5344 69.774 49.9333 64.6299 45.868 59.0765C42.542 54.5888 39.7423 49.737 37.5234 44.6158C35.1331 39.2209 33.9428 33.3749 34.0343 27.4789C34.0975 22.2297 35.5222 17.0858 38.1702 12.5465C40.3358 9.03435 43.3563 6.12312 46.952 4.08244C51.7125 1.4067 57.0862 0.000732422 62.5526 0.000732422C68.019 0.000732422 73.3927 1.4067 78.1532 4.08244C81.7522 6.1219 84.776 9.03323 86.9442 12.5465C89.5985 17.0841 91.0295 22.2281 91.0982 27.4789C91.3989 35.8523 88.4382 44.9787 82.3164 54.6131C78.9986 59.7149 75.2304 64.5118 71.0566 68.9467L64.8893 63.6669C71.8674 56.246 83.4642 41.8035 82.9632 27.7692C82.289 9.072 65.8367 8.09223 62.5481 8.09223C59.2594 8.09223 42.8162 9.072 42.1603 27.7692C41.8779 35.5167 45.4398 44.6975 52.4453 54.3318C56.1924 59.4549 60.4367 64.1982 65.117 68.4931L65.281 68.6473C65.4268 68.7925 68.9249 72.2761 72.6782 75.7325C75.1423 78.0868 77.7431 80.2951 80.4671 82.346L86.1971 75.4694C86.7522 74.2633 87.6943 73.2753 88.8752 72.6611C90.0561 72.0468 91.4086 71.8412 92.7198 72.0765C94.5417 72.385 95.6987 73.147 96.0449 74.3445C96.719 76.7123 93.7492 79.5064 93.0568 80.1233L82.4712 91.0641C82.2328 91.3271 81.94 91.5356 81.6128 91.6749C81.2857 91.8143 80.9321 91.8814 80.5764 91.8715Z" fill="#001968"/>
<path d="M62.457 38.093C69.5711 38.093 75.3383 32.3499 75.3383 25.2653C75.3383 18.1808 69.5711 12.4376 62.457 12.4376C55.3428 12.4376 49.5757 18.1808 49.5757 25.2653C49.5757 32.3499 55.3428 38.093 62.457 38.093Z" fill="#FF6700"/>
<path d="M62.2292 27.8872C61.746 27.8872 61.2826 27.696 60.9409 27.3558C60.5992 27.0155 60.4072 26.554 60.4072 26.0728V17.8083C60.4072 17.3271 60.5992 16.8656 60.9409 16.5253C61.2826 16.1851 61.746 15.9939 62.2292 15.9939C62.7124 15.9939 63.1758 16.1851 63.5175 16.5253C63.8592 16.8656 64.0511 17.3271 64.0511 17.8083V26.0819C64.0487 26.5615 63.8557 27.0207 63.5143 27.359C63.1729 27.6973 62.7108 27.8872 62.2292 27.8872Z" fill="#001968"/>
<path d="M62.2292 35.054C61.746 35.054 61.2826 34.8629 60.9409 34.5226C60.5992 34.1823 60.4072 33.7208 60.4072 33.2396V32.024C60.4072 31.5428 60.5992 31.0813 60.9409 30.741C61.2826 30.4008 61.746 30.2096 62.2292 30.2096C62.7124 30.2096 63.1758 30.4008 63.5175 30.741C63.8592 31.0813 64.0511 31.5428 64.0511 32.024V33.2487C64.0487 33.7283 63.8557 34.1875 63.5143 34.5258C63.1729 34.8641 62.7108 35.054 62.2292 35.054Z" fill="#001968"/>
<path d="M62.7302 45.9312C62.2074 45.9309 61.6901 45.8237 61.2106 45.6161C60.7311 45.4086 60.2995 45.1051 59.9426 44.7246C57.9567 42.7469 55.3877 44.5885 55.2602 44.6702C55.117 44.7617 54.9449 44.7975 54.7769 44.7707C54.6088 44.7439 54.4566 44.6565 54.3492 44.525C54.2541 44.3826 54.2172 44.2094 54.246 44.0408C54.2748 43.8722 54.3671 43.721 54.5041 43.6178C55.7521 42.7106 58.7037 41.5766 60.9447 43.7993C62.7667 45.6136 64.9621 43.8537 65.2901 43.5725C65.9036 42.8083 66.7929 42.3134 67.768 42.1935C68.3448 42.184 68.9167 42.3001 69.4438 42.5336C69.971 42.767 70.4405 43.1123 70.8197 43.5453C70.8828 43.6076 70.9329 43.6819 70.967 43.7636C71.0012 43.8453 71.0188 43.933 71.0188 44.0215C71.0188 44.1101 71.0012 44.1977 70.967 44.2795C70.9329 44.3612 70.8828 44.4354 70.8197 44.4978C70.6916 44.6252 70.518 44.6968 70.3369 44.6968C70.1559 44.6968 69.9822 44.6252 69.8541 44.4978C69.6069 44.2044 69.2991 43.9674 68.9517 43.8031C68.6043 43.6387 68.2254 43.5508 67.8408 43.5453C67.225 43.6334 66.6687 43.9592 66.2922 44.4524L66.2011 44.5432C65.244 45.3979 64.0151 45.8894 62.7302 45.9312Z" fill="#001968"/>
</g>
<defs>
<clipPath id="clip0">
<rect width="127" height="126" fill="white"/>
</clipPath>
</defs>
</svg>
