<svg width="122" height="80" viewBox="0 0 122 80" fill="none" xmlns="http://www.w3.org/2000/svg">
<g clip-path="url(#clip0)">
<path d="M110.797 18.4567C110.702 17.1739 110.205 15.9557 109.378 14.98C108.552 14.0043 107.44 13.3224 106.204 13.0339C104.968 12.7453 103.674 12.8653 102.51 13.3763C101.346 13.8873 100.374 14.7625 99.736 15.874C99.3396 16.572 99.0833 17.3427 98.982 18.1417C98.883 18.9264 98.9373 19.7232 99.1418 20.4866C99.3463 21.25 99.6971 21.965 100.174 22.5909C100.651 23.2168 101.245 23.7412 101.921 24.1343C102.598 24.5274 103.344 24.7814 104.118 24.8819C105.68 25.0848 107.257 24.6498 108.503 23.6726C109.749 22.6955 110.562 21.2563 110.762 19.6715C110.813 19.2688 110.825 18.8618 110.797 18.4567ZM105.475 13.9573C106.353 14.0716 107.184 14.4236 107.882 14.9761C108.579 15.5287 109.118 16.2616 109.44 17.0979C106.553 17.7241 103.542 17.3502 100.889 16.036C101.401 15.2996 102.101 14.7182 102.913 14.3536C103.725 13.9891 104.62 13.8552 105.502 13.9662L105.475 13.9573ZM99.9844 18.2677C100.002 18.0853 100.035 17.9048 100.082 17.7278C101.324 18.0612 102.39 18.8726 103.052 19.9899C103.715 21.1072 103.922 22.4423 103.63 23.712C102.48 23.4051 101.479 22.6847 100.813 21.6849C100.147 20.685 99.8622 19.4738 100.011 18.2767L99.9844 18.2677ZM105.023 23.865C105.094 22.4792 105.679 19.1586 109.75 18.9516C109.764 19.1434 109.764 19.3358 109.75 19.5276C109.604 20.7005 109.05 21.7821 108.188 22.5786C107.327 23.375 106.214 23.8343 105.049 23.874L105.023 23.865Z" fill="#001968"/>
<path d="M100.233 8.37792C101.058 3.27556 105.555 3.59052 106.388 3.6985C107.222 3.80649 111.711 4.65238 111.196 9.79974C111.037 11.1127 110.598 12.3748 109.91 13.4983C110.333 13.8769 110.641 14.3701 110.797 14.9201C111.776 13.4047 112.429 11.6967 112.713 9.90773C112.863 8.58333 112.677 7.24192 112.172 6.01121C111.746 5.0676 111.097 4.24534 110.282 3.61751C109.18 2.80503 107.898 2.2797 106.548 2.0877C105.195 1.92489 103.823 2.10738 102.557 2.61864C101.612 3.00056 100.779 3.6199 100.135 4.41841C99.3408 5.46791 98.8275 6.70787 98.6449 8.01796C98.4273 9.52348 98.5363 11.059 98.9642 12.5174C99.0618 12.8864 99.3279 13.5613 99.4609 13.9392C99.7628 13.4488 100.184 13.0459 100.685 12.7694C100.192 11.3629 100.037 9.8574 100.233 8.37792Z" fill="#001968"/>
<path d="M110.62 17.0349L109.999 15.2351C109.895 14.8536 109.685 14.5102 109.396 14.2452L108.73 13.7683L109.138 13.0574C109.769 12.0398 110.172 10.8939 110.318 9.70078C110.38 8.51104 109.996 7.34147 109.243 6.42717C108.49 5.51288 107.424 4.92165 106.259 4.77233C105.094 4.62301 103.916 4.92667 102.963 5.62227C102.009 6.31787 101.351 7.35384 101.12 8.52193C100.94 9.89715 101.093 11.296 101.563 12.5984L101.803 13.3273L101.129 13.6783C100.763 13.8979 100.458 14.2074 100.242 14.5782L99.2569 16.063L98.5385 14.0292C98.3965 13.6423 98.228 13.1743 98.1571 12.8954C97.698 11.3198 97.58 9.66215 97.8111 8.03599C98.0155 6.56185 98.5932 5.16664 99.4876 3.98649C100.209 3.02792 101.162 2.27468 102.255 1.79977C103.666 1.21547 105.203 1.01359 106.715 1.21396C108.227 1.41432 109.661 2.01004 110.877 2.94263C111.81 3.64422 112.554 4.57257 113.041 5.64229C113.614 7.01583 113.828 8.51591 113.662 9.99774C113.363 11.9241 112.664 13.7643 111.613 15.3971L110.62 17.0349ZM99.5585 8.26996L100.233 8.37795L99.5585 8.26996Z" fill="#001968"/>
<path d="M112.376 21.1203L87.3266 17.8627C84.3373 17.4758 81.3481 21.7233 80.9578 24.7469L80.2305 30.5422C79.849 33.5748 82.3149 33.5388 85.2953 33.9257L110.353 37.1743C113.334 37.5613 115.676 38.2272 116.092 35.2036L116.829 29.4083C117.21 26.3757 115.365 21.5073 112.376 21.1203ZM86.3775 32.5669L83.0778 32.135C82.9026 32.1283 82.7306 32.0849 82.5728 32.0074C82.4149 31.9299 82.2746 31.8201 82.1607 31.6848C82.0468 31.5496 81.9618 31.3918 81.9111 31.2215C81.8603 31.0513 81.8449 30.8721 81.8658 30.6955C81.8867 30.5189 81.9435 30.3486 82.0326 30.1954C82.1217 30.0421 82.2411 29.9093 82.3833 29.8053C82.5255 29.7012 82.6875 29.6282 82.8589 29.5909C83.0304 29.5535 83.2076 29.5526 83.3794 29.5883L86.6879 30.0202C87.0042 30.0834 87.2848 30.2663 87.4729 30.5318C87.6611 30.7973 87.7425 31.1255 87.7007 31.4497C87.6589 31.7739 87.4971 32.0698 87.248 32.2773C86.9989 32.4848 86.6813 32.5884 86.3597 32.5669H86.3775ZM112.988 36.0135L109.679 35.5815C109.363 35.5184 109.082 35.3355 108.894 35.07C108.706 34.8045 108.625 34.4763 108.667 34.1521C108.708 33.8279 108.87 33.532 109.119 33.3245C109.368 33.1169 109.686 33.0134 110.008 33.0349L113.316 33.4668C113.632 33.5299 113.913 33.7128 114.101 33.9783C114.289 34.2438 114.371 34.572 114.329 34.8962C114.287 35.2205 114.125 35.5164 113.876 35.7239C113.627 35.9314 113.31 36.0349 112.988 36.0135Z" fill="#001968"/>
<path d="M87.2911 38.6952L79.6628 38.5332C79.5464 38.5175 79.4409 38.4556 79.3695 38.3612C79.298 38.2667 79.2663 38.1473 79.2814 38.0292L79.8846 33.2958C79.8846 33.0529 79.9467 32.8639 80.2482 32.9089C80.5498 32.9539 80.5498 33.0259 80.7627 33.4668C81.0554 34.0607 82.04 34.1057 82.04 34.1057L87.779 34.8256C87.8944 34.8435 87.9985 34.9059 88.0696 34.9998C88.1406 35.0937 88.1732 35.2119 88.1604 35.3296L87.8145 38.3352C87.8039 38.3939 87.7818 38.4499 87.7497 38.4999C87.7175 38.5499 87.6759 38.5929 87.6271 38.6264C87.5784 38.6599 87.5236 38.6832 87.466 38.695C87.4083 38.7068 87.3488 38.7069 87.2911 38.6952Z" fill="#001968"/>
<path d="M107.16 41.5118L114.647 43.1136C114.763 43.1289 114.881 43.0968 114.974 43.0242C115.067 42.9517 115.128 42.8447 115.143 42.7266L115.747 37.9842C115.747 37.7322 115.747 37.5433 115.48 37.5073C115.214 37.4713 115.161 37.5073 114.851 37.9122C114.54 38.3172 113.449 38.2092 113.449 38.2092L107.719 37.4443C107.602 37.4315 107.484 37.4657 107.391 37.5397C107.298 37.6137 107.238 37.7215 107.222 37.8402L106.77 41.0078C106.757 41.1269 106.791 41.2462 106.864 41.3404C106.937 41.4345 107.043 41.496 107.16 41.5118Z" fill="#001968"/>
<path d="M52.0944 2.09668H50.7018V24.8548H52.0944V2.09668Z" fill="#20CE88"/>
<path d="M56.6004 2.09668H55.5005V24.8548H56.6004V2.09668Z" fill="#20CE88"/>
<path d="M54.3119 2.09668H53.212V24.8548H54.3119V2.09668Z" fill="#20CE88"/>
<path d="M58.8357 2.09668H57.7358V24.8548H58.8357V2.09668Z" fill="#20CE88"/>
<path d="M61.3992 2.09668H60.0066V24.8548H61.3992V2.09668Z" fill="#20CE88"/>
<path d="M50.6662 26.4837L46.7545 13.3903L50.6662 0.476929V26.4837Z" fill="#20CE88"/>
<path d="M50.6663 26.8166C50.5945 26.8159 50.5248 26.792 50.4673 26.7483C50.4099 26.7046 50.3677 26.6434 50.3469 26.5737L46.4352 13.4983C46.4174 13.4335 46.4174 13.3651 46.4352 13.3003L50.3469 0.37794C50.3722 0.301876 50.423 0.237236 50.4904 0.195334C50.5579 0.153432 50.6377 0.136937 50.716 0.148737C50.7942 0.160537 50.8659 0.199879 50.9184 0.259878C50.9709 0.319877 51.001 0.39671 51.0033 0.476927V26.4837C51.0022 26.5642 50.9732 26.6417 50.9212 26.7027C50.8693 26.7636 50.7979 26.8039 50.7195 26.8166H50.6663ZM47.1182 13.3903L50.3558 24.189V2.69965L47.1182 13.3903Z" fill="#20CE88"/>
<path d="M61.4967 26.4837L65.4084 13.3903L61.4967 0.476929V26.4837Z" fill="#20CE88"/>
<path d="M61.4967 26.8166H61.4435C61.3651 26.8039 61.2937 26.7636 61.2418 26.7027C61.1898 26.6417 61.1608 26.5642 61.1597 26.4837V0.476927C61.162 0.39671 61.1921 0.319877 61.2446 0.259878C61.2971 0.199879 61.3688 0.160537 61.447 0.148737C61.5253 0.136937 61.6051 0.153432 61.6726 0.195334C61.74 0.237236 61.7908 0.301876 61.8161 0.37794L65.7278 13.2913C65.7456 13.3561 65.7456 13.4245 65.7278 13.4893L61.8161 26.5737C61.7953 26.6434 61.7531 26.7046 61.6957 26.7483C61.6382 26.792 61.5685 26.8159 61.4967 26.8166ZM61.8249 2.69965V24.207L65.0625 13.4083L61.8249 2.69965Z" fill="#20CE88"/>
<path d="M34.4339 22.4972C35.4817 20.4989 36.3001 18.3854 36.8732 16.1979C37.4962 13.9347 37.6263 11.5611 37.2546 9.24181C36.9488 7.17825 36.1137 5.23248 34.8331 3.59952C33.8199 2.36775 32.5173 1.41458 31.0455 0.827863C29.0614 0.0554832 26.9145 -0.184672 24.8122 0.130602C22.7098 0.445877 20.7232 1.30592 19.0442 2.62764C17.7762 3.61366 16.7727 4.9071 16.1259 6.38917C15.3687 8.31886 15.1122 10.4134 15.3808 12.4724C15.7445 15.802 17.4121 19.2486 20.357 22.7221C22.0934 24.7421 24.0216 26.5837 26.1137 28.2204C26.1137 28.2204 26.3532 28.3644 26.504 29.6783C26.7135 31.0998 26.832 32.5336 26.8588 33.9707C26.8588 34.1867 26.7967 34.2587 26.6991 34.2947L22.8229 34.5736C22.381 34.4798 21.9209 34.5387 21.5158 34.741C21.1107 34.9432 20.784 35.2771 20.5876 35.6895C19.5232 37.8852 22.6987 37.1293 22.6987 37.1293L28.7925 36.2294C28.9614 36.1906 29.1123 36.0946 29.2203 35.9572C29.3283 35.8199 29.3871 35.6493 29.3868 35.4735C29.4177 34.6931 29.397 33.9114 29.3247 33.1338C29.4718 33.9025 29.6704 34.6602 29.919 35.4015C30.0166 35.6445 30.3004 36.0225 30.6996 35.9415L36.7934 35.0416C36.7934 35.0416 40.0576 34.8436 38.4255 33.0528C38.119 32.7147 37.7103 32.4897 37.2639 32.4131C36.8175 32.3365 36.3586 32.4128 35.9596 32.6299L32.1632 33.5298C32.0656 33.5298 31.9769 33.4758 31.9237 33.2688C31.543 31.9061 31.2468 30.5206 31.0367 29.1203L31.0455 28.7964L30.9746 28.3914C31.0596 28.0687 31.2008 27.7639 31.3915 27.4915C32.5153 25.8981 33.5318 24.2295 34.4339 22.4972ZM28.9522 26.6726L28.6595 27.0596L28.074 26.6546C25.005 24.3059 18.5031 18.6276 17.8113 12.2564C16.9242 4.24744 23.7631 2.82561 25.138 2.62764C26.5129 2.42966 33.4316 1.80874 34.8952 9.73675C35.4806 12.9493 34.5847 16.9359 32.314 21.3723C31.3277 23.2146 30.2038 24.9775 28.9522 26.6456V26.6726Z" fill="#001968"/>
<path d="M26.4774 15.0281C25.1611 15.1081 23.8506 14.7953 22.7076 14.1282C22.6325 14.105 22.5635 14.0649 22.5057 14.0109C22.448 13.957 22.4029 13.8905 22.3739 13.8165C22.3449 13.7425 22.3327 13.6628 22.3382 13.5833C22.3437 13.5039 22.3667 13.4267 22.4056 13.3575C22.4445 13.2883 22.4982 13.2288 22.5628 13.1836C22.6274 13.1383 22.7012 13.1083 22.7788 13.0959C22.8563 13.0835 22.9356 13.089 23.0108 13.1119C23.086 13.1348 23.1552 13.1746 23.2132 13.2283C24.3167 13.8762 25.6041 14.1257 26.8654 13.9361C28.1267 13.7466 29.2874 13.1291 30.1585 12.1845C30.2018 12.1257 30.2567 12.0766 30.3197 12.0404C30.3827 12.0042 30.4524 11.9817 30.5244 11.9742C30.5965 11.9668 30.6692 11.9746 30.7381 11.9971C30.807 12.0196 30.8706 12.0564 30.9247 12.1051C30.9789 12.1538 31.0225 12.2134 31.0528 12.2801C31.0831 12.3468 31.0995 12.4191 31.1008 12.4926C31.1022 12.566 31.0885 12.6389 31.0607 12.7067C31.0328 12.7745 30.9914 12.8357 30.9391 12.8864C29.7524 14.1189 28.1693 14.8789 26.4774 15.0281Z" fill="#001968"/>
<path d="M14.1923 30.5961C14.8058 29.1535 15.2523 27.6436 15.5229 26.0967C15.8204 24.4699 15.769 22.7971 15.3721 21.1923C15.0234 19.7565 14.3109 18.4382 13.3053 17.3678C12.5155 16.5588 11.5356 15.9673 10.458 15.649C9.01144 15.2398 7.48718 15.2026 6.02293 15.541C4.5774 15.9045 3.2428 16.6248 2.13781 17.6377C1.32053 18.4159 0.710298 19.391 0.363776 20.4724C-0.0552127 21.8714 -0.107188 23.3572 0.212983 24.7828C0.863543 27.4413 2.29592 29.836 4.31986 31.649C5.65842 32.9512 7.11683 34.1204 8.6751 35.1405C8.6751 35.1405 8.85251 35.2305 9.04765 36.1394C9.27826 37.1204 9.44713 38.1153 9.55325 39.118C9.55325 39.271 9.55325 39.325 9.45568 39.352L6.79463 39.793C6.48192 39.7542 6.16535 39.8214 5.89422 39.9842C5.62309 40.147 5.41262 40.3961 5.29558 40.6929C4.68354 42.2946 6.86559 41.5927 6.86559 41.5927L11.0789 40.5759C11.3628 40.5219 11.4515 40.1979 11.4515 40.0089C11.4249 39.4594 11.3627 38.9123 11.2652 38.3711C11.4138 38.9003 11.6006 39.4176 11.824 39.9189C11.8685 40.0332 11.9496 40.1289 12.0541 40.1909C12.1586 40.2529 12.2806 40.2776 12.4006 40.2609L16.6139 39.253C16.6139 39.253 18.8846 38.9111 17.634 37.7592C17.3996 37.5321 17.0953 37.3937 16.7722 37.3675C16.449 37.3413 16.1269 37.4288 15.8599 37.6152L13.2521 38.4431C13.1811 38.4431 13.1102 38.4431 13.057 38.2812C12.7078 37.3483 12.4116 36.3958 12.1699 35.4285V35.2395L12.099 34.9516C12.1389 34.7168 12.22 34.4913 12.3385 34.2856C13.0399 33.1008 13.6593 31.868 14.1923 30.5961ZM10.6443 33.8717L10.4669 34.1597L10.0411 33.9167C7.74374 32.4679 2.84742 28.8953 1.96927 24.4589C0.878244 18.8976 5.57055 17.4848 6.51966 17.2598C7.46876 17.0348 12.2764 16.1709 13.7577 21.6332C14.3609 23.856 13.9795 26.7266 12.6489 29.9482C12.0556 31.3061 11.3586 32.6149 10.5644 33.8627L10.6443 33.8717Z" fill="#001968"/>
<path d="M9.40239 25.7817C8.51478 25.8163 7.64201 25.5434 6.92762 25.0078C6.84328 24.9422 6.78334 24.8496 6.75757 24.745C6.73179 24.6404 6.74171 24.5301 6.7857 24.4319C6.80248 24.3879 6.82905 24.3485 6.86333 24.3167C6.89762 24.2849 6.93869 24.2615 6.98334 24.2484C7.02799 24.2354 7.07502 24.2329 7.12074 24.2414C7.16647 24.2498 7.20966 24.2688 7.24694 24.2969C7.58991 24.5548 7.98024 24.7405 8.39499 24.8432C8.80973 24.9458 9.24052 24.9632 9.662 24.8945C10.0835 24.8257 10.4872 24.6721 10.8493 24.4428C11.2114 24.2135 11.5247 23.913 11.7707 23.559C11.7987 23.52 11.8354 23.4882 11.8778 23.4663C11.9202 23.4444 11.9671 23.433 12.0146 23.433C12.0622 23.433 12.1091 23.4444 12.1515 23.4663C12.1939 23.4882 12.2306 23.52 12.2586 23.559C12.3226 23.6461 12.3573 23.7518 12.3573 23.8605C12.3573 23.9691 12.3226 24.0749 12.2586 24.1619C11.5521 25.0602 10.5267 25.6417 9.40239 25.7817Z" fill="#001968"/>
<path d="M120.634 50.1057C120.502 50.1049 120.371 50.0867 120.244 50.0517C101.042 44.7693 81.1652 42.4576 61.2838 43.1946C59.9621 43.2485 59.5098 43.2576 59.1017 43.2665C58.6937 43.2755 58.3832 43.2665 56.627 43.3745C53.8329 43.5185 53.5135 41.5748 53.3716 40.7649C53.3513 40.5864 53.3096 40.4111 53.2474 40.2429C53.0212 40.1564 52.7787 40.1226 52.5378 40.1439H52.4314C17.6781 40.1439 2.94483 48.8459 2.75855 48.9358C2.45738 49.0983 2.1062 49.1372 1.77755 49.0446C1.44891 48.9519 1.1679 48.7347 0.992566 48.4379C0.817235 48.141 0.760978 47.7872 0.835415 47.4495C0.909851 47.1118 1.10929 46.8159 1.39255 46.6231C2.00459 46.2452 16.7911 37.4443 52.3959 37.4443H52.5023C55.4738 37.4443 55.8109 39.451 55.9617 40.3059L56.0238 40.6659C56.1652 40.6832 56.3081 40.6832 56.4496 40.6659C58.2679 40.5579 58.5074 40.5579 59.013 40.5489C59.3678 40.5489 59.9 40.5489 61.1507 40.4769C81.3429 39.7246 101.531 42.0698 121.033 47.433C121.336 47.5303 121.594 47.734 121.762 48.0076C121.929 48.2812 121.995 48.6065 121.947 48.9248C121.898 49.2431 121.74 49.5334 121.499 49.7434C121.258 49.9533 120.951 50.0691 120.634 50.0697V50.1057Z" fill="#001968"/>
<path d="M1.64094 56.8998C1.64094 53.4983 11.4957 49.8897 26.5217 47.361C40.9002 44.9403 50.7638 45.5613 50.7638 45.5613C50.7638 45.5613 51.8105 45.5073 51.8016 46.8481L51.7484 47.838C51.7484 47.838 51.8105 49.3678 53.6466 49.2418C54.7997 49.1698 69.125 48.6299 84.2397 49.5478C102.237 50.6456 121.388 53.5523 121.308 57.0888C121.308 57.0888 128.236 79.955 61.3459 79.955C-5.54388 79.955 1.64094 56.8998 1.64094 56.8998Z" fill="#20CE88"/>
</g>
<defs>
<clipPath id="clip0">
<rect width="122" height="80" fill="white"/>
</clipPath>
</defs>
</svg>
