<svg width="129" height="112" viewBox="0 0 129 112" fill="none" xmlns="http://www.w3.org/2000/svg">
<g clip-path="url(#clip0)">
<path d="M118.31 28.8299C118.145 26.6514 117.288 24.5826 115.863 22.9261C114.439 21.2695 112.522 20.112 110.392 19.6227C108.263 19.1334 106.033 19.3379 104.028 20.2064C102.024 21.0749 100.349 22.5619 99.2499 24.4499C98.578 25.6359 98.1528 26.9455 97.9999 28.2999C97.8272 29.7151 97.9521 31.1507 98.3668 32.5146C98.7814 33.8786 99.4765 35.1409 100.408 36.2205C101.339 37.3001 102.485 38.1732 103.773 38.7838C105.062 39.3943 106.463 39.7289 107.888 39.766C109.313 39.8031 110.731 39.5419 112.049 38.9992C113.367 38.4565 114.557 37.6442 115.543 36.6145C116.529 35.5848 117.289 34.3604 117.774 33.0199C118.259 31.6793 118.459 30.2521 118.36 28.8299H118.31ZM109.17 21.2199C110.678 21.4087 112.108 21.9994 113.309 22.93C114.511 23.8606 115.44 25.0971 116 26.5099C111.027 27.5771 105.84 26.9432 101.27 24.7099C102.148 23.4683 103.347 22.488 104.738 21.8734C106.129 21.2588 107.661 21.033 109.17 21.2199ZM99.7099 28.5299C99.7512 28.2206 99.8079 27.9136 99.8799 27.6099C106.63 29.8499 106.39 35.5399 106 37.7899C104.005 37.2757 102.265 36.0517 101.107 34.3472C99.9493 32.6426 99.4525 30.5744 99.7099 28.5299ZM108.41 38.0399C108.52 35.6899 109.53 30.0399 116.55 29.6899C116.547 30.0244 116.524 30.3583 116.48 30.6899C116.212 32.6642 115.256 34.4805 113.779 35.8181C112.303 37.1556 110.401 37.9284 108.41 37.9999V38.0399Z" fill="#001968"/>
<path d="M100.1 11.7199C101.52 3.04991 109.19 3.57991 110.71 3.77991C112.23 3.97991 119.8 5.38991 119 14.1399C118.737 16.3881 117.979 18.55 116.78 20.4699C117.542 21.1056 118.102 21.9503 118.39 22.8999C120.076 20.3234 121.201 17.4203 121.69 14.3799C121.959 12.129 121.635 9.84688 120.75 7.75991C120.026 6.15183 118.908 4.7521 117.5 3.68991C115.611 2.28874 113.394 1.39725 111.061 1.10127C108.728 0.805284 106.359 1.11476 104.18 1.99991C102.547 2.66743 101.109 3.73728 100 5.10991C98.6206 6.90873 97.7317 9.03467 97.42 11.2799C97.0631 13.8221 97.261 16.4115 98 18.8699C98.17 19.4899 98.62 20.6499 98.85 21.2899C99.3787 20.4604 100.103 19.7735 100.96 19.2899C100.071 16.872 99.7757 14.2757 100.1 11.7199Z" fill="#001968"/>
<path d="M118.13 25.21L117.43 23.21C117.217 22.4521 116.786 21.7738 116.19 21.26L115.44 20.73L115.91 19.94C117.038 18.1393 117.752 16.1104 118 14C118.7 6.36997 112.5 4.99997 110.59 4.72997C108.68 4.45997 102.33 4.26997 101.08 11.84C100.783 14.2382 101.064 16.6727 101.9 18.94L102.17 19.76L101.4 20.15C100.699 20.5573 100.106 21.1265 99.6699 21.81L98.5699 23.45L97.6899 21.01C97.4399 20.35 97.1599 19.6 97.0299 19.09C96.2571 16.4972 96.0592 13.7671 96.4499 11.09C96.7883 8.67388 97.746 6.38642 99.2299 4.44997C100.437 2.94558 102.006 1.77225 103.79 1.03997C106.128 0.083339 108.675 -0.250915 111.181 0.0698069C113.687 0.390529 116.068 1.35528 118.09 2.86997C119.635 4.02928 120.863 5.55987 121.66 7.31997C122.599 9.5681 122.943 12.0201 122.66 14.44C122.167 17.6521 120.99 20.7211 119.21 23.44L118.13 25.21ZM118.03 20.27C118.175 20.433 118.312 20.6032 118.44 20.78C119.581 18.7728 120.344 16.5729 120.69 14.29C120.934 12.21 120.638 10.1021 119.83 8.16997C119.162 6.70657 118.129 5.4394 116.83 4.48997C115.086 3.19284 113.037 2.36619 110.882 2.08949C108.726 1.81278 106.535 2.09533 104.52 2.90997C103.041 3.51862 101.74 4.49228 100.74 5.73997C99.4704 7.40311 98.6538 9.36702 98.3699 11.44C98.0584 13.8441 98.2734 16.2872 98.9999 18.6C99.0599 18.8 99.1399 19.05 99.2399 19.33C99.4199 19.17 99.6099 19.01 99.8099 18.86C99.0452 16.5034 98.823 14.0045 99.16 11.55C100.38 4.12997 106.25 2.18997 110.89 2.77997C115.53 3.36997 120.73 6.77997 120.04 14.23C119.777 16.3609 119.083 18.4161 118 20.27H118.03Z" fill="#001968"/>
<path d="M121 33.35L77.8498 27.83C72.7098 27.17 67.5498 34.38 66.8498 39.52L65.5898 49.37C64.9298 54.51 69.1798 54.45 74.3198 55.11L117.5 60.63C122.64 61.29 126.73 62.42 127.39 57.28L128.65 47.43C129.35 42.29 126.17 34 121 33.35ZM76.2298 52.8L70.5298 52.07C70.2455 52.0339 69.9711 51.9421 69.7222 51.8C69.4734 51.6578 69.2549 51.468 69.0794 51.2414C68.9039 51.0149 68.7748 50.7559 68.6993 50.4794C68.6239 50.2029 68.6037 49.9143 68.6398 49.63C68.6759 49.3457 68.7677 49.0713 68.9098 48.8224C69.052 48.5736 69.2418 48.3552 69.4684 48.1797C69.6949 48.0042 69.9539 47.875 70.2303 47.7996C70.5068 47.7241 70.7955 47.7039 71.0798 47.74L76.7798 48.47C77.354 48.5429 77.8757 48.841 78.2301 49.2986C78.5846 49.7562 78.7427 50.3358 78.6698 50.91C78.5969 51.4842 78.2988 52.0059 77.8412 52.3603C77.3836 52.7148 76.804 52.8729 76.2298 52.8ZM122 58.66L116.3 57.93C115.726 57.8571 115.204 57.559 114.849 57.1014C114.495 56.6438 114.337 56.0642 114.41 55.49C114.483 54.9158 114.781 54.3941 115.238 54.0397C115.696 53.6852 116.276 53.5271 116.85 53.6L122.55 54.33C122.834 54.3661 123.109 54.4579 123.357 54.6C123.606 54.7422 123.825 54.932 124 55.1586C124.176 55.3851 124.305 55.6441 124.38 55.9206C124.456 56.197 124.476 56.4857 124.44 56.77C124.404 57.0543 124.312 57.3287 124.17 57.5776C124.028 57.8264 123.838 58.0448 123.611 58.2203C123.385 58.3958 123.126 58.525 122.849 58.6004C122.573 58.6759 122.284 58.6961 122 58.66Z" fill="#001968"/>
<path d="M77.8 63.2699L64.66 62.9999C64.4581 62.9725 64.275 62.8671 64.1498 62.7064C64.0246 62.5457 63.9672 62.3424 63.99 62.1399L64.99 54.0799C65.05 53.6599 65.11 53.3499 65.63 53.4199C66.15 53.4899 66.15 53.6199 66.51 54.3599C67.02 55.3599 68.72 55.4499 68.72 55.4499L78.6 56.6899C78.6997 56.701 78.7962 56.732 78.8838 56.781C78.9713 56.83 79.0482 56.8961 79.1097 56.9754C79.1713 57.0546 79.2163 57.1455 79.2421 57.2424C79.2679 57.3394 79.274 57.4406 79.26 57.5399L78.62 62.5999C78.5998 62.7974 78.5021 62.9788 78.3484 63.1044C78.1947 63.2299 77.9975 63.2895 77.8 63.2699Z" fill="#001968"/>
<path d="M112 68L124.91 70.72C125.111 70.7456 125.315 70.6906 125.476 70.567C125.637 70.4434 125.742 70.2612 125.77 70.06L126.77 62C126.77 61.58 126.84 61.26 126.32 61.2C125.8 61.14 125.77 61.26 125.23 61.89C124.48 62.75 122.82 62.39 122.82 62.39L113 61.09C112.798 61.0674 112.596 61.1251 112.437 61.2505C112.278 61.3759 112.175 61.559 112.15 61.76L111.37 67.14C111.344 67.337 111.394 67.5364 111.512 67.6967C111.629 67.8569 111.804 67.9656 112 68Z" fill="#001968"/>
<path d="M57.8399 8.25H56.5999V28.96H57.8399V8.25Z" fill="#FF0B0B"/>
<path d="M53.2598 28.96H52.0198L54.0198 18.52L52.0198 8.25H53.2598L55.2598 18.55L53.2598 28.96Z" fill="#FF0B0B"/>
<path d="M62.3599 28.96H61.1199L59.1199 18.66L61.1199 8.25H62.3599L60.3599 18.66L62.3599 28.96Z" fill="#FF0B0B"/>
<path d="M46.3599 8.24997H47.5999V6.77997C47.6048 6.69766 47.6404 6.62019 47.6997 6.56282C47.7589 6.50544 47.8374 6.47232 47.9199 6.46997C48.0016 6.45691 48.0855 6.47022 48.1592 6.50797C48.2329 6.54573 48.2927 6.60597 48.3299 6.67997L52.7399 18.43C52.752 18.4584 52.7582 18.489 52.7582 18.52C52.7582 18.5509 52.752 18.5815 52.7399 18.61L48.3299 30.52C48.2994 30.589 48.2486 30.647 48.1843 30.6863C48.12 30.7256 48.0451 30.7444 47.9699 30.74C47.8881 30.7355 47.8108 30.7016 47.752 30.6447C47.6932 30.5877 47.657 30.5115 47.6499 30.43V29H46.3599V8.24997Z" fill="#FF0B0B"/>
<path d="M61.6999 18.4299L66.1099 6.67994C66.15 6.60614 66.2118 6.54642 66.2869 6.50886C66.362 6.4713 66.4468 6.45772 66.5299 6.46994C66.6106 6.4747 66.6867 6.50889 66.7438 6.56603C66.801 6.62316 66.8352 6.69928 66.8399 6.77994V8.24994H68.1499V28.9999H66.8399V30.4699C66.8328 30.5515 66.7966 30.6277 66.7378 30.6847C66.679 30.7416 66.6016 30.7754 66.5199 30.7799C66.4449 30.7829 66.3707 30.7637 66.3066 30.7245C66.2425 30.6853 66.1915 30.6281 66.1599 30.5599L61.6999 18.6099C61.6801 18.5516 61.6801 18.4883 61.6999 18.4299Z" fill="#FF0B0B"/>
<path d="M31.5099 44.21C33.0091 41.4212 34.1802 38.4682 34.9999 35.41C35.887 32.2209 36.0712 28.8772 35.5399 25.61C35.0896 22.7216 33.8974 19.9995 32.0799 17.71C30.6292 15.9554 28.7528 14.6023 26.6299 13.78C23.7956 12.7134 20.7403 12.3698 17.7399 12.78C14.7465 13.2427 11.915 14.4419 9.49988 16.27C7.70521 17.6721 6.29472 19.5057 5.39988 21.6C4.30782 24.3125 3.93911 27.2621 4.32988 30.16C4.83988 34.83 7.22988 39.68 11.4299 44.57C13.909 47.4072 16.6586 49.9961 19.6399 52.3C19.6399 52.3 19.9799 52.51 20.2099 54.36C20.4999 56.3478 20.6668 58.3516 20.7099 60.36C20.7099 60.67 20.6199 60.77 20.4799 60.81L14.9499 61.21C14.3178 61.0763 13.6591 61.1583 13.079 61.4429C12.499 61.7275 12.031 62.1982 11.7499 62.78C10.2399 65.86 14.7499 64.78 14.7499 64.78L23.4499 63.5C24.0199 63.5 24.2699 62.82 24.2899 62.5C24.3363 61.3992 24.3062 60.2966 24.1999 59.2C24.4154 60.2812 24.7027 61.3469 25.0599 62.39C25.1899 62.74 25.5999 63.27 26.1699 63.15L34.8699 61.9C34.8699 61.9 39.5199 61.62 37.1899 59.1C36.7546 58.6241 36.1725 58.3074 35.5365 58.2005C34.9004 58.0936 34.2469 58.2025 33.6799 58.51L28.2599 59.71C28.1199 59.71 27.9799 59.64 27.9099 59.34C27.3852 57.4232 26.9778 55.4763 26.6899 53.51V53.11L26.5899 52.54C26.7101 52.0741 26.9133 51.6337 27.1899 51.24C28.7898 48.9988 30.2332 46.6498 31.5099 44.21ZM23.6899 50.09L23.2799 50.63L22.4499 50.06C18.0599 46.76 8.77988 38.77 7.79988 29.78C6.55988 18.51 16.2799 16.51 18.2399 16.23C20.1999 15.95 30.0799 15.08 32.1199 26.23C32.9399 30.75 31.6599 36.41 28.4199 42.6C27.0416 45.2166 25.4601 47.7209 23.6899 50.09Z" fill="#001968"/>
<path d="M127.18 77.8299C127.02 77.8269 126.862 77.7999 126.71 77.7499C106.422 71.9012 85.3282 69.3388 64.2299 70.1599C62.8299 70.2199 62.2999 70.2299 61.9199 70.2399C61.5399 70.2499 61.1599 70.2399 59.2999 70.3599C58.87 70.4401 58.4278 70.4254 58.0042 70.3167C57.5807 70.2081 57.186 70.0082 56.8478 69.7309C56.5096 69.4537 56.2361 69.1059 56.0465 68.7119C55.8568 68.3179 55.7556 67.8872 55.7499 67.4499C55.7302 67.2446 55.6831 67.0428 55.6099 66.8499C55.3985 66.7911 55.1789 66.7674 54.9599 66.7799H54.8499C18.0599 66.7799 2.45989 76.4199 2.30989 76.5199C1.97627 76.7102 1.58236 76.7653 1.20933 76.6738C0.836302 76.5823 0.512584 76.3512 0.304888 76.0281C0.0971913 75.705 0.021342 75.3146 0.0929708 74.9373C0.1646 74.5599 0.378249 74.2244 0.689889 73.9999C1.33989 73.5899 17.0499 63.7899 54.8399 63.7899H54.9999C58.2299 63.7899 58.5999 66.0199 58.7499 66.9799C58.7499 67.0999 58.7499 67.2599 58.8199 67.3799H59.1699C61.0999 67.2699 61.3499 67.2599 61.8899 67.2499C62.2599 67.2499 62.7799 67.2499 64.1499 67.1699C85.6072 66.3422 107.059 68.9553 127.69 74.9099C128.033 75.0184 128.325 75.2465 128.514 75.5526C128.703 75.8587 128.775 76.2225 128.718 76.5776C128.661 76.9327 128.479 77.2555 128.204 77.4872C127.929 77.7189 127.58 77.8441 127.22 77.8399L127.18 77.8299Z" fill="#001968"/>
<path d="M0.999787 85.38C0.999787 81.6 11.4398 77.58 27.3798 74.77C42.6198 72.09 53.0698 72.83 53.0698 72.83C53.0698 72.83 54.1798 72.76 54.1698 74.25L54.1198 75.35C54.1327 75.5904 54.1969 75.8252 54.308 76.0388C54.419 76.2524 54.5744 76.4398 54.7638 76.5885C54.9532 76.7371 55.1721 76.8436 55.406 76.9008C55.6398 76.9579 55.8832 76.9645 56.1198 76.92C66.9286 76.4868 77.7524 76.6003 88.5498 77.26C107.63 78.47 127.93 81.7 127.84 85.63C127.84 85.63 135.19 111.04 64.2798 111.04C-6.63022 111.04 0.999787 85.38 0.999787 85.38Z" fill="#FF0B0B"/>
<path d="M20.3598 35.33C24.9493 35.33 28.6698 31.6094 28.6698 27.02C28.6698 22.4305 24.9493 18.71 20.3598 18.71C15.7703 18.71 12.0498 22.4305 12.0498 27.02C12.0498 31.6094 15.7703 35.33 20.3598 35.33Z" fill="#FF0B0B"/>
<path d="M22.4998 26.69L24.1098 24.55C24.2293 24.3918 24.3164 24.2115 24.3663 24.0196C24.4161 23.8277 24.4277 23.6278 24.4003 23.4314C24.3729 23.235 24.3071 23.0459 24.2066 22.875C24.1062 22.704 23.973 22.5545 23.8148 22.435C23.6565 22.3155 23.4763 22.2283 23.2844 22.1785C23.0924 22.1286 22.8926 22.1171 22.6962 22.1445C22.4998 22.1719 22.3107 22.2377 22.1397 22.3382C21.9688 22.4386 21.8193 22.5718 21.6998 22.73L20.0598 24.91L17.8498 23.3C17.5227 23.1017 17.133 23.034 16.7582 23.1104C16.3835 23.1868 16.0513 23.4016 15.8279 23.712C15.6046 24.0225 15.5064 24.4057 15.5531 24.7853C15.5998 25.1649 15.7878 25.5129 16.0798 25.76L18.2398 27.33L16.6298 29.47C16.4164 29.7924 16.3338 30.184 16.399 30.5651C16.4641 30.9462 16.672 31.2882 16.9804 31.5214C17.2888 31.7546 17.6745 31.8615 18.0589 31.8204C18.4434 31.7793 18.7977 31.5932 19.0498 31.3L20.6898 29.11L22.8998 30.72C23.226 30.9534 23.6316 31.0476 24.0273 30.982C24.423 30.9164 24.7764 30.6962 25.0098 30.37C25.2432 30.0438 25.3374 29.6382 25.2718 29.2425C25.2061 28.8468 24.986 28.4934 24.6598 28.26L22.4998 26.69Z" fill="white"/>
<path d="M23.1698 36.9999C24.4356 36.821 25.7261 37.0192 26.8798 37.5699C27.0028 37.6247 27.0992 37.7258 27.1479 37.8514C27.1966 37.9769 27.1937 38.1165 27.1398 38.2399C27.0831 38.3612 26.9818 38.4559 26.857 38.5043C26.7322 38.5527 26.5935 38.5512 26.4698 38.4999C25.3586 37.9599 24.0967 37.8143 22.8917 38.0869C21.6867 38.3595 20.6104 39.0342 19.8398 39.9999C19.7991 40.0531 19.7483 40.0978 19.6904 40.1313C19.6324 40.1649 19.5684 40.1867 19.502 40.1955C19.4356 40.2043 19.3681 40.2 19.3034 40.1827C19.2387 40.1655 19.178 40.1356 19.1248 40.0949C19.0716 40.0542 19.027 40.0034 18.9934 39.9455C18.9599 39.8875 18.9381 39.8235 18.9292 39.7571C18.9204 39.6907 18.9248 39.6232 18.942 39.5585C18.9593 39.4938 18.9891 39.4331 19.0298 39.3799C20.0882 38.1259 21.5535 37.2835 23.1698 36.9999Z" fill="#001968"/>
</g>
<defs>
<clipPath id="clip0">
<rect width="128.78" height="111.04" fill="white"/>
</clipPath>
</defs>
</svg>
