<svg width="129" height="112" viewBox="0 0 129 112" fill="none" xmlns="http://www.w3.org/2000/svg">
<g clip-path="url(#clip0)">
<path d="M118.31 28.8301C118.145 26.6515 117.288 24.5827 115.863 22.9262C114.439 21.2696 112.522 20.1121 110.392 19.6228C108.263 19.1335 106.033 19.338 104.028 20.2065C102.024 21.0751 100.349 22.562 99.2499 24.4501C98.578 25.636 98.1528 26.9456 97.9999 28.3001C97.8272 29.7152 97.9521 31.1508 98.3668 32.5148C98.7814 33.8788 99.4765 35.141 100.408 36.2206C101.339 37.3002 102.485 38.1733 103.773 38.7839C105.062 39.3944 106.463 39.729 107.888 39.7661C109.313 39.8032 110.731 39.542 112.049 38.9993C113.367 38.4566 114.557 37.6443 115.543 36.6147C116.529 35.585 117.289 34.3606 117.774 33.02C118.259 31.6794 118.459 30.2522 118.36 28.8301H118.31ZM109.17 21.2201C110.678 21.4089 112.108 21.9995 113.309 22.9301C114.511 23.8607 115.44 25.0972 116 26.5101C111.027 27.5772 105.84 26.9433 101.27 24.7101C102.148 23.4684 103.347 22.4881 104.738 21.8735C106.129 21.2589 107.661 21.0331 109.17 21.2201ZM99.7099 28.5301C99.7512 28.2207 99.8079 27.9137 99.8799 27.6101C106.63 29.8501 106.39 35.5401 106 37.7901C104.005 37.2758 102.265 36.0518 101.107 34.3473C99.9493 32.6427 99.4525 30.5745 99.7099 28.5301ZM108.41 38.0401C108.52 35.6901 109.53 30.0401 116.55 29.6901C116.55 30.0201 116.55 30.3501 116.49 30.6901C116.222 32.666 115.264 34.4836 113.786 35.8213C112.307 37.1591 110.403 37.9308 108.41 38.0001V38.0401Z" fill="#001968"/>
<path d="M100.1 11.72C101.52 3.05004 109.19 3.58004 110.71 3.78004C112.23 3.98004 119.8 5.39004 119 14.14C118.737 16.3882 117.979 18.5501 116.78 20.47C117.546 21.1021 118.107 21.9481 118.39 22.9C120.076 20.3235 121.201 17.4204 121.69 14.38C121.959 12.1292 121.635 9.847 120.75 7.76004C120.026 6.15195 118.908 4.75222 117.5 3.69004C115.611 2.28886 113.394 1.39738 111.061 1.10139C108.728 0.805407 106.359 1.11488 104.18 2.00004C102.547 2.66755 101.109 3.7374 100 5.11004C98.6246 6.91114 97.7361 9.036 97.42 11.28C97.0631 13.8222 97.261 16.4116 98 18.87C98.17 19.49 98.62 20.65 98.85 21.29C99.3787 20.4605 100.103 19.7736 100.96 19.29C100.071 16.8721 99.7757 14.2758 100.1 11.72Z" fill="#001968"/>
<path d="M118.13 25.2101L117.43 23.2101C117.217 22.4522 116.786 21.7739 116.19 21.2601L115.44 20.7301L115.91 19.9401C117.031 18.1541 117.744 16.1431 118 14.0501C118.7 6.41006 112.5 5.05006 110.59 4.77006C108.68 4.49006 102.33 4.31006 101.08 11.8801C100.783 14.2783 101.064 16.7127 101.9 18.9801L102.17 19.8001L101.4 20.1901C100.699 20.5974 100.106 21.1666 99.6699 21.8501L98.5699 23.4901L97.6799 21.0001C97.4399 20.3501 97.1599 19.6001 97.0299 19.1001C96.2571 16.5073 96.0592 13.7772 96.4499 11.1001C96.7859 8.68637 97.744 6.40157 99.2299 4.47006C100.435 2.95744 102.009 1.7798 103.8 1.05006C106.14 0.102944 108.684 -0.224398 111.188 0.0996881C113.691 0.423774 116.068 1.38832 118.09 2.90006C119.635 4.05937 120.863 5.58996 121.66 7.35006C122.599 9.59819 122.943 12.0502 122.66 14.4701C122.167 17.6822 120.99 20.7512 119.21 23.4701L118.13 25.2101ZM118.03 20.2701C118.175 20.4331 118.312 20.6033 118.44 20.7801C119.581 18.7729 120.344 16.573 120.69 14.2901C120.934 12.2101 120.638 10.1022 119.83 8.17006C119.159 6.70831 118.127 5.44176 116.83 4.49006C115.086 3.19293 113.037 2.36628 110.882 2.08957C108.726 1.81287 106.535 2.09542 104.52 2.91006C103.041 3.51871 101.74 4.49237 100.74 5.74006C99.4704 7.4032 98.6538 9.36711 98.3699 11.4401C98.0584 13.8442 98.2734 16.2873 98.9999 18.6001C99.0599 18.8001 99.1399 19.0501 99.2399 19.3401C99.4207 19.1694 99.611 19.0091 99.8099 18.8601C99.0457 16.5068 98.8235 14.0113 99.16 11.5601C100.38 4.13006 106.25 2.19006 110.89 2.78006C115.53 3.37006 120.73 6.78006 120.04 14.2301C119.777 16.361 119.083 18.4161 118 20.2701H118.03Z" fill="#001968"/>
<path d="M121 33.3501L77.8498 27.8301C72.7098 27.1701 67.5498 34.3801 66.8498 39.5201L65.5898 49.3701C64.9298 54.5101 69.1798 54.4501 74.3198 55.1101L117.5 60.6401C122.64 61.2901 126.73 62.4201 127.39 57.2801L128.65 47.4301C129.35 42.2901 126.17 34.0001 121 33.3501ZM76.2298 52.8001L70.5298 52.0701C70.2455 52.034 69.9711 51.9422 69.7222 51.8001C69.4734 51.6579 69.2549 51.4681 69.0794 51.2416C68.9039 51.015 68.7748 50.7561 68.6993 50.4796C68.6239 50.2031 68.6037 49.9144 68.6398 49.6301C68.6759 49.3458 68.7677 49.0714 68.9098 48.8225C69.052 48.5737 69.2418 48.3553 69.4684 48.1798C69.6949 48.0043 69.9539 47.8751 70.2303 47.7997C70.5068 47.7242 70.7955 47.704 71.0798 47.7401L76.7798 48.4701C77.354 48.5431 77.8757 48.8411 78.2301 49.2987C78.5846 49.7563 78.7427 50.3359 78.6698 50.9101C78.5969 51.4843 78.2988 52.006 77.8412 52.3605C77.3836 52.7149 76.804 52.8731 76.2298 52.8001ZM122 58.6601L116.3 57.9301C115.726 57.8572 115.204 57.5591 114.849 57.1016C114.495 56.644 114.337 56.0643 114.41 55.4901C114.483 54.9159 114.781 54.3942 115.238 54.0398C115.696 53.6853 116.276 53.5272 116.85 53.6001L122.56 54.3301C123.134 54.4044 123.655 54.7037 124.009 55.1622C124.362 55.6208 124.519 56.2009 124.445 56.7751C124.371 57.3493 124.071 57.8705 123.613 58.224C123.154 58.5775 122.574 58.7344 122 58.6601Z" fill="#001968"/>
<path d="M77.8 63.2701L64.66 63.0001C64.4581 62.9726 64.275 62.8672 64.1498 62.7065C64.0246 62.5458 63.9672 62.3425 63.99 62.1401L64.99 54.0801C64.99 53.6601 65.1 53.35 65.62 53.42C66.14 53.49 66.14 53.6201 66.5 54.3601C67.01 55.3601 68.71 55.4501 68.71 55.4501L78.59 56.69C78.6897 56.7011 78.7862 56.7321 78.8738 56.7811C78.9613 56.8301 79.0382 56.8962 79.0997 56.9755C79.1612 57.0548 79.2063 57.1456 79.2321 57.2425C79.2579 57.3395 79.264 57.4407 79.25 57.5401L78.61 62.6C78.5897 62.7956 78.4935 62.9754 78.342 63.1007C78.1905 63.226 77.9959 63.2868 77.8 63.2701Z" fill="#001968"/>
<path d="M112 68L124.91 70.72C125.111 70.7456 125.315 70.6906 125.476 70.567C125.637 70.4434 125.742 70.2612 125.77 70.06L126.77 62C126.77 61.58 126.84 61.26 126.32 61.2C125.8 61.14 125.77 61.26 125.23 61.89C124.48 62.75 122.82 62.39 122.82 62.39L113 61.09C112.798 61.0674 112.596 61.1251 112.437 61.2505C112.278 61.3759 112.175 61.559 112.15 61.76L111.37 67.14C111.344 67.337 111.394 67.5364 111.512 67.6967C111.629 67.8569 111.804 67.9656 112 68Z" fill="#001968"/>
<path d="M57.8399 8.25H56.5999V28.96H57.8399V8.25Z" fill="#FF6700"/>
<path d="M53.2598 28.96H52.0198L54.0198 18.52L52.0198 8.25H53.2598L55.2598 18.55L53.2598 28.96Z" fill="#FF6700"/>
<path d="M62.3699 28.96H61.1199L59.1199 18.66L61.1199 8.25H62.3699L60.3699 18.66L62.3699 28.96Z" fill="#FF6700"/>
<path d="M46.3599 8.25009H47.5999V6.78009C47.6048 6.69778 47.6404 6.62031 47.6997 6.56294C47.7589 6.50556 47.8374 6.47244 47.9199 6.47009C48.0029 6.45614 48.0883 6.47018 48.1625 6.51C48.2367 6.54982 48.2956 6.61317 48.3299 6.69009L52.7499 18.4301C52.7697 18.4885 52.7697 18.5517 52.7499 18.6101L48.3299 30.5201C48.2994 30.5891 48.2486 30.6471 48.1843 30.6864C48.12 30.7257 48.0451 30.7445 47.9699 30.7401C47.8881 30.7356 47.8108 30.7018 47.752 30.6448C47.6932 30.5879 47.657 30.5116 47.6499 30.4301V29.0001H46.3599V8.25009Z" fill="#FF6700"/>
<path d="M61.6999 18.4301L66.1099 6.69006C66.1473 6.6134 66.2082 6.5507 66.2838 6.51112C66.3594 6.47154 66.4456 6.45715 66.5299 6.47006C66.6106 6.47481 66.6867 6.509 66.7438 6.56614C66.801 6.62328 66.8352 6.69939 66.8399 6.78006V8.25006H68.1499V29.0001H66.8399V30.4701C66.8331 30.55 66.7983 30.625 66.7416 30.6817C66.6848 30.7384 66.6099 30.7733 66.5299 30.7801H66.4699C66.3949 30.7831 66.3206 30.7638 66.2566 30.7246C66.1925 30.6855 66.1415 30.6282 66.1099 30.5601L61.6999 18.6101C61.6801 18.5517 61.6801 18.4884 61.6999 18.4301Z" fill="#FF6700"/>
<path d="M33.1398 42.2C34.8504 39.0303 36.1925 35.6751 37.1398 32.2C38.1464 28.5537 38.3477 24.732 37.7298 21C37.2175 17.7096 35.8599 14.6085 33.7898 12C32.13 10.01 29.9937 8.47234 27.5798 7.53002C24.3529 6.31781 20.8746 5.92943 17.4598 6.40002C14.0498 6.93481 10.8264 8.30941 8.07981 10.4C6.03809 11.9892 4.42875 14.0662 3.39981 16.44C2.1626 19.5313 1.74578 22.8901 2.18981 26.19C2.76981 31.51 5.48981 37 10.2798 42.6C13.101 45.8318 16.2289 48.7822 19.6198 51.41C19.6198 51.41 20.0098 51.64 20.2698 53.75C20.6017 56.026 20.792 58.3204 20.8398 60.62C20.8398 60.97 20.7298 61.08 20.5798 61.13L14.2798 61.59C13.5602 61.437 12.8101 61.5302 12.1499 61.8549C11.4898 62.1795 10.9579 62.7167 10.6398 63.38C8.91981 66.88 14.0798 65.67 14.0798 65.67L23.9998 64.22C24.6498 64.15 24.9298 63.44 24.9998 63.02C25.0572 61.7692 25.0238 60.516 24.8998 59.27C25.153 60.4974 25.4871 61.7067 25.8998 62.89C25.9825 63.1569 26.1529 63.3881 26.3835 63.546C26.614 63.7039 26.8911 63.7793 27.1698 63.76L36.9998 62.33C36.9998 62.33 42.2998 62.02 39.6398 59.15C39.1458 58.6045 38.4821 58.2416 37.7562 58.12C37.0303 57.9984 36.2847 58.1253 35.6398 58.48L29.4698 59.84C29.3098 59.84 29.1598 59.76 29.0698 59.42C28.4719 57.237 28.0077 55.0196 27.6798 52.78V52.33L27.5598 51.67C27.6999 51.1444 27.93 50.6471 28.2398 50.2C30.0535 47.6481 31.6907 44.9752 33.1398 42.2ZM24.2398 48.89L23.7598 49.5L22.7598 48.86C17.8198 45.09 7.25981 36 6.13981 25.76C4.72981 12.93 15.7998 10.65 17.9998 10.33C20.1998 10.01 31.5098 9.00002 33.8298 21.72C34.7698 26.87 33.3098 33.31 29.6298 40.36C28.0547 43.3375 26.2527 46.1892 24.2398 48.89Z" fill="#001968"/>
<path d="M127.18 77.83C127.023 77.8279 126.868 77.8009 126.72 77.75C106.428 71.9038 85.3314 69.3415 64.2299 70.16C62.8299 70.22 62.2999 70.23 61.9199 70.24C61.5399 70.25 61.1599 70.24 59.2999 70.36C58.87 70.4402 58.4278 70.4255 58.0042 70.3169C57.5807 70.2082 57.186 70.0083 56.8478 69.7311C56.5096 69.4538 56.2361 69.106 56.0465 68.712C55.8568 68.318 55.7556 67.8873 55.7499 67.45C55.728 67.246 55.6844 67.0449 55.6199 66.85C55.4024 66.8073 55.1815 66.7839 54.9599 66.78H54.8499C18.0599 66.78 2.45989 76.42 2.30989 76.52C1.97627 76.7103 1.58236 76.7654 1.20933 76.6739C0.836302 76.5824 0.512584 76.3513 0.304888 76.0283C0.0971913 75.7052 0.021342 75.3147 0.0929708 74.9374C0.1646 74.56 0.378249 74.2245 0.689889 74C1.33989 73.59 17.0499 63.79 54.8399 63.79H54.9999C58.2399 63.79 58.5999 66.03 58.7499 66.98L58.8199 67.38H59.1699C61.0999 67.27 61.3599 67.26 61.8899 67.25C62.2699 67.25 62.7799 67.25 64.1499 67.17C85.6073 66.3411 107.059 68.9542 127.69 74.91C128.033 75.0185 128.325 75.2466 128.514 75.5527C128.703 75.8589 128.775 76.2226 128.718 76.5777C128.661 76.9328 128.479 77.2556 128.204 77.4874C127.929 77.7191 127.58 77.8442 127.22 77.84L127.18 77.83Z" fill="#001968"/>
<path d="M0.999787 85.38C0.999787 81.6 11.4398 77.58 27.3798 74.78C42.6198 72.09 53.0798 72.78 53.0798 72.78C53.0798 72.78 54.1898 72.71 54.1698 74.2L54.1198 75.3C54.1327 75.5404 54.1969 75.7753 54.308 75.9888C54.419 76.2024 54.5744 76.3898 54.7638 76.5385C54.9532 76.6871 55.1721 76.7936 55.406 76.8508C55.6398 76.908 55.8832 76.9145 56.1198 76.87C66.9286 76.4368 77.7524 76.5503 88.5498 77.21C107.63 78.42 127.93 81.65 127.84 85.58C127.84 85.58 135.19 110.99 64.2798 110.99C-6.63022 110.99 0.999787 85.38 0.999787 85.38Z" fill="#FF6700"/>
<path d="M24.2098 31C23.7753 31.0683 23.3315 31.0476 22.9052 30.9394C22.4789 30.8311 22.079 30.6374 21.7298 30.37C19.8198 29 17.9298 30.89 17.8498 30.97C17.7984 31.0278 17.7357 31.0745 17.6657 31.1073C17.5956 31.1401 17.5196 31.1583 17.4423 31.1608C17.365 31.1633 17.288 31.15 17.216 31.1218C17.144 31.0935 17.0785 31.051 17.0235 30.9966C16.9684 30.9423 16.925 30.8773 16.8959 30.8056C16.8668 30.734 16.8526 30.6571 16.8541 30.5798C16.8556 30.5025 16.8729 30.4263 16.9048 30.3558C16.9367 30.2854 16.9827 30.2222 17.0398 30.17C17.9498 29.24 20.2398 27.9 22.3998 29.45C24.1498 30.7 25.7298 28.94 25.9698 28.66C26.1672 28.3031 26.4331 27.9886 26.7523 27.7347C27.0715 27.4807 27.4376 27.2922 27.8298 27.18C28.3122 27.0897 28.8086 27.1065 29.2838 27.2292C29.759 27.3519 30.2014 27.5775 30.5798 27.89C30.7031 27.9789 30.7861 28.1131 30.8105 28.2631C30.8349 28.4131 30.7986 28.5667 30.7098 28.69C30.6209 28.8133 30.4867 28.8963 30.3367 28.9207C30.1867 28.9451 30.0331 28.9089 29.9098 28.82C29.6654 28.6073 29.3784 28.4491 29.068 28.3559C28.7576 28.2628 28.431 28.2369 28.1098 28.28C27.8602 28.3623 27.6293 28.493 27.4303 28.6646C27.2312 28.8362 27.068 29.0453 26.9498 29.28C26.9321 29.3115 26.9121 29.3416 26.8898 29.37C26.2145 30.2099 25.2662 30.7867 24.2098 31Z" fill="#001968"/>
</g>
<defs>
<clipPath id="clip0">
<rect width="128.78" height="111.04" fill="white"/>
</clipPath>
</defs>
</svg>
