<svg width="105" height="100" viewBox="0 0 105 100" fill="none" xmlns="http://www.w3.org/2000/svg">
<g clip-path="url(#clip0)">
<path d="M4.75465 100C3.80888 100.046 2.88347 99.718 2.18202 99.0889C1.48056 98.4598 1.06051 97.5809 1.01427 96.6455C0.968035 95.7101 1.2994 94.7949 1.93546 94.1011C2.57153 93.4073 3.4602 92.9919 4.40597 92.9462C5.99088 92.7973 9.16069 92.8286 13.9154 92.8835C21.523 92.9618 31.9437 93.0716 41.1045 92.4524C54.8773 91.5197 57.5082 89.4036 57.8648 89.0352C58.0153 88.6585 58.043 88.2447 57.9441 87.8517C56.7871 86.3469 49.6233 86.3861 45.772 86.4096C38.8697 86.4096 32.9184 86.4801 30.763 82.4908C28.8294 78.8933 28.6154 75.7113 30.1369 73.0387C33.3067 67.4896 42.412 66.9567 51.232 66.4472C54.5762 66.2513 59.6162 65.9613 60.7414 65.2716C62.2709 64.0646 62.7305 61.7447 63.2614 59.0642C63.832 56.1721 64.4739 52.896 66.7641 50.192C74.0071 41.6412 84.0871 41.8058 92.9864 41.9469C95.5222 41.9469 98.1373 42.0252 100.594 41.8763C101.062 41.847 101.532 41.9092 101.976 42.0593C102.42 42.2095 102.83 42.4446 103.182 42.7514C103.534 43.0582 103.821 43.4305 104.028 43.8472C104.235 44.2639 104.356 44.7167 104.386 45.1799C104.415 45.643 104.353 46.1074 104.201 46.5466C104.049 46.9857 103.811 47.391 103.501 47.7392C103.191 48.0875 102.814 48.3719 102.393 48.5762C101.972 48.7806 101.514 48.9008 101.046 48.9302C98.3037 49.1026 95.546 49.0556 92.8754 49.0164C84.5071 48.8831 77.2879 48.7656 72.2716 54.7378C71.1622 56.0467 70.7422 58.1707 70.2984 60.4279C69.6328 63.7981 68.8086 67.9912 65.1554 70.852C62.7067 72.7722 58.6414 73.1014 51.6837 73.5011C46.7705 73.7911 37.6335 74.324 36.3894 76.5029C36.223 76.7929 36.2784 77.5688 36.9124 78.8542C38.3071 79.4341 42.7607 79.4106 45.7562 79.395C52.9358 79.395 60.3531 79.3087 63.6656 83.6351C64.7354 85.0302 65.7814 87.4755 64.7116 91.1592C62.3818 99.0203 45.7482 100.321 13.8282 99.953C9.75503 99.906 6.24446 99.8668 5.06371 99.953L4.75465 100Z" fill="#20CE88"/>
<path d="M8.79615 92.3035C8.66691 92.3134 8.53709 92.3134 8.40785 92.3035C6.82294 92.0919 6.33955 91.6608 6.24445 91.5197V91.4727L3.74823 87.0758C3.66901 86.9379 3.64631 86.7752 3.68483 86.6212C3.70656 86.5292 3.74831 86.443 3.80715 86.3685C3.866 86.2941 3.94054 86.2332 4.02558 86.1902L4.98445 85.7513C6.00842 85.2742 6.99164 84.7159 7.92445 84.0818L10.0086 86.5977C9.31125 87.0758 8.63766 87.4912 7.95615 87.8753L8.47124 88.7922C8.51655 88.8569 8.57617 88.9105 8.64558 88.949L9.37464 89.1606H9.41426C9.72659 89.3553 9.98128 89.6282 10.1525 89.9517C10.3237 90.2752 10.4053 90.6377 10.389 91.0025C10.4013 91.1672 10.3756 91.3325 10.3138 91.4859C10.252 91.6393 10.1558 91.7769 10.0324 91.8881C9.68178 92.1647 9.24456 92.3116 8.79615 92.3035Z" fill="#001968"/>
<path d="M18.7811 91.5667C18.529 91.5642 18.2825 91.4937 18.0679 91.363C16.4343 90.2153 14.8972 88.9388 13.4716 87.546C11.9501 86.1588 10.5396 84.7715 10.3494 84.5834C8.30396 82.7144 6.44624 80.654 4.80221 78.4309C3.46116 76.6342 2.33373 74.6907 1.44221 72.6389C0.463587 70.4809 -0.0285517 68.1381 -4.9768e-05 65.7732C0.0246623 63.6713 0.597895 61.6114 1.6641 59.7931C2.54414 58.396 3.76488 57.2398 5.21429 56.4308C7.14261 55.38 9.30481 54.8198 11.5064 54.8005C13.7078 54.8204 15.8699 55.3806 17.7984 56.4308C19.2504 57.2474 20.4692 58.4151 21.3407 59.8244C22.3934 61.6358 22.9582 63.6841 22.9811 65.7732C23.1 69.1277 21.9113 72.827 19.4388 76.6439C18.1061 78.6832 16.5918 80.6006 14.9139 82.3732L12.4335 80.2571C15.2309 77.3023 19.9064 71.5103 19.7083 65.8907C19.4626 58.3902 12.8298 57.9983 11.5064 57.9983C10.183 57.9983 3.58184 58.3823 3.2807 65.8829C3.16976 68.9709 4.6041 72.6703 7.43316 76.5264C8.94248 78.5808 10.6547 80.4816 12.5445 82.2008L12.6079 82.2635C12.6633 82.3184 14.0581 83.6978 15.5954 85.1007C16.5961 86.0472 17.6547 86.9319 18.7652 87.7498L21.0792 84.9988C21.2957 84.5114 21.6731 84.111 22.1496 83.8633C22.6261 83.6156 23.1735 83.5351 23.7022 83.6351C24.455 83.7605 24.9067 84.0662 25.0415 84.5442C25.3188 85.4926 24.1222 86.6134 23.8369 86.8563L19.5735 91.2454C19.4738 91.3537 19.351 91.4388 19.2139 91.4944C19.0769 91.5499 18.929 91.5747 18.7811 91.5667Z" fill="#001968"/>
<path d="M14.7633 70.8284C13.8236 70.8505 12.8979 70.5999 12.1006 70.1074C12.0576 70.083 12.0198 70.0505 11.9897 70.0115C11.9595 69.9726 11.9375 69.9281 11.925 69.8807C11.9124 69.8332 11.9096 69.7838 11.9166 69.7352C11.9236 69.6866 11.9404 69.64 11.9659 69.5979C12.0184 69.5148 12.1015 69.4552 12.1977 69.4318C12.2939 69.4083 12.3956 69.423 12.481 69.4725C13.2443 69.949 14.1471 70.1586 15.045 70.0677C15.9429 69.9767 16.7841 69.5905 17.4339 68.9709C17.5022 68.9002 17.5961 68.8593 17.6949 68.8571C17.7937 68.8549 17.8894 68.8916 17.9608 68.9592C18.0323 69.0267 18.0737 69.1196 18.0759 69.2173C18.0781 69.3151 18.041 69.4097 17.9727 69.4804C17.0969 70.2896 15.9603 70.767 14.7633 70.8284Z" fill="#001968"/>
<path d="M99.6033 25.1274C101.038 23.2206 102.246 21.1561 103.201 18.9748C104.219 16.706 104.73 14.2464 104.699 11.7643C104.68 9.56278 104.088 7.40327 102.979 5.49417C102.079 4.03847 100.823 2.83079 99.326 1.98292C97.3232 0.862665 95.0614 0.273926 92.7605 0.273926C90.4596 0.273926 88.1978 0.862665 86.195 1.98292C84.6945 2.82813 83.4328 4.03284 82.526 5.48633C81.4019 7.39063 80.7984 9.55149 80.7747 11.7564C80.6399 15.2833 81.8999 19.1394 84.5071 23.2307C86.0536 25.6053 87.8262 27.8282 89.8007 29.8691C89.8007 29.8691 90.0384 30.0572 89.9988 31.4366C89.9945 32.9509 89.8993 34.4637 89.7135 35.9668C89.7135 36.2019 89.5947 36.2646 89.4837 36.2803L85.2916 35.9668C84.8367 35.7949 84.3366 35.7786 83.8712 35.9207C83.4058 36.0628 83.002 36.3549 82.7241 36.7505C81.2422 38.8667 84.7607 38.5845 84.7607 38.5845H91.4252C91.8611 38.5845 92.1147 38.1691 92.1781 37.8948C92.3338 37.0847 92.4344 36.2651 92.4792 35.4417C92.5155 36.265 92.6109 37.0848 92.7645 37.8948C92.8279 38.177 93.0735 38.608 93.5094 38.5924H100.174C100.174 38.5924 103.692 38.8902 102.226 36.774C101.954 36.3712 101.553 36.0704 101.088 35.9197C100.622 35.7691 100.119 35.7774 99.6588 35.9433L95.4667 36.2411C95.3558 36.2411 95.2607 36.1549 95.2448 35.9276C95.06 34.4482 94.97 32.9587 94.9754 31.468V30.7313C95.1164 30.3999 95.3179 30.097 95.5697 29.8378C97.02 28.3592 98.3676 26.7855 99.6033 25.1274ZM93.0894 28.6308L92.7169 28.9991L92.1543 28.4897C89.2381 25.5584 83.1599 18.6065 83.4373 11.827C83.7622 3.33099 91.2747 2.92343 92.7724 2.92343C94.2701 2.92343 101.783 3.37018 102.076 11.8661C102.187 15.3147 100.602 19.3746 97.4875 23.6225C96.1532 25.4008 94.6829 27.0752 93.0894 28.6308Z" fill="#001968"/>
<path d="M100.641 38.9294C100.404 38.9294 100.229 38.9294 100.174 38.9294H93.5331C93.2782 38.9192 93.0349 38.8212 92.8453 38.6523C92.6557 38.4834 92.5318 38.2543 92.495 38.0045C92.4504 38.255 92.3209 38.483 92.1279 38.651C91.935 38.8191 91.69 38.9172 91.4331 38.9294H84.7924C84.6101 38.9294 82.7399 39.0705 82.2248 38.1926C81.9792 37.7851 82.0743 37.26 82.5101 36.6251C82.8162 36.175 83.2649 35.8383 83.7857 35.668C84.3065 35.4978 84.8697 35.5036 85.3867 35.6846L89.4441 35.9903V35.9511C89.6352 34.4536 89.7331 32.946 89.7373 31.4366C89.7994 30.9675 89.7533 30.4906 89.6026 30.0415C87.6143 27.998 85.8334 25.7667 84.2852 23.3796C81.6463 19.2413 80.3784 15.3225 80.5131 11.7329C80.5423 9.49138 81.1594 7.29576 82.3041 5.36092C83.2369 3.86341 84.5371 2.62327 86.0841 1.75562C88.1168 0.643216 90.3941 0.0404286 92.7169 0V0C95.0645 0.0242891 97.3689 0.627735 99.4211 1.75562C100.964 2.62674 102.259 3.86967 103.185 5.36876C104.337 7.30698 104.96 9.50825 104.992 11.7564C105.029 14.282 104.51 16.7853 103.47 19.0924C102.507 21.2916 101.292 23.3744 99.849 25.2998C98.6046 26.98 97.2464 28.5747 95.7837 30.0729C95.5762 30.2874 95.405 30.5335 95.2765 30.8018V31.1937V31.515C95.2733 32.9848 95.3633 34.4533 95.546 35.9119C95.546 35.9119 95.546 35.9589 95.546 35.9668L99.5954 35.6846C100.113 35.5044 100.677 35.4997 101.198 35.6715C101.719 35.8432 102.167 36.1814 102.472 36.633C102.67 36.838 102.801 37.0962 102.851 37.3752C102.9 37.6541 102.865 37.9413 102.749 38.2005C102.369 38.8353 101.267 38.9294 100.641 38.9294ZM93.5094 38.3024H100.19C100.76 38.3494 101.989 38.3024 102.25 37.8713C102.393 37.6205 102.187 37.2286 101.989 36.9465C101.757 36.5968 101.412 36.3352 101.01 36.2042C100.609 36.0733 100.174 36.0807 99.7777 36.2254H99.6905L95.4905 36.5154C95.344 36.5055 95.2069 36.4408 95.1068 36.3346C95.0068 36.2283 94.9513 36.0884 94.9516 35.9433C94.7726 34.4528 94.6827 32.9532 94.6822 31.4523V31.1388V30.6842V30.645C94.8295 30.2626 95.0532 29.9134 95.3399 29.6183C96.7868 28.1439 98.1292 26.5727 99.3577 24.9157C100.775 23.027 101.969 20.9837 102.916 18.8259C103.915 16.607 104.418 14.2009 104.39 11.7721C104.373 9.63098 103.797 7.53049 102.718 5.67443C101.844 4.26008 100.623 3.08727 99.1675 2.26507C97.2075 1.18766 95.0067 0.61115 92.7644 0.58782C90.5217 0.614695 88.319 1.17949 86.3456 2.23372C84.8881 3.05488 83.662 4.22438 82.7795 5.63524C81.6834 7.49452 81.0962 9.60425 81.0758 11.7564C80.941 15.2206 82.1773 19.0297 84.7527 23.0661C86.2916 25.4231 88.0535 27.6302 90.0146 29.6575C90.2207 29.8142 90.3237 30.4413 90.2999 31.4523C90.2959 32.9799 90.1979 34.5058 90.0067 36.0216C90.0067 36.155 89.959 36.2841 89.8719 36.3859C89.7849 36.4878 89.6642 36.5559 89.5312 36.5781L85.1807 36.2489C84.7837 36.1029 84.3485 36.094 83.9457 36.2234C83.5429 36.3529 83.1962 36.6132 82.9618 36.9621C82.7637 37.2443 82.5577 37.6362 82.7082 37.887C82.9618 38.3259 84.1901 38.3729 84.7369 38.3259H91.4252C91.6709 38.3259 91.8531 38.0124 91.8928 37.8635C92.0409 37.0684 92.1362 36.2647 92.178 35.4573H92.7724C92.8108 36.2675 92.9062 37.0742 93.0577 37.8713C93.0894 37.9967 93.2478 38.3259 93.5094 38.3024ZM92.7169 29.4302L92.5188 29.1559L91.9958 28.6856C89.238 25.9268 82.8905 18.7711 83.1599 11.8034C83.4531 3.07234 91.132 2.60992 92.7169 2.60992C94.3018 2.60992 102.004 3.07234 102.306 11.8426C102.424 15.3539 100.824 19.4764 97.6618 23.7636C96.3279 25.5688 94.852 27.267 93.2478 28.8424L92.7169 29.4302ZM92.7169 3.19774C91.2271 3.19774 83.9999 3.62881 83.6909 11.8191C83.4294 18.5594 89.658 25.5584 92.3444 28.2781L92.6931 28.5916L92.8595 28.4348C94.4364 26.8773 95.8909 25.203 97.2101 23.4266C100.285 19.2413 101.854 15.252 101.735 11.874C101.458 3.64449 94.1909 3.25261 92.7327 3.20558L92.7169 3.19774Z" fill="#001968"/>
<path d="M92.9626 17.3916C96.1094 17.3916 98.6603 14.8686 98.6603 11.7564C98.6603 8.64414 96.1094 6.12115 92.9626 6.12115C89.8158 6.12115 87.2649 8.64414 87.2649 11.7564C87.2649 14.8686 89.8158 17.3916 92.9626 17.3916Z" fill="#20CE88"/>
<path d="M92.3286 14.5544C92.1777 14.5523 92.0332 14.4935 91.9245 14.3898L89.6026 12.1953C89.5477 12.1414 89.5042 12.0773 89.4745 12.0067C89.4447 11.936 89.4294 11.8603 89.4294 11.7838C89.4294 11.7073 89.4447 11.6316 89.4745 11.561C89.5042 11.4904 89.5477 11.4262 89.6026 11.3723C89.714 11.2623 89.8651 11.2004 90.0226 11.2004C90.1801 11.2004 90.3311 11.2623 90.4426 11.3723L92.3366 13.1593L95.8867 9.4051C95.9976 9.31968 96.1355 9.27589 96.2759 9.28148C96.4164 9.28708 96.5502 9.34171 96.6538 9.43568C96.7573 9.52964 96.8239 9.65686 96.8416 9.79475C96.8593 9.93264 96.827 10.0723 96.7505 10.1889L92.7407 14.3663C92.6283 14.476 92.4785 14.5403 92.3207 14.5466L92.3286 14.5544Z" fill="#001968"/>
<path d="M92.7882 20.558C91.7662 20.5326 90.7743 20.211 89.9354 19.6332C89.8462 19.5741 89.7838 19.4828 89.7616 19.3789C89.7394 19.2749 89.7591 19.1665 89.8165 19.0767C89.8778 18.9879 89.9714 18.9261 90.0778 18.9041C90.1842 18.8822 90.2951 18.9019 90.3871 18.9592C91.1956 19.5224 92.1733 19.798 93.1605 19.7411C94.1478 19.6841 95.0864 19.298 95.8233 18.6457C95.8623 18.6096 95.9082 18.5816 95.9582 18.5631C96.0082 18.5445 96.0613 18.536 96.1147 18.5378C96.168 18.5396 96.2205 18.5518 96.2691 18.5737C96.3177 18.5955 96.3614 18.6267 96.3979 18.6653C96.4343 18.7039 96.4627 18.7492 96.4814 18.7986C96.5001 18.8481 96.5088 18.9007 96.5069 18.9534C96.5051 19.0062 96.4928 19.0581 96.4706 19.1061C96.4485 19.1542 96.4171 19.1975 96.378 19.2335C95.3757 20.0779 94.1049 20.5468 92.7882 20.558Z" fill="#001968"/>
</g>
<defs>
<clipPath id="clip0">
<rect width="105" height="100" fill="white"/>
</clipPath>
</defs>
</svg>
