<svg width="118" height="72" viewBox="0 0 118 72" fill="none" xmlns="http://www.w3.org/2000/svg">
<g clip-path="url(#clip0)">
<path d="M62.0979 52.5899H59.1026C58.9395 52.5899 58.7831 52.5248 58.6677 52.4089C58.5524 52.2931 58.4875 52.136 58.4875 51.9721L58.7461 48.4894C58.7461 48.3256 58.8109 48.1684 58.9262 48.0526C59.0416 47.9367 59.198 47.8716 59.3612 47.8716H61.8305C61.912 47.8705 61.9929 47.8856 62.0686 47.9161C62.1442 47.9466 62.2131 47.9919 62.2712 48.0494C62.3292 48.1069 62.3753 48.1754 62.4068 48.2509C62.4383 48.3265 62.4545 48.4075 62.4545 48.4894L62.713 51.9721C62.713 52.0532 62.6971 52.1336 62.6662 52.2085C62.6352 52.2835 62.5899 52.3516 62.5328 52.4089C62.4757 52.4663 62.4079 52.5118 62.3333 52.5428C62.2586 52.5739 62.1787 52.5899 62.0979 52.5899Z" fill="#001968"/>
<path d="M61.8392 46.5556H59.361C59.2239 46.5556 59.0924 46.5009 58.9954 46.4035C58.8985 46.3061 58.844 46.174 58.844 46.0363L59.0669 43.1534C59.0657 43.0857 59.0779 43.0183 59.1029 42.9554C59.1279 42.8924 59.1652 42.8351 59.2125 42.7868C59.2598 42.7384 59.3162 42.7 59.3784 42.6738C59.4407 42.6476 59.5075 42.6341 59.575 42.6342H61.6253C61.7609 42.6365 61.8901 42.6922 61.9851 42.7894C62.0802 42.8865 62.1334 43.0172 62.1334 43.1534L62.3474 46.0363C62.3485 46.1041 62.3363 46.1714 62.3113 46.2343C62.2863 46.2973 62.249 46.3546 62.2017 46.403C62.1544 46.4513 62.098 46.4897 62.0358 46.5159C61.9735 46.5421 61.9067 46.5556 61.8392 46.5556Z" fill="#001968"/>
<path d="M44.064 58.1945L43.6986 58.4899C42.9141 59.036 42.9587 58.6869 42.192 59.1256C42.192 59.1256 41.9246 59.3136 42.7358 59.4837C43.0275 59.5721 43.3255 59.6379 43.6272 59.6807C44.7594 60.1283 44.8307 61.328 44.7505 62.5993C44.7077 63.1545 44.452 63.6712 44.0373 64.0408C43.3842 64.5072 42.6167 64.7858 41.8176 64.8465C40.6053 64.8465 38.9115 64.56 38.4925 64.0497C38.0736 63.5394 37.0484 61.8741 37.0484 61.8741L32.5912 69.6632C32.505 69.8929 32.4771 70.1405 32.51 70.3838C32.543 70.627 32.6358 70.8581 32.78 71.0563C32.9242 71.2544 33.1153 71.4134 33.3361 71.5187C33.5568 71.6241 33.8002 71.6726 34.0443 71.6598H46.7205C47.2962 71.6304 47.8486 71.4226 48.3019 71.0651C48.7553 70.7076 49.0872 70.2179 49.2522 69.6632L50.1437 63.7095C49.2166 62.9754 44.6435 58.7764 44.064 58.1945Z" fill="#001968"/>
<path d="M23.6234 71.6777H12.2753C11.1699 71.6777 10.9025 70.7824 11.6781 69.6812L22.9013 58.4272C23.2914 57.8686 23.795 57.3995 24.379 57.0507C24.9629 56.7019 25.6138 56.4814 26.2888 56.4039H34.2583C35.3636 56.4039 35.6311 57.2992 34.8555 58.4004L27.0198 69.6812C26.6244 70.2343 26.1178 70.6978 25.5327 71.0417C24.9476 71.3857 24.2971 71.6023 23.6234 71.6777Z" fill="#001968"/>
<path d="M73.856 71.6777H86.5412C86.786 71.6921 87.0304 71.6448 87.2524 71.5401C87.4743 71.4354 87.6667 71.2766 87.812 71.0782C87.9573 70.8798 88.0509 70.6481 88.0842 70.4041C88.1176 70.1601 88.0897 69.9116 88.0031 69.6812L81.6204 58.4273C81.4601 57.8676 81.1301 57.372 80.6764 57.0094C80.2227 56.6468 79.6677 56.4351 79.0887 56.4039H71.1192C70.8751 56.3918 70.6319 56.4407 70.4111 56.546C70.1904 56.6514 69.9991 56.81 69.8543 57.0078C69.7095 57.2055 69.6158 57.4362 69.5814 57.6792C69.547 57.9222 69.5731 58.17 69.6573 58.4004L71.3154 69.6812C71.4809 70.2372 71.8142 70.7279 72.2693 71.0856C72.7243 71.4432 73.2788 71.6501 73.856 71.6777Z" fill="#001968"/>
<path d="M96.9532 71.6777H108.31C109.416 71.6777 109.683 70.7824 108.907 69.6812L97.6841 58.4272C97.2906 57.8744 96.7856 57.4109 96.202 57.067C95.6183 56.723 94.9692 56.5062 94.2967 56.4307H86.3272C85.2218 56.4307 84.9544 57.326 85.721 58.4272L93.6013 69.6812C93.9918 70.2291 94.4914 70.6895 95.0684 71.0332C95.6454 71.3768 96.2872 71.5963 96.9532 71.6777Z" fill="#001968"/>
<path d="M1.33727 72C1.14788 72.0009 0.960559 71.9605 0.788199 71.8817C0.615838 71.8029 0.462538 71.6875 0.338857 71.5434C0.222171 71.4112 0.132592 71.2572 0.0752526 71.0903C0.0179132 70.9233 -0.00606064 70.7465 0.0047043 70.5702C0.0154692 70.3939 0.0607614 70.2215 0.137987 70.0628C0.215212 69.9041 0.322853 69.7622 0.454745 69.6454L30.9242 42.5894C31.0559 42.4718 31.2094 42.3815 31.3758 42.3235C31.5423 42.2655 31.7185 42.241 31.8944 42.2513C32.0703 42.2617 32.2425 42.3068 32.401 42.384C32.5596 42.4612 32.7014 42.5691 32.8185 42.7013C32.9356 42.8336 33.0255 42.9877 33.0833 43.1549C33.1411 43.3221 33.1655 43.4991 33.1551 43.6758C33.1448 43.8524 33.0999 44.0253 33.023 44.1846C32.9461 44.3438 32.8388 44.4863 32.7071 44.6038L2.2198 71.624C1.98201 71.8546 1.66761 71.9885 1.33727 72Z" fill="#001968"/>
<path d="M116.663 72C116.335 71.9988 116.018 71.8779 115.771 71.6598L82.4316 42.0791C82.1656 41.8416 82.0044 41.5078 81.9835 41.151C81.9626 40.7942 82.0837 40.4437 82.3201 40.1765C82.5566 39.9094 82.889 39.7476 83.2442 39.7266C83.5995 39.7056 83.9485 39.8272 84.2144 40.0646L117.563 69.6722C117.695 69.7891 117.803 69.9309 117.88 70.0896C117.957 70.2483 118.003 70.4208 118.013 70.5971C118.024 70.7734 118 70.9501 117.943 71.1171C117.885 71.2841 117.796 71.4381 117.679 71.5702C117.55 71.7108 117.393 71.8219 117.218 71.896C117.042 71.9702 116.853 72.0056 116.663 72Z" fill="#001968"/>
<path d="M53.9055 69.717C53.9102 70.2402 54.1211 70.7402 54.492 71.1077C54.8628 71.4751 55.3635 71.6801 55.8845 71.6777H65.5477C65.8095 71.6789 66.069 71.6281 66.3112 71.5283C66.5534 71.4285 66.7736 71.2816 66.9592 71.0961C67.1447 70.9106 67.2919 70.6901 67.3924 70.4473C67.4928 70.2045 67.5446 69.9441 67.5446 69.6812L66.6531 58.4272C66.6603 57.9008 66.4601 57.3928 66.0962 57.0138C65.7322 56.6348 65.2339 56.4156 64.7098 56.4039H61.563C61.2947 56.8197 60.9774 57.2014 60.6181 57.5409L54.2978 64.1034L53.9055 69.717Z" fill="#001968"/>
<path d="M41.8977 63.7632C41.7524 63.7761 41.6062 63.7761 41.4609 63.7632C39.678 63.5305 39.1432 63.0291 39.0273 62.8679V62.8142L36.246 57.8005C36.1551 57.6436 36.1294 57.457 36.1747 57.2813C36.2018 57.1772 36.2509 57.0802 36.3185 56.9968C36.3862 56.9134 36.4709 56.8455 36.5669 56.7978L37.6366 56.2964C38.7726 55.7551 39.8636 55.1234 40.8993 54.4073L43.2438 57.2813C42.4593 57.8184 41.7016 58.3019 40.935 58.7406L41.5144 59.7791C41.5618 59.8561 41.6298 59.9181 41.7105 59.9582H41.7551L42.5841 60.1999C42.9343 60.4257 43.2196 60.7394 43.412 61.11C43.6043 61.4806 43.6969 61.8953 43.6806 62.3128C43.6925 62.5008 43.6627 62.689 43.5933 62.864C43.524 63.039 43.4168 63.1963 43.2795 63.3245C42.883 63.6264 42.3949 63.7814 41.8977 63.7632Z" fill="#001968"/>
<path d="M53.0943 62.9216C52.8135 62.9189 52.539 62.8384 52.3009 62.6889C50.4493 61.3779 48.7054 59.9198 47.086 58.3288C45.3744 56.7351 43.7877 55.1505 43.5737 54.9356C41.2728 52.8006 39.183 50.4469 37.3336 47.9075C35.8253 45.8581 34.557 43.6411 33.5539 41.3002C32.4661 38.832 31.9247 36.1561 31.9672 33.4573C32.0058 31.0532 32.663 28.6999 33.8748 26.6262C34.8518 25.0167 36.2199 23.6827 37.8507 22.7496C40.0115 21.5283 42.4492 20.8867 44.9287 20.8867C47.4082 20.8867 49.8459 21.5283 52.0067 22.7496C53.6401 23.6825 55.0111 25.0163 55.9915 26.6262C57.1981 28.7007 57.8464 31.0549 57.8724 33.4573C58.0061 37.2892 56.669 41.4613 53.8877 45.8662C52.3939 48.1995 50.69 50.3902 48.7976 52.4108L46.0073 50.0025C49.163 46.6272 54.4136 40.0109 54.1908 33.5916C53.8877 25.0147 46.4263 24.5849 44.9287 24.5849C43.4311 24.5849 36.0143 25.0147 35.6756 33.5916C35.5507 37.1281 37.1643 41.336 40.3467 45.7409C42.0446 48.0876 43.9706 50.259 46.0965 52.2228L46.1678 52.2855C46.2391 52.3571 47.7991 53.9328 49.5285 55.5354C50.6594 56.6109 51.8498 57.6212 53.0943 58.5615L55.6973 55.4101C55.9424 54.8549 56.3675 54.3996 56.9034 54.1183C57.4393 53.837 58.0542 53.7464 58.648 53.8612C59.5394 53.9955 60.003 54.3447 60.1634 54.8998C60.4665 55.9831 59.1204 57.2634 58.8084 57.5409L54.0036 62.5456C53.8899 62.6729 53.7491 62.7729 53.5917 62.838C53.4343 62.9031 53.2643 62.9317 53.0943 62.9216Z" fill="#001968"/>
<path d="M4.83179 67.9622C4.47715 67.9622 4.13704 67.8207 3.88627 67.5689C3.63551 67.317 3.49463 66.9754 3.49463 66.6193V22.5526C3.49463 22.1964 3.63551 21.8548 3.88627 21.603C4.13704 21.3511 4.47715 21.2097 4.83179 21.2097C5.18643 21.2097 5.52654 21.3511 5.77731 21.603C6.02807 21.8548 6.16895 22.1964 6.16895 22.5526V66.6193C6.16895 66.9754 6.02807 67.317 5.77731 67.5689C5.52654 67.8207 5.18643 67.9622 4.83179 67.9622Z" fill="#001968"/>
<path d="M9.41371 4.53022C9.41371 2.02825 7.39421 0 4.90302 0C2.41184 0 0.392334 2.02825 0.392334 4.53022V21.4603C0.392334 23.9623 2.41184 25.9905 4.90302 25.9905C7.39421 25.9905 9.41371 23.9623 9.41371 21.4603V4.53022Z" fill="#001968"/>
<path d="M4.9744 7.96816C6.67293 7.96816 8.04987 6.58526 8.04987 4.87937C8.04987 3.17348 6.67293 1.79059 4.9744 1.79059C3.27586 1.79059 1.89893 3.17348 1.89893 4.87937C1.89893 6.58526 3.27586 7.96816 4.9744 7.96816Z" fill="white"/>
<path d="M4.9744 16.0079C6.67293 16.0079 8.04987 14.6251 8.04987 12.9192C8.04987 11.2133 6.67293 9.83038 4.9744 9.83038C3.27586 9.83038 1.89893 11.2133 1.89893 12.9192C1.89893 14.6251 3.27586 16.0079 4.9744 16.0079Z" fill="white"/>
<path d="M4.9744 24.0477C6.67293 24.0477 8.04987 22.6649 8.04987 20.959C8.04987 19.2531 6.67293 17.8702 4.9744 17.8702C3.27586 17.8702 1.89893 19.2531 1.89893 20.959C1.89893 22.6649 3.27586 24.0477 4.9744 24.0477Z" fill="#20CE88"/>
<path d="M45.1247 39.1604C48.5858 39.1604 51.3916 36.3425 51.3916 32.8665C51.3916 29.3904 48.5858 26.5725 45.1247 26.5725C41.6637 26.5725 38.8579 29.3904 38.8579 32.8665C38.8579 36.3425 41.6637 39.1604 45.1247 39.1604Z" fill="#20CE88"/>
<path d="M44.4295 35.991C44.2608 35.992 44.0981 35.9279 43.9749 35.812L41.4254 33.3678C41.3157 33.2447 41.2551 33.0853 41.2551 32.9202C41.2551 32.755 41.3157 32.5956 41.4254 32.4725C41.547 32.3605 41.7061 32.2984 41.8711 32.2984C42.0361 32.2984 42.1952 32.3605 42.3168 32.4725L44.3939 34.469L48.3519 30.279C48.4735 30.167 48.6326 30.1049 48.7976 30.1049C48.9626 30.1049 49.1217 30.167 49.2433 30.279C49.3568 30.4002 49.4199 30.5603 49.4199 30.7267C49.4199 30.893 49.3568 31.0531 49.2433 31.1743L44.902 35.812C44.8416 35.8741 44.7695 35.9235 44.6899 35.9573C44.6104 35.9911 44.5249 36.0087 44.4384 36.009L44.4295 35.991Z" fill="#001968"/>
<path d="M46.248 42.5088C45.2631 42.5619 44.2842 42.3254 43.4311 41.8284C43.3401 41.7773 43.2725 41.6927 43.2425 41.5924C43.2126 41.4922 43.2226 41.3841 43.2706 41.2912C43.2957 41.2459 43.3295 41.2059 43.37 41.1737C43.4104 41.1415 43.4569 41.1177 43.5066 41.1035C43.5563 41.0894 43.6083 41.0852 43.6596 41.0913C43.7108 41.0974 43.7604 41.1136 43.8055 41.139C44.6314 41.6271 45.5978 41.8194 46.5467 41.6844C47.4956 41.5495 48.3708 41.0952 49.0293 40.3959C49.0991 40.3176 49.197 40.2702 49.3014 40.2644C49.4059 40.2585 49.5085 40.2945 49.5865 40.3646C49.6645 40.4346 49.7116 40.5329 49.7175 40.6379C49.7233 40.7428 49.6874 40.8458 49.6177 40.9241C48.7158 41.8352 47.5222 42.3965 46.248 42.5088Z" fill="#001968"/>
</g>
<defs>
<clipPath id="clip0">
<rect width="118" height="72" fill="white"/>
</clipPath>
</defs>
</svg>
