<svg width="170" height="76" viewBox="0 0 170 76" fill="none" xmlns="http://www.w3.org/2000/svg">
<g clip-path="url(#clip0)">
<path d="M88.2399 45.44H83.9999C83.8835 45.44 83.7683 45.4169 83.6608 45.3721C83.5534 45.3273 83.456 45.2615 83.3741 45.1788C83.2923 45.096 83.2277 44.9978 83.184 44.8899C83.1404 44.7819 83.1186 44.6664 83.1199 44.55L83.4899 39.6C83.4899 39.4836 83.513 39.3684 83.5579 39.2609C83.6027 39.1535 83.6684 39.0561 83.7512 38.9742C83.834 38.8924 83.9322 38.8278 84.0401 38.7841C84.148 38.7405 84.2635 38.7187 84.3799 38.72H87.8999C88.0159 38.7187 88.1309 38.7405 88.2383 38.7843C88.3456 38.828 88.4432 38.8928 88.5252 38.9748C88.6071 39.0568 88.6719 39.1543 88.7157 39.2617C88.7594 39.3691 88.7813 39.4841 88.7799 39.6L89.1599 44.55C89.16 44.6695 89.136 44.7877 89.0894 44.8977C89.0428 45.0077 88.9746 45.1072 88.8887 45.1902C88.8029 45.2733 88.7012 45.3382 88.5897 45.3811C88.4783 45.424 88.3593 45.4441 88.2399 45.44Z" fill="#001968"/>
<path d="M87.8799 36.8899H84.3399C84.2432 36.89 84.1475 36.8707 84.0582 36.8334C83.969 36.7961 83.8881 36.7415 83.8202 36.6726C83.7523 36.6038 83.6987 36.5221 83.6626 36.4324C83.6265 36.3427 83.6086 36.2467 83.6099 36.1499L83.9199 32.0499C83.9199 31.8563 83.9968 31.6707 84.1337 31.5338C84.2706 31.3969 84.4563 31.3199 84.6499 31.3199H87.5699C87.7635 31.3199 87.9492 31.3969 88.0861 31.5338C88.223 31.6707 88.2999 31.8563 88.2999 32.0499L88.6099 36.1499C88.6099 36.3445 88.5334 36.5312 88.3967 36.6697C88.2601 36.8082 88.0745 36.8873 87.8799 36.8899Z" fill="#001968"/>
<path d="M89.9999 75.36H81.8699C81.4244 75.36 80.9971 75.183 80.682 74.8679C80.3669 74.5528 80.1899 74.1255 80.1899 73.68L80.8999 64.24C80.9026 63.7935 81.0818 63.3662 81.3985 63.0514C81.7151 62.7366 82.1434 62.56 82.5899 62.56H89.2999C89.5219 62.5586 89.7419 62.6011 89.9474 62.6848C90.153 62.7685 90.34 62.8919 90.4979 63.0479C90.6557 63.2039 90.7813 63.3894 90.8675 63.594C90.9536 63.7985 90.9986 64.018 90.9999 64.24L91.7099 73.68C91.71 73.9031 91.6655 74.1241 91.5792 74.3299C91.4929 74.5357 91.3665 74.7222 91.2073 74.8786C91.0481 75.035 90.8594 75.1582 90.6521 75.2408C90.4448 75.3234 90.2231 75.364 89.9999 75.36Z" fill="#001968"/>
<path d="M1.49994 72.61C1.28708 72.6104 1.0765 72.5662 0.881839 72.48C0.687181 72.3939 0.512783 72.2678 0.369941 72.11C0.112373 71.81 -0.0172468 71.4209 0.00893079 71.0264C0.0351084 70.6319 0.214994 70.2634 0.509941 70L40.9999 34.31C41.1477 34.1787 41.3198 34.0777 41.5066 34.013C41.6933 33.9482 41.891 33.9208 42.0883 33.9324C42.2857 33.944 42.4788 33.9944 42.6566 34.0806C42.8345 34.1668 42.9936 34.2873 43.1249 34.435C43.2563 34.5827 43.3572 34.7549 43.422 34.9416C43.4868 35.1284 43.5142 35.3261 43.5025 35.5234C43.4909 35.7207 43.4406 35.9138 43.3543 36.0917C43.2681 36.2696 43.1477 36.4287 42.9999 36.56L2.48994 72.24C2.21624 72.4802 1.86407 72.6118 1.49994 72.61Z" fill="#001968"/>
<path d="M167.73 72.61C167.362 72.6172 167.005 72.485 166.73 72.24L133.51 43.14C133.362 43.0087 133.24 42.8494 133.154 42.6713C133.067 42.4932 133.016 42.2998 133.004 42.102C132.992 41.9042 133.019 41.7059 133.083 41.5186C133.148 41.3312 133.249 41.1584 133.38 41.01C133.511 40.8616 133.67 40.7406 133.849 40.6537C134.027 40.5669 134.22 40.516 134.418 40.5039C134.616 40.4918 134.814 40.5188 135.001 40.5834C135.189 40.6479 135.362 40.7487 135.51 40.88L168.72 70C168.87 70.1291 168.992 70.2867 169.081 70.4637C169.169 70.6406 169.221 70.8334 169.234 71.0307C169.247 71.228 169.221 71.426 169.157 71.613C169.092 71.8 168.991 71.9724 168.86 72.12C168.718 72.2781 168.543 72.4036 168.348 72.4882C168.153 72.5727 167.942 72.6143 167.73 72.61Z" fill="#001968"/>
<path d="M58.2999 61C58.0902 61.0145 57.8797 61.0145 57.6699 61C55.0699 60.66 54.3599 60 54.1999 59.74V59.67L50.1999 52.55C50.0689 52.3268 50.0295 52.0616 50.0899 51.81C50.1254 51.6604 50.1929 51.5203 50.2879 51.3994C50.3829 51.2786 50.503 51.1798 50.6399 51.11L52.1799 50.41C53.7972 49.6349 55.3518 48.7355 56.8299 47.72L60.1899 51.8C59.0599 52.57 57.9799 53.26 56.8899 53.88L57.7199 55.36C57.7851 55.4727 57.8827 55.5633 57.9999 55.62H58.0599L59.2399 55.97H59.2899C59.7923 56.2878 60.202 56.7325 60.4777 57.2592C60.7533 57.7859 60.8852 58.376 60.8599 58.97C60.8782 59.2367 60.8355 59.5041 60.735 59.7519C60.6345 59.9997 60.4789 60.2213 60.2799 60.4C59.7089 60.8223 59.0094 61.0343 58.2999 61Z" fill="#001968"/>
<path d="M74.33 59.81C73.9314 59.8072 73.5409 59.6966 73.2 59.49C70.5593 57.6241 68.0715 55.5509 65.76 53.29C63.31 51.03 61.05 48.77 60.76 48.47C57.475 45.4342 54.4942 42.0849 51.86 38.47C49.7023 35.5526 47.8902 32.3949 46.46 29.06C44.9049 25.5554 44.1336 21.7535 44.2 17.92C44.2346 14.5068 45.1546 11.161 46.87 8.20999C48.2718 5.92302 50.2292 4.02762 52.56 2.69999C55.6445 0.962578 59.1248 0.0498047 62.665 0.0498047C66.2052 0.0498047 69.6855 0.962578 72.77 2.69999C75.1029 4.02481 77.0609 5.92083 78.46 8.20999C80.1789 11.1601 81.1023 14.5059 81.14 17.92C81.33 23.36 79.42 29.3 75.45 35.56C73.3136 38.8744 70.8839 41.9903 68.19 44.87L64.19 41.44C68.69 36.64 76.19 27.23 75.87 18.11C75.44 5.92999 64.78 5.31999 62.65 5.31999C60.52 5.31999 49.88 5.92999 49.44 18.12C49.26 23.12 51.57 29.12 56.11 35.39C58.5288 38.7292 61.2795 41.8149 64.32 44.6L64.42 44.7C64.52 44.8 66.75 47.03 69.21 49.31C70.8084 50.8401 72.4946 52.2759 74.26 53.61L78 49.14C78.359 48.356 78.9683 47.7135 79.7321 47.3135C80.496 46.9134 81.3711 46.7786 82.22 46.93C83.43 47.13 84.15 47.63 84.38 48.41C84.82 49.95 82.89 51.77 82.44 52.17L75.59 59.28C75.4331 59.457 75.2384 59.5966 75.0203 59.6883C74.8022 59.78 74.5663 59.8216 74.33 59.81Z" fill="#001968"/>
<path d="M62.22 25.81C67.2016 25.81 71.2399 21.7716 71.2399 16.79C71.2399 11.8084 67.2016 7.77002 62.22 7.77002C57.2383 7.77002 53.2 11.8084 53.2 16.79C53.2 21.7716 57.2383 25.81 62.22 25.81Z" fill="#FF6700"/>
<path d="M62.0601 18.86C61.6622 18.86 61.2807 18.702 60.9994 18.4207C60.7181 18.1394 60.5601 17.7579 60.5601 17.36V11.54C60.5601 11.1422 60.7181 10.7607 60.9994 10.4794C61.2807 10.1981 61.6622 10.04 62.0601 10.04C62.4579 10.04 62.8394 10.1981 63.1207 10.4794C63.402 10.7607 63.5601 11.1422 63.5601 11.54V17.36C63.5601 17.7579 63.402 18.1394 63.1207 18.4207C62.8394 18.702 62.4579 18.86 62.0601 18.86Z" fill="#001968"/>
<path d="M62.0601 23.9C61.6622 23.9 61.2807 23.742 60.9994 23.4607C60.7181 23.1794 60.5601 22.7979 60.5601 22.4V21.54C60.5601 21.1422 60.7181 20.7607 60.9994 20.4794C61.2807 20.1981 61.6622 20.04 62.0601 20.04C62.4579 20.04 62.8394 20.1981 63.1207 20.4794C63.402 20.7607 63.5601 21.1422 63.5601 21.54V22.4C63.5601 22.7979 63.402 23.1794 63.1207 23.4607C62.8394 23.742 62.4579 23.9 62.0601 23.9Z" fill="#001968"/>
<path d="M123.52 18.79C123.232 17.358 122.494 16.0557 121.412 15.0738C120.331 14.0919 118.963 13.4819 117.51 13.3333C116.057 13.1846 114.595 13.505 113.337 14.2476C112.079 14.9902 111.092 16.1159 110.52 17.46C110.157 18.2998 109.97 19.2051 109.97 20.12C109.963 21.9341 110.678 23.6765 111.956 24.964C113.234 26.2514 114.971 26.9784 116.785 26.985C118.599 26.9917 120.342 26.2774 121.629 24.9993C122.916 23.7213 123.643 21.9841 123.65 20.17C123.652 19.7069 123.608 19.2447 123.52 18.79ZM116.84 14.49C117.857 14.5022 118.851 14.7871 119.72 15.3147C120.589 15.8424 121.3 16.5937 121.78 17.49C118.567 18.6002 115.074 18.6002 111.86 17.49C112.341 16.5863 113.058 15.8301 113.935 15.3018C114.812 14.7735 115.816 14.4929 116.84 14.49ZM111.17 20.12C111.17 19.91 111.17 19.7 111.17 19.5C112.637 19.6998 113.968 20.4632 114.881 21.6283C115.794 22.7933 116.217 24.2682 116.06 25.74C114.702 25.5557 113.457 24.884 112.558 23.8501C111.658 22.8162 111.165 21.4905 111.17 20.12ZM117.72 25.71C117.6 24.14 117.8 20.32 122.43 19.5C122.43 19.72 122.43 19.94 122.43 20.17C122.425 21.5007 121.949 22.7866 121.087 23.8004C120.225 24.8142 119.032 25.4906 117.72 25.71Z" fill="#001968"/>
<path d="M110 8.94004C110.24 3.08004 115.36 2.80004 116.39 2.81004C117.42 2.82004 122.54 3.13004 122.73 8.99004C122.726 10.5062 122.384 12.0024 121.73 13.37C122.285 13.7307 122.722 14.2449 122.99 14.85C123.9 13.0081 124.408 10.9934 124.48 8.94004C124.473 7.42713 124.073 5.94192 123.32 4.63004C122.706 3.6185 121.846 2.77903 120.82 2.19004C119.447 1.41264 117.897 1.00403 116.32 1.00403C114.743 1.00403 113.192 1.41264 111.82 2.19004C110.794 2.7693 109.93 3.59825 109.31 4.60004C108.547 5.90658 108.134 7.38745 108.11 8.90004C108.079 10.6193 108.42 12.3249 109.11 13.9C109.28 14.3 109.67 15.03 109.88 15.43C110.162 14.8403 110.584 14.3287 111.11 13.94C110.342 12.3871 109.962 10.6718 110 8.94004Z" fill="#001968"/>
<path d="M110 17.61L108.92 15.48C108.7 15.06 108.44 14.55 108.31 14.24C107.564 12.536 107.199 10.6897 107.24 8.83C107.272 7.14724 107.737 5.50114 108.59 4.05C109.296 2.90406 110.28 1.95476 111.45 1.29C112.982 0.447304 114.701 0.00368227 116.45 0C118.201 0.0210282 119.92 0.478133 121.45 1.33C122.618 1.99917 123.596 2.95619 124.29 4.11C125.133 5.56684 125.584 7.21703 125.6 8.9C125.533 11.114 124.988 13.2873 124 15.27L123.13 17.17L122.2 15.29C122.012 14.8864 121.718 14.541 121.35 14.29L120.54 13.85L120.91 13.01C121.497 11.7589 121.794 10.3918 121.78 9.01C121.813 8.30461 121.696 7.60025 121.437 6.94331C121.178 6.28638 120.783 5.69176 120.277 5.19861C119.772 4.70545 119.168 4.32496 118.504 4.08217C117.841 3.83938 117.134 3.7398 116.43 3.79C115.2 3.79 111.25 4.14 111.05 8.96C111.053 10.5218 111.427 12.0605 112.14 13.45L112.51 14.23L111.8 14.71C111.411 15.0025 111.102 15.3875 110.9 15.83L110 17.61Z" fill="#001968"/>
<path d="M125.7 21.57L96.6201 21.45C93.1601 21.45 90.3301 26.64 90.3101 30.11V36.74C90.3101 40.2 93.1001 39.8099 96.5701 39.82L125.65 39.9399C129.11 39.9399 131.92 40.3699 131.93 36.9399V30.3099C132 26.8099 129.16 21.58 125.7 21.57ZM97.6001 38.1399H93.7601C93.3728 38.1399 93.0015 37.9861 92.7277 37.7123C92.4539 37.4385 92.3001 37.0672 92.3001 36.68C92.3001 36.2927 92.4539 35.9214 92.7277 35.6476C93.0015 35.3738 93.3728 35.22 93.7601 35.22H97.6001C97.9651 35.2502 98.3055 35.4167 98.5535 35.6862C98.8016 35.9557 98.9393 36.3086 98.9393 36.6749C98.9393 37.0413 98.8016 37.3942 98.5535 37.6637C98.3055 37.9332 97.9651 38.0997 97.6001 38.13V38.1399ZM128.43 38.2599H124.59C124.203 38.2599 123.831 38.1061 123.558 37.8323C123.284 37.5585 123.13 37.1872 123.13 36.7999C123.13 36.4127 123.284 36.0414 123.558 35.7676C123.831 35.4938 124.203 35.34 124.59 35.34H128.43C128.631 35.3233 128.834 35.3485 129.025 35.414C129.216 35.4796 129.391 35.584 129.54 35.7207C129.688 35.8575 129.807 36.0235 129.888 36.2084C129.969 36.3933 130.011 36.593 130.011 36.7949C130.011 36.9969 129.969 37.1966 129.888 37.3815C129.807 37.5664 129.688 37.7324 129.54 37.8692C129.391 38.0059 129.216 38.1103 129.025 38.1759C128.834 38.2414 128.631 38.2666 128.43 38.25V38.2599Z" fill="#FF6700"/>
<path d="M99.47 45.83H90.76C90.6247 45.83 90.495 45.7763 90.3994 45.6806C90.3037 45.585 90.25 45.4553 90.25 45.32V39.89C90.25 39.61 90.25 39.39 90.61 39.39C90.97 39.39 90.97 39.48 91.27 39.95C91.7 40.58 92.83 40.49 92.83 40.49H99.48C99.5478 40.4887 99.6152 40.5009 99.6782 40.5259C99.7413 40.551 99.7987 40.5883 99.8471 40.6358C99.8955 40.6833 99.934 40.74 99.9602 40.8025C99.9865 40.865 100 40.9322 100 41V45.29C100.006 45.3616 99.9963 45.4335 99.9719 45.501C99.9475 45.5686 99.9088 45.63 99.8585 45.6813C99.8082 45.7325 99.7475 45.7723 99.6805 45.798C99.6134 45.8236 99.5416 45.8346 99.47 45.83Z" fill="#FF6700"/>
<path d="M122.56 46.09L131.36 46.02C131.428 46.0213 131.495 46.0091 131.558 45.9841C131.621 45.959 131.679 45.9217 131.727 45.8742C131.776 45.8267 131.814 45.77 131.84 45.7075C131.867 45.6449 131.88 45.5778 131.88 45.51V40.08C131.88 39.8 131.88 39.59 131.51 39.59C131.14 39.59 131.15 39.67 130.85 40.14C130.42 40.77 129.29 40.66 129.29 40.66H122.64C122.505 40.66 122.375 40.7137 122.279 40.8093C122.184 40.905 122.13 41.0347 122.13 41.17L122.03 45.62C122.04 45.7517 122.101 45.8743 122.2 45.962C122.299 46.0497 122.428 46.0955 122.56 46.09Z" fill="#FF6700"/>
<path d="M90.1199 49.85C90.1199 49.4813 89.9735 49.1278 89.7128 48.8671C89.4521 48.6064 89.0986 48.46 88.7299 48.46H86.2699C86.2699 48.53 86.3399 48.58 86.3699 48.65C86.8099 50.2 84.8799 52.01 84.4299 52.41L81.3299 55.63L81.1799 57.63C81.1799 57.9995 81.326 58.3541 81.5864 58.6164C81.8468 58.8787 82.2004 59.0273 82.5699 59.03H89.3199C89.6895 59.0273 90.043 58.8787 90.3034 58.6164C90.5638 58.3541 90.7099 57.9995 90.7099 57.63L90.1199 49.85Z" fill="#001968"/>
<path d="M62.4899 31C62.1398 30.9973 61.7939 30.9242 61.4726 30.7851C61.1513 30.6459 60.8614 30.4436 60.6199 30.19C59.2999 28.86 57.6199 30.1 57.4899 30.19C57.442 30.225 57.3877 30.2501 57.3301 30.264C57.2725 30.2779 57.2127 30.2802 57.1541 30.2709C57.0956 30.2617 57.0395 30.2409 56.989 30.2098C56.9385 30.1788 56.8946 30.1381 56.8599 30.09C56.8237 30.0427 56.7974 29.9884 56.7827 29.9306C56.7681 29.8727 56.7654 29.8125 56.7747 29.7536C56.7841 29.6946 56.8053 29.6382 56.8372 29.5878C56.869 29.5373 56.9108 29.4939 56.9599 29.46C57.5759 28.9657 58.3475 28.7063 59.137 28.7283C59.9265 28.7503 60.6824 29.0522 61.2699 29.58C62.4799 30.8 63.9499 29.58 64.1699 29.43C64.5839 28.9191 65.178 28.5862 65.8299 28.5C66.2213 28.4923 66.6096 28.5706 66.9673 28.7296C67.325 28.8886 67.6434 29.1243 67.8999 29.42C67.9848 29.5049 68.0325 29.62 68.0325 29.74C68.0325 29.8601 67.9848 29.9752 67.8999 30.06C67.8151 30.1449 67.7 30.1926 67.5799 30.1926C67.4599 30.1926 67.3448 30.1449 67.2599 30.06C67.0939 29.8621 66.8877 29.7017 66.6549 29.5897C66.4221 29.4776 66.1682 29.4164 65.9099 29.41C65.513 29.4771 65.1559 29.6914 64.9099 30.01L64.8499 30.08C64.1969 30.6563 63.3607 30.9823 62.4899 31Z" fill="#001968"/>
</g>
<defs>
<clipPath id="clip0">
<rect width="169.23" height="75.36" fill="white"/>
</clipPath>
</defs>
</svg>
