<svg width="164" height="71" viewBox="0 0 164 71" fill="none" xmlns="http://www.w3.org/2000/svg">
<g clip-path="url(#clip0)">
<path d="M109.45 57.2999H105.33C105.105 57.2999 104.888 57.2104 104.729 57.051C104.57 56.8916 104.48 56.6754 104.48 56.4499L104.84 51.6699C104.84 51.4445 104.93 51.2283 105.089 51.0689C105.248 50.9095 105.465 50.8199 105.69 50.8199H109.09C109.315 50.8199 109.532 50.9095 109.691 51.0689C109.85 51.2283 109.94 51.4445 109.94 51.6699L110.3 56.4499C110.3 56.6754 110.21 56.8916 110.051 57.051C109.892 57.2104 109.675 57.2999 109.45 57.2999Z" fill="#001968"/>
<path d="M110.74 70.2199H104.52C104.18 70.22 103.853 70.0854 103.611 69.8457C103.37 69.6059 103.233 69.2803 103.23 68.9399L103.78 61.7299C103.779 61.561 103.811 61.3935 103.875 61.237C103.938 61.0806 104.032 60.9383 104.151 60.8184C104.27 60.6985 104.412 60.6033 104.568 60.5383C104.724 60.4734 104.891 60.4399 105.06 60.4399H110.19C110.359 60.4399 110.527 60.4733 110.684 60.5381C110.84 60.603 110.982 60.698 111.102 60.8178C111.222 60.9376 111.317 61.0798 111.382 61.2363C111.447 61.3928 111.48 61.5605 111.48 61.7299L112.02 68.9399C112.02 69.2794 111.885 69.605 111.645 69.845C111.405 70.0851 111.079 70.2199 110.74 70.2199Z" fill="#001968"/>
<path d="M20.8901 70.09C20.5859 70.0904 20.2887 69.9984 20.0381 69.826C19.7874 69.6536 19.595 69.4091 19.4865 69.1249C19.3781 68.8407 19.3586 68.5302 19.4307 68.2346C19.5027 67.939 19.663 67.6724 19.8901 67.47L43.7001 46.37C43.8472 46.2387 44.0187 46.1376 44.2049 46.0726C44.391 46.0075 44.5881 45.9798 44.785 45.9909C44.9819 46.0021 45.1746 46.0519 45.3522 46.1375C45.5298 46.2231 45.6888 46.3429 45.8201 46.49C45.9515 46.6371 46.0525 46.8086 46.1176 46.9947C46.1826 47.1809 46.2104 47.378 46.1992 47.5748C46.1881 47.7717 46.1383 47.9644 46.0526 48.1421C45.967 48.3197 45.8472 48.4787 45.7001 48.61L21.8801 69.71C21.6074 69.953 21.2554 70.0881 20.8901 70.09Z" fill="#001968"/>
<path d="M162.46 70.09C162.092 70.0942 161.736 69.9625 161.46 69.72L149.16 58.92C148.862 58.6548 148.681 58.2819 148.657 57.8834C148.634 57.4849 148.77 57.0934 149.035 56.795C149.3 56.4966 149.673 56.3158 150.072 56.2924C150.47 56.269 150.862 56.4048 151.16 56.67L163.46 67.46C163.608 67.5905 163.729 67.749 163.815 67.9262C163.902 68.1035 163.953 68.2961 163.965 68.493C163.977 68.69 163.95 68.8873 163.886 69.0739C163.821 69.2604 163.721 69.4324 163.59 69.58C163.45 69.7422 163.277 69.8719 163.081 69.96C162.886 70.048 162.674 70.0924 162.46 70.09Z" fill="#001968"/>
<path d="M22.29 47.07C23.8513 44.7882 25.14 42.3315 26.13 39.75C27.1912 37.0651 27.6619 34.1831 27.51 31.3C27.3816 28.7502 26.5962 26.2768 25.23 24.12C24.1285 22.4672 22.6247 21.1217 20.86 20.21C18.4978 19.0283 15.8804 18.4478 13.24 18.52C10.5999 18.6513 8.03346 19.4347 5.77003 20.8C4.08307 21.8339 2.68612 23.279 1.71003 25C0.509821 27.2666 -0.0795137 29.8066 2.60626e-05 32.37C2.60626e-05 36.47 1.64003 40.9 4.83003 45.53C6.72134 48.2205 8.86796 50.7221 11.24 53C11.24 53 11.52 53.21 11.54 54.84C11.6096 56.6008 11.5695 58.3642 11.42 60.12C11.42 60.39 11.31 60.46 11.18 60.49L6.34003 60.32C5.80522 60.1467 5.22771 60.158 4.70006 60.352C4.17242 60.546 3.72518 60.9116 3.43003 61.39C1.83003 63.92 5.86003 63.39 5.86003 63.39L13.53 63.08C14.03 63.08 14.3 62.57 14.36 62.25C14.4931 61.2989 14.5665 60.3404 14.58 59.38C14.6595 60.3446 14.7998 61.3032 15 62.25C15.08 62.57 15.39 63.07 15.89 63.02L23.56 62.73C23.56 62.73 27.62 62.92 25.83 60.52C25.4965 60.064 25.0194 59.7333 24.4754 59.5809C23.9313 59.4286 23.3519 59.4635 22.83 59.68L18.02 60.22C17.89 60.22 17.78 60.14 17.75 59.87C17.4659 58.1594 17.2889 56.4327 17.22 54.7V54.35V53.84C17.3699 53.4491 17.5864 53.087 17.86 52.77C19.4677 50.9756 20.948 49.071 22.29 47.07ZM15 51.46L14.59 51.88L13.92 51.31C10.38 48 3.07003 40.25 3.00003 32.36C3.00003 22.46 11.59 21.63 13.32 21.56C15.05 21.49 23.7 21.66 24.43 31.56C24.73 35.56 23.1 40.35 19.72 45.42C18.3026 47.5505 16.7247 49.5697 15 51.46Z" fill="#001968"/>
<path d="M14.1899 38.37C18.194 38.37 21.4399 35.1241 21.4399 31.12C21.4399 27.1159 18.194 23.87 14.1899 23.87C10.1859 23.87 6.93994 27.1159 6.93994 31.12C6.93994 35.1241 10.1859 38.37 14.1899 38.37Z" fill="#FF0B0B"/>
<path d="M16.09 31L17.68 29.29C17.92 29.0341 18.0486 28.6932 18.0373 28.3426C18.0261 27.9919 17.876 27.66 17.62 27.42C17.3641 27.18 17.0233 27.0514 16.6726 27.0627C16.3219 27.0739 15.99 27.224 15.75 27.48L14.13 29.23L12.36 27.63C12.0948 27.3966 11.7477 27.2781 11.3952 27.3006C11.0426 27.3231 10.7134 27.4848 10.48 27.75C10.2466 28.0152 10.1282 28.3623 10.1507 28.7148C10.1732 29.0674 10.3348 29.3966 10.6 29.63L12.33 31.2L10.74 32.91C10.6054 33.0326 10.4976 33.1818 10.4234 33.3481C10.3492 33.5144 10.3103 33.6943 10.309 33.8763C10.3077 34.0584 10.3441 34.2388 10.4159 34.4062C10.4876 34.5736 10.5933 34.7242 10.7261 34.8488C10.859 34.9733 11.0162 35.069 11.1878 35.1299C11.3594 35.1908 11.5418 35.2154 11.7234 35.2024C11.9051 35.1894 12.082 35.1389 12.2432 35.0542C12.4044 34.9694 12.5463 34.8522 12.66 34.71L14.29 33L16.06 34.6C16.3252 34.8334 16.6723 34.9518 17.0249 34.9293C17.3774 34.9068 17.7066 34.7452 17.94 34.48C18.1734 34.2148 18.2919 33.8677 18.2694 33.5151C18.2469 33.1626 18.0852 32.8334 17.82 32.6L16.09 31Z" fill="white"/>
<path d="M15.7199 40C16.8357 39.9669 17.937 40.2587 18.8899 40.84C18.9912 40.9004 19.0647 40.9982 19.0947 41.1123C19.1246 41.2263 19.1085 41.3476 19.0499 41.45C18.9895 41.5513 18.8917 41.6248 18.7776 41.6547C18.6636 41.6846 18.5423 41.6686 18.4399 41.61C17.5255 41.0398 16.4443 40.7975 15.374 40.9229C14.3037 41.0483 13.3078 41.5339 12.5499 42.3C12.4654 42.3682 12.3591 42.4035 12.2505 42.3994C12.142 42.3953 12.0386 42.3522 11.9594 42.2779C11.8803 42.2035 11.8306 42.1031 11.8197 41.995C11.8087 41.887 11.8372 41.7786 11.8999 41.69C12.9347 40.6946 14.2874 40.0962 15.7199 40Z" fill="#001968"/>
<path d="M98.9199 12.42C98.7182 12.428 98.5168 12.396 98.3275 12.3259C98.1381 12.2557 97.9645 12.1487 97.8167 12.0111C97.6689 11.8736 97.5498 11.7081 97.4663 11.5242C97.3827 11.3404 97.3364 11.1418 97.33 10.94L97.14 5.50002C97.1291 5.09225 97.2795 4.69665 97.5584 4.39901C97.8373 4.10136 98.2223 3.92566 98.6299 3.91002C98.8312 3.902 99.0321 3.93407 99.2209 4.00436C99.4096 4.07466 99.5826 4.18177 99.7296 4.31948C99.8766 4.45719 99.9948 4.62274 100.077 4.80653C100.16 4.99031 100.205 5.18865 100.21 5.39002L100.4 10.83C100.408 11.0318 100.376 11.2332 100.306 11.4225C100.236 11.6118 100.129 11.7854 99.9911 11.9332C99.8535 12.081 99.688 12.2002 99.5042 12.2837C99.3203 12.3672 99.1218 12.4136 98.9199 12.42Z" fill="#FF0B0B"/>
<path d="M99.0799 17.13C98.879 17.1367 98.6787 17.1037 98.4905 17.0329C98.3023 16.9621 98.1299 16.8549 97.9832 16.7175C97.8364 16.58 97.7182 16.415 97.6353 16.2318C97.5524 16.0487 97.5064 15.851 97.4999 15.65V14.84C97.4774 14.6294 97.4986 14.4164 97.5622 14.2144C97.6258 14.0124 97.7303 13.8256 97.8693 13.6658C98.0084 13.506 98.1788 13.3766 98.3701 13.2857C98.5614 13.1948 98.7694 13.1443 98.9811 13.1374C99.1928 13.1305 99.4036 13.1674 99.6004 13.2456C99.7972 13.3239 99.9757 13.442 100.125 13.5924C100.274 13.7428 100.39 13.9223 100.467 14.1198C100.544 14.3172 100.579 14.5284 100.57 14.74V15.55C100.578 15.9561 100.427 16.3491 100.148 16.6446C99.8692 16.9401 99.4857 17.1144 99.0799 17.13Z" fill="#FF0B0B"/>
<path d="M90 26.9C89.5022 24.3837 88.0564 22.1549 85.9616 20.6745C83.8668 19.1941 81.2832 18.5753 78.745 18.946C76.2069 19.3167 73.9082 20.6485 72.3243 22.6662C70.7404 24.6839 69.9924 27.2331 70.235 29.7867C70.4776 32.3403 71.6922 34.7031 73.6277 36.3864C75.5632 38.0698 78.0715 38.945 80.6341 38.8311C83.1967 38.7173 85.6175 37.623 87.3961 35.7746C89.1746 33.9262 90.1749 31.4651 90.19 28.9C90.1918 28.2288 90.1281 27.5589 90 26.9ZM80.27 20.64C81.7413 20.6523 83.1827 21.0574 84.4449 21.8134C85.7072 22.5693 86.7447 23.6488 87.45 24.94C82.7763 26.5794 77.6872 26.6005 73 25C73.6965 23.6881 74.7359 22.5898 76.0074 21.822C77.2788 21.0542 78.7347 20.6457 80.22 20.64H80.27ZM72 28.83C72 28.53 72 28.22 72.06 27.92C78.84 29.27 79.28 34.8 79.18 37.01C77.1926 36.7544 75.3666 35.7824 74.0448 34.2764C72.7229 32.7704 71.9958 30.8339 72 28.83ZM81.49 37C81.32 34.72 81.62 29.16 88.35 28C88.392 28.3317 88.412 28.6657 88.41 29C88.3806 30.9341 87.6709 32.796 86.4054 34.2589C85.14 35.7219 83.3997 36.6924 81.49 37Z" fill="#001968"/>
<path d="M70.33 12.56C70.66 4.01998 78.13 3.61998 79.62 3.62998C81.11 3.63998 88.6199 4.08998 88.8499 12.63C88.8656 14.8302 88.3907 17.0063 87.4599 19C88.2775 19.5158 88.9218 20.2646 89.3099 21.15C90.6273 18.4633 91.3665 15.5301 91.48 12.54C91.4642 10.3383 90.8785 8.17813 89.7799 6.26998C88.8906 4.80051 87.6413 3.58212 86.15 2.72998C84.1625 1.59961 81.9166 1.00194 79.6302 0.994935C77.3438 0.987927 75.0943 1.57181 73.0999 2.68998C71.6023 3.52745 70.3453 4.7362 69.4499 6.19998C68.3335 8.09951 67.7304 10.2568 67.6999 12.46C67.6541 14.9562 68.1487 17.4329 69.15 19.72C69.39 20.3 69.96 21.36 70.26 21.95C70.6667 21.0889 71.282 20.343 72.05 19.78C70.9074 17.5455 70.3176 15.0696 70.33 12.56Z" fill="#001968"/>
<path d="M70.2601 24.17L69.0801 21.85C68.7701 21.25 68.4101 20.56 68.2201 20.1C67.1702 17.6781 66.6518 15.0592 66.7001 12.42C66.7385 10.0435 67.3932 7.71761 68.6001 5.67C69.5844 4.06745 70.9611 2.74237 72.6001 1.82C74.7464 0.642182 77.1519 0.0167379 79.6001 0V0C82.0523 0.0337316 84.4578 0.67632 86.6001 1.87C88.2434 2.80422 89.6204 4.14335 90.6001 5.76C91.7891 7.81623 92.4264 10.1449 92.4501 12.52C92.3475 15.6672 91.5736 18.7562 90.1801 21.58L89.3101 23.48L88.3801 21.61C88.0904 20.9187 87.6122 20.3227 87.0001 19.89L86.1901 19.46L86.5601 18.61C87.4262 16.7501 87.8701 14.7216 87.8601 12.67C87.6301 5.24 81.5001 4.67 79.6301 4.67C77.7201 4.67 71.6301 5.26 71.3701 12.67C71.3739 14.9947 71.9327 17.2849 73.0001 19.35L73.3601 20.12L72.6501 20.6C72.0248 21.0729 71.5238 21.6906 71.1901 22.4L70.2601 24.17ZM79.5901 2C77.493 2.01455 75.4319 2.54699 73.5901 3.55C72.2409 4.31223 71.1059 5.40254 70.2901 6.72C69.2683 8.4769 68.7172 10.4678 68.6901 12.5C68.6521 14.8485 69.1193 17.1778 70.0601 19.33C70.1301 19.5 70.2401 19.73 70.3601 19.97C70.5001 19.81 70.6501 19.64 70.8101 19.49C69.7879 17.3002 69.2784 14.9062 69.3201 12.49C69.6201 5.21 75.0001 2.63 79.5801 2.63C84.1601 2.63 89.5801 5.27 89.8101 12.63C89.8373 14.7077 89.4427 16.7693 88.6501 18.69C88.7965 18.8166 88.9335 18.9536 89.0601 19.1C89.9122 17.039 90.3799 14.8394 90.4401 12.61C90.4229 10.5785 89.8858 8.5852 88.8801 6.82C88.0876 5.49162 86.9734 4.38423 85.6401 3.6C83.8035 2.57801 81.7418 2.02822 79.6401 2H79.5901Z" fill="#001968"/>
<path d="M93.1101 30.94L50.7801 30.77C45.7801 30.77 41.6201 38.33 41.6001 43.37V53.03C41.6001 58.03 45.6701 57.5 50.7101 57.52L93.0001 57.68C98.0001 57.68 102.13 58.31 102.15 53.26V43.61C102.22 38.57 98.1601 31 93.1101 30.94ZM52.2101 55.07H46.6201C46.0578 55.07 45.5186 54.8467 45.121 54.4491C44.7235 54.0515 44.5001 53.5123 44.5001 52.95C44.5001 52.3878 44.7235 51.8485 45.121 51.451C45.5186 51.0534 46.0578 50.83 46.6201 50.83H52.2101C52.7485 50.867 53.2528 51.1069 53.6211 51.5014C53.9894 51.8958 54.1942 52.4154 54.1942 52.955C54.1942 53.4947 53.9894 54.0142 53.6211 54.4087C53.2528 54.8031 52.7485 55.0431 52.2101 55.08V55.07ZM97.0901 55.24H91.5001C90.9378 55.24 90.3986 55.0167 90.001 54.6191C89.6035 54.2215 89.3801 53.6823 89.3801 53.12C89.3801 52.5578 89.6035 52.0185 90.001 51.621C90.3986 51.2234 90.9378 51 91.5001 51H97.0901C97.6524 51 98.1916 51.2234 98.5892 51.621C98.9867 52.0185 99.2101 52.5578 99.2101 53.12C99.2101 53.6823 98.9867 54.2215 98.5892 54.6191C98.1916 55.0167 97.6524 55.24 97.0901 55.24Z" fill="#FF0B0B"/>
<path d="M88.54 66.64L101.36 66.53C101.458 66.5314 101.555 66.5132 101.646 66.4766C101.737 66.44 101.82 66.3857 101.89 66.3169C101.96 66.248 102.015 66.166 102.053 66.0756C102.091 65.9851 102.11 65.8881 102.11 65.79V57.89C102.11 57.48 102.11 57.17 101.58 57.17C101.05 57.17 101.05 57.3 100.58 57.97C99.96 58.89 98.31 58.74 98.31 58.74L88.63 58.67C88.4329 58.67 88.2436 58.7477 88.1032 58.8862C87.9628 59.0247 87.8827 59.2129 87.88 59.41L87.8 65.9C87.8 65.9972 87.8192 66.0935 87.8564 66.1832C87.8936 66.273 87.9481 66.3546 88.0168 66.4233C88.0855 66.492 88.1671 66.5465 88.2569 66.5837C88.3466 66.6209 88.4429 66.64 88.54 66.64Z" fill="#FF0B0B"/>
<path d="M54.35 66.64L41.53 66.53C41.432 66.5314 41.3347 66.5132 41.2438 66.4766C41.1528 66.44 41.0701 66.3857 41.0003 66.3169C40.9305 66.248 40.8751 66.166 40.8373 66.0756C40.7995 65.9851 40.78 65.8881 40.78 65.79V57.89C40.78 57.48 40.78 57.17 41.31 57.17C41.84 57.17 41.83 57.3 42.31 57.97C42.93 58.89 44.58 58.74 44.58 58.74L54.26 58.67C54.4572 58.67 54.6465 58.7477 54.7869 58.8862C54.9272 59.0247 55.0074 59.2129 55.01 59.41L55.15 65.9C55.1504 66.0025 55.1294 66.1039 55.0886 66.1978C55.0477 66.2917 54.9877 66.3762 54.9125 66.4457C54.8373 66.5153 54.7485 66.5685 54.6517 66.6019C54.5548 66.6354 54.4521 66.6484 54.35 66.64Z" fill="#FF0B0B"/>
<path d="M119.32 31.34C119.525 30.3042 120.056 29.3612 120.836 28.6488C121.615 27.9363 122.602 27.4918 123.652 27.3801C124.702 27.2684 125.76 27.4954 126.672 28.0279C127.584 28.5604 128.301 29.3706 128.72 30.34C128.979 30.9503 129.112 31.6069 129.11 32.27C129.14 32.9381 129.034 33.6054 128.8 34.2315C128.565 34.8576 128.205 35.4297 127.743 35.9131C127.281 36.3965 126.726 36.7812 126.111 37.0441C125.496 37.3069 124.834 37.4424 124.165 37.4424C123.496 37.4424 122.834 37.3069 122.22 37.0441C121.605 36.7812 121.049 36.3965 120.587 35.9131C120.125 35.4297 119.766 34.8576 119.531 34.2315C119.296 33.6054 119.19 32.9381 119.22 32.27C119.222 31.9574 119.256 31.6459 119.32 31.34ZM124.15 28.23C123.42 28.2377 122.705 28.4389 122.078 28.8131C121.45 29.1873 120.934 29.721 120.58 30.36C122.902 31.1654 125.428 31.1654 127.75 30.36C127.4 29.7117 126.88 29.1709 126.246 28.7957C125.611 28.4205 124.887 28.2249 124.15 28.23ZM128.25 32.3C128.26 32.1502 128.26 31.9998 128.25 31.85C127.191 31.9948 126.229 32.5469 125.57 33.3889C124.911 34.231 124.606 35.2968 124.72 36.36C125.701 36.2266 126.6 35.7412 127.249 34.9943C127.899 34.2473 128.254 33.2898 128.25 32.3ZM123.52 36.3C123.6 35.78 123.575 35.2493 123.446 34.7393C123.316 34.2293 123.086 33.7505 122.768 33.3316C122.449 32.9126 122.05 32.5619 121.594 32.3005C121.137 32.0391 120.632 31.8723 120.11 31.81C120.1 31.9699 120.1 32.1302 120.11 32.29C120.104 33.2603 120.444 34.201 121.069 34.9432C121.694 35.6855 122.563 36.1807 123.52 36.34V36.3Z" fill="#001968"/>
<path d="M129.07 24.2199C129.015 23.0357 128.506 21.9183 127.648 21.0998C126.79 20.2813 125.651 19.8246 124.465 19.8246C123.28 19.8246 122.14 20.2813 121.282 21.0998C120.425 21.9183 119.915 23.0357 119.86 24.2199C119.858 25.3141 120.093 26.3958 120.55 27.3899C120.147 27.6479 119.83 28.0205 119.64 28.4599C118.98 27.1261 118.612 25.6671 118.56 24.1799C118.567 23.085 118.857 22.0105 119.4 21.0599C119.847 20.3337 120.469 19.7318 121.21 19.3099C122.197 18.7539 123.308 18.4548 124.44 18.4399C125.576 18.449 126.692 18.7374 127.69 19.2799C128.432 19.6966 129.055 20.2954 129.5 21.0199C130.052 21.9647 130.352 23.0358 130.37 24.1299C130.39 25.3709 130.145 26.6017 129.65 27.7399C129.53 28.0299 129.25 28.5599 129.1 28.8499C128.897 28.4222 128.591 28.0513 128.21 27.7699C128.774 26.6715 129.069 25.4547 129.07 24.2199Z" fill="#001968"/>
<path d="M129.1 31.09L128.21 29.33C128.079 29.0573 127.887 28.8179 127.65 28.63L126.94 28.15L127.3 27.37C127.802 26.41 128.066 25.3434 128.07 24.26C128.095 23.7861 128.017 23.3125 127.844 22.871C127.67 22.4296 127.403 22.0305 127.062 21.7007C126.721 21.3709 126.313 21.1181 125.866 20.9593C125.419 20.8005 124.943 20.7393 124.47 20.78C123.996 20.7405 123.52 20.8033 123.072 20.9639C122.625 21.1246 122.217 21.3795 121.877 21.7113C121.537 22.0431 121.271 22.4442 121.099 22.8873C120.927 23.3305 120.853 23.8054 120.88 24.28C120.882 25.2268 121.09 26.1619 121.49 27.02L121.86 27.86L121.05 28.3C120.828 28.4598 120.655 28.6778 120.55 28.93L119.62 30.81L118.75 28.9C118.028 27.428 117.629 25.8187 117.58 24.18C117.59 22.9127 117.935 21.6707 118.58 20.58C119.106 19.7052 119.846 18.979 120.73 18.47C121.874 17.8304 123.16 17.4867 124.47 17.47C125.774 17.4913 127.052 17.8348 128.19 18.47C129.079 18.9707 129.826 19.6901 130.36 20.56C130.997 21.6505 131.342 22.8871 131.36 24.15C131.383 25.5242 131.114 26.8877 130.57 28.15C130.47 28.39 130.27 28.76 130.11 29.07L129.1 31.09Z" fill="#001968"/>
<path d="M117.75 33.34L138.75 33.26C141.26 33.26 143.3 37.02 143.31 39.52V44.32C143.31 46.82 141.31 46.54 138.79 46.55L117.79 46.63C115.28 46.63 113.25 46.94 113.24 44.43V39.64C113.22 37.13 115.24 33.35 117.75 33.34Z" fill="#FF0B0B"/>
<path d="M120 51.08H113.63C113.532 51.08 113.438 51.041 113.368 50.9716C113.299 50.9022 113.26 50.8081 113.26 50.71V46.78C113.26 46.58 113.26 46.43 113.53 46.42C113.8 46.41 113.79 46.49 114.01 46.82C114.23 47.15 115.13 47.2 115.13 47.2H119.94C119.989 47.1986 120.038 47.2072 120.083 47.2254C120.129 47.2435 120.17 47.2707 120.205 47.3053C120.239 47.3399 120.267 47.3813 120.285 47.4268C120.303 47.4723 120.311 47.521 120.31 47.57L120.39 50.79C120.369 50.8763 120.319 50.9525 120.247 51.0055C120.176 51.0585 120.089 51.0848 120 51.08Z" fill="#FF0B0B"/>
<path d="M137 51.08H143.37C143.467 51.0775 143.56 51.0377 143.629 50.9688C143.698 50.9 143.738 50.8073 143.74 50.71V46.78C143.74 46.58 143.74 46.43 143.47 46.42C143.2 46.41 143.21 46.49 142.99 46.82C142.77 47.15 141.87 47.2 141.87 47.2H137.06C136.961 47.2 136.866 47.2386 136.795 47.3077C136.724 47.3769 136.683 47.471 136.68 47.57L136.61 50.79C136.631 50.8763 136.681 50.9525 136.753 51.0055C136.824 51.0585 136.911 51.0848 137 51.08Z" fill="#FF0B0B"/>
</g>
<defs>
<clipPath id="clip0">
<rect width="163.96" height="70.22" fill="white"/>
</clipPath>
</defs>
</svg>
