<svg width="104" height="73" viewBox="0 0 104 73" fill="none" xmlns="http://www.w3.org/2000/svg">
<g clip-path="url(#clip0)">
<path d="M65.4896 47.1852C68.1314 43.5862 70.3579 39.694 72.1257 35.5842C74.0053 31.3007 74.9477 26.6574 74.8884 21.9719C74.8553 17.837 73.7627 13.7813 71.717 10.2003C70.0534 7.45759 67.731 5.18434 64.9655 3.59169C61.261 1.51077 57.1038 0.390873 52.8661 0.332275C48.6261 0.36999 44.4609 1.4649 40.74 3.51985C37.9679 5.10919 35.6367 7.37894 33.9618 10.1195C31.9054 13.6954 30.7948 17.7464 30.7371 21.8821C30.4883 28.5266 32.8069 35.8087 37.6218 43.5217C40.469 48.005 43.7418 52.1971 47.3938 56.0386C47.3938 56.0386 47.8291 56.4067 47.758 59.0376C47.7545 61.8953 47.5765 64.7501 47.225 67.5857C47.225 68.0166 47.0118 68.1334 46.8075 68.1693L39.0876 67.5857C38.2368 67.265 37.3039 67.2439 36.4397 67.5258C35.5756 67.8077 34.8308 68.3761 34.326 69.139C31.5988 73.1347 38.0927 72.587 38.0927 72.587H50.3964C51.2048 72.587 51.6668 71.8058 51.7823 71.294C52.0694 69.764 52.2534 68.216 52.333 66.6608C52.4044 68.2158 52.5825 69.7639 52.8661 71.294C52.9727 71.8058 53.4346 72.6409 54.243 72.596H66.5468C66.5468 72.596 73.0407 73.1706 70.3312 69.166C69.8264 68.4078 69.0851 67.8421 68.2255 67.559C67.3658 67.2759 66.4372 67.2916 65.5873 67.6036L57.8498 68.2411C57.6454 68.2411 57.4766 68.0885 57.4322 67.6485C57.0963 64.857 56.9302 62.0472 56.9347 59.2351V58.6784V57.8523C57.1947 57.2274 57.565 56.6554 58.0274 56.1643C60.716 53.3481 63.2093 50.348 65.4896 47.1852ZM53.4613 53.7938L52.7772 54.4582L51.7379 53.4975C46.3455 47.9664 35.1344 34.8659 35.6142 22.0707C36.2094 6.04298 50.0855 5.2618 52.8572 5.2618C55.6289 5.2618 69.4783 6.11481 70.0114 22.1425C70.2334 28.6433 67.3463 36.2935 61.5542 44.2759C59.1037 47.655 56.398 50.8371 53.4613 53.7938Z" fill="#001968"/>
<path d="M67.382 73C66.9467 73 66.618 73 66.4936 73H54.2165C53.7985 72.9711 53.4025 72.8 53.0928 72.5148C52.7832 72.2295 52.5781 71.8467 52.5109 71.4287C52.4398 71.0695 52.3688 70.6565 52.2977 70.1806C52.2266 70.6565 52.1556 71.0785 52.0845 71.4287C52.0191 71.8514 51.8107 72.2382 51.4948 72.5231C51.179 72.808 50.7752 72.9733 50.3522 72.9911H38.0929C37.7464 72.9911 34.4151 73.2514 33.5356 71.707C33.1358 71.0067 33.3046 70.0998 34.0508 69.0133C34.595 68.2026 35.3904 67.5976 36.3118 67.2937C37.2333 66.9897 38.2286 67.004 39.1411 67.3342L46.8343 67.9179C46.8343 67.9179 46.8343 67.9179 46.8965 67.6305C47.2464 64.8038 47.4244 61.9581 47.4295 59.1094C47.4917 56.8287 47.1719 56.4157 47.1541 56.3528C43.5017 52.4923 40.229 48.2823 37.3822 43.7821C32.4873 35.9164 30.2043 28.5895 30.4086 21.8641C30.4572 17.6718 31.5871 13.5648 33.6866 9.94887C35.3833 7.15503 37.7557 4.84369 40.5803 3.23251C44.3313 1.10381 48.5626 -0.00974529 52.8644 -0.000306706C57.1662 0.00913188 61.3926 1.14124 65.1345 3.28638C67.9509 4.91094 70.3136 7.23106 72.0015 10.0297C74.0761 13.6595 75.1841 17.771 75.2173 21.9629C75.2815 26.6951 74.3298 31.3852 72.4279 35.7099C70.6551 39.8451 68.4197 43.7616 65.7652 47.3827C63.4747 50.545 60.9725 53.5451 58.2763 56.3618C57.8658 56.7999 57.5297 57.3035 57.2814 57.8523V58.6335V59.2171C57.2773 62.0081 57.4405 64.7967 57.77 67.5677C57.77 67.855 57.8677 67.864 57.9121 67.873L65.5253 67.3432C66.4399 67.021 67.4342 67.0136 68.3533 67.3222C69.2724 67.6308 70.0647 68.238 70.6067 69.0492C71.3441 70.1357 71.4951 71.0426 71.1131 71.743C70.4646 72.8205 68.5369 73 67.382 73ZM54.1899 72.2548H66.5114C67.3998 72.3446 69.9227 72.3266 70.5001 71.3569C70.7666 70.9079 70.5979 70.2435 70.0204 69.3815C69.5585 68.7039 68.8901 68.1977 68.117 67.9399C67.3439 67.6822 66.5086 67.687 65.7385 67.9538H65.6408L57.8943 68.5015C57.6809 68.471 57.4857 68.3631 57.3451 68.1979C57.2046 68.0327 57.1282 67.8215 57.1304 67.6036C56.7948 64.803 56.6287 61.9843 56.6329 59.1633V58.5886V57.6907C56.9017 57.0213 57.2969 56.4114 57.7966 55.8949C60.4751 53.1024 62.9595 50.1262 65.2322 46.9876C67.8594 43.4095 70.0711 39.5381 71.8238 35.4495C73.6873 31.2123 74.6208 26.6174 74.5599 21.9808C74.5316 17.9034 73.4572 13.9031 71.4418 10.3709C69.8096 7.66898 67.5265 5.42929 64.8058 3.86104C61.1509 1.80959 57.0467 0.713872 52.8662 0.673466C48.6962 0.707241 44.5997 1.78711 40.9445 3.81615C38.2175 5.37356 35.9252 7.60391 34.2818 10.2991C32.246 13.8198 31.1472 17.8135 31.0926 21.8911C30.8439 28.4727 33.1447 35.6919 37.9152 43.3421C40.7668 47.8083 44.0394 51.9851 47.6871 55.8141C47.8204 55.9218 48.2024 56.5234 48.1402 59.0465C48.139 61.9195 47.958 64.7896 47.5983 67.6395C47.6166 67.85 47.5553 68.0597 47.4267 68.2264C47.2982 68.393 47.1118 68.5042 46.9054 68.5374L38.9901 67.9358C38.218 67.6363 37.3682 67.61 36.5794 67.8611C35.7905 68.1122 35.109 68.6259 34.646 69.3186C34.0597 70.2165 33.8909 70.8361 34.1574 71.294C34.726 72.2907 37.2045 72.3086 38.1106 72.1919H50.3966C51.0718 72.2458 51.4005 71.4377 51.4538 71.1503C51.7407 69.6414 51.9247 68.1144 52.0045 66.58H52.6619C52.7365 68.1164 52.9116 69.6462 53.1861 71.1593C53.2482 71.4915 53.5503 72.2997 54.1899 72.2548ZM52.7241 54.97L52.502 54.6468L51.5159 53.7489C46.4612 48.55 34.7882 35.1173 35.2768 22.0527C35.8897 5.78257 49.9258 4.92955 52.8218 4.92955C55.6468 4.92955 69.7717 5.82746 70.3136 22.1335C70.5268 28.7062 67.5774 36.4282 61.7854 44.4824C59.3214 47.8669 56.6071 51.0576 53.6658 54.0272L52.7241 54.97ZM52.8218 5.58503C50.0324 5.58503 36.5294 6.40213 35.943 22.0617C35.4633 34.8569 46.9942 48.101 51.9335 53.2371L52.733 53.9733L53.1861 53.5334C56.1294 50.6003 58.8413 47.439 61.2968 44.0784C67.0089 36.1588 69.9138 28.5715 69.7006 22.1515C69.1587 6.43804 55.5757 5.61197 52.8574 5.60299L52.8218 5.58503Z" fill="#001968"/>
<path d="M52.6706 30.906C58.3079 30.906 62.8778 26.287 62.8778 20.5891C62.8778 14.8912 58.3079 10.2721 52.6706 10.2721C47.0333 10.2721 42.4634 14.8912 42.4634 20.5891C42.4634 26.287 47.0333 30.906 52.6706 30.906Z" fill="#20CE88"/>
<path d="M51.5247 25.7072C51.2531 25.7075 50.9919 25.6013 50.7962 25.4108L46.6387 21.3972C46.5378 21.3005 46.4567 21.1847 46.4001 21.0563C46.3435 20.9279 46.3124 20.7896 46.3087 20.6491C46.3012 20.3653 46.4056 20.0902 46.5988 19.8842C46.792 19.6782 47.0582 19.5582 47.3389 19.5507C47.6196 19.5431 47.8918 19.6485 48.0956 19.8438L51.5247 23.1212L57.9742 16.2522C58.1716 16.0585 58.4354 15.9495 58.7104 15.9479C58.9855 15.9463 59.2506 16.0522 59.4502 16.2435C59.6498 16.4348 59.7685 16.6967 59.7815 16.9744C59.7945 17.2522 59.7008 17.5242 59.5199 17.7337L52.342 25.3749C52.1461 25.5804 51.878 25.6998 51.5958 25.7072H51.5247Z" fill="#001968"/>
<path d="M53.6657 37.0387C52.1245 37.072 50.6067 36.6541 49.295 35.8356C49.1548 35.751 49.0536 35.6136 49.0136 35.4537C48.9736 35.2937 48.9982 35.1242 49.0818 34.9825C49.1654 34.8408 49.3013 34.7385 49.4596 34.6981C49.6179 34.6577 49.7856 34.6825 49.9257 34.767C51.1859 35.5693 52.6775 35.9171 54.1581 35.7541C55.6386 35.5911 57.0211 34.9268 58.0809 33.8691C58.1392 33.8102 58.2085 33.7634 58.2847 33.7315C58.3609 33.6996 58.4426 33.6832 58.525 33.6832C58.6075 33.6832 58.6892 33.6996 58.7654 33.7315C58.8416 33.7634 58.9109 33.8102 58.9692 33.8691C59.0276 33.9281 59.0738 33.9981 59.1054 34.0751C59.137 34.1521 59.1532 34.2347 59.1532 34.3181C59.1532 34.4015 59.137 34.484 59.1054 34.5611C59.0738 34.6381 59.0276 34.7081 58.9692 34.767C57.5214 36.1321 55.6431 36.9366 53.6657 37.0387Z" fill="#001968"/>
<path d="M92.7444 27.9699C91.7498 28.0128 90.7729 27.6942 89.9905 27.072C89.699 26.7957 89.469 26.4598 89.3158 26.0867C89.1627 25.7136 89.0898 25.3118 89.1021 24.908C89.0759 24.4377 89.1576 23.9677 89.341 23.5346C89.5244 23.1016 89.8045 22.7173 90.1593 22.4118C90.5526 22.1213 91.0008 21.9155 91.4761 21.8074C91.9513 21.6992 92.4435 21.6911 92.9221 21.7833C93.2696 21.8512 93.5762 22.0558 93.7745 22.3522C93.9727 22.6485 94.0464 23.0124 93.9792 23.3636C93.9121 23.7149 93.7096 24.0248 93.4164 24.2252C93.1232 24.4256 92.7632 24.5 92.4157 24.4321C92.2242 24.3959 92.0264 24.4177 91.8472 24.495C91.8472 24.495 91.7672 24.6207 91.7672 24.908C91.7672 25.0427 91.7672 25.0697 91.7672 25.0786C92.1115 25.2688 92.5055 25.3472 92.8954 25.3031H93.0553C93.8991 25.3374 94.7274 25.0668 95.3917 24.5399C95.57 24.3526 95.7072 24.1295 95.7944 23.8851C95.8817 23.6406 95.917 23.3804 95.8981 23.1212C95.9278 22.7785 95.8871 22.4333 95.7785 22.1073C95.67 21.7813 95.496 21.4814 95.2673 21.2266C94.7195 20.7947 94.0326 20.5836 93.3396 20.634H81.7288C81.3754 20.634 81.0364 20.4921 80.7865 20.2395C80.5366 19.9869 80.3962 19.6443 80.3962 19.2871C80.3962 18.9299 80.5366 18.5873 80.7865 18.3347C81.0364 18.0822 81.3754 17.9403 81.7288 17.9403H93.1886C94.5977 17.8486 95.9878 18.3083 97.0707 19.2243C97.5845 19.7261 97.9854 20.3339 98.246 21.0064C98.5066 21.6788 98.6208 22.4001 98.5809 23.1212C98.6038 23.7446 98.498 24.366 98.2701 24.9457C98.0422 25.5255 97.6972 26.0509 97.2573 26.4884C96.095 27.5089 94.5941 28.0477 93.0553 27.9968L92.7444 27.9699Z" fill="#001968"/>
<path d="M98.9186 15.6326H88.125C87.7716 15.6326 87.4327 15.4907 87.1828 15.2382C86.9329 14.9856 86.7925 14.643 86.7925 14.2858C86.7925 13.9286 86.9329 13.586 87.1828 13.3334C87.4327 13.0808 87.7716 12.9389 88.125 12.9389H98.7853C99.4784 12.9784 100.163 12.7649 100.713 12.3373C100.942 12.0848 101.117 11.7866 101.225 11.4619C101.334 11.1371 101.374 10.7931 101.344 10.4517C101.361 10.1892 101.325 9.92589 101.236 9.67854C101.147 9.43119 101.008 9.20523 100.829 9.01505C100.153 8.51089 99.3318 8.24581 98.4921 8.26081H98.3322C97.9453 8.22142 97.5556 8.29957 97.2129 8.48528C97.2129 8.48528 97.2129 8.48529 97.2129 8.65589C97.2002 8.79749 97.2248 8.93996 97.284 9.06893C97.4651 9.15085 97.6672 9.17284 97.8614 9.13178C98.2083 9.07383 98.5639 9.15492 98.8525 9.35781C99.1412 9.5607 99.3402 9.86939 99.4072 10.2182C99.4725 10.5646 99.4 10.9229 99.2054 11.2155C99.0107 11.5081 98.7097 11.7111 98.3678 11.7806C97.8877 11.8709 97.3946 11.8618 96.9181 11.7538C96.4417 11.6457 95.9919 11.441 95.5961 11.1521C95.2429 10.8457 94.9646 10.4611 94.7827 10.0281C94.6009 9.59508 94.5205 9.12547 94.5478 8.65589C94.5356 8.25347 94.6086 7.85307 94.7618 7.48143C94.915 7.1098 95.1449 6.77551 95.4362 6.50091C96.3048 5.81281 97.403 5.49104 98.501 5.603C100.036 5.55883 101.532 6.09695 102.694 7.11148C103.133 7.55186 103.478 8.07881 103.707 8.6596C103.937 9.24039 104.045 9.86261 104.027 10.4876C104.065 11.2071 103.95 11.9266 103.689 12.5973C103.428 13.268 103.029 13.8744 102.516 14.3756C101.511 15.2279 100.23 15.6755 98.9186 15.6326Z" fill="#001968"/>
<path d="M13.6541 47.7149H13.2987H1.33254C0.979126 47.7149 0.64019 47.573 0.390291 47.3204C0.140392 47.0678 0 46.7252 0 46.368C0 46.0108 0.140392 45.6682 0.390291 45.4156C0.64019 45.1631 0.979126 45.0212 1.33254 45.0212H13.4764C14.333 45.0714 15.1786 44.8067 15.8572 44.2759C16.1452 43.9635 16.3652 43.5935 16.5029 43.1898C16.6406 42.7862 16.693 42.3578 16.6567 41.9323C16.6767 41.6033 16.6286 41.2736 16.5154 40.9644C16.4022 40.6551 16.2264 40.3732 15.9993 40.1365C15.1778 39.5175 14.1717 39.2007 13.1477 39.2386H12.9789C12.4863 39.1829 11.9884 39.2767 11.5486 39.508C11.5486 39.508 11.442 39.6157 11.442 39.8672C11.4137 40.0925 11.4708 40.3203 11.6019 40.5047C11.8588 40.6392 12.1536 40.6804 12.437 40.6214C12.784 40.5607 13.1407 40.6393 13.4311 40.8406C13.7215 41.0419 13.9227 41.3499 13.9916 41.6989C14.0572 42.0463 13.9849 42.4058 13.7904 42.6998C13.596 42.9938 13.2949 43.1987 12.9523 43.2702C12.4266 43.3734 11.8856 43.366 11.3629 43.2486C10.8402 43.1312 10.347 42.9063 9.91407 42.5878C9.53454 42.2556 9.23489 41.8404 9.03786 41.3736C8.84083 40.9069 8.75161 40.4009 8.77697 39.8941C8.75985 39.4453 8.84003 38.9982 9.01191 38.5841C9.18378 38.1699 9.44318 37.7988 9.77193 37.4967C10.739 36.7372 11.9542 36.3748 13.1743 36.482C14.8993 36.4346 16.5803 37.0362 17.8915 38.1701C18.3793 38.6597 18.762 39.2457 19.0158 39.8914C19.2695 40.5372 19.3888 41.2289 19.3662 41.9234C19.4111 42.7271 19.2844 43.5312 18.9947 44.281C18.705 45.0309 18.2591 45.709 17.6872 46.2692C16.5632 47.2339 15.1282 47.7482 13.6541 47.7149Z" fill="#001968"/>
<path d="M19.0731 60.6807C17.9569 60.7275 16.8617 60.3638 15.9905 59.6571C15.6721 59.361 15.4202 58.9995 15.2516 58.5968C15.0831 58.1941 15.0018 57.7596 15.0133 57.3225C14.9879 56.8157 15.0771 56.3097 15.2742 55.843C15.4712 55.3762 15.7708 54.961 16.1504 54.6288C16.5786 54.2993 17.0693 54.0624 17.5919 53.9326C18.1146 53.8029 18.658 53.7831 19.1885 53.8745C19.542 53.946 19.8528 54.1564 20.0527 54.4595C20.2527 54.7626 20.3253 55.1336 20.2546 55.4908C20.1839 55.848 19.9757 56.1622 19.6758 56.3643C19.376 56.5663 19.0089 56.6397 18.6555 56.5683C18.3722 56.5085 18.0771 56.5497 17.8205 56.685C17.6871 56.8718 17.6299 57.1032 17.6606 57.3315C17.6606 57.5739 17.7316 57.6458 17.7672 57.6817C18.2098 57.9339 18.7181 58.0435 19.2241 57.9959H19.384C20.4123 58.0457 21.425 57.7278 22.2445 57.098C22.4721 56.8617 22.6481 56.5798 22.7613 56.2705C22.8746 55.9612 22.9224 55.6314 22.9019 55.3022C22.9377 54.874 22.8834 54.443 22.7425 54.0375C22.6016 53.632 22.3774 53.2613 22.0846 52.9497C21.4072 52.4242 20.5652 52.1628 19.7127 52.2134H4.72609C4.37268 52.2134 4.03374 52.0715 3.78385 51.8189C3.53395 51.5663 3.39355 51.2238 3.39355 50.8665C3.39355 50.5093 3.53395 50.1668 3.78385 49.9142C4.03374 49.6616 4.37268 49.5197 4.72609 49.5197H19.5439C21.1205 49.4064 22.6788 49.9185 23.888 50.9474C24.4614 51.5068 24.909 52.1846 25.2002 52.9345C25.4915 53.6844 25.6196 54.4888 25.5758 55.2932C25.5968 55.9875 25.4768 56.6787 25.2232 57.3243C24.9695 57.9698 24.5877 58.556 24.1012 59.0465C22.7899 60.1863 21.1038 60.7886 19.3751 60.7346L19.0731 60.6807Z" fill="#001968"/>
<path d="M85.2823 53.0215C83.168 55.0149 78.9572 54.0182 78.9661 53.9194C78.975 53.8207 78.1844 49.6005 80.2898 47.6341C83.4168 44.6799 89.0845 44.2579 89.1733 44.3298C89.2622 44.4016 90.115 48.4332 85.2823 53.0215Z" fill="#20CE88"/>
<path d="M81.409 55.1496C80.4569 55.167 79.5076 55.0399 78.5929 54.7725C78.4206 54.6994 78.2755 54.5733 78.1783 54.4121C78.081 54.2509 78.0364 54.0628 78.051 53.8745C77.5446 49.9058 78.6462 47.9304 79.6678 46.9696C82.6172 44.1771 88.96 42.8303 89.7773 43.7012C90.2215 44.1861 90.2926 45.7305 89.9372 47.221C89.2431 49.7327 87.8271 51.9795 85.8685 53.677C84.6181 54.7171 83.0258 55.2429 81.409 55.1496ZM79.7478 53.2191C80.8227 53.3987 83.3012 53.5962 84.6515 52.3212C88.0628 49.0977 88.4092 46.359 88.3737 45.2187C86.8102 45.4073 83.0436 46.1166 80.8671 48.2357C79.9521 49.1785 79.5257 50.9204 79.7478 53.2191Z" fill="#001968"/>
<path d="M77.4915 56.3797C77.4915 56.3797 78.0245 54.4043 79.4814 54.09L77.4915 56.3797Z" fill="#20CE88"/>
<path d="M77.4914 57.2776C77.4147 57.2865 77.3372 57.2865 77.2604 57.2776C77.1478 57.2465 77.0424 57.1932 76.9501 57.1208C76.8579 57.0484 76.7807 56.9583 76.723 56.8557C76.6652 56.7532 76.628 56.6401 76.6135 56.523C76.5991 56.4059 76.6076 56.287 76.6386 56.1732C76.6386 56.0744 77.3315 53.6591 79.3036 53.2371C79.4203 53.2123 79.5407 53.211 79.6578 53.2332C79.775 53.2555 79.8866 53.3008 79.9865 53.3667C80.0863 53.4326 80.1723 53.5177 80.2395 53.6171C80.3068 53.7166 80.3541 53.8285 80.3786 53.9464C80.4031 54.0643 80.4043 54.186 80.3823 54.3044C80.3603 54.4228 80.3155 54.5357 80.2503 54.6365C80.1851 54.7374 80.1009 54.8244 80.0025 54.8924C79.9041 54.9604 79.7934 55.0081 79.6768 55.0329C78.7884 55.2214 78.362 56.6671 78.362 56.685C78.298 56.8645 78.1791 57.0186 78.0225 57.1252C77.866 57.2317 77.68 57.2851 77.4914 57.2776Z" fill="#001968"/>
<path d="M14.9954 25.0517C17.3939 27.3144 22.1733 26.183 22.1733 26.0843C22.1733 25.9855 23.0617 21.1817 20.6631 18.901C17.1097 15.5428 10.678 15.0579 10.6069 15.1388C10.5358 15.2196 9.4698 19.8348 14.9954 25.0517Z" fill="#20CE88"/>
<path d="M19.3662 27.3504C17.5627 27.4532 15.7869 26.8666 14.3914 25.7072C8.56381 20.212 9.34557 15.2016 9.94965 14.5462C10.7314 13.7111 17.8738 15.049 21.2762 18.2635C22.4044 19.332 23.6392 21.5499 23.0973 26.0394V26.1651C23.0994 26.3363 23.0481 26.5038 22.9509 26.6439C22.8537 26.7841 22.7153 26.8899 22.5554 26.9463C21.5193 27.2462 20.4435 27.3825 19.3662 27.3504ZM11.371 16.0906C11.3177 17.3566 11.6286 20.5801 15.6351 24.3962C17.1986 25.8778 20.2013 25.5994 21.3917 25.375C21.676 22.6812 21.214 20.634 20.0947 19.5745C17.4474 17.1052 13.0589 16.2791 11.3355 16.0906H11.371Z" fill="#001968"/>
<path d="M23.8168 28.8678C23.8168 28.8678 23.2127 26.623 21.5515 26.2639L23.8168 28.8678Z" fill="#20CE88"/>
<path d="M23.8169 29.7657C23.6175 29.7732 23.4214 29.7126 23.2603 29.5937C23.0991 29.4748 22.9823 29.3045 22.9285 29.1103C22.9285 29.1103 22.4222 27.3773 21.3384 27.1438C21.2217 27.1191 21.111 27.0713 21.0126 27.0033C20.9142 26.9353 20.83 26.8484 20.7648 26.7475C20.6997 26.6466 20.6548 26.5337 20.6328 26.4153C20.6108 26.2969 20.6121 26.1753 20.6366 26.0574C20.6611 25.9394 20.7083 25.8276 20.7756 25.7281C20.8429 25.6286 20.9289 25.5435 21.0287 25.4777C21.1285 25.4118 21.2402 25.3665 21.3573 25.3442C21.4745 25.322 21.5948 25.3233 21.7115 25.348C23.8791 25.8149 24.6164 28.4907 24.6431 28.5984C24.6741 28.7122 24.6826 28.8311 24.6681 28.9482C24.6536 29.0653 24.6164 29.1784 24.5587 29.281C24.5009 29.3835 24.4237 29.4736 24.3315 29.546C24.2393 29.6184 24.1338 29.6717 24.0212 29.7029L23.8169 29.7657Z" fill="#001968"/>
</g>
<defs>
<clipPath id="clip0">
<rect width="104" height="73" fill="white"/>
</clipPath>
</defs>
</svg>
