<svg width="140" height="82" viewBox="0 0 140 82" fill="none" xmlns="http://www.w3.org/2000/svg">
<g clip-path="url(#clip0)">
<path d="M82 52.5501C84.9743 48.544 87.4774 44.2088 89.46 39.6301C91.5861 34.8618 92.6572 29.6905 92.6 24.4701C92.5536 19.8623 91.3132 15.3453 89 11.3601C87.1357 8.30922 84.5321 5.77783 81.43 4.00006C77.2757 1.64436 72.5836 0.401082 67.8079 0.39057C63.0322 0.380059 58.3346 1.60267 54.17 3.94006C51.0474 5.70731 48.4227 8.23574 46.54 11.2901C44.217 15.2696 42.963 19.7825 42.9 24.3901C42.62 31.7901 45.23 39.9001 50.65 48.4901C53.8548 53.4832 57.5389 58.152 61.65 62.4301C61.65 62.4301 62.13 62.8401 62.06 65.7701C62.0494 68.9528 61.8457 72.132 61.45 75.2901C61.4 75.7701 61.21 75.9001 60.99 75.9401L52.27 75.2901C51.3182 74.9385 50.2762 74.9159 49.3101 75.2259C48.344 75.5358 47.5096 76.1605 46.94 77.0001C43.87 81.4501 51.18 80.8401 51.18 80.8401H65C65.91 80.8401 66.44 79.9701 66.56 79.4001C66.8832 77.6961 67.0904 75.9721 67.18 74.2401C67.2603 75.9719 67.4608 77.696 67.78 79.4001C67.9 79.9701 68.43 80.9001 69.33 80.8501H83.18C83.18 80.8501 90.49 81.4901 87.44 77.0301C86.8747 76.1852 86.0421 75.5544 85.0757 75.239C84.1093 74.9235 83.065 74.9415 82.11 75.2901L73.42 76.0001C73.19 76.0001 73 75.8301 72.96 75.3401C72.5764 72.2316 72.3894 69.1021 72.4 65.9701V65.3501V64.4301C72.6927 63.734 73.1095 63.097 73.63 62.5501C76.6463 59.4129 79.4429 56.0716 82 52.5501ZM68.48 59.9101L67.71 60.6501L66.54 59.5801C60.47 53.4201 47.85 38.8301 48.39 24.5801C49.07 6.73006 64.68 5.86006 67.8 5.86006C70.92 5.86006 86.51 6.81006 87.11 24.6601C87.36 31.9001 84.11 40.4201 77.59 49.3101C74.8315 53.0733 71.7858 56.6172 68.48 59.9101Z" fill="#001968"/>
<path d="M84.1501 81.3C83.66 81.3 83.2901 81.3 83.1501 81.3H69.3301C68.8595 81.2677 68.4137 81.0773 68.0651 80.7596C67.7165 80.4418 67.4857 80.0155 67.4101 79.55C67.3301 79.15 67.25 78.69 67.17 78.16C67.1 78.69 67.0201 79.16 66.93 79.55C66.8409 80.0029 66.6021 80.4128 66.2522 80.7138C65.9022 81.0148 65.4612 81.1896 65 81.21H51.18C50.79 81.21 47.04 81.5 46.05 79.78C45.6 79 45.8001 77.99 46.6301 76.78C47.2426 75.8771 48.1379 75.2033 49.1752 74.8648C50.2124 74.5263 51.3328 74.5422 52.3601 74.91L61.0201 75.56C61.0201 75.56 61.0201 75.56 61.09 75.24C61.484 72.0919 61.6843 68.9226 61.69 65.75C61.76 63.21 61.4001 62.75 61.3801 62.68C57.2512 58.3829 53.5505 53.6941 50.3301 48.68C44.8701 40.03 42.25 31.85 42.53 24.36C42.5894 19.6917 43.861 15.1189 46.2201 11.09C48.1342 7.97235 50.812 5.39444 54 3.6C58.2221 1.28066 62.9531 0.0437942 67.77 0V0C72.6197 0.045563 77.381 1.30377 81.6201 3.66C84.7904 5.46927 87.45 8.05318 89.35 11.17C91.69 15.2121 92.9472 19.7897 93 24.46C93.0695 29.7311 91.9948 34.9545 89.85 39.77C87.8584 44.3774 85.3417 48.7396 82.35 52.77C79.7717 56.2919 76.9551 59.633 73.92 62.77C73.458 63.258 73.0796 63.8188 72.8001 64.43V65.3V65.95C72.791 69.0587 72.9781 72.1649 73.3601 75.25C73.3601 75.57 73.4601 75.58 73.5101 75.59L82.06 75C83.0894 74.6394 84.2092 74.6303 85.2442 74.9741C86.2793 75.3179 87.1711 75.9952 87.78 76.9C88.6101 78.11 88.78 79.12 88.35 79.9C87.62 81.1 85.4501 81.3 84.1501 81.3ZM69.34 80.47H83.21C84.2701 80.56 87.06 80.55 87.7 79.47C88 78.97 87.8101 78.23 87.1601 77.27C86.6401 76.4962 85.8764 75.9184 84.9904 75.6285C84.1044 75.3386 83.1468 75.3532 82.27 75.67H82.1601L73.45 76.28C73.208 76.2483 72.9858 76.1291 72.8256 75.9448C72.6653 75.7606 72.578 75.5242 72.5801 75.28C72.2023 72.161 72.0153 69.0218 72.02 65.88V65.23V64.29C72.3251 63.5435 72.7736 62.864 73.34 62.29C76.3467 59.1752 79.1398 55.861 81.7 52.37C84.6611 48.3875 87.1511 44.0754 89.1201 39.52C91.2206 34.8016 92.2747 29.6844 92.21 24.52C92.1706 19.9787 90.958 15.5246 88.6901 11.59C86.8593 8.5791 84.292 6.08403 81.2301 4.34C77.1249 2.04575 72.5123 0.811833 67.81 0.75C63.1159 0.787615 58.5046 1.99027 54.39 4.25C51.3211 5.98195 48.7435 8.46663 46.9001 11.47C44.6076 15.3902 43.3739 19.8391 43.32 24.38C43 31.71 45.59 39.75 51 48.27C54.2075 53.2459 57.8915 57.8978 62 62.16C62.15 62.28 62.58 62.95 62.51 65.76C62.5087 68.9597 62.3049 72.1561 61.9001 75.33C61.921 75.563 61.8534 75.7953 61.7106 75.9806C61.5679 76.1659 61.3606 76.2907 61.1301 76.33L52.21 75.66C51.3365 75.3303 50.377 75.3071 49.4885 75.5942C48.6001 75.8812 47.8355 76.4615 47.32 77.24C46.66 78.24 46.4801 78.93 46.7701 79.44C47.41 80.55 50.2001 80.57 51.2201 80.44H65C65.7701 80.44 66.13 79.6 66.2 79.28C66.5135 77.5984 66.7173 75.8981 66.81 74.19H67.56C67.6389 75.9016 67.8361 77.6056 68.1501 79.29C68.2101 79.59 68.56 80.45 69.27 80.45L69.34 80.47ZM67.63 61.25L67.4101 60.88L66.2901 59.88C60.6 54.07 47.47 39.1 48 24.56C48.7 6.44 64.5001 5.49 67.7601 5.49C70.9401 5.49 86.84 6.49 87.45 24.65C87.69 31.97 84.38 40.57 77.85 49.54C75.0817 53.3134 72.0259 56.8673 68.71 60.17L67.63 61.25ZM67.7601 6.25C64.6201 6.25 49.43 7.16 48.76 24.6C48.22 38.85 61.2001 53.6 66.7601 59.32L67.6601 60.14L68.17 59.65C71.4633 56.3747 74.4958 52.8473 77.24 49.1C83.66 40.28 86.9301 31.83 86.6901 24.68C86.1501 7.17 70.8601 6.25 67.8001 6.24L67.7601 6.25Z" fill="#001968"/>
<path d="M67.81 36.1499C75.0118 36.1499 80.85 30.3117 80.85 23.1099C80.85 15.9082 75.0118 10.0699 67.81 10.0699C60.6082 10.0699 54.77 15.9082 54.77 23.1099C54.77 30.3117 60.6082 36.1499 67.81 36.1499Z" fill="#FF0B0B"/>
<path d="M71.21 23.1L74.21 20.1C74.6382 19.6565 74.8768 19.0636 74.8751 18.4471C74.8734 17.8306 74.6316 17.239 74.2009 16.7979C73.7702 16.3568 73.1845 16.1009 72.5683 16.0845C71.952 16.068 71.3535 16.2924 70.9 16.71L67.84 19.71L64.84 16.71C64.3864 16.2924 63.788 16.068 63.1717 16.0845C62.5554 16.1009 61.9698 16.3568 61.5391 16.7979C61.1084 17.239 60.8665 17.8306 60.8648 18.4471C60.8631 19.0636 61.1017 19.6565 61.53 20.1L64.53 23.1L61.53 26.04C61.2967 26.2547 61.1089 26.5141 60.9776 26.8028C60.8464 27.0915 60.7744 27.4035 60.766 27.7205C60.7575 28.0375 60.8128 28.3529 60.9285 28.6482C61.0441 28.9434 61.2179 29.2125 61.4394 29.4393C61.6609 29.6662 61.9257 29.8463 62.2181 29.969C62.5105 30.0917 62.8246 30.1545 63.1417 30.1536C63.4588 30.1527 63.7725 30.0882 64.0642 29.9639C64.3559 29.8396 64.6197 29.6581 64.84 29.43L67.84 26.43L70.9 29.43C71.1252 29.6466 71.3909 29.8168 71.6819 29.9308C71.9729 30.0448 72.2835 30.1004 72.5959 30.0944C72.9084 30.0883 73.2166 30.0208 73.503 29.8957C73.7894 29.7705 74.0483 29.5902 74.265 29.365C74.4816 29.1397 74.6519 28.8741 74.7659 28.5831C74.8799 28.2921 74.9354 27.9815 74.9294 27.669C74.9233 27.3565 74.8558 27.0483 74.7307 26.7619C74.6055 26.4756 74.4252 26.2166 74.2 26L71.21 23.1Z" fill="white"/>
<path d="M69.3301 39.88C71.3173 40.138 73.1866 40.9684 74.7101 42.27C74.8738 42.4032 74.9782 42.5956 75.0006 42.8053C75.0231 43.0151 74.9618 43.2253 74.8301 43.39C74.6937 43.5521 74.4999 43.6551 74.2893 43.6775C74.0786 43.6999 73.8675 43.6399 73.7001 43.51C72.232 42.2327 70.3732 41.4924 68.4289 41.4107C66.4847 41.3289 64.5703 41.9105 63.0001 43.06C62.8317 43.1927 62.6175 43.2529 62.4047 43.2276C62.1918 43.2023 61.9977 43.0935 61.8651 42.925C61.7325 42.7566 61.6722 42.5424 61.6976 42.3296C61.7229 42.1167 61.8317 41.9227 62.0001 41.79C64.1425 40.3104 66.7381 39.6341 69.3301 39.88Z" fill="#001968"/>
<path d="M38.13 68.68H37.73H24.26C23.8622 68.68 23.4807 68.5219 23.1993 68.2406C22.918 67.9593 22.76 67.5778 22.76 67.18C22.76 66.7821 22.918 66.4006 23.1993 66.1193C23.4807 65.838 23.8622 65.68 24.26 65.68H37.92C38.8876 65.7384 39.8435 65.4434 40.61 64.85C40.9342 64.5021 41.1818 64.09 41.3368 63.6404C41.4919 63.1909 41.5509 62.7138 41.51 62.24C41.5325 61.8735 41.4784 61.5063 41.3509 61.1619C41.2235 60.8175 41.0257 60.5035 40.77 60.24C39.8445 59.5519 38.7125 59.1993 37.56 59.24H37.37C36.8012 59.1787 36.2275 59.2976 35.73 59.58C35.73 59.58 35.61 59.7 35.61 59.98C35.61 60.26 35.61 60.56 35.8 60.69C36.0834 60.835 36.4063 60.8842 36.72 60.83C36.917 60.7813 37.1219 60.7732 37.3221 60.8061C37.5224 60.8389 37.7139 60.912 37.8851 61.021C38.0563 61.13 38.2035 61.2727 38.318 61.4402C38.4325 61.6078 38.5117 61.7969 38.551 61.996C38.5903 62.1951 38.5888 62.4001 38.5465 62.5985C38.5043 62.797 38.4222 62.9849 38.3052 63.1507C38.1883 63.3166 38.0389 63.457 37.8661 63.5634C37.6933 63.6699 37.5007 63.7401 37.3 63.77C36.7099 63.8846 36.1025 63.8763 35.5158 63.7456C34.929 63.6148 34.3756 63.3644 33.89 63.01C33.4628 62.64 33.1255 62.1775 32.9037 61.6577C32.6819 61.1379 32.5815 60.5744 32.61 60.01C32.5969 59.5217 32.6883 59.0362 32.878 58.5861C33.0677 58.136 33.3514 57.7316 33.71 57.4C34.7987 56.5541 36.1666 56.1505 37.54 56.27C39.4816 56.2181 41.3735 56.888 42.85 58.15C43.3991 58.6952 43.8299 59.3478 44.1155 60.067C44.4012 60.7862 44.5354 61.5566 44.51 62.33C44.5605 63.2251 44.4179 64.1206 44.0918 64.9557C43.7657 65.7908 43.2637 66.546 42.62 67.17C41.3536 68.1968 39.7596 68.7329 38.13 68.68Z" fill="#001968"/>
<path d="M27.6599 23.46C28.7755 23.46 29.6799 22.5557 29.6799 21.44C29.6799 20.3244 28.7755 19.42 27.6599 19.42C26.5443 19.42 25.6399 20.3244 25.6399 21.44C25.6399 22.5557 26.5443 23.46 27.6599 23.46Z" fill="#001968"/>
<path d="M31.0999 36.0499C31.8897 36.0499 32.5299 35.4097 32.5299 34.6199C32.5299 33.8302 31.8897 33.1899 31.0999 33.1899C30.3102 33.1899 29.6699 33.8302 29.6699 34.6199C29.6699 35.4097 30.3102 36.0499 31.0999 36.0499Z" fill="#001968"/>
<path d="M35.7401 28.57C36.5298 28.57 37.1701 27.9297 37.1701 27.14C37.1701 26.3502 36.5298 25.71 35.7401 25.71C34.9503 25.71 34.3101 26.3502 34.3101 27.14C34.3101 27.9297 34.9503 28.57 35.7401 28.57Z" fill="#001968"/>
<path d="M23.2599 32.4901C24.9665 32.4901 26.3499 31.1066 26.3499 29.4001C26.3499 27.6935 24.9665 26.3101 23.2599 26.3101C21.5534 26.3101 20.1699 27.6935 20.1699 29.4001C20.1699 31.1066 21.5534 32.4901 23.2599 32.4901Z" fill="#001968"/>
<path d="M10.1899 44C11.3055 44 12.2099 43.0956 12.2099 41.98C12.2099 40.8643 11.3055 39.96 10.1899 39.96C9.07431 39.96 8.16992 40.8643 8.16992 41.98C8.16992 43.0956 9.07431 44 10.1899 44Z" fill="#001968"/>
<path d="M23.67 41.39C24.4598 41.39 25.1 40.7498 25.1 39.96C25.1 39.1703 24.4598 38.53 23.67 38.53C22.8802 38.53 22.24 39.1703 22.24 39.96C22.24 40.7498 22.8802 41.39 23.67 41.39Z" fill="#001968"/>
<path d="M16.72 35.99C17.5098 35.99 18.15 35.3498 18.15 34.56C18.15 33.7702 17.5098 33.13 16.72 33.13C15.9303 33.13 15.29 33.7702 15.29 34.56C15.29 35.3498 15.9303 35.99 16.72 35.99Z" fill="#001968"/>
<path d="M17.64 50.29C19.3466 50.29 20.73 48.9065 20.73 47.2C20.73 45.4934 19.3466 44.11 17.64 44.11C15.9335 44.11 14.55 45.4934 14.55 47.2C14.55 48.9065 15.9335 50.29 17.64 50.29Z" fill="#001968"/>
<path d="M125.95 42.05C127.066 42.05 127.97 41.1456 127.97 40.03C127.97 38.9144 127.066 38.01 125.95 38.01C124.834 38.01 123.93 38.9144 123.93 40.03C123.93 41.1456 124.834 42.05 125.95 42.05Z" fill="#001968"/>
<path d="M129.4 54.64C130.19 54.64 130.83 53.9998 130.83 53.21C130.83 52.4203 130.19 51.78 129.4 51.78C128.61 51.78 127.97 52.4203 127.97 53.21C127.97 53.9998 128.61 54.64 129.4 54.64Z" fill="#001968"/>
<path d="M134.03 47.16C134.82 47.16 135.46 46.5198 135.46 45.73C135.46 44.9403 134.82 44.3 134.03 44.3C133.24 44.3 132.6 44.9403 132.6 45.73C132.6 46.5198 133.24 47.16 134.03 47.16Z" fill="#001968"/>
<path d="M121.56 51.08C123.267 51.08 124.65 49.6966 124.65 47.99C124.65 46.2835 123.267 44.9 121.56 44.9C119.853 44.9 118.47 46.2835 118.47 47.99C118.47 49.6966 119.853 51.08 121.56 51.08Z" fill="#001968"/>
<path d="M130.11 25.42C131.226 25.42 132.13 24.5156 132.13 23.4C132.13 22.2844 131.226 21.38 130.11 21.38C128.994 21.38 128.09 22.2844 128.09 23.4C128.09 24.5156 128.994 25.42 130.11 25.42Z" fill="#001968"/>
<path d="M133.55 38.02C134.34 38.02 134.98 37.3798 134.98 36.59C134.98 35.8003 134.34 35.16 133.55 35.16C132.76 35.16 132.12 35.8003 132.12 36.59C132.12 37.3798 132.76 38.02 133.55 38.02Z" fill="#001968"/>
<path d="M138.19 30.53C138.98 30.53 139.62 29.8898 139.62 29.1C139.62 28.3103 138.98 27.67 138.19 27.67C137.4 27.67 136.76 28.3103 136.76 29.1C136.76 29.8898 137.4 30.53 138.19 30.53Z" fill="#001968"/>
<path d="M125.71 34.45C127.417 34.45 128.8 33.0666 128.8 31.36C128.8 29.6535 127.417 28.27 125.71 28.27C124.004 28.27 122.62 29.6535 122.62 31.36C122.62 33.0666 124.004 34.45 125.71 34.45Z" fill="#001968"/>
<path d="M108.33 47.2201C109.446 47.2201 110.35 46.3157 110.35 45.2001C110.35 44.0844 109.446 43.1801 108.33 43.1801C107.214 43.1801 106.31 44.0844 106.31 45.2001C106.31 46.3157 107.214 47.2201 108.33 47.2201Z" fill="#001968"/>
<path d="M104.65 30.83C105.44 30.83 106.08 30.1897 106.08 29.4C106.08 28.6102 105.44 27.97 104.65 27.97C103.86 27.97 103.22 28.6102 103.22 29.4C103.22 30.1897 103.86 30.83 104.65 30.83Z" fill="#001968"/>
<path d="M99.5401 40.21C100.33 40.21 100.97 39.5697 100.97 38.78C100.97 37.9902 100.33 37.35 99.5401 37.35C98.7503 37.35 98.1101 37.9902 98.1101 38.78C98.1101 39.5697 98.7503 40.21 99.5401 40.21Z" fill="#001968"/>
<path d="M117.36 32.13C118.15 32.13 118.79 31.4898 118.79 30.7C118.79 29.9103 118.15 29.27 117.36 29.27C116.57 29.27 115.93 29.9103 115.93 30.7C115.93 31.4898 116.57 32.13 117.36 32.13Z" fill="#001968"/>
<path d="M117.84 40.57C118.63 40.57 119.27 39.9297 119.27 39.14C119.27 38.3502 118.63 37.71 117.84 37.71C117.05 37.71 116.41 38.3502 116.41 39.14C116.41 39.9297 117.05 40.57 117.84 40.57Z" fill="#001968"/>
<path d="M109.46 39.5001C111.067 39.5001 112.37 38.1972 112.37 36.5901C112.37 34.9829 111.067 33.6801 109.46 33.6801C107.853 33.6801 106.55 34.9829 106.55 36.5901C106.55 38.1972 107.853 39.5001 109.46 39.5001Z" fill="#001968"/>
<path d="M10.22 31.52C11.3356 31.52 12.24 30.6156 12.24 29.5C12.24 28.3844 11.3356 27.48 10.22 27.48C9.10434 27.48 8.19995 28.3844 8.19995 29.5C8.19995 30.6156 9.10434 31.52 10.22 31.52Z" fill="#001968"/>
<path d="M6.5301 15.13C7.31987 15.13 7.9601 14.4898 7.9601 13.7C7.9601 12.9103 7.31987 12.27 6.5301 12.27C5.74033 12.27 5.1001 12.9103 5.1001 13.7C5.1001 14.4898 5.74033 15.13 6.5301 15.13Z" fill="#001968"/>
<path d="M1.43 24.52C2.21977 24.52 2.86 23.8798 2.86 23.09C2.86 22.3003 2.21977 21.66 1.43 21.66C0.640233 21.66 0 22.3003 0 23.09C0 23.8798 0.640233 24.52 1.43 24.52Z" fill="#001968"/>
<path d="M19.2501 16.44C20.0398 16.44 20.6801 15.7997 20.6801 15.01C20.6801 14.2202 20.0398 13.58 19.2501 13.58C18.4603 13.58 17.8201 14.2202 17.8201 15.01C17.8201 15.7997 18.4603 16.44 19.2501 16.44Z" fill="#001968"/>
<path d="M19.72 24.87C20.5098 24.87 21.15 24.2298 21.15 23.44C21.15 22.6502 20.5098 22.01 19.72 22.01C18.9303 22.01 18.29 22.6502 18.29 23.44C18.29 24.2298 18.9303 24.87 19.72 24.87Z" fill="#001968"/>
<path d="M11.3499 23.8C12.9571 23.8 14.2599 22.4971 14.2599 20.89C14.2599 19.2828 12.9571 17.98 11.3499 17.98C9.74279 17.98 8.43994 19.2828 8.43994 20.89C8.43994 22.4971 9.74279 23.8 11.3499 23.8Z" fill="#001968"/>
</g>
<defs>
<clipPath id="clip0">
<rect width="139.61" height="81.3" fill="white"/>
</clipPath>
</defs>
</svg>
