<svg width="118" height="82" viewBox="0 0 118 82" fill="none" xmlns="http://www.w3.org/2000/svg">
<g clip-path="url(#clip0)">
<path d="M73.7199 52.55C76.6938 48.5418 79.2 44.207 81.1899 39.63C83.3058 34.8594 84.3666 29.6883 84.2999 24.47C84.2627 19.8649 83.0327 15.3481 80.7299 11.36C78.8573 8.30545 76.243 5.77373 73.1299 4C68.9599 1.68248 64.2802 0.435255 59.5099 0.369995C54.7371 0.411998 50.0485 1.63139 45.8599 3.92C42.7395 5.69003 40.1154 8.21786 38.2299 11.27C35.915 15.2525 34.6649 19.7641 34.5999 24.37C34.3199 31.77 36.9299 39.88 42.3499 48.47C45.555 53.463 49.239 58.1318 53.3499 62.41C53.3499 62.41 53.8399 62.82 53.7599 65.75C53.756 68.9326 53.5556 72.112 53.1599 75.27C53.1599 75.75 52.9199 75.88 52.6899 75.92L43.9999 75.27C43.0422 74.9129 41.992 74.8894 41.0192 75.2034C40.0465 75.5173 39.2082 76.1503 38.6399 77C35.5699 81.45 42.8799 80.84 42.8799 80.84H56.7299C57.6399 80.84 58.1599 79.97 58.2899 79.4C58.6132 77.696 58.8203 75.972 58.9099 74.24C58.9903 75.9718 59.1908 77.696 59.5099 79.4C59.6299 79.97 60.1499 80.9 61.0599 80.85H74.91C74.91 80.85 82.2199 81.49 79.1699 77.03C78.6017 76.1856 77.7673 75.5556 76.7996 75.2403C75.8319 74.925 74.7866 74.9425 73.8299 75.29L65.1199 76C64.8899 76 64.6999 75.83 64.6499 75.34C64.2718 72.231 64.0848 69.1018 64.0899 65.97V65.35V64.43C64.3826 63.734 64.7994 63.0969 65.3199 62.55C68.3464 59.4137 71.1531 56.0724 73.7199 52.55ZM60.1799 59.91L59.4099 60.65L58.2399 59.58C52.1699 53.42 39.5499 38.83 40.0899 24.58C40.7599 6.72999 56.3799 5.86 59.4999 5.86C62.6199 5.86 78.2099 6.80999 78.8099 24.66C79.0599 31.9 75.8099 40.42 69.2899 49.31C66.5315 53.0732 63.4857 56.6171 60.1799 59.91Z" fill="#001968"/>
<path d="M75.85 81.3C75.36 81.3 74.99 81.3 74.85 81.3H61.03C60.5583 81.2713 60.1106 81.082 59.7613 80.7637C59.412 80.4453 59.1822 80.0171 59.11 79.55C59.03 79.15 58.95 78.69 58.87 78.16C58.8 78.69 58.71 79.16 58.63 79.55C58.5677 80.0257 58.3365 80.4631 57.9785 80.7826C57.6205 81.102 57.1597 81.2821 56.68 81.29H42.88C42.49 81.29 38.74 81.58 37.75 79.86C37.3 79.08 37.49 78.07 38.33 76.86C38.9425 75.9571 39.8378 75.2833 40.8751 74.9448C41.9124 74.6063 43.0327 74.6222 44.06 74.99L52.72 75.64C52.72 75.64 52.72 75.64 52.79 75.32C53.1839 72.1719 53.3843 69.0026 53.39 65.83C53.46 63.29 53.1 62.83 53.08 62.76C48.9656 58.4631 45.2814 53.7742 42.08 48.76C36.57 40 34 31.84 34.23 24.35C34.2848 19.681 35.5566 15.1071 37.92 11.08C39.8299 7.96851 42.5004 5.39437 45.68 3.6C49.908 1.27746 54.6462 0.0404924 59.47 0V0C64.3197 0.045563 69.0809 1.30377 73.32 3.66C76.4903 5.46927 79.15 8.05318 81.05 11.17C83.3854 15.2125 84.6326 19.7915 84.67 24.46C84.7423 29.7303 83.671 34.9536 81.53 39.77C79.5344 44.3754 77.0181 48.7372 74.03 52.77C71.4516 56.2919 68.635 59.633 65.6 62.77C65.1379 63.258 64.7595 63.8188 64.48 64.43V65.3V65.95C64.4754 69.0583 64.6591 72.1639 65.03 75.25C65.03 75.57 65.14 75.58 65.19 75.59L73.76 75C74.7893 74.6394 75.9091 74.6303 76.9441 74.9741C77.9792 75.3179 78.871 75.9952 79.48 76.9C80.31 78.11 80.48 79.12 80.05 79.9C79.32 81.1 77.15 81.3 75.85 81.3ZM61 80.47H74.87C75.87 80.57 78.71 80.55 79.36 79.47C79.66 78.97 79.47 78.23 78.82 77.27C78.3 76.5154 77.5476 75.9516 76.6773 75.6646C75.8071 75.3775 74.8668 75.3829 74 75.68H73.89L65.17 76.29C64.9297 76.256 64.71 76.1359 64.5517 75.9519C64.3935 75.7679 64.3076 75.5327 64.31 75.29C63.9323 72.171 63.7452 69.0318 63.75 65.89V65.25V64.25C64.0525 63.5045 64.4975 62.8252 65.06 62.25C68.0751 59.14 70.8717 55.8255 73.43 52.33C76.3874 48.3451 78.8771 44.0334 80.85 39.48C82.9477 34.7611 83.9985 29.6437 83.93 24.48C83.8981 19.9389 82.6887 15.4838 80.42 11.55C78.5936 8.55208 76.0418 6.06222 73 4.31C68.871 2.01574 64.2333 0.791855 59.51 0.75C54.8159 0.787615 50.2046 1.99027 46.09 4.25C43.0202 5.98448 40.44 8.46843 38.59 11.47C36.2983 15.391 35.0615 19.8388 35 24.38C34.72 31.71 37.31 39.75 42.68 48.27C45.89 53.244 49.5738 57.8957 53.68 62.16C53.83 62.28 54.26 62.95 54.19 65.76C54.1886 68.9597 53.9849 72.1561 53.58 75.33C53.6006 75.5644 53.5316 75.798 53.3869 75.9836C53.2421 76.1692 53.0324 76.2929 52.8 76.33L43.89 75.66C43.0208 75.3264 42.0643 75.2971 41.1763 75.5768C40.2883 75.8564 39.5212 76.4286 39 77.2C38.34 78.2 38.15 78.89 38.45 79.4C39.09 80.51 41.88 80.53 42.9 80.4H56.73C57.48 80.4 57.86 79.56 57.92 79.24C58.2429 77.5595 58.4501 75.8589 58.54 74.15H59.28C59.3639 75.8612 59.561 77.5649 59.87 79.25C59.94 79.62 60.3 80.51 61 80.47ZM59.37 61.2L59.12 60.88L57.99 59.88C52.3 54.07 39.16 39.1 39.71 24.56C40.4 6.44 56.2 5.49 59.46 5.49C62.64 5.49 78.54 6.49 79.15 24.65C79.39 31.97 76.07 40.57 69.55 49.54C66.7816 53.3134 63.7259 56.8673 60.41 60.17L59.37 61.2ZM59.46 6.2C56.32 6.2 41.12 7.11 40.46 24.55C39.92 38.8 52.9 53.55 58.46 59.27L59.36 60.09L59.87 59.6C63.1821 56.3395 66.2347 52.8255 69 49.09C75.43 40.27 78.7 31.82 78.46 24.67C77.85 7.17 62.56 6.25 59.5 6.24L59.46 6.2Z" fill="#001968"/>
<path d="M59.35 36.98C66.3253 36.98 71.98 31.3253 71.98 24.35C71.98 17.3746 66.3253 11.72 59.35 11.72C52.3746 11.72 46.72 17.3746 46.72 24.35C46.72 31.3253 52.3746 36.98 59.35 36.98Z" fill="#FF6700"/>
<path d="M59.12 26.93C58.6496 26.9274 58.1994 26.7386 57.8678 26.4051C57.5361 26.0716 57.35 25.6203 57.35 25.15V17C57.3316 16.7557 57.3639 16.5102 57.4448 16.279C57.5257 16.0477 57.6534 15.8357 57.82 15.6561C57.9867 15.4765 58.1886 15.3332 58.4131 15.2352C58.6376 15.1372 58.88 15.0867 59.125 15.0867C59.37 15.0867 59.6123 15.1372 59.8368 15.2352C60.0614 15.3332 60.2633 15.4765 60.4299 15.6561C60.5965 15.8357 60.7243 16.0477 60.8052 16.279C60.886 16.5102 60.9183 16.7557 60.9 17V25.15C60.9 25.6221 60.7124 26.0748 60.3786 26.4086C60.0448 26.7425 59.5921 26.93 59.12 26.93Z" fill="#001968"/>
<path d="M59.12 34C58.6505 34 58.2003 33.8135 57.8684 33.4816C57.5365 33.1496 57.35 32.6994 57.35 32.23V31C57.3316 30.7557 57.3639 30.5102 57.4448 30.279C57.5257 30.0477 57.6534 29.8357 57.82 29.6561C57.9867 29.4765 58.1886 29.3332 58.4131 29.2352C58.6376 29.1372 58.88 29.0867 59.125 29.0867C59.37 29.0867 59.6123 29.1372 59.8368 29.2352C60.0614 29.3332 60.2633 29.4765 60.4299 29.6561C60.5965 29.8357 60.7243 30.0477 60.8052 30.279C60.886 30.5102 60.9183 30.7557 60.9 31V32.21C60.9013 32.4446 60.8562 32.6771 60.7674 32.8942C60.6785 33.1114 60.5476 33.3088 60.3822 33.4751C60.2168 33.6415 60.0201 33.7735 59.8035 33.8635C59.5869 33.9536 59.3546 34 59.12 34Z" fill="#001968"/>
<path d="M59 44.61C58.4862 44.6094 57.978 44.5034 57.5067 44.2988C57.0355 44.0941 56.6111 43.795 56.26 43.42C54.32 41.42 51.77 43.29 51.67 43.37C51.5263 43.4637 51.3522 43.4988 51.1835 43.468C51.0148 43.4372 50.8643 43.3429 50.763 43.2045C50.6618 43.066 50.6174 42.894 50.6392 42.7239C50.661 42.5538 50.7471 42.3985 50.88 42.29C52.11 41.4 55.01 40.29 57.21 42.48C58.99 44.26 61.15 42.53 61.47 42.25C62.0747 41.4973 62.951 41.0125 63.91 40.9C64.478 40.8875 65.0417 41.0012 65.5605 41.2329C66.0793 41.4646 66.5402 41.8086 66.91 42.24C67.0346 42.3646 67.1047 42.5337 67.1047 42.71C67.1047 42.8863 67.0346 43.0553 66.91 43.18C66.7853 43.3046 66.6163 43.3747 66.44 43.3747C66.2637 43.3747 66.0946 43.3046 65.97 43.18C65.7292 42.8781 65.4255 42.6323 65.0801 42.4596C64.7348 42.2869 64.3559 42.1915 63.97 42.18C63.3674 42.2694 62.8228 42.5883 62.45 43.07L62.36 43.16C61.4457 44.024 60.2558 44.5375 59 44.61Z" fill="#001968"/>
<path d="M104.4 31.15C103.28 31.1977 102.181 30.8429 101.3 30.15C100.972 29.8422 100.713 29.4681 100.541 29.0526C100.368 28.6371 100.286 28.1896 100.3 27.74C100.27 27.2162 100.362 26.6927 100.569 26.2104C100.775 25.7281 101.091 25.3001 101.49 24.96C101.933 24.6363 102.437 24.4072 102.972 24.2868C103.507 24.1663 104.061 24.1572 104.6 24.26C104.991 24.3355 105.336 24.5634 105.56 24.8935C105.783 25.2236 105.866 25.6288 105.79 26.02C105.714 26.4111 105.487 26.7563 105.156 26.9795C104.826 27.2026 104.421 27.2855 104.03 27.21C103.814 27.1695 103.592 27.1939 103.39 27.28C103.39 27.28 103.3 27.42 103.3 27.74C103.3 27.89 103.3 27.92 103.3 27.93C103.689 28.137 104.131 28.224 104.57 28.18H104.75C105.7 28.2181 106.632 27.9168 107.38 27.33C107.581 27.1214 107.735 26.8729 107.833 26.6007C107.932 26.3285 107.971 26.0386 107.95 25.75C107.983 25.3683 107.938 24.9839 107.815 24.6208C107.693 24.2577 107.497 23.9238 107.24 23.64C106.623 23.159 105.85 22.9238 105.07 22.98H92C91.6022 22.98 91.2206 22.8219 90.9393 22.5406C90.658 22.2593 90.5 21.8778 90.5 21.48C90.5 21.0821 90.658 20.7006 90.9393 20.4193C91.2206 20.138 91.6022 19.98 92 19.98H104.9C106.486 19.8779 108.051 20.3899 109.27 21.41C109.848 21.9688 110.3 22.6458 110.593 23.3947C110.886 24.1436 111.015 24.9469 110.97 25.75C110.996 26.4442 110.877 27.1363 110.62 27.7819C110.364 28.4276 109.975 29.0127 109.48 29.5C108.169 30.6313 106.481 31.2307 104.75 31.18L104.4 31.15Z" fill="#001968"/>
<path d="M111.35 17.41H99.2C98.8021 17.41 98.4206 17.252 98.1393 16.9707C97.858 16.6894 97.7 16.3078 97.7 15.91C97.7 15.5122 97.858 15.1306 98.1393 14.8493C98.4206 14.568 98.8021 14.41 99.2 14.41H111.2C111.98 14.454 112.75 14.2162 113.37 13.74C113.628 13.4587 113.825 13.1266 113.947 12.765C114.069 12.4034 114.114 12.0202 114.08 11.64C114.1 11.3477 114.058 11.0544 113.958 10.7789C113.859 10.5035 113.702 10.2518 113.5 10.04C112.739 9.47986 111.815 9.18478 110.87 9.2H110.69C110.254 9.15734 109.816 9.24432 109.43 9.45C109.43 9.45 109.43 9.45 109.43 9.64C109.414 9.79778 109.441 9.95698 109.51 10.1C109.709 10.1809 109.927 10.2085 110.14 10.18C110.336 10.1345 110.538 10.1288 110.736 10.1631C110.934 10.1975 111.123 10.2712 111.292 10.3799C111.461 10.4887 111.606 10.6302 111.719 10.7961C111.832 10.9621 111.911 11.149 111.95 11.3459C111.99 11.5428 111.989 11.7456 111.949 11.9423C111.909 12.1391 111.829 12.3257 111.715 12.4911C111.602 12.6566 111.456 12.7975 111.286 12.9055C111.117 13.0136 110.928 13.0865 110.73 13.12C110.19 13.2206 109.634 13.2104 109.098 13.0901C108.562 12.9698 108.056 12.7418 107.61 12.42C107.212 12.0788 106.899 11.6504 106.694 11.1682C106.49 10.686 106.399 10.163 106.43 9.64C106.416 9.19183 106.498 8.7459 106.671 8.33201C106.843 7.91813 107.102 7.54582 107.43 7.24C108.408 6.47366 109.644 6.11532 110.88 6.24C112.608 6.19081 114.292 6.79012 115.6 7.92C116.094 8.41045 116.483 8.99731 116.741 9.64413C116.999 10.291 117.121 10.9839 117.1 11.68C117.143 12.4813 117.013 13.2825 116.72 14.0295C116.427 14.7765 115.977 15.4518 115.4 16.01C114.268 16.9593 112.826 17.4578 111.35 17.41Z" fill="#001968"/>
<path d="M15.37 53.14H14.97H1.5C1.10218 53.14 0.720644 52.9819 0.43934 52.7006C0.158035 52.4193 0 52.0378 0 51.64C0 51.2421 0.158035 50.8606 0.43934 50.5793C0.720644 50.298 1.10218 50.14 1.5 50.14H15.17C16.1342 50.1959 17.0862 49.9011 17.85 49.31C18.1742 48.962 18.4218 48.55 18.5768 48.1004C18.7319 47.6508 18.7909 47.1737 18.75 46.7C18.7725 46.3335 18.7183 45.9663 18.5909 45.6219C18.4635 45.2775 18.2657 44.9635 18.01 44.7C17.0853 44.0105 15.9527 43.6577 14.8 43.7H14.61C14.0555 43.6391 13.4954 43.7435 13 44C13 44 12.88 44.12 12.88 44.4C12.848 44.6509 12.9124 44.9046 13.06 45.11C13.3668 45.2724 13.7219 45.3186 14.06 45.24C14.449 45.1751 14.848 45.2641 15.1727 45.488C15.4974 45.7119 15.7223 46.0533 15.8 46.44C15.8738 46.8268 15.7924 47.2272 15.5735 47.5547C15.3546 47.8821 15.0157 48.1103 14.63 48.19C14.0383 48.3048 13.4293 48.2967 12.8409 48.1659C12.2525 48.0351 11.6973 47.7846 11.21 47.43C10.7828 47.06 10.4455 46.5975 10.2237 46.0777C10.0019 45.5579 9.90145 44.9944 9.93 44.43C9.90442 43.934 9.98685 43.4384 10.1716 42.9774C10.3563 42.5164 10.639 42.101 11 41.76C12.0886 40.9141 13.4565 40.5105 14.83 40.63C16.7718 40.5772 18.664 41.2471 20.14 42.51C20.6891 43.0552 21.1199 43.7078 21.4055 44.427C21.6911 45.1462 21.8254 45.9165 21.8 46.69C21.8505 47.5851 21.7079 48.4806 21.3818 49.3157C21.0557 50.1508 20.5537 50.906 19.91 51.53C18.6448 52.6042 17.0294 53.1771 15.37 53.14Z" fill="#001968"/>
<path d="M16.03 16.09C17.1456 16.09 18.05 15.1857 18.05 14.07C18.05 12.9544 17.1456 12.05 16.03 12.05C14.9144 12.05 14.01 12.9544 14.01 14.07C14.01 15.1857 14.9144 16.09 16.03 16.09Z" fill="#001968"/>
<path d="M19.47 28.69C20.2598 28.69 20.9 28.0497 20.9 27.26C20.9 26.4702 20.2598 25.83 19.47 25.83C18.6803 25.83 18.04 26.4702 18.04 27.26C18.04 28.0497 18.6803 28.69 19.47 28.69Z" fill="#001968"/>
<path d="M24.1099 21.2C24.8997 21.2 25.5399 20.5597 25.5399 19.77C25.5399 18.9802 24.8997 18.34 24.1099 18.34C23.3202 18.34 22.6799 18.9802 22.6799 19.77C22.6799 20.5597 23.3202 21.2 24.1099 21.2Z" fill="#001968"/>
<path d="M11.63 25.1199C13.3366 25.1199 14.72 23.7365 14.72 22.0299C14.72 20.3234 13.3366 18.9399 11.63 18.9399C9.92348 18.9399 8.54004 20.3234 8.54004 22.0299C8.54004 23.7365 9.92348 25.1199 11.63 25.1199Z" fill="#001968"/>
<path d="M95.99 64.09C97.1056 64.09 98.01 63.1857 98.01 62.07C98.01 60.9544 97.1056 60.05 95.99 60.05C94.8744 60.05 93.97 60.9544 93.97 62.07C93.97 63.1857 94.8744 64.09 95.99 64.09Z" fill="#001968"/>
<path d="M92.3099 47.7C93.0997 47.7 93.7399 47.0597 93.7399 46.27C93.7399 45.4802 93.0997 44.84 92.3099 44.84C91.5201 44.84 90.8799 45.4802 90.8799 46.27C90.8799 47.0597 91.5201 47.7 92.3099 47.7Z" fill="#001968"/>
<path d="M87.2 57.08C87.9898 57.08 88.63 56.4397 88.63 55.65C88.63 54.8602 87.9898 54.22 87.2 54.22C86.4103 54.22 85.77 54.8602 85.77 55.65C85.77 56.4397 86.4103 57.08 87.2 57.08Z" fill="#001968"/>
<path d="M105.02 49.01C105.81 49.01 106.45 48.3698 106.45 47.58C106.45 46.7903 105.81 46.15 105.02 46.15C104.23 46.15 103.59 46.7903 103.59 47.58C103.59 48.3698 104.23 49.01 105.02 49.01Z" fill="#001968"/>
<path d="M105.49 57.44C106.28 57.44 106.92 56.7997 106.92 56.01C106.92 55.2202 106.28 54.58 105.49 54.58C104.7 54.58 104.06 55.2202 104.06 56.01C104.06 56.7997 104.7 57.44 105.49 57.44Z" fill="#001968"/>
<path d="M97.12 56.37C98.7271 56.37 100.03 55.0672 100.03 53.46C100.03 51.8529 98.7271 50.55 97.12 50.55C95.5128 50.55 94.21 51.8529 94.21 53.46C94.21 55.0672 95.5128 56.37 97.12 56.37Z" fill="#001968"/>
</g>
<defs>
<clipPath id="clip0">
<rect width="117.07" height="81.3" fill="white"/>
</clipPath>
</defs>
</svg>
