<svg width="138" height="159" viewBox="0 0 138 159" fill="none" xmlns="http://www.w3.org/2000/svg">
<g clip-path="url(#clip0)">
<path d="M94.7701 110.27C97.3166 106.84 99.4606 103.129 101.16 99.21C102.977 95.12 103.884 90.6847 103.82 86.21C103.789 82.2712 102.735 78.4082 100.76 75C99.1654 72.3755 96.9284 70.2004 94.2601 68.68C90.697 66.6709 86.6757 65.6152 82.5851 65.6152C78.4946 65.6152 74.4733 66.6709 70.9101 68.68C68.2387 70.1936 65.9927 72.3571 64.3801 74.97C62.3933 78.3792 61.3219 82.2444 61.2701 86.19C61.0301 92.53 63.2701 99.47 67.9001 106.83C70.6525 111.101 73.8105 115.096 77.3301 118.76C77.3301 118.76 77.7401 119.11 77.6801 121.62C77.6739 124.345 77.5002 127.067 77.1601 129.77C77.1601 130.18 76.9601 130.3 76.7601 130.33L69.3001 129.77C68.4837 129.468 67.5898 129.449 66.7613 129.716C65.9328 129.982 65.2176 130.519 64.7301 131.24C62.1001 135.04 68.3601 134.52 68.3601 134.52H80.2201C80.9901 134.52 81.4501 133.78 81.5501 133.28C81.8324 131.825 82.0095 130.351 82.0801 128.87C82.1495 130.354 82.3232 131.831 82.6001 133.29C82.7001 133.78 83.1501 134.57 83.9301 134.53H95.7801C95.7801 134.53 102.04 135.08 99.4301 131.26C98.9454 130.536 98.2315 129.995 97.4028 129.725C96.5741 129.454 95.6787 129.47 94.8601 129.77L87.4001 130.3C87.2101 130.3 87.0401 130.15 87.0001 129.74C86.6787 127.085 86.5184 124.414 86.5201 121.74V121.21V120.42C86.7552 119.828 87.0938 119.283 87.5201 118.81C90.1297 116.133 92.552 113.279 94.7701 110.27ZM83.1701 116.58L82.5101 117.21L81.5101 116.29C76.3201 111.01 65.5101 98.52 65.9701 86.29C66.5501 71.01 79.9101 70.29 82.5901 70.29C85.2701 70.29 98.5901 71.1 99.1301 86.38C99.3301 92.58 96.5101 99.88 90.9701 107.5C88.6065 110.722 85.9989 113.758 83.1701 116.58Z" fill="#001968"/>
<path d="M96.5799 135C96.1599 135 95.8499 135 95.7499 135H83.9299C83.5117 134.981 83.1131 134.817 82.8028 134.536C82.4925 134.255 82.2899 133.874 82.2299 133.46C82.1766 133.213 82.1266 132.933 82.0799 132.62C82.0799 132.93 81.9699 133.21 81.9199 133.46C81.8482 133.872 81.6392 134.247 81.3268 134.525C81.0145 134.803 80.6173 134.967 80.1999 134.99H68.3599C68.0199 134.99 64.7799 135.24 63.9199 133.74C63.5199 133.06 63.6899 132.17 64.4199 131.11C64.9545 130.322 65.7364 129.735 66.6419 129.442C67.5475 129.149 68.525 129.166 69.4199 129.49L76.8199 130.05C76.8199 130.05 76.8199 129.99 76.8199 129.82C77.1577 127.126 77.328 124.415 77.3299 121.7C77.3899 119.56 77.0899 119.12 77.0799 119.1C73.5399 115.418 70.3681 111.399 67.6099 107.1C62.9299 99.68 60.6799 92.66 60.9299 86.24C60.978 82.2336 62.067 78.3085 64.0899 74.85C65.7387 72.1811 68.0324 69.9699 70.7599 68.42C74.3921 66.4325 78.4596 65.3744 82.5999 65.34C86.7497 65.384 90.8228 66.4633 94.4499 68.48C97.1712 70.0328 99.4527 72.2524 101.08 74.93C103.088 78.3962 104.163 82.3241 104.2 86.33C104.26 90.8537 103.339 95.3367 101.5 99.47C99.7909 103.414 97.6333 107.149 95.0699 110.6C92.863 113.619 90.4506 116.483 87.8499 119.17C87.4564 119.574 87.1381 120.044 86.9099 120.56V121.3V121.86C86.908 124.517 87.065 127.172 87.3799 129.81C87.3803 129.894 87.4009 129.976 87.4399 130.05L94.7999 129.52C95.6913 129.209 96.6606 129.202 97.5562 129.501C98.4518 129.799 99.2233 130.386 99.7499 131.17C100.47 132.23 100.64 133.11 100.24 133.8C99.5899 134.78 97.7099 135 96.5799 135ZM83.9099 134.18H95.7799C96.6299 134.25 99.0499 134.24 99.5799 133.32C99.8199 132.91 99.6699 132.32 99.1199 131.49C98.6874 130.832 98.0449 130.339 97.2969 130.092C96.5489 129.845 95.7393 129.858 94.9999 130.13H94.8899L87.4299 130.66C87.2071 130.64 87.0005 130.535 86.8519 130.368C86.7033 130.201 86.6239 129.984 86.6299 129.76C86.311 127.105 86.1507 124.434 86.1499 121.76V121.2V120.39V120.34C86.416 119.679 86.8064 119.074 87.2999 118.56C89.878 115.897 92.2703 113.06 94.4599 110.07C96.9891 106.659 99.1165 102.968 100.8 99.07C102.595 95.0409 103.496 90.6706 103.44 86.26C103.402 82.3964 102.369 78.6079 100.44 75.26C98.8866 72.6631 96.6934 70.5078 94.0699 69C90.5549 67.0632 86.613 66.0322 82.5999 66C78.5745 66.0114 74.6178 67.0435 71.0999 69C68.4809 70.4847 66.2794 72.607 64.6999 75.17C62.7529 78.5128 61.7023 82.3018 61.6499 86.17C61.4099 92.43 63.6499 99.31 68.2199 106.6C70.9557 110.85 74.097 114.826 77.5999 118.47C77.7699 118.62 78.1099 119.26 78.0499 121.6C78.0519 124.342 77.8782 127.081 77.5299 129.8C77.5376 130.007 77.4697 130.209 77.339 130.369C77.2083 130.529 77.0238 130.636 76.8199 130.67L69.1599 130.09C68.4197 129.804 67.6043 129.78 66.8481 130.019C66.0919 130.259 65.44 130.75 64.9999 131.41C64.4399 132.21 64.2899 132.82 64.5299 133.24C65.0599 134.16 67.5299 134.18 68.2899 134.11H80.2199C80.7799 134.17 81.1199 133.49 81.2199 133.11C81.4892 131.673 81.6629 130.22 81.7399 128.76H82.4899C82.5594 130.223 82.7265 131.679 82.9899 133.12C82.9999 133.5 83.3499 134.15 83.9099 134.13V134.18ZM82.4799 117.82L82.2199 117.5L81.2199 116.61C76.3399 111.61 65.0799 98.83 65.5499 86.36C66.1399 70.79 79.7099 69.98 82.5499 69.98C85.2799 69.98 98.9399 70.8 99.4599 86.43C99.6699 92.71 96.8299 100.1 91.2299 107.78C88.8591 111.014 86.2412 114.06 83.3999 116.89L82.4799 117.82ZM82.5599 70.73C79.8799 70.73 66.9099 71.51 66.3399 86.39C65.8799 98.52 76.9999 111.16 81.7799 116L82.5099 116.67L82.9099 116.28C85.7225 113.482 88.3167 110.474 90.6699 107.28C96.1599 99.73 98.9599 92.51 98.7499 86.4C98.2499 71.46 85.1999 70.67 82.5899 70.67L82.5599 70.73Z" fill="#001968"/>
<path d="M103.7 45.59C103.198 45.5918 102.713 45.4046 102.343 45.0656C101.972 44.7265 101.743 44.2605 101.7 43.76L101.34 39.39C101.319 39.1274 101.35 38.8632 101.431 38.6125C101.512 38.3618 101.642 38.1295 101.813 37.9289C101.983 37.7284 102.192 37.5634 102.427 37.4435C102.661 37.3236 102.917 37.251 103.18 37.23C103.443 37.209 103.707 37.2399 103.957 37.321C104.208 37.4021 104.44 37.5318 104.641 37.7027C104.842 37.8735 105.007 38.0822 105.126 38.3168C105.246 38.5514 105.319 38.8074 105.34 39.07L105.69 43.43C105.712 43.6921 105.682 43.9558 105.602 44.2063C105.522 44.4567 105.393 44.6889 105.223 44.8895C105.053 45.0901 104.845 45.2553 104.611 45.3755C104.377 45.4957 104.122 45.5686 103.86 45.59H103.7Z" fill="#001968"/>
<path d="M104.07 106.63C102.15 106.728 100.263 106.103 98.7817 104.877C97.3005 103.651 96.3329 101.914 96.0701 100.01C96.0359 99.7473 96.0538 99.4805 96.1228 99.2248C96.1918 98.9691 96.3104 98.7295 96.472 98.5196C96.7983 98.0958 97.2796 97.8189 97.8101 97.75C98.3405 97.681 98.8766 97.8256 99.3004 98.1519C99.7243 98.4782 100.001 98.9595 100.07 99.49C100.19 100.3 100.89 102.9 104.71 102.61C105.204 102.607 105.692 102.502 106.143 102.301C106.594 102.099 106.998 101.806 107.33 101.44C108.022 100.438 108.334 99.2216 108.21 98.01L103.55 59.89C103.485 59.3595 103.633 58.825 103.963 58.404C104.292 57.983 104.775 57.7099 105.305 57.645C105.835 57.58 106.37 57.7284 106.791 58.0575C107.212 58.3866 107.485 58.8695 107.55 59.4L112.22 97.54C112.463 99.8238 111.838 102.115 110.47 103.96C109.799 104.748 108.972 105.389 108.041 105.842C107.11 106.295 106.095 106.549 105.06 106.59C104.7 106.62 104.38 106.63 104.07 106.63Z" fill="#001968"/>
<path d="M103.73 42.3699C86.3001 43.7899 73.0001 55.8399 74.0901 69.2299C74.1276 69.6712 74.3292 70.0823 74.655 70.3822C74.9808 70.6821 75.4072 70.849 75.8501 70.8499H76.0001H76.1801C76.6004 70.8149 76.9942 70.63 77.2897 70.329C77.5852 70.028 77.7628 69.6308 77.7901 69.2099C78.0001 65.9999 81.3001 63.2999 85.4501 62.9999C89.6001 62.6999 93.2901 64.7699 94.0301 67.9099C94.1391 68.3235 94.3902 68.6855 94.7395 68.9324C95.0888 69.1792 95.5138 69.2952 95.9401 69.2599C96.3604 69.2249 96.7542 69.04 97.0497 68.739C97.3452 68.438 97.5228 68.0409 97.5501 67.6199C97.7701 64.4099 101.06 61.7299 105.22 61.3899C109.38 61.0499 113.06 63.1599 113.8 66.2999C113.897 66.7113 114.137 67.0746 114.478 67.324C114.82 67.5735 115.239 67.6926 115.66 67.6599H115.81C116.234 67.6264 116.632 67.4393 116.928 67.1337C117.225 66.8282 117.4 66.4251 117.42 65.9999C117.64 62.7799 120.94 60.0999 125.09 59.7599C129.24 59.4199 132.94 61.5399 133.67 64.6799C133.775 65.0839 134.019 65.4379 134.359 65.6794C134.699 65.921 135.114 66.0345 135.53 65.9999H135.71C136.174 65.9617 136.603 65.7414 136.905 65.3872C137.207 65.033 137.356 64.5738 137.32 64.1099C136.23 50.6899 121.16 40.9999 103.73 42.3699Z" fill="#FF0B0B"/>
<path d="M82.0501 97.37C88.5339 97.37 93.7901 92.1138 93.7901 85.63C93.7901 79.1462 88.5339 73.89 82.0501 73.89C75.5662 73.89 70.3101 79.1462 70.3101 85.63C70.3101 92.1138 75.5662 97.37 82.0501 97.37Z" fill="#FF0B0B"/>
<path d="M85.12 85.62L87.81 83C88.2158 82.6022 88.4469 82.0595 88.4525 81.4912C88.4582 80.923 88.2378 80.3758 87.84 79.97C87.4422 79.5642 86.8995 79.3331 86.3312 79.3275C85.763 79.3219 85.2158 79.5422 84.81 79.94L82.06 82.65L79.31 79.94C78.9042 79.5422 78.357 79.3219 77.7888 79.3275C77.2206 79.3331 76.6778 79.5642 76.28 79.97C75.8822 80.3758 75.6619 80.923 75.6675 81.4912C75.6731 82.0595 75.9042 82.6022 76.31 83L79 85.62L76.31 88.28C76.0828 88.4695 75.8975 88.7043 75.766 88.9694C75.6345 89.2345 75.5597 89.5241 75.5464 89.8197C75.533 90.1153 75.5814 90.4105 75.6884 90.6863C75.7955 90.9622 75.9588 91.2128 76.168 91.422C76.3773 91.6312 76.6278 91.7946 76.9037 91.9016C77.1796 92.0087 77.4747 92.057 77.7703 92.0437C78.0659 92.0303 78.3555 91.9555 78.6206 91.824C78.8857 91.6926 79.1205 91.5073 79.31 91.28L82.06 88.57L84.81 91.28C84.9953 91.5221 85.2301 91.7219 85.4989 91.8658C85.7676 92.0098 86.064 92.0947 86.3681 92.1149C86.6723 92.135 86.9773 92.0899 87.2627 91.9826C87.548 91.8753 87.8072 91.7083 88.0227 91.4927C88.2383 91.2772 88.4053 91.018 88.5126 90.7327C88.6199 90.4473 88.665 90.1423 88.6448 89.8381C88.6247 89.534 88.5398 89.2376 88.3958 88.9689C88.2519 88.7001 88.0521 88.4653 87.81 88.28L85.12 85.62Z" fill="white"/>
<path d="M83.4201 100.74C85.2095 100.977 86.8931 101.723 88.2701 102.89C88.4116 103.012 88.5009 103.184 88.5195 103.37C88.5382 103.556 88.4847 103.742 88.3701 103.89C88.2507 104.035 88.0793 104.128 87.8925 104.149C87.7056 104.169 87.5181 104.116 87.3701 104C86.0501 102.86 84.3839 102.199 82.6414 102.125C80.8989 102.05 79.1824 102.567 77.7701 103.59C77.6187 103.701 77.4303 103.75 77.244 103.725C77.0578 103.701 76.888 103.606 76.7701 103.46C76.6565 103.309 76.6065 103.12 76.6308 102.933C76.6551 102.746 76.7518 102.576 76.9001 102.46C78.8012 101.133 81.1116 100.523 83.4201 100.74Z" fill="#001968"/>
<path d="M33.84 75.65C33.5648 75.6491 33.2951 75.573 33.06 75.43C32.8918 75.3276 32.7456 75.1928 32.6298 75.0336C32.5141 74.8743 32.431 74.6937 32.3854 74.5022C32.3399 74.3106 32.3327 74.1119 32.3644 73.9176C32.3961 73.7233 32.466 73.5371 32.57 73.37L37.23 65.73C37.3331 65.5619 37.4683 65.4157 37.6279 65.2999C37.7874 65.184 37.9682 65.1008 38.16 65.0548C38.3517 65.0088 38.5507 65.0011 38.7454 65.032C38.9402 65.0629 39.1269 65.1319 39.295 65.235C39.4631 65.3381 39.6092 65.4732 39.7251 65.6328C39.8409 65.7924 39.9242 65.9732 39.9702 66.165C40.0162 66.3567 40.0239 66.5556 39.993 66.7504C39.9621 66.9451 39.8931 67.1319 39.79 67.3L35.13 74.93C34.9954 75.1511 34.8058 75.3336 34.5798 75.4598C34.3537 75.586 34.0989 75.6515 33.84 75.65Z" fill="#001968"/>
<path d="M21.2501 79.9999C20.9788 80.0039 20.7119 79.9311 20.4801 79.7899C20.1543 79.5783 19.9226 79.2492 19.8332 78.8711C19.7439 78.4931 19.8036 78.0951 20.0001 77.7599L27.2201 65.7599C27.3219 65.5912 27.4559 65.4441 27.6145 65.3272C27.7731 65.2102 27.9532 65.1256 28.1445 65.0783C28.3358 65.0309 28.5345 65.0217 28.7294 65.0512C28.9242 65.0806 29.1114 65.1481 29.2801 65.2499C29.4489 65.3517 29.5959 65.4857 29.7129 65.6443C29.8298 65.8029 29.9144 65.983 29.9618 66.1743C30.0091 66.3656 30.0183 66.5643 29.9889 66.7592C29.9594 66.954 29.8919 67.1412 29.7901 67.3099L22.5801 79.3099C22.4376 79.5307 22.24 79.7105 22.0067 79.8315C21.7735 79.9525 21.5127 80.0106 21.2501 79.9999Z" fill="#001968"/>
<path d="M13.1999 75.65C12.9338 75.6497 12.6725 75.5787 12.4428 75.4442C12.2132 75.3096 12.0235 75.1164 11.8932 74.8843C11.7629 74.6522 11.6967 74.3896 11.7014 74.1235C11.7061 73.8574 11.7815 73.5973 11.9199 73.37L16.5899 65.73C16.693 65.5619 16.8282 65.4157 16.9878 65.2999C17.1473 65.184 17.3282 65.1008 17.5199 65.0548C17.7117 65.0088 17.9106 65.0011 18.1053 65.032C18.3001 65.0629 18.4868 65.1319 18.6549 65.235C18.823 65.3381 18.9692 65.4732 19.085 65.6328C19.2009 65.7924 19.2841 65.9732 19.3301 66.165C19.3761 66.3567 19.3838 66.5556 19.3529 66.7504C19.322 66.9451 19.253 67.1319 19.1499 67.3L14.4799 74.93C14.3484 75.1517 14.1609 75.3349 13.9363 75.4613C13.7116 75.5876 13.4577 75.6527 13.1999 75.65Z" fill="#001968"/>
<path d="M37.8499 60.6899C37.0999 60.6899 36.5699 60.6899 36.3799 60.6899H16.7799C12.7799 60.3099 5.23991 57.1899 5.23991 48.1699C5.19214 46.8048 5.42884 45.4446 5.93497 44.1758C6.44111 42.907 7.20561 41.7574 8.17991 40.7999C11.2699 37.7999 15.9399 37.1999 18.1799 37.0799C19.3799 32.9399 23.1799 26.7299 30.9499 26.7299C33.7601 26.636 36.5106 27.5546 38.7003 29.3185C40.89 31.0824 42.3733 33.5742 42.8799 36.3399C45.6299 37.1499 52.5499 40.1299 52.5499 49.7299C52.603 51.1158 52.3551 52.4967 51.8234 53.7776C51.2917 55.0585 50.4888 56.209 49.4699 57.1499C45.9999 60.2699 40.5099 60.6899 37.8499 60.6899ZM16.9999 57.6399H36.5699C36.6399 57.6399 43.7799 58.2099 47.4199 54.8599C48.1265 54.1976 48.6803 53.3894 49.043 52.4914C49.4056 51.5934 49.5684 50.6272 49.5199 49.6599C49.5199 40.3099 41.6499 39.0299 41.3099 38.9799C40.9749 38.9394 40.6634 38.787 40.4257 38.5475C40.188 38.3079 40.038 37.9953 39.9999 37.6599C39.9999 37.3399 38.9999 29.6599 30.8799 29.6599C22.5999 29.6599 20.8799 38.3899 20.7599 38.7699C20.6966 39.116 20.5137 39.4287 20.2432 39.6536C19.9726 39.8784 19.6317 40.001 19.2799 39.9999C19.2199 39.9999 13.4199 39.8599 10.2799 42.9199C9.60085 43.5982 9.07191 44.4116 8.72737 45.3074C8.38283 46.2032 8.23038 47.1614 8.27991 48.1199C8.23991 56.3999 16.1399 57.5399 16.9999 57.6399Z" fill="#001968"/>
<path d="M52.8399 33C52.3921 32.9984 51.9448 32.9717 51.4999 32.92C49.3877 32.6584 47.4004 31.7763 45.7896 30.3852C44.1787 28.9941 43.0166 27.1565 42.4502 25.1049C41.8838 23.0532 41.9386 20.8797 42.6077 18.8592C43.2768 16.8387 44.53 15.062 46.2089 13.7539C47.8878 12.4457 49.917 11.6648 52.0398 11.5101C54.1625 11.3553 56.2835 11.8335 58.1344 12.8843C59.9853 13.9351 61.483 15.5112 62.4381 17.4132C63.3932 19.3153 63.7627 21.4579 63.4999 23.57C63.1719 26.1686 61.9091 28.5589 59.9473 30.2943C57.9856 32.0297 55.4591 32.9915 52.8399 33ZM52.8399 14.47C51.347 14.4721 49.8864 14.9048 48.6332 15.7162C47.38 16.5276 46.3875 17.6833 45.7747 19.0447C45.1619 20.406 44.9548 21.9153 45.1782 23.3914C45.4016 24.8675 46.0461 26.2478 47.0344 27.3668C48.0227 28.4858 49.3127 29.296 50.7499 29.7002C52.1871 30.1044 53.7103 30.0854 55.137 29.6456C56.5637 29.2057 57.8332 28.3637 58.7933 27.2204C59.7534 26.0772 60.3633 24.6812 60.5499 23.2C60.8018 21.1572 60.234 19.0979 58.9707 17.4729C57.7075 15.8479 55.8518 14.7897 53.8099 14.53C53.4817 14.4862 53.1511 14.4628 52.8199 14.46L52.8399 14.47Z" fill="#001968"/>
<path d="M59.0599 11.65C58.8009 11.6486 58.5465 11.5806 58.3213 11.4525C58.0961 11.3245 57.9077 11.1406 57.7741 10.9186C57.6405 10.6966 57.5663 10.444 57.5585 10.1851C57.5508 9.92612 57.6098 9.66953 57.7299 9.43998L62.3599 0.789978C62.4485 0.608477 62.5728 0.446734 62.7254 0.314446C62.878 0.182158 63.0558 0.0820502 63.248 0.0201254C63.4403 -0.0417995 63.643 -0.0642661 63.8442 -0.0459273C64.0453 -0.0275885 64.2406 0.0311779 64.4185 0.126848C64.5964 0.222519 64.7531 0.353122 64.8793 0.510829C65.0054 0.668535 65.0984 0.850095 65.1527 1.04462C65.207 1.23915 65.2215 1.44264 65.1952 1.64289C65.169 1.84314 65.1025 2.03602 64.9999 2.20998L60.3799 10.85C60.2531 11.0904 60.0632 11.2919 59.8307 11.4328C59.5982 11.5737 59.3318 11.6488 59.0599 11.65Z" fill="#001968"/>
<path d="M40.9999 17.13C40.7396 17.1324 40.4836 17.0633 40.2599 16.93L31.3899 11.93C31.2172 11.8322 31.0655 11.7013 30.9434 11.5448C30.8213 11.3883 30.7312 11.2094 30.6783 11.0181C30.6253 10.8268 30.6106 10.6269 30.6349 10.43C30.6592 10.233 30.7221 10.0427 30.8199 9.87001C30.9177 9.69732 31.0486 9.5456 31.2051 9.42349C31.3616 9.30139 31.5406 9.2113 31.7319 9.15837C31.9231 9.10544 32.123 9.09071 32.32 9.11501C32.517 9.13931 32.7072 9.20218 32.8799 9.30001L41.7499 14.3C42.0356 14.4645 42.2592 14.7185 42.3861 15.0227C42.513 15.327 42.5361 15.6646 42.4518 15.9833C42.3676 16.302 42.1807 16.5841 41.9201 16.786C41.6594 16.9878 41.3396 17.0982 41.0099 17.1L40.9999 17.13Z" fill="#001968"/>
<path d="M73.7901 36C73.5344 36.0012 73.2827 35.9357 73.0601 35.81L65.3101 31.49C64.9626 31.295 64.7069 30.9701 64.599 30.5866C64.5457 30.3967 64.5302 30.1981 64.5535 30.0022C64.5769 29.8064 64.6386 29.617 64.7351 29.445C64.8316 29.2729 64.9611 29.1216 65.1161 28.9996C65.2711 28.8776 65.4486 28.7873 65.6385 28.7339C66.022 28.6261 66.4326 28.675 66.7801 28.87L74.5201 33.19C74.8101 33.3517 75.0382 33.6051 75.1687 33.9104C75.2992 34.2158 75.3247 34.5557 75.2412 34.8771C75.1577 35.1985 74.9699 35.4831 74.7073 35.6863C74.4447 35.8895 74.1221 35.9998 73.7901 36Z" fill="#001968"/>
<path d="M66.6001 20.9C66.2497 20.9003 65.9102 20.778 65.6405 20.5541C65.3709 20.3303 65.1881 20.0191 65.124 19.6746C65.0598 19.33 65.1183 18.9739 65.2893 18.668C65.4603 18.3622 65.733 18.1258 66.0601 18L70.0601 16.43C70.244 16.3584 70.4401 16.3237 70.6374 16.328C70.8346 16.3322 71.0291 16.3753 71.2097 16.4547C71.3903 16.534 71.5535 16.6482 71.69 16.7907C71.8265 16.9332 71.9335 17.1011 72.0051 17.285C72.0767 17.4688 72.1113 17.665 72.1071 17.8622C72.1029 18.0595 72.0598 18.2539 71.9804 18.4346C71.901 18.6152 71.7869 18.7784 71.6444 18.9148C71.5019 19.0513 71.334 19.1584 71.1501 19.23L67.1501 20.79C66.9751 20.86 66.7886 20.8973 66.6001 20.9Z" fill="#001968"/>
<path d="M49.1999 10.8299C48.8904 10.8291 48.5888 10.7325 48.3364 10.5535C48.0839 10.3744 47.893 10.1217 47.7899 9.82993L46.3099 5.82993C46.2096 5.46451 46.2512 5.07466 46.4266 4.73872C46.6019 4.40278 46.8979 4.14565 47.255 4.019C47.6122 3.89235 48.004 3.90557 48.3518 4.056C48.6996 4.20643 48.9776 4.48293 49.1299 4.82993L50.6099 8.87993C50.6784 9.06436 50.7097 9.26054 50.702 9.45714C50.6943 9.65374 50.6477 9.84687 50.565 10.0254C50.4822 10.2039 50.3649 10.3642 50.2199 10.4972C50.0749 10.6301 49.9049 10.733 49.7199 10.7999C49.5494 10.8386 49.3737 10.8488 49.1999 10.8299Z" fill="#001968"/>
<path d="M59.8299 41.38C59.5212 41.3763 59.2208 41.2786 58.9689 41.1C58.7171 40.9213 58.5256 40.6702 58.4199 40.38L56.9399 36.38C56.8571 36.1912 56.814 35.9874 56.8135 35.7812C56.8129 35.5751 56.8549 35.371 56.9367 35.1817C57.0186 34.9925 57.1386 34.8222 57.2892 34.6814C57.4398 34.5406 57.6178 34.4324 57.8122 34.3635C58.0065 34.2946 58.2129 34.2665 58.4186 34.2809C58.6242 34.2954 58.8247 34.352 59.0075 34.4474C59.1903 34.5428 59.3514 34.6749 59.4809 34.8353C59.6104 34.9958 59.7053 35.1812 59.7599 35.38L61.2399 39.38C61.3086 39.5652 61.3401 39.762 61.3325 39.9594C61.3249 40.1567 61.2784 40.3505 61.1957 40.5299C61.113 40.7092 60.9958 40.8704 60.8506 41.0043C60.7055 41.1382 60.5353 41.2421 60.3499 41.31C60.1817 41.3622 60.006 41.3858 59.8299 41.38Z" fill="#001968"/>
<path d="M42.2999 134.27H27.5999C27.1561 134.267 26.7314 134.089 26.4185 133.774C26.1055 133.46 25.9299 133.034 25.9299 132.59V127.2C25.9299 126.756 26.1055 126.33 26.4185 126.016C26.7314 125.701 27.1561 125.523 27.5999 125.52H42.2999C42.5219 125.519 42.7419 125.561 42.9474 125.645C43.153 125.728 43.34 125.852 43.4979 126.008C43.6557 126.164 43.7813 126.349 43.8675 126.554C43.9536 126.758 43.9986 126.978 43.9999 127.2V132.59C43.9999 132.812 43.9558 133.032 43.8702 133.237C43.7845 133.443 43.6589 133.629 43.5008 133.785C43.3427 133.941 43.1551 134.065 42.949 134.148C42.7428 134.231 42.5222 134.273 42.2999 134.27ZM27.5999 126.52C27.4213 126.523 27.2509 126.595 27.1256 126.723C27.0002 126.85 26.9299 127.021 26.9299 127.2V132.59C26.9286 132.679 26.945 132.767 26.978 132.849C27.0111 132.932 27.0603 133.007 27.1226 133.07C27.1849 133.133 27.2593 133.184 27.3412 133.218C27.4231 133.252 27.5111 133.27 27.5999 133.27H42.2999C42.3892 133.27 42.4777 133.252 42.5602 133.218C42.6427 133.184 42.7176 133.134 42.7808 133.071C42.8439 133.008 42.894 132.933 42.9282 132.85C42.9623 132.768 42.9799 132.679 42.9799 132.59V127.2C42.9773 127.02 42.9049 126.849 42.7779 126.722C42.6509 126.595 42.4795 126.523 42.2999 126.52H27.5999Z" fill="#001968"/>
<path d="M41.3301 127.1H40.9401C40.3492 127.1 39.8701 127.579 39.8701 128.17V131.65C39.8701 132.241 40.3492 132.72 40.9401 132.72H41.3301C41.9211 132.72 42.4001 132.241 42.4001 131.65V128.17C42.4001 127.579 41.9211 127.1 41.3301 127.1Z" fill="#001968"/>
<path d="M38.25 127.1H37.86C37.2691 127.1 36.79 127.579 36.79 128.17V131.65C36.79 132.241 37.2691 132.72 37.86 132.72H38.25C38.841 132.72 39.32 132.241 39.32 131.65V128.17C39.32 127.579 38.841 127.1 38.25 127.1Z" fill="#001968"/>
<path d="M35.17 127.1H34.78C34.189 127.1 33.71 127.579 33.71 128.17V131.65C33.71 132.241 34.189 132.72 34.78 132.72H35.17C35.7609 132.72 36.24 132.241 36.24 131.65V128.17C36.24 127.579 35.7609 127.1 35.17 127.1Z" fill="#001968"/>
<path d="M32.0899 127.1H31.6999C31.1089 127.1 30.6299 127.579 30.6299 128.17V131.65C30.6299 132.241 31.1089 132.72 31.6999 132.72H32.0899C32.6808 132.72 33.1599 132.241 33.1599 131.65V128.17C33.1599 127.579 32.6808 127.1 32.0899 127.1Z" fill="#001968"/>
<path d="M29.01 127.1H28.6201C28.0291 127.1 27.55 127.579 27.55 128.17V131.65C27.55 132.241 28.0291 132.72 28.6201 132.72H29.01C29.601 132.72 30.08 132.241 30.08 131.65V128.17C30.08 127.579 29.601 127.1 29.01 127.1Z" fill="#001968"/>
<path d="M59.4601 135.38H10.6201C10.3549 135.38 10.1005 135.275 9.91301 135.087C9.72547 134.9 9.62012 134.645 9.62012 134.38C9.62012 134.115 9.72547 133.86 9.91301 133.673C10.1005 133.485 10.3549 133.38 10.6201 133.38H59.4601C59.7253 133.38 59.9797 133.485 60.1672 133.673C60.3548 133.86 60.4601 134.115 60.4601 134.38C60.4601 134.645 60.3548 134.9 60.1672 135.087C59.9797 135.275 59.7253 135.38 59.4601 135.38Z" fill="#001968"/>
<path d="M72.0501 126.64H10.6201C10.3549 126.64 10.1005 126.535 9.91301 126.347C9.72547 126.16 9.62012 125.905 9.62012 125.64C9.62012 125.375 9.72547 125.12 9.91301 124.933C10.1005 124.745 10.3549 124.64 10.6201 124.64H72.0501C72.3153 124.64 72.5697 124.745 72.7572 124.933C72.9448 125.12 73.0501 125.375 73.0501 125.64C73.0501 125.905 72.9448 126.16 72.7572 126.347C72.5697 126.535 72.3153 126.64 72.0501 126.64Z" fill="#001968"/>
<path d="M106.15 158.43H1C0.734784 158.43 0.48043 158.325 0.292893 158.137C0.105357 157.95 0 157.695 0 157.43C0 157.165 0.105357 156.91 0.292893 156.723C0.48043 156.535 0.734784 156.43 1 156.43H106.15C106.415 156.43 106.67 156.535 106.857 156.723C107.045 156.91 107.15 157.165 107.15 157.43C107.15 157.695 107.045 157.95 106.857 158.137C106.67 158.325 106.415 158.43 106.15 158.43Z" fill="#001968"/>
<path d="M77.83 142.69C75.6401 142.721 73.4876 142.12 71.63 140.96C69.6993 139.777 67.4629 139.189 65.2 139.27C62.8436 139.219 60.5144 139.781 58.44 140.9C56.4441 141.991 54.2045 142.558 51.93 142.55C49.4324 142.532 46.976 141.911 44.77 140.74C43.1693 139.844 41.3739 139.353 39.54 139.31C36.9379 139.467 34.3845 140.086 32 141.14C30.6609 141.761 29.2282 142.157 27.76 142.31C25.4784 142.148 23.2251 141.708 21.05 141C20.9242 140.959 20.8077 140.894 20.7072 140.808C20.6068 140.722 20.5244 140.617 20.4649 140.499C20.4054 140.38 20.3699 140.252 20.3604 140.12C20.351 139.988 20.3679 139.855 20.41 139.73C20.4924 139.478 20.6714 139.269 20.9076 139.149C21.1438 139.029 21.4181 139.008 21.67 139.09C23.6139 139.739 25.628 140.155 27.67 140.33C28.8891 140.17 30.0784 139.834 31.2 139.33C33.8182 138.163 36.6278 137.485 39.49 137.33C41.6131 137.372 43.6949 137.925 45.56 138.94C47.4991 139.999 49.6708 140.559 51.88 140.57C53.8561 140.576 55.8009 140.077 57.53 139.12C59.8732 137.872 62.4958 137.243 65.15 137.29C67.7441 137.213 70.3058 137.883 72.53 139.22C74.0964 140.22 75.9219 140.738 77.78 140.71C80.0179 140.641 82.2172 140.11 84.24 139.15C84.3602 139.097 84.4896 139.068 84.621 139.064C84.7524 139.061 84.8831 139.084 85.0057 139.131C85.1283 139.179 85.2404 139.25 85.3355 139.34C85.4306 139.431 85.5069 139.54 85.56 139.66C85.618 139.778 85.6522 139.907 85.6604 140.038C85.6687 140.169 85.651 140.301 85.6082 140.425C85.5655 140.55 85.4986 140.665 85.4114 140.763C85.3242 140.862 85.2184 140.942 85.1 141C82.8203 142.062 80.3444 142.638 77.83 142.69Z" fill="#001968"/>
<path d="M86.2701 153C83.3224 153.039 80.4251 152.234 77.9201 150.68C75.2223 149.012 72.0897 148.184 68.9201 148.3C65.627 148.24 62.3736 149.025 59.4701 150.58C56.7821 152.051 53.7643 152.815 50.7001 152.8C47.3149 152.77 43.9871 151.923 41.0001 150.33C38.754 149.081 36.239 148.395 33.6701 148.33C29.8101 148.33 26.1001 149.73 23.1201 150.87C21.3201 151.696 19.3988 152.226 17.4301 152.44C14.0001 152.44 8.62009 150.7 8.43009 150.63C8.17824 150.548 7.96939 150.369 7.84939 150.132C7.72939 149.896 7.70806 149.622 7.79009 149.37C7.87455 149.131 8.04641 148.934 8.27098 148.817C8.49555 148.7 8.75611 148.672 9.00009 148.74C9.06009 148.74 14.3001 150.45 17.4201 150.45C19.1503 150.221 20.8359 149.732 22.4201 149C25.5501 147.82 29.4201 146.34 33.6801 146.34C36.5408 146.401 39.3455 147.145 41.8601 148.51C44.573 149.977 47.6058 150.754 50.6901 150.77C53.4536 150.784 56.1754 150.096 58.6001 148.77C61.7721 147.086 65.3191 146.233 68.9101 146.29C72.427 146.174 75.9016 147.085 78.9101 148.91C81.1065 150.311 83.6652 151.037 86.2701 151C89.3876 150.905 92.4518 150.166 95.2701 148.83C95.3902 148.777 95.5197 148.748 95.6511 148.745C95.7824 148.741 95.9131 148.764 96.0357 148.812C96.1583 148.859 96.2703 148.93 96.3654 149.021C96.4606 149.111 96.5369 149.22 96.5901 149.34C96.6433 149.46 96.6723 149.59 96.6754 149.721C96.6786 149.852 96.6558 149.983 96.6085 150.106C96.5611 150.228 96.4901 150.34 96.3994 150.435C96.3088 150.53 96.2002 150.607 96.0801 150.66C93.0063 152.108 89.6664 152.904 86.2701 153Z" fill="#001968"/>
</g>
<defs>
<clipPath id="clip0">
<rect width="137.33" height="158.43" fill="white"/>
</clipPath>
</defs>
</svg>
