<svg width="136" height="159" viewBox="0 0 136 159" fill="none" xmlns="http://www.w3.org/2000/svg">
<g clip-path="url(#clip0)">
<path d="M92.7699 112.6C95.3164 109.17 97.4604 105.459 99.1599 101.54C100.978 97.4501 101.889 93.0152 101.83 88.5399C101.793 84.5989 100.739 80.7341 98.7699 77.3199C97.1727 74.6973 94.9363 72.5228 92.2699 70.9999C88.7067 68.9908 84.6854 67.9352 80.5949 67.9352C76.5043 67.9352 72.483 68.9908 68.9199 70.9999C66.2435 72.5105 63.9935 74.6745 62.3799 77.2899C60.3961 80.6963 59.3281 84.5583 59.2799 88.4999C59.0399 94.8399 61.2799 101.79 65.9099 109.14C68.6534 113.417 71.8084 117.416 75.3299 121.08C75.3299 121.08 75.7499 121.42 75.6799 123.94C75.6747 126.664 75.5044 129.386 75.1699 132.09C75.1699 132.5 74.9599 132.62 74.7699 132.65L67.2999 132.09C66.4849 131.784 65.5906 131.761 64.7613 132.026C63.9321 132.291 63.2164 132.828 62.7299 133.55C60.0999 137.36 66.3599 136.84 66.3599 136.84H78.2199C78.9999 136.84 79.4499 136.1 79.5599 135.6C79.8313 134.143 80.0083 132.67 80.0899 131.19C80.157 132.67 80.3274 134.144 80.5999 135.6C80.7099 136.1 81.1499 136.89 81.9299 136.85H93.7899C93.7899 136.85 100.05 137.4 97.4299 133.58C96.9469 132.856 96.2347 132.316 95.4077 132.046C94.5808 131.776 93.687 131.791 92.8699 132.09L85.3999 132.62C85.2099 132.62 85.0499 132.47 85.0099 132.06C84.6831 129.406 84.5228 126.734 84.5299 124.06V123.52V122.73C84.7853 122.135 85.1442 121.59 85.5899 121.12C88.175 118.447 90.574 115.601 92.7699 112.6ZM81.1799 118.9L80.5199 119.54L79.5199 118.63C74.3199 113.35 63.5199 100.86 63.9699 88.6299C64.5499 73.3499 77.9699 72.6299 80.5899 72.6299C83.2099 72.6299 96.5899 73.4399 97.1299 88.7199C97.3399 94.9199 94.5199 102.22 88.9699 109.83C86.6141 113.052 84.0095 116.085 81.1799 118.9Z" fill="#001968"/>
<path d="M94.59 137.28C94.17 137.28 93.85 137.28 93.75 137.28H81.93C80.93 137.34 80.37 136.39 80.23 135.74C80.23 135.5 80.13 135.22 80.08 134.91C80.08 135.22 79.98 135.5 79.92 135.74C79.859 136.157 79.6531 136.538 79.3385 136.818C79.024 137.098 78.6208 137.258 78.2 137.27H66.36C66.03 137.27 62.79 137.52 61.92 136.02C61.52 135.33 61.69 134.45 62.42 133.39C62.951 132.598 63.7327 132.008 64.6395 131.714C65.5463 131.421 66.5256 131.44 67.42 131.77L74.83 132.32C74.78 132.32 74.83 132.27 74.83 132.1C75.1724 129.407 75.3461 126.695 75.35 123.98C75.35 121.84 75.11 121.4 75.09 121.38C71.5567 117.695 68.3886 113.676 65.63 109.38C60.95 101.96 58.7 94.95 58.94 88.53C58.9913 84.5195 60.0836 80.5912 62.11 77.13C63.7498 74.46 66.0416 72.2508 68.77 70.71C72.3997 68.7151 76.4683 67.6533 80.61 67.62C84.7614 67.6753 88.8351 68.7538 92.47 70.76C95.1868 72.3188 97.467 74.5371 99.1 77.21C101.104 80.6813 102.175 84.6121 102.21 88.62C102.275 93.1399 101.357 97.6199 99.52 101.75C97.8096 105.697 95.6521 109.435 93.09 112.89C90.8829 115.906 88.4705 118.766 85.87 121.45C85.4609 121.858 85.1229 122.331 84.87 122.85V123.59V124.14C84.8615 126.814 85.0218 129.486 85.35 132.14C85.35 132.34 85.41 132.38 85.41 132.38L92.76 131.86C93.6512 131.547 94.6211 131.54 95.5171 131.838C96.4132 132.137 97.1845 132.725 97.71 133.51C98.44 134.57 98.6 135.45 98.2 136.14C97.6 137.1 95.71 137.28 94.59 137.28ZM81.91 136.45H93.79C94.63 136.53 97.05 136.52 97.59 135.6C97.83 135.19 97.67 134.6 97.12 133.77C96.6803 133.12 96.0347 132.638 95.2872 132.4C94.5398 132.163 93.734 132.184 93 132.46H92.89L85.43 132.98C85.2072 132.965 84.9991 132.863 84.8498 132.697C84.7005 132.531 84.6216 132.313 84.63 132.09C84.3088 129.415 84.1485 126.724 84.15 124.03V123.48V122.66C84.4095 121.998 84.7968 121.393 85.29 120.88C87.8686 118.218 90.2609 115.381 92.45 112.39C94.9801 108.978 97.1107 105.287 98.8 101.39C100.592 97.3604 101.49 92.9899 101.43 88.58C101.394 84.7162 100.36 80.9272 98.43 77.58C96.8624 75.0126 94.6712 72.8833 92.06 71.39C88.5387 69.4598 84.5953 68.4293 80.58 68.39C76.568 68.4306 72.628 69.461 69.11 71.39C66.491 72.8747 64.2895 74.9971 62.71 77.56C60.7617 80.9023 59.711 84.6917 59.66 88.56C59.42 94.82 61.66 101.69 66.23 108.98C68.9634 113.235 72.1049 117.214 75.61 120.86C75.79 121 76.13 121.64 76.07 123.99C76.0609 126.731 75.8873 129.47 75.55 132.19C75.5551 132.397 75.4851 132.6 75.3528 132.76C75.2204 132.92 75.0348 133.026 74.83 133.06L67.18 132.48C66.4443 132.18 65.6278 132.141 64.867 132.37C64.1062 132.6 63.4471 133.083 63 133.74C62.45 134.54 62.29 135.15 62.53 135.56C63.06 136.49 65.53 136.5 66.29 136.44H78.22C78.81 136.51 79.12 135.81 79.22 135.49C79.4935 134.05 79.6673 132.594 79.74 131.13H80.49C80.5612 132.596 80.7316 134.056 81 135.5C81 135.83 81.37 136.51 81.91 136.45ZM80.47 120.1L80.22 119.76L79.22 118.89C74.35 113.89 63.09 101.11 63.56 88.64C64.15 73.07 77.72 72.25 80.56 72.25C83.3 72.25 96.95 73.08 97.48 88.71C97.69 94.99 94.84 102.37 89.25 110.05C86.8755 113.287 84.2544 116.337 81.41 119.17L80.47 120.1ZM80.56 73C77.88 73 64.91 73.78 64.35 88.67C63.89 100.85 74.99 113.48 79.78 118.35L80.51 119.02L80.92 118.64C83.7278 115.841 86.3186 112.832 88.67 109.64C94.17 102.1 96.96 94.88 96.76 88.76C96.25 73.8 83.2 73 80.59 73H80.56Z" fill="#001968"/>
<path d="M101.7 47.92C101.196 47.9216 100.71 47.733 100.34 47.3919C99.9687 47.0508 99.7404 46.5822 99.7001 46.08L99.3501 41.72C99.3284 41.4574 99.3587 41.193 99.4392 40.9421C99.5196 40.6911 99.6488 40.4585 99.8192 40.2575C99.9896 40.0564 100.198 39.8909 100.432 39.7704C100.667 39.6499 100.922 39.5767 101.185 39.555C101.448 39.5333 101.712 39.5636 101.963 39.6441C102.214 39.7246 102.447 39.8537 102.648 40.0241C102.849 40.1945 103.014 40.4028 103.135 40.6372C103.255 40.8716 103.328 41.1274 103.35 41.39L103.71 45.76C103.732 46.022 103.702 46.2858 103.622 46.5363C103.542 46.7867 103.413 47.0189 103.243 47.2195C103.073 47.4201 102.865 47.5853 102.631 47.7055C102.397 47.8257 102.142 47.8986 101.88 47.92H101.7Z" fill="#001968"/>
<path d="M102.07 109C100.149 109.103 98.2593 108.479 96.7771 107.252C95.2948 106.026 94.3284 104.286 94.07 102.38C93.9997 101.85 94.143 101.313 94.4684 100.888C94.7938 100.463 95.2745 100.185 95.805 100.115C96.3354 100.045 96.872 100.188 97.2968 100.513C97.7216 100.839 97.9997 101.32 98.07 101.85C98.2 102.67 98.89 105.27 102.71 104.97C103.208 104.97 103.701 104.865 104.156 104.662C104.611 104.458 105.018 104.161 105.35 103.79C106.019 102.789 106.326 101.589 106.22 100.39L101.55 62.25C101.518 61.9873 101.539 61.721 101.61 61.4663C101.682 61.2116 101.803 60.9735 101.966 60.7654C102.129 60.5574 102.332 60.3837 102.563 60.254C102.793 60.1244 103.047 60.0415 103.31 60.01C103.573 59.9784 103.839 59.999 104.094 60.0704C104.348 60.1417 104.586 60.2626 104.794 60.426C105.002 60.5895 105.176 60.7923 105.306 61.0229C105.436 61.2534 105.518 61.5073 105.55 61.77L110.21 99.9C110.46 102.183 109.838 104.476 108.47 106.32C107.795 107.107 106.966 107.748 106.034 108.202C105.101 108.656 104.086 108.914 103.05 108.96C102.7 109 102.38 109 102.07 109Z" fill="#001968"/>
<path d="M101.73 44.7C84.3001 46.12 71.0001 58.17 72.0901 71.56C72.1276 72.0012 72.3292 72.4124 72.655 72.7123C72.9808 73.0122 73.4072 73.1791 73.8501 73.18H74.1701C74.5915 73.1452 74.9865 72.9607 75.2837 72.6599C75.5808 72.3591 75.7605 71.9618 75.7901 71.54C76.0001 68.33 79.3001 65.65 83.4601 65.31C87.6201 64.97 91.3001 67.06 92.0001 70.2C92.1091 70.6136 92.3603 70.9756 92.7095 71.2224C93.0588 71.4693 93.4838 71.5853 93.9101 71.55C94.3312 71.517 94.7261 71.3327 95.022 71.0313C95.3179 70.7299 95.4948 70.3316 95.5201 69.91C95.7401 66.7 99.0401 64.02 103.19 63.68C107.34 63.34 111.04 65.45 111.77 68.59C111.865 69.0016 112.106 69.365 112.447 69.6131C112.789 69.8612 113.209 69.9773 113.63 69.94H113.78C114.201 69.9052 114.597 69.7207 114.894 69.4199C115.191 69.1191 115.37 68.7218 115.4 68.3C115.61 65.09 118.91 62.41 123.07 62.07C127.23 61.73 130.91 63.84 131.64 66.98C131.737 67.3914 131.977 67.7547 132.318 68.0041C132.66 68.2535 133.079 68.3727 133.5 68.34H133.68C133.911 68.3211 134.135 68.2569 134.341 68.1512C134.547 68.0454 134.729 67.9002 134.879 67.7237C135.028 67.5472 135.142 67.343 135.212 67.1228C135.283 66.9025 135.309 66.6705 135.29 66.44C134.23 53 119.17 43.28 101.73 44.7Z" fill="#FF6700"/>
<path d="M80.44 97.97C86.2334 97.97 90.93 93.2735 90.93 87.48C90.93 81.6865 86.2334 76.99 80.44 76.99C74.6465 76.99 69.95 81.6865 69.95 87.48C69.95 93.2735 74.6465 97.97 80.44 97.97Z" fill="#FF6700"/>
<path d="M80.2501 89.62C80.0562 89.62 79.8642 89.5817 79.6852 89.5072C79.5062 89.4327 79.3437 89.3235 79.2071 89.1859C79.0704 89.0484 78.9624 88.8851 78.8891 88.7056C78.8158 88.5261 78.7787 88.3339 78.7801 88.14V81.38C78.7801 80.9822 78.9381 80.6007 79.2194 80.3194C79.5007 80.038 79.8822 79.88 80.2801 79.88C80.6779 79.88 81.0594 80.038 81.3407 80.3194C81.622 80.6007 81.7801 80.9822 81.7801 81.38V88.14C81.7802 88.3386 81.7403 88.5353 81.6628 88.7182C81.5853 88.9011 81.4718 89.0665 81.3291 89.2046C81.1863 89.3427 81.0172 89.4507 80.8318 89.522C80.6464 89.5934 80.4486 89.6267 80.2501 89.62Z" fill="#001968"/>
<path d="M80.2501 95.48C80.0562 95.48 79.8642 95.4417 79.6852 95.3672C79.5062 95.2927 79.3437 95.1835 79.2071 95.0459C79.0704 94.9084 78.9624 94.7451 78.8891 94.5656C78.8158 94.3861 78.7787 94.1939 78.7801 94V93C78.7801 92.6022 78.9381 92.2206 79.2194 91.9393C79.5007 91.658 79.8822 91.5 80.2801 91.5C80.6779 91.5 81.0594 91.658 81.3407 91.9393C81.622 92.2206 81.7801 92.6022 81.7801 93V94C81.7816 94.199 81.7427 94.3963 81.6657 94.5799C81.5887 94.7634 81.4752 94.9294 81.3321 95.0678C81.1891 95.2062 81.0194 95.3141 80.8334 95.3849C80.6474 95.4558 80.4489 95.4881 80.2501 95.48Z" fill="#001968"/>
<path d="M80.1801 104.31C79.7522 104.306 79.3296 104.215 78.9378 104.043C78.5459 103.871 78.1929 103.622 77.9001 103.31C76.2801 101.69 74.1701 103.2 74.0901 103.31C74.0316 103.353 73.9652 103.385 73.8946 103.402C73.8241 103.42 73.7507 103.424 73.6787 103.413C73.6068 103.402 73.5376 103.378 73.4752 103.34C73.4128 103.303 73.3584 103.253 73.3151 103.195C73.2717 103.137 73.2403 103.07 73.2227 103C73.205 102.929 73.2014 102.856 73.2121 102.784C73.2227 102.712 73.2475 102.643 73.2849 102.58C73.3223 102.518 73.3716 102.463 73.4301 102.42C74.4301 101.68 76.8601 100.75 78.6801 102.57C80.1601 104.05 81.9601 102.57 82.2301 102.39C82.4729 102.079 82.7745 101.82 83.1176 101.626C83.4608 101.432 83.8388 101.308 84.2301 101.26C84.7069 101.248 85.1806 101.342 85.6165 101.536C86.0524 101.729 86.4396 102.018 86.7501 102.38C86.8535 102.483 86.9116 102.624 86.9116 102.77C86.9116 102.916 86.8535 103.057 86.7501 103.16C86.6466 103.263 86.5063 103.322 86.3601 103.322C86.2138 103.322 86.0735 103.263 85.9701 103.16C85.7696 102.915 85.5182 102.716 85.2333 102.578C84.9483 102.44 84.6367 102.365 84.3201 102.36C83.8197 102.433 83.3676 102.699 83.0601 103.1L82.9901 103.18C82.213 103.871 81.2195 104.271 80.1801 104.31Z" fill="#001968"/>
<path d="M33.8399 75.65C33.5647 75.6491 33.295 75.573 33.0599 75.43C32.7223 75.2213 32.4812 74.8873 32.3894 74.5012C32.2975 74.1151 32.3624 73.7083 32.5699 73.37L37.2299 65.73C37.333 65.5619 37.4682 65.4157 37.6277 65.2999C37.7873 65.184 37.9681 65.1008 38.1599 65.0548C38.3516 65.0088 38.5506 65.0011 38.7453 65.032C38.9401 65.0629 39.1268 65.1319 39.2949 65.235C39.463 65.3381 39.6091 65.4732 39.725 65.6328C39.8408 65.7924 39.9241 65.9732 39.9701 66.165C40.016 66.3567 40.0238 66.5556 39.9929 66.7504C39.962 66.9451 39.893 67.1319 39.7899 67.3L35.1299 74.93C34.9938 75.1498 34.804 75.3312 34.5783 75.4572C34.3525 75.5832 34.0984 75.6496 33.8399 75.65Z" fill="#001968"/>
<path d="M21.25 80C20.9786 80.0039 20.7117 79.9311 20.48 79.79C20.1522 79.58 19.9189 79.2509 19.8293 78.8721C19.7398 78.4933 19.8009 78.0945 20 77.76L27.21 65.76C27.4242 65.4406 27.7529 65.2158 28.1282 65.1319C28.5035 65.0479 28.8967 65.1114 29.2266 65.309C29.5564 65.5067 29.7978 65.8235 29.9008 66.194C30.0038 66.5645 29.9605 66.9604 29.78 67.3L22.57 79.3C22.4296 79.5211 22.234 79.7019 22.0026 79.8247C21.7712 79.9474 21.5118 80.0078 21.25 80Z" fill="#001968"/>
<path d="M13.2 75.65C12.9244 75.6517 12.654 75.5754 12.42 75.43C12.0807 75.2229 11.8375 74.8897 11.7437 74.5034C11.65 74.1172 11.7134 73.7095 11.92 73.37L16.59 65.73C16.693 65.5619 16.8282 65.4157 16.9878 65.2999C17.1474 65.184 17.3282 65.1008 17.5199 65.0548C17.7117 65.0088 17.9106 65.0011 18.1054 65.032C18.3001 65.0629 18.4869 65.1319 18.655 65.235C18.823 65.3381 18.9692 65.4732 19.085 65.6328C19.2009 65.7924 19.2842 65.9732 19.3301 66.165C19.3761 66.3567 19.3838 66.5556 19.3529 66.7504C19.322 66.9451 19.253 67.1319 19.15 67.3L14.48 74.93C14.3462 75.1496 14.1583 75.3312 13.9341 75.4573C13.7099 75.5834 13.4571 75.6498 13.2 75.65Z" fill="#001968"/>
<path d="M37.8499 60.69C37.0999 60.69 36.5699 60.69 36.3799 60.69H16.7799C12.7799 60.3 5.23991 57.19 5.23991 48.17C5.19214 46.8049 5.42884 45.4447 5.93497 44.1759C6.44111 42.9071 7.20561 41.7575 8.17991 40.8C11.2699 37.8 15.9399 37.2 18.1799 37.08C19.3799 32.94 23.1799 26.73 30.9499 26.73C33.7596 26.6382 36.509 27.5576 38.6983 29.3211C40.8876 31.0846 42.3714 33.5752 42.8799 36.34C45.6299 37.15 52.5499 40.13 52.5499 49.73C52.603 51.1159 52.3551 52.4968 51.8234 53.7777C51.2917 55.0586 50.4888 56.2091 49.4699 57.15C45.9999 60.27 40.5099 60.69 37.8499 60.69ZM16.9999 57.64H36.5699C36.6399 57.64 43.7799 58.21 47.4199 54.86C48.1265 54.1977 48.6803 53.3895 49.043 52.4915C49.4056 51.5935 49.5684 50.6273 49.5199 49.66C49.5199 40.31 41.6499 39.03 41.3099 38.98C40.9749 38.9394 40.6634 38.7871 40.4257 38.5475C40.188 38.308 40.038 37.9953 39.9999 37.66C39.9999 37.34 38.9999 29.66 30.8799 29.66C22.7599 29.66 20.8799 38.4 20.7599 38.77C20.6966 39.1161 20.5137 39.4288 20.2432 39.6536C19.9726 39.8785 19.6317 40.0011 19.2799 40C19.2199 40 13.4199 39.86 10.2799 42.92C9.60085 43.5983 9.07191 44.4117 8.72737 45.3075C8.38283 46.2033 8.23038 47.1615 8.27991 48.12C8.23991 56.39 16.1399 57.54 16.9999 57.64Z" fill="#001968"/>
<path d="M52.8401 32.9999C52.3923 32.9983 51.9449 32.9716 51.5001 32.9199C48.72 32.5792 46.1816 31.1699 44.4225 28.9903C42.6635 26.8107 41.8217 24.032 42.0757 21.2427C42.3296 18.4533 43.6592 15.8723 45.7829 14.0462C47.9067 12.22 50.6578 11.2922 53.4537 11.4591C56.2496 11.626 58.8708 12.8746 60.7622 14.9404C62.6536 17.0063 63.6667 19.7272 63.5869 22.5269C63.5072 25.3267 62.3408 27.9855 60.3349 29.9403C58.329 31.8951 55.641 32.9924 52.8401 32.9999ZM52.8401 14.4699C51.3472 14.472 49.8865 14.9047 48.6334 15.7161C47.3802 16.5275 46.3877 17.6832 45.7748 19.0446C45.162 20.4059 44.9549 21.9152 45.1784 23.3913C45.4018 24.8674 46.0463 26.2477 47.0345 27.3667C48.0228 28.4857 49.3129 29.2959 50.7501 29.7001C52.1872 30.1043 53.7105 30.0853 55.1372 29.6455C56.5638 29.2057 57.8333 28.3636 58.7934 27.2203C59.7535 26.0771 60.3635 24.6811 60.5501 23.1999C60.8047 21.1567 60.2379 19.0959 58.9741 17.4702C57.7104 15.8446 55.853 14.7871 53.8101 14.5299C53.4819 14.4861 53.1512 14.4627 52.8201 14.4599L52.8401 14.4699Z" fill="#001968"/>
<path d="M59.0599 11.65C58.8009 11.6486 58.5465 11.5806 58.3213 11.4525C58.0961 11.3245 57.9077 11.1406 57.7741 10.9186C57.6405 10.6966 57.5663 10.444 57.5585 10.1851C57.5508 9.92612 57.6098 9.66953 57.7299 9.43998L62.3599 0.789978C62.4485 0.608477 62.5728 0.446734 62.7254 0.314446C62.878 0.182158 63.0558 0.0820502 63.248 0.0201254C63.4403 -0.0417995 63.643 -0.0642661 63.8442 -0.0459273C64.0453 -0.0275885 64.2406 0.0311779 64.4185 0.126848C64.5964 0.222519 64.7531 0.353122 64.8793 0.510829C65.0054 0.668535 65.0984 0.850095 65.1527 1.04462C65.207 1.23915 65.2215 1.44264 65.1952 1.64289C65.169 1.84314 65.1025 2.03602 64.9999 2.20998L60.3799 10.85C60.2531 11.0904 60.0632 11.2919 59.8307 11.4328C59.5982 11.5737 59.3318 11.6488 59.0599 11.65Z" fill="#001968"/>
<path d="M40.9999 17.13C40.7396 17.1324 40.4836 17.0633 40.2599 16.93L31.3899 11.93C31.2172 11.8322 31.0655 11.7013 30.9434 11.5448C30.8213 11.3883 30.7312 11.2094 30.6783 11.0181C30.6253 10.8268 30.6106 10.6269 30.6349 10.43C30.6592 10.233 30.7221 10.0427 30.8199 9.87001C30.9177 9.69732 31.0486 9.5456 31.2051 9.42349C31.3616 9.30139 31.5406 9.2113 31.7319 9.15837C31.9231 9.10544 32.123 9.09071 32.32 9.11501C32.517 9.13931 32.7072 9.20218 32.8799 9.30001L41.7499 14.3C41.9215 14.3976 42.0722 14.5281 42.1933 14.684C42.3144 14.84 42.4035 15.0183 42.4556 15.2087C42.5076 15.3992 42.5215 15.598 42.4965 15.7939C42.4715 15.9897 42.4081 16.1787 42.3099 16.35C42.1829 16.5867 41.9938 16.7843 41.7631 16.9217C41.5323 17.0591 41.2685 17.1311 40.9999 17.13Z" fill="#001968"/>
<path d="M73.7801 35.9999C73.5277 35.9999 73.2796 35.9344 73.0601 35.8099L65.3101 31.4899C65.1337 31.3965 64.9777 31.2687 64.8513 31.1142C64.7249 30.9596 64.6307 30.7814 64.574 30.5899C64.5174 30.3985 64.4996 30.1977 64.5216 29.9993C64.5436 29.8008 64.605 29.6088 64.7022 29.4344C64.7993 29.26 64.9304 29.1068 65.0875 28.9837C65.2447 28.8605 65.4249 28.7701 65.6175 28.7175C65.8101 28.6649 66.0112 28.6513 66.2091 28.6775C66.4071 28.7037 66.5978 28.7691 66.7701 28.8699L74.5201 33.1899C74.8569 33.3834 75.1055 33.6999 75.2137 34.0729C75.3218 34.4459 75.2811 34.8463 75.1001 35.1899C74.9728 35.4309 74.7832 35.6332 74.551 35.7757C74.3187 35.9182 74.0525 35.9956 73.7801 35.9999Z" fill="#001968"/>
<path d="M66.5999 20.89C66.2539 20.8846 65.9205 20.7597 65.656 20.5366C65.3916 20.3135 65.2124 20.0058 65.1488 19.6657C65.0853 19.3255 65.1413 18.9739 65.3073 18.6703C65.4733 18.3668 65.7392 18.1299 66.0599 18L70.0599 16.43C70.2438 16.3584 70.4399 16.3237 70.6372 16.328C70.8344 16.3322 71.0289 16.3753 71.2095 16.4547C71.3901 16.534 71.5533 16.6482 71.6898 16.7907C71.8263 16.9332 71.9333 17.1011 72.0049 17.285C72.0765 17.4688 72.1111 17.665 72.1069 17.8622C72.1027 18.0595 72.0596 18.2539 71.9802 18.4346C71.9008 18.6152 71.7867 18.7784 71.6442 18.9148C71.5017 19.0513 71.3338 19.1584 71.1499 19.23L67.1499 20.79C66.9743 20.857 66.7879 20.8909 66.5999 20.89Z" fill="#001968"/>
<path d="M49.1999 10.8299C48.8904 10.8291 48.5888 10.7325 48.3364 10.5535C48.0839 10.3744 47.893 10.1217 47.7899 9.82993L46.3099 5.82993C46.2096 5.46451 46.2512 5.07466 46.4266 4.73872C46.6019 4.40278 46.8979 4.14565 47.255 4.019C47.6122 3.89235 48.004 3.90557 48.3518 4.056C48.6996 4.20643 48.9776 4.48293 49.1299 4.82993L50.6099 8.82993C50.6786 9.01506 50.71 9.21193 50.7024 9.40924C50.6948 9.60656 50.6484 9.80043 50.5657 9.97974C50.483 10.1591 50.3657 10.3203 50.2206 10.4542C50.0754 10.588 49.9053 10.692 49.7199 10.7599C49.5517 10.8121 49.3759 10.8357 49.1999 10.8299Z" fill="#001968"/>
<path d="M59.8299 41.38C59.5212 41.3763 59.2208 41.2786 58.9689 41.1C58.7171 40.9213 58.5256 40.6702 58.4199 40.38L56.9399 36.38C56.8571 36.1912 56.814 35.9874 56.8135 35.7812C56.8129 35.5751 56.8549 35.371 56.9367 35.1817C57.0186 34.9925 57.1386 34.8222 57.2892 34.6814C57.4398 34.5406 57.6178 34.4324 57.8122 34.3635C58.0065 34.2946 58.2129 34.2665 58.4186 34.2809C58.6242 34.2954 58.8247 34.352 59.0075 34.4474C59.1903 34.5428 59.3514 34.6749 59.4809 34.8353C59.6104 34.9958 59.7053 35.1812 59.7599 35.38L61.2399 39.38C61.3086 39.5652 61.3401 39.762 61.3325 39.9594C61.3249 40.1567 61.2784 40.3505 61.1957 40.5299C61.113 40.7092 60.9958 40.8704 60.8506 41.0043C60.7055 41.1382 60.5353 41.2421 60.3499 41.31C60.1817 41.3622 60.006 41.3858 59.8299 41.38Z" fill="#001968"/>
<path d="M42.2999 134.27H27.5999C27.1561 134.267 26.7314 134.089 26.4185 133.774C26.1055 133.46 25.9299 133.034 25.9299 132.59V127.2C25.9299 126.756 26.1055 126.33 26.4185 126.016C26.7314 125.701 27.1561 125.523 27.5999 125.52H42.2999C42.5222 125.517 42.7428 125.559 42.949 125.642C43.1551 125.725 43.3427 125.849 43.5008 126.005C43.6589 126.161 43.7845 126.347 43.8702 126.552C43.9558 126.758 43.9999 126.978 43.9999 127.2V132.59C43.9999 132.812 43.9558 133.032 43.8702 133.238C43.7845 133.443 43.6589 133.629 43.5008 133.785C43.3427 133.941 43.1551 134.065 42.949 134.148C42.7428 134.231 42.5222 134.273 42.2999 134.27ZM27.5999 126.52C27.4213 126.523 27.2509 126.595 27.1256 126.723C27.0002 126.85 26.9299 127.021 26.9299 127.2V132.59C26.9286 132.679 26.945 132.767 26.978 132.849C27.0111 132.932 27.0603 133.007 27.1226 133.07C27.1849 133.134 27.2593 133.184 27.3412 133.218C27.4231 133.252 27.5111 133.27 27.5999 133.27H42.2999C42.3892 133.27 42.4777 133.252 42.5602 133.218C42.6427 133.184 42.7176 133.134 42.7808 133.071C42.8439 133.008 42.894 132.933 42.9282 132.85C42.9623 132.768 42.9799 132.679 42.9799 132.59V127.2C42.9773 127.02 42.9049 126.849 42.7779 126.722C42.6509 126.595 42.4795 126.523 42.2999 126.52H27.5999Z" fill="#001968"/>
<path d="M41.3301 127.1H40.9401C40.3492 127.1 39.8701 127.579 39.8701 128.17V131.65C39.8701 132.241 40.3492 132.72 40.9401 132.72H41.3301C41.9211 132.72 42.4001 132.241 42.4001 131.65V128.17C42.4001 127.579 41.9211 127.1 41.3301 127.1Z" fill="#001968"/>
<path d="M38.25 127.1H37.86C37.2691 127.1 36.79 127.579 36.79 128.17V131.65C36.79 132.241 37.2691 132.72 37.86 132.72H38.25C38.841 132.72 39.32 132.241 39.32 131.65V128.17C39.32 127.579 38.841 127.1 38.25 127.1Z" fill="#001968"/>
<path d="M35.17 127.1H34.78C34.189 127.1 33.71 127.579 33.71 128.17V131.65C33.71 132.241 34.189 132.72 34.78 132.72H35.17C35.7609 132.72 36.24 132.241 36.24 131.65V128.17C36.24 127.579 35.7609 127.1 35.17 127.1Z" fill="#001968"/>
<path d="M32.0899 127.1H31.6999C31.1089 127.1 30.6299 127.579 30.6299 128.17V131.65C30.6299 132.241 31.1089 132.72 31.6999 132.72H32.0899C32.6808 132.72 33.1599 132.241 33.1599 131.65V128.17C33.1599 127.579 32.6808 127.1 32.0899 127.1Z" fill="#001968"/>
<path d="M29.01 127.1H28.6201C28.0291 127.1 27.55 127.579 27.55 128.17V131.65C27.55 132.241 28.0291 132.72 28.6201 132.72H29.01C29.601 132.72 30.08 132.241 30.08 131.65V128.17C30.08 127.579 29.601 127.1 29.01 127.1Z" fill="#001968"/>
<path d="M59.4601 135.38H10.6201C10.3549 135.38 10.1005 135.275 9.91301 135.087C9.72547 134.9 9.62012 134.645 9.62012 134.38C9.62012 134.115 9.72547 133.86 9.91301 133.673C10.1005 133.485 10.3549 133.38 10.6201 133.38H59.4601C59.7253 133.38 59.9797 133.485 60.1672 133.673C60.3548 133.86 60.4601 134.115 60.4601 134.38C60.4601 134.645 60.3548 134.9 60.1672 135.087C59.9797 135.275 59.7253 135.38 59.4601 135.38Z" fill="#001968"/>
<path d="M72.0501 126.64H10.6201C10.3549 126.64 10.1005 126.535 9.91301 126.347C9.72547 126.16 9.62012 125.905 9.62012 125.64C9.62012 125.375 9.72547 125.12 9.91301 124.933C10.1005 124.745 10.3549 124.64 10.6201 124.64H72.0501C72.3153 124.64 72.5697 124.745 72.7572 124.933C72.9448 125.12 73.0501 125.375 73.0501 125.64C73.0501 125.905 72.9448 126.16 72.7572 126.347C72.5697 126.535 72.3153 126.64 72.0501 126.64Z" fill="#001968"/>
<path d="M106.15 158.43H1C0.734784 158.43 0.48043 158.325 0.292893 158.137C0.105357 157.95 0 157.695 0 157.43C0 157.165 0.105357 156.91 0.292893 156.723C0.48043 156.535 0.734784 156.43 1 156.43H106.15C106.415 156.43 106.67 156.535 106.857 156.723C107.045 156.91 107.15 157.165 107.15 157.43C107.15 157.695 107.045 157.95 106.857 158.137C106.67 158.325 106.415 158.43 106.15 158.43Z" fill="#001968"/>
<path d="M85.93 150C82.9838 150.042 80.0881 149.233 77.59 147.67C74.8899 146.008 71.7582 145.184 68.59 145.3C65.2968 145.239 62.0431 146.024 59.14 147.58C56.4498 149.046 53.4335 149.809 50.37 149.8C46.9926 149.779 43.6707 148.938 40.69 147.35C38.4385 146.106 35.9214 145.42 33.35 145.35C29.5 145.35 25.79 146.76 22.81 147.89C21.0117 148.72 19.0896 149.251 17.12 149.46C13.68 149.46 8.31001 147.73 8.12001 147.65C7.87721 147.561 7.67852 147.381 7.56568 147.148C7.45284 146.915 7.43465 146.647 7.51491 146.401C7.59518 146.155 7.76766 145.95 7.99611 145.829C8.22456 145.707 8.4912 145.679 8.74001 145.75C8.79001 145.75 14.04 147.46 17.16 147.46C18.8896 147.234 20.5753 146.749 22.16 146.02C25.29 144.83 29.16 143.35 33.41 143.35C36.2749 143.412 39.0833 144.16 41.6 145.53C44.3147 146.993 47.3463 147.769 50.43 147.79C53.1942 147.81 55.9173 147.121 58.34 145.79C61.5122 144.107 65.0597 143.257 68.65 143.32C72.1652 143.208 75.6378 144.115 78.65 145.93C80.8255 147.309 83.3542 148.028 85.93 148C89.0474 147.904 92.1113 147.165 94.93 145.83C95.0502 145.777 95.1796 145.748 95.311 145.744C95.4424 145.741 95.5731 145.764 95.6957 145.811C95.8183 145.859 95.9304 145.93 96.0255 146.021C96.1206 146.111 96.1969 146.22 96.25 146.34C96.3033 146.46 96.3323 146.59 96.3355 146.721C96.3387 146.852 96.316 146.983 96.2686 147.106C96.2213 147.228 96.1502 147.34 96.0595 147.435C95.9688 147.531 95.8602 147.607 95.74 147.66C92.6657 149.106 89.3261 149.903 85.93 150Z" fill="#001968"/>
</g>
<defs>
<clipPath id="clip0">
<rect width="135.33" height="158.43" fill="white"/>
</clipPath>
</defs>
</svg>
