<svg width="121" height="137" viewBox="0 0 121 137" fill="none" xmlns="http://www.w3.org/2000/svg">
<g clip-path="url(#clip0)">
<path d="M82.9466 100.346C85.2235 97.2895 87.1405 93.9824 88.66 90.4897C90.2855 86.845 91.0999 82.8927 91.0473 78.9044C91.0142 75.3923 90.0718 71.9481 88.3113 68.9055C86.8833 66.5683 84.8836 64.6304 82.4996 63.2733C79.3138 61.4828 75.7183 60.5421 72.0609 60.5421C68.4035 60.5421 64.808 61.4828 61.6221 63.2733C59.2298 64.6172 57.2205 66.5463 55.7836 68.8788C54.0029 71.912 53.0446 75.3547 53.0029 78.8688C52.7883 84.5188 54.7911 90.7125 58.9308 97.2626C61.3839 101.074 64.2048 104.638 67.3534 107.903C67.3534 107.903 67.7289 108.206 67.6663 110.452C67.6617 112.88 67.5094 115.305 67.2103 117.715C67.2103 118.08 67.0225 118.187 66.8527 118.214L60.1737 117.715C59.445 117.442 58.6454 117.422 57.9039 117.658C57.1625 117.894 56.5226 118.373 56.0876 119.016C53.7361 122.412 59.3332 121.948 59.3332 121.948H69.9373C70.6348 121.948 71.0371 121.289 71.1355 120.843C71.3781 119.545 71.5364 118.232 71.6093 116.913C71.6694 118.232 71.8217 119.545 72.0653 120.843C72.1637 121.289 72.5571 121.993 73.2545 121.957H83.8586C83.8586 121.957 89.4558 122.447 87.1132 119.043C86.6814 118.398 86.0446 117.916 85.3052 117.676C84.5658 117.435 83.7666 117.449 83.0361 117.715L76.3571 118.187C76.1872 118.187 76.0441 118.054 76.0084 117.688C75.721 115.323 75.5777 112.942 75.5792 110.559V110.078V109.374C75.8076 108.843 76.1284 108.358 76.5269 107.939C78.8384 105.557 80.9833 103.02 82.9466 100.346ZM72.5839 105.96L71.9938 106.531L71.0997 105.72C66.4503 101.014 56.7939 89.8837 57.1963 78.9847C57.7149 65.3675 69.7138 64.7259 72.0564 64.7259C74.399 64.7259 86.3622 65.4477 86.845 79.0649C87.0327 84.5901 84.5113 91.0957 79.549 97.8775C77.4427 100.749 75.1139 103.452 72.5839 105.96Z" fill="#001968"/>
<path d="M84.5739 122.34C84.1984 122.34 83.9212 122.34 83.8318 122.34H73.2545C72.8826 122.317 72.5298 122.168 72.2537 121.919C71.9775 121.67 71.7945 121.334 71.7345 120.968C71.7345 120.754 71.6451 120.504 71.6004 120.228C71.6004 120.504 71.511 120.754 71.4573 120.968C71.4028 121.339 71.2187 121.679 70.9374 121.929C70.6562 122.178 70.2957 122.321 69.9194 122.331H59.3332C59.0381 122.331 56.1412 122.554 55.3633 121.217C55.0057 120.602 55.1577 119.818 55.8104 118.874C56.2862 118.169 56.9852 117.644 57.7956 117.383C58.6061 117.121 59.4811 117.138 60.2809 117.43L66.9063 117.92C66.8616 117.92 66.9063 117.875 66.9063 117.724C67.2125 115.324 67.3678 112.907 67.3712 110.488C67.3712 108.58 67.1566 108.188 67.1388 108.171C63.9796 104.886 61.147 101.305 58.6805 97.4765C54.496 90.864 52.4843 84.6169 52.6989 78.8955C52.7447 75.3215 53.7214 71.8207 55.5332 68.7362C56.9994 66.3567 59.0485 64.3879 61.488 63.0148C64.7334 61.237 68.3711 60.2908 72.0742 60.2611C75.7861 60.3104 79.4284 61.2715 82.6784 63.0594C85.1075 64.4486 87.1463 66.4254 88.6063 68.8075C90.3978 71.901 91.3558 75.404 91.387 78.9757C91.4452 83.0037 90.6246 86.9962 88.9819 90.6768C87.4526 94.1942 85.5236 97.5252 83.2327 100.604C81.2617 103.294 79.1046 105.843 76.7773 108.233C76.4115 108.596 76.1093 109.018 75.8832 109.481V110.14V110.63C75.8756 113.013 76.0189 115.394 76.3123 117.76C76.3123 117.938 76.366 117.973 76.366 117.973L82.9377 117.51C83.7347 117.233 84.6014 117.227 85.4022 117.493C86.2029 117.759 86.8927 118.282 87.3635 118.98C88.0162 119.925 88.1682 120.709 87.8016 121.324C87.2652 122.18 85.5753 122.34 84.5739 122.34ZM73.2366 121.601H83.8586C84.6097 121.672 86.7734 121.663 87.2562 120.843C87.4708 120.478 87.3278 119.952 86.8449 119.212C86.4503 118.633 85.8715 118.202 85.2016 117.99C84.5318 117.779 83.8099 117.798 83.1523 118.045H83.0539L76.3839 118.508C76.1855 118.492 76.0007 118.401 75.8677 118.254C75.7346 118.106 75.6634 117.913 75.6686 117.715C75.3814 115.331 75.2381 112.933 75.2394 110.532V110.042V109.311C75.4714 108.721 75.8178 108.182 76.2587 107.725C78.5638 105.352 80.7028 102.824 82.6605 100.159C84.9227 97.1183 86.8277 93.8292 88.3381 90.356C89.9408 86.7649 90.7431 82.8701 90.6896 78.9401C90.6572 75.4968 89.7333 72.1201 88.0073 69.1372C86.6058 66.8492 84.6465 64.9516 82.3118 63.6208C79.1635 61.9007 75.6376 60.9824 72.0474 60.9473C68.4569 61.0003 64.9323 61.9175 61.7741 63.6208C59.428 64.9412 57.4561 66.833 56.0428 69.1194C54.3009 72.0979 53.3614 75.4749 53.3158 78.9223C53.1012 84.501 55.104 90.6234 59.1901 97.12C61.6341 100.912 64.443 104.458 67.5769 107.707C67.7378 107.832 68.0418 108.402 67.9882 110.497C67.9801 112.939 67.8248 115.38 67.5232 117.804C67.5278 117.989 67.4652 118.169 67.3469 118.312C67.2286 118.454 67.0626 118.549 66.8795 118.579L60.0395 118.063C59.385 117.802 58.661 117.771 57.9865 117.975C57.3121 118.179 56.7275 118.606 56.329 119.185C55.8372 119.898 55.6941 120.442 55.9087 120.807C56.3826 121.636 58.5911 121.645 59.2706 121.592H69.9373C70.4559 121.592 70.742 121.03 70.8314 120.745C71.076 119.462 71.2314 118.164 71.2964 116.859H71.9669C72.0307 118.166 72.183 119.468 72.4229 120.754C72.4229 121.048 72.7538 121.627 73.2366 121.601ZM71.9669 107.012L71.7345 106.754L70.8404 105.952C66.4861 101.496 56.4184 90.1065 56.8386 78.9936C57.3661 65.118 69.4992 64.3872 72.0385 64.3872C74.4883 64.3872 86.6929 65.1269 87.1668 79.0559C87.3546 84.6525 84.8064 91.2294 79.8083 98.0736C77.6853 100.959 75.3417 103.676 72.7985 106.201L71.9669 107.012ZM72.0295 65.0556C69.6333 65.0556 58.0367 65.7507 57.536 79.0203C57.1247 89.8748 67.0493 101.13 71.3321 105.47L71.9848 106.067L72.3514 105.729C74.862 103.234 77.1784 100.553 79.2808 97.7082C84.1984 90.9887 86.693 84.5545 86.5141 79.1005C86.0581 65.7686 74.39 65.0556 72.0564 65.0556H72.0295Z" fill="#001968"/>
<path d="M71.8955 86.5151C76.7545 86.5151 80.6935 82.589 80.6935 77.7459C80.6935 72.9029 76.7545 68.9768 71.8955 68.9768C67.0364 68.9768 63.0974 72.9029 63.0974 77.7459C63.0974 82.589 67.0364 86.5151 71.8955 86.5151Z" fill="#20CE88"/>
<path d="M70.921 82.0948C70.6846 82.0986 70.4563 82.0089 70.2862 81.8453L66.7008 78.4232C66.6151 78.3413 66.5464 78.2433 66.4986 78.135C66.4509 78.0266 66.4251 77.9099 66.4226 77.7916C66.4201 77.6732 66.441 77.5556 66.4841 77.4453C66.5273 77.335 66.5918 77.2343 66.674 77.1488C66.7561 77.0634 66.8544 76.9949 66.9632 76.9474C67.0719 76.8998 67.189 76.874 67.3077 76.8715C67.4264 76.8691 67.5445 76.8899 67.6551 76.9329C67.7658 76.9759 67.8668 77.0402 67.9525 77.1221L70.8673 79.8937L76.4287 74.0654C76.5959 73.8858 76.8278 73.7797 77.0735 73.7705C77.3191 73.7613 77.5584 73.8497 77.7386 74.0164C77.9188 74.183 78.0252 74.4142 78.0344 74.659C78.0437 74.9038 77.9549 75.1423 77.7877 75.3219L71.5916 81.8186C71.5085 81.9055 71.4086 81.9747 71.298 82.0222C71.1874 82.0697 71.0682 82.0944 70.9478 82.0948H70.921Z" fill="#001968"/>
<path d="M90.931 42.705C90.4805 42.7064 90.046 42.5383 89.7145 42.2343C89.383 41.9303 89.1788 41.5128 89.1427 41.0652L88.8298 37.1797C88.8104 36.9456 88.8375 36.7101 88.9095 36.4864C88.9814 36.2628 89.0969 36.0555 89.2492 35.8763C89.4016 35.6972 89.5879 35.5497 89.7974 35.4423C90.0069 35.3348 90.2357 35.2696 90.4705 35.2503C90.7053 35.231 90.9417 35.258 91.1661 35.3297C91.3904 35.4014 91.5984 35.5165 91.7782 35.6684C91.9579 35.8202 92.1059 36.0059 92.2137 36.2147C92.3214 36.4236 92.3869 36.6516 92.4062 36.8856L92.7281 40.78C92.7477 41.0136 92.7209 41.2486 92.6493 41.4718C92.5776 41.695 92.4625 41.9019 92.3105 42.0807C92.1585 42.2595 91.9727 42.4067 91.7636 42.5138C91.5545 42.6209 91.3262 42.6859 91.0919 42.705H90.931Z" fill="#001968"/>
<path d="M91.2619 97.1378C89.5442 97.2295 87.8548 96.6735 86.5295 95.5804C85.2042 94.4874 84.3401 92.9373 84.109 91.2383C84.0474 90.7656 84.1767 90.2878 84.4684 89.9101C84.7602 89.5324 85.1905 89.2857 85.6648 89.2242C86.1391 89.1628 86.6184 89.2916 86.9974 89.5824C87.3763 89.8732 87.6238 90.3022 87.6855 90.7749C87.8017 91.4967 88.4276 93.8138 91.8342 93.5464C92.2767 93.5465 92.7144 93.4546 93.1193 93.2766C93.5241 93.0986 93.8873 92.8384 94.1857 92.5126C94.7972 91.6129 95.0754 90.529 94.9725 89.447L90.797 55.4755C90.7688 55.2414 90.7872 55.0041 90.851 54.7772C90.9148 54.5502 91.0229 54.3379 91.169 54.1526C91.3151 53.9672 91.4965 53.8123 91.7027 53.6968C91.9088 53.5813 92.1358 53.5074 92.3706 53.4793C92.6055 53.4512 92.8436 53.4695 93.0713 53.5331C93.299 53.5967 93.512 53.7044 93.698 53.8501C93.8839 53.9957 94.0393 54.1765 94.1552 54.382C94.2711 54.5874 94.3453 54.8137 94.3734 55.0477L98.54 89.0282C98.7635 91.0626 98.2078 93.106 96.9843 94.7495C96.3809 95.4512 95.6395 96.022 94.806 96.4267C93.9724 96.8314 93.0644 97.0613 92.1382 97.1022C91.8252 97.1378 91.5391 97.1378 91.2619 97.1378Z" fill="#001968"/>
<path d="M90.958 39.8354C75.3736 41.1009 63.4819 51.8395 64.4565 63.7723C64.4901 64.1655 64.6703 64.5319 64.9616 64.7992C65.2529 65.0665 65.6342 65.2152 66.0301 65.216H66.3163C66.693 65.185 67.0462 65.0206 67.3119 64.7525C67.5776 64.4844 67.7382 64.1304 67.7647 63.7545C67.9525 60.8938 70.9031 58.5055 74.6226 58.2025C78.3421 57.8995 81.6324 59.762 82.2583 62.5603C82.3557 62.9289 82.5803 63.2515 82.8926 63.4715C83.2049 63.6915 83.5849 63.7948 83.966 63.7634C84.3425 63.734 84.6956 63.5698 84.9602 63.3012C85.2248 63.0325 85.3829 62.6776 85.4055 62.3019C85.6022 59.4412 88.5528 57.0529 92.2634 56.7499C95.9739 56.4469 99.2821 58.3272 99.9348 61.1255C100.02 61.4923 100.235 61.8162 100.54 62.0373C100.846 62.2584 101.222 62.3619 101.598 62.3286H101.732C102.109 62.2976 102.462 62.1332 102.728 61.8651C102.993 61.597 103.154 61.243 103.18 60.8671C103.377 58.0064 106.319 55.6181 110.038 55.3151C113.758 55.0121 117.048 56.8925 117.701 59.6907C117.787 60.059 118.004 60.384 118.311 60.6065C118.618 60.8289 118.995 60.9341 119.373 60.9027H119.525C119.731 60.8859 119.932 60.8287 120.116 60.7344C120.299 60.6402 120.463 60.5108 120.597 60.3535C120.73 60.1962 120.832 60.0143 120.895 59.818C120.958 59.6217 120.981 59.4149 120.964 59.2095C120.017 47.2321 106.551 38.5699 90.958 39.8354Z" fill="#20CE88"/>
<path d="M72.7538 91.7284C71.4263 91.7547 70.1193 91.3989 68.9896 90.7035C68.8927 90.6233 68.8279 90.5111 68.8068 90.3873C68.7857 90.2636 68.8097 90.1364 68.8745 90.0287C68.9393 89.921 69.0406 89.84 69.1601 89.8004C69.2796 89.7607 69.4094 89.7649 69.5261 89.8124C70.6137 90.4946 71.9009 90.7902 73.1784 90.651C74.4559 90.5119 75.6486 89.9462 76.5627 89.046C76.6599 88.9455 76.7932 88.8877 76.9332 88.8852C77.0733 88.8826 77.2085 88.9357 77.3093 89.0326C77.4101 89.1295 77.4681 89.2623 77.4706 89.4019C77.4731 89.5414 77.4199 89.6763 77.3227 89.7767C76.0763 90.9409 74.4592 91.6317 72.7538 91.7284Z" fill="#001968"/>
<path d="M30.2567 67.4172C30.0106 67.4164 29.7695 67.3486 29.5593 67.2212C29.2575 67.0352 29.0419 66.7376 28.9597 66.3935C28.8776 66.0494 28.9357 65.6869 29.1212 65.3854L33.2877 58.5768C33.3799 58.427 33.5008 58.2968 33.6434 58.1935C33.7861 58.0903 33.9478 58.0161 34.1192 57.9751C34.2907 57.9341 34.4686 57.9272 34.6427 57.9548C34.8168 57.9823 34.9838 58.0438 35.1341 58.1357C35.2844 58.2275 35.415 58.348 35.5186 58.4902C35.6222 58.6324 35.6967 58.7936 35.7378 58.9644C35.7789 59.1353 35.7858 59.3126 35.7581 59.4862C35.7305 59.6597 35.6688 59.8261 35.5767 59.9759L31.4101 66.7756C31.2885 66.9715 31.1187 67.1332 30.9169 67.2455C30.715 67.3577 30.4878 67.4169 30.2567 67.4172Z" fill="#001968"/>
<path d="M18.9998 71.2938C18.7572 71.2973 18.5186 71.2324 18.3113 71.1067C18.0183 70.9195 17.8097 70.6262 17.7296 70.2886C17.6495 69.9511 17.7042 69.5957 17.8822 69.2976L24.3287 58.6035C24.5203 58.3189 24.8142 58.1185 25.1497 58.0438C25.4853 57.969 25.8368 58.0255 26.1318 58.2016C26.4267 58.3778 26.6425 58.6601 26.7346 58.9903C26.8267 59.3205 26.788 59.6733 26.6266 59.9759L20.18 70.67C20.0545 70.8671 19.8797 71.0282 19.6728 71.1376C19.4658 71.247 19.2339 71.3008 18.9998 71.2938Z" fill="#001968"/>
<path d="M11.8023 67.4172C11.5562 67.4164 11.3151 67.3486 11.1049 67.2212C10.8015 67.0366 10.5841 66.7397 10.5002 66.3955C10.4164 66.0512 10.4731 65.688 10.6578 65.3854L14.8333 58.5768C14.9255 58.427 15.0463 58.2968 15.189 58.1935C15.3317 58.0903 15.4934 58.0161 15.6648 57.9751C15.8363 57.9341 16.0141 57.9272 16.1882 57.9548C16.3624 57.9823 16.5293 58.0438 16.6796 58.1357C16.8299 58.2275 16.9606 58.348 17.0642 58.4902C17.1678 58.6324 17.2422 58.7936 17.2833 58.9644C17.3244 59.1353 17.3313 59.3126 17.3037 59.4862C17.2761 59.6597 17.2144 59.8261 17.1222 59.9759L12.9467 66.7756C12.8271 66.9714 12.6591 67.1332 12.4587 67.2456C12.2582 67.3579 12.0322 67.417 11.8023 67.4172Z" fill="#001968"/>
<path d="M33.842 54.0853C33.1714 54.0853 32.6976 54.0853 32.5277 54.0853H15.0031C11.4267 53.7377 4.68508 50.9662 4.68508 42.9278C4.64236 41.7112 4.85399 40.499 5.30654 39.3683C5.75908 38.2376 6.44263 37.2131 7.31376 36.3598C10.0766 33.6863 14.2521 33.1516 16.2549 33.0447C17.3278 29.3552 20.7254 23.821 27.6816 23.821C30.1927 23.7395 32.6498 24.5591 34.6058 26.1309C36.5618 27.7026 37.8866 29.922 38.3394 32.3852C40.7982 33.1071 46.9855 35.7628 46.9855 44.318C47.0329 45.5531 46.8113 46.7837 46.3359 47.9252C45.8605 49.0667 45.1426 50.092 44.2316 50.9305C41.129 53.711 36.2204 54.0853 33.842 54.0853ZM15.1998 51.3672H32.6976C32.7602 51.3672 39.1441 51.8752 42.3987 48.8897C43.0304 48.2995 43.5256 47.5792 43.8499 46.7789C44.1741 45.9787 44.3196 45.1176 44.2763 44.2556C44.2763 35.9232 37.2396 34.7825 36.9356 34.7379C36.6361 34.7017 36.3576 34.5659 36.145 34.3525C35.9325 34.139 35.7984 33.8604 35.7644 33.5616C35.7644 33.2764 34.8703 26.4322 27.619 26.4322C20.3678 26.4322 18.66 34.2299 18.5974 34.5597C18.545 34.8759 18.3774 35.1618 18.1266 35.3624C17.8758 35.5631 17.5595 35.6644 17.2384 35.6469C17.1847 35.6469 11.9989 35.5221 9.19139 38.2491C8.58424 38.8536 8.1113 39.5785 7.80325 40.3768C7.49519 41.1751 7.35889 42.029 7.40317 42.8832C7.36741 50.2087 14.4309 51.2692 15.1998 51.3672Z" fill="#001968"/>
<path d="M47.2537 29.4087C46.8503 29.4072 46.4473 29.3834 46.0466 29.3374C43.8354 29.0644 41.7876 28.0356 40.2522 26.4262C38.7168 24.8169 37.7888 22.7267 37.6264 20.5118C37.4641 18.2969 38.0773 16.0944 39.3617 14.2797C40.6461 12.465 42.5221 11.1503 44.67 10.5599C46.8179 9.96937 49.1048 10.1396 51.1409 11.0414C53.1771 11.9433 54.8364 13.521 55.8362 15.5057C56.8359 17.4904 57.1143 19.7592 56.6237 21.9255C56.1331 24.0918 54.904 26.0215 53.1459 27.3858C51.4647 28.6991 49.3897 29.4115 47.2537 29.4087ZM47.2537 12.8953C45.9166 12.8969 44.6085 13.2831 43.4862 14.0074C42.3639 14.7318 41.4751 15.7635 40.9266 16.9788C40.378 18.1942 40.193 19.5415 40.3937 20.859C40.5943 22.1766 41.1722 23.4084 42.0579 24.4067C42.9437 25.405 44.0996 26.1274 45.387 26.4871C46.6744 26.8468 48.0386 26.8286 49.3159 26.4346C50.5932 26.0407 51.7293 25.2877 52.5879 24.2661C53.4465 23.2445 53.991 21.9977 54.1562 20.6752C54.3839 18.8543 53.8771 17.0178 52.7471 15.5691C51.6172 14.1204 49.9565 13.1779 48.1299 12.9488C47.8275 12.9087 47.5229 12.8879 47.2179 12.8864L47.2537 12.8953Z" fill="#001968"/>
<path d="M52.8062 10.3815C52.5847 10.38 52.3669 10.325 52.1714 10.2211C51.8641 10.0547 51.6342 9.7752 51.5306 9.44225C51.427 9.1093 51.4581 8.7492 51.6171 8.43872L55.7568 0.703339C55.836 0.541591 55.9472 0.397449 56.0836 0.279558C56.2201 0.161666 56.379 0.0724533 56.5509 0.0172676C56.7227 -0.0379182 56.904 -0.0579398 57.0839 -0.0415968C57.2637 -0.0252538 57.4384 0.0271173 57.5974 0.112376C57.7564 0.197635 57.8966 0.314026 58.0094 0.454569C58.1222 0.595113 58.2053 0.756914 58.2539 0.930273C58.3024 1.10363 58.3154 1.28498 58.2919 1.46343C58.2684 1.64189 58.209 1.81378 58.1173 1.9688L53.9865 9.66854C53.873 9.88282 53.7033 10.0623 53.4954 10.1879C53.2875 10.3135 53.0493 10.3804 52.8062 10.3815Z" fill="#001968"/>
<path d="M36.6585 15.2658C36.4257 15.268 36.1968 15.2063 35.9968 15.0876L28.0661 10.6317C27.9117 10.5445 27.776 10.4279 27.6668 10.2884C27.5577 10.149 27.4771 9.98947 27.4298 9.819C27.3825 9.64853 27.3693 9.47043 27.391 9.29489C27.4128 9.11934 27.469 8.94978 27.5564 8.79589C27.6439 8.64199 27.7609 8.50678 27.9008 8.39796C28.0408 8.28915 28.2008 8.20886 28.3718 8.16169C28.5429 8.11452 28.7215 8.10139 28.8977 8.12305C29.0738 8.14471 29.2439 8.20073 29.3983 8.28792L37.3291 12.7438C37.4825 12.8307 37.6173 12.947 37.7255 13.086C37.8338 13.225 37.9135 13.3839 37.96 13.5536C38.0065 13.7233 38.019 13.9006 37.9966 14.0751C37.9743 14.2496 37.9176 14.418 37.8298 14.5707C37.7162 14.7816 37.5472 14.9577 37.3408 15.0801C37.1345 15.2026 36.8986 15.2668 36.6585 15.2658Z" fill="#001968"/>
<path d="M65.9764 32.0822C65.7477 32.0833 65.5228 32.025 65.3237 31.9129L58.3943 28.063C58.2366 27.9797 58.0971 27.8659 57.9841 27.7281C57.8711 27.5904 57.7868 27.4316 57.7362 27.261C57.6856 27.0904 57.6697 26.9114 57.6893 26.7346C57.709 26.5577 57.7639 26.3866 57.8508 26.2312C57.9377 26.0757 58.0548 25.9392 58.1953 25.8295C58.3359 25.7198 58.497 25.6391 58.6692 25.5923C58.8414 25.5454 59.0212 25.5333 59.1982 25.5566C59.3751 25.58 59.5457 25.6383 59.6997 25.7281L66.6291 29.578C66.8883 29.7222 67.0923 29.948 67.209 30.2201C67.3257 30.4922 67.3485 30.7952 67.2738 31.0816C67.1992 31.368 67.0313 31.6216 66.7965 31.8027C66.5617 31.9838 66.2733 32.0821 65.9764 32.0822Z" fill="#001968"/>
<path d="M59.5478 18.6166C59.2385 18.6118 58.9403 18.5006 58.7039 18.3017C58.4674 18.1029 58.3072 17.8287 58.2504 17.5255C58.1935 17.2224 58.2436 16.9091 58.3921 16.6385C58.5405 16.368 58.7783 16.1569 59.065 16.0411L62.6414 14.642C62.8058 14.5782 62.9812 14.5473 63.1576 14.5511C63.3339 14.5549 63.5078 14.5932 63.6693 14.664C63.8308 14.7347 63.9767 14.8365 64.0987 14.9635C64.2207 15.0904 64.3165 15.2401 64.3805 15.4039C64.4445 15.5678 64.4755 15.7426 64.4717 15.9184C64.4679 16.0941 64.4294 16.2675 64.3584 16.4284C64.2874 16.5894 64.1853 16.7348 64.0579 16.8564C63.9306 16.9781 63.7804 17.0735 63.616 17.1373L60.0396 18.5275C59.8826 18.5873 59.7158 18.6175 59.5478 18.6166Z" fill="#001968"/>
<path d="M43.9903 9.65141C43.7136 9.65063 43.4439 9.56457 43.2182 9.40502C42.9925 9.24548 42.8218 9.02026 42.7296 8.76023L41.4063 5.19554C41.3166 4.86989 41.3538 4.52247 41.5106 4.22309C41.6674 3.92371 41.932 3.69456 42.2513 3.58169C42.5707 3.46883 42.921 3.48061 43.232 3.61467C43.543 3.74873 43.7915 3.99514 43.9277 4.30437L45.2509 7.86906C45.3124 8.03405 45.3405 8.20949 45.3337 8.38533C45.3269 8.56117 45.2853 8.73395 45.2114 8.89375C45.1375 9.05354 45.0326 9.19722 44.9028 9.31653C44.7731 9.43585 44.621 9.52845 44.4552 9.58902C44.3048 9.6355 44.1476 9.65659 43.9903 9.65141Z" fill="#001968"/>
<path d="M53.4947 36.8767C53.2183 36.8747 52.9492 36.7881 52.7237 36.6287C52.4983 36.4693 52.3273 36.2448 52.234 35.9855L50.9107 32.4208C50.8366 32.2526 50.7981 32.0709 50.7976 31.8872C50.7971 31.7035 50.8346 31.5216 50.9078 31.353C50.981 31.1843 51.0883 31.0325 51.2229 30.9071C51.3576 30.7816 51.5168 30.6852 51.6905 30.6237C51.8643 30.5623 52.0489 30.5373 52.2327 30.5502C52.4166 30.563 52.5959 30.6136 52.7593 30.6986C52.9227 30.7836 53.0668 30.9013 53.1826 31.0443C53.2983 31.1872 53.3833 31.3525 53.4321 31.5297L54.7554 35.0944C54.8168 35.2594 54.8449 35.4348 54.8381 35.6106C54.8313 35.7865 54.7898 35.9593 54.7158 36.1191C54.6419 36.2789 54.537 36.4225 54.4073 36.5418C54.2775 36.6612 54.1254 36.7538 53.9596 36.8143C53.8092 36.8608 53.652 36.8819 53.4947 36.8767Z" fill="#001968"/>
<path d="M42.9173 124.764C34.8167 124.764 28.2539 125.958 28.2539 127.438C28.2539 128.917 34.8167 130.111 42.9173 130.111C51.018 130.111 57.5718 128.917 57.5718 127.438C57.5718 125.958 50.9643 124.764 42.9173 124.764ZM36.1131 127.268C35.3084 127.268 34.6557 127.099 34.6557 126.894C34.6557 126.689 35.3084 126.511 36.1131 126.511C36.9178 126.511 37.5705 126.68 37.5705 126.894C37.5705 127.108 36.8821 127.242 36.0774 127.242L36.1131 127.268ZM41.5851 128.944C40.6016 128.944 39.7969 128.739 39.7969 128.48C39.7969 128.222 40.5926 128.017 41.5851 128.017C42.5776 128.017 43.3733 128.222 43.3733 128.48C43.3733 128.739 42.5329 128.917 41.5493 128.917L41.5851 128.944ZM43.2213 126.965C42.2378 126.965 41.4331 126.76 41.4331 126.502C41.4331 126.244 42.2289 126.039 43.2213 126.039C44.2138 126.039 45.0095 126.244 45.0095 126.502C45.0095 126.76 44.1601 126.939 43.1856 126.939L43.2213 126.965ZM49.033 128.035C48.2283 128.035 47.5756 127.866 47.5756 127.652C47.5756 127.438 48.2283 127.277 49.033 127.277C49.8377 127.277 50.4904 127.447 50.4904 127.652C50.4904 127.857 49.802 128.008 48.9973 128.008L49.033 128.035Z" fill="#001968"/>
<path d="M37.8209 119.658H24.6775C24.2807 119.655 23.9009 119.497 23.6211 119.216C23.3413 118.936 23.1843 118.556 23.1843 118.161V113.357C23.1843 112.962 23.3413 112.582 23.6211 112.302C23.9009 112.021 24.2807 111.862 24.6775 111.86H37.8209C38.0197 111.858 38.2169 111.895 38.4012 111.969C38.5856 112.043 38.7533 112.153 38.8946 112.292C39.036 112.431 39.1483 112.597 39.2249 112.78C39.3015 112.963 39.3409 113.159 39.3409 113.357V118.161C39.3409 118.359 39.3015 118.555 39.2249 118.738C39.1483 118.92 39.036 119.086 38.8946 119.226C38.7533 119.365 38.5856 119.475 38.4012 119.549C38.2169 119.623 38.0197 119.66 37.8209 119.658ZM24.6775 112.751C24.5178 112.753 24.3654 112.818 24.2533 112.932C24.1412 113.045 24.0784 113.198 24.0784 113.357V118.161C24.0773 118.24 24.0919 118.318 24.1214 118.392C24.151 118.465 24.195 118.532 24.2507 118.589C24.3064 118.645 24.3729 118.69 24.4462 118.72C24.5194 118.751 24.5981 118.767 24.6775 118.767H37.8209C37.9008 118.767 37.9798 118.751 38.0536 118.72C38.1274 118.69 38.1944 118.645 38.2508 118.589C38.3073 118.533 38.3521 118.466 38.3826 118.392C38.4132 118.319 38.4289 118.24 38.4289 118.161V113.357C38.4266 113.197 38.3618 113.044 38.2483 112.931C38.1348 112.818 37.9814 112.753 37.8209 112.751H24.6775Z" fill="#001968"/>
<path d="M36.9536 113.268H36.6049C36.0765 113.268 35.6482 113.695 35.6482 114.222V117.323C35.6482 117.85 36.0765 118.276 36.6049 118.276H36.9536C37.482 118.276 37.9103 117.85 37.9103 117.323V114.222C37.9103 113.695 37.482 113.268 36.9536 113.268Z" fill="#001968"/>
<path d="M34.1997 113.268H33.851C33.3226 113.268 32.8943 113.695 32.8943 114.222V117.323C32.8943 117.85 33.3226 118.276 33.851 118.276H34.1997C34.7281 118.276 35.1564 117.85 35.1564 117.323V114.222C35.1564 113.695 34.7281 113.268 34.1997 113.268Z" fill="#001968"/>
<path d="M31.4458 113.268H31.0971C30.5687 113.268 30.1404 113.695 30.1404 114.222V117.323C30.1404 117.85 30.5687 118.276 31.0971 118.276H31.4458C31.9742 118.276 32.4025 117.85 32.4025 117.323V114.222C32.4025 113.695 31.9742 113.268 31.4458 113.268Z" fill="#001968"/>
<path d="M28.6921 113.268H28.3434C27.815 113.268 27.3867 113.695 27.3867 114.222V117.323C27.3867 117.85 27.815 118.276 28.3434 118.276H28.6921C29.2205 118.276 29.6488 117.85 29.6488 117.323V114.222C29.6488 113.695 29.2205 113.268 28.6921 113.268Z" fill="#001968"/>
<path d="M25.9382 113.268H25.5895C25.0611 113.268 24.6328 113.695 24.6328 114.222V117.323C24.6328 117.85 25.0611 118.276 25.5895 118.276H25.9382C26.4666 118.276 26.8949 117.85 26.8949 117.323V114.222C26.8949 113.695 26.4666 113.268 25.9382 113.268Z" fill="#001968"/>
<path d="M53.1638 120.647H9.49543C9.2583 120.647 9.03088 120.553 8.8632 120.386C8.69552 120.219 8.60132 119.992 8.60132 119.756C8.60132 119.519 8.69552 119.293 8.8632 119.126C9.03088 118.959 9.2583 118.865 9.49543 118.865H53.1638C53.4009 118.865 53.6283 118.959 53.796 119.126C53.9637 119.293 54.0579 119.519 54.0579 119.756C54.0579 119.992 53.9637 120.219 53.796 120.386C53.6283 120.553 53.4009 120.647 53.1638 120.647Z" fill="#001968"/>
<path d="M64.4206 112.858H9.49543C9.2583 112.858 9.03088 112.764 8.8632 112.597C8.69552 112.43 8.60132 112.203 8.60132 111.967C8.60132 111.731 8.69552 111.504 8.8632 111.337C9.03088 111.17 9.2583 111.076 9.49543 111.076H64.4206C64.6578 111.076 64.8852 111.17 65.0529 111.337C65.2206 111.504 65.3148 111.731 65.3148 111.967C65.3148 112.203 65.2206 112.43 65.0529 112.597C64.8852 112.764 64.6578 112.858 64.4206 112.858Z" fill="#001968"/>
<path d="M94.9098 137H0.894111C0.656978 137 0.429557 136.906 0.261879 136.739C0.0942007 136.572 0 136.345 0 136.109C0 135.872 0.0942007 135.646 0.261879 135.479C0.429557 135.312 0.656978 135.218 0.894111 135.218H94.9098C95.147 135.218 95.3744 135.312 95.5421 135.479C95.7098 135.646 95.804 135.872 95.804 136.109C95.804 136.345 95.7098 136.572 95.5421 136.739C95.3744 136.906 95.147 137 94.9098 137Z" fill="#001968"/>
</g>
<defs>
<clipPath id="clip0">
<rect width="121" height="137" fill="white"/>
</clipPath>
</defs>
</svg>
