<svg width="127" height="140" viewBox="0 0 127 140" fill="none" xmlns="http://www.w3.org/2000/svg">
<g clip-path="url(#clip0)">
<path d="M119.9 129.1H119.59C119.325 129.054 119.089 128.904 118.934 128.683C118.779 128.463 118.719 128.19 118.765 127.925C118.811 127.66 118.961 127.424 119.182 127.269C119.402 127.114 119.675 127.054 119.94 127.1H121.26V125.24C121.26 124.975 121.365 124.72 121.553 124.533C121.74 124.345 121.995 124.24 122.26 124.24C122.525 124.24 122.78 124.345 122.967 124.533C123.155 124.72 123.26 124.975 123.26 125.24V127.24C123.26 127.723 123.068 128.186 122.727 128.527C122.386 128.868 121.923 129.06 121.44 129.06H119.9V129.1ZM77.26 128.3C77.0049 128.3 76.7592 128.203 76.5733 128.029C76.3874 127.854 76.2753 127.615 76.26 127.36V122.36C76.26 122.095 76.3654 121.84 76.5529 121.653C76.7404 121.465 76.9948 121.36 77.26 121.36C77.5252 121.36 77.7796 121.465 77.9671 121.653C78.1546 121.84 78.26 122.095 78.26 122.36V127.36C78.26 127.625 78.1546 127.88 77.9671 128.067C77.7796 128.255 77.5252 128.36 77.26 128.36V128.3ZM115.83 127.75H110.83C110.565 127.75 110.31 127.645 110.123 127.457C109.935 127.27 109.83 127.015 109.83 126.75C109.828 126.567 109.877 126.387 109.97 126.23C109.878 126.359 109.757 126.465 109.616 126.538C109.475 126.611 109.319 126.649 109.16 126.65H106.82C106.82 126.65 106.82 126.72 106.82 126.75C106.82 127.015 106.715 127.27 106.527 127.457C106.34 127.645 106.085 127.75 105.82 127.75H100.82C100.555 127.75 100.3 127.645 100.113 127.457C99.9253 127.27 99.82 127.015 99.82 126.75C99.8182 126.567 99.8667 126.387 99.96 126.23C99.868 126.359 99.7465 126.465 99.6057 126.538C99.4648 126.611 99.3086 126.649 99.15 126.65H96.77C96.77 126.65 96.77 126.72 96.77 126.75C96.77 127.015 96.6646 127.27 96.4771 127.457C96.2896 127.645 96.0352 127.75 95.77 127.75H90.77C90.5048 127.75 90.2504 127.645 90.0629 127.457C89.8754 127.27 89.77 127.015 89.77 126.75C89.7682 126.567 89.8167 126.387 89.91 126.23C89.818 126.359 89.6965 126.465 89.5557 126.538C89.4148 126.611 89.2586 126.649 89.1 126.65H86.77C86.77 126.65 86.77 126.72 86.77 126.75C86.77 127.015 86.6646 127.27 86.4771 127.457C86.2896 127.645 86.0352 127.75 85.77 127.75H80.77C80.5048 127.75 80.2504 127.645 80.0629 127.457C79.8754 127.27 79.77 127.015 79.77 126.75C79.77 126.485 79.8754 126.23 80.0629 126.043C80.2504 125.855 80.5048 125.75 80.77 125.75H83.1V125.65C83.1 125.385 83.2053 125.13 83.3929 124.943C83.5804 124.755 83.8348 124.65 84.1 124.65H89.1C89.3652 124.65 89.6196 124.755 89.8071 124.943C89.9946 125.13 90.1 125.385 90.1 125.65C90.0987 125.834 90.0468 126.014 89.95 126.17C90.043 126.039 90.166 125.933 90.3087 125.86C90.4515 125.787 90.6096 125.749 90.77 125.75H93.1V125.65C93.1 125.385 93.2053 125.13 93.3929 124.943C93.5804 124.755 93.8348 124.65 94.1 124.65H99.1C99.3652 124.65 99.6196 124.755 99.8071 124.943C99.9946 125.13 100.1 125.385 100.1 125.65C100.099 125.834 100.047 126.014 99.95 126.17C100.043 126.039 100.166 125.933 100.309 125.86C100.451 125.787 100.61 125.749 100.77 125.75H103.1V125.65C103.1 125.385 103.205 125.13 103.393 124.943C103.58 124.755 103.835 124.65 104.1 124.65H109.1C109.365 124.65 109.62 124.755 109.807 124.943C109.995 125.13 110.1 125.385 110.1 125.65C110.099 125.834 110.047 126.014 109.95 126.17C110.043 126.039 110.166 125.933 110.309 125.86C110.451 125.787 110.61 125.749 110.77 125.75H113.1V125.65C113.1 125.385 113.205 125.13 113.393 124.943C113.58 124.755 113.835 124.65 114.1 124.65H118.1V123.29C117.835 123.267 117.589 123.14 117.418 122.937C117.246 122.733 117.162 122.47 117.185 122.205C117.208 121.94 117.335 121.694 117.538 121.523C117.741 121.351 118.005 121.267 118.27 121.29H119.1C119.365 121.29 119.62 121.395 119.807 121.583C119.995 121.77 120.1 122.025 120.1 122.29V125.64C120.1 125.905 119.995 126.16 119.807 126.347C119.62 126.535 119.365 126.64 119.1 126.64H116.76C116.76 126.64 116.76 126.71 116.76 126.74C116.763 127.003 116.661 127.257 116.478 127.447C116.294 127.636 116.043 127.745 115.78 127.75H115.83ZM80.42 125.39C80.1548 125.39 79.9004 125.285 79.7129 125.097C79.5253 124.91 79.42 124.655 79.42 124.39V122.3C79.42 122.035 79.5253 121.78 79.7129 121.593C79.9004 121.405 80.1548 121.3 80.42 121.3H83.33C83.5952 121.3 83.8496 121.405 84.0371 121.593C84.2246 121.78 84.33 122.035 84.33 122.3C84.33 122.565 84.2246 122.82 84.0371 123.007C83.8496 123.195 83.5952 123.3 83.33 123.3H81.37V124.39C81.37 124.655 81.2646 124.91 81.0771 125.097C80.8896 125.285 80.6352 125.39 80.37 125.39H80.42ZM113.33 123.3H108.33C108.065 123.3 107.81 123.195 107.623 123.007C107.435 122.82 107.33 122.565 107.33 122.3C107.33 122.035 107.435 121.78 107.623 121.593C107.81 121.405 108.065 121.3 108.33 121.3H113.33C113.595 121.3 113.85 121.405 114.037 121.593C114.225 121.78 114.33 122.035 114.33 122.3C114.33 122.565 114.225 122.82 114.037 123.007C113.85 123.195 113.595 123.3 113.33 123.3ZM103.33 123.3H98.33C98.0648 123.3 97.8104 123.195 97.6229 123.007C97.4354 122.82 97.33 122.565 97.33 122.3C97.33 122.035 97.4354 121.78 97.6229 121.593C97.8104 121.405 98.0648 121.3 98.33 121.3H103.33C103.595 121.3 103.85 121.405 104.037 121.593C104.225 121.78 104.33 122.035 104.33 122.3C104.33 122.565 104.225 122.82 104.037 123.007C103.85 123.195 103.595 123.3 103.33 123.3ZM93.33 123.3H88.33C88.0648 123.3 87.8104 123.195 87.6229 123.007C87.4354 122.82 87.33 122.565 87.33 122.3C87.33 122.035 87.4354 121.78 87.6229 121.593C87.8104 121.405 88.0648 121.3 88.33 121.3H93.33C93.5952 121.3 93.8496 121.405 94.0371 121.593C94.2246 121.78 94.33 122.035 94.33 122.3C94.33 122.565 94.2246 122.82 94.0371 123.007C93.8496 123.195 93.5952 123.3 93.33 123.3ZM124.25 122.76C124.102 122.759 123.957 122.725 123.823 122.661C123.69 122.597 123.573 122.505 123.48 122.39C123.313 122.186 123.233 121.925 123.257 121.663C123.282 121.401 123.408 121.159 123.61 120.99C123.77 120.86 123.9 120.695 123.988 120.508C124.076 120.321 124.121 120.117 124.12 119.91V119.31C124.12 119.087 124.066 118.867 123.963 118.668C123.861 118.47 123.712 118.299 123.53 118.17C123.394 118.071 123.285 117.94 123.21 117.79C123.063 117.87 122.898 117.911 122.73 117.91H117.73C117.465 117.91 117.21 117.805 117.023 117.617C116.835 117.43 116.73 117.175 116.73 116.91C116.73 116.645 116.835 116.39 117.023 116.203C117.21 116.015 117.465 115.91 117.73 115.91H122.73C122.918 115.911 123.103 115.964 123.262 116.065C123.421 116.166 123.549 116.31 123.63 116.48C123.794 116.389 123.981 116.347 124.169 116.358C124.356 116.368 124.537 116.431 124.69 116.54C125.133 116.854 125.493 117.269 125.742 117.751C125.991 118.233 126.121 118.768 126.12 119.31V119.91C126.12 120.411 126.009 120.906 125.794 121.359C125.58 121.812 125.268 122.212 124.88 122.53C124.69 122.688 124.447 122.77 124.2 122.76H124.25ZM73.49 121C73.2412 121.001 73.0009 120.91 72.816 120.743C72.6311 120.577 72.5149 120.347 72.49 120.1V119.36C72.49 118.46 72.8468 117.597 73.4823 116.959C74.1178 116.322 74.98 115.963 75.88 115.96H76.42C76.6852 115.96 76.9396 116.065 77.1271 116.253C77.3146 116.44 77.42 116.695 77.42 116.96C77.42 117.225 77.3146 117.48 77.1271 117.667C76.9396 117.855 76.6852 117.96 76.42 117.96H75.88C75.5104 117.963 75.1569 118.111 74.8965 118.374C74.6361 118.636 74.49 118.99 74.49 119.36V119.96C74.49 120.225 74.3846 120.48 74.1971 120.667C74.0096 120.855 73.7552 120.96 73.49 120.96V121ZM113.66 118H111.11C110.845 118 110.59 117.895 110.403 117.707C110.215 117.52 110.11 117.265 110.11 117C110.11 116.735 110.215 116.48 110.403 116.293C110.59 116.105 110.845 116 111.11 116H112.66V114.56C112.66 114.295 112.765 114.04 112.953 113.853C113.14 113.665 113.395 113.56 113.66 113.56C113.925 113.56 114.18 113.665 114.367 113.853C114.555 114.04 114.66 114.295 114.66 114.56V117C114.637 117.249 114.522 117.481 114.337 117.65C114.152 117.818 113.91 117.911 113.66 117.91V118ZM106.11 118H101.11C100.845 118 100.59 117.895 100.403 117.707C100.215 117.52 100.11 117.265 100.11 117C100.11 116.735 100.215 116.48 100.403 116.293C100.59 116.105 100.845 116 101.11 116H106.11C106.375 116 106.63 116.105 106.817 116.293C107.005 116.48 107.11 116.735 107.11 117C107.11 117.265 107.005 117.52 106.817 117.707C106.63 117.895 106.375 118 106.11 118ZM96.11 118H91.11C90.8448 118 90.5904 117.895 90.4029 117.707C90.2153 117.52 90.11 117.265 90.11 117C90.11 116.735 90.2153 116.48 90.4029 116.293C90.5904 116.105 90.8448 116 91.11 116H96.11C96.3752 116 96.6296 116.105 96.8171 116.293C97.0046 116.48 97.11 116.735 97.11 117C97.11 117.265 97.0046 117.52 96.8171 117.707C96.6296 117.895 96.3752 118 96.11 118ZM86.11 118H85.18C84.9148 118 84.6604 117.895 84.4729 117.707C84.2853 117.52 84.18 117.265 84.18 117V113C84.18 112.735 84.2853 112.48 84.4729 112.293C84.6604 112.105 84.9148 112 85.18 112H90.18C90.4452 112 90.6996 112.105 90.8871 112.293C91.0746 112.48 91.18 112.735 91.18 113C91.18 113.265 91.0746 113.52 90.8871 113.707C90.6996 113.895 90.4452 114 90.18 114H86.18V116C86.4452 116.009 86.6959 116.124 86.8768 116.318C87.0578 116.512 87.1543 116.77 87.145 117.035C87.1357 117.3 87.0214 117.551 86.8273 117.732C86.6332 117.913 86.3752 118.009 86.11 118ZM81.31 117.88C81.0448 117.88 80.7904 117.775 80.6029 117.587C80.4153 117.4 80.31 117.145 80.31 116.88V114H80.14C79.8748 114 79.6204 113.895 79.4329 113.707C79.2453 113.52 79.14 113.265 79.14 113C79.14 112.735 79.2453 112.48 79.4329 112.293C79.6204 112.105 79.8748 112 80.14 112H81.31C81.5752 112 81.8296 112.105 82.0171 112.293C82.2046 112.48 82.31 112.735 82.31 113V116.84C82.2972 117.096 82.1862 117.338 82 117.515C81.8138 117.692 81.5668 117.79 81.31 117.79V117.88ZM119.44 114H118.44C118.175 114 117.92 113.895 117.733 113.707C117.545 113.52 117.44 113.265 117.44 113C117.44 112.735 117.545 112.48 117.733 112.293C117.92 112.105 118.175 112 118.44 112H119.44C119.682 112 119.915 111.904 120.087 111.734C120.259 111.564 120.357 111.332 120.36 111.09C120.362 110.935 120.32 110.783 120.24 110.65C120.174 110.535 120.132 110.408 120.115 110.277C120.099 110.146 120.108 110.012 120.143 109.885C120.178 109.757 120.237 109.638 120.318 109.533C120.399 109.428 120.5 109.341 120.615 109.275C120.73 109.209 120.857 109.167 120.988 109.15C121.119 109.134 121.252 109.143 121.38 109.178C121.508 109.213 121.627 109.272 121.732 109.353C121.837 109.434 121.924 109.535 121.99 109.65C122.238 110.094 122.366 110.594 122.36 111.103C122.354 111.611 122.215 112.109 121.957 112.547C121.7 112.985 121.331 113.347 120.89 113.599C120.448 113.85 119.948 113.982 119.44 113.98V114ZM110.18 114H105.18C104.915 114 104.66 113.895 104.473 113.707C104.285 113.52 104.18 113.265 104.18 113C104.18 112.735 104.285 112.48 104.473 112.293C104.66 112.105 104.915 112 105.18 112H110.18C110.445 112 110.7 112.105 110.887 112.293C111.075 112.48 111.18 112.735 111.18 113C111.18 113.265 111.075 113.52 110.887 113.707C110.7 113.895 110.445 114 110.18 114ZM100.18 114H95.18C94.9148 114 94.6604 113.895 94.4729 113.707C94.2853 113.52 94.18 113.265 94.18 113C94.18 112.735 94.2853 112.48 94.4729 112.293C94.6604 112.105 94.9148 112 95.18 112H100.18C100.445 112 100.7 112.105 100.887 112.293C101.075 112.48 101.18 112.735 101.18 113C101.18 113.265 101.075 113.52 100.887 113.707C100.7 113.895 100.445 114 100.18 114ZM77.46 111.16C77.2962 111.143 77.1387 111.089 77 111C76.885 110.936 76.7838 110.851 76.702 110.748C76.6201 110.645 76.5594 110.527 76.5232 110.401C76.4869 110.274 76.476 110.142 76.4909 110.012C76.5058 109.881 76.5462 109.755 76.61 109.64C76.865 109.188 77.2355 108.812 77.6835 108.55C78.1316 108.288 78.6411 108.15 79.16 108.15H80.36C80.4088 107.923 80.5353 107.719 80.7178 107.575C80.9004 107.431 81.1274 107.355 81.36 107.36C81.6252 107.36 81.8796 107.465 82.0671 107.653C82.2546 107.84 82.36 108.095 82.36 108.36V109.15C82.36 109.415 82.2546 109.67 82.0671 109.857C81.8796 110.045 81.6252 110.15 81.36 110.15H79.13C78.9681 110.15 78.8092 110.193 78.6689 110.274C78.5286 110.354 78.4118 110.47 78.33 110.61C78.2419 110.763 78.115 110.889 77.9622 110.977C77.8095 111.065 77.6362 111.111 77.46 111.11V111.16ZM113.66 110.16H109.85C109.585 110.16 109.33 110.055 109.143 109.867C108.955 109.68 108.85 109.425 108.85 109.16C108.85 108.895 108.955 108.64 109.143 108.453C109.33 108.265 109.585 108.16 109.85 108.16H112.66V107.97C112.66 107.705 112.765 107.45 112.953 107.263C113.14 107.075 113.395 106.97 113.66 106.97C113.925 106.97 114.18 107.075 114.367 107.263C114.555 107.45 114.66 107.705 114.66 107.97V109.16C114.652 109.42 114.543 109.667 114.357 109.848C114.17 110.029 113.92 110.13 113.66 110.13V110.16ZM104.85 110.16H99.85C99.5848 110.16 99.3304 110.055 99.1429 109.867C98.9553 109.68 98.85 109.425 98.85 109.16C98.85 108.895 98.9553 108.64 99.1429 108.453C99.3304 108.265 99.5848 108.16 99.85 108.16H104.85C105.115 108.16 105.37 108.265 105.557 108.453C105.745 108.64 105.85 108.895 105.85 109.16C105.85 109.425 105.745 109.68 105.557 109.867C105.37 110.055 105.115 110.16 104.85 110.16ZM94.85 110.16H89.85C89.5848 110.16 89.3304 110.055 89.1429 109.867C88.9553 109.68 88.85 109.425 88.85 109.16C88.85 108.895 88.9553 108.64 89.1429 108.453C89.3304 108.265 89.5848 108.16 89.85 108.16H94.85C95.1152 108.16 95.3696 108.265 95.5571 108.453C95.7446 108.64 95.85 108.895 95.85 109.16C95.85 109.425 95.7446 109.68 95.5571 109.867C95.3696 110.055 95.1152 110.16 94.85 110.16ZM85.18 109.83C84.9148 109.83 84.6604 109.725 84.4729 109.537C84.2853 109.35 84.18 109.095 84.18 108.83V106.45C84.18 106.185 84.2853 105.93 84.4729 105.743C84.6604 105.555 84.9148 105.45 85.18 105.45H90.18C90.4452 105.45 90.6996 105.555 90.8871 105.743C91.0746 105.93 91.18 106.185 91.18 106.45C91.18 106.715 91.0746 106.97 90.8871 107.157C90.6996 107.345 90.4452 107.45 90.18 107.45H86.18V108.83C86.1722 109.09 86.0634 109.337 85.8767 109.518C85.69 109.699 85.4401 109.8 85.18 109.8V109.83ZM117.53 109.1C117.265 109.1 117.01 108.995 116.823 108.807C116.635 108.62 116.53 108.365 116.53 108.1V106.45C116.53 106.185 116.635 105.93 116.823 105.743C117.01 105.555 117.265 105.45 117.53 105.45H119.44C119.673 105.455 119.899 105.369 120.07 105.21C120.163 105.109 120.276 105.028 120.401 104.972C120.527 104.916 120.662 104.887 120.8 104.886C120.937 104.885 121.073 104.912 121.199 104.966C121.326 105.02 121.44 105.099 121.534 105.199C121.628 105.299 121.701 105.417 121.748 105.546C121.794 105.675 121.814 105.813 121.805 105.95C121.796 106.087 121.759 106.221 121.696 106.343C121.634 106.465 121.546 106.573 121.44 106.66C120.899 107.17 120.183 107.453 119.44 107.45H118.53V108.1C118.522 108.36 118.413 108.607 118.227 108.788C118.04 108.969 117.79 109.07 117.53 109.07V109.1ZM110.18 107.45H105.18C104.915 107.45 104.66 107.345 104.473 107.157C104.285 106.97 104.18 106.715 104.18 106.45C104.18 106.185 104.285 105.93 104.473 105.743C104.66 105.555 104.915 105.45 105.18 105.45H110.18C110.445 105.45 110.7 105.555 110.887 105.743C111.075 105.93 111.18 106.185 111.18 106.45C111.18 106.715 111.075 106.97 110.887 107.157C110.7 107.345 110.445 107.45 110.18 107.45ZM100.18 107.45H95.18C94.9148 107.45 94.6604 107.345 94.4729 107.157C94.2853 106.97 94.18 106.715 94.18 106.45C94.18 106.185 94.2853 105.93 94.4729 105.743C94.6604 105.555 94.9148 105.45 95.18 105.45H100.18C100.445 105.45 100.7 105.555 100.887 105.743C101.075 105.93 101.18 106.185 101.18 106.45C101.18 106.715 101.075 106.97 100.887 107.157C100.7 107.345 100.445 107.45 100.18 107.45ZM78.25 107.24C78.0931 107.242 77.9383 107.204 77.8 107.13C77.2115 106.846 76.7357 106.372 76.4493 105.785C76.1629 105.197 76.0825 104.531 76.2211 103.892C76.3596 103.254 76.7091 102.68 77.2132 102.264C77.7173 101.849 78.3467 101.615 79 101.6C79.1313 101.593 79.2628 101.611 79.3869 101.655C79.511 101.699 79.6252 101.766 79.7232 101.854C79.8212 101.942 79.9009 102.048 79.9578 102.166C80.0148 102.285 80.0478 102.414 80.055 102.545C80.0622 102.676 80.0435 102.808 79.9999 102.932C79.9563 103.056 79.8887 103.17 79.801 103.268C79.7132 103.366 79.607 103.446 79.4885 103.503C79.3699 103.56 79.2413 103.593 79.11 103.6C78.9102 103.611 78.7198 103.688 78.5682 103.819C78.4165 103.949 78.3121 104.126 78.2711 104.322C78.2301 104.518 78.2548 104.722 78.3414 104.902C78.428 105.083 78.5716 105.229 78.75 105.32C78.867 105.38 78.971 105.463 79.056 105.563C79.141 105.664 79.2054 105.78 79.2453 105.906C79.2853 106.031 79.3001 106.163 79.2888 106.294C79.2776 106.425 79.2406 106.553 79.18 106.67C79.0925 106.839 78.9585 106.98 78.7938 107.076C78.629 107.171 78.4403 107.218 78.25 107.21V107.24ZM119 103.59H114C113.735 103.59 113.48 103.485 113.293 103.297C113.105 103.11 113 102.855 113 102.59C113 102.325 113.105 102.07 113.293 101.883C113.48 101.695 113.735 101.59 114 101.59H119C119.265 101.59 119.52 101.695 119.707 101.883C119.895 102.07 120 102.325 120 102.59C120 102.855 119.895 103.11 119.707 103.297C119.52 103.485 119.265 103.59 119 103.59ZM109 103.59H104C103.735 103.59 103.48 103.485 103.293 103.297C103.105 103.11 103 102.855 103 102.59C103 102.325 103.105 102.07 103.293 101.883C103.48 101.695 103.735 101.59 104 101.59H109C109.265 101.59 109.52 101.695 109.707 101.883C109.895 102.07 110 102.325 110 102.59C110 102.855 109.895 103.11 109.707 103.297C109.52 103.485 109.265 103.59 109 103.59ZM99 103.59H94C93.7348 103.59 93.4804 103.485 93.2929 103.297C93.1053 103.11 93 102.855 93 102.59C93 102.325 93.1053 102.07 93.2929 101.883C93.4804 101.695 93.7348 101.59 94 101.59H99C99.2652 101.59 99.5196 101.695 99.7071 101.883C99.8946 102.07 100 102.325 100 102.59C100 102.855 99.8946 103.11 99.7071 103.297C99.5196 103.485 99.2652 103.59 99 103.59ZM89 103.59H84C83.7348 103.59 83.4804 103.485 83.2929 103.297C83.1053 103.11 83 102.855 83 102.59C83 102.325 83.1053 102.07 83.2929 101.883C83.4804 101.695 83.7348 101.59 84 101.59H89C89.2652 101.59 89.5196 101.695 89.7071 101.883C89.8946 102.07 90 102.325 90 102.59C90 102.855 89.8946 103.11 89.7071 103.297C89.5196 103.485 89.2652 103.59 89 103.59Z" fill="#001968"/>
<path d="M18.61 139.2H13.47C13.2048 139.2 12.9504 139.095 12.7629 138.907C12.5754 138.72 12.47 138.465 12.47 138.2C12.47 137.935 12.5754 137.68 12.7629 137.493C12.9504 137.305 13.2048 137.2 13.47 137.2H18.59C18.8552 137.2 19.1096 137.305 19.2971 137.493C19.4846 137.68 19.59 137.935 19.59 138.2C19.5901 138.462 19.4874 138.713 19.3042 138.9C19.121 139.087 18.8717 139.195 18.61 139.2ZM8.36 139.2H3.25C2.98478 139.2 2.73043 139.095 2.54289 138.907C2.35536 138.72 2.25 138.465 2.25 138.2C2.25 137.935 2.35536 137.68 2.54289 137.493C2.73043 137.305 2.98478 137.2 3.25 137.2H8.36C8.62522 137.2 8.87957 137.305 9.06711 137.493C9.25464 137.68 9.36 137.935 9.36 138.2C9.36 138.465 9.25464 138.72 9.06711 138.907C8.87957 139.095 8.62522 139.2 8.36 139.2ZM1 135.71C0.734784 135.71 0.48043 135.605 0.292893 135.417C0.105357 135.23 0 134.975 0 134.71L0.16 129.6C0.16 129.335 0.265357 129.08 0.452893 128.893C0.64043 128.705 0.894783 128.6 1.16 128.6C1.29132 128.6 1.42136 128.626 1.54268 128.676C1.66401 128.726 1.77425 128.8 1.86711 128.893C1.95997 128.986 2.03362 129.096 2.08388 129.217C2.13413 129.339 2.16 129.469 2.16 129.6L2 134.74C1.9922 135 1.88341 135.247 1.69671 135.428C1.51001 135.609 1.2601 135.71 1 135.71ZM20.13 135C19.8648 135 19.6104 134.895 19.4229 134.707C19.2354 134.52 19.13 134.265 19.13 134L19 128.9C19 128.635 19.1054 128.38 19.2929 128.193C19.4804 128.005 19.7348 127.9 20 127.9C20.2652 127.9 20.5196 128.005 20.7071 128.193C20.8946 128.38 21 128.635 21 128.9L21.12 134.02C21.12 134.285 21.0146 134.54 20.8271 134.727C20.6396 134.915 20.3852 135.02 20.12 135.02L20.13 135ZM1.31 125.5C1.04478 125.5 0.79043 125.395 0.602893 125.207C0.415357 125.02 0.31 124.765 0.31 124.5L0.47 119.39C0.47394 119.259 0.503707 119.129 0.557601 119.01C0.611495 118.89 0.688462 118.782 0.784106 118.692C0.879751 118.602 0.9922 118.531 1.11503 118.485C1.23787 118.438 1.36868 118.416 1.5 118.42C1.63132 118.424 1.76058 118.454 1.8804 118.508C2.00022 118.561 2.10825 118.638 2.19832 118.734C2.28839 118.83 2.35875 118.942 2.40536 119.065C2.45197 119.188 2.47394 119.319 2.47 119.45L2.32 124.56C2.30215 124.815 2.1876 125.053 1.99982 125.226C1.81204 125.399 1.56524 125.493 1.31 125.49V125.5ZM19.9 124.77C19.6348 124.77 19.3804 124.665 19.1929 124.477C19.0054 124.29 18.9 124.035 18.9 123.77L18.78 118.66C18.78 118.395 18.8854 118.14 19.0729 117.953C19.2604 117.765 19.5148 117.66 19.78 117.66C20.0452 117.66 20.2996 117.765 20.4871 117.953C20.6746 118.14 20.78 118.395 20.78 118.66L20.9 123.77C20.9 124.035 20.7946 124.29 20.6071 124.477C20.4196 124.665 20.1652 124.77 19.9 124.77ZM1.62 115.27C1.35478 115.27 1.10043 115.165 0.912893 114.977C0.725357 114.79 0.62 114.535 0.62 114.27L0.78 109.16C0.787956 108.895 0.900944 108.644 1.09411 108.462C1.28727 108.28 1.54478 108.182 1.81 108.19C2.07522 108.198 2.32641 108.311 2.50832 108.504C2.69023 108.697 2.78796 108.955 2.78 109.22L2.62 114.33C2.60469 114.585 2.49261 114.824 2.30671 114.999C2.12081 115.173 1.87514 115.27 1.62 115.27ZM19.62 114.54C19.3548 114.54 19.1004 114.435 18.9129 114.247C18.7254 114.06 18.62 113.805 18.62 113.54L18.5 108.43C18.5 108.165 18.6054 107.91 18.7929 107.723C18.9804 107.535 19.2348 107.43 19.5 107.43C19.7652 107.43 20.0196 107.535 20.2071 107.723C20.3946 107.91 20.5 108.165 20.5 108.43L20.61 113.54C20.61 113.805 20.5046 114.06 20.3171 114.247C20.1296 114.435 19.8752 114.54 19.61 114.54H19.62ZM1.93 105C1.66478 105 1.41043 104.895 1.22289 104.707C1.03536 104.52 0.93 104.265 0.93 104L1.09 98.89C1.09 98.6248 1.19536 98.3704 1.38289 98.1829C1.57043 97.9953 1.82478 97.89 2.09 97.89C2.35522 97.89 2.60957 97.9953 2.79711 98.1829C2.98464 98.3704 3.09 98.6248 3.09 98.89L2.93 104.01C2.92737 104.273 2.82085 104.525 2.63359 104.711C2.44634 104.896 2.19349 105 1.93 105ZM19.43 104.28C19.1648 104.28 18.9104 104.175 18.7229 103.987C18.5354 103.8 18.43 103.545 18.43 103.28L18.32 98.17C18.32 97.9048 18.4254 97.6504 18.6129 97.4629C18.8004 97.2753 19.0548 97.17 19.32 97.17C19.5852 97.17 19.8396 97.2753 20.0271 97.4629C20.2146 97.6504 20.32 97.9048 20.32 98.17L20.44 103.28C20.44 103.545 20.3346 103.8 20.1471 103.987C19.9596 104.175 19.7052 104.28 19.44 104.28H19.43ZM2.24 94.82C1.97478 94.82 1.72043 94.7146 1.53289 94.5271C1.34536 94.3396 1.24 94.0852 1.24 93.82L1.4 88.71C1.4 88.4448 1.50536 88.1904 1.69289 88.0029C1.88043 87.8153 2.13478 87.71 2.4 87.71C2.66522 87.71 2.91957 87.8153 3.10711 88.0029C3.29464 88.1904 3.4 88.4448 3.4 88.71L3.24 93.82C3.24 94.0852 3.13464 94.3396 2.94711 94.5271C2.75957 94.7146 2.50522 94.82 2.24 94.82ZM19.24 94.09C18.9748 94.09 18.7204 93.9846 18.5329 93.7971C18.3454 93.6096 18.24 93.3552 18.24 93.09L18.08 88C18.08 87.7348 18.1854 87.4804 18.3729 87.2929C18.5604 87.1053 18.8148 87 19.08 87C19.3452 87 19.5996 87.1053 19.7871 87.2929C19.9746 87.4804 20.08 87.7348 20.08 88L20.2 93.11C20.2 93.3752 20.0946 93.6296 19.9071 93.8171C19.7196 94.0046 19.4652 94.11 19.2 94.11L19.24 94.09ZM2.55 84.6C2.28478 84.6 2.03043 84.4946 1.84289 84.3071C1.65536 84.1196 1.55 83.8652 1.55 83.6L1.71 78.49C1.71796 78.2248 1.83094 77.9736 2.02411 77.7917C2.21727 77.6098 2.47478 77.512 2.74 77.52C3.00522 77.5279 3.25641 77.6409 3.43832 77.8341C3.62023 78.0273 3.71796 78.2848 3.71 78.55L3.55 83.66C3.53469 83.9147 3.42261 84.1539 3.23671 84.3286C3.05081 84.5034 2.80514 84.6005 2.55 84.6ZM19 83.87C18.7348 83.87 18.4804 83.7646 18.2929 83.5771C18.1054 83.3896 18 83.1352 18 82.87L17.88 77.76C17.88 77.4948 17.9854 77.2404 18.1729 77.0529C18.3604 76.8654 18.6148 76.76 18.88 76.76C19.1452 76.76 19.3996 76.8654 19.5871 77.0529C19.7746 77.2404 19.88 77.4948 19.88 77.76L20 82.85C20 83.1152 19.8946 83.3696 19.7071 83.5571C19.5196 83.7446 19.2652 83.85 19 83.85V83.87ZM3.05 74.42C2.87391 74.4182 2.70143 74.3699 2.55 74.28C2.43625 74.2138 2.33667 74.1259 2.25698 74.0211C2.17729 73.9164 2.11906 73.797 2.08561 73.6697C2.05217 73.5424 2.04417 73.4098 2.06209 73.2795C2.08 73.1491 2.12347 73.0235 2.19 72.91C2.42084 72.5182 2.74968 72.1932 3.14418 71.967C3.53868 71.7409 3.98526 71.6213 4.44 71.62H7.88C8.14522 71.62 8.39957 71.7254 8.58711 71.9129C8.77464 72.1004 8.88 72.3548 8.88 72.62C8.88 72.8852 8.77464 73.1396 8.58711 73.3271C8.39957 73.5146 8.14522 73.62 7.88 73.62H4.44C4.33441 73.6189 4.23046 73.6461 4.13899 73.6989C4.04753 73.7517 3.9719 73.828 3.92 73.92C3.8319 74.0726 3.70503 74.1992 3.55225 74.287C3.39948 74.3748 3.22621 74.4207 3.05 74.42ZM18.05 73.89C17.854 73.8885 17.6627 73.8293 17.5 73.72C17.4012 73.6571 17.2871 73.6225 17.17 73.62H13C12.7348 73.62 12.4804 73.5146 12.2929 73.3271C12.1054 73.1396 12 72.8852 12 72.62C12 72.3548 12.1054 72.1004 12.2929 71.9129C12.4804 71.7254 12.7348 71.62 13 71.62H17.18C17.6932 71.6196 18.1947 71.7728 18.62 72.06C18.8376 72.2082 18.988 72.4362 19.0385 72.6945C19.0891 72.9529 19.0357 73.2207 18.89 73.44C18.7985 73.579 18.6737 73.6929 18.5271 73.7715C18.3804 73.8501 18.2164 73.8908 18.05 73.89Z" fill="#001968"/>
<path d="M10.77 72.65C10.5048 72.65 10.2504 72.5447 10.0629 72.3571C9.87538 72.1696 9.77002 71.9152 9.77002 71.65V69.15C9.77002 68.8848 9.87538 68.6305 10.0629 68.4429C10.2504 68.2554 10.5048 68.15 10.77 68.15C11.0352 68.15 11.2896 68.2554 11.4771 68.4429C11.6647 68.6305 11.77 68.8848 11.77 69.15V71.65C11.77 71.9152 11.6647 72.1696 11.4771 72.3571C11.2896 72.5447 11.0352 72.65 10.77 72.65Z" fill="#001968"/>
<path d="M10.77 65.1899C10.5048 65.1899 10.2504 65.0846 10.0629 64.897C9.87538 64.7095 9.77002 64.4551 9.77002 64.1899V59.1899C9.77002 58.9247 9.87538 58.6703 10.0629 58.4828C10.2504 58.2953 10.5048 58.1899 10.77 58.1899C11.0352 58.1899 11.2896 58.2953 11.4771 58.4828C11.6647 58.6703 11.77 58.9247 11.77 59.1899V64.1899C11.77 64.4551 11.6647 64.7095 11.4771 64.897C11.2896 65.0846 11.0352 65.1899 10.77 65.1899ZM10.77 55.2699C10.5048 55.2699 10.2504 55.1646 10.0629 54.977C9.87538 54.7895 9.77002 54.5351 9.77002 54.2699V49.2699C9.77002 49.0047 9.87538 48.7503 10.0629 48.5628C10.2504 48.3753 10.5048 48.2699 10.77 48.2699C11.0352 48.2699 11.2896 48.3753 11.4771 48.5628C11.6647 48.7503 11.77 49.0047 11.77 49.2699V54.2699C11.77 54.5351 11.6647 54.7895 11.4771 54.977C11.2896 55.1646 11.0352 55.2699 10.77 55.2699ZM10.77 45.3399C10.5048 45.3399 10.2504 45.2346 10.0629 45.047C9.87538 44.8595 9.77002 44.6051 9.77002 44.3399V39.3399C9.77002 39.0747 9.87538 38.8203 10.0629 38.6328C10.2504 38.4453 10.5048 38.3399 10.77 38.3399C11.0352 38.3399 11.2896 38.4453 11.4771 38.6328C11.6647 38.8203 11.77 39.0747 11.77 39.3399V44.3399C11.77 44.4712 11.7442 44.6013 11.6939 44.7226C11.6436 44.8439 11.57 44.9542 11.4771 45.047C11.3843 45.1399 11.274 45.2135 11.1527 45.2638C11.0314 45.314 10.9013 45.3399 10.77 45.3399ZM10.77 35.4199C10.5048 35.4199 10.2504 35.3146 10.0629 35.127C9.87538 34.9395 9.77002 34.6851 9.77002 34.4199V29.4199C9.77002 29.1547 9.87538 28.9003 10.0629 28.7128C10.2504 28.5253 10.5048 28.4199 10.77 28.4199C11.0352 28.4199 11.2896 28.5253 11.4771 28.7128C11.6647 28.9003 11.77 29.1547 11.77 29.4199V34.4199C11.77 34.5512 11.7442 34.6813 11.6939 34.8026C11.6436 34.9239 11.57 35.0342 11.4771 35.127C11.3843 35.2199 11.274 35.2935 11.1527 35.3438C11.0314 35.3941 10.9013 35.4199 10.77 35.4199ZM10.77 25.4999C10.5048 25.4999 10.2504 25.3946 10.0629 25.207C9.87538 25.0195 9.77002 24.7651 9.77002 24.4999C9.80058 22.7884 9.97453 21.0824 10.29 19.3999C10.3404 19.1347 10.4941 18.9004 10.7173 18.7485C10.9404 18.5966 11.2148 18.5395 11.48 18.5899C11.7452 18.6403 11.9796 18.794 12.1315 19.0172C12.2834 19.2403 12.3404 19.5147 12.29 19.7799C11.9979 21.3538 11.8373 22.9493 11.81 24.5499C11.8038 24.6849 11.7703 24.8172 11.7116 24.9389C11.6528 25.0606 11.57 25.1691 11.4681 25.2579C11.3662 25.3467 11.2474 25.4139 11.1188 25.4555C10.9903 25.4971 10.8546 25.5122 10.72 25.4999H10.77Z" fill="#001968"/>
<path d="M12.8401 15.9C12.6649 15.9012 12.4925 15.8564 12.3401 15.77C12.1137 15.6331 11.9508 15.412 11.8871 15.1552C11.8234 14.8985 11.864 14.6269 12.0001 14.4C12.4693 13.5772 13.0668 12.8345 13.7701 12.2C13.8685 12.1092 13.9841 12.039 14.1102 11.9937C14.2362 11.9485 14.37 11.9289 14.5037 11.9363C14.6374 11.9438 14.7683 11.978 14.8886 12.0369C15.0088 12.0959 15.116 12.1783 15.2037 12.2795C15.2915 12.3807 15.358 12.4984 15.3994 12.6258C15.4408 12.7531 15.4562 12.8875 15.4447 13.0209C15.4331 13.1543 15.3949 13.2841 15.3323 13.4025C15.2697 13.5208 15.1839 13.6254 15.0801 13.71C14.5409 14.1959 14.0848 14.7668 13.7301 15.4C13.6403 15.5556 13.5103 15.6842 13.3537 15.7721C13.1971 15.8601 13.0197 15.9043 12.8401 15.9Z" fill="#001968"/>
<path d="M19.75 17.12C19.1565 17.117 18.5668 17.026 18 16.85C17.7542 16.7657 17.5509 16.589 17.4331 16.3573C17.3153 16.1256 17.2923 15.8572 17.369 15.6089C17.4457 15.3606 17.6161 15.1519 17.844 15.0271C18.0719 14.9022 18.3395 14.871 18.59 14.94C19.3433 15.1671 20.1468 15.1671 20.9 14.94L22.9 14.37C23.156 14.297 23.4304 14.3288 23.6629 14.4582C23.8955 14.5876 24.0671 14.804 24.14 15.06C24.213 15.3159 24.1812 15.5903 24.0518 15.8229C23.9224 16.0554 23.706 16.227 23.45 16.3L21.45 16.86C20.8988 17.0278 20.3262 17.1154 19.75 17.12ZM27.89 15C27.7587 15.0184 27.625 15.0107 27.4967 14.9774C27.3683 14.9442 27.2478 14.8859 27.1419 14.8061C26.9281 14.6448 26.7871 14.4052 26.75 14.14C26.7129 13.8748 26.7826 13.6057 26.9439 13.3919C27.1052 13.1781 27.3448 13.0371 27.61 13L32.39 11.63C32.5184 11.5858 32.6544 11.5682 32.7898 11.5782C32.9252 11.5883 33.0571 11.6258 33.1775 11.6885C33.2979 11.7512 33.4043 11.8378 33.4902 11.9429C33.576 12.048 33.6396 12.1696 33.677 12.3001C33.7144 12.4306 33.7248 12.5673 33.7076 12.702C33.6904 12.8367 33.646 12.9664 33.5771 13.0834C33.5081 13.2003 33.4161 13.302 33.3065 13.3822C33.197 13.4624 33.0723 13.5195 32.94 13.55L28.17 14.92C28.0811 14.9602 27.9868 14.9871 27.89 15ZM14.89 13.5C14.6883 13.4869 14.4953 13.413 14.3364 13.2881C14.1775 13.1631 14.0602 12.9929 14 12.8C14 12.8 14 12.73 14 12.72C13.8399 12.1778 13.759 11.6153 13.76 11.05C13.7643 9.61942 14.2703 8.23571 15.19 7.13997C15.3558 6.95386 15.585 6.83634 15.8329 6.81044C16.0808 6.78454 16.3294 6.85213 16.53 6.99997C16.6306 7.08463 16.7134 7.18827 16.7739 7.30497C16.8343 7.42167 16.8712 7.54914 16.8823 7.6801C16.8934 7.81105 16.8787 7.94292 16.8388 8.06816C16.799 8.19339 16.7348 8.30955 16.65 8.40997C16.0183 9.13817 15.6642 10.0661 15.65 11.03C15.6491 11.4124 15.7029 11.7929 15.81 12.16C15.8585 12.3135 15.8692 12.4765 15.8412 12.6351C15.8131 12.7937 15.7472 12.9431 15.649 13.0708C15.5509 13.1984 15.4233 13.3004 15.2772 13.3682C15.1312 13.436 14.9709 13.4674 14.81 13.46L14.89 13.5ZM37.45 12.26C37.2256 12.2683 37.0049 12.2008 36.8235 12.0683C36.6421 11.9359 36.5105 11.7463 36.45 11.53C36.3792 11.2754 36.412 11.0031 36.5413 10.7726C36.6706 10.5421 36.8858 10.3722 37.14 10.3L39.02 9.74997C39.8021 9.53286 40.4997 9.08294 41.02 8.45997C41.1041 8.35886 41.2072 8.27528 41.3235 8.21402C41.4399 8.15277 41.5672 8.11502 41.6981 8.10295C41.829 8.09088 41.9611 8.10472 42.0866 8.14367C42.2122 8.18262 42.3289 8.24593 42.43 8.32997C42.5311 8.41402 42.6147 8.51716 42.676 8.6335C42.7372 8.74985 42.775 8.87712 42.787 9.00805C42.7991 9.13898 42.7853 9.27101 42.7463 9.39659C42.7074 9.52217 42.6441 9.63885 42.56 9.73997C41.7765 10.672 40.7315 11.3478 39.56 11.68L37.68 12.22C37.6008 12.2338 37.5205 12.2405 37.44 12.24L37.45 12.26ZM20.27 6.63997C20.0048 6.6771 19.7357 6.60736 19.5219 6.44607C19.3081 6.28479 19.1671 6.04519 19.13 5.77997C19.0929 5.51476 19.1626 5.24565 19.3239 5.03186C19.4852 4.81807 19.7248 4.6771 19.99 4.63997L24.77 3.26997C25.0196 3.21252 25.2817 3.253 25.5023 3.38307C25.7229 3.51315 25.8852 3.7229 25.9557 3.9691C26.0262 4.21529 25.9996 4.47916 25.8813 4.70631C25.7631 4.93346 25.5622 5.10658 25.32 5.18997L20.54 6.59997C20.4528 6.62794 20.3616 6.64145 20.27 6.63997ZM42.79 5.40997C42.5669 5.41885 42.3472 5.35279 42.1659 5.2223C41.9847 5.09181 41.8524 4.90441 41.79 4.68997C41.5977 4.06126 41.2563 3.48832 40.7949 3.01995C40.3335 2.55159 39.7658 2.20166 39.14 1.99997C38.9088 1.90424 38.7219 1.72532 38.6162 1.49852C38.5105 1.27172 38.4937 1.01353 38.569 0.774921C38.6444 0.536311 38.8064 0.33462 39.0232 0.209665C39.24 0.0847097 39.4958 0.0455703 39.74 0.0999734C40.6897 0.397738 41.5514 0.924828 42.2491 1.63467C42.9467 2.34452 43.4588 3.21526 43.74 4.16997C43.7783 4.29669 43.791 4.42974 43.7775 4.56141C43.764 4.69309 43.7244 4.82077 43.6612 4.93705C43.5979 5.05333 43.5122 5.15589 43.409 5.23879C43.3058 5.32169 43.1872 5.38327 43.06 5.41997C42.9699 5.42505 42.8795 5.4217 42.79 5.40997ZM29.79 3.88997C29.5669 3.89885 29.3472 3.83279 29.1659 3.7023C28.9847 3.57181 28.8524 3.38441 28.79 3.16997C28.7158 2.91537 28.7457 2.64169 28.8732 2.40914C29.0007 2.1766 29.2154 2.00423 29.47 1.92997L34.32 0.559973C34.4467 0.523391 34.5795 0.512239 34.7105 0.527161C34.8416 0.542082 34.9684 0.582782 35.0836 0.646916C35.1989 0.711051 35.3003 0.797352 35.3821 0.900851C35.4638 1.00435 35.5243 1.123 35.56 1.24997C35.6309 1.50456 35.5981 1.77685 35.4688 2.00732C35.3395 2.2378 35.1242 2.40773 34.87 2.47997L30.09 3.85997C30.0014 3.87983 29.9108 3.88989 29.82 3.88997H29.79Z" fill="#001968"/>
<path d="M71.0601 115.54C70.3901 112.54 69.7501 106.75 74.6101 107.42C77.6101 107.83 77.9301 111.7 80.0101 113.42C81.2501 114.42 83.0101 112.68 81.7801 111.66C80.0801 110.26 79.7101 107.82 78.0701 106.34C77.3225 105.706 76.4341 105.26 75.4791 105.039C74.5242 104.818 73.5302 104.829 72.5801 105.07C67.4101 106.34 67.7101 112.07 68.6401 116.23C69.0001 117.8 71.4101 117.13 71.0601 115.56V115.54Z" fill="#FF6700"/>
<path d="M81.621 111.862L68.7433 116.266C66.7157 116.959 65.6341 119.165 66.3275 121.193L68.392 127.229C69.0854 129.257 71.2912 130.339 73.3188 129.645L86.1966 125.241C88.2241 124.548 89.3057 122.342 88.6123 120.314L86.5478 114.278C85.8544 112.25 83.6486 111.169 81.621 111.862Z" fill="#FF6700"/>
<path d="M71.2699 109.32C74.2063 105.361 76.6822 101.08 78.6499 96.5599C80.7436 91.84 81.7909 86.7229 81.7199 81.5599C81.6891 76.994 80.4727 72.5144 78.1899 68.5599C76.3513 65.5311 73.7698 63.0218 70.6899 61.27C66.5675 58.9853 61.9428 57.7587 57.2299 57.7C52.5153 57.7361 47.8835 58.9422 43.7499 61.2099C40.6652 62.9526 38.074 65.4508 36.2199 68.47C33.9241 72.4001 32.6872 76.8587 32.6299 81.41C32.3499 88.72 34.9299 96.7299 40.2799 105.22C43.4484 110.151 47.0888 114.763 51.1499 118.99C51.1499 118.99 51.6299 119.39 51.5599 122.28C51.5558 125.426 51.3554 128.569 50.9599 131.69C50.9099 132.16 50.7199 132.3 50.4999 132.33L41.8899 131.69C40.9494 131.339 39.918 131.315 38.9619 131.621C38.0059 131.928 37.181 132.547 36.6199 133.38C33.6199 137.77 40.8099 137.17 40.8099 137.17H54.4899C55.3799 137.22 55.8999 136.31 56.0299 135.74C56.344 134.058 56.5477 132.358 56.6399 130.65C56.7237 132.361 56.9208 134.065 57.2299 135.75C57.3499 136.32 57.8699 137.23 58.7699 137.18H72.4399C72.4399 137.18 79.6699 137.81 76.6499 133.4C76.0894 132.567 75.2655 131.945 74.3101 131.635C73.3548 131.325 72.3231 131.344 71.3799 131.69L62.7699 132.3C62.5499 132.3 62.3599 132.13 62.3099 131.65C61.9429 128.58 61.7593 125.491 61.7599 122.4V121.78V120.87C62.0723 120.23 62.4917 119.648 62.9999 119.15C65.979 116.067 68.7422 112.783 71.2699 109.32ZM57.8999 116.59L57.1299 117.32L55.9999 116.26C49.9999 110.17 37.5399 95.76 38.0699 81.69C38.7399 64.06 54.1599 63.1999 57.2399 63.2099C60.3199 63.2199 75.7299 64.1399 76.3199 81.7699C76.5599 88.9199 73.3199 97.3399 66.9099 106.13C64.1804 109.843 61.1681 113.34 57.8999 116.59Z" fill="#001968"/>
<path d="M73.3801 137.73C72.8901 137.73 72.5301 137.73 72.3801 137.73H58.7301C58.2628 137.699 57.8199 137.51 57.4745 137.194C57.1291 136.877 56.9018 136.453 56.8301 135.99C56.7501 135.61 56.6701 135.17 56.6001 134.65C56.5301 135.17 56.4501 135.65 56.3601 135.99C56.2964 136.459 56.0686 136.89 55.717 137.207C55.3655 137.523 54.913 137.705 54.4401 137.72H40.8101C40.4201 137.72 36.7101 138.01 35.7301 136.31C35.2801 135.54 35.4801 134.54 36.3101 133.31C36.9065 132.399 37.792 131.715 38.8241 131.369C39.8562 131.023 40.9749 131.033 42.0001 131.4L50.5601 132.04C50.5601 132.04 50.5601 132.04 50.6201 131.73C51.0074 128.622 51.2045 125.492 51.2101 122.36C51.2801 119.85 50.9201 119.36 50.9101 119.36C46.8323 115.105 43.1784 110.463 40.0001 105.5C34.6101 96.9499 32.0001 88.8599 32.2901 81.4999C32.3358 76.8782 33.5797 72.3473 35.9001 68.3499C37.7987 65.2945 40.4365 62.7667 43.5701 60.9999C47.7384 58.6528 52.4413 57.4197 57.2251 57.4197C62.0088 57.4197 66.7118 58.6528 70.8801 60.9999C74.011 62.7913 76.6362 65.3477 78.5101 68.4299C80.8227 72.4295 82.0595 76.9601 82.1001 81.5799C82.1657 86.7842 81.1083 91.9414 79.0001 96.6999C77.0329 101.251 74.5464 105.56 71.5901 109.54C69.0416 113.016 66.2585 116.314 63.2601 119.41C62.8035 119.893 62.4286 120.447 62.1501 121.05V121.91V122.55C62.1399 125.622 62.3236 128.691 62.7001 131.74C62.7001 132.05 62.7901 132.06 62.8401 132.07L71.3201 131.46C72.34 131.096 73.4522 131.082 74.4809 131.42C75.5096 131.759 76.396 132.431 77.0001 133.33C77.8201 134.54 78.0001 135.54 77.5701 136.33C76.8101 137.53 74.6601 137.73 73.3801 137.73ZM58.7501 136.9H72.4501C73.4501 136.99 76.2401 136.98 76.8801 135.9C77.1701 135.4 76.9901 134.67 76.3401 133.73C75.8268 132.968 75.0742 132.399 74.2012 132.113C73.3282 131.827 72.3848 131.84 71.5201 132.15H71.4101L62.8001 132.76C62.5598 132.726 62.3401 132.606 62.1818 132.422C62.0236 132.238 61.9377 132.003 61.9401 131.76C61.5682 128.677 61.3845 125.575 61.3901 122.47V121.83V120.9C61.6919 120.154 62.137 119.475 62.7001 118.9C65.6895 115.829 68.4628 112.554 71.0001 109.1C73.9117 105.164 76.3611 100.906 78.3001 96.4099C80.3555 91.7471 81.3789 86.6951 81.3001 81.5999C81.2611 77.1143 80.0623 72.7151 77.8201 68.8299C76.0087 65.8582 73.4729 63.3947 70.4501 61.6699C66.3882 59.4127 61.8267 58.2062 57.1801 58.1599C52.5463 58.1986 47.9943 59.3839 43.9301 61.6099C40.9002 63.3226 38.3542 65.7758 36.5301 68.7399C34.2721 72.6174 33.056 77.0133 33.0001 81.4999C32.7301 88.7399 35.2801 96.6799 40.5901 105.1C43.7482 110.009 47.3752 114.601 51.4201 118.81C51.5801 118.93 52.0101 119.59 51.9301 122.37C51.9236 125.533 51.7232 128.692 51.3301 131.83C51.3404 132.055 51.2677 132.276 51.1258 132.451C50.9838 132.627 50.7825 132.743 50.5601 132.78L41.7501 132.12C40.8897 131.796 39.9449 131.773 39.0697 132.054C38.1945 132.336 37.4403 132.905 36.9301 133.67C36.2801 134.61 36.0901 135.34 36.3801 135.84C37.0201 136.94 39.7701 136.96 40.7801 136.84H54.4901C55.2401 136.84 55.5901 136.01 55.6601 135.7C55.9768 134.049 56.1806 132.379 56.2701 130.7H57.0001C57.0863 132.378 57.2834 134.048 57.5901 135.7C57.6601 136.06 58.0001 137 58.7501 136.9ZM57.0701 117.9L56.8201 117.52L55.7301 116.52C50.1101 110.82 37.1301 96.0299 37.6701 81.6699C38.3501 63.7699 54.0001 62.8299 57.1901 62.8299C60.3301 62.8299 76.0401 63.8299 76.6501 81.7599C76.8901 88.9899 73.6501 97.4999 67.1601 106.35C64.4364 110.081 61.4273 113.595 58.1601 116.86L57.0701 117.9ZM57.1901 63.5699C54.0801 63.5699 39.0701 64.4699 38.4201 81.6899C37.8901 95.7699 50.7101 110.36 56.2501 115.99L57.1301 116.8L57.6301 116.31C60.8938 113.077 63.9028 109.597 66.6301 105.9C72.9701 97.1799 76.2001 88.8399 75.9701 81.7699C75.3901 64.4799 60.2801 63.5799 57.2601 63.5699H57.1901Z" fill="#001968"/>
<path d="M57.1901 92.6C64.1654 92.6 69.8201 86.9453 69.8201 79.97C69.8201 72.9946 64.1654 67.34 57.1901 67.34C50.2147 67.34 44.5601 72.9946 44.5601 79.97C44.5601 86.9453 50.2147 92.6 57.1901 92.6Z" fill="#FF6700"/>
<path d="M57 82.5499C56.5296 82.5473 56.0794 82.3586 55.7478 82.0251C55.4161 81.6915 55.23 81.2403 55.23 80.7699V72.6199C55.2636 72.1722 55.4652 71.7537 55.7944 71.4483C56.1236 71.143 56.556 70.9733 57.005 70.9733C57.454 70.9733 57.8864 71.143 58.2156 71.4483C58.5447 71.7537 58.7463 72.1722 58.78 72.6199V80.7699C58.78 81.242 58.5924 81.6948 58.2586 82.0286C57.9248 82.3624 57.4721 82.5499 57 82.5499Z" fill="#001968"/>
<path d="M57.0001 89.61C56.5297 89.6073 56.0796 89.4186 55.7479 89.0851C55.4163 88.7516 55.2301 88.3003 55.2301 87.83V86.62C55.2117 86.3757 55.244 86.1302 55.3249 85.899C55.4058 85.6677 55.5335 85.4557 55.7002 85.2761C55.8668 85.0965 56.0687 84.9532 56.2932 84.8552C56.5178 84.7572 56.7601 84.7067 57.0051 84.7067C57.2501 84.7067 57.4924 84.7572 57.717 84.8552C57.9415 84.9532 58.1434 85.0965 58.31 85.2761C58.4767 85.4557 58.6044 85.6677 58.6853 85.899C58.7662 86.1302 58.7984 86.3757 58.7801 86.62V87.83C58.7801 88.3021 58.5926 88.7548 58.2587 89.0886C57.9249 89.4225 57.4722 89.61 57.0001 89.61Z" fill="#001968"/>
<path d="M56.87 100.24C56.3566 100.237 55.8491 100.13 55.3782 99.9255C54.9073 99.721 54.4827 99.4232 54.13 99.05C52.13 97.05 49.64 98.92 49.54 98.99C49.4711 99.0552 49.3892 99.1051 49.2996 99.1362C49.21 99.1674 49.1148 99.1792 49.0203 99.1708C48.9258 99.1624 48.8341 99.1341 48.7514 99.0876C48.6687 99.0412 48.5968 98.9777 48.5404 98.9014C48.4841 98.8251 48.4446 98.7377 48.4245 98.6449C48.4045 98.5522 48.4044 98.4563 48.4242 98.3635C48.444 98.2707 48.4833 98.1832 48.5395 98.1067C48.5956 98.0303 48.6674 97.9666 48.75 97.92C49.98 97.02 52.88 95.92 55.08 98.1C56.86 99.88 59.02 98.16 59.34 97.88C59.943 97.1236 60.8196 96.635 61.78 96.52C62.3486 96.5101 62.9124 96.626 63.431 96.8594C63.9497 97.0928 64.4103 97.4379 64.78 97.87C64.8417 97.9317 64.8907 98.005 64.9241 98.0856C64.9575 98.1663 64.9747 98.2527 64.9747 98.34C64.9747 98.4273 64.9575 98.5137 64.9241 98.5944C64.8907 98.675 64.8417 98.7483 64.78 98.81C64.7183 98.8717 64.645 98.9207 64.5644 98.9541C64.4837 98.9875 64.3973 99.0047 64.31 99.0047C64.2227 99.0047 64.1363 98.9875 64.0557 98.9541C63.975 98.9207 63.9017 98.8717 63.84 98.81C63.6025 98.5045 63.2996 98.2561 62.9535 98.083C62.6074 97.91 62.2269 97.8167 61.84 97.81C61.2376 97.8928 60.6918 98.2088 60.32 98.69L60.23 98.79C59.3134 99.6504 58.1249 100.163 56.87 100.24Z" fill="#001968"/>
<path d="M77.6501 56.33L38.5801 56.02L41.3101 47.34L75.0501 47.6L77.6501 56.33Z" fill="#FF6700"/>
<path d="M84.9199 62.91L31.2 62.49L34.91 57.08L81.3 57.44L84.9199 62.91Z" fill="#FF6700"/>
</g>
<defs>
<clipPath id="clip0">
<rect width="126.07" height="139.2" fill="white"/>
</clipPath>
</defs>
</svg>
