<svg width="106" height="111" viewBox="0 0 106 111" fill="none" xmlns="http://www.w3.org/2000/svg">
<g clip-path="url(#clip0)">
<path d="M101.468 82.6417H68.9959C68.1468 82.6417 67.4585 83.332 67.4585 84.1835V84.1924C67.4585 85.0439 68.1468 85.7342 68.9959 85.7342H101.468C102.317 85.7342 103.005 85.0439 103.005 84.1924V84.1835C103.005 83.332 102.317 82.6417 101.468 82.6417Z" fill="#001968"/>
<path d="M103.867 88.9337H66.5967C65.4188 88.9337 64.4639 89.8913 64.4639 91.0726V91.1438C64.4639 92.3251 65.4188 93.2827 66.5967 93.2827H103.867C105.045 93.2827 106 92.3251 106 91.1438V91.0726C106 89.8913 105.045 88.9337 103.867 88.9337Z" fill="#001968"/>
<path d="M103.085 92.5787H101.859C101.684 92.5787 101.517 92.6482 101.394 92.7719C101.27 92.8956 101.201 93.0633 101.201 93.2382V95.9921H69.9912V93.2382C69.9912 93.0633 69.9219 92.8956 69.7986 92.7719C69.6753 92.6482 69.508 92.5787 69.3336 92.5787H68.1161C67.9417 92.5787 67.7744 92.6482 67.6511 92.7719C67.5278 92.8956 67.4585 93.0633 67.4585 93.2382V97.3111C67.4585 97.486 67.5278 97.6537 67.6511 97.7774C67.7744 97.9011 67.9417 97.9706 68.1161 97.9706H69.3158C69.4902 97.9706 69.6575 97.9011 69.7808 97.7774C69.9041 97.6537 69.9734 97.486 69.9734 97.3111V96.8744H101.174V97.3111C101.174 97.486 101.244 97.6537 101.367 97.7774C101.49 97.9011 101.658 97.9706 101.832 97.9706H103.085C103.259 97.9706 103.427 97.9011 103.55 97.7774C103.673 97.6537 103.743 97.486 103.743 97.3111V93.2382C103.743 93.0633 103.673 92.8956 103.55 92.7719C103.427 92.6482 103.259 92.5787 103.085 92.5787Z" fill="#001968"/>
<path d="M101.468 77.3658H68.9959C68.1468 77.3658 67.4585 78.0561 67.4585 78.9076V78.9165C67.4585 79.768 68.1468 80.4583 68.9959 80.4583H101.468C102.317 80.4583 103.005 79.768 103.005 78.9165V78.9076C103.005 78.0561 102.317 77.3658 101.468 77.3658Z" fill="#001968"/>
<path d="M99.9305 86.2333H96.8113V88.3009H99.9305V86.2333Z" fill="#001968"/>
<path d="M99.9305 80.9484H96.8113V82.1426H99.9305V80.9484Z" fill="#001968"/>
<path d="M73.8748 86.2333H70.7556V88.3009H73.8748V86.2333Z" fill="#001968"/>
<path d="M73.8748 80.9484H70.7556V82.1426H73.8748V80.9484Z" fill="#001968"/>
<path d="M14.2187 111H1.2886C1.11863 111 0.95034 110.966 0.793422 110.901C0.636504 110.835 0.494057 110.739 0.374286 110.618C0.254515 110.497 0.159786 110.354 0.0955544 110.196C0.031323 110.038 -0.00114154 109.869 3.06466e-05 109.699L1.52854 59.3277C1.52736 59.1573 1.55983 58.9883 1.62406 58.8305C1.68829 58.6726 1.78302 58.5291 1.90279 58.4082C2.02256 58.2872 2.16501 58.1913 2.32193 58.1258C2.47884 58.0603 2.64713 58.0265 2.8171 58.0266H13.0634C13.2334 58.0265 13.4017 58.0603 13.5586 58.1258C13.7155 58.1913 13.8579 58.2872 13.9777 58.4082C14.0975 58.5291 14.1922 58.6726 14.2565 58.8305C14.3207 58.9883 14.3531 59.1573 14.352 59.3277L15.4984 109.699C15.4995 109.869 15.4674 110.037 15.4037 110.194C15.34 110.351 15.2461 110.494 15.1272 110.615C15.0084 110.736 14.867 110.832 14.7111 110.898C14.5552 110.964 14.3879 110.999 14.2187 111Z" fill="#001968"/>
<path d="M7.91795 62.4558C7.56442 62.4558 7.22537 62.315 6.97538 62.0643C6.72539 61.8136 6.58495 61.4736 6.58495 61.119V21.389C6.52275 20.5958 6.07841 12.976 9.45534 9.3131C10.0369 8.66579 10.7507 8.15165 11.5481 7.80564C12.3454 7.45964 13.2078 7.28987 14.0764 7.30788C14.4299 7.30788 14.769 7.44872 15.019 7.69942C15.269 7.95012 15.4094 8.29014 15.4094 8.64469C15.4094 8.99923 15.269 9.33926 15.019 9.58996C14.769 9.84066 14.4299 9.9815 14.0764 9.9815C13.5762 9.96679 13.0787 10.0612 12.6184 10.2581C12.1581 10.4551 11.746 10.7499 11.4104 11.1222C9.17986 13.5463 9.09099 19.2501 9.24206 21.2375V61.119C9.24207 61.472 9.10285 61.8107 8.85478 62.0612C8.60672 62.3116 8.26994 62.4535 7.91795 62.4558Z" fill="#001968"/>
<path d="M30.9084 8.02289C33.0734 7.39866 34.3245 5.13438 33.7027 2.9655C33.081 0.796618 30.8218 -0.455565 28.6567 0.168671L14.0265 4.38691C11.8615 5.01114 10.6104 7.27541 11.2322 9.4443C11.854 11.6132 14.1131 12.8654 16.2782 12.2411L30.9084 8.02289Z" fill="#001968"/>
<path d="M13.1701 8.99229C13.0789 8.6457 13.0581 8.28424 13.1089 7.92942C13.1597 7.57459 13.2812 7.23365 13.4661 6.92685C13.651 6.62005 13.8955 6.35367 14.1851 6.14355C14.4747 5.93343 14.8035 5.78386 15.1519 5.70373L28.6596 1.70221C29.3431 1.47903 30.0869 1.53545 30.7292 1.8592C31.3716 2.18295 31.8605 2.74786 32.0898 3.43115V3.49353C32.1717 3.83589 32.1854 4.1911 32.13 4.53877C32.0746 4.88644 31.9514 5.21972 31.7672 5.51947C31.5831 5.81923 31.3418 6.07957 31.057 6.28554C30.7723 6.49151 30.4498 6.63906 30.1081 6.71971L16.5915 10.6945C15.9126 10.9211 15.172 10.8693 14.5311 10.5504C13.8902 10.2315 13.4009 9.67143 13.1701 8.99229Z" fill="white"/>
<path d="M36.5953 21.2642C36.3644 21.2647 36.1373 21.2049 35.9364 21.0909C35.7354 20.9768 35.5674 20.8124 35.4489 20.6137L31.7165 14.2593C31.5374 13.9533 31.4868 13.5883 31.576 13.2449C31.6652 12.9014 31.8867 12.6075 32.1919 12.4279C32.4972 12.2483 32.861 12.1976 33.2035 12.287C33.546 12.3764 33.839 12.5986 34.0182 12.9047L37.7417 19.2234C37.9072 19.5232 37.9515 19.8754 37.8655 20.2071C37.7795 20.5388 37.5697 20.8247 37.2796 21.0058C37.0814 21.1568 36.8436 21.2467 36.5953 21.2642Z" fill="#20CE88"/>
<path d="M15.6672 25.5509C15.5816 25.5601 15.4952 25.5601 15.4095 25.5509C15.2372 25.5178 15.0732 25.4509 14.9268 25.3541C14.7803 25.2573 14.6544 25.1325 14.5561 24.9868C14.4579 24.8411 14.3893 24.6773 14.3542 24.505C14.3192 24.3326 14.3185 24.155 14.352 23.9824L15.7561 16.7725C15.8382 16.4389 16.0452 16.1498 16.3342 15.9652C16.6233 15.7806 16.9721 15.7148 17.3083 15.7813C17.6444 15.8478 17.9422 16.0416 18.1396 16.3224C18.3371 16.6032 18.4192 16.9495 18.3688 17.2894L16.9736 24.4726C16.9123 24.7754 16.7491 25.0479 16.5112 25.2442C16.2733 25.4406 15.9753 25.5489 15.6672 25.5509Z" fill="#20CE88"/>
<path d="M22.9543 26.9768C22.6208 26.9779 22.2993 26.8528 22.0538 26.6265C21.8083 26.4001 21.657 26.0892 21.6302 25.7559L21.2569 21.2998C21.2418 21.1243 21.2612 20.9475 21.3142 20.7794C21.3672 20.6114 21.4526 20.4555 21.5657 20.3206C21.6787 20.1857 21.8172 20.0745 21.9731 19.9933C22.129 19.912 22.2994 19.8624 22.4744 19.8472C22.6495 19.832 22.8258 19.8515 22.9933 19.9046C23.1609 19.9577 23.3163 20.0434 23.4508 20.1568C23.5853 20.2702 23.6963 20.409 23.7773 20.5654C23.8583 20.7217 23.9078 20.8926 23.9229 21.0681L24.3051 25.5242C24.3349 25.8757 24.2259 26.2249 24.0015 26.4966C23.7771 26.7683 23.4553 26.9407 23.1054 26.9768H22.9543Z" fill="#20CE88"/>
<path d="M30.9967 28.0819C30.7216 28.0812 30.4536 27.9951 30.2293 27.8355C30.0049 27.676 29.8353 27.4508 29.7436 27.1907L24.9626 13.9652C24.8735 13.6395 24.9105 13.2921 25.0663 12.9927C25.2221 12.6933 25.4851 12.4642 25.8025 12.3513C26.1199 12.2384 26.4681 12.2502 26.7772 12.3843C27.0863 12.5183 27.3333 12.7647 27.4687 13.074L32.2497 26.2906C32.3106 26.455 32.3384 26.6298 32.3315 26.805C32.3247 26.9802 32.2833 27.1524 32.2097 27.3114C32.1362 27.4705 32.032 27.6134 31.9031 27.7319C31.7742 27.8504 31.6232 27.9421 31.4588 28.0017C31.3114 28.0585 31.1544 28.0857 30.9967 28.0819Z" fill="#20CE88"/>
<path d="M45.944 75.4586C51.1219 75.4586 55.3194 71.2491 55.3194 66.0564C55.3194 60.8636 51.1219 56.6541 45.944 56.6541C40.7661 56.6541 36.5686 60.8636 36.5686 66.0564C36.5686 71.2491 40.7661 75.4586 45.944 75.4586Z" fill="#20CE88"/>
<path d="M44.9044 70.7263C44.6541 70.7239 44.4135 70.6287 44.229 70.4589L40.4078 66.8406C40.2157 66.6598 40.1031 66.4099 40.0947 66.1458C40.0864 65.8817 40.183 65.6252 40.3633 65.4325C40.5436 65.2399 40.7928 65.127 41.0562 65.1186C41.3195 65.1103 41.5753 65.2071 41.7674 65.388L44.8777 68.3646L50.8051 62.1261C50.8899 62.0207 50.9955 61.934 51.1153 61.8715C51.2352 61.8091 51.3666 61.7722 51.5014 61.7632C51.6361 61.7542 51.7712 61.7733 51.8983 61.8193C52.0253 61.8654 52.1414 61.9373 52.2393 62.0305C52.3373 62.1238 52.4149 62.2364 52.4672 62.3612C52.5196 62.4861 52.5456 62.6204 52.5436 62.7559C52.5416 62.8913 52.5117 63.0248 52.4556 63.148C52.3996 63.2713 52.3187 63.3815 52.2181 63.4719L45.6064 70.4055C45.4302 70.5921 45.1873 70.7011 44.9311 70.7085L44.9044 70.7263Z" fill="#001968"/>
<path d="M57.7632 91.7944C57.1678 89.1208 56.608 83.9518 60.918 84.5489C63.584 84.9232 63.8773 88.3722 65.7257 89.8962C66.8187 90.7874 68.3917 89.2278 67.2986 88.3187C65.7612 87.0354 65.4769 84.8698 63.9839 83.5508C63.3187 82.9871 62.5293 82.5905 61.6809 82.3937C60.8325 82.1969 59.9495 82.2055 59.1051 82.4189C54.5018 83.5508 54.7773 88.6574 55.6038 92.3648C55.9237 93.7551 58.0654 93.1669 57.7455 91.7677L57.7632 91.7944Z" fill="#20CE88"/>
<path d="M67.164 88.4904L55.72 92.4153C53.9182 93.0333 52.9571 94.9991 53.5733 96.8061L55.4079 102.186C56.0241 103.993 57.9843 104.957 59.7861 104.339L71.2302 100.414C73.032 99.7961 73.9931 97.8303 73.3769 96.0233L71.5423 90.6433C70.9261 88.8363 68.9659 87.8724 67.164 88.4904Z" fill="#20CE88"/>
<path d="M56.6613 88.0068C58.989 84.862 60.948 81.4589 62.4998 77.8649C64.1618 74.1166 64.9926 70.0511 64.9348 65.9494C64.9037 62.3346 63.9425 58.789 62.1443 55.6559C60.6741 53.2706 58.6298 51.294 56.1992 49.9077C52.932 48.0954 49.2685 47.1218 45.5352 47.0736C41.8054 47.1063 38.1417 48.0646 34.8712 49.8631C32.4233 51.2436 30.3677 53.2284 28.8994 55.6292C27.0795 58.7494 26.0995 62.2904 26.0557 65.9048C25.8335 71.7155 27.8774 78.0877 32.1163 84.8252C34.6269 88.744 37.5108 92.4092 40.7275 95.7692C40.7275 95.7692 41.1096 96.0812 41.0474 98.3805C41.0406 100.88 40.8833 103.377 40.5764 105.858C40.5764 106.232 40.3898 106.339 40.2121 106.366L33.396 105.858C32.6489 105.579 31.8301 105.56 31.071 105.804C30.3118 106.048 29.6566 106.541 29.2104 107.203C26.811 110.688 32.534 110.216 32.534 110.216H43.358C44.0689 110.216 44.4866 109.529 44.5843 109.075C44.8346 107.739 44.9949 106.387 45.0642 105.029C45.1271 106.387 45.2845 107.739 45.5352 109.075C45.6329 109.529 46.0417 110.251 46.7527 110.216H57.5855C57.5855 110.216 63.3085 110.715 60.918 107.212C60.4752 106.551 59.8241 106.057 59.0686 105.809C58.3131 105.562 57.4969 105.576 56.7501 105.849L49.9252 106.33C49.7475 106.33 49.5964 106.196 49.5608 105.822C49.2697 103.382 49.1243 100.927 49.1254 98.4696V97.9794V97.2575C49.3548 96.711 49.6798 96.2099 50.0852 95.7781C52.4503 93.3401 54.6474 90.7437 56.6613 88.0068ZM46.0595 93.7818L45.4552 94.3611L44.5665 93.5145C39.8122 88.6841 29.9391 77.2321 30.3479 66.0563C30.8722 52.0466 43.0914 51.3603 45.5352 51.3692C47.979 51.3781 60.1804 52.1089 60.6425 66.1187C60.8291 71.7957 58.252 78.4887 53.1866 85.4669C51.0312 88.4211 48.6482 91.2012 46.0595 93.7818Z" fill="#001968"/>
<path d="M58.3231 110.608C57.941 110.608 57.6477 110.608 57.5589 110.608H46.7527C46.3743 110.583 46.0155 110.43 45.7348 110.174C45.454 109.918 45.2678 109.575 45.2064 109.2C45.1531 108.959 45.1087 108.683 45.0642 108.38C45.0109 108.683 44.9576 108.959 44.9043 109.2C44.8345 109.566 44.6406 109.896 44.3555 110.135C44.0704 110.374 43.7117 110.506 43.3402 110.51H32.5252C32.223 110.51 29.2638 110.742 28.4728 109.369C28.1085 108.745 28.2684 107.943 28.9349 106.972C29.4171 106.258 30.1223 105.725 30.9396 105.457C31.7569 105.189 32.6399 105.202 33.4494 105.492L40.2299 106C40.1854 106 40.2299 106 40.2299 105.786C40.5394 103.318 40.6967 100.833 40.7009 98.3448C40.7542 96.3752 40.4787 95.9653 40.4609 95.9564C37.2347 92.5794 34.3392 88.8997 31.8142 84.9678C27.5486 78.1857 25.4869 71.7601 25.7091 65.8781C25.7611 62.2042 26.759 58.6062 28.6061 55.4331C30.0986 52.9937 32.1799 50.9707 34.6579 49.5511C37.9739 47.7254 41.6903 46.7546 45.473 46.726C49.2662 46.7688 52.9892 47.7581 56.3058 49.6046C58.7943 51.0251 60.8804 53.0588 62.3665 55.5133C64.216 58.6826 65.2171 62.2776 65.2725 65.9494C65.3271 70.0909 64.4873 74.1953 62.8109 77.9807C61.2485 81.612 59.2745 85.051 56.9279 88.2296C54.9127 90.993 52.7095 93.6134 50.334 96.0722C49.9683 96.4471 49.6679 96.8809 49.4453 97.3556V98.0329V98.5498C49.4407 100.984 49.5861 103.415 49.8808 105.831C49.8813 105.912 49.9027 105.992 49.943 106.063L56.6702 105.581C57.483 105.298 58.3663 105.292 59.1828 105.564C59.9993 105.837 60.7031 106.372 61.1846 107.088C61.8511 108.059 62.0022 108.87 61.6378 109.485C61.0691 110.456 59.3451 110.608 58.3231 110.608ZM46.7705 109.877H57.6211C58.3942 109.939 60.607 109.939 61.1046 109.093C61.3268 108.71 61.1846 108.139 60.6781 107.399C60.2736 106.797 59.6771 106.349 58.9861 106.131C58.2952 105.912 57.5507 105.935 56.8746 106.196H56.7768L49.9608 106.678C49.7596 106.662 49.5724 106.568 49.4383 106.417C49.3041 106.266 49.2334 106.069 49.2409 105.867C48.946 103.418 48.7976 100.954 48.7966 98.4874V97.9705V97.2308C49.0371 96.6287 49.39 96.0782 49.8364 95.6088C52.1926 93.167 54.3808 90.5676 56.3858 87.8285C58.7025 84.6956 60.6553 81.3079 62.2066 77.7312C63.8453 74.0237 64.6638 70.0043 64.606 65.9494C64.5763 62.3937 63.6303 58.9061 61.86 55.8252C60.4274 53.4662 58.4216 51.5099 56.0303 50.1393C52.8164 48.353 49.2095 47.3973 45.5352 47.3588C41.8682 47.3889 38.2656 48.3288 35.049 50.0948C32.6558 51.4573 30.6445 53.4039 29.2015 55.754C27.3898 58.8474 26.4157 62.362 26.3756 65.9494C26.1623 71.6888 28.1529 77.9896 32.383 84.6648C34.8872 88.5619 37.7589 92.2089 40.9586 95.5553C41.083 95.6534 41.4296 96.1881 41.3763 98.4072C41.3717 100.922 41.2114 103.434 40.8964 105.929C40.9032 106.115 40.8419 106.298 40.7241 106.442C40.6063 106.587 40.4401 106.683 40.2565 106.713L33.2627 106.179C32.5858 105.926 31.8438 105.91 31.1568 106.134C30.4697 106.357 29.8779 106.806 29.477 107.408C28.9705 108.139 28.8283 108.71 29.0505 109.093C29.5392 109.939 31.7165 109.984 32.4985 109.895H43.358C43.9001 109.895 44.1933 109.316 44.2466 109.004C44.4973 107.685 44.6576 106.351 44.7265 105.011H45.393C45.4542 106.354 45.6086 107.691 45.8551 109.013C45.9262 109.298 46.2106 109.913 46.7349 109.877H46.7705ZM45.4108 94.878L45.1886 94.5572L44.3 93.764C39.8566 89.2277 29.557 77.4727 29.9925 66.0385C30.5257 51.7792 42.9225 51.0305 45.4819 51.0305C47.979 51.0305 60.4559 51.7881 60.9358 66.1098C61.1224 71.8581 58.5275 78.5867 53.4088 85.6629C51.2563 88.6281 48.8795 91.4229 46.2995 94.0224L45.4108 94.878ZM45.4997 51.69C43.047 51.69 31.1833 52.403 30.6678 66.0563C30.2502 77.2232 40.4432 88.8089 44.7798 93.2738L45.4552 93.8977L45.8285 93.5323C48.41 90.966 50.7871 88.2007 52.9378 85.2619C57.9588 78.3461 60.5181 71.7244 60.3315 66.1187C59.8516 52.4297 47.9168 51.69 45.5263 51.69H45.4997Z" fill="#001968"/>
<path d="M45.4642 80.4939C44.15 80.3821 42.8966 79.8898 41.8562 79.0769C41.7978 79.0354 41.7482 78.9827 41.7101 78.9219C41.6721 78.8611 41.6463 78.7934 41.6344 78.7227C41.6224 78.6519 41.6245 78.5795 41.6404 78.5095C41.6564 78.4396 41.6859 78.3734 41.7273 78.3149C41.7687 78.2564 41.8213 78.2066 41.8819 78.1685C41.9425 78.1303 42.01 78.1045 42.0805 78.0925C42.1511 78.0805 42.2233 78.0826 42.2931 78.0986C42.3628 78.1145 42.4288 78.1442 42.4871 78.1857C43.4846 78.9825 44.7221 79.4163 45.9973 79.4163C47.2726 79.4163 48.5101 78.9825 49.5076 78.1857C49.5601 78.1406 49.6209 78.1064 49.6867 78.0849C49.7524 78.0635 49.8217 78.0552 49.8906 78.0606C49.9595 78.0659 50.0266 78.0849 50.0882 78.1163C50.1498 78.1477 50.2047 78.191 50.2496 78.2436C50.2945 78.2963 50.3287 78.3573 50.3501 78.4232C50.3715 78.4891 50.3798 78.5586 50.3744 78.6277C50.369 78.6968 50.3502 78.7642 50.3188 78.826C50.2875 78.8877 50.2444 78.9427 50.1919 78.9878C48.8426 80.0336 47.1679 80.5672 45.4642 80.4939Z" fill="#001968"/>
</g>
<defs>
<clipPath id="clip0">
<rect width="106" height="111" fill="white"/>
</clipPath>
</defs>
</svg>
