<svg width="127" height="140" viewBox="0 0 127 140" fill="none" xmlns="http://www.w3.org/2000/svg">
<g clip-path="url(#clip0)">
<path d="M121.44 129.1H119.92C119.81 129.11 119.7 129.11 119.59 129.1C119.325 129.054 119.089 128.904 118.934 128.683C118.779 128.463 118.719 128.19 118.765 127.925C118.811 127.66 118.961 127.424 119.182 127.269C119.402 127.114 119.675 127.054 119.94 127.1H121.26V125.24C121.26 124.975 121.365 124.72 121.553 124.533C121.74 124.345 121.995 124.24 122.26 124.24C122.525 124.24 122.78 124.345 122.967 124.533C123.155 124.72 123.26 124.975 123.26 125.24V127.24C123.265 127.482 123.222 127.723 123.133 127.949C123.044 128.174 122.911 128.38 122.741 128.553C122.572 128.726 122.369 128.864 122.146 128.958C121.922 129.052 121.682 129.1 121.44 129.1ZM77.22 128.35C76.9665 128.351 76.7222 128.255 76.5365 128.082C76.3509 127.91 76.2377 127.673 76.22 127.42C76.22 127.42 76.22 127.32 76.22 127.28V122.28C76.22 122.015 76.3254 121.76 76.5129 121.573C76.7004 121.385 76.9548 121.28 77.22 121.28C77.4852 121.28 77.7396 121.385 77.9271 121.573C78.1146 121.76 78.22 122.015 78.22 122.28V127.28C78.2399 127.537 78.1593 127.793 77.9953 127.992C77.8313 128.191 77.5965 128.32 77.34 128.35H77.22ZM115.77 127.75H110.77C110.505 127.75 110.25 127.645 110.063 127.457C109.875 127.27 109.77 127.015 109.77 126.75C109.769 126.573 109.817 126.4 109.91 126.25C109.817 126.374 109.696 126.475 109.557 126.544C109.418 126.614 109.265 126.65 109.11 126.65H106.77V126.75C106.77 127.015 106.665 127.27 106.477 127.457C106.29 127.645 106.035 127.75 105.77 127.75H100.77C100.505 127.75 100.25 127.645 100.063 127.457C99.8754 127.27 99.77 127.015 99.77 126.75C99.7688 126.573 99.8173 126.4 99.91 126.25C99.8169 126.374 99.6961 126.475 99.5572 126.544C99.4184 126.614 99.2652 126.65 99.11 126.65H96.77V126.75C96.77 127.015 96.6646 127.27 96.4771 127.457C96.2896 127.645 96.0352 127.75 95.77 127.75H90.77C90.5048 127.75 90.2504 127.645 90.0629 127.457C89.8754 127.27 89.77 127.015 89.77 126.75C89.7688 126.573 89.8173 126.4 89.91 126.25C89.8169 126.374 89.6961 126.475 89.5572 126.544C89.4184 126.614 89.2652 126.65 89.11 126.65H86.77V126.75C86.77 127.015 86.6646 127.27 86.4771 127.457C86.2896 127.645 86.0352 127.75 85.77 127.75H80.77C80.5048 127.75 80.2504 127.645 80.0629 127.457C79.8754 127.27 79.77 127.015 79.77 126.75C79.77 126.485 79.8754 126.23 80.0629 126.043C80.2504 125.855 80.5048 125.75 80.77 125.75H83.11V125.65C83.11 125.385 83.2154 125.13 83.4029 124.943C83.5904 124.755 83.8448 124.65 84.11 124.65H89.11C89.3752 124.65 89.6296 124.755 89.8171 124.943C90.0046 125.13 90.11 125.385 90.11 125.65C90.1099 125.829 90.0616 126.006 89.97 126.16C90.0621 126.034 90.1824 125.931 90.3213 125.86C90.4603 125.789 90.6139 125.751 90.77 125.75H93.11V125.65C93.11 125.385 93.2154 125.13 93.4029 124.943C93.5904 124.755 93.8448 124.65 94.11 124.65H99.11C99.3752 124.65 99.6296 124.755 99.8171 124.943C100.005 125.13 100.11 125.385 100.11 125.65C100.11 125.829 100.062 126.006 99.97 126.16C100.062 126.034 100.182 125.931 100.321 125.86C100.46 125.789 100.614 125.751 100.77 125.75H103.11V125.65C103.11 125.385 103.215 125.13 103.403 124.943C103.59 124.755 103.845 124.65 104.11 124.65H109.11C109.375 124.65 109.63 124.755 109.817 124.943C110.005 125.13 110.11 125.385 110.11 125.65C110.11 125.829 110.062 126.006 109.97 126.16C110.062 126.034 110.182 125.931 110.321 125.86C110.46 125.789 110.614 125.751 110.77 125.75H113.11V125.65C113.11 125.385 113.215 125.13 113.403 124.943C113.59 124.755 113.845 124.65 114.11 124.65H118.11V123.29C117.845 123.267 117.599 123.14 117.428 122.937C117.256 122.733 117.172 122.47 117.195 122.205C117.218 121.94 117.345 121.694 117.548 121.523C117.751 121.351 118.015 121.267 118.28 121.29H119.11C119.375 121.29 119.63 121.395 119.817 121.583C120.005 121.77 120.11 122.025 120.11 122.29V125.64C120.11 125.905 120.005 126.16 119.817 126.347C119.63 126.535 119.375 126.64 119.11 126.64H116.77V126.74C116.771 126.872 116.746 127.003 116.697 127.126C116.647 127.248 116.574 127.36 116.481 127.454C116.388 127.547 116.277 127.622 116.155 127.673C116.033 127.724 115.902 127.75 115.77 127.75ZM80.37 125.39C80.1048 125.39 79.8504 125.285 79.6629 125.097C79.4754 124.91 79.37 124.655 79.37 124.39V122.3C79.37 122.035 79.4754 121.78 79.6629 121.593C79.8504 121.405 80.1048 121.3 80.37 121.3H83.28C83.5452 121.3 83.7996 121.405 83.9871 121.593C84.1746 121.78 84.28 122.035 84.28 122.3C84.28 122.565 84.1746 122.82 83.9871 123.007C83.7996 123.195 83.5452 123.3 83.28 123.3H81.37V124.39C81.37 124.655 81.2646 124.91 81.0771 125.097C80.8896 125.285 80.6352 125.39 80.37 125.39ZM113.28 123.3H108.28C108.015 123.3 107.76 123.195 107.573 123.007C107.385 122.82 107.28 122.565 107.28 122.3C107.28 122.035 107.385 121.78 107.573 121.593C107.76 121.405 108.015 121.3 108.28 121.3H113.28C113.545 121.3 113.8 121.405 113.987 121.593C114.175 121.78 114.28 122.035 114.28 122.3C114.28 122.565 114.175 122.82 113.987 123.007C113.8 123.195 113.545 123.3 113.28 123.3ZM103.28 123.3H98.28C98.0148 123.3 97.7604 123.195 97.5729 123.007C97.3854 122.82 97.28 122.565 97.28 122.3C97.28 122.035 97.3854 121.78 97.5729 121.593C97.7604 121.405 98.0148 121.3 98.28 121.3H103.28C103.545 121.3 103.8 121.405 103.987 121.593C104.175 121.78 104.28 122.035 104.28 122.3C104.28 122.565 104.175 122.82 103.987 123.007C103.8 123.195 103.545 123.3 103.28 123.3ZM93.28 123.3H88.28C88.0148 123.3 87.7604 123.195 87.5729 123.007C87.3854 122.82 87.28 122.565 87.28 122.3C87.28 122.035 87.3854 121.78 87.5729 121.593C87.7604 121.405 88.0148 121.3 88.28 121.3H93.28C93.5452 121.3 93.7996 121.405 93.9871 121.593C94.1746 121.78 94.28 122.035 94.28 122.3C94.28 122.565 94.1746 122.82 93.9871 123.007C93.7996 123.195 93.5452 123.3 93.28 123.3ZM124.2 122.76C124.051 122.76 123.903 122.728 123.768 122.663C123.633 122.599 123.514 122.506 123.42 122.39C123.254 122.185 123.176 121.923 123.202 121.661C123.228 121.399 123.357 121.158 123.56 120.99C123.72 120.86 123.85 120.695 123.938 120.508C124.026 120.321 124.071 120.117 124.07 119.91V119.31C124.069 119.088 124.016 118.869 123.916 118.671C123.815 118.473 123.669 118.301 123.49 118.17C123.347 118.076 123.233 117.945 123.16 117.79C123.013 117.87 122.848 117.911 122.68 117.91H117.68C117.415 117.91 117.16 117.805 116.973 117.617C116.785 117.43 116.68 117.175 116.68 116.91C116.68 116.645 116.785 116.39 116.973 116.203C117.16 116.015 117.415 115.91 117.68 115.91H122.68C122.868 115.911 123.053 115.964 123.212 116.065C123.371 116.166 123.499 116.31 123.58 116.48C123.746 116.387 123.934 116.344 124.124 116.355C124.313 116.365 124.496 116.429 124.65 116.54C125.09 116.856 125.448 117.272 125.695 117.753C125.941 118.235 126.07 118.769 126.07 119.31V119.91C126.071 120.411 125.961 120.907 125.746 121.36C125.532 121.813 125.219 122.213 124.83 122.53C124.653 122.677 124.43 122.758 124.2 122.76ZM73.5 121C73.2481 121.001 73.0051 120.906 72.8197 120.736C72.6343 120.565 72.5202 120.331 72.5 120.08V119.36C72.5 118.46 72.8568 117.597 73.4923 116.959C74.1278 116.322 74.99 115.963 75.89 115.96H76.43C76.6952 115.96 76.9496 116.065 77.1371 116.253C77.3246 116.44 77.43 116.695 77.43 116.96C77.43 117.225 77.3246 117.48 77.1371 117.667C76.9496 117.855 76.6952 117.96 76.43 117.96H75.89C75.5204 117.963 75.1669 118.111 74.9065 118.374C74.6461 118.636 74.5 118.99 74.5 119.36V119.96C74.5 120.225 74.3946 120.48 74.2071 120.667C74.0196 120.855 73.7652 120.96 73.5 120.96V121ZM113.66 118H111.1C110.835 118 110.58 117.895 110.393 117.707C110.205 117.52 110.1 117.265 110.1 117C110.1 116.735 110.205 116.48 110.393 116.293C110.58 116.105 110.835 116 111.1 116H112.66V114.56C112.66 114.295 112.765 114.04 112.953 113.853C113.14 113.665 113.395 113.56 113.66 113.56C113.925 113.56 114.18 113.665 114.367 113.853C114.555 114.04 114.66 114.295 114.66 114.56V117C114.637 117.249 114.522 117.481 114.337 117.65C114.152 117.818 113.91 117.911 113.66 117.91V118ZM106.1 118H101.1C100.835 118 100.58 117.895 100.393 117.707C100.205 117.52 100.1 117.265 100.1 117C100.1 116.735 100.205 116.48 100.393 116.293C100.58 116.105 100.835 116 101.1 116H106.1C106.365 116 106.62 116.105 106.807 116.293C106.995 116.48 107.1 116.735 107.1 117C107.1 117.265 106.995 117.52 106.807 117.707C106.62 117.895 106.365 118 106.1 118ZM96.1 118H91.1C90.8348 118 90.5804 117.895 90.3929 117.707C90.2054 117.52 90.1 117.265 90.1 117C90.1 116.735 90.2054 116.48 90.3929 116.293C90.5804 116.105 90.8348 116 91.1 116H96.1C96.3652 116 96.6196 116.105 96.8071 116.293C96.9946 116.48 97.1 116.735 97.1 117C97.1 117.265 96.9946 117.52 96.8071 117.707C96.6196 117.895 96.3652 118 96.1 118ZM86.1 118H85.18C84.9148 118 84.6604 117.895 84.4729 117.707C84.2854 117.52 84.18 117.265 84.18 117V113C84.18 112.735 84.2854 112.48 84.4729 112.293C84.6604 112.105 84.9148 112 85.18 112H90.18C90.4452 112 90.6996 112.105 90.8871 112.293C91.0746 112.48 91.18 112.735 91.18 113C91.18 113.265 91.0746 113.52 90.8871 113.707C90.6996 113.895 90.4452 114 90.18 114H86.18V116C86.3113 116.005 86.4403 116.036 86.5596 116.091C86.679 116.147 86.7862 116.225 86.8754 116.321C86.9645 116.418 87.0338 116.531 87.0792 116.654C87.1246 116.778 87.1453 116.909 87.14 117.04C87.1347 117.171 87.1037 117.3 87.0486 117.42C86.9935 117.539 86.9154 117.646 86.8188 117.735C86.7223 117.825 86.6091 117.894 86.4857 117.939C86.3624 117.985 86.2313 118.005 86.1 118ZM81.31 117.88C81.0448 117.88 80.7904 117.775 80.6029 117.587C80.4154 117.4 80.31 117.145 80.31 116.88V114H80.14C79.8748 114 79.6204 113.895 79.4329 113.707C79.2454 113.52 79.14 113.265 79.14 113C79.14 112.735 79.2454 112.48 79.4329 112.293C79.6204 112.105 79.8748 112 80.14 112H81.31C81.5752 112 81.8296 112.105 82.0171 112.293C82.2046 112.48 82.31 112.735 82.31 113V116.84C82.2972 117.096 82.1862 117.338 82 117.515C81.8138 117.692 81.5668 117.79 81.31 117.79V117.88ZM119.44 114H118.44C118.175 114 117.92 113.895 117.733 113.707C117.545 113.52 117.44 113.265 117.44 113C117.44 112.735 117.545 112.48 117.733 112.293C117.92 112.105 118.175 112 118.44 112H119.44C119.682 112 119.915 111.904 120.087 111.734C120.259 111.564 120.357 111.332 120.36 111.09C120.362 110.935 120.32 110.783 120.24 110.65C120.174 110.535 120.132 110.408 120.115 110.277C120.099 110.146 120.108 110.012 120.143 109.885C120.178 109.757 120.237 109.638 120.318 109.533C120.399 109.428 120.5 109.341 120.615 109.275C120.73 109.209 120.857 109.167 120.988 109.15C121.119 109.134 121.252 109.143 121.38 109.178C121.508 109.213 121.627 109.272 121.732 109.353C121.837 109.434 121.924 109.535 121.99 109.65C122.238 110.094 122.366 110.594 122.36 111.103C122.354 111.611 122.215 112.109 121.957 112.547C121.7 112.985 121.331 113.347 120.89 113.599C120.448 113.85 119.948 113.982 119.44 113.98V114ZM110.18 114H105.18C104.915 114 104.66 113.895 104.473 113.707C104.285 113.52 104.18 113.265 104.18 113C104.18 112.735 104.285 112.48 104.473 112.293C104.66 112.105 104.915 112 105.18 112H110.18C110.445 112 110.7 112.105 110.887 112.293C111.075 112.48 111.18 112.735 111.18 113C111.18 113.265 111.075 113.52 110.887 113.707C110.7 113.895 110.445 114 110.18 114ZM100.18 114H95.18C94.9148 114 94.6604 113.895 94.4729 113.707C94.2854 113.52 94.18 113.265 94.18 113C94.18 112.735 94.2854 112.48 94.4729 112.293C94.6604 112.105 94.9148 112 95.18 112H100.18C100.445 112 100.7 112.105 100.887 112.293C101.075 112.48 101.18 112.735 101.18 113C101.18 113.265 101.075 113.52 100.887 113.707C100.7 113.895 100.445 114 100.18 114ZM77.46 111.1C77.3009 111.104 77.1432 111.069 77 111C76.7696 110.87 76.6002 110.653 76.5289 110.399C76.4577 110.144 76.4905 109.871 76.62 109.64C76.8747 109.191 77.244 108.817 77.6902 108.557C78.1364 108.297 78.6436 108.16 79.16 108.16H80.36C80.3878 107.895 80.5199 107.651 80.7271 107.484C80.9344 107.316 81.1998 107.237 81.465 107.265C81.7302 107.293 81.9735 107.425 82.1413 107.632C82.3092 107.839 82.3878 108.105 82.36 108.37V109.16C82.36 109.425 82.2546 109.68 82.0671 109.867C81.8796 110.055 81.6252 110.16 81.36 110.16H79.13C78.9682 110.16 78.8092 110.203 78.6689 110.284C78.5286 110.364 78.4118 110.48 78.33 110.62C78.2394 110.769 78.1114 110.891 77.9588 110.976C77.8062 111.06 77.6343 111.103 77.46 111.1ZM113.66 110.1H109.85C109.585 110.1 109.33 109.995 109.143 109.807C108.955 109.62 108.85 109.365 108.85 109.1C108.85 108.835 108.955 108.58 109.143 108.393C109.33 108.205 109.585 108.1 109.85 108.1H112.66V107.91C112.66 107.645 112.765 107.39 112.953 107.203C113.14 107.015 113.395 106.91 113.66 106.91C113.925 106.91 114.18 107.015 114.367 107.203C114.555 107.39 114.66 107.645 114.66 107.91V109.1C114.664 109.234 114.641 109.367 114.593 109.492C114.544 109.617 114.471 109.73 114.378 109.827C114.285 109.923 114.173 109.999 114.05 110.051C113.926 110.103 113.794 110.13 113.66 110.13V110.1ZM104.85 110.1H99.85C99.5848 110.1 99.3304 109.995 99.1429 109.807C98.9554 109.62 98.85 109.365 98.85 109.1C98.85 108.835 98.9554 108.58 99.1429 108.393C99.3304 108.205 99.5848 108.1 99.85 108.1H104.85C105.115 108.1 105.37 108.205 105.557 108.393C105.745 108.58 105.85 108.835 105.85 109.1C105.85 109.365 105.745 109.62 105.557 109.807C105.37 109.995 105.115 110.1 104.85 110.1ZM94.85 110.1H89.85C89.5848 110.1 89.3304 109.995 89.1429 109.807C88.9554 109.62 88.85 109.365 88.85 109.1C88.85 108.835 88.9554 108.58 89.1429 108.393C89.3304 108.205 89.5848 108.1 89.85 108.1H94.85C95.1152 108.1 95.3696 108.205 95.5571 108.393C95.7446 108.58 95.85 108.835 95.85 109.1C95.85 109.365 95.7446 109.62 95.5571 109.807C95.3696 109.995 95.1152 110.1 94.85 110.1ZM85.18 109.77C84.9148 109.77 84.6604 109.665 84.4729 109.477C84.2854 109.29 84.18 109.035 84.18 108.77V106.39C84.18 106.125 84.2854 105.87 84.4729 105.683C84.6604 105.495 84.9148 105.39 85.18 105.39H90.18C90.4452 105.39 90.6996 105.495 90.8871 105.683C91.0746 105.87 91.18 106.125 91.18 106.39C91.18 106.655 91.0746 106.91 90.8871 107.097C90.6996 107.285 90.4452 107.39 90.18 107.39H86.18V108.77C86.184 108.904 86.1611 109.037 86.1127 109.162C86.0642 109.287 85.9912 109.4 85.8979 109.497C85.8047 109.593 85.6931 109.669 85.5697 109.721C85.4464 109.773 85.3139 109.8 85.18 109.8V109.77ZM117.53 109.04C117.265 109.04 117.01 108.935 116.823 108.747C116.635 108.56 116.53 108.305 116.53 108.04V106.39C116.53 106.125 116.635 105.87 116.823 105.683C117.01 105.495 117.265 105.39 117.53 105.39H119.44C119.674 105.391 119.9 105.301 120.07 105.14C120.265 104.958 120.524 104.862 120.79 104.871C121.057 104.88 121.308 104.995 121.49 105.19C121.672 105.385 121.768 105.644 121.759 105.91C121.75 106.177 121.635 106.428 121.44 106.61C120.892 107.108 120.18 107.386 119.44 107.39H118.53V108.04C118.534 108.174 118.511 108.307 118.463 108.432C118.414 108.557 118.341 108.67 118.248 108.767C118.155 108.863 118.043 108.939 117.92 108.991C117.796 109.043 117.664 109.07 117.53 109.07V109.04ZM110.18 107.39H105.18C104.915 107.39 104.66 107.285 104.473 107.097C104.285 106.91 104.18 106.655 104.18 106.39C104.18 106.125 104.285 105.87 104.473 105.683C104.66 105.495 104.915 105.39 105.18 105.39H110.18C110.445 105.39 110.7 105.495 110.887 105.683C111.075 105.87 111.18 106.125 111.18 106.39C111.18 106.655 111.075 106.91 110.887 107.097C110.7 107.285 110.445 107.39 110.18 107.39ZM100.18 107.39H95.18C94.9148 107.39 94.6604 107.285 94.4729 107.097C94.2854 106.91 94.18 106.655 94.18 106.39C94.18 106.125 94.2854 105.87 94.4729 105.683C94.6604 105.495 94.9148 105.39 95.18 105.39H100.18C100.445 105.39 100.7 105.495 100.887 105.683C101.075 105.87 101.18 106.125 101.18 106.39C101.18 106.655 101.075 106.91 100.887 107.097C100.7 107.285 100.445 107.39 100.18 107.39ZM78.25 107.18C78.093 107.183 77.938 107.145 77.8 107.07C77.2415 106.771 76.7958 106.297 76.5308 105.722C76.2657 105.146 76.1958 104.5 76.3316 103.881C76.4673 103.262 76.8014 102.705 77.283 102.293C77.7647 101.881 78.3675 101.638 79 101.6C79.1314 101.592 79.2631 101.61 79.3875 101.653C79.5119 101.696 79.6267 101.763 79.7252 101.85C79.8237 101.937 79.9039 102.043 79.9614 102.162C80.0188 102.28 80.0524 102.409 80.06 102.54C80.0682 102.676 80.0484 102.813 80.0018 102.941C79.9552 103.069 79.8829 103.187 79.7892 103.286C79.6955 103.386 79.5825 103.465 79.4571 103.519C79.3317 103.573 79.1965 103.6 79.06 103.6C78.8274 103.613 78.6086 103.714 78.4486 103.884C78.2886 104.053 78.1996 104.277 78.2 104.51C78.1993 104.678 78.2458 104.843 78.3342 104.986C78.4225 105.13 78.5493 105.245 78.7 105.32C78.817 105.38 78.9211 105.463 79.0061 105.563C79.0911 105.664 79.1554 105.78 79.1953 105.906C79.2353 106.031 79.2501 106.163 79.2389 106.294C79.2277 106.425 79.1907 106.553 79.13 106.67C79.0463 106.832 78.9201 106.967 78.7651 107.062C78.61 107.157 78.4319 107.209 78.25 107.21V107.18ZM119 103.59H114C113.735 103.59 113.48 103.485 113.293 103.297C113.105 103.11 113 102.855 113 102.59C113 102.325 113.105 102.07 113.293 101.883C113.48 101.695 113.735 101.59 114 101.59H119C119.265 101.59 119.52 101.695 119.707 101.883C119.895 102.07 120 102.325 120 102.59C120 102.855 119.895 103.11 119.707 103.297C119.52 103.485 119.265 103.59 119 103.59ZM109 103.59H104C103.735 103.59 103.48 103.485 103.293 103.297C103.105 103.11 103 102.855 103 102.59C103 102.325 103.105 102.07 103.293 101.883C103.48 101.695 103.735 101.59 104 101.59H109C109.265 101.59 109.52 101.695 109.707 101.883C109.895 102.07 110 102.325 110 102.59C110 102.855 109.895 103.11 109.707 103.297C109.52 103.485 109.265 103.59 109 103.59ZM99 103.59H94C93.7348 103.59 93.4804 103.485 93.2929 103.297C93.1054 103.11 93 102.855 93 102.59C93 102.325 93.1054 102.07 93.2929 101.883C93.4804 101.695 93.7348 101.59 94 101.59H99C99.2652 101.59 99.5196 101.695 99.7071 101.883C99.8946 102.07 100 102.325 100 102.59C100 102.855 99.8946 103.11 99.7071 103.297C99.5196 103.485 99.2652 103.59 99 103.59ZM89 103.59H84C83.7348 103.59 83.4804 103.485 83.2929 103.297C83.1054 103.11 83 102.855 83 102.59C83 102.325 83.1054 102.07 83.2929 101.883C83.4804 101.695 83.7348 101.59 84 101.59H89C89.2652 101.59 89.5196 101.695 89.7071 101.883C89.8946 102.07 90 102.325 90 102.59C90 102.855 89.8946 103.11 89.7071 103.297C89.5196 103.485 89.2652 103.59 89 103.59Z" fill="#001968"/>
<path d="M18.59 139.2H13.47C13.2048 139.2 12.9504 139.095 12.7629 138.907C12.5754 138.72 12.47 138.465 12.47 138.2C12.47 137.935 12.5754 137.68 12.7629 137.493C12.9504 137.305 13.2048 137.2 13.47 137.2H18.56C18.6955 137.193 18.8309 137.214 18.9581 137.261C19.0852 137.308 19.2014 137.381 19.2997 137.475C19.3979 137.568 19.476 137.681 19.5294 137.805C19.5827 137.93 19.6102 138.064 19.61 138.2C19.61 138.465 19.5046 138.72 19.3171 138.907C19.1296 139.095 18.8752 139.2 18.61 139.2H18.59ZM8.36 139.2H3.25C2.98478 139.2 2.73043 139.095 2.54289 138.907C2.35536 138.72 2.25 138.465 2.25 138.2C2.25 137.935 2.35536 137.68 2.54289 137.493C2.73043 137.305 2.98478 137.2 3.25 137.2H8.36C8.62522 137.2 8.87957 137.305 9.06711 137.493C9.25464 137.68 9.36 137.935 9.36 138.2C9.36 138.465 9.25464 138.72 9.06711 138.907C8.87957 139.095 8.62522 139.2 8.36 139.2ZM1 135.71C0.734784 135.71 0.48043 135.605 0.292893 135.417C0.105357 135.23 0 134.975 0 134.71L0.16 129.6C0.16 129.335 0.265357 129.08 0.452893 128.893C0.64043 128.705 0.894783 128.6 1.16 128.6C1.29132 128.6 1.42136 128.626 1.54268 128.676C1.66401 128.726 1.77425 128.8 1.86711 128.893C1.95997 128.986 2.03362 129.096 2.08388 129.217C2.13413 129.339 2.16 129.469 2.16 129.6L2 134.74C1.9922 135 1.88341 135.247 1.69671 135.428C1.51001 135.609 1.2601 135.71 1 135.71ZM20.13 135C19.8648 135 19.6104 134.895 19.4229 134.707C19.2354 134.52 19.13 134.265 19.13 134L19 128.9C19 128.635 19.1054 128.38 19.2929 128.193C19.4804 128.005 19.7348 127.9 20 127.9C20.2652 127.9 20.5196 128.005 20.7071 128.193C20.8946 128.38 21 128.635 21 128.9L21.12 134.01C21.12 134.275 21.0146 134.53 20.8271 134.717C20.6396 134.905 20.3852 135.01 20.12 135.01L20.13 135ZM1.31 125.5C1.04478 125.5 0.79043 125.395 0.602893 125.207C0.415357 125.02 0.31 124.765 0.31 124.5L0.47 119.39C0.47 119.125 0.575357 118.87 0.762893 118.683C0.95043 118.495 1.20478 118.39 1.47 118.39C1.73522 118.39 1.98957 118.495 2.17711 118.683C2.36464 118.87 2.47 119.125 2.47 119.39L2.31 124.5C2.30736 124.763 2.20085 125.015 2.01359 125.201C1.82634 125.386 1.57349 125.49 1.31 125.49V125.5ZM19.9 124.78C19.6348 124.78 19.3804 124.675 19.1929 124.487C19.0054 124.3 18.9 124.045 18.9 123.78L18.78 118.67C18.78 118.405 18.8854 118.15 19.0729 117.963C19.2604 117.775 19.5148 117.67 19.78 117.67C20.0452 117.67 20.2996 117.775 20.4871 117.963C20.6746 118.15 20.78 118.405 20.78 118.67L20.9 123.78C20.9 124.045 20.7946 124.3 20.6071 124.487C20.4196 124.675 20.1652 124.78 19.9 124.78ZM1.62 115.28C1.35478 115.28 1.10043 115.175 0.912893 114.987C0.725357 114.8 0.62 114.545 0.62 114.28L0.78 109.16C0.78 108.895 0.885357 108.64 1.07289 108.453C1.26043 108.265 1.51478 108.16 1.78 108.16C2.04522 108.16 2.29957 108.265 2.48711 108.453C2.67464 108.64 2.78 108.895 2.78 109.16L2.62 114.27C2.62 114.535 2.51464 114.79 2.32711 114.977C2.13957 115.165 1.88522 115.27 1.62 115.27V115.28ZM19.62 114.55C19.3548 114.55 19.1004 114.445 18.9129 114.257C18.7254 114.07 18.62 113.815 18.62 113.55L18.51 108.44C18.51 108.175 18.6154 107.92 18.8029 107.733C18.9904 107.545 19.2448 107.44 19.51 107.44C19.7752 107.44 20.0296 107.545 20.2171 107.733C20.4046 107.92 20.51 108.175 20.51 108.44L20.62 113.55C20.62 113.815 20.5146 114.07 20.3271 114.257C20.1396 114.445 19.8852 114.55 19.62 114.55ZM1.93 105C1.66478 105 1.41043 104.895 1.22289 104.707C1.03536 104.52 0.93 104.265 0.93 104L1.09 98.89C1.09 98.6248 1.19536 98.3704 1.38289 98.1829C1.57043 97.9953 1.82478 97.89 2.09 97.89C2.35522 97.89 2.60957 97.9953 2.79711 98.1829C2.98464 98.3704 3.09 98.6248 3.09 98.89L2.93 104C2.93 104.265 2.82464 104.52 2.63711 104.707C2.44957 104.895 2.19522 105 1.93 105ZM19.43 104.28C19.1648 104.28 18.9104 104.175 18.7229 103.987C18.5354 103.8 18.43 103.545 18.43 103.28L18.31 98.17C18.31 97.9048 18.4154 97.6504 18.6029 97.4629C18.7904 97.2753 19.0448 97.17 19.31 97.17C19.5752 97.17 19.8296 97.2753 20.0171 97.4629C20.2046 97.6504 20.31 97.9048 20.31 98.17L20.43 103.28C20.43 103.545 20.3246 103.8 20.1371 103.987C19.9496 104.175 19.6952 104.28 19.43 104.28ZM2.24 94.82C1.97478 94.82 1.72043 94.7146 1.53289 94.5271C1.34536 94.3396 1.24 94.0852 1.24 93.82L1.4 88.71C1.4 88.4448 1.50536 88.1904 1.69289 88.0029C1.88043 87.8153 2.13478 87.71 2.4 87.71C2.66522 87.71 2.91957 87.8153 3.10711 88.0029C3.29464 88.1904 3.4 88.4448 3.4 88.71L3.24 93.82C3.24 94.0852 3.13464 94.3396 2.94711 94.5271C2.75957 94.7146 2.50522 94.82 2.24 94.82ZM19.24 94.09C18.9748 94.09 18.7204 93.9846 18.5329 93.7971C18.3454 93.6096 18.24 93.3552 18.24 93.09L18.08 88C18.08 87.7348 18.1854 87.4804 18.3729 87.2929C18.5604 87.1053 18.8148 87 19.08 87C19.3452 87 19.5996 87.1053 19.7871 87.2929C19.9746 87.4804 20.08 87.7348 20.08 88L20.2 93.11C20.2 93.3752 20.0946 93.6296 19.9071 93.8171C19.7196 94.0046 19.4652 94.11 19.2 94.11L19.24 94.09ZM2.55 84.6C2.28478 84.6 2.03043 84.4946 1.84289 84.3071C1.65536 84.1196 1.55 83.8652 1.55 83.6L1.71 78.49C1.71 78.2248 1.81536 77.9704 2.00289 77.7829C2.19043 77.5953 2.44478 77.49 2.71 77.49C2.97522 77.49 3.22957 77.5953 3.41711 77.7829C3.60464 77.9704 3.71 78.2248 3.71 78.49L3.55 83.6C3.55 83.8652 3.44464 84.1196 3.25711 84.3071C3.06957 84.4946 2.81522 84.6 2.55 84.6ZM19 83.87C18.7348 83.87 18.4804 83.7646 18.2929 83.5771C18.1054 83.3896 18 83.1352 18 82.87L17.88 77.76C17.88 77.4948 17.9854 77.2404 18.1729 77.0529C18.3604 76.8654 18.6148 76.76 18.88 76.76C19.1452 76.76 19.3996 76.8654 19.5871 77.0529C19.7746 77.2404 19.88 77.4948 19.88 77.76L20 82.85C20 83.1152 19.8946 83.3696 19.7071 83.5571C19.5196 83.7446 19.2652 83.85 19 83.85V83.87ZM3.05 74.42C2.87391 74.4182 2.70143 74.3699 2.55 74.28C2.43625 74.2138 2.33667 74.1259 2.25698 74.0211C2.17729 73.9164 2.11906 73.797 2.08561 73.6697C2.05217 73.5424 2.04417 73.4098 2.06209 73.2794C2.08 73.1491 2.12347 73.0235 2.19 72.91C2.42084 72.5182 2.74968 72.1932 3.14418 71.967C3.53868 71.7409 3.98526 71.6213 4.44 71.62H7.88C8.14522 71.62 8.39957 71.7254 8.58711 71.9129C8.77464 72.1004 8.88 72.3548 8.88 72.62C8.88 72.8852 8.77464 73.1396 8.58711 73.3271C8.39957 73.5146 8.14522 73.62 7.88 73.62H4.44C4.33441 73.6189 4.23046 73.6461 4.13899 73.6989C4.04753 73.7517 3.9719 73.828 3.92 73.92C3.8319 74.0726 3.70503 74.1992 3.55225 74.287C3.39948 74.3748 3.22621 74.4207 3.05 74.42ZM18.05 73.89C17.854 73.8885 17.6627 73.8293 17.5 73.72C17.4033 73.6528 17.2878 73.6178 17.17 73.62H13C12.7348 73.62 12.4804 73.5146 12.2929 73.3271C12.1054 73.1396 12 72.8852 12 72.62C12 72.3548 12.1054 72.1004 12.2929 71.9129C12.4804 71.7254 12.7348 71.62 13 71.62H17.18C17.6915 71.6208 18.1918 71.7702 18.62 72.05C18.8026 72.1679 18.9419 72.3421 19.0167 72.5462C19.0914 72.7504 19.0976 72.9733 19.0343 73.1813C18.971 73.3893 18.8417 73.571 18.6659 73.6989C18.4901 73.8267 18.2774 73.8938 18.06 73.89H18.05Z" fill="#001968"/>
<path d="M10.77 72.65C10.5048 72.65 10.2504 72.5447 10.0629 72.3571C9.87538 72.1696 9.77002 71.9152 9.77002 71.65V69.15C9.77002 68.8848 9.87538 68.6305 10.0629 68.4429C10.2504 68.2554 10.5048 68.15 10.77 68.15C11.0352 68.15 11.2896 68.2554 11.4771 68.4429C11.6647 68.6305 11.77 68.8848 11.77 69.15V71.65C11.77 71.9152 11.6647 72.1696 11.4771 72.3571C11.2896 72.5447 11.0352 72.65 10.77 72.65Z" fill="#001968"/>
<path d="M10.77 65.1899C10.5048 65.1899 10.2504 65.0846 10.0629 64.897C9.87538 64.7095 9.77002 64.4551 9.77002 64.1899V59.1899C9.77002 58.9247 9.87538 58.6703 10.0629 58.4828C10.2504 58.2953 10.5048 58.1899 10.77 58.1899C11.0352 58.1899 11.2896 58.2953 11.4771 58.4828C11.6647 58.6703 11.77 58.9247 11.77 59.1899V64.1899C11.77 64.4551 11.6647 64.7095 11.4771 64.897C11.2896 65.0846 11.0352 65.1899 10.77 65.1899ZM10.77 55.2699C10.5048 55.2699 10.2504 55.1646 10.0629 54.977C9.87538 54.7895 9.77002 54.5351 9.77002 54.2699V49.2699C9.77002 49.0047 9.87538 48.7503 10.0629 48.5628C10.2504 48.3753 10.5048 48.2699 10.77 48.2699C11.0352 48.2699 11.2896 48.3753 11.4771 48.5628C11.6647 48.7503 11.77 49.0047 11.77 49.2699V54.2699C11.77 54.5351 11.6647 54.7895 11.4771 54.977C11.2896 55.1646 11.0352 55.2699 10.77 55.2699ZM10.77 45.3399C10.5048 45.3399 10.2504 45.2346 10.0629 45.047C9.87538 44.8595 9.77002 44.6051 9.77002 44.3399V39.3399C9.77002 39.0747 9.87538 38.8203 10.0629 38.6328C10.2504 38.4453 10.5048 38.3399 10.77 38.3399C11.0352 38.3399 11.2896 38.4453 11.4771 38.6328C11.6647 38.8203 11.77 39.0747 11.77 39.3399V44.3399C11.77 44.4712 11.7442 44.6013 11.6939 44.7226C11.6436 44.8439 11.57 44.9542 11.4771 45.047C11.3843 45.1399 11.274 45.2135 11.1527 45.2638C11.0314 45.314 10.9013 45.3399 10.77 45.3399ZM10.77 35.4199C10.5048 35.4199 10.2504 35.3146 10.0629 35.127C9.87538 34.9395 9.77002 34.6851 9.77002 34.4199V29.4199C9.77002 29.1547 9.87538 28.9003 10.0629 28.7128C10.2504 28.5253 10.5048 28.4199 10.77 28.4199C11.0352 28.4199 11.2896 28.5253 11.4771 28.7128C11.6647 28.9003 11.77 29.1547 11.77 29.4199V34.4199C11.77 34.5512 11.7442 34.6813 11.6939 34.8026C11.6436 34.9239 11.57 35.0342 11.4771 35.127C11.3843 35.2199 11.274 35.2935 11.1527 35.3438C11.0314 35.3941 10.9013 35.4199 10.77 35.4199ZM10.77 25.4999C10.5048 25.4999 10.2504 25.3946 10.0629 25.207C9.87538 25.0195 9.77002 24.7651 9.77002 24.4999C9.80058 22.7884 9.97453 21.0824 10.29 19.3999C10.3404 19.1347 10.4941 18.9004 10.7173 18.7485C10.9404 18.5966 11.2148 18.5395 11.48 18.5899C11.7452 18.6403 11.9796 18.794 12.1315 19.0172C12.2834 19.2403 12.3404 19.5147 12.29 19.7799C11.9979 21.3538 11.8373 22.9493 11.81 24.5499C11.8038 24.6849 11.7703 24.8172 11.7116 24.9389C11.6528 25.0606 11.57 25.1691 11.4681 25.2579C11.3662 25.3467 11.2474 25.4139 11.1188 25.4555C10.9903 25.4971 10.8546 25.5122 10.72 25.4999H10.77Z" fill="#001968"/>
<path d="M12.8401 15.9C12.6649 15.9012 12.4925 15.8564 12.3401 15.77C12.1137 15.6331 11.9508 15.412 11.8871 15.1552C11.8234 14.8985 11.864 14.6269 12.0001 14.4C12.4661 13.575 13.064 12.8318 13.7701 12.2C13.8685 12.1092 13.9841 12.039 14.1102 11.9937C14.2362 11.9485 14.37 11.9289 14.5037 11.9363C14.6374 11.9438 14.7683 11.978 14.8886 12.0369C15.0088 12.0959 15.116 12.1783 15.2037 12.2795C15.2915 12.3807 15.358 12.4984 15.3994 12.6258C15.4408 12.7531 15.4562 12.8875 15.4447 13.0209C15.4331 13.1543 15.3949 13.2841 15.3323 13.4025C15.2697 13.5208 15.1839 13.6254 15.0801 13.71C14.5409 14.1959 14.0848 14.7668 13.7301 15.4C13.6403 15.5556 13.5103 15.6842 13.3537 15.7721C13.1971 15.8601 13.0197 15.9043 12.8401 15.9Z" fill="#001968"/>
<path d="M19.75 17.12C19.1565 17.117 18.5668 17.026 18 16.85C17.7542 16.7657 17.5509 16.589 17.4331 16.3573C17.3153 16.1256 17.2923 15.8572 17.369 15.6089C17.4457 15.3606 17.6161 15.1519 17.844 15.0271C18.0719 14.9022 18.3395 14.871 18.59 14.94C19.3433 15.1671 20.1468 15.1671 20.9 14.94L22.9 14.37C23.0267 14.3339 23.1593 14.3231 23.2902 14.3382C23.4211 14.3533 23.5478 14.3941 23.6629 14.4582C23.7781 14.5222 23.8795 14.6084 23.9613 14.7116C24.0432 14.8149 24.1039 14.9332 24.14 15.06C24.1761 15.1867 24.1869 15.3193 24.1718 15.4502C24.1567 15.5811 24.1159 15.7077 24.0518 15.8229C23.9878 15.938 23.9016 16.0394 23.7984 16.1213C23.6951 16.2031 23.5767 16.2639 23.45 16.3L21.45 16.86C20.8988 17.0278 20.3262 17.1154 19.75 17.12ZM27.89 15C27.7587 15.0184 27.625 15.0107 27.4967 14.9774C27.3683 14.9442 27.2478 14.8859 27.1419 14.8061C26.9281 14.6448 26.7872 14.4052 26.75 14.14C26.7129 13.8748 26.7826 13.6057 26.9439 13.3919C27.1052 13.1781 27.3448 13.0371 27.61 13L32.39 11.63C32.5161 11.5932 32.6482 11.5816 32.7787 11.5959C32.9093 11.6102 33.0357 11.65 33.1509 11.7132C33.266 11.7763 33.3676 11.8615 33.4498 11.9639C33.532 12.0663 33.5933 12.1839 33.63 12.31C33.6666 12.4367 33.6778 12.5694 33.6628 12.7005C33.6479 12.8315 33.6072 12.9583 33.5431 13.0736C33.4789 13.1888 33.3926 13.2903 33.2891 13.372C33.1856 13.4538 33.067 13.5143 32.94 13.55L28.17 14.92C28.0811 14.9602 27.9868 14.9871 27.89 15ZM13.94 12.77V12.71C13.669 11.7542 13.6366 10.7466 13.8459 9.77542C14.0551 8.80427 14.4995 7.89932 15.14 7.13997C15.3111 6.93708 15.5557 6.81046 15.8202 6.78795C16.0846 6.76545 16.3471 6.84891 16.55 7.01997C16.7529 7.19104 16.8795 7.43569 16.902 7.70012C16.9245 7.96455 16.8411 8.22708 16.67 8.42997C16.0383 9.15817 15.6842 10.0861 15.67 11.05C15.6678 11.4292 15.7217 11.8066 15.83 12.17L14.88 12.51L13.94 12.77ZM37.44 12.24C37.2156 12.2483 36.9949 12.1808 36.8135 12.0483C36.6321 11.9159 36.5005 11.7263 36.44 11.51C36.3692 11.2554 36.402 10.9831 36.5313 10.7526C36.6606 10.5222 36.8758 10.3522 37.13 10.28L39.01 9.72997C39.7921 9.51285 40.4897 9.06293 41.01 8.43997C41.0941 8.33885 41.1972 8.25528 41.3136 8.19402C41.4299 8.13277 41.5572 8.09502 41.6881 8.08295C41.819 8.07088 41.9511 8.08472 42.0766 8.12367C42.2022 8.16262 42.3189 8.22593 42.42 8.30997C42.5211 8.39402 42.6047 8.49716 42.666 8.6135C42.7272 8.72985 42.765 8.85712 42.777 8.98805C42.7891 9.11898 42.7753 9.25101 42.7363 9.37659C42.6974 9.50217 42.6341 9.61886 42.55 9.71997C41.7665 10.652 40.7215 11.3278 39.55 11.66L37.67 12.2C37.5947 12.2199 37.5177 12.2333 37.44 12.24ZM20.27 6.63997C20.0048 6.6771 19.7357 6.60736 19.5219 6.44607C19.3081 6.28479 19.1672 6.04519 19.13 5.77997C19.0929 5.51476 19.1626 5.24565 19.3239 5.03186C19.4852 4.81807 19.7248 4.6771 19.99 4.63997L24.77 3.26997C24.8988 3.23556 25.0331 3.22722 25.1651 3.24544C25.2971 3.26367 25.4241 3.30809 25.5387 3.3761C25.6533 3.4441 25.7531 3.53433 25.8323 3.64146C25.9115 3.7486 25.9686 3.87049 26 3.99997C26.0743 4.25458 26.0444 4.52826 25.9168 4.76081C25.7893 4.99335 25.5746 5.16571 25.32 5.23997L20.54 6.59997C20.4528 6.62794 20.3616 6.64145 20.27 6.63997ZM42.79 5.40997C42.5669 5.41885 42.3472 5.35279 42.1659 5.2223C41.9847 5.09181 41.8524 4.90441 41.79 4.68997C41.5977 4.06126 41.2564 3.48832 40.7949 3.01995C40.3335 2.55159 39.7658 2.20166 39.14 1.99997C38.9088 1.90424 38.7219 1.72532 38.6162 1.49852C38.5105 1.27172 38.4937 1.01353 38.569 0.774921C38.6444 0.536311 38.8064 0.33462 39.0232 0.209665C39.24 0.0847097 39.4958 0.0455703 39.74 0.0999734C40.6889 0.399306 41.5498 0.926924 42.2472 1.63654C42.9446 2.34615 43.4572 3.21607 43.74 4.16997C43.7768 4.29604 43.7884 4.42812 43.7741 4.55866C43.7598 4.68921 43.72 4.81566 43.6568 4.93081C43.5937 5.04595 43.5085 5.14753 43.4061 5.22975C43.3037 5.31196 43.1861 5.3732 43.06 5.40997C42.9704 5.42218 42.8796 5.42218 42.79 5.40997ZM29.79 3.89997C29.6587 3.91836 29.525 3.9107 29.3967 3.87743C29.2683 3.84416 29.1478 3.78593 29.0419 3.70608C28.8281 3.54479 28.6872 3.30519 28.65 3.03997C28.6129 2.77476 28.6826 2.50565 28.8439 2.29186C29.0052 2.07807 29.2448 1.9371 29.51 1.89997L34.32 0.559973C34.4467 0.523391 34.5795 0.512239 34.7105 0.527161C34.8416 0.542082 34.9684 0.582782 35.0836 0.646916C35.1989 0.711051 35.3003 0.797352 35.3821 0.900851C35.4638 1.00435 35.5243 1.123 35.56 1.24997C35.6309 1.50456 35.5981 1.77685 35.4688 2.00732C35.3395 2.2378 35.1242 2.40773 34.87 2.47997L30.09 3.85997C30.0017 3.88304 29.9112 3.89646 29.82 3.89997H29.79Z" fill="#001968"/>
<path d="M57.45 95.02C64.8893 95.02 70.92 88.9892 70.92 81.55C70.92 74.1107 64.8893 68.08 57.45 68.08C50.0107 68.08 43.98 74.1107 43.98 81.55C43.98 88.9892 50.0107 95.02 57.45 95.02Z" fill="#FF0B0B"/>
<path d="M61 81.53L64.09 78.53C64.5581 78.0725 64.8253 77.4477 64.8328 76.7932C64.8403 76.1387 64.5875 75.5081 64.13 75.04C63.6725 74.5719 63.0478 74.3047 62.3933 74.2972C61.7388 74.2897 61.1081 74.5425 60.64 75L57.48 78.11L54.32 75C54.0895 74.7754 53.8171 74.5984 53.5182 74.4792C53.2194 74.3599 52.8999 74.3007 52.5782 74.3048C51.9284 74.3133 51.3085 74.5795 50.855 75.045C50.4015 75.5104 50.1514 76.137 50.1599 76.7868C50.1683 77.4366 50.4345 78.0564 50.9 78.51L53.99 81.51L50.9 84.51C50.4741 84.9714 50.2415 85.5787 50.2504 86.2066C50.2593 86.8345 50.509 87.435 50.9479 87.8841C51.3867 88.3332 51.9813 88.5967 52.6088 88.6201C53.2363 88.6436 53.8489 88.4251 54.32 88.01L57.48 85L60.64 88.1C60.8654 88.3442 61.1382 88.54 61.4417 88.6754C61.7452 88.8108 62.0731 88.8831 62.4054 88.8878C62.7378 88.8926 63.0676 88.8296 63.3748 88.7028C63.682 88.576 63.9602 88.3881 64.1925 88.1504C64.4248 87.9126 64.6063 87.6302 64.7259 87.3201C64.8456 87.01 64.9009 86.6788 64.8885 86.3467C64.8761 86.0146 64.7962 85.6885 64.6538 85.3882C64.5114 85.0879 64.3094 84.8197 64.06 84.6L61 81.53Z" fill="white"/>
<path d="M59.0001 98.88C61.0543 99.1446 62.9866 100.003 64.5601 101.35C64.6977 101.492 64.7793 101.679 64.7898 101.877C64.8002 102.075 64.7389 102.269 64.6171 102.425C64.4953 102.581 64.3212 102.688 64.1269 102.725C63.9326 102.763 63.7313 102.729 63.5601 102.63C62.0475 101.324 60.1383 100.567 58.1418 100.482C56.1453 100.396 54.1785 100.988 52.5601 102.16C52.3877 102.293 52.1697 102.351 51.954 102.323C51.7383 102.295 51.5427 102.182 51.4101 102.01C51.2774 101.838 51.2188 101.62 51.2469 101.404C51.275 101.188 51.3877 100.993 51.5601 100.86C53.73 99.3455 56.3644 98.6445 59.0001 98.88Z" fill="#001968"/>
<path d="M71.9999 114.53C71.3299 111.53 70.6999 105.73 75.5499 106.41C78.5499 106.82 78.8799 110.69 80.9599 112.41C82.1899 113.41 83.9599 111.67 82.7199 110.65C81.0199 109.25 80.6499 106.81 79.0099 105.33C78.2688 104.687 77.3846 104.231 76.4313 104C75.478 103.769 74.4832 103.769 73.5299 104C68.3599 105.27 68.6699 111 69.5999 115.16C69.9499 116.73 72.3599 116.06 72.0099 114.49L71.9999 114.53Z" fill="#FF0B0B"/>
<path d="M82.5729 110.859L69.6952 115.263C67.6676 115.956 66.586 118.162 67.2794 120.19L69.3439 126.226C70.0373 128.254 72.2431 129.335 74.2707 128.642L87.1485 124.238C89.176 123.545 90.2576 121.339 89.5642 119.311L87.4997 113.275C86.8063 111.247 84.6005 110.165 82.5729 110.859Z" fill="#FF0B0B"/>
<path d="M71.2699 109.32C74.2063 105.361 76.6822 101.08 78.6499 96.5599C80.7436 91.84 81.7909 86.7229 81.7199 81.5599C81.6891 76.994 80.4727 72.5144 78.1899 68.5599C76.3513 65.5311 73.7698 63.0218 70.6899 61.27C66.5675 58.9853 61.9428 57.7587 57.2299 57.7C52.5153 57.7361 47.8835 58.9422 43.7499 61.2099C40.6652 62.9526 38.074 65.4508 36.2199 68.47C33.9241 72.4001 32.6872 76.8587 32.6299 81.41C32.3499 88.72 34.9299 96.7299 40.2799 105.22C43.4484 110.151 47.0888 114.763 51.1499 118.99C51.1499 118.99 51.6299 119.39 51.5599 122.28C51.5558 125.426 51.3554 128.569 50.9599 131.69C50.9099 132.16 50.7199 132.3 50.4999 132.33L41.8899 131.69C40.9494 131.339 39.918 131.315 38.9619 131.621C38.0059 131.928 37.181 132.547 36.6199 133.38C33.6199 137.77 40.8099 137.17 40.8099 137.17H54.4899C55.3799 137.22 55.8999 136.31 56.0299 135.74C56.344 134.058 56.5477 132.358 56.6399 130.65C56.7237 132.361 56.9208 134.065 57.2299 135.75C57.3499 136.32 57.8699 137.23 58.7699 137.18H72.4399C72.4399 137.18 79.6699 137.81 76.6499 133.4C76.0894 132.567 75.2655 131.945 74.3101 131.635C73.3548 131.325 72.3231 131.344 71.3799 131.69L62.7699 132.3C62.5499 132.3 62.3599 132.13 62.3099 131.65C61.9429 128.58 61.7593 125.491 61.7599 122.4V121.78V120.87C62.0723 120.23 62.4917 119.648 62.9999 119.15C65.979 116.067 68.7422 112.783 71.2699 109.32ZM57.8999 116.59L57.1299 117.32L55.9999 116.26C49.9999 110.17 37.5399 95.76 38.0699 81.69C38.7399 64.06 54.1599 63.1999 57.2399 63.2099C60.3199 63.2199 75.7299 64.1399 76.3199 81.7699C76.5599 88.9199 73.3199 97.3399 66.9099 106.13C64.1804 109.843 61.1681 113.34 57.8999 116.59Z" fill="#001968"/>
<path d="M73.3801 137.73C72.8901 137.73 72.5301 137.73 72.3801 137.73H58.7401C58.2733 137.694 57.8319 137.504 57.4858 137.188C57.1398 136.873 56.909 136.451 56.8301 135.99C56.7501 135.61 56.6701 135.17 56.6001 134.66C56.5301 135.17 56.4501 135.61 56.3601 135.99C56.2001 136.72 55.5301 137.79 54.4401 137.72H40.8101C40.4201 137.72 36.7101 138.01 35.7301 136.31C35.2801 135.54 35.4801 134.54 36.3101 133.31C36.9065 132.399 37.792 131.716 38.8241 131.369C39.8562 131.023 40.9749 131.033 42.0001 131.4L50.5601 132.04C50.5601 132.04 50.5601 132.04 50.6201 131.73C51.0074 128.622 51.2045 125.492 51.2101 122.36C51.2801 119.85 50.9201 119.36 50.9101 119.36C46.8323 115.105 43.1784 110.463 40.0001 105.5C34.6101 96.95 32.0001 88.86 32.2901 81.5C32.3358 76.8782 33.5797 72.3473 35.9001 68.3499C37.7987 65.2945 40.4365 62.7667 43.5701 61C47.7453 58.7052 52.4259 57.4853 57.1901 57.45C61.978 57.4736 66.684 58.694 70.8801 61C74.0106 62.7874 76.6359 65.3405 78.5101 68.4199C80.826 72.4218 82.0631 76.9564 82.1001 81.58C82.172 86.7848 81.1144 91.9433 79.0001 96.6999C77.029 101.249 74.5428 105.557 71.5901 109.54C69.0416 113.016 66.2585 116.314 63.2601 119.41C62.8035 119.893 62.4286 120.447 62.1501 121.05V121.91V122.55C62.1399 125.622 62.3236 128.691 62.7001 131.74C62.7001 132.05 62.7901 132.06 62.8401 132.07L71.3201 131.46C72.34 131.096 73.4522 131.082 74.4809 131.421C75.5096 131.759 76.396 132.431 77.0001 133.33C77.8201 134.54 78.0001 135.54 77.5601 136.33C76.8101 137.53 74.6601 137.73 73.3801 137.73ZM58.7501 136.9H72.4501C73.4501 136.99 76.2401 136.98 76.8801 135.9C77.1701 135.4 76.9901 134.67 76.3401 133.73C75.8268 132.968 75.0742 132.399 74.2012 132.113C73.3282 131.827 72.3848 131.84 71.5201 132.15H71.4101L62.8001 132.76C62.5598 132.726 62.3401 132.606 62.1818 132.422C62.0236 132.238 61.9377 132.003 61.9401 131.76C61.5682 128.677 61.3845 125.575 61.3901 122.47V121.83V120.9C61.6919 120.154 62.137 119.475 62.7001 118.9C65.6895 115.829 68.4628 112.554 71.0001 109.1C73.9117 105.164 76.3611 100.906 78.3001 96.41C80.3555 91.7471 81.3789 86.6951 81.3001 81.5999C81.2611 77.1144 80.0623 72.7151 77.8201 68.83C76.0087 65.8582 73.4729 63.3947 70.4501 61.6699C66.3882 59.4127 61.8267 58.2062 57.1801 58.16C52.5463 58.1986 47.9943 59.3839 43.9301 61.61C40.9002 63.3226 38.3542 65.7758 36.5301 68.7399C34.2721 72.6174 33.056 77.0133 33.0001 81.5C32.7301 88.74 35.2801 96.6799 40.5901 105.1C43.7482 110.009 47.3752 114.601 51.4201 118.81C51.5801 118.93 52.0101 119.59 51.9301 122.37C51.9236 125.533 51.7232 128.692 51.3301 131.83C51.3404 132.055 51.2677 132.276 51.1258 132.451C50.9838 132.627 50.7825 132.743 50.5601 132.78L41.7501 132.12C40.8897 131.796 39.9449 131.773 39.0697 132.054C38.1945 132.336 37.4403 132.905 36.9301 133.67C36.2701 134.61 36.0901 135.34 36.3801 135.84C37.0101 136.94 39.7701 136.96 40.7801 136.84H54.4901C55.2101 136.84 55.5901 136.01 55.6601 135.7C55.9718 134.048 56.1756 132.378 56.2701 130.7H57.0001C57.0863 132.378 57.2834 134.048 57.5901 135.7C57.6601 136.06 58.0001 137 58.7501 136.9ZM57.0701 117.9L56.8201 117.52L55.7301 116.52C50.1101 110.82 37.1301 96.0299 37.6701 81.6699C38.3501 63.7699 54.0001 62.83 57.1901 62.83C60.3401 62.83 76.0401 63.83 76.6501 81.76C76.8901 88.99 73.6501 97.4999 67.1601 106.35C64.4364 110.081 61.4273 113.595 58.1601 116.86L57.0701 117.9ZM57.1901 63.57C54.0801 63.57 39.0701 64.47 38.4201 81.69C37.8901 95.77 50.7101 110.36 56.2501 115.99L57.1301 116.8L57.6301 116.32C60.8939 113.084 63.9028 109.6 66.6301 105.9C72.9701 97.18 76.2001 88.8399 75.9701 81.7699C75.3901 64.4799 60.2801 63.58 57.2601 63.57H57.1901Z" fill="#001968"/>
<path d="M77.6501 56.33L38.5801 56.02L41.3101 47.34L75.0501 47.6L77.6501 56.33Z" fill="#FF0B0B"/>
<path d="M84.9199 62.91L31.2 62.49L34.91 57.08L81.3 57.44L84.9199 62.91Z" fill="#FF0B0B"/>
</g>
<defs>
<clipPath id="clip0">
<rect width="126.07" height="139.2" fill="white"/>
</clipPath>
</defs>
</svg>
