<svg width="133" height="72" viewBox="0 0 133 72" fill="none" xmlns="http://www.w3.org/2000/svg">
<g clip-path="url(#clip0)">
<path d="M118.13 41.05C116.873 40.7304 115.57 40.6356 114.28 40.77L114.98 39.26C115.011 39.2075 115.031 39.1491 115.038 39.0886C115.046 39.028 115.04 38.9665 115.023 38.9081C115.005 38.8497 114.976 38.7956 114.936 38.7493C114.896 38.7029 114.847 38.6653 114.792 38.6388C114.737 38.6124 114.677 38.5977 114.616 38.5956C114.555 38.5935 114.495 38.6042 114.438 38.6269C114.381 38.6495 114.33 38.6838 114.287 38.7273C114.245 38.7709 114.211 38.8229 114.19 38.88L113.19 40.88C112.113 41.0867 111.091 41.5158 110.19 42.14C110.28 41.99 110.36 41.84 110.44 41.69C110.901 40.6685 111.584 39.763 112.44 39.04C113.641 38.089 115.165 37.6409 116.69 37.79L117.12 39.73C117.144 39.834 117.205 39.9258 117.291 39.9884C117.377 40.0509 117.484 40.0799 117.59 40.07H117.65C117.706 40.0582 117.759 40.0352 117.807 40.0025C117.854 39.9698 117.894 39.928 117.925 39.8796C117.955 39.8311 117.976 39.777 117.986 39.7204C117.995 39.6638 117.993 39.6058 117.98 39.55L117.74 38C118.438 38.1951 119.109 38.4738 119.74 38.83L120.12 40.53C120.144 40.634 120.205 40.7258 120.291 40.7884C120.377 40.8509 120.484 40.8799 120.59 40.87H120.65C120.762 40.8437 120.859 40.7745 120.921 40.6773C120.983 40.5801 121.004 40.4626 120.98 40.35L120.78 39.47C121.509 39.9598 122.211 40.4907 122.88 41.06C122.951 41.1191 123.033 41.1636 123.121 41.1911C123.209 41.2185 123.302 41.2284 123.394 41.22C123.486 41.2116 123.575 41.1853 123.657 41.1424C123.738 41.0995 123.811 41.0409 123.87 40.97C123.929 40.8991 123.974 40.8172 124.001 40.7291C124.029 40.6409 124.038 40.5483 124.03 40.4563C124.022 40.3644 123.995 40.275 123.952 40.1933C123.909 40.1115 123.851 40.0391 123.78 39.98C120.38 37.15 116.3 34.7 111.78 37.98C110.746 38.823 109.913 39.8853 109.34 41.09C108.52 42.57 108.02 43.48 106.7 43.28C106.189 43.0431 105.657 42.8556 105.11 42.72C104.941 42.6734 104.76 42.6923 104.604 42.7727C104.448 42.8531 104.328 42.9892 104.267 43.1541C104.207 43.319 104.211 43.5006 104.278 43.6628C104.345 43.825 104.471 43.9561 104.63 44.03C105.134 44.2875 105.668 44.4823 106.22 44.61C106.507 44.7232 106.763 44.9012 106.97 45.13C106.961 45.1997 106.961 45.2703 106.97 45.34C105.22 48.03 104.85 50.39 105.87 52.34C108.28 57.03 117.66 57.79 122.28 57.54C122.461 57.5222 122.629 57.4355 122.748 57.2978C122.867 57.1601 122.928 56.9819 122.92 56.8C122.905 56.6161 122.819 56.4451 122.682 56.3223C122.544 56.1995 122.364 56.1342 122.18 56.14C121.74 56.14 121.27 56.14 120.78 56.14L121.66 54.48C121.696 54.429 121.722 54.3708 121.734 54.3094C121.746 54.2479 121.745 54.1845 121.731 54.1235C121.716 54.0625 121.689 54.0052 121.651 53.9556C121.613 53.9059 121.564 53.865 121.509 53.8355C121.454 53.806 121.393 53.7888 121.33 53.7848C121.268 53.7808 121.205 53.7902 121.146 53.8124C121.088 53.8346 121.034 53.8691 120.99 53.9135C120.946 53.9579 120.912 54.0113 120.89 54.07L119.8 56.13C118.377 56.0937 116.957 55.9668 115.55 55.75C115.653 55.7238 115.742 55.6598 115.799 55.5708C115.857 55.4818 115.878 55.3743 115.86 55.27C115.843 55.1546 115.78 55.0508 115.687 54.9815C115.593 54.9121 115.475 54.8828 115.36 54.9L113.06 55.26C112.117 55.0285 111.197 54.7139 110.31 54.32L111.84 53.66C111.947 53.6136 112.032 53.5264 112.075 53.4176C112.118 53.3088 112.116 53.1874 112.07 53.08C112.024 52.9726 111.936 52.888 111.828 52.8448C111.719 52.8017 111.597 52.8036 111.49 52.85L109.29 53.8C108.434 53.3223 107.715 52.6338 107.2 51.8H107.76C107.865 51.7779 107.958 51.7184 108.022 51.6326C108.086 51.5469 108.116 51.4408 108.108 51.3342C108.099 51.2276 108.052 51.1277 107.975 51.0533C107.898 50.9789 107.797 50.9351 107.69 50.93L106.83 51C106.42 49.53 106.94 47.74 108.38 45.67C108.713 46.9063 109.294 48.0618 110.088 49.0659C110.883 50.07 111.873 50.9016 113 51.51C113.064 51.5776 113.148 51.6232 113.24 51.64C113.883 51.9732 114.552 52.2541 115.24 52.48C115.245 52.542 115.263 52.6024 115.292 52.6574C115.321 52.7124 115.361 52.7609 115.41 52.8L117.22 54.15C117.305 54.2166 117.412 54.2488 117.52 54.24C117.609 54.2329 117.694 54.1989 117.763 54.1425C117.832 54.0862 117.883 54.0101 117.908 53.9243C117.933 53.8386 117.931 53.7473 117.903 53.6626C117.875 53.5779 117.821 53.5037 117.75 53.45L117.11 52.97C117.941 53.1279 118.784 53.2116 119.63 53.22H119.68C119.789 53.2078 119.889 53.1564 119.963 53.0754C120.037 52.9945 120.078 52.8894 120.08 52.78C120.08 52.6633 120.034 52.5514 119.951 52.4688C119.869 52.3863 119.757 52.34 119.64 52.34C117.849 52.3288 116.079 51.951 114.44 51.23L116.2 50.47C116.307 50.4236 116.392 50.3364 116.435 50.2276C116.478 50.1188 116.476 49.9974 116.43 49.89C116.384 49.7826 116.296 49.698 116.188 49.6548C116.079 49.6117 115.957 49.6136 115.85 49.66L113.42 50.71C112.633 50.2577 111.91 49.7028 111.27 49.06L112.27 48.98C112.326 48.975 112.382 48.9588 112.432 48.9324C112.482 48.906 112.527 48.8699 112.563 48.8262C112.599 48.7825 112.626 48.7321 112.643 48.6778C112.66 48.6235 112.665 48.5665 112.66 48.51C112.65 48.395 112.595 48.2886 112.507 48.2137C112.419 48.1389 112.305 48.1016 112.19 48.11L110.82 48.22C110.748 48.2318 110.68 48.2591 110.62 48.3C109.79 47.2714 109.233 46.0505 109 44.75C109.081 44.65 109.129 44.528 109.14 44.4C109.933 44.2041 110.744 44.0869 111.56 44.05L112.03 46.18C112.056 46.283 112.117 46.3736 112.203 46.4358C112.289 46.498 112.394 46.5278 112.5 46.52H112.56C112.617 46.507 112.67 46.483 112.717 46.4493C112.764 46.4156 112.805 46.3729 112.835 46.3236C112.866 46.2744 112.887 46.2195 112.896 46.1623C112.905 46.105 112.903 46.0464 112.89 45.99L112.56 44C113.235 44.0676 113.879 44.3202 114.42 44.73L114.98 47.54C115.002 47.6458 115.062 47.74 115.148 47.8046C115.235 47.8691 115.342 47.8995 115.45 47.89C115.507 47.8792 115.562 47.8571 115.611 47.8251C115.659 47.793 115.701 47.7516 115.734 47.7032C115.766 47.6548 115.789 47.6004 115.8 47.5432C115.812 47.486 115.812 47.4271 115.8 47.37L115.53 46C115.78 46.37 116.03 46.79 116.29 47.24C116.95 48.4583 117.767 49.5846 118.72 50.59C118.765 50.636 118.82 50.6709 118.881 50.6917C118.941 50.7125 119.006 50.7188 119.07 50.71C119.17 50.7 119.265 50.658 119.34 50.59C119.422 50.5075 119.468 50.3961 119.468 50.28C119.468 50.1638 119.422 50.0524 119.34 49.97C118.939 49.5632 118.571 49.1251 118.24 48.66H119.86C119.964 48.6392 120.057 48.5815 120.122 48.4976C120.187 48.4137 120.219 48.3091 120.213 48.2032C120.207 48.0973 120.163 47.9972 120.089 47.9212C120.015 47.8453 119.916 47.7987 119.81 47.79H117.65C117.44 47.45 117.24 47.12 117.05 46.79L116.87 46.5H118.87C118.98 46.49 119.081 46.4392 119.156 46.3578C119.23 46.2763 119.27 46.1701 119.27 46.06C119.267 45.945 119.22 45.8357 119.138 45.7553C119.055 45.6749 118.945 45.6299 118.83 45.63H116.57C116.489 45.6295 116.41 45.6502 116.34 45.69C115.21 43.95 113.81 42.69 110.28 43.18C111.124 42.5285 112.089 42.0508 113.119 41.7745C114.149 41.4981 115.223 41.4286 116.28 41.57V41.64L116.78 43.84C116.802 43.9432 116.86 44.0349 116.945 44.0975C117.03 44.1602 117.135 44.1896 117.24 44.18H117.3C117.357 44.167 117.41 44.143 117.457 44.1093C117.504 44.0756 117.545 44.0329 117.575 43.9836C117.606 43.9344 117.627 43.8795 117.636 43.8223C117.645 43.765 117.643 43.7064 117.63 43.65L117.2 41.65L117.83 41.79C118.701 42.0099 119.539 42.3463 120.32 42.79L121.11 47.13C121.129 47.2377 121.188 47.3343 121.275 47.4008C121.362 47.4674 121.471 47.4992 121.58 47.49C121.637 47.4803 121.692 47.4594 121.741 47.4285C121.79 47.3976 121.833 47.3573 121.866 47.3099C121.9 47.2625 121.923 47.2089 121.936 47.1523C121.949 47.0957 121.95 47.0371 121.94 46.98L121.3 43.49C121.916 43.9515 122.434 44.5301 122.825 45.1925C123.216 45.8549 123.473 46.5881 123.58 47.35C123.583 47.4108 123.598 47.4704 123.624 47.5251C123.651 47.5798 123.689 47.6283 123.736 47.6675C123.782 47.7068 123.836 47.736 123.895 47.7533C123.953 47.7706 124.014 47.7756 124.075 47.7679C124.135 47.7603 124.193 47.7402 124.246 47.709C124.298 47.6777 124.343 47.6359 124.378 47.5863C124.413 47.5367 124.438 47.4803 124.45 47.4207C124.463 47.361 124.463 47.2995 124.45 47.24C124.19 44.37 121.72 42 118.13 41.05Z" fill="#FF0B0B"/>
<path d="M2.99995 71.32C2.31054 71.3202 1.64209 71.083 1.10704 70.6482C0.571999 70.2135 0.203019 69.6077 0.0621769 68.9328C-0.0786651 68.258 0.0172264 67.5552 0.333719 66.9427C0.650211 66.3302 1.16799 65.8455 1.79995 65.57C22.1484 57.4834 43.8337 53.2874 65.7299 53.2C87.7594 53.317 109.602 57.2484 130.29 64.82C131.001 65.1334 131.562 65.7105 131.856 66.4296C132.15 67.1488 132.154 67.9539 131.866 68.6757C131.579 69.3974 131.022 69.9794 130.314 70.2991C129.606 70.6189 128.802 70.6514 128.07 70.3899C108.068 63.1762 86.9918 59.393 65.7299 59.2C44.6658 59.3526 23.8092 63.3761 4.19995 71.07C3.82142 71.235 3.41289 71.3201 2.99995 71.32Z" fill="#001968"/>
<path d="M24.4 47.43H10.52C8.71026 47.4274 6.97559 46.7066 5.69687 45.4261C4.41816 44.1455 3.69995 42.4097 3.69995 40.6V32C3.69995 30.1903 4.41816 28.4546 5.69687 27.174C6.97559 25.8934 8.71026 25.1727 10.52 25.17H24.4C26.2096 25.1727 27.9443 25.8934 29.223 27.174C30.5017 28.4546 31.22 30.1903 31.2199 32V40.6C31.22 42.4097 30.5017 44.1455 29.223 45.4261C27.9443 46.7066 26.2096 47.4274 24.4 47.43ZM10.52 27.18C9.24242 27.1827 8.01797 27.6914 7.11462 28.5947C6.21126 29.4981 5.70259 30.7225 5.69995 32V40.6C5.69995 41.8793 6.20745 43.1063 7.11109 44.0118C8.01473 44.9174 9.24069 45.4274 10.52 45.43H24.4C25.6792 45.4274 26.9052 44.9174 27.8088 44.0118C28.7125 43.1063 29.22 41.8793 29.2199 40.6V32C29.22 30.7208 28.7125 29.4938 27.8088 28.5882C26.9052 27.6827 25.6792 27.1727 24.4 27.17L10.52 27.18Z" fill="#001968"/>
<path d="M17.3699 57.74C17.088 57.7329 16.8139 57.6453 16.58 57.4876C16.3462 57.33 16.1623 57.1087 16.0499 56.85C16.0257 56.8053 16.0056 56.7584 15.9899 56.71L12.7999 46.71C12.7534 46.5603 12.7427 46.4018 12.7688 46.2472C12.7948 46.0926 12.8569 45.9462 12.9499 45.82C13.043 45.6926 13.1649 45.5891 13.3057 45.5178C13.4465 45.4466 13.6021 45.4096 13.7599 45.41H21.2599C21.4177 45.4096 21.5733 45.4466 21.7141 45.5178C21.8549 45.5891 21.9768 45.6926 22.0699 45.82C22.1629 45.9462 22.225 46.0926 22.251 46.2472C22.2771 46.4018 22.2664 46.5603 22.2199 46.71C19.7199 54.52 18.9599 56.33 18.6799 56.84C18.5695 57.0904 18.391 57.3048 18.1647 57.4586C17.9384 57.6124 17.6734 57.6996 17.3999 57.71L17.3699 57.74ZM15.1299 47.44L17.4399 54.68C18.0199 53.13 18.9699 50.28 19.8899 47.44H15.1299Z" fill="#001968"/>
<path d="M20.1499 36.2L22.3999 34C22.7018 33.6622 22.8643 33.2225 22.8547 32.7695C22.8452 32.3165 22.6642 31.8841 22.3483 31.5593C22.0324 31.2345 21.6051 31.0416 21.1526 31.0195C20.7 30.9973 20.256 31.1476 19.9099 31.44L17.6099 33.71L15.3099 31.44C14.9638 31.1476 14.5197 30.9973 14.0672 31.0195C13.6147 31.0416 13.1874 31.2345 12.8715 31.5593C12.5556 31.8841 12.3746 32.3165 12.365 32.7695C12.3555 33.2225 12.518 33.6622 12.8199 34L15.0699 36.21L12.8199 38.42C12.6505 38.5835 12.5149 38.7788 12.421 38.9947C12.3271 39.2106 12.2766 39.4428 12.2724 39.6782C12.2682 39.9136 12.3104 40.1475 12.3966 40.3666C12.4829 40.5857 12.6114 40.7856 12.7749 40.955C13.1051 41.2972 13.5577 41.4941 14.0331 41.5026C14.2685 41.5067 14.5024 41.4645 14.7215 41.3783C14.9405 41.2921 15.1405 41.1635 15.3099 41L17.6099 38.73L19.9099 41C20.256 41.2924 20.7 41.4427 21.1526 41.4206C21.6051 41.3985 22.0324 41.2056 22.3483 40.8808C22.6642 40.556 22.8452 40.1235 22.8547 39.6706C22.8643 39.2176 22.7018 38.7779 22.3999 38.44L20.1499 36.2Z" fill="#FF0B0B"/>
<path d="M76 45.0499C78.5319 41.6213 80.6624 37.9138 82.35 33.9999C84.1611 29.9086 85.0651 25.4737 85 20.9999C84.9795 17.0676 83.9463 13.2069 82 9.78994C80.4028 7.16735 78.1664 4.99285 75.5 3.46994C71.9411 1.45317 67.9221 0.388941 63.8315 0.380181C59.741 0.371422 55.7174 1.41843 52.15 3.41994C49.4686 4.92372 47.2171 7.08919 45.61 9.70994C43.6231 13.1155 42.5517 16.9775 42.5 20.9199C42.26 27.2599 44.5 34.2099 49.13 41.5599C51.8673 45.8337 55.012 49.8323 58.52 53.4999C58.52 53.4999 58.94 53.8399 58.87 56.3599C58.8688 59.0849 58.6951 61.807 58.35 64.5099C58.35 64.9199 58.15 65.0299 57.95 65.0599L50.49 64.5099C49.6718 64.2067 48.7752 64.1889 47.9456 64.4594C47.116 64.7299 46.4022 65.2728 45.92 65.9999C43.29 69.8099 49.55 69.2899 49.55 69.2899H61.41C62.19 69.2899 62.64 68.5399 62.75 68.0499C63.0214 66.5929 63.1984 65.1198 63.28 63.6399C63.3494 65.1033 63.5198 66.5601 63.79 67.9999C63.89 68.4999 64.34 69.2799 65.12 69.2499H76.98C76.98 69.2499 83.24 69.7999 80.62 65.9799C80.137 65.2563 79.4248 64.716 78.5978 64.4457C77.7709 64.1755 76.877 64.1911 76.06 64.4899L68.59 65.0199C68.4 65.0199 68.24 64.8699 68.2 64.4599C67.8679 61.8064 67.7076 59.1342 67.72 56.4599V55.9299V55.1399C67.9578 54.5495 68.2962 54.0048 68.72 53.5299C71.3382 50.8736 73.7707 48.0402 76 45.0499ZM64.41 51.3499L63.7 51.9999L62.7 51.0799C57.5 45.8099 46.7 33.3099 47.15 21.0799C47.73 5.79994 61.15 5.07994 63.77 5.07994C66.39 5.07994 79.77 5.88994 80.31 21.1699C80.52 27.3699 77.7 34.6699 72.15 42.2799C69.7918 45.4973 67.1908 48.5295 64.37 51.3499H64.41Z" fill="#001968"/>
<path d="M77.7799 69.72C77.3599 69.72 77.0399 69.72 76.9399 69.72H65.1199C64.6992 69.7089 64.2964 69.5475 63.9846 69.265C63.6727 68.9825 63.4724 68.5975 63.4199 68.18C63.3699 67.93 63.3199 67.66 63.2699 67.35C63.2199 67.66 63.1699 67.93 63.1099 68.18C62.9699 68.83 62.3999 69.8 61.3899 69.71H49.5499C49.2199 69.71 45.9799 69.96 45.1099 68.46C44.7099 67.77 44.8799 66.89 45.6099 65.83C46.1409 65.0384 46.9226 64.4482 47.8295 64.1544C48.7363 63.8606 49.7155 63.8802 50.6099 64.21L58.0199 64.76C58.0199 64.76 58.0199 64.76 58.0199 64.54C58.3567 61.8464 58.5271 59.1346 58.5299 56.42C58.5899 54.28 58.2899 53.84 58.2799 53.82C54.7436 50.1373 51.5753 46.1183 48.8199 41.82C44.1399 34.4 41.8899 27.39 42.1299 20.97C42.1827 16.9611 43.2713 13.034 45.2899 9.57C46.9363 6.90178 49.2308 4.6933 51.9599 3.15C55.5759 1.12272 59.6445 0.0393651 63.7899 0C67.939 0.0490705 72.0109 1.12805 75.6399 3.14C78.3641 4.69256 80.6489 6.91204 82.2799 9.59C84.2848 13.0608 85.3563 16.9919 85.3899 21C85.4502 25.5194 84.5326 29.9984 82.6999 34.13C80.9891 38.0788 78.8282 41.8169 76.2599 45.27C74.04 48.2872 71.6142 51.1473 68.9999 53.83C68.6149 54.2444 68.2977 54.7168 68.0599 55.23V55.96V56.52C68.0536 59.1774 68.2139 61.8326 68.5399 64.47C68.5399 64.5526 68.5569 64.6343 68.5899 64.71L75.9999 64.19C76.8966 63.8639 77.8768 63.8483 78.7834 64.1457C79.69 64.4431 80.4705 65.0362 80.9999 65.83C81.7299 66.9 81.8899 67.83 81.4899 68.47C80.7899 69.55 78.8999 69.72 77.7799 69.72ZM65.0999 68.9H76.9799C77.8199 68.98 80.2399 68.97 80.7799 68.05C81.0199 67.63 80.8599 67.05 80.3099 66.22C79.876 65.5634 79.2329 65.0727 78.485 64.8276C77.737 64.5826 76.9283 64.5975 76.1899 64.87H76.0799L68.6199 65.4C68.3953 65.3846 68.1857 65.2817 68.0361 65.1134C67.8865 64.9451 67.8089 64.7249 67.8199 64.5C67.4981 61.8288 67.3378 59.1405 67.3399 56.45V55.89V55.08C67.5994 54.4176 67.9868 53.8128 68.4799 53.3C71.058 50.6371 73.4503 47.8005 75.6399 44.81C78.1686 41.3989 80.296 37.708 81.9799 33.81C83.7864 29.7839 84.6941 25.4125 84.6399 21C84.605 17.136 83.5715 13.3467 81.6399 10C80.0724 7.43263 77.8811 5.3033 75.2699 3.81C71.7606 1.8297 67.7994 0.789156 63.7699 0.789156C59.7404 0.789156 55.7792 1.8297 52.2699 3.81C49.6513 5.29088 47.4497 7.4099 45.8699 9.97C43.942 13.3183 42.9089 17.1066 42.8699 20.97C42.6299 27.23 44.8699 34.1 49.4399 41.39C52.1759 45.6434 55.3172 49.6219 58.8199 53.27C58.9999 53.41 59.3399 54.05 59.2699 56.4C59.2716 59.1383 59.0979 61.8739 58.7499 64.59C58.6899 65.23 58.3299 65.42 58.0399 65.46L50.3899 64.88C49.6513 64.604 48.8411 64.5862 48.0912 64.8296C47.3412 65.0729 46.6957 65.563 46.2599 66.22C45.7099 67.01 45.5499 67.63 45.7899 68.04C46.3199 68.96 48.7899 68.98 49.5499 68.92H61.4099C61.9599 68.92 62.3099 68.3 62.4099 67.98C62.6829 66.5403 62.8566 65.0835 62.9299 63.62H63.6799C63.7532 65.0825 63.9203 66.5388 64.1799 67.98C64.2199 68.27 64.5399 69 65.0999 68.9ZM63.6299 52.58L63.4099 52.22L62.4099 51.34C57.5299 46.34 46.2699 33.56 46.7499 21.08C47.3699 5.52 60.9399 4.7 63.7499 4.7C66.4799 4.7 80.1399 5.53 80.6599 21.16C80.8699 27.44 78.0299 34.82 72.4299 42.5C70.064 45.7413 67.4459 48.7908 64.5999 51.62L63.6299 52.58ZM63.7499 5.45C61.0699 5.45 48.0999 6.23 47.5399 21.11C47.0699 33.29 58.1799 45.93 62.9999 50.8L63.7299 51.47L64.1299 51.09C66.9443 48.2941 69.5386 45.2852 71.8899 42.09C77.3799 34.55 80.1799 27.33 79.9699 21.21C79.4399 6.24 66.3899 5.46 63.7799 5.45H63.7499Z" fill="#001968"/>
<path d="M63.2899 33.07C69.7738 33.07 75.0299 27.8138 75.0299 21.33C75.0299 14.8461 69.7738 9.58997 63.2899 9.58997C56.8061 9.58997 51.5499 14.8461 51.5499 21.33C51.5499 27.8138 56.8061 33.07 63.2899 33.07Z" fill="#FF0B0B"/>
<path d="M66.36 21.32L69.05 18.67C69.2509 18.473 69.4111 18.2383 69.5213 17.9795C69.6316 17.7206 69.6897 17.4425 69.6925 17.1612C69.6953 16.8798 69.6426 16.6006 69.5375 16.3396C69.4324 16.0786 69.277 15.8409 69.08 15.64C68.883 15.439 68.6484 15.2789 68.3895 15.1686C68.1306 15.0584 67.8526 15.0002 67.5712 14.9974C67.2898 14.9946 67.0107 15.0473 66.7497 15.1524C66.4887 15.2575 66.2509 15.413 66.05 15.61L63.3 18.32L60.55 15.61C60.1442 15.2121 59.597 14.9918 59.0288 14.9974C58.4605 15.003 57.9178 15.2342 57.52 15.64C57.1222 16.0457 56.9018 16.5929 56.9075 17.1612C56.9131 17.7294 57.1442 18.2721 57.55 18.67L60.24 21.32L57.58 24C57.1742 24.3978 56.9431 24.9405 56.9375 25.5087C56.9318 26.077 57.1522 26.6242 57.55 27.03C57.9478 27.4357 58.4905 27.6669 59.0588 27.6725C59.627 27.6781 60.1742 27.4578 60.58 27.06L63.33 24.35L66.06 27C66.2609 27.1969 66.4987 27.3524 66.7597 27.4575C67.0207 27.5626 67.2998 27.6153 67.5812 27.6125C67.8626 27.6097 68.1406 27.5515 68.3995 27.4413C68.6584 27.331 68.893 27.1709 69.09 26.97C69.287 26.769 69.4424 26.5313 69.5475 26.2703C69.6526 26.0093 69.7053 25.7301 69.7025 25.4487C69.6997 25.1674 69.6416 24.8893 69.5313 24.6304C69.4211 24.3716 69.2609 24.1369 69.06 23.94L66.36 21.32Z" fill="white"/>
<path d="M64.6599 36.44C66.4518 36.6677 68.1379 37.4151 69.5099 38.59C69.6537 38.7107 69.7446 38.8828 69.7633 39.0696C69.7819 39.2564 69.7269 39.4431 69.6099 39.59C69.4892 39.7337 69.3171 39.8246 69.1303 39.8433C68.9435 39.862 68.7567 39.807 68.6099 39.69C67.2905 38.5482 65.6231 37.8871 63.8797 37.8145C62.1364 37.7418 60.4198 38.2619 59.0099 39.29C58.8587 39.4067 58.6674 39.4585 58.478 39.4341C58.2886 39.4098 58.1166 39.3111 57.9999 39.16C57.8832 39.0088 57.8314 38.8175 57.8557 38.628C57.8801 38.4386 57.9788 38.2667 58.1299 38.15C60.0383 36.831 62.35 36.2257 64.6599 36.44Z" fill="#001968"/>
</g>
<defs>
<clipPath id="clip0">
<rect width="132.18" height="71.32" fill="white"/>
</clipPath>
</defs>
</svg>
