<svg width="128" height="77" viewBox="0 0 128 77" fill="none" xmlns="http://www.w3.org/2000/svg">
<g clip-path="url(#clip0)">
<path d="M113.203 39.8073C113.016 39.8073 108.965 39.3893 106.321 40.9635V23.8613C106.323 23.2848 106.099 22.7304 105.696 22.3178C105.293 21.9051 104.743 21.6674 104.166 21.6557C104.104 21.6514 104.042 21.6514 103.979 21.6557C103.92 21.6507 103.861 21.6507 103.801 21.6557C103.216 21.6557 102.654 21.8881 102.24 22.3017C101.826 22.7153 101.593 23.2763 101.593 23.8613V44.592C99.7436 44.0155 97.7987 43.807 95.8686 43.9784C95.6352 44.024 95.4273 44.1552 95.2858 44.3462C95.1443 44.5372 95.0794 44.7742 95.104 45.0105C95.1285 45.2469 95.2407 45.4655 95.4184 45.6234C95.5962 45.7813 95.8267 45.8671 96.0645 45.8638C97.9441 45.6531 99.8464 45.9223 101.593 46.6465V64.0333C101.65 64.5257 101.608 65.0245 101.471 65.5007C101.333 65.977 101.102 66.4213 100.792 66.808C100.351 67.1146 99.8109 67.2447 99.2785 67.1727C98.7047 67.0653 98.1118 67.1901 97.6301 67.5195C97.1484 67.8489 96.8174 68.356 96.71 68.9291C96.6025 69.5023 96.7274 70.0946 97.0572 70.5758C97.387 71.057 97.8946 71.3876 98.4683 71.4949C98.829 71.5654 99.196 71.5982 99.5634 71.5927H108.395C108.766 71.5985 109.136 71.5657 109.499 71.4949C110.073 71.377 110.576 71.0362 110.899 70.5475C111.221 70.0588 111.336 69.4623 111.218 68.8891C111.1 68.316 110.758 67.8131 110.269 67.4912C109.78 67.1693 109.183 67.0547 108.609 67.1727C108.095 67.2346 107.576 67.1082 107.149 66.8169C106.615 66.3811 106.321 65.394 106.321 64.0333V43.5782C106.447 43.3749 106.6 43.1894 106.775 43.0268C108.342 41.6216 111.805 41.6305 113.007 41.755C113.13 41.7679 113.255 41.7563 113.374 41.721C113.493 41.6858 113.604 41.6274 113.7 41.5494C113.796 41.4713 113.876 41.3751 113.935 41.2662C113.994 41.1573 114.031 41.0378 114.044 40.9146C114.057 40.7914 114.046 40.6668 114.01 40.5481C113.975 40.4293 113.917 40.3187 113.838 40.2225C113.76 40.1263 113.664 40.0464 113.555 39.9873C113.446 39.9283 113.326 39.8913 113.203 39.8785V39.8073Z" fill="#001968"/>
<path d="M93.3757 49.6258H85.2027C85.2027 49.6258 80.9292 49.2078 80.9292 45.01C80.9292 40.8123 86.2087 40.9813 86.2087 40.9813C86.2087 40.9813 87.0367 36.659 91.0698 36.659C92.1659 36.6369 93.2306 37.0253 94.0544 37.7479C94.8782 38.4704 95.4015 39.4747 95.5214 40.5633C96.6925 40.7822 97.7433 41.4209 98.4762 42.3593C99.209 43.2978 99.5735 44.4713 99.5011 45.6593C99.4922 50.1594 93.3757 49.6258 93.3757 49.6258Z" fill="#20CE88"/>
<path d="M120.103 44.4053H114.031C114.031 44.4053 110.87 44.1029 110.87 40.9813C110.87 37.8596 114.779 37.993 114.779 37.993C114.779 37.993 115.393 34.7914 118.385 34.7914C119.197 34.7756 119.986 35.0646 120.596 35.6013C121.206 36.138 121.592 36.8835 121.679 37.6907C122.55 37.8499 123.333 38.3224 123.879 39.0188C124.425 39.7152 124.697 40.5873 124.643 41.4704C124.643 44.8055 120.103 44.4053 120.103 44.4053Z" fill="#20CE88"/>
<path d="M95.4592 33.9021H116.827C116.827 33.9021 127.982 32.817 127.982 21.8247C127.982 10.8323 114.191 11.3036 114.191 11.3036C114.191 11.3036 112.037 0 101.495 0C90.9542 0 89.9214 10.2186 89.9214 10.2186C89.9214 10.2186 79.5315 11.7661 79.5315 23.5589C79.5315 35.3517 95.4592 33.9021 95.4592 33.9021Z" fill="#20CE88"/>
<path d="M2.67089 77C2.0571 77.0002 1.46197 76.7892 0.985614 76.4026C0.509259 76.0159 0.180752 75.4772 0.0553583 74.877C-0.0700348 74.2768 0.0153384 73.6518 0.297115 73.1071C0.578892 72.5624 1.03988 72.1313 1.60251 71.8862C19.719 64.6944 39.0257 60.9628 58.5201 60.8849C78.1332 60.989 97.58 64.4855 115.999 71.2192C116.631 71.498 117.131 72.0112 117.393 72.6508C117.655 73.2903 117.658 74.0064 117.402 74.6483C117.146 75.2902 116.651 75.8078 116.02 76.0921C115.39 76.3765 114.673 76.4054 114.022 76.1729C96.2148 69.756 77.4499 66.3913 58.5201 66.2211C39.7665 66.3568 21.1976 69.9351 3.73926 76.7777C3.40225 76.9244 3.03854 77.0001 2.67089 77Z" fill="#001968"/>
<path d="M21.7235 55.7534H9.36599C7.7548 55.751 6.2104 55.11 5.07195 53.9712C3.9335 52.8323 3.29407 51.2886 3.29407 49.6791V42.0396C3.29407 40.431 3.93379 38.8882 5.07249 37.7508C6.2112 36.6133 7.75562 35.9742 9.36599 35.9742H21.7235C23.3339 35.9742 24.8783 36.6133 26.017 37.7508C27.1557 38.8882 27.7954 40.431 27.7954 42.0396V49.6791C27.7954 51.2886 27.156 52.8323 26.0175 53.9712C24.8791 55.11 23.3347 55.751 21.7235 55.7534ZM9.36599 37.7529C8.22787 37.7529 7.13636 38.2046 6.33158 39.0085C5.52681 39.8124 5.07469 40.9027 5.07469 42.0396V49.6791C5.07469 50.8169 5.52652 51.9081 6.33104 52.7134C7.13556 53.5187 8.22705 53.9723 9.36599 53.9747H21.7235C22.8624 53.9723 23.9539 53.5187 24.7585 52.7134C25.563 51.9081 26.0148 50.8169 26.0148 49.6791V42.0396C26.0148 40.9027 25.5627 39.8124 24.7579 39.0085C23.9531 38.2046 22.8616 37.7529 21.7235 37.7529H9.36599Z" fill="#001968"/>
<path d="M15.4735 64.9226C15.221 64.9179 14.9751 64.8408 14.7652 64.7005C14.5552 64.5602 14.3901 64.3625 14.2894 64.1311C14.2723 64.0996 14.2574 64.0669 14.2449 64.0333L11.3959 55.1397C11.3545 55.0066 11.345 54.8656 11.3682 54.7281C11.3914 54.5906 11.4467 54.4605 11.5295 54.3482C11.6124 54.2349 11.7209 54.1428 11.8462 54.0794C11.9716 54.0161 12.1101 53.9832 12.2506 53.9836H18.928C19.0684 53.9832 19.207 54.0161 19.3323 54.0794C19.4577 54.1428 19.5662 54.2349 19.6491 54.3482C19.7319 54.4605 19.7872 54.5906 19.8104 54.7281C19.8336 54.8656 19.8241 55.0066 19.7827 55.1397C17.5569 62.0856 16.8802 63.6953 16.631 64.1489C16.5327 64.3716 16.3737 64.5622 16.1722 64.699C15.9707 64.8358 15.7348 64.9133 15.4914 64.9226H15.4735ZM13.4703 55.7623L15.527 62.2012C16.0433 60.8227 16.8891 58.288 17.7082 55.7623H13.4703Z" fill="#001968"/>
<path d="M19.5868 44.1652C19.5508 44.0552 19.4853 43.9573 19.3974 43.882C19.3095 43.8067 19.2025 43.757 19.0883 43.7383L16.8358 43.4181L15.8297 41.3815C15.7789 41.2764 15.6992 41.1879 15.5998 41.1265C15.5005 41.0651 15.3857 41.0332 15.2688 41.0347C15.1524 41.0353 15.0385 41.068 14.9395 41.1292C14.8405 41.1904 14.7604 41.2777 14.7079 41.3815L13.7108 43.4181L11.4672 43.7383C11.3524 43.7582 11.2449 43.8083 11.1557 43.8833C11.0666 43.9583 10.9989 44.0555 10.9597 44.1652C10.9247 44.2763 10.9211 44.3949 10.9494 44.5079C10.9777 44.6209 11.0367 44.7239 11.12 44.8055L12.7492 46.3885L12.3664 48.6297C12.3444 48.7438 12.3563 48.8619 12.4006 48.9693C12.4449 49.0768 12.5196 49.1689 12.6157 49.2345C12.7099 49.3032 12.8213 49.3446 12.9376 49.354C13.0538 49.3634 13.1705 49.3405 13.2745 49.2878L15.2777 48.2295L17.2898 49.2878C17.3811 49.3334 17.4816 49.3577 17.5836 49.359C17.7154 49.3571 17.8432 49.3135 17.9487 49.2345C18.0447 49.1689 18.1195 49.0768 18.1638 48.9693C18.2081 48.8619 18.2199 48.7438 18.1979 48.6297L17.8062 46.3885L19.4355 44.8055C19.5199 44.7248 19.5791 44.6213 19.6059 44.5077C19.6328 44.3941 19.6262 44.2751 19.5868 44.1652Z" fill="#20CE88"/>
<path d="M67.6636 53.6367C69.9308 50.5864 71.8397 47.2861 73.3527 43.8005C74.9713 40.1633 75.7823 36.219 75.7299 32.239C75.6938 28.74 74.7555 25.3094 73.0055 22.2782C71.5835 19.9458 69.5924 18.0119 67.2185 16.6575C64.05 14.8639 60.4718 13.9174 56.83 13.9097C53.1881 13.9019 49.6059 14.833 46.4297 16.6131C44.0288 17.9565 42.0121 19.8915 40.5715 22.2338C38.8026 25.2625 37.8487 28.6972 37.8026 32.2034C37.589 37.8419 39.5832 44.0229 43.7054 50.5596C46.1537 54.362 48.9654 57.9182 52.101 61.1784C52.101 61.1784 52.4749 61.4808 52.4126 63.722C52.4115 66.1454 52.2569 68.5663 51.9497 70.9702C51.9497 71.3348 51.7716 71.4327 51.5935 71.4593L44.9518 70.9702C44.2263 70.698 43.43 70.678 42.6917 70.9137C41.9535 71.1493 41.3163 71.6266 40.8831 72.2686C38.5416 75.6571 44.1149 75.1946 44.1149 75.1946H54.674C55.3685 75.1946 55.7691 74.5276 55.867 74.0918C56.1087 72.796 56.2663 71.4859 56.3389 70.1698C56.3987 71.4861 56.5504 72.7966 56.793 74.0918C56.882 74.5365 57.2826 75.2391 57.9771 75.2035H68.5362C68.5362 75.2035 74.1095 75.6926 71.7769 72.2953C71.3469 71.6518 70.7128 71.1712 69.9766 70.9309C69.2403 70.6906 68.4445 70.7044 67.7171 70.9702L61.0664 71.4416C60.8973 71.4416 60.7548 71.3081 60.7192 70.9435C60.4233 68.5836 60.2806 66.207 60.2919 63.8287V63.3485V62.6459C60.5036 62.1208 60.8049 61.6363 61.1822 61.214C63.5145 58.8401 65.6802 56.3084 67.6636 53.6367ZM57.345 59.2397L56.7573 59.8088L55.867 58.9906C51.2374 54.3038 41.6221 43.1869 42.0227 32.3101C42.5391 18.7208 54.4871 18.0805 56.8197 18.0805C59.1523 18.0805 71.0646 18.8009 71.5454 32.3902C71.7324 37.9041 69.2217 44.3964 64.2805 51.1643C62.1671 54.0304 59.8365 56.7301 57.3093 59.2397H57.345Z" fill="#001968"/>
<path d="M69.2483 75.5948C68.8744 75.5948 68.5895 75.5948 68.5004 75.5948H57.977C57.6051 75.5763 57.2512 75.4298 56.9753 75.1801C56.6994 74.9304 56.5185 74.593 56.4634 74.2252C56.4189 74.0029 56.3744 73.7627 56.3299 73.487C56.2854 73.7627 56.2409 74.0029 56.1874 74.2252C56.1332 74.5957 55.9499 74.9352 55.6698 75.1841C55.3897 75.4329 55.0308 75.5752 54.6561 75.5859H44.1148C43.821 75.5859 40.9364 75.8082 40.1618 74.4742C39.8057 73.8606 39.9571 73.0779 40.607 72.1352C41.0798 71.4312 41.7757 70.9064 42.5831 70.6451C43.3904 70.3838 44.2623 70.4012 45.0586 70.6945L51.638 71.1481C51.638 71.1481 51.638 71.1481 51.638 70.9524C51.938 68.5568 52.0926 66.1452 52.1009 63.7309C52.1009 61.8277 51.8783 61.4363 51.8694 61.4186C48.7211 58.1434 45.9002 54.569 43.4471 50.7463C39.2804 44.1474 37.2772 37.913 37.4909 32.2034C37.5379 28.6381 38.5071 25.1455 40.3043 22.0648C41.7701 19.6918 43.8129 17.7277 46.2427 16.3551C49.4725 14.5845 53.091 13.6404 56.7751 13.6071C60.472 13.6369 64.1036 14.5843 67.343 16.364C69.7703 17.7423 71.8051 19.7167 73.2547 22.1004C75.0397 25.1871 75.9937 28.6832 76.0236 32.2478C76.0773 36.2672 75.2603 40.2506 73.6286 43.925C72.104 47.4362 70.1802 50.7605 67.895 53.8324C65.9209 56.5175 63.7611 59.0613 61.4314 61.4452C61.0886 61.8137 60.8062 62.2339 60.5945 62.6903V63.3396V63.8376C60.587 66.2158 60.7297 68.5921 61.0218 70.9524C61.0218 71.1303 61.0663 71.1658 61.0753 71.1658L67.6636 70.6589C68.4619 70.3689 69.3346 70.3551 70.1417 70.6195C70.9489 70.884 71.6438 71.4115 72.1151 72.1174C72.765 73.069 72.9075 73.8961 72.5514 74.4653C71.9281 75.4258 70.2455 75.5948 69.2483 75.5948ZM57.9592 74.8478L68.5539 74.8833C69.2928 74.9545 71.4563 74.9456 71.937 74.1274C72.1507 73.7538 72.0083 73.238 71.5186 72.4999C71.1323 71.9159 70.5597 71.4795 69.8938 71.2616C69.228 71.0436 68.5079 71.0569 67.8505 71.2992H67.7526L61.1109 71.7706C60.9109 71.7569 60.7243 71.6653 60.5911 71.5157C60.4579 71.366 60.3888 71.1702 60.3986 70.9702C60.1139 68.6092 59.9712 66.2334 59.9713 63.8554V63.3573V62.637C60.2023 62.0479 60.5472 61.51 60.9862 61.0539C63.2815 58.6857 65.4114 56.1629 67.3609 53.5033C69.612 50.4505 71.5058 47.1503 73.0054 43.6671C74.6013 40.0834 75.4002 36.1965 75.3469 32.2745C75.3146 28.8383 74.3946 25.4685 72.676 22.4917C71.2804 20.2084 69.3295 18.3147 67.0047 16.9866C63.8711 15.2666 60.3593 14.3498 56.784 14.3185C53.2147 14.3531 49.7094 15.2697 46.581 16.9866C44.2474 18.3045 42.2868 20.1926 40.883 22.4739C39.164 25.4506 38.244 28.8204 38.2121 32.2567C37.9984 37.8241 39.9927 43.9339 44.0614 50.4173C46.4758 54.1769 49.2487 57.6944 52.3413 60.9205C52.5016 61.045 52.8043 61.6142 52.7508 63.7042C52.7463 66.1425 52.5887 68.5782 52.279 70.9969C52.2858 71.1806 52.2254 71.3604 52.109 71.5028C51.9927 71.6453 51.8284 71.7404 51.6469 71.7706L44.8271 71.2459C44.1708 71.001 43.4509 70.9856 42.7847 71.202C42.1186 71.4184 41.5455 71.854 41.159 72.4376C40.6693 73.1491 40.5269 73.6916 40.7405 74.0562C41.2124 74.8833 43.4115 74.8922 44.0881 74.8389H54.6739C55.1992 74.9011 55.4752 74.2875 55.5642 74.0029C55.8072 72.7225 55.9619 71.4269 56.0272 70.1253H56.6949C56.7602 71.426 56.9089 72.7212 57.1401 74.0029C57.1757 74.2875 57.4606 74.9011 57.9592 74.8478ZM56.6682 60.3158L56.4456 59.9956L55.5998 59.2308C51.2551 54.8285 41.2302 43.4181 41.6576 32.319C42.1829 18.4807 54.2555 17.787 56.7572 17.787C59.1878 17.787 71.3494 18.5252 71.8124 32.4257C71.9994 38.0108 69.4709 44.5743 64.494 51.4045C62.38 54.2837 60.0464 56.9954 57.514 59.5153L56.6682 60.3158ZM56.7572 18.4184C54.3712 18.4184 42.8239 19.1121 42.3253 32.3457C41.9069 43.178 51.7982 54.4194 56.0895 58.7505L56.7394 59.3464L57.0956 59.0084C59.6012 56.5219 61.911 53.8459 64.0044 51.0043C68.8922 44.2986 71.3851 37.8774 71.1981 32.4346C70.7529 19.1477 59.1344 18.454 56.8107 18.4451L56.7572 18.4184Z" fill="#001968"/>
<path d="M56.6237 39.834C61.4621 39.834 65.3844 35.916 65.3844 31.0828C65.3844 26.2497 61.4621 22.3316 56.6237 22.3316C51.7853 22.3316 47.863 26.2497 47.863 31.0828C47.863 35.916 51.7853 39.834 56.6237 39.834Z" fill="#20CE88"/>
<path d="M55.6533 35.4228C55.4179 35.4266 55.1906 35.337 55.0211 35.1738L51.4599 31.7676C51.2852 31.6013 51.1837 31.3725 51.1779 31.1315C51.172 30.8905 51.2623 30.657 51.4287 30.4825C51.5952 30.308 51.8243 30.2066 52.0655 30.2008C52.3068 30.1949 52.5405 30.2851 52.7152 30.4514L55.6266 33.2261L61.1643 27.4098C61.2467 27.3234 61.3454 27.254 61.4546 27.2057C61.5639 27.1573 61.6816 27.131 61.8011 27.1281C61.9206 27.1252 62.0394 27.1458 62.1509 27.1888C62.2624 27.2318 62.3643 27.2963 62.4508 27.3787C62.5373 27.461 62.6067 27.5596 62.6551 27.6687C62.7035 27.7778 62.7299 27.8954 62.7328 28.0148C62.7357 28.1341 62.715 28.2528 62.672 28.3642C62.629 28.4756 62.5644 28.5774 62.482 28.6638L56.321 35.1383C56.239 35.2266 56.1399 35.2974 56.0297 35.3463C55.9195 35.3952 55.8006 35.4212 55.68 35.4228H55.6533Z" fill="#001968"/>
<path d="M57.4784 45.0367C56.1565 45.063 54.8551 44.7079 53.7302 44.014C53.6112 43.9419 53.5252 43.8262 53.4902 43.6917C53.4553 43.5572 53.4743 43.4143 53.5432 43.2936C53.5781 43.2339 53.6246 43.1817 53.6798 43.1399C53.735 43.0982 53.7979 43.0678 53.8649 43.0504C53.9319 43.0331 54.0017 43.0291 54.0703 43.0388C54.1388 43.0485 54.2048 43.0716 54.2644 43.1068C55.346 43.787 56.6262 44.0816 57.8967 43.9427C59.1673 43.8038 60.3534 43.2397 61.2622 42.342C61.3621 42.2442 61.4963 42.1895 61.6361 42.1895C61.776 42.1895 61.9102 42.2442 62.0101 42.342C62.1059 42.4428 62.1593 42.5765 62.1593 42.7155C62.1593 42.8545 62.1059 42.9882 62.0101 43.089C60.7736 44.247 59.1703 44.9361 57.4784 45.0367Z" fill="#001968"/>
</g>
<defs>
<clipPath id="clip0">
<rect width="128" height="77" fill="white"/>
</clipPath>
</defs>
</svg>
