<svg width="133" height="72" viewBox="0 0 133 72" fill="none" xmlns="http://www.w3.org/2000/svg">
<g clip-path="url(#clip0)">
<path d="M110 61L95.93 60.24C95.93 60.24 88.58 59.16 89 51.92C89.42 44.68 98.45 45.48 98.45 45.48C98.45 45.48 100.28 38.11 107.21 38.48C114.14 38.85 114.49 45.62 114.49 45.62C114.49 45.62 121.28 47.01 120.86 54.76C120.44 62.51 110 61 110 61Z" fill="#FF6700"/>
<path d="M2.99995 71.3201C2.30636 71.3257 1.63224 71.0909 1.09231 70.6555C0.552376 70.2201 0.179992 69.6111 0.038527 68.932C-0.102938 68.253 -0.00474146 67.5459 0.316405 66.9311C0.637551 66.3164 1.1618 65.8319 1.79995 65.5601C22.1517 57.486 43.8353 53.2938 65.7299 53.2001C87.7594 53.3171 109.602 57.2485 130.29 64.8201C131.001 65.1335 131.562 65.7106 131.856 66.4297C132.15 67.1489 132.154 67.9541 131.866 68.6758C131.579 69.3975 131.022 69.9795 130.314 70.2992C129.606 70.619 128.802 70.6515 128.07 70.3901C108.069 63.1748 86.992 59.3916 65.7299 59.2001C44.6673 59.3581 23.8123 63.378 4.19995 71.0601C3.82215 71.2285 3.41359 71.3171 2.99995 71.3201Z" fill="#001968"/>
<path d="M24.4 47.4201H10.52C8.71199 47.4174 6.97883 46.698 5.7004 45.4196C4.42198 44.1412 3.7026 42.408 3.69995 40.6001V32.0001C3.7026 30.1921 4.42198 28.4589 5.7004 27.1805C6.97883 25.9021 8.71199 25.1827 10.52 25.1801H24.4C26.2079 25.1827 27.9411 25.9021 29.2195 27.1805C30.4979 28.4589 31.2173 30.1921 31.2199 32.0001V40.6001C31.2173 42.408 30.4979 44.1412 29.2195 45.4196C27.9411 46.698 26.2079 47.4174 24.4 47.4201ZM10.52 27.1801C9.24242 27.1827 8.01797 27.6914 7.11462 28.5947C6.21126 29.4981 5.70259 30.7225 5.69995 32.0001V40.6001C5.69995 41.8784 6.20777 43.1044 7.1117 44.0083C8.01562 44.9122 9.24161 45.4201 10.52 45.4201H24.4C25.6783 45.4201 26.9043 44.9122 27.8082 44.0083C28.7121 43.1044 29.2199 41.8784 29.2199 40.6001V32.0001C29.2173 30.7225 28.7086 29.4981 27.8053 28.5947C26.9019 27.6914 25.6775 27.1827 24.4 27.1801H10.52Z" fill="#001968"/>
<path d="M17.3799 57.74C17.0962 57.7348 16.8201 57.6481 16.5843 57.4903C16.3485 57.3325 16.163 57.1103 16.0499 56.85L15.9999 56.71L12.8099 46.71C12.7634 46.5603 12.7527 46.4018 12.7788 46.2472C12.8049 46.0926 12.8669 45.9462 12.9599 45.82C13.053 45.6926 13.1749 45.5891 13.3157 45.5178C13.4565 45.4466 13.6121 45.4096 13.7699 45.41H21.2699C21.4277 45.4096 21.5833 45.4466 21.7241 45.5178C21.8649 45.5891 21.9868 45.6926 22.0799 45.82C22.1729 45.9462 22.235 46.0926 22.261 46.2472C22.2871 46.4018 22.2764 46.5603 22.2299 46.71C19.7299 54.51 18.9799 56.33 18.6899 56.84C18.5813 57.0897 18.4045 57.3036 18.1799 57.4575C17.9553 57.6114 17.6919 57.6989 17.4199 57.71L17.3799 57.74ZM15.1299 47.44L17.4399 54.68C18.0199 53.13 18.9699 50.28 19.8899 47.44H15.1299Z" fill="#001968"/>
<path d="M21.9999 34.4C21.9615 34.2752 21.8885 34.1639 21.7894 34.0789C21.6903 33.9939 21.5691 33.9388 21.4399 33.92L18.9099 33.55L17.7799 31.27C17.7233 31.1507 17.6341 31.0498 17.5226 30.979C17.4112 30.9083 17.2819 30.8705 17.1499 30.87C17.0184 30.8727 16.8901 30.9115 16.779 30.982C16.668 31.0525 16.5783 31.1521 16.5199 31.27L15.3999 33.55L12.8799 33.92C12.7492 33.9376 12.6262 33.9917 12.5249 34.0762C12.4237 34.1606 12.3483 34.272 12.3076 34.3974C12.2668 34.5228 12.2623 34.6571 12.2946 34.785C12.3268 34.9128 12.3945 35.0289 12.4899 35.12L14.3199 36.9L13.8899 39.41C13.8694 39.5368 13.8841 39.6668 13.9326 39.7858C13.981 39.9048 14.0612 40.0082 14.1645 40.0846C14.2678 40.161 14.3901 40.2075 14.518 40.2191C14.646 40.2306 14.7746 40.2067 14.8899 40.15L17.1599 39L19.4199 40.18C19.5201 40.2385 19.6339 40.2695 19.7499 40.27C19.8979 40.2679 20.0415 40.2188 20.1599 40.13C20.2677 40.0538 20.3513 39.9483 20.401 39.826C20.4506 39.7037 20.4641 39.5697 20.4399 39.44L19.9999 36.9L21.8299 35.12C21.9237 35.0285 21.9894 34.9122 22.0195 34.7847C22.0496 34.6572 22.0428 34.5238 21.9999 34.4Z" fill="#FF6700"/>
<path d="M76 45.0501C78.5314 41.6211 80.6619 37.9137 82.35 34.0001C84.1632 29.9094 85.0674 25.4741 85 21.0001C84.9794 17.0646 83.9463 13.2006 82 9.78007C80.397 7.1621 78.1619 4.98889 75.5 3.46007C71.9347 1.45748 67.9142 0.40564 63.825 0.40564C59.7358 0.40564 55.7153 1.45748 52.15 3.46007C49.4711 4.97163 47.2206 7.13956 45.61 9.76007C43.6231 13.1657 42.5517 17.0276 42.5 20.9701C42.26 27.3101 44.5 34.2601 49.13 41.6101C51.8725 45.8646 55.0169 49.8462 58.52 53.5001C58.52 53.5001 58.94 53.8401 58.87 56.3501C58.8686 59.0783 58.6949 61.8037 58.35 64.5101C58.35 64.9201 58.15 65.0301 57.95 65.0601L50.49 64.5001C49.6704 64.2015 48.7742 64.1871 47.9454 64.4591C47.1165 64.7311 46.4032 65.2738 45.92 66.0001C43.29 69.8101 49.55 69.2901 49.55 69.2901H61.41C62.19 69.2901 62.64 68.5401 62.75 68.0501C63.0214 66.593 63.1984 65.1199 63.28 63.6401C63.3494 65.1034 63.5198 66.5602 63.79 68.0001C63.89 68.5001 64.34 69.2801 65.12 69.2501H76.98C76.98 69.2501 83.24 69.7901 80.62 65.9801C80.137 65.2564 79.4248 64.7161 78.5978 64.4459C77.7709 64.1757 76.877 64.1912 76.06 64.4901L68.59 65.0201C68.4 65.0201 68.24 64.8701 68.2 64.4601C67.8683 61.8065 67.708 59.1343 67.72 56.4601V55.9301V55.1401C67.9578 54.5497 68.2962 54.0049 68.72 53.5301C71.3411 50.8763 73.7737 48.0427 76 45.0501ZM64.41 51.3501L63.75 51.9901L62.75 51.0701C57.55 45.8001 46.75 33.3001 47.2 21.0701C47.78 5.79007 61.2 5.07007 63.82 5.07007C66.44 5.07007 79.82 5.87007 80.36 21.1601C80.57 27.3601 77.75 34.6601 72.2 42.2701C69.8292 45.4951 67.2113 48.5309 64.37 51.3501H64.41Z" fill="#001968"/>
<path d="M77.7799 69.72C77.3599 69.72 77.0399 69.72 76.9399 69.72H65.1199H65.0499C64.6465 69.6788 64.268 69.5055 63.9732 69.227C63.6784 68.9485 63.4839 68.5805 63.4199 68.18C63.3666 67.9334 63.3166 67.6534 63.2699 67.34C63.2199 67.65 63.1699 67.93 63.1099 68.18C62.9699 68.82 62.3599 69.79 61.3899 69.71H49.5499C49.2199 69.71 45.9799 69.97 45.1099 68.47C44.7099 67.78 44.8799 66.9 45.6099 65.84C46.1419 65.0493 46.9231 64.4593 47.8292 64.164C48.7353 63.8686 49.7141 63.8848 50.6099 64.21L58.0199 64.77C58.0199 64.77 58.0199 64.77 58.0199 64.55C58.3567 61.8564 58.5271 59.1446 58.5299 56.43C58.5899 54.29 58.2899 53.84 58.2799 53.83C54.7466 50.1447 51.5785 46.126 48.8199 41.83C44.1399 34.41 41.8899 27.39 42.1299 20.98C42.1827 16.9711 43.2713 13.044 45.2899 9.58004C46.9363 6.91182 49.2308 4.70334 51.9599 3.16004C55.5836 1.12607 59.671 0.0619729 63.8265 0.0707324C67.982 0.0794918 72.0648 1.16081 75.6799 3.21004C78.4041 4.7626 80.6889 6.98208 82.3199 9.66004C84.2992 13.114 85.3564 17.0193 85.3899 21C85.4502 25.5194 84.5326 29.9985 82.6999 34.13C80.9874 38.078 78.8266 41.8159 76.2599 45.27C74.0435 48.29 71.6175 51.1504 68.9999 53.83C68.6126 54.2426 68.2951 54.7154 68.0599 55.23V55.96V56.52C68.0536 59.1775 68.2139 61.8327 68.5399 64.47C68.5423 64.5524 68.5592 64.6336 68.5899 64.71L75.9999 64.19C76.8966 63.864 77.8768 63.8484 78.7834 64.1457C79.69 64.4431 80.4705 65.0362 80.9999 65.83C81.7299 66.89 81.8899 67.83 81.4899 68.46C80.7899 69.55 78.8999 69.72 77.7799 69.72ZM65.0999 68.9H76.9799C77.8199 68.98 80.2399 68.96 80.7799 68.05C81.0199 67.63 80.8599 67.05 80.3099 66.22C79.8772 65.562 79.2342 65.0703 78.4858 64.8251C77.7375 64.5798 76.9281 64.5957 76.1899 64.87H76.0799L68.6199 65.4C68.3962 65.3821 68.1881 65.2785 68.039 65.1108C67.89 64.9431 67.8115 64.7243 67.8199 64.5C67.4986 61.8288 67.3383 59.1406 67.3399 56.45V55.89V55.08C67.6017 54.4218 67.9889 53.8207 68.4799 53.31C71.0585 50.6477 73.4509 47.811 75.6399 44.82C78.1679 41.4067 80.2983 37.7162 81.9899 33.82C83.7892 29.7884 84.6933 25.4147 84.6399 21C84.605 17.1361 83.5715 13.3467 81.6399 10C80.0724 7.43267 77.8811 5.30334 75.2699 3.81004C71.7523 1.8709 67.8065 0.839783 63.7899 0.810042C59.7809 0.848941 55.8438 1.87959 52.3299 3.81004C49.7134 5.29371 47.5124 7.41213 45.9299 9.97004C44.0016 13.3181 42.9684 17.1066 42.9299 20.97C42.6899 27.24 44.9299 34.11 49.4999 41.4C52.2334 45.6553 55.3749 49.634 58.8799 53.28C59.0599 53.42 59.3999 54.06 59.3299 56.4C59.3324 59.1417 59.1587 61.8807 58.8099 64.6C58.7499 65.23 58.3899 65.43 58.0999 65.47L50.4499 64.89C49.7122 64.6149 48.9034 64.5965 48.1539 64.8379C47.4045 65.0792 46.7584 65.5661 46.3199 66.22C45.7699 67.02 45.6099 67.64 45.8499 68.05C46.3799 68.97 48.8499 68.99 49.6099 68.92H61.4099C61.9799 68.92 62.3099 68.3 62.4099 67.98C62.6829 66.5403 62.8566 65.0836 62.9299 63.62H63.6799C63.7532 65.0826 63.9203 66.5389 64.1799 67.98C64.2199 68.27 64.5599 68.94 65.0999 68.9ZM63.6299 52.58L63.4099 52.22L62.4099 51.34C57.5299 46.34 46.2699 33.56 46.7499 21.08C47.3799 5.52004 60.9399 4.70004 63.7499 4.70004C66.4799 4.70004 80.1399 5.53004 80.6599 21.16C80.8799 27.44 78.0299 34.82 72.4299 42.5C70.0614 45.7393 67.4434 48.7886 64.5999 51.62L63.6299 52.58ZM63.7499 5.45004C61.0699 5.45004 48.0999 6.23004 47.5399 21.11C47.0699 33.29 58.1799 45.93 62.9999 50.8L63.7299 51.47L64.1299 51.08C66.9475 48.2872 69.5421 45.278 71.8899 42.08C77.3799 34.53 80.1799 27.31 79.9699 21.2C79.4399 6.24004 66.3899 5.46004 63.7799 5.45004H63.7499Z" fill="#001968"/>
<path d="M63.47 30.01C69.2634 30.01 73.96 25.3135 73.96 19.52C73.96 13.7266 69.2634 9.03003 63.47 9.03003C57.6765 9.03003 52.98 13.7266 52.98 19.52C52.98 25.3135 57.6765 30.01 63.47 30.01Z" fill="#FF6700"/>
<path d="M63.2899 21.66C63.0961 21.6614 62.9038 21.6243 62.7243 21.551C62.5448 21.4777 62.3816 21.3697 62.244 21.233C62.1065 21.0964 61.9973 20.9339 61.9228 20.7549C61.8483 20.5759 61.8099 20.3839 61.8099 20.19V13.42C61.8099 13.0222 61.968 12.6407 62.2493 12.3594C62.5306 12.0781 62.9121 11.92 63.3099 11.92C63.7078 11.92 64.0893 12.0781 64.3706 12.3594C64.6519 12.6407 64.8099 13.0222 64.8099 13.42V20.19C64.81 20.3874 64.7704 20.5827 64.6935 20.7644C64.6165 20.9461 64.5037 21.1104 64.3619 21.2476C64.22 21.3848 64.052 21.492 63.8678 21.5628C63.6837 21.6337 63.4871 21.6668 63.2899 21.66Z" fill="#001968"/>
<path d="M63.2899 27.52C63.0961 27.5213 62.9038 27.4843 62.7243 27.411C62.5448 27.3377 62.3816 27.2296 62.244 27.093C62.1065 26.9564 61.9973 26.7939 61.9228 26.6149C61.8483 26.4359 61.8099 26.2439 61.8099 26.05V25C61.8099 24.6022 61.968 24.2206 62.2493 23.9393C62.5306 23.658 62.9121 23.5 63.3099 23.5C63.7078 23.5 64.0893 23.658 64.3706 23.9393C64.6519 24.2206 64.8099 24.6022 64.8099 25V26C64.8169 26.2015 64.7824 26.4023 64.7085 26.5898C64.6345 26.7774 64.5228 26.9478 64.3803 27.0903C64.2377 27.2329 64.0673 27.3446 63.8798 27.4185C63.6922 27.4924 63.4914 27.527 63.2899 27.52Z" fill="#001968"/>
<path d="M63.2099 36.35C62.7832 36.348 62.3614 36.2581 61.9709 36.0861C61.5804 35.9141 61.2295 35.6635 60.9399 35.35C59.3199 33.73 57.2099 35.24 57.1199 35.35C57.0004 35.4142 56.8616 35.4328 56.7293 35.4024C56.5971 35.372 56.4804 35.2946 56.4009 35.1845C56.3215 35.0745 56.2847 34.9394 56.2974 34.8043C56.3101 34.6692 56.3714 34.5433 56.4699 34.45C57.4699 33.71 59.8999 32.78 61.7199 34.61C63.1999 36.09 64.9899 34.61 65.2599 34.42C65.5027 34.1095 65.8043 33.8499 66.1475 33.656C66.4907 33.4621 66.8687 33.3377 67.2599 33.29C67.7352 33.2785 68.2071 33.3731 68.6413 33.5668C69.0755 33.7605 69.461 34.0486 69.7699 34.41C69.8211 34.4612 69.8618 34.522 69.8895 34.5889C69.9172 34.6558 69.9315 34.7276 69.9315 34.8C69.9315 34.8724 69.9172 34.9441 69.8895 35.0111C69.8618 35.078 69.8211 35.1388 69.7699 35.19C69.7187 35.2412 69.6579 35.2818 69.591 35.3096C69.5241 35.3373 69.4524 35.3515 69.3799 35.3515C69.3075 35.3515 69.2358 35.3373 69.1689 35.3096C69.102 35.2818 69.0412 35.2412 68.9899 35.19C68.7915 34.9451 68.5419 34.7465 68.2586 34.6083C67.9752 34.4701 67.6651 34.3956 67.3499 34.39C66.848 34.4665 66.394 34.7311 66.0799 35.13L66.0099 35.21C65.2369 35.9029 64.2472 36.3059 63.2099 36.35Z" fill="#001968"/>
</g>
<defs>
<clipPath id="clip0">
<rect width="132.18" height="71.32" fill="white"/>
</clipPath>
</defs>
</svg>
