<?xml version="1.0" encoding="UTF-8"?><svg id="Capa_2" xmlns="http://www.w3.org/2000/svg" viewBox="0 0 89.67 144.76"><defs><style>.cls-1{fill:#4d4d4d;}</style></defs><g id="Layer_1"><g><g><path class="cls-1" d="M70.36,93.65c5.7-7.83,10.19-15.6,13.34-23.1,3.98-9.47,5.85-18.58,5.57-27.09-.3-9.08-2.45-16.97-6.39-23.44-3.32-5.46-7.88-9.9-13.58-13.2C59.03,.87,48.06,.38,44.94,.38c-3.12,0-14.1,.43-24.4,6.34-5.71,3.28-10.3,7.7-13.64,13.14C2.94,26.31,.76,34.19,.41,43.27c-.5,13.24,4.16,27.74,13.84,43.1,6.63,10.51,14.4,19.39,19.68,24.92,0,0,.87,.72,.73,5.97-.2,9.52-.68,14.49-1.08,17.02-.09,.86-.43,1.1-.83,1.16l-15.58-1.17s-5.83-2.32-9.55,3.06c-5.49,7.95,7.58,6.86,7.58,6.86l24.76,.02c1.62,.09,2.56-1.55,2.79-2.59,.43-1.94,.8-4.91,1.11-9.22,.28,4.31,.65,7.28,1.07,9.22,.22,1.03,1.16,2.68,2.78,2.6l24.76,.09s13.07,1.14,7.61-6.83c-3.7-5.4-9.53-3.1-9.53-3.1l-15.59,1.1c-.4-.07-.75-.31-.83-1.17-.38-2.51-.84-7.41-1-16.75l.05-1.11-.04-1.65c.31-1.3,2.2-3.36,2.2-3.36,4.22-4.37,9.7-10.5,15.01-17.8Zm-24.21,13.16l-1.38,1.33h0l-2.08-1.93c-10.85-11.02-33.42-37.1-32.46-62.57C11.43,11.74,39.34,10.18,44.92,10.19c5.58,.01,33.46,1.69,34.53,33.6,.43,12.94-5.45,28.18-17.03,44.08-5.99,8.22-12.17,14.85-16.28,18.94Z"/><path class="cls-1" d="M74.08,144.76c-.91,0-1.56-.05-1.64-.06l-24.73-.08c-1.86,.08-2.88-1.68-3.14-2.89-.27-1.24-.51-2.87-.71-4.86-.21,2-.46,3.62-.73,4.86-.27,1.21-1.31,2.98-3.18,2.88l-24.74-.02c-.26,.03-7.21,.57-8.92-2.4-.74-1.28-.4-2.98,1.03-5.05,3.65-5.28,9.3-3.45,9.94-3.22l15.53,1.16c.09-.02,.36-.07,.43-.83,.38-2.47,.88-7.41,1.08-16.99,.13-4.8-.61-5.68-.62-5.69-5.35-5.6-13.11-14.48-19.74-24.99C4.21,71.15-.47,56.58,.04,43.26c.35-9.15,2.55-17.09,6.55-23.6,3.38-5.5,8.01-9.96,13.78-13.27C30.74,.44,41.81,.02,44.94,0c3.14,0,14.2,.5,24.54,6.5,5.75,3.33,10.36,7.82,13.71,13.33,3.97,6.53,6.13,14.47,6.44,23.62,.29,8.56-1.6,17.73-5.59,27.25-3.16,7.52-7.66,15.32-13.38,23.17h0c-4.44,6.09-9.5,12.09-15.04,17.83-.49,.54-1.83,2.15-2.09,3.14l.04,1.6-.05,1.14c.16,9.4,.63,14.26,1,16.68,.08,.78,.34,.82,.52,.85l15.45-1.1c.64-.23,6.3-2.03,9.92,3.26,1.42,2.07,1.76,3.78,1.01,5.06-1.23,2.1-5.08,2.42-7.32,2.42Zm-26.38-.9l24.78,.09c.1,0,6.8,.56,8.29-1.99,.59-1.01,.26-2.44-.98-4.25-3.49-5.1-9.03-2.99-9.09-2.97l-.11,.03-15.58,1.1c-.77-.12-1.14-.61-1.23-1.5-.37-2.42-.84-7.32-1-16.78l.05-1.14-.04-1.67v-.05c.34-1.38,2.22-3.44,2.3-3.53,5.53-5.72,10.56-11.7,14.98-17.76h0c5.68-7.81,10.16-15.55,13.3-23.02,3.96-9.42,5.82-18.48,5.54-26.93-.3-9.02-2.43-16.84-6.33-23.26-3.29-5.4-7.81-9.8-13.44-13.07C58.92,1.24,48.04,.76,44.94,.75h-.06c-3.18,0-14,.47-24.14,6.29-5.65,3.25-10.2,7.62-13.51,13.01C3.29,26.45,1.13,34.27,.79,43.29c-.5,13.16,4.14,27.59,13.79,42.88,6.6,10.46,14.32,19.3,19.64,24.87,.14,.11,.97,1.07,.83,6.23-.2,9.62-.7,14.59-1.08,17.07-.09,.88-.46,1.37-1.14,1.48l-15.78-1.19c-.23-.09-5.6-2.14-9.1,2.93-1.25,1.81-1.58,3.24-1,4.25,1.48,2.56,8.18,2.03,8.24,2.03l24.79,.02c1.43,.08,2.22-1.37,2.43-2.29,.44-2.01,.81-5.09,1.1-9.16h.75c.27,4.06,.62,7.15,1.06,9.17,.2,.93,1.03,2.38,2.39,2.3Zm-2.99-35.15l-.25-.36-2.03-1.87c-10.13-10.29-33.56-36.97-32.58-62.86C11.06,11.5,39.07,9.81,44.86,9.81h.06c5.64,.01,33.82,1.71,34.9,33.96,.44,13.02-5.48,28.35-17.1,44.32-5.99,8.23-12.18,14.87-16.32,18.98h0l-1.69,1.63Zm.15-98.15c-5.66,0-33.08,1.64-34.27,33.09-.97,25.59,22.3,52.09,32.35,62.29l1.82,1.67,1.12-1.08c4.12-4.1,10.28-10.71,16.24-18.89,11.53-15.83,17.39-30.99,16.96-43.85-1.06-31.57-28.64-33.23-34.16-33.24h-.06Z"/></g><path class="cls-1" d="M56.2,46.51l9.1-8.96c2.85-2.79,2.91-7.36,.12-10.21-2.79-2.85-7.36-2.91-10.21-.12l-9.29,9.16-9.29-9.16c-2.85-2.79-7.42-2.73-10.21,.12-2.79,2.85-2.73,7.42,.12,10.21l9.1,8.96-9.1,8.96c-2.85,2.79-2.91,7.36-.12,10.21,2.79,2.85,7.36,2.91,10.21,.12l9.29-9.16,9.29,9.16c2.85,2.79,7.42,2.73,10.21-.12,2.79-2.85,2.73-7.42-.12-10.21l-9.1-8.96Z"/></g></g></svg>
